<svg width="231" height="39" viewBox="0 0 231 39" fill="none" xmlns="http://www.w3.org/2000/svg">
  <path d="M0 38.5945H0.403578V36.9777H0.803609V35.3598C0.950784 35.3492 1.07242 35.34 1.22031 35.3293V33.7246C1.36181 33.7175 1.47707 33.7115 1.62069 33.704V32.0968C1.7629 32.0869 1.87745 32.0787 2.02285 32.0684V30.4371C2.41402 30.5375 2.43175 30.2999 2.43459 30.0459C2.43991 29.581 2.44735 29.1157 2.4548 28.6508C2.45587 28.5933 2.46083 28.5359 2.46473 28.4653C2.59311 28.4561 2.70766 28.4483 2.85058 28.438V26.8304C2.99385 26.8226 3.10946 26.8166 3.25096 26.8088V25.1991C3.39246 25.1931 3.50808 25.1877 3.65064 25.1817V23.5791C3.79782 23.5685 3.91981 23.5596 4.06734 23.549V21.9449C4.2092 21.9386 4.32481 21.9336 4.46737 21.9272V20.3189C4.60852 20.3104 4.72342 20.3037 4.87769 20.2945V18.3131C5.03054 18.3018 5.14544 18.2932 5.28871 18.2826V16.675C5.43199 16.6672 5.54724 16.6612 5.6891 16.6534V15.0444C5.83024 15.0373 5.94586 15.0316 6.08842 15.0245V13.4219C6.23559 13.412 6.35759 13.4038 6.50547 13.3939V11.7895C6.64733 11.7832 6.76294 11.7782 6.90551 11.7718V10.1635C7.0463 10.155 7.1612 10.1483 7.30625 10.1398V8.53609C7.44846 8.52439 7.56229 8.51481 7.72614 8.50134C7.72614 8.17578 7.72401 7.84916 7.72685 7.52289C7.72897 7.30337 7.75557 7.08279 7.73997 6.86504C7.72011 6.58913 7.81834 6.46359 8.1322 6.53239V4.90496C8.27689 4.89396 8.39215 4.8851 8.53542 4.87446V3.27114C8.67728 3.26192 8.79253 3.25412 8.93474 3.24454V1.64158C9.08156 1.632 9.20356 1.6242 9.34293 1.61534V0.0212402H25.2289C25.1853 0.296794 25.2733 0.465956 25.6084 0.376942C25.6151 0.527308 25.6212 0.651786 25.6279 0.802862H26.0105C26.0208 0.950391 26.0297 1.07274 26.0393 1.2114H26.4297V2.01253C26.578 2.02069 26.6932 2.02672 26.8276 2.03416C26.8344 2.16254 26.8411 2.2856 26.8486 2.42427C26.9776 2.43313 27.1003 2.44164 27.2394 2.45122V2.83387C27.3777 2.84026 27.5 2.84593 27.6511 2.85267V3.64493C27.7951 3.65131 27.9107 3.65663 28.0465 3.66231C28.054 3.78997 28.0611 3.91268 28.0692 4.05241C28.199 4.05914 28.3217 4.06553 28.4604 4.07262V4.45705C28.598 4.46521 28.7203 4.47265 28.8622 4.48116V5.2674C29.0023 5.27591 29.1246 5.283 29.2658 5.29151C29.2736 5.4167 29.2814 5.53905 29.2902 5.67736C29.4144 5.68339 29.5303 5.68906 29.6718 5.69615C29.6796 5.81637 29.6874 5.93872 29.697 6.0859C29.8169 6.09406 29.9385 6.10257 30.0836 6.1125V6.89093C30.2286 6.90086 30.3506 6.90901 30.474 6.91752C30.474 7.54133 30.4843 8.15627 30.4602 8.76944C30.4573 8.84214 30.2644 8.90775 30.0981 9.01663V10.5313C29.9545 10.5433 29.8399 10.5529 29.6974 10.565V12.1686C29.5498 12.1782 29.4282 12.186 29.2807 12.1956V13.8064H28.8806V15.4267C28.7335 15.4349 28.6118 15.442 28.4707 15.4498V16.2349C28.3302 16.2441 28.2082 16.2519 28.0703 16.2612C28.0639 16.3842 28.0579 16.5002 28.0504 16.642C27.9309 16.6498 27.8086 16.658 27.6625 16.6676C27.6546 16.7882 27.6468 16.9102 27.6376 17.0556H26.8574C26.8475 17.1999 26.8393 17.3215 26.8298 17.4584C26.7049 17.4645 26.589 17.4701 26.4457 17.4772C26.4382 17.5967 26.4304 17.7191 26.4216 17.8627C26.2982 17.8698 26.1758 17.8772 26.0364 17.8854C26.0297 18.0152 26.0233 18.1379 26.0159 18.2762H25.6311C25.6229 18.4138 25.6155 18.5358 25.6066 18.6823H24.8268C24.8165 18.827 24.8076 18.9483 24.798 19.0844C24.6721 19.0901 24.5555 19.0954 24.4125 19.1018C24.4051 19.222 24.3973 19.344 24.3881 19.488C24.265 19.4951 24.1427 19.5026 24.0065 19.5104V20.3083H24.3863C24.3938 20.4473 24.4001 20.57 24.4079 20.7136C24.5253 20.7236 24.6395 20.7331 24.7807 20.7448C24.7924 20.9974 24.8041 21.2545 24.8165 21.5272H25.1984C25.2066 21.6655 25.214 21.7878 25.2222 21.9258C25.346 21.9325 25.4619 21.9389 25.6041 21.9467C25.6112 22.0747 25.6229 22.206 25.6247 22.3368C25.6282 22.5872 25.6236 22.8397 26.0137 22.722C26.0212 22.8766 26.0272 23.0007 26.034 23.1422C26.162 23.1511 26.2843 23.1596 26.4233 23.1692V23.5525H26.8205V23.9618H26.439V25.5832C26.2918 25.5906 26.1698 25.5966 26.0304 25.6037V27.2071C25.8925 27.2163 25.7712 27.2241 25.6229 27.234V28.8405C25.4818 28.8497 25.3669 28.8572 25.2225 28.8664V30.4981C24.8424 30.402 24.8094 30.6215 24.8115 30.8839C24.8158 31.4067 24.8129 31.9298 24.8129 32.4692C24.6604 32.4809 24.5452 32.4897 24.409 32.5C24.4026 32.6238 24.3962 32.7476 24.3888 32.8983H23.6096C23.5997 33.044 23.5912 33.1653 23.582 33.2997C23.4497 33.3079 23.3266 33.3157 23.1866 33.3246V33.7076H22.7869C22.777 33.8551 22.7692 33.9771 22.7599 34.1158C22.6358 34.1211 22.5198 34.1264 22.378 34.1328C22.3709 34.2544 22.3635 34.3768 22.3549 34.5204C22.1024 34.5317 21.8521 34.5427 21.5818 34.5544C21.5723 34.674 21.5634 34.7889 21.5524 34.9254C21.4297 34.9321 21.3059 34.9389 21.1556 34.9474V35.3283C21.0077 35.3385 20.8853 35.3471 20.7463 35.357V35.7389H20.347C20.3371 35.8861 20.3289 36.0085 20.3197 36.1418C20.1704 36.1528 20.0278 36.1801 19.8881 36.1702C19.6232 36.1517 19.4732 36.2283 19.5519 36.5535H19.1228C19.1157 36.6975 19.11 36.8131 19.1029 36.9557C18.983 36.9628 18.8607 36.9702 18.7171 36.9791C18.7096 37.1032 18.7022 37.2252 18.694 37.3635C18.5702 37.3703 18.4543 37.3763 18.3117 37.3841C18.3039 37.5029 18.2961 37.6249 18.2869 37.766C18.156 37.776 18.0255 37.7859 17.8872 37.7965C17.8791 37.9157 17.8716 38.0235 17.862 38.1579C17.611 38.1714 17.3616 38.1845 17.0911 38.1991C17.0833 38.3225 17.0755 38.4441 17.0669 38.5821C16.9439 38.5888 16.8279 38.5952 16.6861 38.603C16.6775 38.7218 16.669 38.8438 16.658 39.0002H0V38.5938V38.5945ZM7.73749 32.8905H15.4438C15.4523 32.7518 15.4597 32.6295 15.4668 32.5085C15.6087 32.5022 15.7246 32.4968 15.8481 32.4912C15.858 32.3528 15.8665 32.2312 15.8771 32.0812H16.6506C16.6598 31.9376 16.6673 31.823 16.6761 31.6861H17.0673C17.0772 31.5411 17.0857 31.4187 17.096 31.2716H17.4943V30.8889C17.6333 30.879 17.7556 30.8705 17.884 30.8616C17.8922 30.724 17.8993 30.6024 17.9074 30.468C18.0401 30.468 18.1496 30.4711 18.2585 30.4672C18.5124 30.4587 18.7969 30.4839 18.6844 30.0587H19.1217V28.4501C19.2671 28.443 19.3827 28.4376 19.5232 28.4309V26.8244C19.6707 26.8152 19.7927 26.8077 19.9065 26.8006V26.0094C19.7703 26.002 19.6544 25.9956 19.5306 25.9889C19.5225 25.8509 19.515 25.7289 19.5068 25.5906H19.1267C19.1118 25.3186 19.0979 25.0629 19.0841 24.8083C18.9476 24.7994 18.8398 24.7923 18.7196 24.7845C18.7103 24.6448 18.7015 24.5146 18.6919 24.3685H18.3138C18.3043 24.2299 18.2954 24.1075 18.2865 23.9791C18.1489 23.971 18.0269 23.9639 17.883 23.9554V23.1727C17.7383 23.1642 17.617 23.1574 17.4808 23.1493V22.7645H10.1621V23.96C10.0139 23.9692 9.89226 23.977 9.75431 23.9855V25.5878C9.61565 25.5981 9.49436 25.6069 9.34577 25.6183V27.2195C9.20179 27.2326 9.08759 27.2429 8.92481 27.2574C8.92481 27.8571 8.92162 28.4391 8.92694 29.021C8.92836 29.1732 8.87481 29.2413 8.71983 29.2303C8.66522 29.2264 8.60919 29.2413 8.52407 29.2512V30.8513C8.37761 30.8623 8.26341 30.8712 8.12227 30.8818V32.4876C7.97828 32.4947 7.86267 32.5 7.73784 32.5061L7.73749 32.8905ZM13.8266 8.92016C13.666 8.93116 13.5511 8.93896 13.4106 8.94853V10.5689H13.0102V12.1779C12.8616 12.1867 12.74 12.1938 12.6013 12.2023V13.8021C12.4627 13.812 12.3403 13.8209 12.1939 13.8312V15.4349C12.0517 15.4437 11.9364 15.4512 11.808 15.459V16.2339H19.5519C19.4639 15.8998 19.6352 15.8374 19.904 15.8562C20.0431 15.8657 20.1846 15.8388 20.3406 15.8271V15.4505C20.4793 15.4416 20.6016 15.4338 20.7314 15.4253C20.7392 15.2873 20.7463 15.165 20.7541 15.0267H21.1378C21.1453 14.888 21.1517 14.7657 21.1584 14.6366C21.2999 14.6284 21.4233 14.6213 21.5552 14.6135C21.5637 14.4848 21.5712 14.3699 21.5808 14.2259H22.3542C22.3645 14.0738 22.373 13.9518 22.3815 13.8227C22.5195 13.8149 22.6418 13.8081 22.7635 13.801C22.7731 13.6553 22.7812 13.5329 22.789 13.4138C22.9302 13.4049 23.0454 13.3978 23.1859 13.3893V11.7839C23.3277 11.7736 23.443 11.7654 23.5862 11.7551V10.1756C23.7316 10.0812 23.9732 10.2405 23.9724 9.95287C23.9714 9.66597 23.7295 9.82804 23.6004 9.74115C23.5926 9.62412 23.5838 9.49255 23.5745 9.35459C23.4373 9.34608 23.3153 9.33864 23.1742 9.33012V8.54744C23.0319 8.53716 22.91 8.52864 22.7635 8.518V8.11762H22.3812C22.3716 7.9786 22.3627 7.8559 22.3539 7.72503C22.2166 7.71865 22.095 7.71333 21.9542 7.70695V6.91823C21.812 6.90937 21.6896 6.90157 21.5425 6.89235V6.50827C21.3999 6.50189 21.2839 6.49621 21.1605 6.49054C21.1509 6.35223 21.1424 6.23024 21.1343 6.11392H14.2132V7.28954C14.0731 7.29699 13.9642 7.30302 13.8277 7.31046V8.91981L13.8266 8.92016Z" fill="#5CFF00"/>
  <path d="M88.6618 35.3364V35.7379C88.5228 35.7457 88.4005 35.7528 88.2618 35.7609C88.254 35.8907 88.2465 36.0127 88.238 36.1518H87.8557C87.8479 36.2901 87.8412 36.4121 87.8334 36.55C87.7036 36.5589 87.5809 36.567 87.4419 36.5766C87.4362 36.6997 87.4305 36.8156 87.4234 36.9639H86.6351C86.6283 37.1114 86.623 37.227 86.617 37.3643C86.4904 37.3714 86.368 37.3781 86.2294 37.3859C86.2205 37.515 86.2123 37.6373 86.2031 37.7763H85.8187V38.1735C85.6708 38.1838 85.5481 38.1923 85.4084 38.2023V38.5906H84.6055C84.598 38.7385 84.592 38.8537 84.5853 38.9853H68.3379V37.7537C68.6567 37.8359 68.7216 37.6693 68.7159 37.4011C68.7049 36.8699 68.7127 36.3379 68.7127 35.7882C68.8681 35.7744 68.9823 35.7641 69.1266 35.751V34.1502C69.2756 34.1392 69.3972 34.1303 69.5359 34.12V32.5178C69.6742 32.5093 69.7958 32.5018 69.944 32.4926V30.8857H70.3444V29.2668C70.4913 29.2558 70.6129 29.2466 70.7608 29.2356V27.6312C70.9023 27.6234 71.0175 27.6167 71.1615 27.6085V26.0027C71.3044 25.9914 71.419 25.9825 71.5754 25.9701C71.5754 25.6006 71.5743 25.2392 71.5757 24.8782C71.5764 24.7094 71.574 24.5399 71.5881 24.3718C71.6183 24.015 71.6225 24.0153 71.9868 23.9696V22.3702C72.1304 22.3613 72.2456 22.3539 72.3882 22.345V20.7364C72.5308 20.7293 72.6464 20.7232 72.7872 20.7161V19.1103C72.9326 19.0997 73.0546 19.0908 73.2021 19.0802V17.4755C73.3432 17.4677 73.4589 17.4616 73.6025 17.4538V15.8473C73.7451 15.8367 73.8596 15.8278 74.0153 15.8165C74.0153 15.4047 74.0146 15.0012 74.0156 14.5976C74.016 14.471 74.0309 14.344 74.0249 14.2181C74.0114 13.9514 74.0653 13.7564 74.4295 13.8486V12.2155C74.5738 12.2059 74.6887 12.1981 74.8313 12.1885V10.5806C74.9742 10.5732 75.0898 10.5675 75.2313 10.56V8.95069C75.3725 8.9443 75.4881 8.93898 75.631 8.9326V7.3307C75.7782 7.32006 75.9002 7.31155 76.0481 7.30091V5.69653C76.1896 5.68979 76.3052 5.68447 76.4481 5.67809V4.07016C76.5892 4.0613 76.7042 4.05385 76.8496 4.04463V2.44096C76.9921 2.42819 77.106 2.41791 77.2684 2.40301C77.2684 2.06114 77.2666 1.72601 77.2691 1.39052C77.2705 1.18767 77.2953 0.98375 77.2787 0.782671C77.2553 0.503925 77.334 0.354623 77.6613 0.438317C77.6695 0.290079 77.6766 0.16631 77.6844 0.0219727H93.5236C93.5303 0.135102 93.5374 0.257452 93.5455 0.397179C93.6661 0.404981 93.7814 0.412783 93.9282 0.422359V1.20433C94.0803 1.21497 94.2023 1.22349 94.3414 1.23342V1.61571H94.7421C94.7506 1.76395 94.7577 1.88701 94.7655 2.02851C94.885 2.03773 94.9996 2.0466 95.1435 2.05795V2.83141C95.2932 2.84028 95.4152 2.84737 95.5553 2.85553C95.5638 2.98178 95.5719 3.10377 95.5812 3.24244C95.7053 3.24811 95.8213 3.25343 95.9589 3.25946C95.9702 3.40663 96.0011 3.55629 95.9894 3.70276C95.967 3.97547 96.0567 4.11024 96.3717 4.03222C96.3787 4.18613 96.3848 4.31593 96.3915 4.46275H96.7788V4.86136C96.9263 4.87164 97.0487 4.8798 97.1965 4.89008V5.66497C97.3366 5.6749 97.4519 5.6827 97.5909 5.69263C97.5976 5.81392 97.6047 5.93698 97.6129 6.08309C97.7359 6.09018 97.8583 6.09692 97.9962 6.10472C98.0048 6.23381 98.0129 6.35616 98.0225 6.49482H98.4101V7.30056C98.553 7.30871 98.6683 7.31545 98.8023 7.32325V7.70555C98.6874 7.71229 98.5718 7.71938 98.4293 7.7279V9.3305C98.2821 9.33972 98.1604 9.34753 98.0122 9.35675V10.9622C97.8707 10.9689 97.7551 10.9742 97.6125 10.981V12.5893C97.4724 12.5988 97.3575 12.6066 97.2121 12.6162V14.1795C97.1685 14.2117 97.155 14.2302 97.1437 14.2291C96.8887 14.2018 96.7862 14.2951 96.8018 14.5685C96.8256 14.988 96.8082 15.4101 96.8082 15.8417C96.6539 15.8523 96.539 15.8604 96.4085 15.8697C96.4004 15.9927 96.3929 16.1076 96.3844 16.2403C96.255 16.247 96.1312 16.253 95.9915 16.2601C95.9823 16.3889 95.9737 16.5109 95.9638 16.6499H95.5812V17.0481C95.4336 17.0584 95.3113 17.0669 95.1723 17.0765V17.4517C95.0081 17.4645 94.8581 17.4957 94.7112 17.4833C94.4364 17.4602 94.3052 17.5535 94.3818 17.8645C94.2279 17.872 94.0974 17.878 93.9505 17.8851V18.272H93.5526C93.5424 18.4195 93.5335 18.5419 93.5236 18.6809H93.1409V19.082C92.9923 19.0898 92.8689 19.0965 92.7249 19.104C92.7132 19.2199 92.7019 19.3327 92.6884 19.4664C92.5714 19.476 92.4561 19.4856 92.3153 19.4973C92.3071 19.6178 92.2986 19.7398 92.2891 19.8774C92.1664 19.8884 92.0522 19.8987 91.9263 19.9101V20.2984C92.0422 20.3044 92.1646 20.3104 92.3025 20.3175C92.3111 20.4477 92.3192 20.5704 92.3284 20.7094C92.4522 20.7151 92.5682 20.7204 92.7104 20.7268V21.1112C92.8575 21.1204 92.9795 21.1282 93.1214 21.1371V21.923C93.2615 21.9311 93.3835 21.9386 93.5218 21.9467C93.5306 22.0744 93.5392 22.1968 93.5487 22.3358H93.9293C93.9371 22.4741 93.9442 22.5964 93.9523 22.7397C94.0764 22.7486 94.1981 22.7571 94.3414 22.767V23.5479C94.4843 23.5572 94.6063 23.565 94.7417 23.5735V24.3732C94.6233 24.3817 94.5087 24.3902 94.3492 24.4015C94.3492 24.7314 94.3509 25.0583 94.3484 25.3853C94.3467 25.5963 94.33 25.8077 94.336 26.0183C94.3435 26.2776 94.2899 26.4627 93.9399 26.3705V28.0047C93.7966 28.0149 93.6814 28.0231 93.5395 28.033V29.6388C93.3987 29.6473 93.2835 29.6548 93.1413 29.6633V31.2666C92.9948 31.2758 92.8724 31.2836 92.7242 31.2929V32.4958H92.3291C92.321 32.6341 92.3139 32.7565 92.3061 32.8948C92.1763 32.9022 92.0536 32.9097 91.9149 32.9178V33.3005C91.7759 33.3079 91.6528 33.3143 91.5085 33.3221C91.4989 33.4384 91.4897 33.5526 91.478 33.6952C91.2255 33.7065 90.9687 33.7179 90.6953 33.7299V34.1122C90.5567 34.12 90.4343 34.1271 90.2964 34.1346C90.2875 34.2637 90.2793 34.386 90.2701 34.525H89.8857V34.9226C89.7374 34.9322 89.6144 34.9403 89.4739 34.9495C89.4672 35.0708 89.4608 35.1861 89.4523 35.3354H88.6618V35.3364ZM76.0552 32.8923H83.366C83.3731 32.7628 83.3795 32.6476 83.3877 32.4986H84.1884V32.1068C84.3274 32.0975 84.4505 32.0894 84.5799 32.0809C84.5877 31.9429 84.5948 31.8206 84.6026 31.6826H84.9853C84.9935 31.5439 85.0005 31.4216 85.008 31.2918C85.1474 31.2836 85.2701 31.2769 85.3984 31.2695C85.4048 31.1343 85.4102 31.0191 85.4172 30.8716H86.2056C86.2123 30.723 86.2177 30.6073 86.2233 30.4804C86.3606 30.4722 86.4829 30.4651 86.6131 30.4573C86.6212 30.319 86.6283 30.1967 86.6361 30.0584H87.0372V29.2537C87.1851 29.2409 87.2997 29.2314 87.4426 29.2189V27.7046C87.6086 27.5951 87.7993 27.5312 87.8036 27.4564C87.8313 26.979 87.8178 26.4992 87.8178 26.0109C87.6944 26.0024 87.5724 25.9942 87.4319 25.9846V25.2016C87.2904 25.1924 87.1684 25.1842 87.0394 25.1757C87.0316 25.0374 87.0245 24.9151 87.0177 24.7927C86.873 24.7831 86.751 24.775 86.6315 24.7672C86.6244 24.6243 86.6184 24.5083 86.612 24.3838C86.4751 24.3746 86.3535 24.3664 86.212 24.3569V23.5759C86.0687 23.566 85.9467 23.5575 85.7992 23.5469V23.149H85.4155C85.4062 23.0103 85.3981 22.8883 85.3892 22.75H85.0967C82.9958 22.75 80.8949 22.7351 78.7944 22.7574C77.962 22.7663 78.1277 22.6315 78.0865 23.4579C78.0652 23.8855 78.0826 24.315 78.0826 24.7509C77.9252 24.7629 77.8106 24.7718 77.6681 24.7828V26.3886C77.5237 26.3967 77.4088 26.4031 77.2677 26.4109V28.016C77.1198 28.0266 76.9981 28.0355 76.8513 28.0462V29.6484C76.7084 29.6548 76.5924 29.6598 76.4513 29.6661V31.2719C76.3031 31.2812 76.1811 31.2886 76.0555 31.2964V32.8916L76.0552 32.8923ZM80.9187 10.9952C80.9187 11.5459 80.9148 12.0694 80.9204 12.5925C80.9233 12.8538 80.8793 13.0563 80.5137 12.9666V14.5986C80.3693 14.6089 80.2544 14.6171 80.131 14.6256V16.2314H87.8352C87.8415 16.0959 87.8469 15.9803 87.8529 15.8565C87.9916 15.8473 88.1139 15.8395 88.2611 15.8299V15.4306H88.6437C88.654 15.2923 88.6629 15.1703 88.6735 15.0239H89.4516C89.4605 14.8777 89.4679 14.7565 89.475 14.6373C89.625 14.6274 89.7477 14.6196 89.8683 14.6114C89.875 14.4706 89.8807 14.3547 89.8867 14.2309C90.0251 14.222 90.1474 14.2142 90.2949 14.2046V13.805H90.6772C90.6868 13.6659 90.6953 13.5436 90.7042 13.4166C90.8432 13.4085 90.9648 13.4014 91.106 13.3932V12.2027C91.2478 12.1928 91.3695 12.1846 91.5159 12.1743V10.5707C91.6585 10.5643 91.7741 10.559 91.8961 10.5536V9.75394C91.767 9.74685 91.6518 9.74046 91.5039 9.73266V8.94927C91.3482 8.93969 91.2259 8.93225 91.1053 8.9248C91.0985 8.78294 91.0932 8.66698 91.0872 8.54356C90.9489 8.53434 90.8265 8.52619 90.6989 8.51803C90.6921 8.37546 90.6865 8.25134 90.6804 8.12296C90.5499 8.11126 90.4354 8.10062 90.3141 8.08963C90.2985 7.82117 90.2843 7.57221 90.269 7.3073H89.8871C89.88 7.16899 89.8736 7.04664 89.8669 6.91755C89.7275 6.90868 89.6055 6.90088 89.4807 6.89308C89.4683 6.62284 89.4566 6.37353 89.4445 6.11004H82.1425V7.71229C82.0003 7.71868 81.8843 7.72364 81.7428 7.73002V9.3376C81.5957 9.34753 81.4744 9.35568 81.3258 9.36561V10.9721C81.1885 10.9799 81.0804 10.986 80.9194 10.9948L80.9187 10.9952Z" fill="#5CFF00"/>
  <path d="M191.136 13.813H190.745V15.4238C190.598 15.4345 190.476 15.443 190.329 15.4536V17.059C190.187 17.0676 190.072 17.0743 189.927 17.0828V18.6872C189.785 18.7003 189.67 18.7106 189.524 18.7241V20.6955C189.376 20.7061 189.261 20.7143 189.119 20.7242V22.3279C188.971 22.3371 188.85 22.3446 188.701 22.3538V23.9628H188.301V25.5821C188.154 25.5916 188.033 25.5994 187.885 25.6087V27.2152C187.744 27.223 187.628 27.2297 187.484 27.2379V28.8447C187.341 28.8557 187.227 28.8646 187.089 28.8749V30.4484H180.593V30.0938C180.715 30.0842 180.83 30.0753 180.974 30.064V28.4571C181.116 28.4493 181.232 28.4433 181.374 28.4355V26.8279C181.514 26.8201 181.63 26.8134 181.773 26.8056V25.2029C181.92 25.1937 182.042 25.1863 182.19 25.1767V23.5713C182.331 23.5649 182.447 23.5596 182.59 23.5532V21.9456C182.731 21.9367 182.846 21.9296 182.991 21.9208V20.3182C183.133 20.3061 183.247 20.2969 183.4 20.2838V18.3056C183.553 18.295 183.668 18.2872 183.811 18.2776V16.6757C183.957 16.6643 184.079 16.6551 184.218 16.6445V15.0454C184.357 15.0373 184.478 15.0298 184.627 15.0213V13.4159C184.769 13.4095 184.884 13.4042 185.027 13.3974V11.7945C185.174 11.782 185.295 11.7718 185.443 11.759V10.1553C185.58 10.1475 185.688 10.1415 185.852 10.1323C185.852 9.86735 185.849 9.60102 185.853 9.33433C185.856 9.05558 185.877 8.77648 185.866 8.49845C185.856 8.23602 185.929 8.08423 186.256 8.1587V6.53127C186.401 6.51992 186.515 6.5107 186.659 6.49936V4.89746C186.801 4.88717 186.916 4.87902 187.059 4.86909V3.26577C187.206 3.2569 187.328 3.24946 187.476 3.24023V1.6316H187.877V0.0158691H203.74V0.799264C203.879 0.80742 204.001 0.814868 204.149 0.823734V2.02489H204.555V3.21541C204.699 3.22818 204.813 3.23846 204.959 3.25158V4.05519C205.105 4.06229 205.221 4.06796 205.366 4.0747V5.27373H205.775V6.48411C205.921 6.49155 206.037 6.49723 206.183 6.50467V7.31077C206.328 7.31963 206.444 7.32637 206.585 7.33488V8.52079C206.728 8.52753 206.844 8.53285 206.98 8.53923V10.1433C206.864 10.1511 206.742 10.1589 206.604 10.1681C206.598 10.2911 206.592 10.4068 206.584 10.5497C206.465 10.5571 206.342 10.5646 206.199 10.5738C206.191 10.6968 206.184 10.8192 206.176 10.9554C206.027 10.9653 205.884 10.9947 205.745 10.9802C205.46 10.9497 205.323 11.0447 205.402 11.3629C205.253 11.3707 205.129 11.3774 204.978 11.3852V11.7671C204.83 11.7767 204.708 11.7845 204.569 11.7934C204.564 11.9172 204.558 12.0331 204.551 12.1757H204.167C204.158 12.3229 204.15 12.4452 204.142 12.5832C204.018 12.5895 203.902 12.5956 203.759 12.6027C203.752 12.7218 203.744 12.8442 203.734 12.9878C203.484 13.0002 203.234 13.0123 202.964 13.0258C202.955 13.1456 202.945 13.2605 202.934 13.396C202.81 13.402 202.686 13.4081 202.536 13.4151V13.7974C202.388 13.8077 202.265 13.8166 202.126 13.8262V14.2092H201.728C201.718 14.3567 201.709 14.4787 201.7 14.6177H201.316C201.31 14.7557 201.304 14.8777 201.297 15.0302H200.523C200.512 15.1741 200.503 15.2887 200.492 15.4259C200.37 15.4327 200.246 15.4394 200.096 15.4476V15.8285C199.948 15.8391 199.826 15.8476 199.687 15.8575V16.2398H199.288C199.278 16.3874 199.27 16.5094 199.26 16.648H198.879V18.6737C199.002 18.6822 199.124 18.6907 199.273 18.7007V20.3093H199.677V21.9062C199.82 21.9179 199.934 21.9275 200.079 21.9392V23.1514C200.224 23.1599 200.339 23.1666 200.479 23.1748V24.7671C200.626 24.7756 200.747 24.7831 200.897 24.7919V26.3782C201.037 26.3896 201.152 26.3988 201.297 26.4101V27.6212C201.442 27.6308 201.556 27.6382 201.699 27.6475V29.2352C201.848 29.2448 201.97 29.2526 202.106 29.2611V30.4487H195.216V29.6625C195.08 29.6508 194.966 29.6412 194.82 29.6288V28.0464C194.669 28.0372 194.547 28.0301 194.393 28.0209V26.4218C194.247 26.4144 194.132 26.4087 193.988 26.4016V25.1852C193.852 25.1749 193.744 25.1664 193.599 25.1554V23.5773C193.441 23.5674 193.318 23.5596 193.176 23.5507V21.9577C193.034 21.947 192.912 21.9378 192.77 21.9272V20.7186C192.696 20.71 192.64 20.6951 192.585 20.6994C192.429 20.7111 192.378 20.6416 192.379 20.4902C192.379 20.11 192.366 19.7298 192.359 19.3497C192.358 19.2674 192.359 19.1847 192.359 19.095C192.223 19.0879 192.114 19.0823 191.984 19.0755V18.3084C192.092 18.2999 192.207 18.2911 192.352 18.2801V16.6629C192.497 16.6548 192.613 16.6484 192.758 16.6402V14.6489C192.902 14.639 193.017 14.6308 193.157 14.6213C193.165 14.5025 193.174 14.3798 193.184 14.2308H193.564C193.574 14.0833 193.583 13.9609 193.592 13.8219H193.975V13.4229C194.122 13.413 194.245 13.4049 194.384 13.3956C194.389 13.2719 194.394 13.1559 194.401 13.0151C194.65 13.0023 194.899 12.9896 195.17 12.9757C195.181 12.8591 195.192 12.7445 195.205 12.6091C195.326 12.6016 195.45 12.5942 195.6 12.5849V12.2037C195.748 12.1945 195.87 12.1867 196.009 12.1782C196.015 12.0544 196.021 11.9384 196.028 11.7959C196.148 11.7888 196.27 11.7813 196.413 11.7728C196.421 11.6487 196.428 11.5263 196.436 11.3884C196.56 11.3817 196.676 11.3756 196.819 11.3682C196.827 11.2494 196.835 11.1274 196.845 10.9827C197.095 10.9717 197.345 10.9603 197.616 10.9483C197.626 10.8302 197.635 10.7156 197.646 10.5788C197.767 10.571 197.89 10.5631 198.04 10.5536V10.173C198.188 10.1635 198.31 10.1557 198.449 10.1468C198.455 10.023 198.46 9.90707 198.467 9.7645C198.588 9.75741 198.71 9.75032 198.853 9.74181C198.86 9.61733 198.868 9.49498 198.876 9.35703C199 9.35064 199.116 9.34461 199.26 9.33717C199.268 9.21836 199.276 9.09672 199.285 8.95416C199.408 8.94635 199.531 8.93855 199.666 8.93004V8.54632C199.552 8.53888 199.429 8.53072 199.279 8.52079V7.32495C199.137 7.31857 199.021 7.31325 198.868 7.30616V6.11457H192.748C192.748 6.39013 192.762 6.66674 192.745 6.94123C192.724 7.27495 192.713 7.27424 192.365 7.30935V8.90664C192.219 8.91905 192.105 8.92862 191.962 8.94068V10.5426C191.813 10.5532 191.692 10.5621 191.545 10.5724V12.1849H191.136V13.8141L191.136 13.813Z" fill="#5CFF00"/>
  <path d="M230.573 6.88077C230.435 6.88857 230.326 6.89496 230.189 6.90276V8.5082C230.04 8.51955 229.919 8.52842 229.78 8.53906V10.1434H229.383C229.373 10.292 229.364 10.4144 229.356 10.5491H223.287V9.75901C223.4 9.75014 223.521 9.74021 223.67 9.72851V8.12378C223.807 8.11562 223.915 8.10924 224.051 8.10108V7.32442C223.948 7.31946 223.826 7.31378 223.688 7.3074C223.679 7.17689 223.671 7.05419 223.662 6.91482H223.279V6.51443C223.132 6.50485 223.009 6.49705 222.871 6.48819C222.865 6.36406 222.86 6.2481 222.853 6.11298H218.4C218.392 6.22895 218.383 6.35059 218.373 6.48748C218.116 6.49989 217.866 6.5123 217.601 6.52542C217.592 6.65097 217.584 6.76587 217.575 6.8946C217.444 6.90169 217.32 6.90879 217.18 6.91659C217.172 7.04532 217.164 7.16767 217.155 7.30598H216.769V8.11207C216.622 8.12129 216.499 8.12874 216.366 8.13725V9.34267C216.491 9.35118 216.606 9.35898 216.737 9.36785C216.745 9.49197 216.752 9.60687 216.76 9.73844C216.89 9.74553 217.014 9.75192 217.154 9.75937C217.162 9.88845 217.171 10.0104 217.18 10.1495H217.563C217.569 10.2878 217.575 10.4101 217.582 10.5491C217.838 10.5637 218.088 10.5779 218.351 10.5931C218.361 10.7144 218.371 10.8215 218.383 10.9591C218.51 10.9648 218.639 10.9708 218.786 10.9775V11.3634H219.186C219.196 11.5106 219.203 11.6329 219.213 11.7712C219.344 11.7776 219.468 11.7836 219.585 11.789C219.601 11.8106 219.619 11.8244 219.618 11.8358C219.587 12.0978 219.695 12.2028 219.962 12.1737C220.102 12.1585 220.246 12.1893 220.407 12.2007C220.415 12.3241 220.424 12.4461 220.434 12.5851H220.816V12.9869C220.964 12.9947 221.087 13.0015 221.231 13.0093C221.24 13.1274 221.25 13.2412 221.261 13.3809C221.51 13.3923 221.76 13.4036 222.035 13.4164C222.042 13.5377 222.049 13.6593 222.057 13.7987C222.184 13.8076 222.307 13.8157 222.446 13.8253V14.2051C222.585 14.2133 222.708 14.2207 222.854 14.2292C222.863 14.3498 222.872 14.4711 222.883 14.6175H223.663C223.671 14.7647 223.677 14.8867 223.684 15.0254H224.071C224.077 15.1637 224.082 15.2857 224.088 15.4236C224.22 15.4325 224.343 15.4407 224.483 15.4502C224.489 15.5726 224.495 15.6878 224.502 15.835H225.294V16.2397H225.692C225.702 16.3872 225.711 16.5092 225.72 16.6482H226.106C226.112 16.7854 226.118 16.9071 226.125 17.0585H226.922V17.4561C227.061 17.4639 227.183 17.471 227.322 17.4791C227.33 17.6089 227.337 17.7309 227.345 17.8696H227.715C227.715 18.1111 227.743 18.3405 227.7 18.5565C227.686 18.6285 227.493 18.6654 227.344 18.7367V20.2967C227.202 20.3056 227.08 20.313 226.932 20.3222V21.9291H226.532V23.548C226.385 23.559 226.263 23.5679 226.115 23.5789V25.1836C225.974 25.1911 225.858 25.1975 225.727 25.2045C225.719 25.3283 225.712 25.4439 225.703 25.5844H225.316C225.307 25.7298 225.299 25.8521 225.29 25.9901C225.166 25.9965 225.05 26.0025 224.907 26.0096C224.9 26.1291 224.892 26.2511 224.883 26.3947C224.76 26.4018 224.637 26.4092 224.499 26.417C224.492 26.5405 224.486 26.6564 224.478 26.799C224.36 26.8068 224.238 26.8153 224.093 26.8249C224.086 26.9465 224.079 27.0689 224.071 27.2065C223.941 27.215 223.818 27.2228 223.678 27.232C223.671 27.354 223.664 27.4693 223.657 27.6129H222.877C222.869 27.7615 222.862 27.8828 222.855 28.0193C222.723 28.0278 222.6 28.0356 222.461 28.0445V28.4286H222.063C222.053 28.5761 222.044 28.6984 222.034 28.8375H221.652V29.2364C221.504 29.246 221.382 29.2542 221.242 29.2634C221.236 29.3868 221.23 29.5024 221.223 29.6485H220.448C220.437 29.7975 220.429 29.9184 220.419 30.0524C220.285 30.0599 220.162 30.0666 220.022 30.0744V30.4518H209.861C209.852 30.3337 209.844 30.2117 209.834 30.073H209.452V29.6726C209.305 29.6634 209.182 29.6556 209.043 29.6467C209.037 29.5162 209.031 29.3935 209.025 29.2573C208.895 29.251 208.78 29.2453 208.633 29.2382V28.4442H208.234C208.226 28.3059 208.218 28.1839 208.211 28.0452C208.081 28.0377 207.958 28.0307 207.82 28.0225V27.6352C207.684 27.6274 207.562 27.6203 207.418 27.6118V26.8288C207.274 26.8203 207.152 26.8128 207.014 26.8047C207.006 26.6759 206.997 26.5536 206.988 26.4149H206.607C206.599 26.2763 206.592 26.1539 206.585 26.0121C206.46 26.0018 206.338 25.9918 206.208 25.9812C206.208 25.4904 206.195 25.0098 206.223 24.5318C206.226 24.4616 206.422 24.402 206.586 24.3027V22.7824C206.73 22.7703 206.845 22.7607 206.988 22.749V21.1464C207.136 21.1369 207.258 21.129 207.405 21.1198V20.3254H213.488V21.5333C213.368 21.5411 213.253 21.5486 213.12 21.5571V23.5548C213.237 23.5604 213.353 23.5661 213.495 23.5729C213.502 23.6931 213.509 23.8154 213.518 23.9591C213.642 23.9665 213.765 23.9736 213.903 23.9818C213.909 24.1055 213.916 24.2211 213.923 24.3573H218.782C218.789 24.2435 218.797 24.1215 218.805 23.9828C218.935 23.9757 219.057 23.969 219.196 23.9615V23.5803C219.343 23.5707 219.474 23.5626 219.615 23.5534C219.596 22.8841 220.136 23.3065 220.409 23.093V21.5489C220.557 21.5379 220.679 21.5287 220.813 21.5188V21.1447C220.684 21.1354 220.553 21.1259 220.413 21.1159C220.427 20.4559 219.893 20.8585 219.619 20.6677C219.614 20.5865 219.606 20.4645 219.597 20.3269C219.474 20.3205 219.358 20.3141 219.215 20.3066C219.207 20.1875 219.199 20.0655 219.191 19.9247C219.06 19.9144 218.929 19.9045 218.791 19.8935C218.783 19.7736 218.777 19.6655 218.769 19.536C218.521 19.514 218.273 19.4924 218.014 19.4693C218.005 19.3505 217.997 19.2431 217.986 19.1066C217.858 19.1005 217.728 19.0945 217.582 19.0878V18.7005H217.184C217.173 18.553 217.165 18.431 217.155 18.2884H216.758C216.75 18.2058 216.763 18.1295 216.732 18.0806C216.688 18.0104 216.619 17.9217 216.548 17.9089C216.36 17.8752 216.164 17.8777 215.955 17.865V17.482H215.557C215.546 17.3344 215.538 17.2124 215.528 17.0677H215.135C215.125 16.9319 215.117 16.8177 215.107 16.684C214.85 16.6723 214.6 16.661 214.331 16.6489C214.325 16.5191 214.319 16.3968 214.312 16.2585H213.925C213.919 16.1201 213.913 15.9982 213.907 15.8598C213.775 15.8513 213.653 15.8435 213.511 15.8343C213.504 15.7137 213.497 15.5988 213.488 15.457H212.709C212.7 15.3098 212.693 15.1882 212.684 15.047C212.559 15.0392 212.436 15.0314 212.298 15.0225C212.292 14.8988 212.286 14.7828 212.279 14.6413C212.159 14.6339 212.036 14.6261 211.89 14.6165C211.881 14.4959 211.873 14.3743 211.863 14.2299H211.083C211.073 14.0859 211.065 13.9639 211.057 13.826C210.934 13.8196 210.818 13.8132 210.675 13.8058C210.667 13.6866 210.659 13.5646 210.65 13.4203C210.527 13.4132 210.404 13.4065 210.265 13.3987C210.257 13.2767 210.25 13.161 210.241 13.0149H209.457V10.9871C209.576 10.9804 209.697 10.9733 209.845 10.9648V9.35401H210.245V7.73616C210.392 7.72552 210.514 7.71665 210.662 7.70601V6.10163C210.803 6.09489 210.919 6.08957 211.064 6.08284V4.88877C211.217 4.87955 211.34 4.8721 211.474 4.8643C211.482 4.73699 211.489 4.62244 211.498 4.47775H212.278V4.07523H212.68C212.689 3.92841 212.698 3.80606 212.706 3.66775C212.83 3.66208 212.946 3.65676 213.089 3.65002V3.26595C213.237 3.25673 213.359 3.24928 213.497 3.24077C213.504 3.117 213.509 3.00103 213.516 2.85918C213.637 2.85173 213.759 2.84393 213.905 2.83471C213.913 2.71307 213.92 2.59143 213.93 2.44213H214.705C214.715 2.30027 214.723 2.18501 214.732 2.04564C214.853 2.03855 214.976 2.03146 215.123 2.02294C215.13 1.90024 215.136 1.77824 215.145 1.64029C215.274 1.63178 215.396 1.62362 215.535 1.6144V1.23033H215.933C215.943 1.0828 215.952 0.960449 215.962 0.821786H216.345C216.351 0.683832 216.357 0.561482 216.363 0.424592C216.511 0.413953 216.654 0.384163 216.793 0.397639C217.074 0.424946 217.218 0.336287 217.139 0.0178223H227.32V0.800862C227.467 0.809374 227.589 0.816466 227.728 0.824623C227.737 0.951583 227.745 1.07393 227.755 1.21295H228.135C228.143 1.35126 228.15 1.47396 228.159 1.62185C228.279 1.63107 228.4 1.64064 228.547 1.65199V2.429C228.69 2.4361 228.806 2.44177 228.948 2.44851C228.956 2.56802 228.964 2.69002 228.973 2.834C229.096 2.84109 229.218 2.84854 229.356 2.85634C229.364 2.9872 229.371 3.11026 229.38 3.2507C229.501 3.25886 229.615 3.26666 229.759 3.27623V4.05041C229.909 4.05963 230.031 4.06708 230.17 4.07559C230.178 4.20467 230.185 4.32702 230.193 4.46533H230.575V6.88325L230.573 6.88077Z" fill="#5CFF00"/>
  <path d="M130.961 8.56743C130.631 8.50147 130.531 8.61708 130.559 8.88483C130.573 9.0242 130.547 9.16783 130.538 9.32884C130.68 9.33841 130.802 9.34657 130.94 9.35614C130.946 9.4792 130.952 9.59517 130.959 9.73773C131.079 9.74483 131.201 9.75227 131.344 9.76078C131.352 9.88491 131.359 10.0073 131.368 10.1456C131.625 10.158 131.875 10.1697 132.141 10.1824C132.15 10.3069 132.158 10.4218 132.168 10.552C132.299 10.5587 132.423 10.5651 132.562 10.5722C132.572 10.7009 132.58 10.8229 132.59 10.9619H132.973C132.979 11.1003 132.984 11.2222 132.99 11.3584C133.147 11.3715 133.297 11.4024 133.445 11.3928C133.708 11.3762 133.839 11.4641 133.757 11.7709C133.915 11.778 134.045 11.7836 134.193 11.79C134.2 11.9219 134.206 12.0443 134.213 12.183H134.597C134.605 12.3213 134.612 12.4433 134.62 12.5816C134.751 12.5894 134.874 12.5965 135.017 12.605C135.026 12.7227 135.036 12.8366 135.047 12.972C135.302 12.9852 135.551 12.9979 135.82 13.0117C135.827 13.1401 135.833 13.2625 135.84 13.4008H136.227C136.233 13.5391 136.238 13.6611 136.244 13.7998C136.376 13.8079 136.499 13.8157 136.641 13.8246C136.649 13.9448 136.656 14.0593 136.666 14.2023H137.443C137.452 14.3505 137.459 14.4721 137.467 14.6119C137.594 14.6204 137.716 14.6289 137.855 14.6381V15.0183C137.994 15.0264 138.116 15.0335 138.262 15.042C138.271 15.164 138.28 15.2857 138.29 15.4304H139.068C139.079 15.5751 139.087 15.6971 139.097 15.8361H139.479V16.2368C139.627 16.2457 139.75 16.2531 139.889 16.2616C139.896 16.3844 139.903 16.5 139.911 16.6461H140.7C140.708 16.7972 140.714 16.9191 140.721 17.0578H141.105C141.113 17.1961 141.12 17.3181 141.128 17.4561C141.257 17.4646 141.38 17.4727 141.52 17.482V17.86C141.66 17.8682 141.782 17.8756 141.917 17.8838V19.0888H141.533V20.7099C141.394 20.7194 141.279 20.7272 141.134 20.7372V22.3387C140.992 22.3508 140.878 22.3604 140.711 22.3745C140.711 22.6795 140.713 22.9888 140.711 23.2984C140.708 23.5349 140.684 23.7718 140.697 24.0073C140.713 24.2747 140.632 24.4176 140.312 24.3435V25.5858H139.909V25.9865C139.634 26.0004 139.384 26.0128 139.115 26.0262C139.106 26.1472 139.097 26.2621 139.086 26.3986H138.692C138.683 26.5412 138.676 26.6632 138.668 26.8018C138.538 26.8096 138.416 26.8167 138.277 26.8249V27.2068C138.138 27.2146 138.016 27.2217 137.878 27.2295C137.869 27.359 137.861 27.4813 137.852 27.62H137.468C137.462 27.7583 137.456 27.8803 137.45 28.0193C137.318 28.0271 137.195 28.0342 137.054 28.0427C137.044 28.1612 137.034 28.2754 137.023 28.4122C136.772 28.4247 136.522 28.4371 136.253 28.4502C136.244 28.575 136.236 28.697 136.226 28.8346C136.102 28.8403 135.986 28.846 135.844 28.8524C135.836 28.9729 135.829 29.0953 135.821 29.2378C135.696 29.2453 135.574 29.2527 135.435 29.2612C135.429 29.385 135.423 29.501 135.415 29.6435C135.296 29.651 135.174 29.6584 135.03 29.6677C135.023 29.7911 135.015 29.9131 135.007 30.0517C134.877 30.0592 134.754 30.0663 134.616 30.0741C134.61 30.2003 134.604 30.3159 134.598 30.4503H124.043V30.0744C123.905 30.068 123.783 30.062 123.645 30.0556C123.636 29.9152 123.614 29.7822 123.621 29.6506C123.636 29.3808 123.578 29.1935 123.234 29.2793C123.228 29.1268 123.222 29.0024 123.216 28.8587C123.088 28.8506 122.966 28.8424 122.828 28.8336C122.822 28.7101 122.816 28.5942 122.809 28.452C122.689 28.4445 122.566 28.4371 122.427 28.4286C122.417 28.2863 122.389 28.1445 122.4 28.0058C122.423 27.7349 122.358 27.5693 122.016 27.6593C122.008 27.504 122.002 27.3742 121.995 27.2274H121.608V26.8295C121.46 26.8192 121.338 26.8107 121.202 26.8008C121.189 26.55 121.177 26.3075 121.164 26.0401C121.05 26.0284 120.936 26.0167 120.795 26.0021C120.789 25.8769 120.782 25.7471 120.775 25.601H120.396V25.2006C120.514 25.1914 120.636 25.1822 120.785 25.1709V23.5668C120.926 23.5587 121.041 23.5519 121.186 23.5438V21.9366C121.323 21.9266 121.431 21.9185 121.575 21.9078V20.3293H128.069V20.6865C127.963 20.696 127.848 20.7063 127.704 20.7191V22.3199C127.561 22.3306 127.446 22.3391 127.312 22.3494V23.1459C127.423 23.1526 127.545 23.1597 127.694 23.1686V23.9445C127.84 23.9555 127.961 23.9651 128.097 23.9754V24.3566H132.984C132.992 24.2385 133 24.1236 133.01 23.9789H133.786C133.793 23.8339 133.798 23.7183 133.805 23.5764H134.191C134.199 23.4296 134.207 23.3072 134.216 23.1693C134.34 23.1629 134.456 23.1569 134.605 23.1491V21.9596C134.752 21.9504 134.868 21.9433 135.001 21.9351V21.1404C134.883 21.1326 134.76 21.1244 134.623 21.1152C134.616 20.9922 134.61 20.8762 134.603 20.7308C134.475 20.7244 134.344 20.7184 134.201 20.7113C134.195 20.6357 134.182 20.5705 134.186 20.506C134.194 20.3691 134.127 20.3325 134.002 20.3318C133.808 20.3308 133.615 20.3148 133.405 20.3045C133.397 20.1765 133.388 20.0541 133.378 19.9158H132.995V19.5172C132.848 19.5069 132.726 19.4988 132.587 19.4892V19.1133C132.422 19.1009 132.272 19.0711 132.126 19.0828C131.856 19.1041 131.714 19.0221 131.798 18.7005C131.644 18.6934 131.514 18.6877 131.368 18.6813C131.362 18.5544 131.357 18.4388 131.35 18.2962C131.229 18.2891 131.107 18.282 130.964 18.2735C130.957 18.1487 130.949 18.0267 130.941 17.8891C130.809 17.882 130.685 17.8752 130.568 17.8689C130.553 17.8479 130.534 17.8341 130.536 17.8224C130.564 17.5674 130.47 17.4504 130.197 17.4841C130.058 17.5011 129.912 17.4703 129.744 17.4593C129.737 17.3394 129.73 17.2174 129.721 17.0794C129.594 17.0706 129.471 17.0617 129.332 17.0521V16.6752C129.187 16.6649 129.056 16.6557 128.918 16.6457C128.91 16.5181 128.902 16.4035 128.893 16.2599H128.112V15.8574H127.713C127.704 15.7098 127.695 15.5878 127.685 15.4414H127.296C127.288 15.3024 127.282 15.1875 127.274 15.047H126.492C126.484 14.9013 126.476 14.7796 126.469 14.642C126.341 14.6328 126.218 14.6243 126.079 14.6144V14.2324H125.677C125.667 14.0867 125.657 13.965 125.646 13.8217H124.868C124.858 13.6785 124.849 13.5565 124.839 13.4182C124.716 13.4125 124.6 13.4072 124.457 13.4008V13.0164C124.31 13.0075 124.187 13 124.048 12.9919C124.041 12.8692 124.034 12.7536 124.026 12.6089C123.906 12.6029 123.784 12.5972 123.647 12.5904V11.7794C123.767 11.7716 123.876 11.7645 124.038 11.7538C124.038 11.4506 124.036 11.1499 124.039 10.8492C124.041 10.6041 124.063 10.3587 124.051 10.1147C124.038 9.85157 124.098 9.69057 124.437 9.79625V8.15605C124.587 8.14435 124.708 8.13477 124.848 8.12378V6.52046C124.987 6.5123 125.109 6.50486 125.255 6.49599V5.29058C125.394 5.28313 125.509 5.2771 125.647 5.27001C125.655 5.14588 125.663 5.02424 125.672 4.88771C125.798 4.88168 125.914 4.876 126.057 4.86927C126.065 4.74975 126.073 4.62776 126.082 4.48342C126.205 4.47633 126.327 4.46923 126.466 4.46108C126.473 4.33128 126.48 4.20893 126.489 4.07027H126.871C126.879 3.93196 126.886 3.80996 126.894 3.67165C127.024 3.66314 127.146 3.65534 127.286 3.64612V3.26559C127.552 3.25318 127.802 3.24148 128.073 3.22907C128.083 3.11168 128.093 2.99713 128.105 2.85953C128.225 2.85209 128.348 2.84429 128.499 2.83506V2.45383C128.646 2.44461 128.769 2.43716 128.907 2.42865C128.913 2.30488 128.919 2.18891 128.926 2.04635C129.046 2.03926 129.168 2.03181 129.311 2.02294C129.319 1.89882 129.326 1.77683 129.335 1.63852C129.458 1.63178 129.574 1.62575 129.717 1.61795C129.725 1.49914 129.732 1.37679 129.742 1.236C129.873 1.22607 130.003 1.21579 130.141 1.20515C130.149 1.08564 130.156 0.977827 130.165 0.843064C130.416 0.829588 130.665 0.816466 130.937 0.801926C130.945 0.678867 130.952 0.557226 130.961 0.418208C131.091 0.41147 131.214 0.405087 131.352 0.397994V0.0178223H141.515C141.521 0.140527 141.527 0.262522 141.534 0.401186H141.925V1.20728C142.069 1.21366 142.184 1.21898 142.326 1.22536V1.61085C142.473 1.62008 142.596 1.62752 142.734 1.63639C142.74 1.76016 142.746 1.87612 142.753 2.01869C142.872 2.02649 142.995 2.03429 143.146 2.04387V2.83506H143.547V3.23474C143.695 3.24467 143.817 3.25318 143.956 3.26276V3.64541H144.367V4.46179H144.769V4.85969C144.916 4.86998 145.039 4.87884 145.172 4.88806V5.67252C145.049 5.68032 144.928 5.68813 144.779 5.6977V7.3074H144.379V8.92632C144.238 8.93412 144.123 8.94086 143.978 8.94902V10.546H137.472V10.1704C137.593 10.1629 137.716 10.1555 137.864 10.1463V8.53551H138.254V7.32194C138.136 7.31627 138.021 7.31059 137.88 7.30385C137.872 7.18363 137.863 7.06128 137.853 6.91162C137.734 6.90453 137.613 6.89709 137.468 6.88822V6.11014H132.587V6.48748H132.186C132.177 6.63501 132.169 6.75736 132.16 6.89673C132.03 6.90276 131.907 6.90843 131.771 6.91446C131.765 7.04532 131.76 7.16058 131.754 7.30456H130.962V8.56672L130.961 8.56743Z" fill="#5CFF00"/>
  <path d="M114.268 13.0011C114.413 12.9937 114.522 12.988 114.67 12.9802V11.3403C115.038 11.4343 115.086 11.2506 115.082 10.9786C115.076 10.5055 115.097 10.0321 115.107 9.55899C115.108 9.50154 115.113 9.44444 115.118 9.37458C115.246 9.36429 115.36 9.35507 115.495 9.34443V7.74218C115.635 7.73225 115.757 7.72409 115.904 7.71381V6.10588C116.046 6.0995 116.162 6.09418 116.304 6.0878V4.48022C116.445 4.47348 116.56 4.46781 116.704 4.46072V2.85846C116.851 2.84854 116.973 2.84073 117.121 2.8308V1.225C117.262 1.21756 117.377 1.21117 117.516 1.20373V0.0199449H123.614V1.61546C123.49 1.62078 123.374 1.6261 123.232 1.63213V3.23757C123.084 3.24608 122.962 3.25318 122.823 3.26169V4.86323C122.685 4.8721 122.563 4.8799 122.415 4.88912V6.49563C122.273 6.50379 122.158 6.51052 122.013 6.51904V8.12448C121.871 8.13689 121.757 8.14682 121.597 8.16065C121.597 8.50359 121.599 8.83908 121.596 9.17456C121.595 9.37742 121.569 9.58133 121.586 9.78206C121.61 10.0629 121.524 10.2073 121.191 10.1239V11.7549C121.047 11.7655 120.931 11.7737 120.789 11.7843V13.3877C120.648 13.3969 120.533 13.4043 120.39 13.4139V15.0169C120.243 15.0257 120.121 15.0332 119.973 15.042V16.6507H119.572V18.2703C119.432 18.2795 119.317 18.287 119.157 18.2973C119.157 18.5005 119.158 18.7079 119.156 18.915C119.153 19.253 119.158 19.5917 119.139 19.929C119.119 20.2733 119.108 20.2726 118.751 20.3113V21.9096C118.606 21.9202 118.492 21.9291 118.348 21.9397V23.5431C118.207 23.5523 118.092 23.5601 117.951 23.5693C117.943 23.6885 117.935 23.8108 117.925 23.9601H117.546C117.535 24.1076 117.527 24.23 117.517 24.369H117.134V24.7666C116.986 24.7768 116.864 24.7857 116.724 24.7956V25.1779H116.326C116.316 25.3255 116.307 25.4475 116.297 25.5868H115.915V25.9862C115.767 25.9957 115.645 26.0039 115.506 26.0131C115.5 26.1369 115.495 26.2529 115.489 26.3954H115.104C115.095 26.5429 115.087 26.6653 115.079 26.8032C114.955 26.8093 114.839 26.8149 114.696 26.822C114.689 26.9423 114.682 27.0643 114.673 27.2072C114.549 27.2146 114.426 27.2221 114.288 27.2306C114.282 27.3544 114.275 27.4703 114.268 27.6129C114.149 27.6203 114.026 27.6281 113.882 27.637C113.875 27.7601 113.868 27.8824 113.86 28.0218C113.73 28.0285 113.607 28.0353 113.468 28.0427V28.425C113.329 28.4328 113.206 28.4399 113.066 28.4477C113.058 28.5693 113.05 28.6846 113.041 28.8261C112.922 28.8343 112.8 28.8424 112.652 28.8523C112.642 28.9715 112.632 29.0924 112.621 29.2233C112.367 29.2421 112.125 29.2598 111.866 29.279C111.857 29.3978 111.848 29.5127 111.837 29.6521C111.714 29.6577 111.591 29.6634 111.449 29.6701C111.439 29.7978 111.43 29.9198 111.42 30.0578H111.034C111.028 30.1954 111.023 30.3174 111.017 30.455H101.678V30.0758H101.278C101.268 29.9283 101.26 29.806 101.251 29.6677C101.127 29.662 101.011 29.6563 100.867 29.6499V28.8619C100.719 28.8513 100.597 28.8428 100.458 28.8328V28.453C100.32 28.4449 100.198 28.4378 100.048 28.4289V27.6356H99.6479V27.2355C99.5007 27.2256 99.3784 27.2175 99.2376 27.2079V26.422C99.0982 26.4139 98.9762 26.4068 98.8372 26.3986C98.8283 26.2716 98.8202 26.1493 98.8106 26.0099H98.4265V25.2045C98.2779 25.1946 98.1556 25.1865 98.0169 25.1772V24.7932C97.879 24.7868 97.757 24.7811 97.619 24.7747V23.17C97.747 23.164 97.8626 23.1586 98.0045 23.1523V21.5436C98.1456 21.5372 98.2616 21.5319 98.4045 21.5255V19.9236C98.5517 19.9133 98.6737 19.9045 98.818 19.8942V18.2838C98.9532 18.2707 99.0666 18.2597 99.2206 18.2448V16.2992C99.3731 16.2819 99.4869 16.2687 99.6312 16.2521V14.6537C99.7749 14.6431 99.8898 14.6342 100.033 14.6236V13.021C100.18 13.0107 100.302 13.0025 100.449 12.9926V11.3815H100.85V9.7622C100.991 9.75546 101.107 9.74979 101.25 9.74305V8.13973C101.397 8.12838 101.518 8.11916 101.667 8.10781V6.50379C101.809 6.49421 101.924 6.48676 102.069 6.47719V4.84515C102.425 4.93239 102.479 4.75152 102.475 4.47881C102.469 4.00572 102.489 3.53228 102.498 3.05919C102.5 3.00174 102.505 2.94464 102.508 2.87442C102.637 2.86485 102.752 2.85634 102.886 2.84605V1.24203C103.026 1.23245 103.147 1.22429 103.294 1.21436V0.013916H109.389V1.6261C109.261 1.63638 109.147 1.6456 108.989 1.65802C108.989 2.01904 108.991 2.37155 108.989 2.72441C108.987 2.91024 108.964 3.09678 108.977 3.28119C108.997 3.55746 108.913 3.70853 108.579 3.62377V5.25794C108.435 5.26681 108.32 5.2739 108.177 5.28277V6.89211C108.035 6.89921 107.919 6.90453 107.778 6.91162V8.51565C107.631 8.52629 107.509 8.5348 107.369 8.54508V10.1434C107.231 10.1516 107.109 10.159 106.961 10.1679V11.7744C106.819 11.7815 106.704 11.7872 106.56 11.7943V13.4001C106.419 13.4104 106.305 13.4189 106.158 13.4295V14.9903C106.114 15.0232 106.101 15.0413 106.089 15.0403C105.838 15.0147 105.737 15.0998 105.746 15.3765C105.761 15.8655 105.73 16.3563 105.718 16.8461C105.717 16.9035 105.71 16.961 105.705 17.0301C105.584 17.0397 105.477 17.0482 105.338 17.0592V18.6629C105.188 18.6742 105.067 18.6831 104.922 18.6941V20.3084H104.533V22.3345C104.651 22.3401 104.766 22.3458 104.91 22.3529V23.1416C105.058 23.1512 105.18 23.1593 105.318 23.1682C105.324 23.2913 105.331 23.4072 105.338 23.5491C105.457 23.5569 105.58 23.5651 105.729 23.575V24.3328C105.77 24.3552 105.785 24.3697 105.798 24.3697C107.026 24.3658 108.254 24.3477 109.482 24.3651C109.799 24.3697 109.8 24.2084 109.785 23.9747C109.922 23.9676 110.046 23.9608 110.187 23.9537C110.196 23.8317 110.204 23.7165 110.213 23.5757C110.333 23.5679 110.455 23.5601 110.601 23.5509C110.608 23.4292 110.616 23.3069 110.624 23.1693C110.754 23.1615 110.877 23.1544 111.016 23.1459V22.7611C111.155 22.7551 111.277 22.7497 111.415 22.7437C111.424 22.6125 111.432 22.4901 111.441 22.3511H111.825V21.9539C111.973 21.9433 112.095 21.9348 112.238 21.9245V21.5291C112.313 21.5209 112.369 21.5067 112.424 21.5106C112.583 21.522 112.626 21.4447 112.628 21.2971C112.634 20.7563 112.651 20.2159 112.663 19.675C112.665 19.6335 112.669 19.5924 112.673 19.531C112.793 19.5215 112.908 19.5126 113.045 19.5016V17.8901C113.188 17.8816 113.31 17.8742 113.459 17.8653V16.2567H113.859V14.637C114 14.6278 114.115 14.6204 114.266 14.6104V13.0015L114.268 13.0011Z" fill="#5CFF00"/>
  <path d="M34.5367 8.09798C34.546 7.96783 34.5538 7.86002 34.563 7.73129C34.6882 7.72455 34.8123 7.71781 34.963 7.70966V7.32807C35.1105 7.31814 35.2329 7.30998 35.3719 7.30076C35.3772 7.17699 35.3825 7.06102 35.3889 6.91881H35.7734C35.7826 6.77164 35.7904 6.64929 35.7989 6.51169C36.0567 6.49928 36.3067 6.48722 36.5724 6.47445C36.5812 6.34927 36.5894 6.23472 36.5986 6.10563C36.7305 6.09854 36.8543 6.0918 36.9944 6.084C37.0029 5.95562 37.011 5.83291 37.0203 5.69425H37.4047V5.29706C37.5522 5.28642 37.6749 5.27791 37.8132 5.26798V4.88816C38.0789 4.87575 38.3289 4.86404 38.6005 4.85128C38.6112 4.73566 38.6218 4.62147 38.6349 4.47962C38.7601 4.47323 38.8899 4.46685 39.036 4.4594V4.07568C39.1743 4.06788 39.2967 4.06079 39.435 4.05299C39.4431 3.92354 39.4509 3.80119 39.4598 3.66253H39.8435C39.8499 3.52422 39.8559 3.40223 39.8623 3.26144C40.1201 3.24973 40.3705 3.23838 40.6379 3.22668C40.6475 3.10469 40.6567 2.98978 40.6674 2.85289H41.0606C41.0692 2.71033 41.0763 2.58798 41.0844 2.44932C41.2142 2.44187 41.3366 2.43478 41.4756 2.42662V2.04432C41.6139 2.03652 41.7362 2.02942 41.8742 2.02162C41.8827 1.89253 41.8909 1.77018 41.9011 1.6184H42.6746C42.6842 1.47406 42.6916 1.35951 42.7001 1.23078C42.8317 1.22298 42.9555 1.21589 43.0966 1.20773C43.1037 1.079 43.1101 0.956645 43.1175 0.817982H43.5009C43.5087 0.679673 43.5158 0.557678 43.5236 0.421143H49.1896V1.20454C49.3379 1.2134 49.4599 1.2205 49.601 1.22901C49.6092 1.35419 49.617 1.47654 49.6255 1.61485C49.7496 1.62088 49.8656 1.62656 50.0078 1.63329C50.0152 1.75352 50.0223 1.87587 50.0312 2.01985C50.1543 2.02765 50.2766 2.0351 50.4195 2.04432V2.82842C50.561 2.83693 50.683 2.84438 50.8203 2.85254C50.8291 2.98127 50.8377 3.10362 50.8476 3.24299H51.2306V3.6409C51.3781 3.65118 51.5005 3.65969 51.6484 3.66998V4.44486C51.7884 4.45479 51.9037 4.46259 52.0427 4.47252C52.0494 4.59381 52.0562 4.71687 52.0643 4.86298C52.1878 4.87007 52.3101 4.87716 52.4481 4.88497C52.4566 5.01406 52.4647 5.13676 52.4736 5.27542H52.8531C52.8623 5.42189 52.8708 5.5524 52.8793 5.68468C53.0329 5.74177 53.2971 5.6141 53.2602 5.94569C53.241 6.11804 53.2751 6.29642 53.2861 6.48935C53.4088 6.49573 53.5244 6.50176 53.6666 6.50885C53.6748 6.62766 53.6829 6.74965 53.6925 6.89434C53.8141 6.90144 53.9365 6.90817 54.0744 6.91598C54.0829 7.04577 54.0907 7.16883 54.0996 7.30714C54.2237 7.31317 54.3393 7.31885 54.4862 7.32629V8.11784H54.8851C54.8851 8.68065 54.8784 9.2268 54.888 9.77258C54.8926 10.0364 54.8373 10.2123 54.4901 10.1208V11.755C54.3457 11.7646 54.2308 11.772 54.0879 11.7816V13.3902C53.9457 13.3973 53.8301 13.4034 53.6882 13.4105V15.0145C53.5418 15.0251 53.4198 15.034 53.2804 15.0443V16.6426C53.1421 16.6508 53.0201 16.6582 52.8719 16.6667V18.2729C52.7307 18.2796 52.6151 18.2853 52.4693 18.2924V19.9376C52.1136 19.8532 52.0594 20.0376 52.0619 20.3082C52.0665 20.7727 52.0487 21.2377 52.0395 21.7022C52.0381 21.7678 52.0331 21.8335 52.0292 21.9111C51.8998 21.92 51.7849 21.9278 51.6583 21.9363C51.6508 22.0707 51.6437 22.1945 51.6359 22.3346H51.2522V22.7364C51.104 22.7445 50.9809 22.7513 50.8387 22.7591C50.8295 22.8782 50.821 22.9928 50.8103 23.1332C50.5554 23.1442 50.2983 23.1555 50.0248 23.1676V23.5492C49.8862 23.5574 49.7638 23.5644 49.6244 23.5726C49.6173 23.7024 49.6106 23.8247 49.6028 23.9634H49.2194C49.2116 24.1017 49.2045 24.2237 49.1967 24.3617C49.0666 24.3698 48.9432 24.3776 48.802 24.3865C48.7939 24.5067 48.7864 24.6213 48.7769 24.7645H48.0009C47.992 24.9135 47.9849 25.0355 47.9768 25.1731C47.8488 25.1823 47.7261 25.1908 47.587 25.2007V25.583H47.1888C47.1785 25.7302 47.17 25.8526 47.1597 25.998H46.7682C46.7593 26.1352 46.7519 26.2498 46.7427 26.393H45.9692C45.9585 26.543 45.9497 26.665 45.9397 26.8037H45.5578V27.2041C45.4103 27.2133 45.2879 27.2211 45.1496 27.23C45.1436 27.3537 45.1379 27.4697 45.1308 27.6126C45.0032 27.6197 44.873 27.6272 44.7322 27.6353C44.7241 27.7637 44.7166 27.8783 44.707 28.0222H43.9297C43.9229 28.1666 43.918 28.2825 43.9112 28.4248C43.7903 28.4318 43.6679 28.4393 43.525 28.4478C43.5176 28.5723 43.5101 28.6946 43.5016 28.8326C43.3778 28.839 43.2619 28.8454 43.1193 28.8528C43.1119 28.972 43.1041 29.094 43.0945 29.239C42.9711 29.2454 42.848 29.2521 42.704 29.2596C42.6941 29.3762 42.6845 29.4904 42.6725 29.6316C42.4196 29.6433 42.1625 29.6553 41.8894 29.6681V30.0497C41.7511 30.0579 41.6284 30.0653 41.4908 30.0735C41.4841 30.1969 41.4777 30.3128 41.4703 30.449H35.7971C35.7907 30.3348 35.784 30.2125 35.7758 30.0692C35.6592 30.0596 35.545 30.0504 35.3925 30.038V29.2567H34.9814V28.8599C34.8339 28.8496 34.7116 28.8411 34.5725 28.8315V28.4478C34.4349 28.4411 34.313 28.435 34.1615 28.4276V27.6307H33.7661C33.7576 27.4917 33.7501 27.3694 33.7416 27.231C33.6179 27.2247 33.5019 27.2186 33.359 27.2112C33.3515 27.0917 33.3441 26.9697 33.3352 26.826C33.2118 26.819 33.0895 26.8115 32.9423 26.803V26.0256C32.7976 26.0143 32.6759 26.0047 32.5398 25.9941V25.6086C32.4036 25.6004 32.2812 25.5933 32.1387 25.5848C32.1309 25.46 32.1234 25.338 32.1153 25.2C31.9915 25.1936 31.8755 25.1876 31.7287 25.1798C31.723 25.0521 31.717 24.922 31.7096 24.7599C31.3535 24.8482 31.3117 24.6351 31.3187 24.3698C31.3223 24.245 31.3088 24.1202 31.3024 23.978H30.9169V23.5783C30.7694 23.5687 30.6471 23.5605 30.5002 23.551V23.1626C30.3605 23.1555 30.2449 23.1499 30.1112 23.1431V20.7366C30.2282 20.7291 30.3502 20.7213 30.4967 20.7117V19.1027C30.6371 19.0964 30.7527 19.0914 30.8957 19.0847V17.4789C31.0361 17.4689 31.151 17.4608 31.3031 17.4501V15.8422C31.4485 15.833 31.5574 15.8259 31.7191 15.8156C31.7191 15.4876 31.7167 15.1613 31.7198 14.8354C31.7223 14.5907 31.7479 14.3449 31.7351 14.1013C31.7237 13.8874 31.8007 13.8048 32.0096 13.8318C32.0404 13.8357 32.0734 13.8215 32.1263 13.8119V12.215C32.267 12.2047 32.3883 12.1958 32.5277 12.1855V10.5804C32.6667 10.5726 32.7884 10.5659 32.9359 10.5581V8.94734H33.3349V8.54766C33.4824 8.53773 33.6047 8.52958 33.7434 8.52036C33.7491 8.39659 33.754 8.28062 33.7604 8.13948C34.0087 8.12636 34.2583 8.11323 34.535 8.09869L34.5367 8.09798ZM37.8171 14.624V16.2288C37.6682 16.2405 37.5472 16.2504 37.4008 16.2621V17.8651C37.2572 17.8725 37.1419 17.8785 37.0022 17.886V19.4932C36.855 19.5028 36.7334 19.5106 36.6224 19.518V19.8957C36.7546 19.9021 36.8706 19.9074 36.999 19.9134C37.0057 20.0581 37.0117 20.1879 37.0174 20.3135C37.16 20.327 37.2742 20.3379 37.3894 20.3486C37.4026 20.6195 37.415 20.8692 37.4281 21.1345H37.8083C37.8178 21.2731 37.8264 21.3955 37.8366 21.5427H38.2342V21.9271C38.3718 21.9377 38.4934 21.9473 38.636 21.9583V22.7388C38.7793 22.7474 38.9016 22.7548 39.0311 22.7626C39.0392 22.9013 39.0463 23.0236 39.0534 23.1463C39.1974 23.1555 39.3197 23.163 39.4389 23.1708C39.4463 23.3134 39.4524 23.429 39.4587 23.552C39.5963 23.5609 39.7187 23.5691 39.8623 23.5786V24.3503H40.2453C40.2546 24.2149 40.262 24.0999 40.2702 23.979C40.411 23.9712 40.5337 23.9645 40.6734 23.957V23.5577H41.4671C41.4745 23.4098 41.4802 23.2946 41.4866 23.168C41.6242 23.1602 41.7469 23.1531 41.8774 23.146C41.8855 23.0077 41.8926 22.8853 41.9001 22.7619C42.0437 22.753 42.1661 22.7456 42.2856 22.7381C42.2927 22.5956 42.2987 22.4796 42.3051 22.3562C42.4434 22.3477 42.5661 22.3399 42.7055 22.3314V21.9345H43.5006C43.5076 21.7866 43.5133 21.671 43.5197 21.5416C43.6559 21.5352 43.7789 21.5295 43.9095 21.5239C43.9183 21.3845 43.9261 21.2621 43.9353 21.115H44.3361V20.733C44.4755 20.7234 44.5978 20.7153 44.7283 20.7064C44.7343 20.5685 44.7397 20.4465 44.746 20.3028H45.5344C45.5415 20.1574 45.5475 20.0358 45.5539 19.8996H45.9405C45.95 19.7613 45.9585 19.639 45.9678 19.5116C46.1064 19.5035 46.2284 19.4964 46.3671 19.4882V17.8899C46.5068 17.8803 46.6288 17.8718 46.776 17.8615V16.2433H47.1757V14.6322C47.3228 14.623 47.4445 14.6152 47.5839 14.6063V13.0026C47.7239 12.9916 47.8449 12.9824 47.9825 12.9718V10.5765C47.8307 10.5659 47.7083 10.5578 47.5881 10.5492C47.5814 10.3999 47.5757 10.2765 47.5704 10.1574C47.4303 10.1425 47.3165 10.1301 47.2008 10.1176C47.1877 9.85238 47.1757 9.6098 47.1633 9.35837C47.0274 9.34879 46.9051 9.34028 46.7575 9.32964V8.9328H46.3699C46.3628 8.79343 46.3561 8.67108 46.3494 8.53986C46.2118 8.531 46.0901 8.52284 45.9479 8.51362V7.73129C45.8036 7.72242 45.6812 7.71498 45.5571 7.70753C45.5486 7.56461 45.5411 7.44226 45.534 7.32204C45.3915 7.3153 45.2755 7.30962 45.1525 7.3036C45.1429 7.16564 45.1347 7.04365 45.1266 6.92697H44.3343C44.3283 7.06209 44.323 7.1777 44.3173 7.30395C44.0995 7.31423 43.8967 7.31211 43.6981 7.34048C43.6367 7.34934 43.5715 7.43268 43.5374 7.49758C43.5094 7.55149 43.5247 7.62809 43.5201 7.7054C43.3818 7.71604 43.2509 7.72597 43.0948 7.73767V8.13522H42.7125C42.703 8.27424 42.6945 8.39659 42.6845 8.54376H42.2859V8.92748C42.0203 8.94202 41.7706 8.95585 41.5142 8.96968C41.5018 9.10445 41.4915 9.21793 41.4809 9.33496C41.338 9.34312 41.2146 9.35056 41.0833 9.35801C41.0752 9.49561 41.0681 9.61796 41.061 9.74102C40.917 9.74989 40.7947 9.75769 40.6755 9.76514C40.6681 9.9077 40.662 10.0237 40.6557 10.1474C40.5173 10.1559 40.395 10.1634 40.2567 10.1719V10.5524C39.9907 10.5659 39.7407 10.5783 39.4772 10.5914C39.4673 10.7188 39.4584 10.833 39.4488 10.9596C39.3084 10.9681 39.1779 10.9759 39.0318 10.9847V11.3638C38.8931 11.3738 38.7708 11.3823 38.6307 11.3926V12.6242C38.2877 12.5416 38.2243 12.7178 38.2356 12.993C38.2477 13.2881 38.2296 13.5842 38.2271 13.88C38.225 14.1208 38.2267 14.3616 38.2267 14.5999C38.0608 14.6102 37.9526 14.6169 37.8161 14.6251L37.8171 14.624Z" fill="#5CFF00"/>
  <path d="M165.516 12.1851C165.652 12.1769 165.761 12.1702 165.925 12.1603C165.925 11.9035 165.924 11.6453 165.925 11.3868C165.927 11.1162 165.932 10.8456 165.932 10.575C165.932 10.32 165.946 10.0817 166.332 10.1863V8.55892C166.473 8.54828 166.594 8.53941 166.734 8.52913V6.92404C166.873 6.91624 166.994 6.9095 167.142 6.90099V5.29022H167.542V3.67236C167.689 3.66172 167.811 3.65286 167.959 3.64187V2.03784C168.1 2.0311 168.216 2.02578 168.359 2.01904V0.411116C168.5 0.401895 168.615 0.394802 168.748 0.385936C168.757 0.266069 168.765 0.150811 168.774 0.0178223H185.02V0.798025C184.901 0.804763 184.786 0.811147 184.644 0.818949V2.42191C184.497 2.43149 184.375 2.43964 184.227 2.44922V4.05856H183.827V5.67926C183.686 5.68706 183.571 5.69344 183.43 5.7016C183.423 5.82253 183.415 5.94417 183.406 6.09099H173.248V7.30953C173.11 7.3191 172.995 7.32691 172.85 7.33684V8.96781C172.464 8.86852 172.437 9.09371 172.438 9.35401C172.442 9.8764 172.439 10.3991 172.439 10.9353C172.283 10.9478 172.168 10.9566 172.039 10.9669V12.1791H176.905C176.905 12.3759 176.907 12.5486 176.905 12.7213C176.9 13.1015 176.877 13.4827 176.894 13.8618C176.905 14.1381 176.82 14.264 176.504 14.1867V15.8152C176.36 15.8265 176.245 15.8354 176.102 15.8467V17.4493C175.954 17.4596 175.832 17.4678 175.694 17.4773V18.2685H170.407V19.0853C170.267 19.0949 170.152 19.1023 169.996 19.1129V21.09C169.842 21.1028 169.728 21.1124 169.584 21.1244V22.7306C169.441 22.7384 169.325 22.7451 169.193 22.7522V24.3697H178.924V25.9968H178.538V27.6157C178.397 27.6225 178.281 27.6281 178.138 27.6349V29.2382C177.992 29.2499 177.87 29.2595 177.726 29.2712V30.4528H161.465V28.8577C161.584 28.8506 161.705 28.8431 161.854 28.8343V27.227H162.254V25.6088C162.4 25.5975 162.522 25.5883 162.67 25.5769V23.9729C162.811 23.9647 162.927 23.958 163.071 23.9495V22.343C163.207 22.333 163.315 22.3252 163.454 22.315C163.464 22.1093 163.478 21.9025 163.483 21.6954C163.491 21.3659 163.505 21.0358 163.492 20.7067C163.482 20.4322 163.538 20.2542 163.886 20.3428V18.7051C164.028 18.6952 164.15 18.6867 164.298 18.676V17.0663H164.698V15.447C164.839 15.44 164.954 15.4343 165.098 15.4272V13.8246C165.245 13.8122 165.365 13.8019 165.514 13.7891V12.1851H165.516Z" fill="#5CFF00"/>
  <path d="M58.1597 19.9075H58.5498V18.2936C58.6945 18.2826 58.8162 18.2737 58.9648 18.2624V16.658C59.1073 16.6481 59.2219 16.6399 59.3754 16.6289C59.3754 16.2743 59.3729 15.9296 59.3765 15.5852C59.3786 15.3827 59.4095 15.1788 59.3917 14.9784C59.3673 14.7025 59.4861 14.6075 59.7755 14.6529V13.035C59.9205 13.0219 60.0347 13.012 60.179 12.9988V11.3973C60.328 11.3867 60.4493 11.3782 60.5964 11.3679V9.75497H60.9965V8.13534C61.138 8.12896 61.2536 8.12364 61.3965 8.1169V6.51359C61.5433 6.5033 61.6653 6.49479 61.7994 6.48557V6.10185H56.5429V5.28831C56.6688 5.28264 56.7844 5.27732 56.9274 5.27058V3.6623C57.0682 3.65343 57.1831 3.64634 57.3285 3.63712V2.0338C57.4707 2.02139 57.5845 2.01111 57.7487 1.99692C57.7487 1.6515 57.7462 1.30786 57.7494 0.964571C57.7519 0.71136 57.7512 0.45673 57.7771 0.205292C57.7842 0.13862 57.876 0.0449957 57.9445 0.0283277C58.0814 -0.00500819 58.2296 0.000311369 58.3729 0.000311369C63.6339 0.000311369 68.8946 0.000311369 74.1553 0.000311369H74.4028V1.24048C74.0461 1.14366 74.0209 1.36815 74.023 1.63023C74.0276 2.15296 74.0244 2.6757 74.0244 3.21475C73.8677 3.22787 73.7528 3.23709 73.6092 3.24915V4.85495C73.4662 4.86346 73.351 4.8702 73.2109 4.87835V6.08873H67.9236V6.89269C67.7846 6.90085 67.6626 6.9083 67.514 6.91681V8.52225C67.3725 8.52899 67.2565 8.53431 67.114 8.5407V10.1437C66.9679 10.1561 66.8466 10.1667 66.698 10.1791V11.7828C66.5615 11.7906 66.4526 11.7966 66.2891 11.8062C66.2891 12.0456 66.2912 12.2867 66.2884 12.5282C66.2848 12.8322 66.2646 13.1368 66.2756 13.4404C66.2848 13.7014 66.2199 13.8571 65.8891 13.7787V15.404C65.7444 15.4168 65.6298 15.427 65.4862 15.4395V17.0414C65.3376 17.0516 65.216 17.0598 65.0688 17.0697V18.6819H64.6698V20.3026C64.5308 20.3118 64.4155 20.3193 64.2705 20.3285V21.93C64.129 21.9421 64.0148 21.9517 63.8616 21.9644V23.6007C63.5038 23.5064 63.4509 23.6873 63.4552 23.9486C63.4637 24.4799 63.4577 25.0111 63.4577 25.5605C63.3002 25.5732 63.1857 25.5821 63.042 25.5938V27.1953C62.8998 27.2056 62.7849 27.2138 62.6423 27.2244V28.8277C62.4952 28.8366 62.3732 28.8441 62.2249 28.8529V30.4555H55.734V30.0746C55.8517 30.0658 55.9737 30.0569 56.1216 30.0459V28.4415C56.2631 28.4337 56.3784 28.4277 56.522 28.4199V26.8134C56.6646 26.8024 56.7791 26.7939 56.9348 26.7822C56.9348 26.3705 56.9338 25.9669 56.9352 25.5633C56.9355 25.4367 56.9352 25.3094 56.9472 25.1838C56.9813 24.8306 56.9838 24.8306 57.349 24.7767V23.1819C57.4937 23.1723 57.6086 23.1645 57.7508 23.155V21.5467C57.8938 21.5392 58.0094 21.5336 58.159 21.5258V19.9068L58.1597 19.9075Z" fill="#5CFF00"/>
  <path d="M147.636 5.68672H148.029V4.06993C148.169 4.06284 148.285 4.05681 148.429 4.04936V2.44285C148.57 2.43257 148.685 2.42441 148.83 2.41377V0.812229C148.925 0.803008 149.001 0.81613 149.05 0.785631C149.12 0.742365 149.209 0.673565 149.221 0.603702C149.254 0.415034 149.251 0.220338 149.263 0.0146484H165.508C165.508 0.555471 165.503 1.09204 165.51 1.62896C165.514 1.89175 165.479 2.09531 165.109 1.99743V3.6316C164.966 3.64082 164.85 3.64791 164.708 3.65713V5.26506C164.566 5.27286 164.45 5.27889 164.309 5.28669V6.08782H159.013V7.30955H158.612V8.92918C158.472 8.93662 158.356 8.94301 158.212 8.95045V10.5538C158.071 10.5648 157.958 10.574 157.805 10.586V12.2213C157.442 12.1294 157.388 12.3036 157.393 12.5795C157.402 13.0522 157.379 13.5256 157.369 13.9987C157.367 14.0562 157.361 14.1136 157.355 14.1849C157.23 14.1959 157.116 14.2062 156.981 14.2182V15.8194C156.841 15.8294 156.72 15.8379 156.572 15.8485V17.4564C156.43 17.4632 156.314 17.4685 156.172 17.4749V19.0825C156.032 19.0895 155.916 19.0952 155.767 19.103V20.7156C155.619 20.7244 155.504 20.7312 155.36 20.7397V22.3458C155.223 22.3565 155.116 22.3646 154.958 22.3767V24.3311C154.797 24.3478 154.683 24.3598 154.539 24.3747V25.977C154.396 25.9862 154.28 25.9936 154.138 26.0029V27.6079C153.997 27.6168 153.882 27.6239 153.739 27.6328V29.2357C153.592 29.2446 153.47 29.252 153.321 29.2613V30.4571H147.237V28.8545C147.356 28.846 147.478 28.8371 147.626 28.8268V27.2214C147.767 27.2129 147.883 27.2058 148.027 27.1973V25.5908C148.114 25.5837 148.173 25.5716 148.23 25.5762C148.374 25.5879 148.42 25.5255 148.422 25.384C148.427 24.8517 148.444 24.3197 148.457 23.7874C148.458 23.7296 148.464 23.6718 148.469 23.5991C148.592 23.5878 148.707 23.5771 148.85 23.564V21.9586C148.994 21.9504 149.109 21.944 149.251 21.9359V20.3262C149.392 20.3198 149.508 20.3145 149.65 20.3077V18.703C149.795 18.6916 149.917 18.6821 150.065 18.6707V17.0667C150.206 17.0582 150.321 17.0511 150.466 17.0426V15.4368C150.602 15.4261 150.71 15.4176 150.867 15.4052V13.4508C151.029 13.4345 151.144 13.4231 151.288 13.4086V11.8049C151.431 11.7964 151.546 11.7893 151.688 11.7808V10.1747C151.829 10.1662 151.945 10.1591 152.087 10.1505V8.54759C152.234 8.53836 152.356 8.53092 152.504 8.5217V6.91235H152.895V6.09668H147.637V5.68743L147.636 5.68672Z" fill="#5CFF00"/>
</svg>
