<svg width="23" height="24" viewBox="0 0 23 24" fill="none" xmlns="http://www.w3.org/2000/svg">
  <path d="M0.499937 4.04541H3.68164L3.68164 0.863706L0.499937 0.863706L0.499937 4.04541Z" fill="#FF8400"/>
  <path d="M13.227 16.7725H16.4087V13.5908H13.227V16.7725Z" fill="#FF8400"/>
  <path d="M3.68158 7.22705H6.86328V4.04535H3.68158L3.68158 7.22705Z" fill="#FF8400"/>
  <path d="M16.4086 19.9541H19.5903V16.7724H16.4086V19.9541Z" fill="#FF8400"/>
  <path d="M6.86322 10.4087H10.0449V7.22699H6.86322V10.4087Z" fill="#FF8400"/>
  <path d="M19.5903 23.1357H22.772V19.954H19.5903V23.1357Z" fill="#FF8400"/>
  <path d="M13.2265 10.4087H16.4082V7.22699H13.2265V10.4087Z" fill="#FF8400"/>
  <path d="M0.499937 23.1353H3.68164L3.68164 19.9535H0.499937L0.499937 23.1353Z" fill="#FF8400"/>
  <path d="M16.4081 7.22705H19.5898V4.04535H16.4081V7.22705Z" fill="#FF8400"/>
  <path d="M3.68158 19.9536H6.86328V16.7719H3.68158L3.68158 19.9536Z" fill="#FF8400"/>
  <path d="M19.5898 4.04541H22.7715V0.863706L19.5898 0.863706V4.04541Z" fill="#FF8400"/>
  <path d="M6.86322 16.772H10.0449V13.5903H6.86322V16.772Z" fill="#FF8400"/>
  <path d="M10.0449 13.5903H13.2266V10.4086H10.0449V13.5903Z" fill="#FF8400"/>
</svg>
