<svg width="100%" height="100%" viewBox="0 0 2286 185" fill="none" xmlns="http://www.w3.org/2000/svg">
<g filter="url(#filter0_d_1912_487)">
<mask id="path-1-outside-1_1912_487" maskUnits="userSpaceOnUse" x="0.493652" y="0.319824" width="2273" height="172" fill="black">
<rect fill="white" x="0.493652" y="0.319824" width="2273" height="172"/>
<path d="M68.7337 7.55982L40.8937 138.6H119.374L113.854 165.24L8.49365 165L42.0937 7.55982H68.7337Z"/>
<path d="M166.104 7.31982H270.984L265.464 33.9598H187.224L181.944 60.1198H241.704L235.704 86.7598H175.944L164.904 138.6H243.144L237.624 165.24L132.744 165L166.104 7.31982Z"/>
<path d="M389.544 7.55982L383.784 34.4398H344.904L317.064 165.48H290.424L318.264 34.4398H279.624L285.144 7.55982C320.424 7.55982 354.504 7.55982 389.544 7.55982Z"/>
<path d="M404.636 7.31982H431.276L419.756 61.3198H393.116L404.636 7.31982Z"/>
<path d="M472.873 7.31982L558.073 7.55982L552.553 34.4398H474.313L469.033 60.1198H527.593L523.513 79.5598H543.193L529.033 145.56H509.113L505.033 165.24H419.833L425.353 138.6H503.833L514.873 86.7598L456.073 86.5198L459.913 67.5598H440.473L449.113 27.2398H468.553L472.873 7.31982Z"/>
<path d="M651.772 7.31982H736.492L732.172 27.4798H752.812L745.612 61.0798H730.732L725.452 86.2798H740.332L727.852 144.84H707.452L702.892 165.24C674.812 165.24 646.252 165 618.172 165L651.772 7.31982ZM702.412 138.6L713.212 86.7598H661.372L650.572 138.6H702.412ZM719.212 60.1198L724.492 34.4398H672.652L667.372 60.1198H719.212Z"/>
<path d="M883.614 8.03981L854.334 145.56H834.654L830.574 165H764.334L768.654 145.56H748.974L778.254 8.03981H805.134L777.294 138.6H829.134L856.974 8.03981H883.614Z"/>
<path d="M923.417 7.31982L1008.62 7.55982L1003.1 34.4398H924.857L919.577 60.1198H978.137L974.057 79.5598H993.737L979.577 145.56H959.657L955.577 165.24H870.377L875.897 138.6H954.377L965.417 86.7598L906.617 86.5198L910.457 67.5598H891.017L899.657 27.2398H919.097L923.417 7.31982Z"/>
<path d="M1126.18 7.55982L1120.42 34.4398H1081.54L1053.7 165.48H1027.06L1054.9 34.4398H1016.26L1021.78 7.55982C1057.06 7.55982 1091.14 7.55982 1126.18 7.55982Z"/>
<path d="M1218.45 7.31982L1303.65 7.55982L1298.13 34.4398H1219.89L1214.61 60.1198H1273.17L1269.09 79.5598H1288.77L1274.61 145.56H1254.69L1250.61 165.24H1165.41L1170.93 138.6H1249.41L1260.45 86.7598L1201.65 86.5198L1205.49 67.5598H1186.05L1194.69 27.2398H1214.13L1218.45 7.31982Z"/>
<path d="M1346.58 7.31982H1412.58L1408.5 27.4798H1427.94L1402.74 145.56H1383.3L1378.98 165H1312.98L1317.06 145.56H1297.86L1323.06 27.4798H1342.26L1346.58 7.31982ZM1377.78 138.6L1400.1 33.9598H1348.02L1325.7 138.6H1377.78Z"/>
<path d="M1455.26 7.31982H1481.9L1476.38 33.7198H1491.98L1486.46 60.1198H1503.5L1498.22 86.2798H1510.94L1516.46 60.1198H1533.26L1538.78 33.7198H1554.62L1560.14 7.31982H1586.78L1553.42 165H1526.78L1548.86 60.3598H1540.46L1534.7 86.7598H1516.7L1511.42 112.92H1486.46L1491.74 86.7598H1473.74L1479.26 60.3598H1470.62L1448.54 165H1421.9L1455.26 7.31982Z"/>
<path d="M1614.19 7.31982H1719.07L1713.55 33.9598H1635.31L1630.03 60.1198H1689.79L1683.79 86.7598H1624.03L1612.99 138.6H1691.23L1685.71 165.24L1580.83 165L1614.19 7.31982Z"/>
<path d="M1801.76 7.31982H1886.48L1882.16 27.4798H1902.8L1895.6 61.0798H1880.72L1875.44 86.2798H1890.32L1877.84 144.84H1857.44L1852.88 165.24C1824.8 165.24 1796.24 165 1768.16 165L1801.76 7.31982ZM1852.4 138.6L1863.2 86.7598H1811.36L1800.56 138.6H1852.4ZM1869.2 60.1198L1874.48 34.4398H1822.64L1817.36 60.1198H1869.2Z"/>
<path d="M1947.44 7.31982H2013.44L2009.36 27.4798H2028.8L2003.6 145.56H1984.16L1979.84 165H1913.84L1917.92 145.56H1898.72L1923.92 27.4798H1943.12L1947.44 7.31982ZM1978.64 138.6L2000.96 33.9598H1948.88L1926.56 138.6H1978.64Z"/>
<path d="M2149.01 7.55982L2143.25 34.4398H2104.37L2076.53 165.48H2049.89L2077.73 34.4398H2039.09L2044.61 7.55982C2079.89 7.55982 2113.97 7.55982 2149.01 7.55982Z"/>
<path d="M2179.94 7.31982L2265.14 7.55982L2259.62 34.4398H2181.38L2176.1 60.1198H2234.66L2230.58 79.5598H2250.26L2236.1 145.56H2216.18L2212.1 165.24H2126.9L2132.42 138.6H2210.9L2221.94 86.7598L2163.14 86.5198L2166.98 67.5598H2147.54L2156.18 27.2398H2175.62L2179.94 7.31982Z"/>
</mask>
<path d="M68.7337 7.55982L40.8937 138.6H119.374L113.854 165.24L8.49365 165L42.0937 7.55982H68.7337Z" fill="url(#paint0_linear_1912_487)"/>
<path d="M166.104 7.31982H270.984L265.464 33.9598H187.224L181.944 60.1198H241.704L235.704 86.7598H175.944L164.904 138.6H243.144L237.624 165.24L132.744 165L166.104 7.31982Z" fill="url(#paint1_linear_1912_487)"/>
<path d="M389.544 7.55982L383.784 34.4398H344.904L317.064 165.48H290.424L318.264 34.4398H279.624L285.144 7.55982C320.424 7.55982 354.504 7.55982 389.544 7.55982Z" fill="url(#paint2_linear_1912_487)"/>
<path d="M404.636 7.31982H431.276L419.756 61.3198H393.116L404.636 7.31982Z" fill="url(#paint3_linear_1912_487)"/>
<path d="M472.873 7.31982L558.073 7.55982L552.553 34.4398H474.313L469.033 60.1198H527.593L523.513 79.5598H543.193L529.033 145.56H509.113L505.033 165.24H419.833L425.353 138.6H503.833L514.873 86.7598L456.073 86.5198L459.913 67.5598H440.473L449.113 27.2398H468.553L472.873 7.31982Z" fill="url(#paint4_linear_1912_487)"/>
<path d="M651.772 7.31982H736.492L732.172 27.4798H752.812L745.612 61.0798H730.732L725.452 86.2798H740.332L727.852 144.84H707.452L702.892 165.24C674.812 165.24 646.252 165 618.172 165L651.772 7.31982ZM702.412 138.6L713.212 86.7598H661.372L650.572 138.6H702.412ZM719.212 60.1198L724.492 34.4398H672.652L667.372 60.1198H719.212Z" fill="url(#paint5_linear_1912_487)"/>
<path d="M883.614 8.03981L854.334 145.56H834.654L830.574 165H764.334L768.654 145.56H748.974L778.254 8.03981H805.134L777.294 138.6H829.134L856.974 8.03981H883.614Z" fill="url(#paint6_linear_1912_487)"/>
<path d="M923.417 7.31982L1008.62 7.55982L1003.1 34.4398H924.857L919.577 60.1198H978.137L974.057 79.5598H993.737L979.577 145.56H959.657L955.577 165.24H870.377L875.897 138.6H954.377L965.417 86.7598L906.617 86.5198L910.457 67.5598H891.017L899.657 27.2398H919.097L923.417 7.31982Z" fill="url(#paint7_linear_1912_487)"/>
<path d="M1126.18 7.55982L1120.42 34.4398H1081.54L1053.7 165.48H1027.06L1054.9 34.4398H1016.26L1021.78 7.55982C1057.06 7.55982 1091.14 7.55982 1126.18 7.55982Z" fill="url(#paint8_linear_1912_487)"/>
<path d="M1218.45 7.31982L1303.65 7.55982L1298.13 34.4398H1219.89L1214.61 60.1198H1273.17L1269.09 79.5598H1288.77L1274.61 145.56H1254.69L1250.61 165.24H1165.41L1170.93 138.6H1249.41L1260.45 86.7598L1201.65 86.5198L1205.49 67.5598H1186.05L1194.69 27.2398H1214.13L1218.45 7.31982Z" fill="url(#paint9_linear_1912_487)"/>
<path d="M1346.58 7.31982H1412.58L1408.5 27.4798H1427.94L1402.74 145.56H1383.3L1378.98 165H1312.98L1317.06 145.56H1297.86L1323.06 27.4798H1342.26L1346.58 7.31982ZM1377.78 138.6L1400.1 33.9598H1348.02L1325.7 138.6H1377.78Z" fill="url(#paint10_linear_1912_487)"/>
<path d="M1455.26 7.31982H1481.9L1476.38 33.7198H1491.98L1486.46 60.1198H1503.5L1498.22 86.2798H1510.94L1516.46 60.1198H1533.26L1538.78 33.7198H1554.62L1560.14 7.31982H1586.78L1553.42 165H1526.78L1548.86 60.3598H1540.46L1534.7 86.7598H1516.7L1511.42 112.92H1486.46L1491.74 86.7598H1473.74L1479.26 60.3598H1470.62L1448.54 165H1421.9L1455.26 7.31982Z" fill="url(#paint11_linear_1912_487)"/>
<path d="M1614.19 7.31982H1719.07L1713.55 33.9598H1635.31L1630.03 60.1198H1689.79L1683.79 86.7598H1624.03L1612.99 138.6H1691.23L1685.71 165.24L1580.83 165L1614.19 7.31982Z" fill="url(#paint12_linear_1912_487)"/>
<path d="M1801.76 7.31982H1886.48L1882.16 27.4798H1902.8L1895.6 61.0798H1880.72L1875.44 86.2798H1890.32L1877.84 144.84H1857.44L1852.88 165.24C1824.8 165.24 1796.24 165 1768.16 165L1801.76 7.31982ZM1852.4 138.6L1863.2 86.7598H1811.36L1800.56 138.6H1852.4ZM1869.2 60.1198L1874.48 34.4398H1822.64L1817.36 60.1198H1869.2Z" fill="url(#paint13_linear_1912_487)"/>
<path d="M1947.44 7.31982H2013.44L2009.36 27.4798H2028.8L2003.6 145.56H1984.16L1979.84 165H1913.84L1917.92 145.56H1898.72L1923.92 27.4798H1943.12L1947.44 7.31982ZM1978.64 138.6L2000.96 33.9598H1948.88L1926.56 138.6H1978.64Z" fill="url(#paint14_linear_1912_487)"/>
<path d="M2149.01 7.55982L2143.25 34.4398H2104.37L2076.53 165.48H2049.89L2077.73 34.4398H2039.09L2044.61 7.55982C2079.89 7.55982 2113.97 7.55982 2149.01 7.55982Z" fill="url(#paint15_linear_1912_487)"/>
<path d="M2179.94 7.31982L2265.14 7.55982L2259.62 34.4398H2181.38L2176.1 60.1198H2234.66L2230.58 79.5598H2250.26L2236.1 145.56H2216.18L2212.1 165.24H2126.9L2132.42 138.6H2210.9L2221.94 86.7598L2163.14 86.5198L2166.98 67.5598H2147.54L2156.18 27.2398H2175.62L2179.94 7.31982Z" fill="url(#paint16_linear_1912_487)"/>
<path d="M68.7337 7.55982L40.8937 138.6H119.374L113.854 165.24L8.49365 165L42.0937 7.55982H68.7337Z" stroke="black" stroke-width="12.8077" mask="url(#path-1-outside-1_1912_487)"/>
<path d="M166.104 7.31982H270.984L265.464 33.9598H187.224L181.944 60.1198H241.704L235.704 86.7598H175.944L164.904 138.6H243.144L237.624 165.24L132.744 165L166.104 7.31982Z" stroke="black" stroke-width="12.8077" mask="url(#path-1-outside-1_1912_487)"/>
<path d="M389.544 7.55982L383.784 34.4398H344.904L317.064 165.48H290.424L318.264 34.4398H279.624L285.144 7.55982C320.424 7.55982 354.504 7.55982 389.544 7.55982Z" stroke="black" stroke-width="12.8077" mask="url(#path-1-outside-1_1912_487)"/>
<path d="M404.636 7.31982H431.276L419.756 61.3198H393.116L404.636 7.31982Z" stroke="black" stroke-width="12.8077" mask="url(#path-1-outside-1_1912_487)"/>
<path d="M472.873 7.31982L558.073 7.55982L552.553 34.4398H474.313L469.033 60.1198H527.593L523.513 79.5598H543.193L529.033 145.56H509.113L505.033 165.24H419.833L425.353 138.6H503.833L514.873 86.7598L456.073 86.5198L459.913 67.5598H440.473L449.113 27.2398H468.553L472.873 7.31982Z" stroke="black" stroke-width="12.8077" mask="url(#path-1-outside-1_1912_487)"/>
<path d="M651.772 7.31982H736.492L732.172 27.4798H752.812L745.612 61.0798H730.732L725.452 86.2798H740.332L727.852 144.84H707.452L702.892 165.24C674.812 165.24 646.252 165 618.172 165L651.772 7.31982ZM702.412 138.6L713.212 86.7598H661.372L650.572 138.6H702.412ZM719.212 60.1198L724.492 34.4398H672.652L667.372 60.1198H719.212Z" stroke="black" stroke-width="12.8077" mask="url(#path-1-outside-1_1912_487)"/>
<path d="M883.614 8.03981L854.334 145.56H834.654L830.574 165H764.334L768.654 145.56H748.974L778.254 8.03981H805.134L777.294 138.6H829.134L856.974 8.03981H883.614Z" stroke="black" stroke-width="12.8077" mask="url(#path-1-outside-1_1912_487)"/>
<path d="M923.417 7.31982L1008.62 7.55982L1003.1 34.4398H924.857L919.577 60.1198H978.137L974.057 79.5598H993.737L979.577 145.56H959.657L955.577 165.24H870.377L875.897 138.6H954.377L965.417 86.7598L906.617 86.5198L910.457 67.5598H891.017L899.657 27.2398H919.097L923.417 7.31982Z" stroke="black" stroke-width="12.8077" mask="url(#path-1-outside-1_1912_487)"/>
<path d="M1126.18 7.55982L1120.42 34.4398H1081.54L1053.7 165.48H1027.06L1054.9 34.4398H1016.26L1021.78 7.55982C1057.06 7.55982 1091.14 7.55982 1126.18 7.55982Z" stroke="black" stroke-width="12.8077" mask="url(#path-1-outside-1_1912_487)"/>
<path d="M1218.45 7.31982L1303.65 7.55982L1298.13 34.4398H1219.89L1214.61 60.1198H1273.17L1269.09 79.5598H1288.77L1274.61 145.56H1254.69L1250.61 165.24H1165.41L1170.93 138.6H1249.41L1260.45 86.7598L1201.65 86.5198L1205.49 67.5598H1186.05L1194.69 27.2398H1214.13L1218.45 7.31982Z" stroke="black" stroke-width="12.8077" mask="url(#path-1-outside-1_1912_487)"/>
<path d="M1346.58 7.31982H1412.58L1408.5 27.4798H1427.94L1402.74 145.56H1383.3L1378.98 165H1312.98L1317.06 145.56H1297.86L1323.06 27.4798H1342.26L1346.58 7.31982ZM1377.78 138.6L1400.1 33.9598H1348.02L1325.7 138.6H1377.78Z" stroke="black" stroke-width="12.8077" mask="url(#path-1-outside-1_1912_487)"/>
<path d="M1455.26 7.31982H1481.9L1476.38 33.7198H1491.98L1486.46 60.1198H1503.5L1498.22 86.2798H1510.94L1516.46 60.1198H1533.26L1538.78 33.7198H1554.62L1560.14 7.31982H1586.78L1553.42 165H1526.78L1548.86 60.3598H1540.46L1534.7 86.7598H1516.7L1511.42 112.92H1486.46L1491.74 86.7598H1473.74L1479.26 60.3598H1470.62L1448.54 165H1421.9L1455.26 7.31982Z" stroke="black" stroke-width="12.8077" mask="url(#path-1-outside-1_1912_487)"/>
<path d="M1614.19 7.31982H1719.07L1713.55 33.9598H1635.31L1630.03 60.1198H1689.79L1683.79 86.7598H1624.03L1612.99 138.6H1691.23L1685.71 165.24L1580.83 165L1614.19 7.31982Z" stroke="black" stroke-width="12.8077" mask="url(#path-1-outside-1_1912_487)"/>
<path d="M1801.76 7.31982H1886.48L1882.16 27.4798H1902.8L1895.6 61.0798H1880.72L1875.44 86.2798H1890.32L1877.84 144.84H1857.44L1852.88 165.24C1824.8 165.24 1796.24 165 1768.16 165L1801.76 7.31982ZM1852.4 138.6L1863.2 86.7598H1811.36L1800.56 138.6H1852.4ZM1869.2 60.1198L1874.48 34.4398H1822.64L1817.36 60.1198H1869.2Z" stroke="black" stroke-width="12.8077" mask="url(#path-1-outside-1_1912_487)"/>
<path d="M1947.44 7.31982H2013.44L2009.36 27.4798H2028.8L2003.6 145.56H1984.16L1979.84 165H1913.84L1917.92 145.56H1898.72L1923.92 27.4798H1943.12L1947.44 7.31982ZM1978.64 138.6L2000.96 33.9598H1948.88L1926.56 138.6H1978.64Z" stroke="black" stroke-width="12.8077" mask="url(#path-1-outside-1_1912_487)"/>
<path d="M2149.01 7.55982L2143.25 34.4398H2104.37L2076.53 165.48H2049.89L2077.73 34.4398H2039.09L2044.61 7.55982C2079.89 7.55982 2113.97 7.55982 2149.01 7.55982Z" stroke="black" stroke-width="12.8077" mask="url(#path-1-outside-1_1912_487)"/>
<path d="M2179.94 7.31982L2265.14 7.55982L2259.62 34.4398H2181.38L2176.1 60.1198H2234.66L2230.58 79.5598H2250.26L2236.1 145.56H2216.18L2212.1 165.24H2126.9L2132.42 138.6H2210.9L2221.94 86.7598L2163.14 86.5198L2166.98 67.5598H2147.54L2156.18 27.2398H2175.62L2179.94 7.31982Z" stroke="black" stroke-width="12.8077" mask="url(#path-1-outside-1_1912_487)"/>
</g>
<defs>
<filter id="filter0_d_1912_487" x="0.583008" y="0.901367" width="2285.21" height="183.79" filterUnits="userSpaceOnUse" color-interpolation-filters="sRGB">
<feFlood flood-opacity="0" result="BackgroundImageFix"/>
<feColorMatrix in="SourceAlpha" type="matrix" values="0 0 0 0 0 0 0 0 0 0 0 0 0 0 0 0 0 0 127 0" result="hardAlpha"/>
<feOffset dx="12.8077" dy="12.8077"/>
<feComposite in2="hardAlpha" operator="out"/>
<feColorMatrix type="matrix" values="0 0 0 0 0 0 0 0 0 0 0 0 0 0 0 0 0 0 1 0"/>
<feBlend mode="normal" in2="BackgroundImageFix" result="effect1_dropShadow_1912_487"/>
<feBlend mode="normal" in="SourceGraphic" in2="effect1_dropShadow_1912_487" result="shape"/>
</filter>
<linearGradient id="paint0_linear_1912_487" x1="1129" y1="-68" x2="1129" y2="241" gradientUnits="userSpaceOnUse">
<stop stop-color="#F9F1EB"/>
<stop offset="0.458233" stop-color="#F9F1EB"/>
<stop offset="0.458333" stop-color="#FF7A00"/>
<stop offset="0.671875" stop-color="#FF7A00"/>
<stop offset="1" stop-color="#FF7A00"/>
</linearGradient>
<linearGradient id="paint1_linear_1912_487" x1="1129" y1="-68" x2="1129" y2="241" gradientUnits="userSpaceOnUse">
<stop stop-color="#F9F1EB"/>
<stop offset="0.458233" stop-color="#F9F1EB"/>
<stop offset="0.458333" stop-color="#FF7A00"/>
<stop offset="0.671875" stop-color="#FF7A00"/>
<stop offset="1" stop-color="#FF7A00"/>
</linearGradient>
<linearGradient id="paint2_linear_1912_487" x1="1129" y1="-68" x2="1129" y2="241" gradientUnits="userSpaceOnUse">
<stop stop-color="#F9F1EB"/>
<stop offset="0.458233" stop-color="#F9F1EB"/>
<stop offset="0.458333" stop-color="#FF7A00"/>
<stop offset="0.671875" stop-color="#FF7A00"/>
<stop offset="1" stop-color="#FF7A00"/>
</linearGradient>
<linearGradient id="paint3_linear_1912_487" x1="1129" y1="-68" x2="1129" y2="241" gradientUnits="userSpaceOnUse">
<stop stop-color="#F9F1EB"/>
<stop offset="0.458233" stop-color="#F9F1EB"/>
<stop offset="0.458333" stop-color="#FF7A00"/>
<stop offset="0.671875" stop-color="#FF7A00"/>
<stop offset="1" stop-color="#FF7A00"/>
</linearGradient>
<linearGradient id="paint4_linear_1912_487" x1="1129" y1="-68" x2="1129" y2="241" gradientUnits="userSpaceOnUse">
<stop stop-color="#F9F1EB"/>
<stop offset="0.458233" stop-color="#F9F1EB"/>
<stop offset="0.458333" stop-color="#FF7A00"/>
<stop offset="0.671875" stop-color="#FF7A00"/>
<stop offset="1" stop-color="#FF7A00"/>
</linearGradient>
<linearGradient id="paint5_linear_1912_487" x1="1129" y1="-68" x2="1129" y2="241" gradientUnits="userSpaceOnUse">
<stop stop-color="#F9F1EB"/>
<stop offset="0.458233" stop-color="#F9F1EB"/>
<stop offset="0.458333" stop-color="#FF7A00"/>
<stop offset="0.671875" stop-color="#FF7A00"/>
<stop offset="1" stop-color="#FF7A00"/>
</linearGradient>
<linearGradient id="paint6_linear_1912_487" x1="1129" y1="-68" x2="1129" y2="241" gradientUnits="userSpaceOnUse">
<stop stop-color="#F9F1EB"/>
<stop offset="0.458233" stop-color="#F9F1EB"/>
<stop offset="0.458333" stop-color="#FF7A00"/>
<stop offset="0.671875" stop-color="#FF7A00"/>
<stop offset="1" stop-color="#FF7A00"/>
</linearGradient>
<linearGradient id="paint7_linear_1912_487" x1="1129" y1="-68" x2="1129" y2="241" gradientUnits="userSpaceOnUse">
<stop stop-color="#F9F1EB"/>
<stop offset="0.458233" stop-color="#F9F1EB"/>
<stop offset="0.458333" stop-color="#FF7A00"/>
<stop offset="0.671875" stop-color="#FF7A00"/>
<stop offset="1" stop-color="#FF7A00"/>
</linearGradient>
<linearGradient id="paint8_linear_1912_487" x1="1129" y1="-68" x2="1129" y2="241" gradientUnits="userSpaceOnUse">
<stop stop-color="#F9F1EB"/>
<stop offset="0.458233" stop-color="#F9F1EB"/>
<stop offset="0.458333" stop-color="#FF7A00"/>
<stop offset="0.671875" stop-color="#FF7A00"/>
<stop offset="1" stop-color="#FF7A00"/>
</linearGradient>
<linearGradient id="paint9_linear_1912_487" x1="1129" y1="-68" x2="1129" y2="241" gradientUnits="userSpaceOnUse">
<stop stop-color="#F9F1EB"/>
<stop offset="0.458233" stop-color="#F9F1EB"/>
<stop offset="0.458333" stop-color="#FF7A00"/>
<stop offset="0.671875" stop-color="#FF7A00"/>
<stop offset="1" stop-color="#FF7A00"/>
</linearGradient>
<linearGradient id="paint10_linear_1912_487" x1="1129" y1="-68" x2="1129" y2="241" gradientUnits="userSpaceOnUse">
<stop stop-color="#F9F1EB"/>
<stop offset="0.458233" stop-color="#F9F1EB"/>
<stop offset="0.458333" stop-color="#FF7A00"/>
<stop offset="0.671875" stop-color="#FF7A00"/>
<stop offset="1" stop-color="#FF7A00"/>
</linearGradient>
<linearGradient id="paint11_linear_1912_487" x1="1129" y1="-68" x2="1129" y2="241" gradientUnits="userSpaceOnUse">
<stop stop-color="#F9F1EB"/>
<stop offset="0.458233" stop-color="#F9F1EB"/>
<stop offset="0.458333" stop-color="#FF7A00"/>
<stop offset="0.671875" stop-color="#FF7A00"/>
<stop offset="1" stop-color="#FF7A00"/>
</linearGradient>
<linearGradient id="paint12_linear_1912_487" x1="1129" y1="-68" x2="1129" y2="241" gradientUnits="userSpaceOnUse">
<stop stop-color="#F9F1EB"/>
<stop offset="0.458233" stop-color="#F9F1EB"/>
<stop offset="0.458333" stop-color="#FF7A00"/>
<stop offset="0.671875" stop-color="#FF7A00"/>
<stop offset="1" stop-color="#FF7A00"/>
</linearGradient>
<linearGradient id="paint13_linear_1912_487" x1="1129" y1="-68" x2="1129" y2="241" gradientUnits="userSpaceOnUse">
<stop stop-color="#F9F1EB"/>
<stop offset="0.458233" stop-color="#F9F1EB"/>
<stop offset="0.458333" stop-color="#FF7A00"/>
<stop offset="0.671875" stop-color="#FF7A00"/>
<stop offset="1" stop-color="#FF7A00"/>
</linearGradient>
<linearGradient id="paint14_linear_1912_487" x1="1129" y1="-68" x2="1129" y2="241" gradientUnits="userSpaceOnUse">
<stop stop-color="#F9F1EB"/>
<stop offset="0.458233" stop-color="#F9F1EB"/>
<stop offset="0.458333" stop-color="#FF7A00"/>
<stop offset="0.671875" stop-color="#FF7A00"/>
<stop offset="1" stop-color="#FF7A00"/>
</linearGradient>
<linearGradient id="paint15_linear_1912_487" x1="1129" y1="-68" x2="1129" y2="241" gradientUnits="userSpaceOnUse">
<stop stop-color="#F9F1EB"/>
<stop offset="0.458233" stop-color="#F9F1EB"/>
<stop offset="0.458333" stop-color="#FF7A00"/>
<stop offset="0.671875" stop-color="#FF7A00"/>
<stop offset="1" stop-color="#FF7A00"/>
</linearGradient>
<linearGradient id="paint16_linear_1912_487" x1="1129" y1="-68" x2="1129" y2="241" gradientUnits="userSpaceOnUse">
<stop stop-color="#F9F1EB"/>
<stop offset="0.458233" stop-color="#F9F1EB"/>
<stop offset="0.458333" stop-color="#FF7A00"/>
<stop offset="0.671875" stop-color="#FF7A00"/>
<stop offset="1" stop-color="#FF7A00"/>
</linearGradient>
</defs>
</svg>
