<svg id="Layer_1" xmlns="http://www.w3.org/2000/svg" xmlns:xlink="http://www.w3.org/1999/xlink" viewBox="0 0 2329.25 187.6"><defs><linearGradient id="linear-gradient" x1="294.74" y1="227.26" x2="294.74" y2="-81.74" gradientTransform="translate(0 174.03) scale(1 -1)" gradientUnits="userSpaceOnUse"><stop offset="0" stop-color="#000"/><stop offset=".46" stop-color="#000"/><stop offset=".46" stop-color="#020006"/><stop offset=".67" stop-color="#020006"/><stop offset="1" stop-color="#020006"/></linearGradient><linearGradient id="linear-gradient-2" x1="895.31" y1="227.14" x2="895.31" y2="-81.86" xlink:href="#linear-gradient"/><linearGradient id="linear-gradient-3" x1="1476.66" y1="227.03" x2="1476.66" y2="-81.97" xlink:href="#linear-gradient"/><linearGradient id="linear-gradient-4" x1="2072.17" y1="226.91" x2="2072.17" y2="-82.09" xlink:href="#linear-gradient"/><linearGradient id="linear-gradient-5" x1="2062.12" y1="242.34" x2="2062.12" y2="-66.66" gradientTransform="translate(0 174.03) scale(1 -1)" gradientUnits="userSpaceOnUse"><stop offset="0" stop-color="#f9f1eb"/><stop offset=".46" stop-color="#f9f1eb"/><stop offset=".46" stop-color="#ff7a00"/><stop offset=".67" stop-color="#ff7a00"/><stop offset="1" stop-color="#ff7a00"/></linearGradient><linearGradient id="linear-gradient-6" x1="1463.48" y1="242.34" x2="1463.48" y2="-66.66" gradientTransform="translate(0 174.03) scale(1 -1)" gradientUnits="userSpaceOnUse"><stop offset="0" stop-color="#f9f1eb"/><stop offset=".46" stop-color="#f9f1eb"/><stop offset=".46" stop-color="#ff7a00"/><stop offset=".67" stop-color="#ff7a00"/><stop offset="1" stop-color="#ff7a00"/></linearGradient><linearGradient id="linear-gradient-7" x1="885.66" y1="242.34" x2="885.66" y2="-66.66" gradientTransform="translate(0 174.03) scale(1 -1)" gradientUnits="userSpaceOnUse"><stop offset="0" stop-color="#f9f1eb"/><stop offset=".46" stop-color="#f9f1eb"/><stop offset=".46" stop-color="#ff7a00"/><stop offset=".67" stop-color="#ff7a00"/><stop offset="1" stop-color="#ff7a00"/></linearGradient><linearGradient id="linear-gradient-8" x1="283.42" y1="242.34" x2="283.42" y2="-66.66" gradientTransform="translate(0 174.03) scale(1 -1)" gradientUnits="userSpaceOnUse"><stop offset="0" stop-color="#f9f1eb"/><stop offset=".46" stop-color="#f9f1eb"/><stop offset=".46" stop-color="#ff7a00"/><stop offset=".67" stop-color="#ff7a00"/><stop offset="1" stop-color="#ff7a00"/></linearGradient></defs><path d="M83.63,23.06l.9-4.23h-33.79l-.59,2.77L16.55,179.04l-.9,4.22h4.32s105.36.25,105.36.25h2.86s.58-2.79.58-2.79l5.52-26.64.87-4.21H56.69l26.94-126.81ZM177.58,18.59h-2.84l-.59,2.78-33.36,157.68-.89,4.21h4.31s104.88.25,104.88.25h2.85s.58-2.79.58-2.79l5.52-26.64.87-4.21h-78.22l9.55-44.84h59.73l.62-2.73,6-26.64.96-4.27h-59.86l3.87-19.16h78.23l.58-2.79,5.52-26.64.87-4.21h-109.18ZM404.44,23.07l.91-4.23h-111.58l-.57,2.8-5.52,26.88-.86,4.2h38.61l-26.94,126.81-.9,4.23h33.8l.59-2.77,27.25-128.27h38.88l.59-2.77,5.76-26.88ZM416.11,18.59h-2.83l-.59,2.77-11.52,54-.9,4.23h33.8l.59-2.77,11.52-54,.9-4.23h-30.97ZM484.36,18.59h-2.83s-.6,2.76-.6,2.76l-3.72,17.16h-19.45l-.59,2.77-8.64,40.32-.91,4.23h19.49l-2.99,14.77-.85,4.18,4.26.02,54.49.22-9.55,44.86h-78.5l-.58,2.79-5.52,26.64-.87,4.21h92.35l.58-2.79,3.5-16.89h19.9l.59-2.77,14.16-66,.91-4.23h-19.7l3.2-15.22.88-4.22h-58.58l3.84-18.68h78.24l.57-2.8,5.52-26.88.86-4.19h-4.28s-85.2-.25-85.2-.25Z" style="fill:url(#linear-gradient); stroke:#000; stroke-width:7px;"/><path d="M674.9,18.71h-2.83l-.59,2.77-33.6,157.68-.9,4.23h4.32c14.03,0,28.18.06,42.34.12h0c14.16.06,28.33.12,42.38.12h2.8l.61-2.74,3.95-17.66h20.43l.59-2.77,12.48-58.56.9-4.23h-14.9l3.81-18.2h14.87l.59-2.77,7.2-33.6.91-4.23h-20.64l3.41-15.93.91-4.23h-89.05ZM910.17,23.66l.9-4.23h-33.8l-.59,2.77-27.25,127.79h-44.68l26.94-126.33.9-4.23h-34.04l-.59,2.77-29.28,137.52-.9,4.23h19.64l-3.37,15.18-.95,4.26h73.45l.58-2.78,3.5-16.66h19.67l.59-2.77,29.28-137.52ZM946.56,18.71h-2.83s-.6,2.76-.6,2.76l-3.72,17.16h-19.45l-.59,2.77-8.64,40.32-.91,4.23h19.49l-2.99,14.77-.85,4.18,4.26.02,54.49.22-9.55,44.86h-78.5l-.58,2.79-5.52,26.64-.87,4.21h92.35l.58-2.79,3.5-16.89h19.9l.59-2.77,14.16-66,.9-4.23h-19.7l3.2-15.22.89-4.22h-58.58l3.84-18.68h78.24l.57-2.8,5.52-26.88.86-4.19h-4.28s-85.2-.25-85.2-.25ZM1152.73,23.18l.91-4.23h-111.58l-.58,2.8-5.52,26.88-.86,4.2h38.61l-26.94,126.81-.9,4.23h33.8l.59-2.77,27.25-128.27h38.87l.59-2.77,5.76-26.88ZM678.01,149.99l9.34-44.84h44.69l-9.34,44.84h-44.69ZM739.49,71.51h-44.69l3.84-18.68h44.69l-3.84,18.68Z" style="fill:url(#linear-gradient-2); stroke:#000; stroke-width:7px;"/><path d="M1252.88,18.82h-2.83s-.6,2.76-.6,2.76l-3.72,17.16h-19.45l-.59,2.77-8.64,40.32-.91,4.23h19.49l-2.99,14.77-.85,4.18,4.27.02,54.49.22-9.55,44.86h-78.5l-.58,2.79-5.52,26.64-.87,4.21h92.35l.58-2.79,3.5-16.89h19.9l.59-2.77,14.16-66,.91-4.23h-19.7l3.2-15.22.88-4.22h-58.58l3.84-18.68h78.24l.58-2.8,5.52-26.88.86-4.19h-4.28s-85.2-.25-85.2-.25ZM1381,18.82h-2.83l-.59,2.77-3.73,17.39h-19.2l-.59,2.77-25.2,118.08-.91,4.23h19.22l-3.2,15.22-.88,4.22h73.12l.6-2.74,3.72-16.7h19.46l.59-2.77,25.2-118.08.9-4.23h-19.48l3.23-15.97.85-4.19h-70.28ZM1489.69,18.82h-2.84l-.59,2.78-33.36,157.68-.89,4.22h33.79l.59-2.78,21.49-101.86h1.5l-4.64,22.18-.88,4.22h18.03l-4.43,21.97-.85,4.19h32.1l.57-2.81,4.71-23.35h17.96l.6-2.75,5.16-23.65h1.26l-21.19,100.42-.89,4.22h33.79l.59-2.78,33.36-157.68.89-4.22h-33.8l-.58,2.78-4.94,23.62h-15.84l-.58,2.78-4.94,23.62h-16.79l-.59,2.78-4.93,23.38h-5.61l4.44-21.97.84-4.19h-17.01l4.64-22.18.88-4.22h-15.6l4.64-22.18.88-4.22h-30.94ZM1648.61,18.82h-2.84l-.59,2.78-33.36,157.68-.89,4.21h4.31s104.88.25,104.88.25h2.86s.57-2.79.57-2.79l5.52-26.64.88-4.21h-78.22l9.55-44.84h59.73l.61-2.73,6-26.64.96-4.27h-59.86l3.87-19.16h78.23l.57-2.79,5.52-26.64.88-4.21h-109.18ZM1364.44,150.1l20.83-97.64h44.92l-20.82,97.64h-44.93Z" style="fill:url(#linear-gradient-3); stroke:#000; stroke-width:7px;"/><path d="M1857.29,18.94h-2.83l-.59,2.77-33.6,157.68-.9,4.23h4.32c14.03,0,28.18.06,42.34.12h.01c14.15.06,28.32.12,42.37.12h2.8l.62-2.74,3.94-17.66h20.43l.59-2.77,12.48-58.56.9-4.23h-14.89l3.81-18.2h14.87l.59-2.77,7.2-33.6.91-4.23h-20.64l3.41-15.93.91-4.23h-89.05ZM2002.97,18.94h-2.83l-.59,2.77-3.73,17.39h-19.2l-.59,2.77-25.2,118.08-.9,4.23h19.21l-3.19,15.22-.89,4.22h73.12l.61-2.74,3.71-16.7h19.46l.59-2.77,25.2-118.08.91-4.23h-19.49l3.23-15.97.85-4.19h-70.28ZM2207.96,23.42l.91-4.23h-111.58l-.58,2.8-5.52,26.88-.86,4.2h38.61l-26.94,126.81-.9,4.23h33.79l.59-2.77,27.25-128.27h38.88l.59-2.77,5.76-26.88ZM2235.48,18.94h-2.83s-.6,2.76-.6,2.76l-3.72,17.16h-19.45l-.59,2.77-8.64,40.32-.91,4.23h19.49l-2.99,14.77-.84,4.18,4.26.02,54.49.22-9.55,44.86h-78.5l-.58,2.79-5.52,26.64-.87,4.21h92.35l.58-2.79,3.5-16.89h19.9l.59-2.77,14.16-66,.91-4.23h-19.7l3.2-15.22.88-4.22h-58.58l3.85-18.68h78.24l.57-2.8,5.52-26.88.86-4.19h-4.28s-85.2-.25-85.2-.25ZM1860.39,150.22l9.35-44.84h44.69l-9.35,44.84h-44.69ZM1921.88,71.74h-44.7l3.84-18.68h44.7l-3.84,18.68ZM2007.24,52.58h44.93l-20.83,97.64h-44.92l20.82-97.64Z" style="fill:url(#linear-gradient-4); stroke:#000; stroke-width:7px;"/><path d="M1847.25,3.52h-2.83l-.59,2.77-33.6,157.68-.9,4.23h4.32c14.03,0,28.18.06,42.34.12h.01c14.15.06,28.32.12,42.37.12h2.8l.62-2.74,3.94-17.66h20.43l.59-2.77,12.48-58.56.9-4.23h-14.89l3.81-18.2h14.87l.59-2.77,7.2-33.6.91-4.23h-20.64l3.41-15.93.91-4.23h-89.05ZM1992.93,3.52h-2.83l-.59,2.77-3.73,17.39h-19.2l-.59,2.77-25.2,118.08-.9,4.23h19.21l-3.19,15.22-.89,4.22h73.12l.61-2.74,3.71-16.7h19.46l.59-2.77,25.2-118.08.91-4.23h-19.49l3.23-15.97.85-4.19h-70.28ZM2197.92,7.99l.91-4.23h-111.58l-.58,2.8-5.52,26.88-.86,4.2h38.61l-26.94,126.81-.9,4.23h33.79l.59-2.77,27.25-128.27h38.88l.59-2.77,5.76-26.88ZM2225.44,3.52h-2.83s-.6,2.76-.6,2.76l-3.72,17.16h-19.45l-.59,2.77-8.64,40.32-.91,4.23h19.49l-2.99,14.77-.84,4.18,4.26.02,54.49.22-9.55,44.86h-78.5l-.58,2.79-5.52,26.64-.87,4.21h92.35l.58-2.79,3.5-16.89h19.9l.59-2.77,14.16-66,.91-4.23h-19.7l3.2-15.22.88-4.22h-58.58l3.85-18.68h78.24l.57-2.8,5.52-26.88.86-4.19h-4.28s-85.2-.25-85.2-.25ZM1850.35,134.8l9.35-44.84h44.69l-9.35,44.84h-44.69ZM1911.84,56.32h-44.7l3.84-18.68h44.7l-3.84,18.68ZM1997.2,37.16h44.93l-20.83,97.64h-44.92l20.82-97.64Z" style="fill:url(#linear-gradient-5); stroke:#000; stroke-width:7px;"/><path d="M1239.7,3.52h-2.83s-.6,2.76-.6,2.76l-3.72,17.16h-19.45l-.59,2.77-8.64,40.32-.91,4.23h19.49l-2.99,14.77-.85,4.18,4.27.02,54.49.22-9.55,44.86h-78.5l-.58,2.79-5.52,26.64-.87,4.21h92.35l.58-2.79,3.5-16.89h19.9l.59-2.77,14.16-66,.91-4.23h-19.7l3.2-15.22.88-4.22h-58.58l3.84-18.68h78.24l.58-2.8,5.52-26.88.86-4.19h-4.28s-85.2-.25-85.2-.25ZM1367.82,3.52h-2.83l-.59,2.77-3.73,17.39h-19.2l-.59,2.77-25.2,118.08-.91,4.23h19.22l-3.2,15.22-.88,4.22h73.12l.6-2.74,3.72-16.7h19.46l.59-2.77,25.2-118.08.9-4.23h-19.48l3.23-15.97.85-4.19h-70.28ZM1476.51,3.52h-2.84l-.59,2.78-33.36,157.68-.89,4.22h33.79l.59-2.78,21.49-101.86h1.5l-4.64,22.18-.88,4.22h18.03l-4.43,21.97-.85,4.19h32.1l.57-2.81,4.71-23.35h17.96l.6-2.75,5.16-23.65h1.26l-21.19,100.42-.89,4.22h33.79l.59-2.78,33.36-157.68.89-4.22h-33.8l-.58,2.78-4.94,23.62h-15.84l-.58,2.78-4.94,23.62h-16.79l-.59,2.78-4.93,23.38h-5.61l4.44-21.97.84-4.19h-17.01l4.64-22.18.88-4.22h-15.6l4.64-22.18.88-4.22h-30.94ZM1635.43,3.52h-2.84l-.59,2.78-33.36,157.68-.89,4.21h4.31s104.88.25,104.88.25h2.86s.57-2.79.57-2.79l5.52-26.64.88-4.21h-78.22l9.55-44.84h59.73l.61-2.73,6-26.64.96-4.27h-59.86l3.87-19.16h78.23l.57-2.79,5.52-26.64.88-4.21h-109.18ZM1351.26,134.8l20.83-97.64h44.92l-20.82,97.64h-44.93Z" style="fill:url(#linear-gradient-6); stroke:#000; stroke-width:7px;"/><path d="M665.25,3.52h-2.83l-.59,2.77-33.6,157.68-.9,4.23h4.32c14.03,0,28.18.06,42.34.12h0c14.16.06,28.33.12,42.38.12h2.8l.61-2.74,3.95-17.66h20.43l.59-2.77,12.48-58.56.9-4.23h-14.9l3.81-18.2h14.87l.59-2.77,7.2-33.6.91-4.23h-20.64l3.41-15.93.91-4.23h-89.05ZM900.51,8.46l.9-4.23h-33.8l-.59,2.77-27.25,127.79h-44.68l26.94-126.33.9-4.23h-34.04l-.59,2.77-29.28,137.52-.9,4.23h19.64l-3.37,15.18-.95,4.26h73.45l.58-2.78,3.5-16.66h19.67l.59-2.77,29.28-137.52ZM936.9,3.52h-2.83s-.6,2.76-.6,2.76l-3.72,17.16h-19.45l-.59,2.77-8.64,40.32-.91,4.23h19.49l-2.99,14.77-.85,4.18,4.26.02,54.49.22-9.55,44.86h-78.5l-.58,2.79-5.52,26.64-.87,4.21h92.35l.58-2.79,3.5-16.89h19.9l.59-2.77,14.16-66,.9-4.23h-19.7l3.2-15.22.89-4.22h-58.58l3.84-18.68h78.24l.57-2.8,5.52-26.88.86-4.19h-4.28s-85.2-.25-85.2-.25ZM1143.08,7.99l.91-4.23h-111.58l-.58,2.8-5.52,26.88-.86,4.2h38.61l-26.94,126.81-.9,4.23h33.8l.59-2.77,27.25-128.27h38.87l.59-2.77,5.76-26.88ZM668.35,134.8l9.34-44.84h44.69l-9.34,44.84h-44.69ZM729.83,56.32h-44.69l3.84-18.68h44.69l-3.84,18.68Z" style="fill:url(#linear-gradient-7); stroke:#000; stroke-width:7px;"/><path d="M72.31,7.98l.9-4.23h-33.79l-.59,2.77L5.22,163.97l-.9,4.22h4.32s105.36.25,105.36.25h2.86s.58-2.79.58-2.79l5.52-26.64.87-4.21H45.37L72.31,7.98ZM166.26,3.52h-2.84l-.59,2.78-33.36,157.68-.89,4.21h4.31s104.88.25,104.88.25h2.85s.58-2.79.58-2.79l5.52-26.64.87-4.21h-78.22l9.55-44.84h59.73l.62-2.73,6-26.64.96-4.27h-59.86l3.87-19.16h78.23l.58-2.79,5.52-26.64.87-4.21h-109.18ZM393.12,7.99l.91-4.23h-111.58l-.57,2.8-5.52,26.88-.86,4.2h38.61l-26.94,126.81-.9,4.23h33.8l.59-2.77,27.25-128.27h38.88l.59-2.77,5.76-26.88ZM404.79,3.52h-2.83l-.59,2.77-11.52,54-.9,4.23h33.8l.59-2.77,11.52-54,.9-4.23h-30.97ZM473.04,3.52h-2.83s-.6,2.76-.6,2.76l-3.72,17.16h-19.45l-.59,2.77-8.64,40.32-.91,4.23h19.49l-2.99,14.77-.85,4.18,4.26.02,54.49.22-9.55,44.86h-78.5l-.58,2.79-5.52,26.64-.87,4.21h92.35l.58-2.79,3.5-16.89h19.9l.59-2.77,14.16-66,.91-4.23h-19.7l3.2-15.22.88-4.22h-58.58l3.84-18.68h78.24l.57-2.8,5.52-26.88.86-4.19h-4.28s-85.2-.25-85.2-.25Z" style="fill:url(#linear-gradient-8); stroke:#000; stroke-width:7px;"/></svg>