<?xml version="1.0" encoding="UTF-8"?><svg id="Layer_1" xmlns="http://www.w3.org/2000/svg" xmlns:xlink="http://www.w3.org/1999/xlink" viewBox="0 0 1242.06 463.47"><defs><linearGradient id="linear-gradient" x1="905.82" y1="241.34" x2="905.82" y2="-67.66" gradientTransform="translate(0 450.03) scale(1 -1)" gradientUnits="userSpaceOnUse"><stop offset="0" stop-color="#f9f1eb"/><stop offset=".46" stop-color="#f9f1eb"/><stop offset=".46" stop-color="#ff7a00"/><stop offset=".67" stop-color="#ff7a00"/><stop offset="1" stop-color="#ff7a00"/></linearGradient><linearGradient id="linear-gradient-2" x1="285.43" y1="241.34" x2="285.43" y2="-67.66" gradientTransform="translate(0 450.03) scale(1 -1)" gradientUnits="userSpaceOnUse"><stop offset="0" stop-color="#f9f1eb"/><stop offset=".46" stop-color="#f9f1eb"/><stop offset=".46" stop-color="#ff7a00"/><stop offset=".67" stop-color="#ff7a00"/><stop offset="1" stop-color="#ff7a00"/></linearGradient><linearGradient id="linear-gradient-3" x1="971.61" y1="518.34" x2="971.61" y2="209.34" gradientTransform="translate(0 450.03) scale(1 -1)" gradientUnits="userSpaceOnUse"><stop offset="0" stop-color="#f9f1eb"/><stop offset=".46" stop-color="#f9f1eb"/><stop offset=".46" stop-color="#ff7a00"/><stop offset=".67" stop-color="#ff7a00"/><stop offset="1" stop-color="#ff7a00"/></linearGradient><linearGradient id="linear-gradient-4" x1="332.37" y1="518.34" x2="332.37" y2="209.34" gradientTransform="translate(0 450.03) scale(1 -1)" gradientUnits="userSpaceOnUse"><stop offset="0" stop-color="#f9f1eb"/><stop offset=".46" stop-color="#f9f1eb"/><stop offset=".46" stop-color="#ff7a00"/><stop offset=".67" stop-color="#ff7a00"/><stop offset="1" stop-color="#ff7a00"/></linearGradient></defs><path d="M698.79,294.81h-2.83l-.59,2.77-33.6,157.68-.9,4.23h4.32c14.03,0,28.18.06,42.34.12h0c14.16.06,28.33.12,42.38.12h2.8l.61-2.74,3.95-17.66h20.43l.59-2.77,12.48-58.56.9-4.23h-14.89l3.81-18.2h14.87l.59-2.77,7.2-33.6.91-4.23h-20.64l3.41-15.93.91-4.23h-89.05ZM844.48,294.81h-2.83l-.59,2.77-3.73,17.39h-19.2l-.59,2.77-25.2,118.08-.9,4.23h19.22l-3.2,15.22-.89,4.22h73.12l.61-2.74,3.71-16.7h19.47l.59-2.77,25.2-118.08.9-4.23h-19.49l3.23-15.97.85-4.19h-70.28ZM1049.47,299.28l.91-4.23h-111.59l-.57,2.8-5.52,26.88-.86,4.2h38.61l-26.94,126.81-.9,4.23h33.8l.59-2.77,27.25-128.27h38.88l.59-2.77,5.76-26.88ZM1076.99,294.81h-2.83s-.6,2.76-.6,2.76l-3.72,17.16h-19.45l-.59,2.77-8.64,40.32-.91,4.23h19.49l-2.99,14.77-.85,4.18,4.27.02,54.49.22-9.55,44.86h-78.5l-.58,2.79-5.52,26.64-.87,4.21h92.35l.58-2.79,3.5-16.89h19.9l.59-2.77,14.16-66,.91-4.23h-19.7l3.2-15.22.88-4.22h-58.58l3.84-18.68h78.25l.57-2.8,5.52-26.88.86-4.19h-4.28s-85.2-.25-85.2-.25ZM701.9,426.09l9.34-44.84h44.69l-9.34,44.84h-44.69ZM763.38,347.61h-44.69l3.84-18.68h44.69l-3.84,18.68ZM848.75,328.45h44.92l-20.83,97.64h-44.92l20.83-97.64Z" style="stroke:#000; stroke-width:7px;"/><path d="M70.69,293.06h-2.83s-.6,2.76-.6,2.76l-3.72,17.16h-19.45l-.59,2.77-8.64,40.32-.91,4.23h19.49l-2.99,14.77-.85,4.18,4.26.02,54.49.22-9.55,44.86H20.31l-.58,2.79-5.52,26.64-.87,4.21h92.35l.58-2.79,3.5-16.89h19.9l.59-2.77,14.16-66,.91-4.23h-19.7l3.19-15.22.89-4.22h-58.58l3.84-18.68h78.24l.57-2.8,5.52-26.88.86-4.19h-4.28s-85.2-.25-85.2-.25ZM198.81,293.06h-2.83l-.59,2.77-3.73,17.39h-19.2l-.59,2.77-25.2,118.08-.9,4.23h19.22l-3.19,15.22-.89,4.22h73.12l.61-2.74,3.71-16.7h19.46l.59-2.77,25.2-118.08.9-4.23h-19.49l3.23-15.97.85-4.19h-70.28ZM307.5,293.06h-2.84l-.59,2.78-33.36,157.68-.89,4.22h33.8l.59-2.78,21.49-101.86h1.49l-4.64,22.18-.88,4.22h18.03l-4.43,21.97-.85,4.19h32.1l.57-2.81,4.71-23.35h17.95l.6-2.75,5.16-23.65h1.27l-21.19,100.42-.89,4.22h33.79l.59-2.78,33.36-157.68.89-4.22h-33.8l-.58,2.78-4.94,23.62h-15.84l-.58,2.78-4.94,23.62h-16.79l-.59,2.78-4.93,23.38h-5.61l4.43-21.97.85-4.19h-17.01l4.64-22.18.88-4.22h-15.6l4.64-22.18.88-4.22h-30.95ZM466.42,293.06h-2.84l-.59,2.78-33.36,157.68-.89,4.21h4.31s104.88.25,104.88.25h2.86s.58-2.79.58-2.79l5.52-26.64.87-4.21h-78.22l9.55-44.84h59.73l.61-2.73,6-26.64.96-4.27h-59.86l3.87-19.16h78.23l.58-2.79,5.52-26.64.87-4.21h-109.18ZM182.26,424.34l20.83-97.64h44.92l-20.83,97.64h-44.92Z" style="stroke:#000; stroke-width:7px;"/><path d="M758.99,21.02h-2.83l-.59,2.77-33.6,157.68-.9,4.23h4.32c14.03,0,28.18.06,42.34.12h0c14.16.06,28.33.12,42.38.12h2.8l.61-2.74,3.95-17.66h20.43l.59-2.77,12.48-58.56.9-4.23h-14.9l3.81-18.2h14.87l.59-2.77,7.2-33.6.91-4.23h-20.64l3.41-15.93.91-4.23h-89.05ZM994.26,25.97l.9-4.23h-33.8l-.59,2.77-27.25,127.79h-44.68l26.94-126.33.9-4.23h-34.04l-.59,2.77-29.28,137.52-.9,4.23h19.64l-3.37,15.18-.95,4.26h73.45l.58-2.78,3.5-16.66h19.67l.59-2.77,29.28-137.52ZM1030.64,21.02h-2.83s-.6,2.76-.6,2.76l-3.72,17.16h-19.44l-.59,2.77-8.64,40.32-.91,4.23h19.48l-2.99,14.77-.84,4.18,4.26.02,54.49.22-9.55,44.86h-78.49l-.58,2.79-5.52,26.64-.87,4.21h92.34l.58-2.79,3.5-16.89h19.9l.6-2.77,14.16-66,.9-4.23h-19.69l3.19-15.22.89-4.22h-58.58l3.84-18.68h78.24l.57-2.8,5.52-26.88.86-4.19h-4.28s-85.2-.25-85.2-.25ZM1236.82,25.49l.91-4.23h-111.58l-.58,2.8-5.52,26.88-.86,4.2h38.61l-26.94,126.81-.9,4.23h33.8l.59-2.77,27.25-128.27h38.87l.59-2.77,5.76-26.88ZM762.1,152.3l9.34-44.84h44.69l-9.34,44.84h-44.69ZM823.58,73.82h-44.69l3.84-18.68h44.69l-3.84,18.68Z" style="stroke:#000; stroke-width:7px;"/><path d="M126.41,25.36l.9-4.23h-33.79l-.59,2.77-33.6,157.44-.9,4.22h4.32s105.36.25,105.36.25h2.86s.58-2.79.58-2.79l5.52-26.64.87-4.21h-78.46l26.94-126.81ZM220.36,20.9h-2.84l-.59,2.78-33.36,157.68-.89,4.21h4.31s104.88.25,104.88.25h2.86s.58-2.79.58-2.79l5.52-26.64.87-4.21h-78.22l9.55-44.84h59.73l.61-2.73,6-26.64.96-4.27h-59.86l3.87-19.16h78.23l.58-2.79,5.52-26.64.87-4.21h-109.18ZM447.22,25.37l.91-4.23h-111.58l-.57,2.8-5.52,26.88-.86,4.2h38.61l-26.94,126.81-.9,4.23h33.8l.59-2.77,27.25-128.27h38.88l.59-2.77,5.76-26.88ZM458.89,20.9h-2.83l-.59,2.77-11.52,54-.9,4.23h33.8l.59-2.77,11.52-54,.9-4.23h-30.97ZM527.14,20.9h-2.83s-.6,2.76-.6,2.76l-3.72,17.16h-19.45l-.59,2.77-8.64,40.32-.91,4.23h19.49l-2.99,14.77-.85,4.18,4.26.02,54.49.22-9.55,44.86h-78.5l-.58,2.79-5.52,26.64-.87,4.21h92.35l.58-2.79,3.5-16.89h19.9l.59-2.77,14.16-66,.91-4.23h-19.7l3.2-15.22.88-4.22h-58.58l3.84-18.68h78.24l.57-2.8,5.52-26.88.86-4.19h-4.28s-85.2-.25-85.2-.25Z" style="stroke:#000; stroke-width:7px;"/><path d="M690.95,280.52h-2.83l-.59,2.77-33.6,157.68-.9,4.23h4.32c14.03,0,28.18.06,42.34.12h0c14.16.06,28.33.12,42.38.12h2.8l.61-2.74,3.95-17.66h20.43l.59-2.77,12.48-58.56.9-4.23h-14.89l3.81-18.2h14.87l.59-2.77,7.2-33.6.91-4.23h-20.64l3.41-15.93.91-4.23h-89.05ZM836.63,280.52h-2.83l-.59,2.77-3.73,17.39h-19.2l-.59,2.77-25.2,118.08-.9,4.23h19.22l-3.2,15.22-.89,4.22h73.12l.61-2.74,3.71-16.7h19.47l.59-2.77,25.2-118.08.9-4.23h-19.49l3.23-15.97.85-4.19h-70.28ZM1041.62,284.99l.91-4.23h-111.59l-.57,2.8-5.52,26.88-.86,4.2h38.61l-26.94,126.81-.9,4.23h33.8l.59-2.77,27.25-128.27h38.88l.59-2.77,5.76-26.88ZM1069.14,280.52h-2.83s-.6,2.76-.6,2.76l-3.72,17.16h-19.45l-.59,2.77-8.64,40.32-.91,4.23h19.49l-2.99,14.77-.85,4.18,4.27.02,54.49.22-9.55,44.86h-78.5l-.58,2.79-5.52,26.64-.87,4.21h92.35l.58-2.79,3.5-16.89h19.9l.59-2.77,14.16-66,.91-4.23h-19.7l3.2-15.22.88-4.22h-58.58l3.84-18.68h78.25l.57-2.8,5.52-26.88.86-4.19h-4.28s-85.2-.25-85.2-.25ZM694.05,411.8l9.34-44.84h44.69l-9.34,44.84h-44.69ZM755.53,333.32h-44.69l3.84-18.68h44.69l-3.84,18.68ZM840.9,314.16h44.92l-20.83,97.64h-44.92l20.83-97.64Z" style="fill:url(#linear-gradient); stroke:#000; stroke-width:7px;"/><path d="M61.65,280.52h-2.83s-.6,2.76-.6,2.76l-3.72,17.16h-19.45l-.59,2.77-8.64,40.32-.91,4.23h19.49l-2.99,14.77-.85,4.18,4.26.02,54.49.22-9.55,44.86H11.27l-.58,2.79-5.52,26.64-.87,4.21h92.35l.58-2.79,3.5-16.89h19.9l.59-2.77,14.16-66,.91-4.23h-19.7l3.19-15.22.89-4.22h-58.58l3.84-18.68h78.24l.57-2.8,5.52-26.88.86-4.19h-4.28s-85.2-.25-85.2-.25ZM189.77,280.52h-2.83l-.59,2.77-3.73,17.39h-19.2l-.59,2.77-25.2,118.08-.9,4.23h19.22l-3.19,15.22-.89,4.22h73.12l.61-2.74,3.71-16.7h19.46l.59-2.77,25.2-118.08.9-4.23h-19.49l3.23-15.97.85-4.19h-70.28ZM298.46,280.52h-2.84l-.59,2.78-33.36,157.68-.89,4.22h33.8l.59-2.78,21.49-101.86h1.49l-4.64,22.18-.88,4.22h18.03l-4.43,21.97-.85,4.19h32.1l.57-2.81,4.71-23.35h17.95l.6-2.75,5.16-23.65h1.27l-21.19,100.42-.89,4.22h33.79l.59-2.78,33.36-157.68.89-4.22h-33.8l-.58,2.78-4.94,23.62h-15.84l-.58,2.78-4.94,23.62h-16.79l-.59,2.78-4.93,23.38h-5.61l4.43-21.97.85-4.19h-17.01l4.64-22.18.88-4.22h-15.6l4.64-22.18.88-4.22h-30.95ZM457.38,280.52h-2.84l-.59,2.78-33.36,157.68-.89,4.21h4.31s104.88.25,104.88.25h2.86s.58-2.79.58-2.79l5.52-26.64.87-4.21h-78.22l9.55-44.84h59.73l.61-2.73,6-26.64.96-4.27h-59.86l3.87-19.16h78.23l.58-2.79,5.52-26.64.87-4.21h-109.18ZM173.21,411.8l20.83-97.64h44.92l-20.83,97.64h-44.92Z" style="fill:url(#linear-gradient-2); stroke:#000; stroke-width:7px;"/><path d="M751.2,3.52h-2.83l-.59,2.77-33.6,157.68-.9,4.23h4.32c14.03,0,28.18.06,42.34.12h0c14.16.06,28.33.12,42.38.12h2.8l.61-2.74,3.95-17.66h20.43l.59-2.77,12.48-58.56.9-4.23h-14.9l3.81-18.2h14.87l.59-2.77,7.2-33.6.91-4.23h-20.64l3.41-15.93.91-4.23h-89.05ZM986.46,8.46l.9-4.23h-33.8l-.59,2.77-27.25,127.79h-44.68l26.94-126.33.9-4.23h-34.04l-.59,2.77-29.28,137.52-.9,4.23h19.64l-3.37,15.18-.95,4.26h73.45l.58-2.78,3.5-16.66h19.67l.59-2.77,29.28-137.52ZM1022.85,3.52h-2.83s-.6,2.76-.6,2.76l-3.72,17.16h-19.44l-.59,2.77-8.64,40.32-.91,4.23h19.48l-2.99,14.77-.84,4.18,4.26.02,54.49.22-9.55,44.86h-78.49l-.58,2.79-5.52,26.64-.87,4.21h92.34l.58-2.79,3.5-16.89h19.9l.6-2.77,14.16-66,.9-4.23h-19.69l3.19-15.22.89-4.22h-58.58l3.84-18.68h78.24l.57-2.8,5.52-26.88.86-4.19h-4.28s-85.2-.25-85.2-.25ZM1229.03,7.99l.91-4.23h-111.58l-.58,2.8-5.52,26.88-.86,4.2h38.61l-26.94,126.81-.9,4.23h33.8l.59-2.77,27.25-128.27h38.87l.59-2.77,5.76-26.88ZM754.3,134.8l9.34-44.84h44.69l-9.34,44.84h-44.69ZM815.79,56.32h-44.69l3.84-18.68h44.69l-3.84,18.68Z" style="fill:url(#linear-gradient-3); stroke:#000; stroke-width:7px;"/><path d="M121.26,7.98l.9-4.23h-33.79l-.59,2.77-33.6,157.44-.9,4.22h4.32s105.36.25,105.36.25h2.86s.58-2.79.58-2.79l5.52-26.64.87-4.21h-78.46L121.26,7.98ZM215.21,3.52h-2.84l-.59,2.78-33.36,157.68-.89,4.21h4.31s104.88.25,104.88.25h2.86s.58-2.79.58-2.79l5.52-26.64.87-4.21h-78.22l9.55-44.84h59.73l.61-2.73,6-26.64.96-4.27h-59.86l3.87-19.16h78.23l.58-2.79,5.52-26.64.87-4.21h-109.18ZM442.07,7.99l.91-4.23h-111.58l-.57,2.8-5.52,26.88-.86,4.2h38.61l-26.94,126.81-.9,4.23h33.8l.59-2.77,27.25-128.27h38.88l.59-2.77,5.76-26.88ZM453.74,3.52h-2.83l-.59,2.77-11.52,54-.9,4.23h33.8l.59-2.77,11.52-54,.9-4.23h-30.97ZM521.99,3.52h-2.83s-.6,2.76-.6,2.76l-3.72,17.16h-19.45l-.59,2.77-8.64,40.32-.91,4.23h19.49l-2.99,14.77-.85,4.18,4.26.02,54.49.22-9.55,44.86h-78.5l-.58,2.79-5.52,26.64-.87,4.21h92.35l.58-2.79,3.5-16.89h19.9l.59-2.77,14.16-66,.91-4.23h-19.7l3.2-15.22.88-4.22h-58.58l3.84-18.68h78.24l.57-2.8,5.52-26.88.86-4.19h-4.28s-85.2-.25-85.2-.25Z" style="fill:url(#linear-gradient-4); stroke:#000; stroke-width:7px;"/></svg>