<svg width="274" height="137" viewBox="0 0 274 137" fill="none" xmlns="http://www.w3.org/2000/svg">
<g clip-path="url(#clip0_1753_3433)">
<path d="M273.47 18.59C273.47 18.17 273.48 17.76 273.49 17.34V17.17C273.4 17.01 273.31 16.87 273.21 16.75H31.6098C31.5798 18.47 31.5398 20.18 31.5098 21.9C30.6298 22.22 29.7498 22.55 28.8698 22.87C28.7398 26.47 28.6098 30.06 28.4698 33.66C27.4898 33.94 26.7498 34.15 25.9698 34.38C25.9398 34.98 25.9098 35.44 25.8898 35.9L25.9498 36.86C25.8698 39.56 25.7798 42.26 25.6998 44.96C24.8298 45.12 23.9598 45.28 22.9598 45.47C23.0198 46.61 23.0598 47.53 23.1098 48.44C23.3798 48.66 23.6498 48.89 23.9098 49.11C23.6398 48.88 23.3798 48.66 23.1098 48.44C23.0198 51.12 22.9298 53.8 22.8398 56.48C21.9898 56.64 21.1398 56.81 20.2498 56.98V59.92L19.9298 68.08C19.1598 68.2 18.3898 68.31 17.5398 68.44C17.4798 69.55 17.4398 70.47 17.3898 71.39L17.0998 79.48C16.3498 79.66 15.5998 79.84 14.8198 80.03C14.7098 81.09 14.6298 81.98 14.5398 82.88C14.4598 86.38 14.3798 89.89 14.2898 93.39C13.4498 93.79 12.1798 93.03 11.6898 94.37C11.5498 97.96 11.3998 101.54 11.2598 105.1C10.2698 105.43 9.53977 105.67 8.78977 105.93C8.75977 106.52 8.73977 106.98 8.71977 107.44C8.73977 107.75 8.75977 108.07 8.77977 108.38C8.68977 111.06 8.59977 113.74 8.51977 116.43C7.63977 116.58 6.76977 116.74 5.73977 116.92C5.81977 118.09 5.87977 119.01 5.93977 119.92C5.83977 122.61 5.74977 125.29 5.64977 128.07C4.71977 128.39 3.89977 128.68 3.12977 128.95C3.09977 129.51 3.07977 129.86 3.04977 130.21C3.03977 130.66 3.01977 131.11 3.00977 131.55C3.03977 132.45 3.06977 133.35 3.10977 134.25C3.10977 134.72 3.09977 135.2 3.08977 135.67C3.12977 135.75 3.17977 135.8 3.21977 135.86C3.26977 135.94 3.31977 136.02 3.36977 136.09H244.97C245 134.37 245.04 132.66 245.07 130.94C245.95 130.62 246.83 130.29 247.71 129.97C247.84 126.37 247.97 122.78 248.11 119.18C249.09 118.9 249.83 118.69 250.61 118.46C250.64 117.86 250.67 117.4 250.69 116.94L250.63 115.98C250.71 113.28 250.8 110.58 250.88 107.88C251.75 107.72 252.62 107.56 253.62 107.37C253.56 106.23 253.52 105.31 253.47 104.4C253.56 101.72 253.65 99.04 253.74 96.36C254.59 96.2 255.44 96.03 256.33 95.86V92.92L256.65 84.76C257.42 84.64 258.19 84.53 259.04 84.4C259.1 83.29 259.14 82.37 259.19 81.45C259.29 78.75 259.38 76.06 259.48 73.36C260.23 73.18 260.98 73 261.76 72.81C261.87 71.75 261.95 70.86 262.04 69.96C262.12 66.46 262.2 62.95 262.29 59.45C263.13 59.05 264.4 59.81 264.89 58.47C265.03 54.88 265.18 51.3 265.32 47.74C266.31 47.41 267.04 47.17 267.79 46.91C267.82 46.32 267.84 45.86 267.86 45.4C267.84 45.09 267.82 44.77 267.8 44.46C267.89 41.78 267.98 39.1 268.06 36.41C268.94 36.26 269.81 36.1 270.84 35.92C270.76 34.75 270.7 33.83 270.64 32.92C270.74 30.23 270.83 27.55 270.93 24.77C271.86 24.45 272.68 24.16 273.45 23.89C273.48 23.33 273.5 22.98 273.53 22.63C273.54 22.18 273.56 21.73 273.57 21.29C273.54 20.39 273.51 19.49 273.47 18.59Z" fill="black"/>
<path d="M36.7499 10.2402L11.1699 112.64L235.97 112.13L256.39 7.2002L36.7499 10.2402Z" fill="black"/>
<path d="M36.7398 45.95C35.9698 46.07 35.1998 46.18 34.3498 46.31C34.2898 47.42 34.2498 48.34 34.1998 49.26L33.9098 57.35C33.1598 57.53 32.4098 57.71 31.6298 57.9C31.5198 58.96 31.4398 59.85 31.3498 60.75C31.2698 64.25 31.1898 67.76 31.0998 71.26C30.2598 71.66 28.9898 70.9 28.4998 72.24C28.3598 75.83 28.2098 79.41 28.0698 82.97C27.0798 83.3 26.3498 83.54 25.5998 83.8C25.5698 84.39 25.5498 84.85 25.5298 85.31C25.5498 85.62 25.5698 85.94 25.5898 86.25C25.4998 88.93 25.4098 91.61 25.3298 94.3C24.4498 94.45 23.5798 94.61 22.5498 94.79C22.6298 95.96 22.6898 96.88 22.7498 97.79C22.6898 99.47 22.6298 101.17 22.5698 102.88H228.32C228.4 100.8 228.47 98.73 228.55 96.65C229.53 96.37 230.27 96.16 231.05 95.93C231.08 95.33 231.11 94.87 231.13 94.41L231.07 93.45C231.15 90.75 231.24 88.05 231.32 85.35C232.19 85.19 233.06 85.03 234.06 84.84C234 83.7 233.96 82.78 233.91 81.87C233.64 81.65 233.37 81.42 233.11 81.2C233.38 81.43 233.64 81.65 233.91 81.87C234 79.19 234.09 76.51 234.18 73.83C235.03 73.67 235.88 73.5 236.77 73.33V70.39L237.09 62.23C237.86 62.11 238.63 62 239.48 61.87C239.54 60.76 239.58 59.84 239.63 58.92C239.73 56.22 239.82 53.53 239.92 50.83C240.67 50.65 241.42 50.47 242.2 50.28C242.31 49.22 242.39 48.33 242.48 47.43C242.5 46.79 242.51 46.14 242.53 45.5H36.7598C36.7598 45.65 36.7498 45.8 36.7398 45.95Z" fill="#747474"/>
<path d="M245.32 35.9498C245.46 32.3598 245.61 28.7798 245.75 25.2198C246.74 24.8898 247.47 24.6498 248.22 24.3898C248.25 23.7998 248.27 23.3398 248.29 22.8798C248.27 22.5698 248.25 22.2498 248.23 21.9398C248.29 20.2098 248.34 18.4898 248.4 16.7598H42.7103C42.6503 18.7898 42.5903 20.8098 42.5203 22.8398C41.6503 22.9998 40.7803 23.1598 39.7803 23.3498C39.8403 24.4898 39.8803 25.4098 39.9303 26.3198C39.8403 28.9998 39.7503 31.6798 39.6603 34.3598C38.8103 34.5198 37.9603 34.6898 37.0703 34.8598V37.7998C36.9703 40.3698 36.8703 42.9398 36.7603 45.5098H242.52C242.59 42.6498 242.65 39.7898 242.72 36.9298C243.56 36.5298 244.83 37.2898 245.32 35.9498Z" fill="#8B8B8B"/>
<path d="M270.5 2.08984C270.5 1.66984 270.51 1.25984 270.52 0.839844L252.07 14.1498L250.66 25.1598C250.6 26.2398 250.55 27.3098 250.49 28.3898C249.7 28.4698 248.91 28.5498 247.88 28.6498V34.8998C247.88 35.5998 247.87 36.3098 247.86 37.0098C247.77 37.8298 247.69 38.6398 247.6 39.5098C246.72 39.8398 245.89 40.1598 245.12 40.4498V42.7798C245.08 43.9798 245.04 45.1898 245 46.3898C245 47.0598 245 47.7298 245 48.3998C244.91 49.3098 244.82 50.2298 244.73 51.1598C243.91 51.4598 243.19 51.7198 242.46 51.9898C242.42 52.8198 242.39 53.5098 242.36 54.1998C242.31 54.9498 242.25 55.6898 242.2 56.4398C242.2 56.9198 242.2 57.3998 242.2 57.8898C242.2 58.5998 242.2 59.3098 242.2 60.0198C242.09 60.9298 241.98 61.8498 241.86 62.7598C241.85 63.6798 241.83 64.6098 241.82 65.5298C240.95 65.6298 240.09 65.7198 239.22 65.8198C239.24 67.0098 239.26 68.1998 239.28 69.3798C239.5 69.4498 239.73 69.5298 239.95 69.6098C239.73 69.5298 239.5 69.4598 239.28 69.3798C239.28 70.0298 239.28 70.6798 239.28 71.3298C239.19 72.2998 239.09 73.2599 239 74.2299C239 75.1499 238.98 76.0599 238.97 76.9799C238.08 77.0799 237.2 77.1698 236.31 77.2698L236.48 81.0198C236.48 81.6498 236.48 82.2799 236.47 82.9099C236.34 84.7399 236.22 86.5799 236.09 88.4099C235.31 88.4699 234.53 88.5298 233.62 88.5998V92.5198C233.62 93.1298 233.62 93.7398 233.62 94.3498L233.31 99.8998V99.9398C232.52 99.9998 231.72 100.06 230.76 100.13V105.69H18.5702L0.240234 119.36C0.290234 119.44 0.340234 119.52 0.390234 119.59H241.99C242.02 117.87 242.06 116.16 242.09 114.44C242.97 114.12 243.85 113.79 244.73 113.47C244.86 109.87 244.99 106.28 245.13 102.68C246.11 102.4 246.85 102.19 247.63 101.96C247.66 101.36 247.69 100.9 247.71 100.44L247.65 99.4799C247.73 96.7799 247.82 94.0798 247.9 91.3798C248.77 91.2198 249.64 91.0599 250.64 90.8699C250.58 89.7299 250.54 88.8098 250.49 87.8998C250.22 87.6798 249.95 87.4499 249.69 87.2299C249.96 87.4599 250.22 87.6798 250.49 87.8998C250.58 85.2198 250.67 82.5398 250.76 79.8598C251.61 79.6998 252.46 79.5298 253.35 79.3598V76.4198L253.67 68.2598C254.44 68.1398 255.21 68.0298 256.06 67.8998C256.12 66.7898 256.16 65.8698 256.21 64.9498C256.31 62.2498 256.4 59.5598 256.5 56.8598C257.25 56.6798 258 56.4998 258.78 56.3098C258.89 55.2498 258.97 54.3598 259.06 53.4598C259.14 49.9598 259.22 46.4498 259.31 42.9498C260.15 42.5498 261.42 43.3098 261.91 41.9698C262.05 38.3798 262.2 34.7998 262.34 31.2398C263.33 30.9098 264.06 30.6698 264.81 30.4098C264.84 29.8198 264.86 29.3598 264.88 28.8998C264.86 28.5898 264.84 28.2698 264.82 27.9598C264.91 25.2798 265 22.5998 265.08 19.9098C265.96 19.7598 266.83 19.5998 267.86 19.4198C267.78 18.2498 267.72 17.3298 267.66 16.4198C267.76 13.7298 267.85 11.0498 267.95 8.26984C268.88 7.94984 269.7 7.65984 270.47 7.38984C270.5 6.82984 270.52 6.47984 270.55 6.12984C270.56 5.67984 270.58 5.22984 270.59 4.78984C270.56 3.88984 270.53 2.98984 270.49 2.08984H270.5Z" fill="#494949"/>
<path d="M54.8802 85.2997L46.2402 85.3997L57.0902 34.3297C66.2102 34.3297 75.3302 34.2297 84.4502 34.2297L83.1102 40.8497H89.8302L85.8002 59.8597H81.0002L79.2702 68.0197L58.5302 68.3097L54.8802 85.2997ZM77.1502 59.6597L80.7002 42.8597H63.9002L60.3502 59.6597H77.1502ZM110.36 34.3197L101.34 76.7497H126.78L124.96 85.3897L90.8802 85.2897L101.73 34.3097H110.37L110.36 34.3197ZM151.47 34.2197H172.11L170.77 40.7497H177.3L167.8 85.2897H159.16L162.81 68.3897H146.01L142.36 85.2897H133.72L143.22 40.7497H150.13L151.47 34.2197ZM164.63 59.7597L168.18 42.8597H151.38L147.83 59.7597H164.63ZM200.78 85.2997H192.14L197.61 59.7597H191.37L192.71 53.2297H186.18L190.21 34.2197H198.85L195.2 51.3997H201.06L199.81 57.4497H204.99L206.24 51.3997H212.19L215.84 34.2197H224.38L220.35 53.2297H213.82L212.48 59.7597H206.24L200.77 85.2997H200.78Z" fill="#494949"/>
<path d="M270.23 0.259766H28.64C28.61 1.97977 28.57 3.68977 28.54 5.40977C27.66 5.72977 26.78 6.05977 25.9 6.37977C25.77 9.97977 25.64 13.5698 25.5 17.1698C24.52 17.4498 23.78 17.6598 23 17.8898C22.97 18.4898 22.94 18.9498 22.92 19.4098L22.98 20.3698C22.9 23.0698 22.81 25.7698 22.73 28.4698C21.86 28.6298 20.99 28.7898 19.99 28.9798C20.05 30.1198 20.09 31.0398 20.14 31.9498C20.41 32.1698 20.68 32.3998 20.94 32.6198C20.67 32.3898 20.41 32.1698 20.14 31.9498C20.05 34.6298 19.96 37.3098 19.87 39.9898C19.02 40.1498 18.17 40.3198 17.28 40.4898V43.4298L16.96 51.5898C16.19 51.7098 15.42 51.8198 14.57 51.9498C14.51 53.0598 14.47 53.9798 14.42 54.8998L14.13 62.9898C13.38 63.1698 12.63 63.3498 11.85 63.5398C11.74 64.5998 11.66 65.4898 11.57 66.3898C11.49 69.8898 11.41 73.3998 11.32 76.8998C10.48 77.2998 9.21004 76.5398 8.72004 77.8798C8.58004 81.4698 8.43004 85.0498 8.29004 88.6098C7.30004 88.9398 6.57004 89.1798 5.82004 89.4398C5.79004 90.0298 5.77004 90.4898 5.75004 90.9498C5.77004 91.2598 5.79004 91.5798 5.81004 91.8898C5.72004 94.5698 5.63004 97.2498 5.55004 99.9398C4.67004 100.09 3.80004 100.25 2.77004 100.43C2.85004 101.6 2.91004 102.52 2.97004 103.43C2.87004 106.12 2.78004 108.8 2.68004 111.58C1.75004 111.9 0.930039 112.19 0.160039 112.46C0.130039 113.02 0.110039 113.37 0.0800391 113.72C0.0700391 114.17 0.0500391 114.62 0.0400391 115.06C0.0700391 115.96 0.100039 116.86 0.140039 117.76C0.140039 118.23 0.130039 118.71 0.120039 119.18C0.160039 119.26 0.210039 119.31 0.250039 119.37L18.57 105.7L19.98 94.6898C20.04 93.6098 20.09 92.5398 20.15 91.4598C20.94 91.3798 21.73 91.2998 22.76 91.1998V84.9498C22.76 84.2498 22.77 83.5398 22.78 82.8398C22.87 82.0198 22.95 81.2098 23.04 80.3398C23.92 80.0098 24.75 79.6898 25.52 79.3998V77.0698C25.56 75.8698 25.6 74.6598 25.64 73.4598C25.64 72.7898 25.64 72.1198 25.64 71.4498C25.73 70.5398 25.82 69.6198 25.91 68.6898C26.73 68.3898 27.45 68.1298 28.18 67.8598C28.22 67.0298 28.25 66.3398 28.28 65.6498C28.33 64.8998 28.39 64.1598 28.44 63.4098C28.44 62.9298 28.44 62.4498 28.44 61.9598C28.44 61.2498 28.44 60.5398 28.44 59.8298C28.55 58.9198 28.66 57.9998 28.78 57.0898C28.79 56.1698 28.81 55.2398 28.82 54.3198C29.69 54.2198 30.55 54.1298 31.42 54.0298C31.4 52.8398 31.38 51.6498 31.36 50.4698C31.14 50.3998 30.91 50.3198 30.69 50.2398C30.91 50.3198 31.14 50.3898 31.36 50.4698C31.36 49.8198 31.36 49.1698 31.36 48.5198C31.45 47.5498 31.55 46.5898 31.64 45.6198C31.64 44.6998 31.66 43.7898 31.67 42.8698C32.56 42.7698 33.44 42.6798 34.33 42.5798L34.16 38.8298C34.16 38.1998 34.16 37.5698 34.17 36.9398C34.3 35.1098 34.42 33.2698 34.55 31.4398C35.33 31.3798 36.11 31.3198 37.02 31.2498V27.3298C37.02 26.7198 37.02 26.1098 37.02 25.4998L37.33 19.9498V19.9098C38.12 19.8498 38.92 19.7898 39.88 19.7198V14.1598H252.07L270.52 0.849766V0.679766C270.43 0.519766 270.34 0.379766 270.24 0.259766H270.23Z" fill="#747474"/>
</g>
<defs>
<clipPath id="clip0_1753_3433">
<rect width="273.57" height="136.09" fill="white"/>
</clipPath>
</defs>
</svg>
