<?xml version="1.0" encoding="UTF-8"?><svg xmlns="http://www.w3.org/2000/svg" viewBox="0 0 273.57 136.09"><g id="PLAY_SHADOW"><path d="M273.47,18.59c0-.42.01-.83.02-1.25v-.17c-.09-.16-.18-.3-.28-.42H31.61c-.03,1.72-.07,3.43-.1,5.15-.88.32-1.76.65-2.64.97-.13,3.6-.26,7.19-.4,10.79-.98.28-1.72.49-2.5.72-.03.6-.06,1.06-.08,1.52l.06.96c-.08,2.7-.17,5.4-.25,8.1-.87.16-1.74.32-2.74.51.06,1.14.1,2.06.15,2.97.27.22.54.45.8.67-.27-.23-.53-.45-.8-.67-.09,2.68-.18,5.36-.27,8.04-.85.16-1.7.33-2.59.5v2.94l-.32,8.16c-.77.12-1.54.23-2.39.36-.06,1.11-.1,2.03-.15,2.95l-.29,8.09c-.75.18-1.5.36-2.28.55-.11,1.06-.19,1.95-.28,2.85h0c-.08,3.5-.16,7.01-.25,10.51-.84.4-2.11-.36-2.6.98h0c-.14,3.59-.29,7.17-.43,10.73-.99.33-1.72.57-2.47.83-.03.59-.05,1.05-.07,1.51.02.31.04.63.06.94-.09,2.68-.18,5.36-.26,8.05-.88.15-1.75.31-2.78.49.08,1.17.14,2.09.2,3-.1,2.69-.19,5.37-.29,8.15-.93.32-1.75.61-2.52.88-.03.56-.05.91-.08,1.26-.01.45-.03.9-.04,1.34.03.9.06,1.8.1,2.7,0,.47-.01.95-.02,1.42.04.08.09.13.13.19.05.08.1.16.15.23h241.6c.03-1.72.07-3.43.1-5.15.88-.32,1.76-.65,2.64-.97.13-3.6.26-7.19.4-10.79.98-.28,1.72-.49,2.5-.72.03-.6.06-1.06.08-1.52l-.06-.96c.08-2.7.17-5.4.25-8.1.87-.16,1.74-.32,2.74-.51-.06-1.14-.1-2.06-.15-2.97.09-2.68.18-5.36.27-8.04.85-.16,1.7-.33,2.59-.5v-2.94l.32-8.16c.77-.12,1.54-.23,2.39-.36.06-1.11.1-2.03.15-2.95.1-2.7.19-5.39.29-8.09.75-.18,1.5-.36,2.28-.55.11-1.06.19-1.95.28-2.85h0c.08-3.5.16-7.01.25-10.51.84-.4,2.11.36,2.6-.98h0c.14-3.59.29-7.17.43-10.73.99-.33,1.72-.57,2.47-.83.03-.59.05-1.05.07-1.51-.02-.31-.04-.63-.06-.94.09-2.68.18-5.36.26-8.05.88-.15,1.75-.31,2.78-.49-.08-1.17-.14-2.09-.2-3,.1-2.69.19-5.37.29-8.15.93-.32,1.75-.61,2.52-.88.03-.56.05-.91.08-1.26.01-.45.03-.9.04-1.34-.03-.9-.06-1.8-.1-2.7Z" style="fill:#000; stroke-width:0px;"/></g><g id="PLAY_BUTTON"><polygon points="36.75 10.24 11.17 112.64 235.97 112.13 256.39 7.2 36.75 10.24" style="fill:#000; stroke-width:0px;"/><path d="M36.74,45.95c-.77.12-1.54.23-2.39.36-.06,1.11-.1,2.03-.15,2.95l-.29,8.09c-.75.18-1.5.36-2.28.55-.11,1.06-.19,1.95-.28,2.85h0c-.08,3.5-.16,7.01-.25,10.51-.84.4-2.11-.36-2.6.98h0c-.14,3.59-.29,7.17-.43,10.73-.99.33-1.72.57-2.47.83-.03.59-.05,1.05-.07,1.51.02.31.04.63.06.94-.09,2.68-.18,5.36-.26,8.05-.88.15-1.75.31-2.78.49.08,1.17.14,2.09.2,3-.06,1.68-.12,3.38-.18,5.09h205.75c.08-2.08.15-4.15.23-6.23.98-.28,1.72-.49,2.5-.72.03-.6.06-1.06.08-1.52l-.06-.96c.08-2.7.17-5.4.25-8.1.87-.16,1.74-.32,2.74-.51-.06-1.14-.1-2.06-.15-2.97-.27-.22-.54-.45-.8-.67.27.23.53.45.8.67.09-2.68.18-5.36.27-8.04.85-.16,1.7-.33,2.59-.5v-2.94l.32-8.16c.77-.12,1.54-.23,2.39-.36.06-1.11.1-2.03.15-2.95.1-2.7.19-5.39.29-8.09.75-.18,1.5-.36,2.28-.55.11-1.06.19-1.95.28-2.85h0c.02-.64.03-1.29.05-1.93H36.76c0,.15-.01.3-.02.45Z" style="fill:#fc7900; stroke-width:0px;"/><path d="M245.32,35.95h0c.14-3.59.29-7.17.43-10.73.99-.33,1.72-.57,2.47-.83.03-.59.05-1.05.07-1.51-.02-.31-.04-.63-.06-.94.06-1.73.11-3.45.17-5.18H42.71c-.06,2.03-.12,4.05-.19,6.08-.87.16-1.74.32-2.74.51.06,1.14.1,2.06.15,2.97h0c-.09,2.68-.18,5.36-.27,8.04-.85.16-1.7.33-2.59.5v2.94c-.1,2.57-.2,5.14-.31,7.71h205.76c.07-2.86.13-5.72.2-8.58.84-.4,2.11.36,2.6-.98Z" style="fill:#d7bca7; stroke-width:0px;"/><path d="M270.5,2.09c0-.42.01-.83.02-1.25l-18.45,13.31-1.41,11.01c-.06,1.08-.11,2.15-.17,3.23-.79.08-1.58.16-2.61.26v6.25c0,.7-.01,1.41-.02,2.11-.09.82-.17,1.63-.26,2.5-.88.33-1.71.65-2.48.94v2.33c-.04,1.2-.08,2.41-.12,3.61,0,.67,0,1.34,0,2.01-.09.91-.18,1.83-.27,2.76-.82.3-1.54.56-2.27.83-.04.83-.07,1.52-.1,2.21-.05.75-.11,1.49-.16,2.24,0,.48,0,.96,0,1.45,0,.71,0,1.42,0,2.13-.11.91-.22,1.83-.34,2.74-.01.92-.03,1.85-.04,2.77h0c-.87.1-1.73.19-2.6.29.02,1.19.04,2.38.06,3.56.22.07.45.15.67.23-.22-.08-.45-.15-.67-.23,0,.65,0,1.3,0,1.95-.09.97-.19,1.93-.28,2.9,0,.92-.02,1.83-.03,2.75-.89.1-1.77.19-2.66.29l.17,3.75c0,.63,0,1.26-.01,1.89-.13,1.83-.25,3.67-.38,5.5-.78.06-1.56.12-2.47.19v3.92c0,.61,0,1.22,0,1.83l-.31,5.55v.04c-.79.06-1.59.12-2.55.19v5.56H18.57L.24,119.36c.05.08.1.16.15.23h241.6c.03-1.72.07-3.43.1-5.15.88-.32,1.76-.65,2.64-.97.13-3.6.26-7.19.4-10.79.98-.28,1.72-.49,2.5-.72.03-.6.06-1.06.08-1.52l-.06-.96c.08-2.7.17-5.4.25-8.1.87-.16,1.74-.32,2.74-.51-.06-1.14-.1-2.06-.15-2.97-.27-.22-.54-.45-.8-.67.27.23.53.45.8.67.09-2.68.18-5.36.27-8.04.85-.16,1.7-.33,2.59-.5v-2.94l.32-8.16c.77-.12,1.54-.23,2.39-.36.06-1.11.1-2.03.15-2.95.1-2.7.19-5.39.29-8.09.75-.18,1.5-.36,2.28-.55.11-1.06.19-1.95.28-2.85h0c.08-3.5.16-7.01.25-10.51.84-.4,2.11.36,2.6-.98h0c.14-3.59.29-7.17.43-10.73.99-.33,1.72-.57,2.47-.83.03-.59.05-1.05.07-1.51-.02-.31-.04-.63-.06-.94.09-2.68.18-5.36.26-8.05.88-.15,1.75-.31,2.78-.49-.08-1.17-.14-2.09-.2-3,.1-2.69.19-5.37.29-8.15.93-.32,1.75-.61,2.52-.88.03-.56.05-.91.08-1.26.01-.45.03-.9.04-1.34-.03-.9-.06-1.8-.1-2.7Z" style="fill:#f91cea; stroke-width:0px;"/><path d="M54.88,85.3l-8.64.1,10.85-51.07c9.12,0,18.24-.1,27.36-.1l-1.34,6.62h6.72l-4.03,19.01h-4.8l-1.73,8.16-20.74.29-3.65,16.99ZM77.15,59.66l3.55-16.8h-16.8l-3.55,16.8h16.8ZM110.36,34.32l-9.02,42.43h25.44l-1.82,8.64-34.08-.1,10.85-50.98h8.64ZM151.47,34.22h20.64l-1.34,6.53h6.53l-9.5,44.54h-8.64l3.65-16.9h-16.8l-3.65,16.9h-8.64l9.5-44.54h6.91l1.34-6.53ZM164.63,59.76l3.55-16.9h-16.8l-3.55,16.9h16.8ZM200.78,85.3h-8.64l5.47-25.54h-6.24l1.34-6.53h-6.53l4.03-19.01h8.64l-3.65,17.18h5.86l-1.25,6.05h5.18l1.25-6.05h5.95l3.65-17.18h8.54l-4.03,19.01h-6.53l-1.34,6.53h-6.24l-5.47,25.54Z" style="fill:#000; stroke-width:0px;"/><path d="M270.23.26H28.64c-.03,1.72-.07,3.43-.1,5.15-.88.32-1.76.65-2.64.97-.13,3.6-.26,7.19-.4,10.79-.98.28-1.72.49-2.5.72-.03.6-.06,1.06-.08,1.52l.06.96c-.08,2.7-.17,5.4-.25,8.1-.87.16-1.74.32-2.74.51.06,1.14.1,2.06.15,2.97.27.22.54.45.8.67-.27-.23-.53-.45-.8-.67-.09,2.68-.18,5.36-.27,8.04-.85.16-1.7.33-2.59.5v2.94l-.32,8.16c-.77.12-1.54.23-2.39.36-.06,1.11-.1,2.03-.15,2.95l-.29,8.09c-.75.18-1.5.36-2.28.55-.11,1.06-.19,1.95-.28,2.85h0c-.08,3.5-.16,7.01-.25,10.51-.84.4-2.11-.36-2.6.98h0c-.14,3.59-.29,7.17-.43,10.73-.99.33-1.72.57-2.47.83-.03.59-.05,1.05-.07,1.51.02.31.04.63.06.94-.09,2.68-.18,5.36-.26,8.05-.88.15-1.75.31-2.78.49.08,1.17.14,2.09.2,3-.1,2.69-.19,5.37-.29,8.15-.93.32-1.75.61-2.52.88-.03.56-.05.91-.08,1.26-.01.45-.03.9-.04,1.34.03.9.06,1.8.1,2.7,0,.47-.01.95-.02,1.42.04.08.09.13.13.19l18.32-13.67,1.41-11.01c.06-1.08.11-2.15.17-3.23.79-.08,1.58-.16,2.61-.26v-6.25c0-.7.01-1.41.02-2.11.09-.82.17-1.63.26-2.5.88-.33,1.71-.65,2.48-.94v-2.33c.04-1.2.08-2.41.12-3.61,0-.67,0-1.34,0-2.01.09-.91.18-1.83.27-2.76.82-.3,1.54-.56,2.27-.83.04-.83.07-1.52.1-2.21.05-.75.11-1.49.16-2.24,0-.48,0-.96,0-1.45,0-.71,0-1.42,0-2.13.11-.91.22-1.83.34-2.74.01-.92.03-1.85.04-2.77h0c.87-.1,1.73-.19,2.6-.29-.02-1.19-.04-2.38-.06-3.56-.22-.07-.45-.15-.67-.23.22.08.45.15.67.23,0-.65,0-1.3,0-1.95.09-.97.19-1.93.28-2.9,0-.92.02-1.83.03-2.75.89-.1,1.77-.19,2.66-.29l-.17-3.75c0-.63,0-1.26.01-1.89.13-1.83.25-3.67.38-5.5.78-.06,1.56-.12,2.47-.19v-3.92c0-.61,0-1.22,0-1.83l.31-5.55v-.04c.79-.06,1.59-.12,2.55-.19v-5.56h212.19l18.45-13.31v-.17c-.09-.16-.18-.3-.28-.42Z" style="fill:#05b805; stroke-width:0px;"/></g></svg>