<svg width="16" height="29" viewBox="0 0 16 29" fill="none" xmlns="http://www.w3.org/2000/svg">
  <path d="M6.3642 22.2729H9.5459V19.0912H6.3642V22.2729Z" fill="#FF8400"/>
  <path d="M6.3642 19.0908H9.5459V15.9091H6.3642V19.0908Z" fill="#FF8400"/>
  <path d="M3.18231 19.0908H6.36401V15.9091H3.18231L3.18231 19.0908Z" fill="#FF8400"/>
  <path d="M-6.27041e-05 15.9087H3.18164L3.18164 12.727H-6.27041e-05L-6.27041e-05 15.9087Z" fill="#FF8400"/>
  <path d="M3.18231 15.9087H6.36401V12.727H3.18231L3.18231 15.9087Z" fill="#FF8400"/>
  <path d="M3.18231 12.7275H6.36401V9.54583H3.18231L3.18231 12.7275Z" fill="#FF8400"/>
  <path d="M6.3642 15.9087H9.5459V12.727H6.3642V15.9087Z" fill="#FF8400"/>
  <path d="M6.3642 12.7275H9.5459V9.54583H6.3642V12.7275Z" fill="#FF8400"/>
  <path d="M6.3642 9.54639H9.5459V6.36468H6.3642V9.54639Z" fill="#FF8400"/>
  <path d="M9.54584 22.2729H12.7275V19.0912H9.54584V22.2729Z" fill="#FF8400"/>
  <path d="M9.54584 25.4551H12.7275V22.2734H9.54584V25.4551Z" fill="#FF8400"/>
  <path d="M9.54584 19.0908H12.7275V15.9091H9.54584V19.0908Z" fill="#FF8400"/>
  <path d="M9.54584 15.9087H12.7275V12.727H9.54584V15.9087Z" fill="#FF8400"/>
  <path d="M9.54584 12.7275H12.7275V9.54583H9.54584V12.7275Z" fill="#FF8400"/>
  <path d="M9.54584 9.54639H12.7275V6.36468H9.54584V9.54639Z" fill="#FF8400"/>
  <path d="M9.54584 6.36377H12.7275V3.18207L9.54584 3.18207V6.36377Z" fill="#FF8400"/>
  <path d="M12.7275 6.36377H15.9092V3.18207L12.7275 3.18207V6.36377Z" fill="#FF8400"/>
  <path d="M12.7275 3.18164L15.9092 3.18164V-6.38962e-05L12.7275 -6.38962e-05V3.18164Z" fill="#FF8400"/>
  <path d="M12.7275 22.2729H15.9092V19.0912H12.7275V22.2729Z" fill="#FF8400"/>
  <path d="M12.7275 25.4551H15.9092V22.2734H12.7275V25.4551Z" fill="#FF8400"/>
  <path d="M12.7275 28.6362H15.9092V25.4545H12.7275V28.6362Z" fill="#FF8400"/>
  <path d="M12.7275 19.0908H15.9092V15.9091H12.7275V19.0908Z" fill="#FF8400"/>
  <path d="M12.7275 15.9087H15.9092V12.727H12.7275V15.9087Z" fill="#FF8400"/>
  <path d="M12.7275 12.7275H15.9092V9.54583H12.7275V12.7275Z" fill="#FF8400"/>
  <path d="M12.7275 9.54639H15.9092V6.36468H12.7275V9.54639Z" fill="#FF8400"/>
</svg>
