<svg width="100%" height="100%" viewBox="0 0 1651 187" fill="none" xmlns="http://www.w3.org/2000/svg">
<g filter="url(#filter0_d_1912_486)">
<mask id="path-1-outside-1_1912_486" maskUnits="userSpaceOnUse" x="0.190918" y="-0.680176" width="1637" height="174" fill="black">
<rect fill="white" x="0.190918" y="-0.680176" width="1637" height="174" />
<path d="M62.2309 7.31982L147.431 7.55982L141.911 34.4398H63.6709L58.3909 60.1198H116.951L112.871 79.5598H132.551L118.391 145.56H98.4709L94.3909 165.24H9.19092L14.7109 138.6H93.1909L104.231 86.7598L45.4309 86.5198L49.2709 67.5598H29.8309L38.4709 27.2398H57.9109L62.2309 7.31982Z"/>
<path d="M264.999 7.55982L259.239 34.4398H220.359L192.519 165.48H165.879L193.719 34.4398H155.079L160.599 7.55982C195.879 7.55982 229.959 7.55982 264.999 7.55982Z"/>
<path d="M298.811 7.31982H362.411L358.331 27.4798H378.491L349.211 165H322.571L333.851 112.92H282.011L270.731 165H244.091L273.371 27.4798H294.731L298.811 7.31982ZM339.371 86.2798L350.411 33.9598H298.571L287.531 86.2798H339.371Z"/>
<path d="M478.539 106.44H498.699L486.219 165H459.579L470.859 112.2H450.459L455.739 86.7598H424.299L407.739 165.24L381.099 165L414.459 7.31982H498.939L494.859 27.4798H515.499L507.099 68.5198H486.459C483.339 83.8798 481.899 91.3198 478.539 106.44ZM482.139 60.1198L487.419 34.4398H435.579L430.299 60.1198H482.139Z"/>
<path d="M638.743 7.55982L632.983 34.4398H594.103L566.263 165.48H539.623L567.463 34.4398H528.823L534.343 7.55982C569.623 7.55982 603.703 7.55982 638.743 7.55982Z"/>
<path d="M740.846 7.31982H827.006L815.726 60.5998H789.326L795.086 34.4398H742.766L720.686 138.6H798.206L792.686 165.24H707.246L711.566 146.28H692.846L718.046 27.4798H736.766L740.846 7.31982Z"/>
<path d="M859.614 7.31982H885.774L874.734 60.1198H926.814L938.094 7.31982H964.494L930.894 165H904.494L921.054 86.7598H868.974L852.414 165H826.014L859.614 7.31982Z"/>
<path d="M1015.26 7.31982H1078.86L1074.78 27.4798H1094.94L1065.66 165H1039.02L1050.3 112.92H998.458L987.178 165H960.538L989.818 27.4798H1011.18L1015.26 7.31982ZM1055.82 86.2798L1066.86 33.9598H1015.02L1003.98 86.2798H1055.82Z"/>
<path d="M1214 7.55982L1209.39 34.4398H1170.51L1142.67 165.48H1116.03L1143.87 34.4398H1105.23L1110.75 7.55982C1146.03 7.55982 1178.96 7.55982 1214 7.55982Z"/>
<path d="M1300.32 7.55982L1294.56 34.4398H1255.68L1227.84 165.48H1201.2L1229.04 34.4398H1190.4L1195.92 7.55982C1231.2 7.55982 1265.28 7.55982 1300.32 7.55982Z"/>
<path d="M1330.53 7.31982H1357.17L1323.57 165H1296.93L1330.53 7.31982Z"/>
<path d="M1391.27 7.31982H1417.91L1412.15 34.4398H1433.75L1428.23 60.3598H1445.03L1439.75 85.5598H1453.19L1469.75 7.31982H1496.39L1462.79 165H1436.15L1447.43 112.2H1425.83L1431.11 86.7598H1414.31L1419.83 60.5998H1406.63L1384.31 165H1357.67L1391.27 7.31982Z"/>
<path d="M1595.92 165.24H1510.48L1514.8 144.84H1495.36L1520.08 27.4798H1539.76L1543.84 7.31982H1628.32L1622.56 33.9598H1545.04L1522.72 138.36H1575.04L1586.56 85.0798H1613.2L1595.92 165.24Z"/>
</mask>
<path d="M62.2309 7.31982L147.431 7.55982L141.911 34.4398H63.6709L58.3909 60.1198H116.951L112.871 79.5598H132.551L118.391 145.56H98.4709L94.3909 165.24H9.19092L14.7109 138.6H93.1909L104.231 86.7598L45.4309 86.5198L49.2709 67.5598H29.8309L38.4709 27.2398H57.9109L62.2309 7.31982Z" fill="url(#paint0_linear_1912_486)"/>
<path d="M264.999 7.55982L259.239 34.4398H220.359L192.519 165.48H165.879L193.719 34.4398H155.079L160.599 7.55982C195.879 7.55982 229.959 7.55982 264.999 7.55982Z" fill="url(#paint1_linear_1912_486)"/>
<path d="M298.811 7.31982H362.411L358.331 27.4798H378.491L349.211 165H322.571L333.851 112.92H282.011L270.731 165H244.091L273.371 27.4798H294.731L298.811 7.31982ZM339.371 86.2798L350.411 33.9598H298.571L287.531 86.2798H339.371Z" fill="url(#paint2_linear_1912_486)"/>
<path d="M478.539 106.44H498.699L486.219 165H459.579L470.859 112.2H450.459L455.739 86.7598H424.299L407.739 165.24L381.099 165L414.459 7.31982H498.939L494.859 27.4798H515.499L507.099 68.5198H486.459C483.339 83.8798 481.899 91.3198 478.539 106.44ZM482.139 60.1198L487.419 34.4398H435.579L430.299 60.1198H482.139Z" fill="url(#paint3_linear_1912_486)"/>
<path d="M638.743 7.55982L632.983 34.4398H594.103L566.263 165.48H539.623L567.463 34.4398H528.823L534.343 7.55982C569.623 7.55982 603.703 7.55982 638.743 7.55982Z" fill="url(#paint4_linear_1912_486)"/>
<path d="M740.846 7.31982H827.006L815.726 60.5998H789.326L795.086 34.4398H742.766L720.686 138.6H798.206L792.686 165.24H707.246L711.566 146.28H692.846L718.046 27.4798H736.766L740.846 7.31982Z" fill="url(#paint5_linear_1912_486)"/>
<path d="M859.614 7.31982H885.774L874.734 60.1198H926.814L938.094 7.31982H964.494L930.894 165H904.494L921.054 86.7598H868.974L852.414 165H826.014L859.614 7.31982Z" fill="url(#paint6_linear_1912_486)"/>
<path d="M1015.26 7.31982H1078.86L1074.78 27.4798H1094.94L1065.66 165H1039.02L1050.3 112.92H998.458L987.178 165H960.538L989.818 27.4798H1011.18L1015.26 7.31982ZM1055.82 86.2798L1066.86 33.9598H1015.02L1003.98 86.2798H1055.82Z" fill="url(#paint7_linear_1912_486)"/>
<path d="M1214 7.55982L1209.39 34.4398H1170.51L1142.67 165.48H1116.03L1143.87 34.4398H1105.23L1110.75 7.55982C1146.03 7.55982 1178.96 7.55982 1214 7.55982Z" fill="url(#paint8_linear_1912_486)"/>
<path d="M1300.32 7.55982L1294.56 34.4398H1255.68L1227.84 165.48H1201.2L1229.04 34.4398H1190.4L1195.92 7.55982C1231.2 7.55982 1265.28 7.55982 1300.32 7.55982Z" fill="url(#paint9_linear_1912_486)"/>
<path d="M1330.53 7.31982H1357.17L1323.57 165H1296.93L1330.53 7.31982Z" fill="url(#paint10_linear_1912_486)"/>
<path d="M1391.27 7.31982H1417.91L1412.15 34.4398H1433.75L1428.23 60.3598H1445.03L1439.75 85.5598H1453.19L1469.75 7.31982H1496.39L1462.79 165H1436.15L1447.43 112.2H1425.83L1431.11 86.7598H1414.31L1419.83 60.5998H1406.63L1384.31 165H1357.67L1391.27 7.31982Z" fill="url(#paint11_linear_1912_486)"/>
<path d="M1595.92 165.24H1510.48L1514.8 144.84H1495.36L1520.08 27.4798H1539.76L1543.84 7.31982H1628.32L1622.56 33.9598H1545.04L1522.72 138.36H1575.04L1586.56 85.0798H1613.2L1595.92 165.24Z" fill="url(#paint12_linear_1912_486)"/>
<path d="M62.2309 7.31982L147.431 7.55982L141.911 34.4398H63.6709L58.3909 60.1198H116.951L112.871 79.5598H132.551L118.391 145.56H98.4709L94.3909 165.24H9.19092L14.7109 138.6H93.1909L104.231 86.7598L45.4309 86.5198L49.2709 67.5598H29.8309L38.4709 27.2398H57.9109L62.2309 7.31982Z" stroke="black" stroke-width="14" mask="url(#path-1-outside-1_1912_486)"/>
<path d="M264.999 7.55982L259.239 34.4398H220.359L192.519 165.48H165.879L193.719 34.4398H155.079L160.599 7.55982C195.879 7.55982 229.959 7.55982 264.999 7.55982Z" stroke="black" stroke-width="14" mask="url(#path-1-outside-1_1912_486)"/>
<path d="M298.811 7.31982H362.411L358.331 27.4798H378.491L349.211 165H322.571L333.851 112.92H282.011L270.731 165H244.091L273.371 27.4798H294.731L298.811 7.31982ZM339.371 86.2798L350.411 33.9598H298.571L287.531 86.2798H339.371Z" stroke="black" stroke-width="14" mask="url(#path-1-outside-1_1912_486)"/>
<path d="M478.539 106.44H498.699L486.219 165H459.579L470.859 112.2H450.459L455.739 86.7598H424.299L407.739 165.24L381.099 165L414.459 7.31982H498.939L494.859 27.4798H515.499L507.099 68.5198H486.459C483.339 83.8798 481.899 91.3198 478.539 106.44ZM482.139 60.1198L487.419 34.4398H435.579L430.299 60.1198H482.139Z" stroke="black" stroke-width="14" mask="url(#path-1-outside-1_1912_486)"/>
<path d="M638.743 7.55982L632.983 34.4398H594.103L566.263 165.48H539.623L567.463 34.4398H528.823L534.343 7.55982C569.623 7.55982 603.703 7.55982 638.743 7.55982Z" stroke="black" stroke-width="14" mask="url(#path-1-outside-1_1912_486)"/>
<path d="M740.846 7.31982H827.006L815.726 60.5998H789.326L795.086 34.4398H742.766L720.686 138.6H798.206L792.686 165.24H707.246L711.566 146.28H692.846L718.046 27.4798H736.766L740.846 7.31982Z" stroke="black" stroke-width="14" mask="url(#path-1-outside-1_1912_486)"/>
<path d="M859.614 7.31982H885.774L874.734 60.1198H926.814L938.094 7.31982H964.494L930.894 165H904.494L921.054 86.7598H868.974L852.414 165H826.014L859.614 7.31982Z" stroke="black" stroke-width="14" mask="url(#path-1-outside-1_1912_486)"/>
<path d="M1015.26 7.31982H1078.86L1074.78 27.4798H1094.94L1065.66 165H1039.02L1050.3 112.92H998.458L987.178 165H960.538L989.818 27.4798H1011.18L1015.26 7.31982ZM1055.82 86.2798L1066.86 33.9598H1015.02L1003.98 86.2798H1055.82Z" stroke="black" stroke-width="14" mask="url(#path-1-outside-1_1912_486)"/>
<path d="M1214 7.55982L1209.39 34.4398H1170.51L1142.67 165.48H1116.03L1143.87 34.4398H1105.23L1110.75 7.55982C1146.03 7.55982 1178.96 7.55982 1214 7.55982Z" stroke="black" stroke-width="14" mask="url(#path-1-outside-1_1912_486)"/>
<path d="M1300.32 7.55982L1294.56 34.4398H1255.68L1227.84 165.48H1201.2L1229.04 34.4398H1190.4L1195.92 7.55982C1231.2 7.55982 1265.28 7.55982 1300.32 7.55982Z" stroke="black" stroke-width="14" mask="url(#path-1-outside-1_1912_486)"/>
<path d="M1330.53 7.31982H1357.17L1323.57 165H1296.93L1330.53 7.31982Z" stroke="black" stroke-width="14" mask="url(#path-1-outside-1_1912_486)"/>
<path d="M1391.27 7.31982H1417.91L1412.15 34.4398H1433.75L1428.23 60.3598H1445.03L1439.75 85.5598H1453.19L1469.75 7.31982H1496.39L1462.79 165H1436.15L1447.43 112.2H1425.83L1431.11 86.7598H1414.31L1419.83 60.5998H1406.63L1384.31 165H1357.67L1391.27 7.31982Z" stroke="black" stroke-width="14" mask="url(#path-1-outside-1_1912_486)"/>
<path d="M1595.92 165.24H1510.48L1514.8 144.84H1495.36L1520.08 27.4798H1539.76L1543.84 7.31982H1628.32L1622.56 33.9598H1545.04L1522.72 138.36H1575.04L1586.56 85.0798H1613.2L1595.92 165.24Z" stroke="black" stroke-width="14" mask="url(#path-1-outside-1_1912_486)"/>
</g>
<defs>
<filter id="filter0_d_1912_486" x="0.591797" y="0.303711" width="1650.35" height="186.128" filterUnits="userSpaceOnUse" color-interpolation-filters="sRGB">
<feFlood flood-opacity="0" result="BackgroundImageFix"/>
<feColorMatrix in="SourceAlpha" type="matrix" values="0 0 0 0 0 0 0 0 0 0 0 0 0 0 0 0 0 0 127 0" result="hardAlpha"/>
<feOffset dx="13.9515" dy="13.9515"/>
<feComposite in2="hardAlpha" operator="out"/>
<feColorMatrix type="matrix" values="0 0 0 0 0 0 0 0 0 0 0 0 0 0 0 0 0 0 1 0"/>
<feBlend mode="normal" in2="BackgroundImageFix" result="effect1_dropShadow_1912_486"/>
<feBlend mode="normal" in="SourceGraphic" in2="effect1_dropShadow_1912_486" result="shape"/>
</filter>
<linearGradient id="paint0_linear_1912_486" x1="812.019" y1="-82" x2="812.019" y2="254.97" gradientUnits="userSpaceOnUse">
<stop stop-color="#F9F1EB"/>
<stop offset="0.458233" stop-color="#F9F1EB"/>
<stop offset="0.458333" stop-color="#FF7A00"/>
<stop offset="0.671875" stop-color="#FF7A00"/>
<stop offset="1" stop-color="#FF7A00"/>
</linearGradient>
<linearGradient id="paint1_linear_1912_486" x1="812.019" y1="-82" x2="812.019" y2="254.97" gradientUnits="userSpaceOnUse">
<stop stop-color="#F9F1EB"/>
<stop offset="0.458233" stop-color="#F9F1EB"/>
<stop offset="0.458333" stop-color="#FF7A00"/>
<stop offset="0.671875" stop-color="#FF7A00"/>
<stop offset="1" stop-color="#FF7A00"/>
</linearGradient>
<linearGradient id="paint2_linear_1912_486" x1="812.019" y1="-82" x2="812.019" y2="254.97" gradientUnits="userSpaceOnUse">
<stop stop-color="#F9F1EB"/>
<stop offset="0.458233" stop-color="#F9F1EB"/>
<stop offset="0.458333" stop-color="#FF7A00"/>
<stop offset="0.671875" stop-color="#FF7A00"/>
<stop offset="1" stop-color="#FF7A00"/>
</linearGradient>
<linearGradient id="paint3_linear_1912_486" x1="812.019" y1="-82" x2="812.019" y2="254.97" gradientUnits="userSpaceOnUse">
<stop stop-color="#F9F1EB"/>
<stop offset="0.458233" stop-color="#F9F1EB"/>
<stop offset="0.458333" stop-color="#FF7A00"/>
<stop offset="0.671875" stop-color="#FF7A00"/>
<stop offset="1" stop-color="#FF7A00"/>
</linearGradient>
<linearGradient id="paint4_linear_1912_486" x1="812.019" y1="-82" x2="812.019" y2="254.97" gradientUnits="userSpaceOnUse">
<stop stop-color="#F9F1EB"/>
<stop offset="0.458233" stop-color="#F9F1EB"/>
<stop offset="0.458333" stop-color="#FF7A00"/>
<stop offset="0.671875" stop-color="#FF7A00"/>
<stop offset="1" stop-color="#FF7A00"/>
</linearGradient>
<linearGradient id="paint5_linear_1912_486" x1="812.019" y1="-82" x2="812.019" y2="254.97" gradientUnits="userSpaceOnUse">
<stop stop-color="#F9F1EB"/>
<stop offset="0.458233" stop-color="#F9F1EB"/>
<stop offset="0.458333" stop-color="#FF7A00"/>
<stop offset="0.671875" stop-color="#FF7A00"/>
<stop offset="1" stop-color="#FF7A00"/>
</linearGradient>
<linearGradient id="paint6_linear_1912_486" x1="812.019" y1="-82" x2="812.019" y2="254.97" gradientUnits="userSpaceOnUse">
<stop stop-color="#F9F1EB"/>
<stop offset="0.458233" stop-color="#F9F1EB"/>
<stop offset="0.458333" stop-color="#FF7A00"/>
<stop offset="0.671875" stop-color="#FF7A00"/>
<stop offset="1" stop-color="#FF7A00"/>
</linearGradient>
<linearGradient id="paint7_linear_1912_486" x1="812.019" y1="-82" x2="812.019" y2="254.97" gradientUnits="userSpaceOnUse">
<stop stop-color="#F9F1EB"/>
<stop offset="0.458233" stop-color="#F9F1EB"/>
<stop offset="0.458333" stop-color="#FF7A00"/>
<stop offset="0.671875" stop-color="#FF7A00"/>
<stop offset="1" stop-color="#FF7A00"/>
</linearGradient>
<linearGradient id="paint8_linear_1912_486" x1="812.019" y1="-82" x2="812.019" y2="254.97" gradientUnits="userSpaceOnUse">
<stop stop-color="#F9F1EB"/>
<stop offset="0.458233" stop-color="#F9F1EB"/>
<stop offset="0.458333" stop-color="#FF7A00"/>
<stop offset="0.671875" stop-color="#FF7A00"/>
<stop offset="1" stop-color="#FF7A00"/>
</linearGradient>
<linearGradient id="paint9_linear_1912_486" x1="812.019" y1="-82" x2="812.019" y2="254.97" gradientUnits="userSpaceOnUse">
<stop stop-color="#F9F1EB"/>
<stop offset="0.458233" stop-color="#F9F1EB"/>
<stop offset="0.458333" stop-color="#FF7A00"/>
<stop offset="0.671875" stop-color="#FF7A00"/>
<stop offset="1" stop-color="#FF7A00"/>
</linearGradient>
<linearGradient id="paint10_linear_1912_486" x1="812.019" y1="-82" x2="812.019" y2="254.97" gradientUnits="userSpaceOnUse">
<stop stop-color="#F9F1EB"/>
<stop offset="0.458233" stop-color="#F9F1EB"/>
<stop offset="0.458333" stop-color="#FF7A00"/>
<stop offset="0.671875" stop-color="#FF7A00"/>
<stop offset="1" stop-color="#FF7A00"/>
</linearGradient>
<linearGradient id="paint11_linear_1912_486" x1="812.019" y1="-82" x2="812.019" y2="254.97" gradientUnits="userSpaceOnUse">
<stop stop-color="#F9F1EB"/>
<stop offset="0.458233" stop-color="#F9F1EB"/>
<stop offset="0.458333" stop-color="#FF7A00"/>
<stop offset="0.671875" stop-color="#FF7A00"/>
<stop offset="1" stop-color="#FF7A00"/>
</linearGradient>
<linearGradient id="paint12_linear_1912_486" x1="812.019" y1="-82" x2="812.019" y2="254.97" gradientUnits="userSpaceOnUse">
<stop stop-color="#F9F1EB"/>
<stop offset="0.458233" stop-color="#F9F1EB"/>
<stop offset="0.458333" stop-color="#FF7A00"/>
<stop offset="0.671875" stop-color="#FF7A00"/>
<stop offset="1" stop-color="#FF7A00"/>
</linearGradient>
</defs>
</svg>
