<?xml version="1.0" encoding="UTF-8"?><svg id="Layer_1" xmlns="http://www.w3.org/2000/svg" xmlns:xlink="http://www.w3.org/1999/xlink" viewBox="0 0 1650.2 184.28"><defs><linearGradient id="linear-gradient" x1="773.13" y1="244.16" x2="773.13" y2="-92.81" gradientTransform="translate(0 173.39) scale(1 -1)" gradientUnits="userSpaceOnUse"><stop offset="0" stop-color="#010101"/><stop offset=".46" stop-color="#010101"/><stop offset=".46" stop-color="#070007"/><stop offset=".67" stop-color="#070007"/><stop offset="1" stop-color="#070007"/></linearGradient><linearGradient id="linear-gradient-2" x1="908.46" x2="908.46" xlink:href="#linear-gradient"/><linearGradient id="linear-gradient-3" x1="1040.95" x2="1040.95" xlink:href="#linear-gradient"/><linearGradient id="linear-gradient-4" x1="1172.82" x2="1172.82" xlink:href="#linear-gradient"/><linearGradient id="linear-gradient-5" x1="1258.57" x2="1258.57" xlink:href="#linear-gradient"/><linearGradient id="linear-gradient-6" x1="1340.26" x2="1340.26" xlink:href="#linear-gradient"/><linearGradient id="linear-gradient-7" x1="1440.24" x2="1440.24" xlink:href="#linear-gradient"/><linearGradient id="linear-gradient-8" x1="1575.05" x2="1575.05" xlink:href="#linear-gradient"/><mask id="mask" x="13.4" y="10.56" width="1637" height="174" maskUnits="userSpaceOnUse"><g id="path-1-outside-1_1912_486"><rect x="13.4" y="10.56" width="1637" height="174" style="fill:#fff; stroke-width:0px;"/><path d="M75.44,18.56l85.2.24-5.52,26.88h-78.24l-5.28,25.68h58.56l-4.08,19.44h19.68l-14.16,66h-19.92l-4.08,19.68H22.4l5.52-26.64h78.48l11.04-51.84-58.8-.24,3.84-18.96h-19.44l8.64-40.32h19.44l4.32-19.92Z" style="stroke-width:0px;"/><path d="M278.21,18.8l-5.76,26.88h-38.88l-27.84,131.04h-26.64l27.84-131.04h-38.64l5.52-26.88h104.4Z" style="stroke-width:0px;"/><path d="M312.02,18.56h63.6l-4.08,20.16h20.16l-29.28,137.52h-26.64l11.28-52.08h-51.84l-11.28,52.08h-26.64l29.28-137.52h21.36l4.08-20.16ZM352.58,97.52l11.04-52.32h-51.84l-11.04,52.32h51.84Z" style="stroke-width:0px;"/><path d="M491.75,117.68h20.16l-12.48,58.56h-26.64l11.28-52.8h-20.4l5.28-25.44h-31.44l-16.56,78.48-26.64-.24,33.36-157.68h84.48l-4.08,20.16h20.64l-8.4,41.04h-20.64c-3.12,15.36-4.56,22.8-7.92,37.92ZM495.35,71.36l5.28-25.68h-51.84l-5.28,25.68h51.84Z" style="stroke-width:0px;"/><path d="M651.95,18.8l-5.76,26.88h-38.88l-27.84,131.04h-26.64l27.84-131.04h-38.64l5.52-26.88h104.4Z" style="stroke-width:0px;"/><path d="M754.05,18.56h86.16l-11.28,53.28h-26.4l5.76-26.16h-52.32l-22.08,104.16h77.52l-5.52,26.64h-85.44l4.32-18.96h-18.72l25.2-118.8h18.72l4.08-20.16Z" style="stroke-width:0px;"/><path d="M872.82,18.56h26.16l-11.04,52.8h52.08l11.28-52.8h26.4l-33.6,157.68h-26.4l16.56-78.24h-52.08l-16.56,78.24h-26.4l33.6-157.68Z" style="stroke-width:0px;"/><path d="M1028.47,18.56h63.6l-4.08,20.16h20.16l-29.28,137.52h-26.64l11.28-52.08h-51.84l-11.28,52.08h-26.64l29.28-137.52h21.36l4.08-20.16ZM1069.03,97.52l11.04-52.32h-51.84l-11.04,52.32h51.84Z" style="stroke-width:0px;"/><path d="M1227.21,18.8l-4.61,26.88h-38.88l-27.84,131.04h-26.64l27.84-131.04h-38.64l5.52-26.88h103.25Z" style="stroke-width:0px;"/><path d="M1313.53,18.8l-5.76,26.88h-38.88l-27.84,131.04h-26.64l27.84-131.04h-38.64l5.52-26.88h104.4Z" style="stroke-width:0px;"/><path d="M1343.74,18.56h26.64l-33.6,157.68h-26.64l33.6-157.68Z" style="stroke-width:0px;"/><path d="M1404.48,18.56h26.64l-5.76,27.12h21.6l-5.52,25.92h16.8l-5.28,25.2h13.44l16.56-78.24h26.64l-33.6,157.68h-26.64l11.28-52.8h-21.6l5.28-25.44h-16.8l5.52-26.16h-13.2l-22.32,104.4h-26.64l33.6-157.68Z" style="stroke-width:0px;"/><path d="M1609.13,176.48h-85.44l4.32-20.4h-19.44l24.72-117.36h19.68l4.08-20.16h84.48l-5.76,26.64h-77.52l-22.32,104.4h52.32l11.52-53.28h26.64l-17.28,80.16Z" style="stroke-width:0px;"/></g></mask><mask id="mask-1" x="13.4" y="10.56" width="1637" height="174" maskUnits="userSpaceOnUse"><g id="path-1-outside-1_1912_486-2"><rect x="13.4" y="10.56" width="1637" height="174" style="fill:#fff; stroke-width:0px;"/><path d="M75.44,18.56l85.2.24-5.52,26.88h-78.24l-5.28,25.68h58.56l-4.08,19.44h19.68l-14.16,66h-19.92l-4.08,19.68H22.4l5.52-26.64h78.48l11.04-51.84-58.8-.24,3.84-18.96h-19.44l8.64-40.32h19.44l4.32-19.92Z" style="stroke-width:0px;"/><path d="M278.21,18.8l-5.76,26.88h-38.88l-27.84,131.04h-26.64l27.84-131.04h-38.64l5.52-26.88h104.4Z" style="stroke-width:0px;"/><path d="M312.02,18.56h63.6l-4.08,20.16h20.16l-29.28,137.52h-26.64l11.28-52.08h-51.84l-11.28,52.08h-26.64l29.28-137.52h21.36l4.08-20.16ZM352.58,97.52l11.04-52.32h-51.84l-11.04,52.32h51.84Z" style="stroke-width:0px;"/><path d="M491.75,117.68h20.16l-12.48,58.56h-26.64l11.28-52.8h-20.4l5.28-25.44h-31.44l-16.56,78.48-26.64-.24,33.36-157.68h84.48l-4.08,20.16h20.64l-8.4,41.04h-20.64c-3.12,15.36-4.56,22.8-7.92,37.92ZM495.35,71.36l5.28-25.68h-51.84l-5.28,25.68h51.84Z" style="stroke-width:0px;"/><path d="M651.95,18.8l-5.76,26.88h-38.88l-27.84,131.04h-26.64l27.84-131.04h-38.64l5.52-26.88h104.4Z" style="stroke-width:0px;"/><path d="M754.05,18.56h86.16l-11.28,53.28h-26.4l5.76-26.16h-52.32l-22.08,104.16h77.52l-5.52,26.64h-85.44l4.32-18.96h-18.72l25.2-118.8h18.72l4.08-20.16Z" style="stroke-width:0px;"/><path d="M872.82,18.56h26.16l-11.04,52.8h52.08l11.28-52.8h26.4l-33.6,157.68h-26.4l16.56-78.24h-52.08l-16.56,78.24h-26.4l33.6-157.68Z" style="stroke-width:0px;"/><path d="M1028.47,18.56h63.6l-4.08,20.16h20.16l-29.28,137.52h-26.64l11.28-52.08h-51.84l-11.28,52.08h-26.64l29.28-137.52h21.36l4.08-20.16ZM1069.03,97.52l11.04-52.32h-51.84l-11.04,52.32h51.84Z" style="stroke-width:0px;"/><path d="M1227.21,18.8l-4.61,26.88h-38.88l-27.84,131.04h-26.64l27.84-131.04h-38.64l5.52-26.88h103.25Z" style="stroke-width:0px;"/><path d="M1313.53,18.8l-5.76,26.88h-38.88l-27.84,131.04h-26.64l27.84-131.04h-38.64l5.52-26.88h104.4Z" style="stroke-width:0px;"/><path d="M1343.74,18.56h26.64l-33.6,157.68h-26.64l33.6-157.68Z" style="stroke-width:0px;"/><path d="M1404.48,18.56h26.64l-5.76,27.12h21.6l-5.52,25.92h16.8l-5.28,25.2h13.44l16.56-78.24h26.64l-33.6,157.68h-26.64l11.28-52.8h-21.6l5.28-25.44h-16.8l5.52-26.16h-13.2l-22.32,104.4h-26.64l33.6-157.68Z" style="stroke-width:0px;"/><path d="M1609.13,176.48h-85.44l4.32-20.4h-19.44l24.72-117.36h19.68l4.08-20.16h84.48l-5.76,26.64h-77.52l-22.32,104.4h52.32l11.52-53.28h26.64l-17.28,80.16Z" style="stroke-width:0px;"/></g></mask><mask id="mask-2" x="13.4" y="10.56" width="1637" height="174" maskUnits="userSpaceOnUse"><g id="path-1-outside-1_1912_486-3"><rect x="13.4" y="10.56" width="1637" height="174" style="fill:#fff; stroke-width:0px;"/><path d="M75.44,18.56l85.2.24-5.52,26.88h-78.24l-5.28,25.68h58.56l-4.08,19.44h19.68l-14.16,66h-19.92l-4.08,19.68H22.4l5.52-26.64h78.48l11.04-51.84-58.8-.24,3.84-18.96h-19.44l8.64-40.32h19.44l4.32-19.92Z" style="stroke-width:0px;"/><path d="M278.21,18.8l-5.76,26.88h-38.88l-27.84,131.04h-26.64l27.84-131.04h-38.64l5.52-26.88h104.4Z" style="stroke-width:0px;"/><path d="M312.02,18.56h63.6l-4.08,20.16h20.16l-29.28,137.52h-26.64l11.28-52.08h-51.84l-11.28,52.08h-26.64l29.28-137.52h21.36l4.08-20.16ZM352.58,97.52l11.04-52.32h-51.84l-11.04,52.32h51.84Z" style="stroke-width:0px;"/><path d="M491.75,117.68h20.16l-12.48,58.56h-26.64l11.28-52.8h-20.4l5.28-25.44h-31.44l-16.56,78.48-26.64-.24,33.36-157.68h84.48l-4.08,20.16h20.64l-8.4,41.04h-20.64c-3.12,15.36-4.56,22.8-7.92,37.92ZM495.35,71.36l5.28-25.68h-51.84l-5.28,25.68h51.84Z" style="stroke-width:0px;"/><path d="M651.95,18.8l-5.76,26.88h-38.88l-27.84,131.04h-26.64l27.84-131.04h-38.64l5.52-26.88h104.4Z" style="stroke-width:0px;"/><path d="M754.05,18.56h86.16l-11.28,53.28h-26.4l5.76-26.16h-52.32l-22.08,104.16h77.52l-5.52,26.64h-85.44l4.32-18.96h-18.72l25.2-118.8h18.72l4.08-20.16Z" style="stroke-width:0px;"/><path d="M872.82,18.56h26.16l-11.04,52.8h52.08l11.28-52.8h26.4l-33.6,157.68h-26.4l16.56-78.24h-52.08l-16.56,78.24h-26.4l33.6-157.68Z" style="stroke-width:0px;"/><path d="M1028.47,18.56h63.6l-4.08,20.16h20.16l-29.28,137.52h-26.64l11.28-52.08h-51.84l-11.28,52.08h-26.64l29.28-137.52h21.36l4.08-20.16ZM1069.03,97.52l11.04-52.32h-51.84l-11.04,52.32h51.84Z" style="stroke-width:0px;"/><path d="M1227.21,18.8l-4.61,26.88h-38.88l-27.84,131.04h-26.64l27.84-131.04h-38.64l5.52-26.88h103.25Z" style="stroke-width:0px;"/><path d="M1313.53,18.8l-5.76,26.88h-38.88l-27.84,131.04h-26.64l27.84-131.04h-38.64l5.52-26.88h104.4Z" style="stroke-width:0px;"/><path d="M1343.74,18.56h26.64l-33.6,157.68h-26.64l33.6-157.68Z" style="stroke-width:0px;"/><path d="M1404.48,18.56h26.64l-5.76,27.12h21.6l-5.52,25.92h16.8l-5.28,25.2h13.44l16.56-78.24h26.64l-33.6,157.68h-26.64l11.28-52.8h-21.6l5.28-25.44h-16.8l5.52-26.16h-13.2l-22.32,104.4h-26.64l33.6-157.68Z" style="stroke-width:0px;"/><path d="M1609.13,176.48h-85.44l4.32-20.4h-19.44l24.72-117.36h19.68l4.08-20.16h84.48l-5.76,26.64h-77.52l-22.32,104.4h52.32l11.52-53.28h26.64l-17.28,80.16Z" style="stroke-width:0px;"/></g></mask><mask id="mask-3" x="13.4" y="10.56" width="1637" height="174" maskUnits="userSpaceOnUse"><g id="path-1-outside-1_1912_486-4"><rect x="13.4" y="10.56" width="1637" height="174" style="fill:#ffffff; stroke-width:0px;"/><path d="M75.44,18.56l85.2.24-5.52,26.88h-78.24l-5.28,25.68h58.56l-4.08,19.44h19.68l-14.16,66h-19.92l-4.08,19.68H22.4l5.52-26.64h78.48l11.04-51.84-58.8-.24,3.84-18.96h-19.44l8.64-40.32h19.44l4.32-19.92Z" style="stroke-width:0px;"/><path d="M278.21,18.8l-5.76,26.88h-38.88l-27.84,131.04h-26.64l27.84-131.04h-38.64l5.52-26.88h104.4Z" style="stroke-width:0px;"/><path d="M312.02,18.56h63.6l-4.08,20.16h20.16l-29.28,137.52h-26.64l11.28-52.08h-51.84l-11.28,52.08h-26.64l29.28-137.52h21.36l4.08-20.16ZM352.58,97.52l11.04-52.32h-51.84l-11.04,52.32h51.84Z" style="stroke-width:0px;"/><path d="M491.75,117.68h20.16l-12.48,58.56h-26.64l11.28-52.8h-20.4l5.28-25.44h-31.44l-16.56,78.48-26.64-.24,33.36-157.68h84.48l-4.08,20.16h20.64l-8.4,41.04h-20.64c-3.12,15.36-4.56,22.8-7.92,37.92ZM495.35,71.36l5.28-25.68h-51.84l-5.28,25.68h51.84Z" style="stroke-width:0px;"/><path d="M651.95,18.8l-5.76,26.88h-38.88l-27.84,131.04h-26.64l27.84-131.04h-38.64l5.52-26.88h104.4Z" style="stroke-width:0px;"/><path d="M754.05,18.56h86.16l-11.28,53.28h-26.4l5.76-26.16h-52.32l-22.08,104.16h77.52l-5.52,26.64h-85.44l4.32-18.96h-18.72l25.2-118.8h18.72l4.08-20.16Z" style="stroke-width:0px;"/><path d="M872.82,18.56h26.16l-11.04,52.8h52.08l11.28-52.8h26.4l-33.6,157.68h-26.4l16.56-78.24h-52.08l-16.56,78.24h-26.4l33.6-157.68Z" style="stroke-width:0px;"/><path d="M1028.47,18.56h63.6l-4.08,20.16h20.16l-29.28,137.52h-26.64l11.28-52.08h-51.84l-11.28,52.08h-26.64l29.28-137.52h21.36l4.08-20.16ZM1069.03,97.52l11.04-52.32h-51.84l-11.04,52.32h51.84Z" style="stroke-width:0px;"/><path d="M1227.21,18.8l-4.61,26.88h-38.88l-27.84,131.04h-26.64l27.84-131.04h-38.64l5.52-26.88h103.25Z" style="stroke-width:0px;"/><path d="M1313.53,18.8l-5.76,26.88h-38.88l-27.84,131.04h-26.64l27.84-131.04h-38.64l5.52-26.88h104.4Z" style="stroke-width:0px;"/><path d="M1343.74,18.56h26.64l-33.6,157.68h-26.64l33.6-157.68Z" style="stroke-width:0px;"/><path d="M1404.48,18.56h26.64l-5.76,27.12h21.6l-5.52,25.92h16.8l-5.28,25.2h13.44l16.56-78.24h26.64l-33.6,157.68h-26.64l11.28-52.8h-21.6l5.28-25.44h-16.8l5.52-26.16h-13.2l-22.32,104.4h-26.64l33.6-157.68Z" style="stroke-width:0px;"/><path d="M1609.13,176.48h-85.44l4.32-20.4h-19.44l24.72-117.36h19.68l4.08-20.16h84.48l-5.76,26.64h-77.52l-22.32,104.4h52.32l11.52-53.28h26.64l-17.28,80.16Z" style="stroke-width:0px;"/></g></mask><mask id="mask-4" x="13.4" y="10.56" width="1637" height="174" maskUnits="userSpaceOnUse"><g id="path-1-outside-1_1912_486-5"><rect x="13.4" y="10.56" width="1637" height="174" style="fill:#fff; stroke-width:0px;"/><path d="M75.44,18.56l85.2.24-5.52,26.88h-78.24l-5.28,25.68h58.56l-4.08,19.44h19.68l-14.16,66h-19.92l-4.08,19.68H22.4l5.52-26.64h78.48l11.04-51.84-58.8-.24,3.84-18.96h-19.44l8.64-40.32h19.44l4.32-19.92Z" style="stroke-width:0px;"/><path d="M278.21,18.8l-5.76,26.88h-38.88l-27.84,131.04h-26.64l27.84-131.04h-38.64l5.52-26.88h104.4Z" style="stroke-width:0px;"/><path d="M312.02,18.56h63.6l-4.08,20.16h20.16l-29.28,137.52h-26.64l11.28-52.08h-51.84l-11.28,52.08h-26.64l29.28-137.52h21.36l4.08-20.16ZM352.58,97.52l11.04-52.32h-51.84l-11.04,52.32h51.84Z" style="stroke-width:0px;"/><path d="M491.75,117.68h20.16l-12.48,58.56h-26.64l11.28-52.8h-20.4l5.28-25.44h-31.44l-16.56,78.48-26.64-.24,33.36-157.68h84.48l-4.08,20.16h20.64l-8.4,41.04h-20.64c-3.12,15.36-4.56,22.8-7.92,37.92ZM495.35,71.36l5.28-25.68h-51.84l-5.28,25.68h51.84Z" style="stroke-width:0px;"/><path d="M651.95,18.8l-5.76,26.88h-38.88l-27.84,131.04h-26.64l27.84-131.04h-38.64l5.52-26.88h104.4Z" style="stroke-width:0px;"/><path d="M754.05,18.56h86.16l-11.28,53.28h-26.4l5.76-26.16h-52.32l-22.08,104.16h77.52l-5.52,26.64h-85.44l4.32-18.96h-18.72l25.2-118.8h18.72l4.08-20.16Z" style="stroke-width:0px;"/><path d="M872.82,18.56h26.16l-11.04,52.8h52.08l11.28-52.8h26.4l-33.6,157.68h-26.4l16.56-78.24h-52.08l-16.56,78.24h-26.4l33.6-157.68Z" style="stroke-width:0px;"/><path d="M1028.47,18.56h63.6l-4.08,20.16h20.16l-29.28,137.52h-26.64l11.28-52.08h-51.84l-11.28,52.08h-26.64l29.28-137.52h21.36l4.08-20.16ZM1069.03,97.52l11.04-52.32h-51.84l-11.04,52.32h51.84Z" style="stroke-width:0px;"/><path d="M1227.21,18.8l-4.61,26.88h-38.88l-27.84,131.04h-26.64l27.84-131.04h-38.64l5.52-26.88h103.25Z" style="stroke-width:0px;"/><path d="M1313.53,18.8l-5.76,26.88h-38.88l-27.84,131.04h-26.64l27.84-131.04h-38.64l5.52-26.88h104.4Z" style="stroke-width:0px;"/><path d="M1343.74,18.56h26.64l-33.6,157.68h-26.64l33.6-157.68Z" style="stroke-width:0px;"/><path d="M1404.48,18.56h26.64l-5.76,27.12h21.6l-5.52,25.92h16.8l-5.28,25.2h13.44l16.56-78.24h26.64l-33.6,157.68h-26.64l11.28-52.8h-21.6l5.28-25.44h-16.8l5.52-26.16h-13.2l-22.32,104.4h-26.64l33.6-157.68Z" style="stroke-width:0px;"/><path d="M1609.13,176.48h-85.44l4.32-20.4h-19.44l24.72-117.36h19.68l4.08-20.16h84.48l-5.76,26.64h-77.52l-22.32,104.4h52.32l11.52-53.28h26.64l-17.28,80.16Z" style="stroke-width:0px;"/></g></mask><mask id="mask-5" x="13.4" y="10.56" width="1637" height="174" maskUnits="userSpaceOnUse"><g id="path-1-outside-1_1912_486-6"><rect x="13.4" y="10.56" width="1637" height="174" style="fill:#fff; stroke-width:0px;"/><path d="M75.44,18.56l85.2.24-5.52,26.88h-78.24l-5.28,25.68h58.56l-4.08,19.44h19.68l-14.16,66h-19.92l-4.08,19.68H22.4l5.52-26.64h78.48l11.04-51.84-58.8-.24,3.84-18.96h-19.44l8.64-40.32h19.44l4.32-19.92Z" style="stroke-width:0px;"/><path d="M278.21,18.8l-5.76,26.88h-38.88l-27.84,131.04h-26.64l27.84-131.04h-38.64l5.52-26.88h104.4Z" style="stroke-width:0px;"/><path d="M312.02,18.56h63.6l-4.08,20.16h20.16l-29.28,137.52h-26.64l11.28-52.08h-51.84l-11.28,52.08h-26.64l29.28-137.52h21.36l4.08-20.16ZM352.58,97.52l11.04-52.32h-51.84l-11.04,52.32h51.84Z" style="stroke-width:0px;"/><path d="M491.75,117.68h20.16l-12.48,58.56h-26.64l11.28-52.8h-20.4l5.28-25.44h-31.44l-16.56,78.48-26.64-.24,33.36-157.68h84.48l-4.08,20.16h20.64l-8.4,41.04h-20.64c-3.12,15.36-4.56,22.8-7.92,37.92ZM495.35,71.36l5.28-25.68h-51.84l-5.28,25.68h51.84Z" style="stroke-width:0px;"/><path d="M651.95,18.8l-5.76,26.88h-38.88l-27.84,131.04h-26.64l27.84-131.04h-38.64l5.52-26.88h104.4Z" style="stroke-width:0px;"/><path d="M754.05,18.56h86.16l-11.28,53.28h-26.4l5.76-26.16h-52.32l-22.08,104.16h77.52l-5.52,26.64h-85.44l4.32-18.96h-18.72l25.2-118.8h18.72l4.08-20.16Z" style="stroke-width:0px;"/><path d="M872.82,18.56h26.16l-11.04,52.8h52.08l11.28-52.8h26.4l-33.6,157.68h-26.4l16.56-78.24h-52.08l-16.56,78.24h-26.4l33.6-157.68Z" style="stroke-width:0px;"/><path d="M1028.47,18.56h63.6l-4.08,20.16h20.16l-29.28,137.52h-26.64l11.28-52.08h-51.84l-11.28,52.08h-26.64l29.28-137.52h21.36l4.08-20.16ZM1069.03,97.52l11.04-52.32h-51.84l-11.04,52.32h51.84Z" style="stroke-width:0px;"/><path d="M1227.21,18.8l-4.61,26.88h-38.88l-27.84,131.04h-26.64l27.84-131.04h-38.64l5.52-26.88h103.25Z" style="stroke-width:0px;"/><path d="M1313.53,18.8l-5.76,26.88h-38.88l-27.84,131.04h-26.64l27.84-131.04h-38.64l5.52-26.88h104.4Z" style="stroke-width:0px;"/><path d="M1343.74,18.56h26.64l-33.6,157.68h-26.64l33.6-157.68Z" style="stroke-width:0px;"/><path d="M1404.48,18.56h26.64l-5.76,27.12h21.6l-5.52,25.92h16.8l-5.28,25.2h13.44l16.56-78.24h26.64l-33.6,157.68h-26.64l11.28-52.8h-21.6l5.28-25.44h-16.8l5.52-26.16h-13.2l-22.32,104.4h-26.64l33.6-157.68Z" style="stroke-width:0px;"/><path d="M1609.13,176.48h-85.44l4.32-20.4h-19.44l24.72-117.36h19.68l4.08-20.16h84.48l-5.76,26.64h-77.52l-22.32,104.4h52.32l11.52-53.28h26.64l-17.28,80.16Z" style="stroke-width:0px;"/></g></mask><mask id="mask-6" x="13.4" y="10.56" width="1637" height="174" maskUnits="userSpaceOnUse"><g id="path-1-outside-1_1912_486-7"><rect x="13.4" y="10.56" width="1637" height="174" style="fill:#fff; stroke-width:0px;"/><path d="M75.44,18.56l85.2.24-5.52,26.88h-78.24l-5.28,25.68h58.56l-4.08,19.44h19.68l-14.16,66h-19.92l-4.08,19.68H22.4l5.52-26.64h78.48l11.04-51.84-58.8-.24,3.84-18.96h-19.44l8.64-40.32h19.44l4.32-19.92Z" style="stroke-width:0px;"/><path d="M278.21,18.8l-5.76,26.88h-38.88l-27.84,131.04h-26.64l27.84-131.04h-38.64l5.52-26.88h104.4Z" style="stroke-width:0px;"/><path d="M312.02,18.56h63.6l-4.08,20.16h20.16l-29.28,137.52h-26.64l11.28-52.08h-51.84l-11.28,52.08h-26.64l29.28-137.52h21.36l4.08-20.16ZM352.58,97.52l11.04-52.32h-51.84l-11.04,52.32h51.84Z" style="stroke-width:0px;"/><path d="M491.75,117.68h20.16l-12.48,58.56h-26.64l11.28-52.8h-20.4l5.28-25.44h-31.44l-16.56,78.48-26.64-.24,33.36-157.68h84.48l-4.08,20.16h20.64l-8.4,41.04h-20.64c-3.12,15.36-4.56,22.8-7.92,37.92ZM495.35,71.36l5.28-25.68h-51.84l-5.28,25.68h51.84Z" style="stroke-width:0px;"/><path d="M651.95,18.8l-5.76,26.88h-38.88l-27.84,131.04h-26.64l27.84-131.04h-38.64l5.52-26.88h104.4Z" style="stroke-width:0px;"/><path d="M754.05,18.56h86.16l-11.28,53.28h-26.4l5.76-26.16h-52.32l-22.08,104.16h77.52l-5.52,26.64h-85.44l4.32-18.96h-18.72l25.2-118.8h18.72l4.08-20.16Z" style="stroke-width:0px;"/><path d="M872.82,18.56h26.16l-11.04,52.8h52.08l11.28-52.8h26.4l-33.6,157.68h-26.4l16.56-78.24h-52.08l-16.56,78.24h-26.4l33.6-157.68Z" style="stroke-width:0px;"/><path d="M1028.47,18.56h63.6l-4.08,20.16h20.16l-29.28,137.52h-26.64l11.28-52.08h-51.84l-11.28,52.08h-26.64l29.28-137.52h21.36l4.08-20.16ZM1069.03,97.52l11.04-52.32h-51.84l-11.04,52.32h51.84Z" style="stroke-width:0px;"/><path d="M1227.21,18.8l-4.61,26.88h-38.88l-27.84,131.04h-26.64l27.84-131.04h-38.64l5.52-26.88h103.25Z" style="stroke-width:0px;"/><path d="M1313.53,18.8l-5.76,26.88h-38.88l-27.84,131.04h-26.64l27.84-131.04h-38.64l5.52-26.88h104.4Z" style="stroke-width:0px;"/><path d="M1343.74,18.56h26.64l-33.6,157.68h-26.64l33.6-157.68Z" style="stroke-width:0px;"/><path d="M1404.48,18.56h26.64l-5.76,27.12h21.6l-5.52,25.92h16.8l-5.28,25.2h13.44l16.56-78.24h26.64l-33.6,157.68h-26.64l11.28-52.8h-21.6l5.28-25.44h-16.8l5.52-26.16h-13.2l-22.32,104.4h-26.64l33.6-157.68Z" style="stroke-width:0px;"/><path d="M1609.13,176.48h-85.44l4.32-20.4h-19.44l24.72-117.36h19.68l4.08-20.16h84.48l-5.76,26.64h-77.52l-22.32,104.4h52.32l11.52-53.28h26.64l-17.28,80.16Z" style="stroke-width:0px;"/></g></mask><mask id="mask-7" x="13.4" y="10.56" width="1637" height="174" maskUnits="userSpaceOnUse"><g id="path-1-outside-1_1912_486-8"><rect x="13.4" y="10.56" width="1637" height="174" style="fill:#fff; stroke-width:0px;"/><path d="M75.44,18.56l85.2.24-5.52,26.88h-78.24l-5.28,25.68h58.56l-4.08,19.44h19.68l-14.16,66h-19.92l-4.08,19.68H22.4l5.52-26.64h78.48l11.04-51.84-58.8-.24,3.84-18.96h-19.44l8.64-40.32h19.44l4.32-19.92Z" style="stroke-width:0px;"/><path d="M278.21,18.8l-5.76,26.88h-38.88l-27.84,131.04h-26.64l27.84-131.04h-38.64l5.52-26.88h104.4Z" style="stroke-width:0px;"/><path d="M312.02,18.56h63.6l-4.08,20.16h20.16l-29.28,137.52h-26.64l11.28-52.08h-51.84l-11.28,52.08h-26.64l29.28-137.52h21.36l4.08-20.16ZM352.58,97.52l11.04-52.32h-51.84l-11.04,52.32h51.84Z" style="stroke-width:0px;"/><path d="M491.75,117.68h20.16l-12.48,58.56h-26.64l11.28-52.8h-20.4l5.28-25.44h-31.44l-16.56,78.48-26.64-.24,33.36-157.68h84.48l-4.08,20.16h20.64l-8.4,41.04h-20.64c-3.12,15.36-4.56,22.8-7.92,37.92ZM495.35,71.36l5.28-25.68h-51.84l-5.28,25.68h51.84Z" style="stroke-width:0px;"/><path d="M651.95,18.8l-5.76,26.88h-38.88l-27.84,131.04h-26.64l27.84-131.04h-38.64l5.52-26.88h104.4Z" style="stroke-width:0px;"/><path d="M754.05,18.56h86.16l-11.28,53.28h-26.4l5.76-26.16h-52.32l-22.08,104.16h77.52l-5.52,26.64h-85.44l4.32-18.96h-18.72l25.2-118.8h18.72l4.08-20.16Z" style="stroke-width:0px;"/><path d="M872.82,18.56h26.16l-11.04,52.8h52.08l11.28-52.8h26.4l-33.6,157.68h-26.4l16.56-78.24h-52.08l-16.56,78.24h-26.4l33.6-157.68Z" style="stroke-width:0px;"/><path d="M1028.47,18.56h63.6l-4.08,20.16h20.16l-29.28,137.52h-26.64l11.28-52.08h-51.84l-11.28,52.08h-26.64l29.28-137.52h21.36l4.08-20.16ZM1069.03,97.52l11.04-52.32h-51.84l-11.04,52.32h51.84Z" style="stroke-width:0px;"/><path d="M1227.21,18.8l-4.61,26.88h-38.88l-27.84,131.04h-26.64l27.84-131.04h-38.64l5.52-26.88h103.25Z" style="stroke-width:0px;"/><path d="M1313.53,18.8l-5.76,26.88h-38.88l-27.84,131.04h-26.64l27.84-131.04h-38.64l5.52-26.88h104.4Z" style="stroke-width:0px;"/><path d="M1343.74,18.56h26.64l-33.6,157.68h-26.64l33.6-157.68Z" style="stroke-width:0px;"/><path d="M1404.48,18.56h26.64l-5.76,27.12h21.6l-5.52,25.92h16.8l-5.28,25.2h13.44l16.56-78.24h26.64l-33.6,157.68h-26.64l11.28-52.8h-21.6l5.28-25.44h-16.8l5.52-26.16h-13.2l-22.32,104.4h-26.64l33.6-157.68Z" style="stroke-width:0px;"/><path d="M1609.13,176.48h-85.44l4.32-20.4h-19.44l24.72-117.36h19.68l4.08-20.16h84.48l-5.76,26.64h-77.52l-22.32,104.4h52.32l11.52-53.28h26.64l-17.28,80.16Z" style="stroke-width:0px;"/></g></mask><linearGradient id="linear-gradient-9" x1="91.02" y1="243.59" x2="91.02" y2="-93.38" gradientTransform="translate(0 173.39) scale(1 -1)" gradientUnits="userSpaceOnUse"><stop offset="0" stop-color="#030303"/><stop offset=".46" stop-color="#030303"/><stop offset=".46" stop-color="#070900"/><stop offset=".67" stop-color="#070900"/><stop offset="1" stop-color="#070900"/></linearGradient><linearGradient id="linear-gradient-10" x1="222.75" x2="222.75" xlink:href="#linear-gradient-9"/><linearGradient id="linear-gradient-11" x1="324" x2="324" xlink:href="#linear-gradient-9"/><linearGradient id="linear-gradient-12" x1="461.01" x2="461.01" xlink:href="#linear-gradient-9"/><linearGradient id="linear-gradient-13" x1="596.49" x2="596.49" xlink:href="#linear-gradient-9"/><mask id="mask-8" x="12.9" y="11.12" width="1637" height="174" maskUnits="userSpaceOnUse"><g id="path-1-outside-1_1912_486-9"><rect x="12.9" y="11.12" width="1637" height="174" style="fill:#fff; stroke-width:0px;"/><path d="M74.94,19.12l85.2.24-5.52,26.88h-78.24l-5.28,25.68h58.56l-4.08,19.44h19.68l-14.16,66h-19.92l-4.08,19.68H21.9l5.52-26.64h78.48l11.04-51.84-58.8-.24,3.84-18.96h-19.44l8.64-40.32h19.44l4.32-19.92Z" style="stroke-width:0px;"/><path d="M277.71,19.36l-5.76,26.88h-38.88l-27.84,131.04h-26.64l27.84-131.04h-38.64l5.52-26.88h104.4Z" style="stroke-width:0px;"/><path d="M311.52,19.12h63.6l-4.08,20.16h20.16l-29.28,137.52h-26.64l11.28-52.08h-51.84l-11.28,52.08h-26.64l29.28-137.52h21.36l4.08-20.16ZM352.08,98.08l11.04-52.32h-51.84l-11.04,52.32h51.84Z" style="stroke-width:0px;"/><path d="M491.25,118.24h20.16l-12.48,58.56h-26.64l11.28-52.8h-20.4l5.28-25.44h-31.44l-16.56,78.48-26.64-.24,33.36-157.68h84.48l-4.08,20.16h20.64l-8.4,41.04h-20.64c-3.12,15.36-4.56,22.8-7.92,37.92ZM494.85,71.92l5.28-25.68h-51.84l-5.28,25.68h51.84Z" style="stroke-width:0px;"/><path d="M651.45,19.36l-5.76,26.88h-38.88l-27.84,131.04h-26.64l27.84-131.04h-38.64l5.52-26.88h104.4Z" style="stroke-width:0px;"/><path d="M753.56,19.12h86.16l-11.28,53.28h-26.4l5.76-26.16h-52.32l-22.08,104.16h77.52l-5.52,26.64h-85.44l4.32-18.96h-18.72l25.2-118.8h18.72l4.08-20.16Z" style="stroke-width:0px;"/><path d="M872.32,19.12h26.16l-11.04,52.8h52.08l11.28-52.8h26.4l-33.6,157.68h-26.4l16.56-78.24h-52.08l-16.56,78.24h-26.4l33.6-157.68Z" style="stroke-width:0px;"/><path d="M1027.97,19.12h63.6l-4.08,20.16h20.16l-29.28,137.52h-26.64l11.28-52.08h-51.84l-11.28,52.08h-26.64l29.28-137.52h21.36l4.08-20.16ZM1068.53,98.08l11.04-52.32h-51.84l-11.04,52.32h51.84Z" style="stroke-width:0px;"/><path d="M1226.71,19.36l-4.61,26.88h-38.88l-27.84,131.04h-26.64l27.84-131.04h-38.64l5.52-26.88h103.25Z" style="stroke-width:0px;"/><path d="M1313.03,19.36l-5.76,26.88h-38.88l-27.84,131.04h-26.64l27.84-131.04h-38.64l5.52-26.88h104.4Z" style="stroke-width:0px;"/><path d="M1343.24,19.12h26.64l-33.6,157.68h-26.64l33.6-157.68Z" style="stroke-width:0px;"/><path d="M1403.98,19.12h26.64l-5.76,27.12h21.6l-5.52,25.92h16.8l-5.28,25.2h13.44l16.56-78.24h26.64l-33.6,157.68h-26.64l11.28-52.8h-21.6l5.28-25.44h-16.8l5.52-26.16h-13.2l-22.32,104.4h-26.64l33.6-157.68Z" style="stroke-width:0px;"/><path d="M1608.63,177.04h-85.44l4.32-20.4h-19.44l24.72-117.36h19.68l4.08-20.16h84.48l-5.76,26.64h-77.52l-22.32,104.4h52.32l11.52-53.28h26.64l-17.28,80.16Z" style="stroke-width:0px;"/></g></mask><mask id="mask-9" x="12.9" y="11.12" width="1637" height="174" maskUnits="userSpaceOnUse"><g id="path-1-outside-1_1912_486-10"><rect x="12.9" y="11.12" width="1637" height="174" style="fill:#fff; stroke-width:0px;"/><path d="M74.94,19.12l85.2.24-5.52,26.88h-78.24l-5.28,25.68h58.56l-4.08,19.44h19.68l-14.16,66h-19.92l-4.08,19.68H21.9l5.52-26.64h78.48l11.04-51.84-58.8-.24,3.84-18.96h-19.44l8.64-40.32h19.44l4.32-19.92Z" style="stroke-width:0px;"/><path d="M277.71,19.36l-5.76,26.88h-38.88l-27.84,131.04h-26.64l27.84-131.04h-38.64l5.52-26.88h104.4Z" style="stroke-width:0px;"/><path d="M311.52,19.12h63.6l-4.08,20.16h20.16l-29.28,137.52h-26.64l11.28-52.08h-51.84l-11.28,52.08h-26.64l29.28-137.52h21.36l4.08-20.16ZM352.08,98.08l11.04-52.32h-51.84l-11.04,52.32h51.84Z" style="stroke-width:0px;"/><path d="M491.25,118.24h20.16l-12.48,58.56h-26.64l11.28-52.8h-20.4l5.28-25.44h-31.44l-16.56,78.48-26.64-.24,33.36-157.68h84.48l-4.08,20.16h20.64l-8.4,41.04h-20.64c-3.12,15.36-4.56,22.8-7.92,37.92ZM494.85,71.92l5.28-25.68h-51.84l-5.28,25.68h51.84Z" style="stroke-width:0px;"/><path d="M651.45,19.36l-5.76,26.88h-38.88l-27.84,131.04h-26.64l27.84-131.04h-38.64l5.52-26.88h104.4Z" style="stroke-width:0px;"/><path d="M753.56,19.12h86.16l-11.28,53.28h-26.4l5.76-26.16h-52.32l-22.08,104.16h77.52l-5.52,26.64h-85.44l4.32-18.96h-18.72l25.2-118.8h18.72l4.08-20.16Z" style="stroke-width:0px;"/><path d="M872.32,19.12h26.16l-11.04,52.8h52.08l11.28-52.8h26.4l-33.6,157.68h-26.4l16.56-78.24h-52.08l-16.56,78.24h-26.4l33.6-157.68Z" style="stroke-width:0px;"/><path d="M1027.97,19.12h63.6l-4.08,20.16h20.16l-29.28,137.52h-26.64l11.28-52.08h-51.84l-11.28,52.08h-26.64l29.28-137.52h21.36l4.08-20.16ZM1068.53,98.08l11.04-52.32h-51.84l-11.04,52.32h51.84Z" style="stroke-width:0px;"/><path d="M1226.71,19.36l-4.61,26.88h-38.88l-27.84,131.04h-26.64l27.84-131.04h-38.64l5.52-26.88h103.25Z" style="stroke-width:0px;"/><path d="M1313.03,19.36l-5.76,26.88h-38.88l-27.84,131.04h-26.64l27.84-131.04h-38.64l5.52-26.88h104.4Z" style="stroke-width:0px;"/><path d="M1343.24,19.12h26.64l-33.6,157.68h-26.64l33.6-157.68Z" style="stroke-width:0px;"/><path d="M1403.98,19.12h26.64l-5.76,27.12h21.6l-5.52,25.92h16.8l-5.28,25.2h13.44l16.56-78.24h26.64l-33.6,157.68h-26.64l11.28-52.8h-21.6l5.28-25.44h-16.8l5.52-26.16h-13.2l-22.32,104.4h-26.64l33.6-157.68Z" style="stroke-width:0px;"/><path d="M1608.63,177.04h-85.44l4.32-20.4h-19.44l24.72-117.36h19.68l4.08-20.16h84.48l-5.76,26.64h-77.52l-22.32,104.4h52.32l11.52-53.28h26.64l-17.28,80.16Z" style="stroke-width:0px;"/></g></mask><mask id="mask-10" x="12.9" y="11.12" width="1637" height="174" maskUnits="userSpaceOnUse"><g id="path-1-outside-1_1912_486-11"><rect x="12.9" y="11.12" width="1637" height="174" style="fill:#fff; stroke-width:0px;"/><path d="M74.94,19.12l85.2.24-5.52,26.88h-78.24l-5.28,25.68h58.56l-4.08,19.44h19.68l-14.16,66h-19.92l-4.08,19.68H21.9l5.52-26.64h78.48l11.04-51.84-58.8-.24,3.84-18.96h-19.44l8.64-40.32h19.44l4.32-19.92Z" style="stroke-width:0px;"/><path d="M277.71,19.36l-5.76,26.88h-38.88l-27.84,131.04h-26.64l27.84-131.04h-38.64l5.52-26.88h104.4Z" style="stroke-width:0px;"/><path d="M311.52,19.12h63.6l-4.08,20.16h20.16l-29.28,137.52h-26.64l11.28-52.08h-51.84l-11.28,52.08h-26.64l29.28-137.52h21.36l4.08-20.16ZM352.08,98.08l11.04-52.32h-51.84l-11.04,52.32h51.84Z" style="stroke-width:0px;"/><path d="M491.25,118.24h20.16l-12.48,58.56h-26.64l11.28-52.8h-20.4l5.28-25.44h-31.44l-16.56,78.48-26.64-.24,33.36-157.68h84.48l-4.08,20.16h20.64l-8.4,41.04h-20.64c-3.12,15.36-4.56,22.8-7.92,37.92ZM494.85,71.92l5.28-25.68h-51.84l-5.28,25.68h51.84Z" style="stroke-width:0px;"/><path d="M651.45,19.36l-5.76,26.88h-38.88l-27.84,131.04h-26.64l27.84-131.04h-38.64l5.52-26.88h104.4Z" style="stroke-width:0px;"/><path d="M753.56,19.12h86.16l-11.28,53.28h-26.4l5.76-26.16h-52.32l-22.08,104.16h77.52l-5.52,26.64h-85.44l4.32-18.96h-18.72l25.2-118.8h18.72l4.08-20.16Z" style="stroke-width:0px;"/><path d="M872.32,19.12h26.16l-11.04,52.8h52.08l11.28-52.8h26.4l-33.6,157.68h-26.4l16.56-78.24h-52.08l-16.56,78.24h-26.4l33.6-157.68Z" style="stroke-width:0px;"/><path d="M1027.97,19.12h63.6l-4.08,20.16h20.16l-29.28,137.52h-26.64l11.28-52.08h-51.84l-11.28,52.08h-26.64l29.28-137.52h21.36l4.08-20.16ZM1068.53,98.08l11.04-52.32h-51.84l-11.04,52.32h51.84Z" style="stroke-width:0px;"/><path d="M1226.71,19.36l-4.61,26.88h-38.88l-27.84,131.04h-26.64l27.84-131.04h-38.64l5.52-26.88h103.25Z" style="stroke-width:0px;"/><path d="M1313.03,19.36l-5.76,26.88h-38.88l-27.84,131.04h-26.64l27.84-131.04h-38.64l5.52-26.88h104.4Z" style="stroke-width:0px;"/><path d="M1343.24,19.12h26.64l-33.6,157.68h-26.64l33.6-157.68Z" style="stroke-width:0px;"/><path d="M1403.98,19.12h26.64l-5.76,27.12h21.6l-5.52,25.92h16.8l-5.28,25.2h13.44l16.56-78.24h26.64l-33.6,157.68h-26.64l11.28-52.8h-21.6l5.28-25.44h-16.8l5.52-26.16h-13.2l-22.32,104.4h-26.64l33.6-157.68Z" style="stroke-width:0px;"/><path d="M1608.63,177.04h-85.44l4.32-20.4h-19.44l24.72-117.36h19.68l4.08-20.16h84.48l-5.76,26.64h-77.52l-22.32,104.4h52.32l11.52-53.28h26.64l-17.28,80.16Z" style="stroke-width:0px;"/></g></mask><mask id="mask-11" x="12.9" y="11.12" width="1637" height="174" maskUnits="userSpaceOnUse"><g id="path-1-outside-1_1912_486-12"><rect x="12.9" y="11.12" width="1637" height="174" style="fill:#fff; stroke-width:0px;"/><path d="M74.94,19.12l85.2.24-5.52,26.88h-78.24l-5.28,25.68h58.56l-4.08,19.44h19.68l-14.16,66h-19.92l-4.08,19.68H21.9l5.52-26.64h78.48l11.04-51.84-58.8-.24,3.84-18.96h-19.44l8.64-40.32h19.44l4.32-19.92Z" style="stroke-width:0px;"/><path d="M277.71,19.36l-5.76,26.88h-38.88l-27.84,131.04h-26.64l27.84-131.04h-38.64l5.52-26.88h104.4Z" style="stroke-width:0px;"/><path d="M311.52,19.12h63.6l-4.08,20.16h20.16l-29.28,137.52h-26.64l11.28-52.08h-51.84l-11.28,52.08h-26.64l29.28-137.52h21.36l4.08-20.16ZM352.08,98.08l11.04-52.32h-51.84l-11.04,52.32h51.84Z" style="stroke-width:0px;"/><path d="M491.25,118.24h20.16l-12.48,58.56h-26.64l11.28-52.8h-20.4l5.28-25.44h-31.44l-16.56,78.48-26.64-.24,33.36-157.68h84.48l-4.08,20.16h20.64l-8.4,41.04h-20.64c-3.12,15.36-4.56,22.8-7.92,37.92ZM494.85,71.92l5.28-25.68h-51.84l-5.28,25.68h51.84Z" style="stroke-width:0px;"/><path d="M651.45,19.36l-5.76,26.88h-38.88l-27.84,131.04h-26.64l27.84-131.04h-38.64l5.52-26.88h104.4Z" style="stroke-width:0px;"/><path d="M753.56,19.12h86.16l-11.28,53.28h-26.4l5.76-26.16h-52.32l-22.08,104.16h77.52l-5.52,26.64h-85.44l4.32-18.96h-18.72l25.2-118.8h18.72l4.08-20.16Z" style="stroke-width:0px;"/><path d="M872.32,19.12h26.16l-11.04,52.8h52.08l11.28-52.8h26.4l-33.6,157.68h-26.4l16.56-78.24h-52.08l-16.56,78.24h-26.4l33.6-157.68Z" style="stroke-width:0px;"/><path d="M1027.97,19.12h63.6l-4.08,20.16h20.16l-29.28,137.52h-26.64l11.28-52.08h-51.84l-11.28,52.08h-26.64l29.28-137.52h21.36l4.08-20.16ZM1068.53,98.08l11.04-52.32h-51.84l-11.04,52.32h51.84Z" style="stroke-width:0px;"/><path d="M1226.71,19.36l-4.61,26.88h-38.88l-27.84,131.04h-26.64l27.84-131.04h-38.64l5.52-26.88h103.25Z" style="stroke-width:0px;"/><path d="M1313.03,19.36l-5.76,26.88h-38.88l-27.84,131.04h-26.64l27.84-131.04h-38.64l5.52-26.88h104.4Z" style="stroke-width:0px;"/><path d="M1343.24,19.12h26.64l-33.6,157.68h-26.64l33.6-157.68Z" style="stroke-width:0px;"/><path d="M1403.98,19.12h26.64l-5.76,27.12h21.6l-5.52,25.92h16.8l-5.28,25.2h13.44l16.56-78.24h26.64l-33.6,157.68h-26.64l11.28-52.8h-21.6l5.28-25.44h-16.8l5.52-26.16h-13.2l-22.32,104.4h-26.64l33.6-157.68Z" style="stroke-width:0px;"/><path d="M1608.63,177.04h-85.44l4.32-20.4h-19.44l24.72-117.36h19.68l4.08-20.16h84.48l-5.76,26.64h-77.52l-22.32,104.4h52.32l11.52-53.28h26.64l-17.28,80.16Z" style="stroke-width:0px;"/></g></mask><mask id="mask-12" x="12.9" y="11.12" width="1637" height="174" maskUnits="userSpaceOnUse"><g id="path-1-outside-1_1912_486-13"><rect x="12.9" y="11.12" width="1637" height="174" style="fill:#fff; stroke-width:0px;"/><path d="M74.94,19.12l85.2.24-5.52,26.88h-78.24l-5.28,25.68h58.56l-4.08,19.44h19.68l-14.16,66h-19.92l-4.08,19.68H21.9l5.52-26.64h78.48l11.04-51.84-58.8-.24,3.84-18.96h-19.44l8.64-40.32h19.44l4.32-19.92Z" style="stroke-width:0px;"/><path d="M277.71,19.36l-5.76,26.88h-38.88l-27.84,131.04h-26.64l27.84-131.04h-38.64l5.52-26.88h104.4Z" style="stroke-width:0px;"/><path d="M311.52,19.12h63.6l-4.08,20.16h20.16l-29.28,137.52h-26.64l11.28-52.08h-51.84l-11.28,52.08h-26.64l29.28-137.52h21.36l4.08-20.16ZM352.08,98.08l11.04-52.32h-51.84l-11.04,52.32h51.84Z" style="stroke-width:0px;"/><path d="M491.25,118.24h20.16l-12.48,58.56h-26.64l11.28-52.8h-20.4l5.28-25.44h-31.44l-16.56,78.48-26.64-.24,33.36-157.68h84.48l-4.08,20.16h20.64l-8.4,41.04h-20.64c-3.12,15.36-4.56,22.8-7.92,37.92ZM494.85,71.92l5.28-25.68h-51.84l-5.28,25.68h51.84Z" style="stroke-width:0px;"/><path d="M651.45,19.36l-5.76,26.88h-38.88l-27.84,131.04h-26.64l27.84-131.04h-38.64l5.52-26.88h104.4Z" style="stroke-width:0px;"/><path d="M753.56,19.12h86.16l-11.28,53.28h-26.4l5.76-26.16h-52.32l-22.08,104.16h77.52l-5.52,26.64h-85.44l4.32-18.96h-18.72l25.2-118.8h18.72l4.08-20.16Z" style="stroke-width:0px;"/><path d="M872.32,19.12h26.16l-11.04,52.8h52.08l11.28-52.8h26.4l-33.6,157.68h-26.4l16.56-78.24h-52.08l-16.56,78.24h-26.4l33.6-157.68Z" style="stroke-width:0px;"/><path d="M1027.97,19.12h63.6l-4.08,20.16h20.16l-29.28,137.52h-26.64l11.28-52.08h-51.84l-11.28,52.08h-26.64l29.28-137.52h21.36l4.08-20.16ZM1068.53,98.08l11.04-52.32h-51.84l-11.04,52.32h51.84Z" style="stroke-width:0px;"/><path d="M1226.71,19.36l-4.61,26.88h-38.88l-27.84,131.04h-26.64l27.84-131.04h-38.64l5.52-26.88h103.25Z" style="stroke-width:0px;"/><path d="M1313.03,19.36l-5.76,26.88h-38.88l-27.84,131.04h-26.64l27.84-131.04h-38.64l5.52-26.88h104.4Z" style="stroke-width:0px;"/><path d="M1343.24,19.12h26.64l-33.6,157.68h-26.64l33.6-157.68Z" style="stroke-width:0px;"/><path d="M1403.98,19.12h26.64l-5.76,27.12h21.6l-5.52,25.92h16.8l-5.28,25.2h13.44l16.56-78.24h26.64l-33.6,157.68h-26.64l11.28-52.8h-21.6l5.28-25.44h-16.8l5.52-26.16h-13.2l-22.32,104.4h-26.64l33.6-157.68Z" style="stroke-width:0px;"/><path d="M1608.63,177.04h-85.44l4.32-20.4h-19.44l24.72-117.36h19.68l4.08-20.16h84.48l-5.76,26.64h-77.52l-22.32,104.4h52.32l11.52-53.28h26.64l-17.28,80.16Z" style="stroke-width:0px;"/></g></mask><linearGradient id="linear-gradient-14" x1="77.72" y1="255.7" x2="77.72" y2="-81.27" gradientTransform="translate(0 173.39) scale(1 -1)" gradientUnits="userSpaceOnUse"><stop offset="0" stop-color="#f9f1eb"/><stop offset=".46" stop-color="#f9f1eb"/><stop offset=".46" stop-color="#ff7a00"/><stop offset=".67" stop-color="#ff7a00"/><stop offset="1" stop-color="#ff7a00"/></linearGradient><linearGradient id="linear-gradient-15" x1="209.45" y1="255.7" x2="209.45" y2="-81.27" gradientTransform="translate(0 173.39) scale(1 -1)" gradientUnits="userSpaceOnUse"><stop offset="0" stop-color="#f9f1eb"/><stop offset=".46" stop-color="#f9f1eb"/><stop offset=".46" stop-color="#ff7a00"/><stop offset=".67" stop-color="#ff7a00"/><stop offset="1" stop-color="#ff7a00"/></linearGradient><linearGradient id="linear-gradient-16" x1="310.7" y1="255.7" x2="310.7" y2="-81.27" gradientTransform="translate(0 173.39) scale(1 -1)" gradientUnits="userSpaceOnUse"><stop offset="0" stop-color="#f9f1eb"/><stop offset=".46" stop-color="#f9f1eb"/><stop offset=".46" stop-color="#ff7a00"/><stop offset=".67" stop-color="#ff7a00"/><stop offset="1" stop-color="#ff7a00"/></linearGradient><linearGradient id="linear-gradient-17" x1="447.71" y1="255.7" x2="447.71" y2="-81.27" gradientTransform="translate(0 173.39) scale(1 -1)" gradientUnits="userSpaceOnUse"><stop offset="0" stop-color="#f9f1eb"/><stop offset=".46" stop-color="#f9f1eb"/><stop offset=".46" stop-color="#ff7a00"/><stop offset=".67" stop-color="#ff7a00"/><stop offset="1" stop-color="#ff7a00"/></linearGradient><linearGradient id="linear-gradient-18" x1="583.19" y1="255.7" x2="583.19" y2="-81.27" gradientTransform="translate(0 173.39) scale(1 -1)" gradientUnits="userSpaceOnUse"><stop offset="0" stop-color="#f9f1eb"/><stop offset=".46" stop-color="#f9f1eb"/><stop offset=".46" stop-color="#ff7a00"/><stop offset=".67" stop-color="#ff7a00"/><stop offset="1" stop-color="#ff7a00"/></linearGradient><linearGradient id="linear-gradient-19" x1="759.33" y1="255.7" x2="759.33" y2="-81.27" gradientTransform="translate(0 173.39) scale(1 -1)" gradientUnits="userSpaceOnUse"><stop offset="0" stop-color="#f9f1eb"/><stop offset=".46" stop-color="#f9f1eb"/><stop offset=".46" stop-color="#ff7a00"/><stop offset=".67" stop-color="#ff7a00"/><stop offset="1" stop-color="#ff7a00"/></linearGradient><linearGradient id="linear-gradient-20" x1="894.66" y1="255.7" x2="894.66" y2="-81.27" gradientTransform="translate(0 173.39) scale(1 -1)" gradientUnits="userSpaceOnUse"><stop offset="0" stop-color="#f9f1eb"/><stop offset=".46" stop-color="#f9f1eb"/><stop offset=".46" stop-color="#ff7a00"/><stop offset=".67" stop-color="#ff7a00"/><stop offset="1" stop-color="#ff7a00"/></linearGradient><linearGradient id="linear-gradient-21" x1="1027.15" y1="255.7" x2="1027.15" y2="-81.27" gradientTransform="translate(0 173.39) scale(1 -1)" gradientUnits="userSpaceOnUse"><stop offset="0" stop-color="#f9f1eb"/><stop offset=".46" stop-color="#f9f1eb"/><stop offset=".46" stop-color="#ff7a00"/><stop offset=".67" stop-color="#ff7a00"/><stop offset="1" stop-color="#ff7a00"/></linearGradient><linearGradient id="linear-gradient-22" x1="1159.02" y1="255.7" x2="1159.02" y2="-81.27" gradientTransform="translate(0 173.39) scale(1 -1)" gradientUnits="userSpaceOnUse"><stop offset="0" stop-color="#f9f1eb"/><stop offset=".46" stop-color="#f9f1eb"/><stop offset=".46" stop-color="#ff7a00"/><stop offset=".67" stop-color="#ff7a00"/><stop offset="1" stop-color="#ff7a00"/></linearGradient><linearGradient id="linear-gradient-23" x1="1244.77" y1="255.7" x2="1244.77" y2="-81.27" gradientTransform="translate(0 173.39) scale(1 -1)" gradientUnits="userSpaceOnUse"><stop offset="0" stop-color="#f9f1eb"/><stop offset=".46" stop-color="#f9f1eb"/><stop offset=".46" stop-color="#ff7a00"/><stop offset=".67" stop-color="#ff7a00"/><stop offset="1" stop-color="#ff7a00"/></linearGradient><linearGradient id="linear-gradient-24" x1="1326.46" y1="255.7" x2="1326.46" y2="-81.27" gradientTransform="translate(0 173.39) scale(1 -1)" gradientUnits="userSpaceOnUse"><stop offset="0" stop-color="#f9f1eb"/><stop offset=".46" stop-color="#f9f1eb"/><stop offset=".46" stop-color="#ff7a00"/><stop offset=".67" stop-color="#ff7a00"/><stop offset="1" stop-color="#ff7a00"/></linearGradient><linearGradient id="linear-gradient-25" x1="1426.44" y1="255.7" x2="1426.44" y2="-81.27" gradientTransform="translate(0 173.39) scale(1 -1)" gradientUnits="userSpaceOnUse"><stop offset="0" stop-color="#f9f1eb"/><stop offset=".46" stop-color="#f9f1eb"/><stop offset=".46" stop-color="#ff7a00"/><stop offset=".67" stop-color="#ff7a00"/><stop offset="1" stop-color="#ff7a00"/></linearGradient><linearGradient id="linear-gradient-26" x1="1561.25" y1="255.7" x2="1561.25" y2="-81.27" gradientTransform="translate(0 173.39) scale(1 -1)" gradientUnits="userSpaceOnUse"><stop offset="0" stop-color="#f9f1eb"/><stop offset=".46" stop-color="#f9f1eb"/><stop offset=".46" stop-color="#ff7a00"/><stop offset=".67" stop-color="#ff7a00"/><stop offset="1" stop-color="#ff7a00"/></linearGradient><mask id="mask-13" x="-.4" y="-.98" width="1637" height="174" maskUnits="userSpaceOnUse"><g id="path-1-outside-1_1912_486-14"><rect x="-.4" y="-.98" width="1637" height="174" style="fill:#fff; stroke-width:0px;"/><path d="M61.64,7.02l85.2.24-5.52,26.88H63.08l-5.28,25.68h58.56l-4.08,19.44h19.68l-14.16,66h-19.92l-4.08,19.68H8.6l5.52-26.64h78.48l11.04-51.84-58.8-.24,3.84-18.96h-19.44l8.64-40.32h19.44l4.32-19.92Z" style="stroke-width:0px;"/><path d="M264.41,7.26l-5.76,26.88h-38.88l-27.84,131.04h-26.64l27.84-131.04h-38.64l5.52-26.88h104.4Z" style="stroke-width:0px;"/><path d="M298.22,7.02h63.6l-4.08,20.16h20.16l-29.28,137.52h-26.64l11.28-52.08h-51.84l-11.28,52.08h-26.64l29.28-137.52h21.36l4.08-20.16ZM338.78,85.98l11.04-52.32h-51.84l-11.04,52.32h51.84Z" style="stroke-width:0px;"/><path d="M477.95,106.14h20.16l-12.48,58.56h-26.64l11.28-52.8h-20.4l5.28-25.44h-31.44l-16.56,78.48-26.64-.24L413.87,7.02h84.48l-4.08,20.16h20.64l-8.4,41.04h-20.64c-3.12,15.36-4.56,22.8-7.92,37.92ZM481.55,59.82l5.28-25.68h-51.84l-5.28,25.68h51.84Z" style="stroke-width:0px;"/><path d="M638.15,7.26l-5.76,26.88h-38.88l-27.84,131.04h-26.64l27.84-131.04h-38.64l5.52-26.88h104.4Z" style="stroke-width:0px;"/><path d="M740.25,7.02h86.16l-11.28,53.28h-26.4l5.76-26.16h-52.32l-22.08,104.16h77.52l-5.52,26.64h-85.44l4.32-18.96h-18.72l25.2-118.8h18.72l4.08-20.16Z" style="stroke-width:0px;"/><path d="M859.02,7.02h26.16l-11.04,52.8h52.08l11.28-52.8h26.4l-33.6,157.68h-26.4l16.56-78.24h-52.08l-16.56,78.24h-26.4L859.02,7.02Z" style="stroke-width:0px;"/><path d="M1014.67,7.02h63.6l-4.08,20.16h20.16l-29.28,137.52h-26.64l11.28-52.08h-51.84l-11.28,52.08h-26.64l29.28-137.52h21.36l4.08-20.16ZM1055.23,85.98l11.04-52.32h-51.84l-11.04,52.32h51.84Z" style="stroke-width:0px;"/><path d="M1213.41,7.26l-4.61,26.88h-38.88l-27.84,131.04h-26.64l27.84-131.04h-38.64l5.52-26.88h103.25Z" style="stroke-width:0px;"/><path d="M1299.73,7.26l-5.76,26.88h-38.88l-27.84,131.04h-26.64l27.84-131.04h-38.64l5.52-26.88h104.4Z" style="stroke-width:0px;"/><path d="M1329.94,7.02h26.64l-33.6,157.68h-26.64l33.6-157.68Z" style="stroke-width:0px;"/><path d="M1390.68,7.02h26.64l-5.76,27.12h21.6l-5.52,25.92h16.8l-5.28,25.2h13.44l16.56-78.24h26.64l-33.6,157.68h-26.64l11.28-52.8h-21.6l5.28-25.44h-16.8l5.52-26.16h-13.2l-22.32,104.4h-26.64l33.6-157.68Z" style="stroke-width:0px;"/><path d="M1595.33,164.94h-85.44l4.32-20.4h-19.44l24.72-117.36h19.68l4.08-20.16h84.48l-5.76,26.64h-77.52l-22.32,104.4h52.32l11.52-53.28h26.64l-17.28,80.16Z" style="stroke-width:0px;"/></g></mask><mask id="mask-14" x="-.4" y="-.98" width="1637" height="174" maskUnits="userSpaceOnUse"><g id="path-1-outside-1_1912_486-15"><rect x="-.4" y="-.98" width="1637" height="174" style="fill:#fff; stroke-width:0px;"/><path d="M61.64,7.02l85.2.24-5.52,26.88H63.08l-5.28,25.68h58.56l-4.08,19.44h19.68l-14.16,66h-19.92l-4.08,19.68H8.6l5.52-26.64h78.48l11.04-51.84-58.8-.24,3.84-18.96h-19.44l8.64-40.32h19.44l4.32-19.92Z" style="stroke-width:0px;"/><path d="M264.41,7.26l-5.76,26.88h-38.88l-27.84,131.04h-26.64l27.84-131.04h-38.64l5.52-26.88h104.4Z" style="stroke-width:0px;"/><path d="M298.22,7.02h63.6l-4.08,20.16h20.16l-29.28,137.52h-26.64l11.28-52.08h-51.84l-11.28,52.08h-26.64l29.28-137.52h21.36l4.08-20.16ZM338.78,85.98l11.04-52.32h-51.84l-11.04,52.32h51.84Z" style="stroke-width:0px;"/><path d="M477.95,106.14h20.16l-12.48,58.56h-26.64l11.28-52.8h-20.4l5.28-25.44h-31.44l-16.56,78.48-26.64-.24L413.87,7.02h84.48l-4.08,20.16h20.64l-8.4,41.04h-20.64c-3.12,15.36-4.56,22.8-7.92,37.92ZM481.55,59.82l5.28-25.68h-51.84l-5.28,25.68h51.84Z" style="stroke-width:0px;"/><path d="M638.15,7.26l-5.76,26.88h-38.88l-27.84,131.04h-26.64l27.84-131.04h-38.64l5.52-26.88h104.4Z" style="stroke-width:0px;"/><path d="M740.25,7.02h86.16l-11.28,53.28h-26.4l5.76-26.16h-52.32l-22.08,104.16h77.52l-5.52,26.64h-85.44l4.32-18.96h-18.72l25.2-118.8h18.72l4.08-20.16Z" style="stroke-width:0px;"/><path d="M859.02,7.02h26.16l-11.04,52.8h52.08l11.28-52.8h26.4l-33.6,157.68h-26.4l16.56-78.24h-52.08l-16.56,78.24h-26.4L859.02,7.02Z" style="stroke-width:0px;"/><path d="M1014.67,7.02h63.6l-4.08,20.16h20.16l-29.28,137.52h-26.64l11.28-52.08h-51.84l-11.28,52.08h-26.64l29.28-137.52h21.36l4.08-20.16ZM1055.23,85.98l11.04-52.32h-51.84l-11.04,52.32h51.84Z" style="stroke-width:0px;"/><path d="M1213.41,7.26l-4.61,26.88h-38.88l-27.84,131.04h-26.64l27.84-131.04h-38.64l5.52-26.88h103.25Z" style="stroke-width:0px;"/><path d="M1299.73,7.26l-5.76,26.88h-38.88l-27.84,131.04h-26.64l27.84-131.04h-38.64l5.52-26.88h104.4Z" style="stroke-width:0px;"/><path d="M1329.94,7.02h26.64l-33.6,157.68h-26.64l33.6-157.68Z" style="stroke-width:0px;"/><path d="M1390.68,7.02h26.64l-5.76,27.12h21.6l-5.52,25.92h16.8l-5.28,25.2h13.44l16.56-78.24h26.64l-33.6,157.68h-26.64l11.28-52.8h-21.6l5.28-25.44h-16.8l5.52-26.16h-13.2l-22.32,104.4h-26.64l33.6-157.68Z" style="stroke-width:0px;"/><path d="M1595.33,164.94h-85.44l4.32-20.4h-19.44l24.72-117.36h19.68l4.08-20.16h84.48l-5.76,26.64h-77.52l-22.32,104.4h52.32l11.52-53.28h26.64l-17.28,80.16Z" style="stroke-width:0px;"/></g></mask><mask id="mask-15" x="-.4" y="-.98" width="1637" height="174" maskUnits="userSpaceOnUse"><g id="path-1-outside-1_1912_486-16"><rect x="-.4" y="-.98" width="1637" height="174" style="fill:#fff; stroke-width:0px;"/><path d="M61.64,7.02l85.2.24-5.52,26.88H63.08l-5.28,25.68h58.56l-4.08,19.44h19.68l-14.16,66h-19.92l-4.08,19.68H8.6l5.52-26.64h78.48l11.04-51.84-58.8-.24,3.84-18.96h-19.44l8.64-40.32h19.44l4.32-19.92Z" style="stroke-width:0px;"/><path d="M264.41,7.26l-5.76,26.88h-38.88l-27.84,131.04h-26.64l27.84-131.04h-38.64l5.52-26.88h104.4Z" style="stroke-width:0px;"/><path d="M298.22,7.02h63.6l-4.08,20.16h20.16l-29.28,137.52h-26.64l11.28-52.08h-51.84l-11.28,52.08h-26.64l29.28-137.52h21.36l4.08-20.16ZM338.78,85.98l11.04-52.32h-51.84l-11.04,52.32h51.84Z" style="stroke-width:0px;"/><path d="M477.95,106.14h20.16l-12.48,58.56h-26.64l11.28-52.8h-20.4l5.28-25.44h-31.44l-16.56,78.48-26.64-.24L413.87,7.02h84.48l-4.08,20.16h20.64l-8.4,41.04h-20.64c-3.12,15.36-4.56,22.8-7.92,37.92ZM481.55,59.82l5.28-25.68h-51.84l-5.28,25.68h51.84Z" style="stroke-width:0px;"/><path d="M638.15,7.26l-5.76,26.88h-38.88l-27.84,131.04h-26.64l27.84-131.04h-38.64l5.52-26.88h104.4Z" style="stroke-width:0px;"/><path d="M740.25,7.02h86.16l-11.28,53.28h-26.4l5.76-26.16h-52.32l-22.08,104.16h77.52l-5.52,26.64h-85.44l4.32-18.96h-18.72l25.2-118.8h18.72l4.08-20.16Z" style="stroke-width:0px;"/><path d="M859.02,7.02h26.16l-11.04,52.8h52.08l11.28-52.8h26.4l-33.6,157.68h-26.4l16.56-78.24h-52.08l-16.56,78.24h-26.4L859.02,7.02Z" style="stroke-width:0px;"/><path d="M1014.67,7.02h63.6l-4.08,20.16h20.16l-29.28,137.52h-26.64l11.28-52.08h-51.84l-11.28,52.08h-26.64l29.28-137.52h21.36l4.08-20.16ZM1055.23,85.98l11.04-52.32h-51.84l-11.04,52.32h51.84Z" style="stroke-width:0px;"/><path d="M1213.41,7.26l-4.61,26.88h-38.88l-27.84,131.04h-26.64l27.84-131.04h-38.64l5.52-26.88h103.25Z" style="stroke-width:0px;"/><path d="M1299.73,7.26l-5.76,26.88h-38.88l-27.84,131.04h-26.64l27.84-131.04h-38.64l5.52-26.88h104.4Z" style="stroke-width:0px;"/><path d="M1329.94,7.02h26.64l-33.6,157.68h-26.64l33.6-157.68Z" style="stroke-width:0px;"/><path d="M1390.68,7.02h26.64l-5.76,27.12h21.6l-5.52,25.92h16.8l-5.28,25.2h13.44l16.56-78.24h26.64l-33.6,157.68h-26.64l11.28-52.8h-21.6l5.28-25.44h-16.8l5.52-26.16h-13.2l-22.32,104.4h-26.64l33.6-157.68Z" style="stroke-width:0px;"/><path d="M1595.33,164.94h-85.44l4.32-20.4h-19.44l24.72-117.36h19.68l4.08-20.16h84.48l-5.76,26.64h-77.52l-22.32,104.4h52.32l11.52-53.28h26.64l-17.28,80.16Z" style="stroke-width:0px;"/></g></mask><mask id="mask-16" x="-.4" y="-.98" width="1637" height="174" maskUnits="userSpaceOnUse"><g id="path-1-outside-1_1912_486-17"><rect x="-.4" y="-.98" width="1637" height="174" style="fill:#fff; stroke-width:0px;"/><path d="M61.64,7.02l85.2.24-5.52,26.88H63.08l-5.28,25.68h58.56l-4.08,19.44h19.68l-14.16,66h-19.92l-4.08,19.68H8.6l5.52-26.64h78.48l11.04-51.84-58.8-.24,3.84-18.96h-19.44l8.64-40.32h19.44l4.32-19.92Z" style="stroke-width:0px;"/><path d="M264.41,7.26l-5.76,26.88h-38.88l-27.84,131.04h-26.64l27.84-131.04h-38.64l5.52-26.88h104.4Z" style="stroke-width:0px;"/><path d="M298.22,7.02h63.6l-4.08,20.16h20.16l-29.28,137.52h-26.64l11.28-52.08h-51.84l-11.28,52.08h-26.64l29.28-137.52h21.36l4.08-20.16ZM338.78,85.98l11.04-52.32h-51.84l-11.04,52.32h51.84Z" style="stroke-width:0px;"/><path d="M477.95,106.14h20.16l-12.48,58.56h-26.64l11.28-52.8h-20.4l5.28-25.44h-31.44l-16.56,78.48-26.64-.24L413.87,7.02h84.48l-4.08,20.16h20.64l-8.4,41.04h-20.64c-3.12,15.36-4.56,22.8-7.92,37.92ZM481.55,59.82l5.28-25.68h-51.84l-5.28,25.68h51.84Z" style="stroke-width:0px;"/><path d="M638.15,7.26l-5.76,26.88h-38.88l-27.84,131.04h-26.64l27.84-131.04h-38.64l5.52-26.88h104.4Z" style="stroke-width:0px;"/><path d="M740.25,7.02h86.16l-11.28,53.28h-26.4l5.76-26.16h-52.32l-22.08,104.16h77.52l-5.52,26.64h-85.44l4.32-18.96h-18.72l25.2-118.8h18.72l4.08-20.16Z" style="stroke-width:0px;"/><path d="M859.02,7.02h26.16l-11.04,52.8h52.08l11.28-52.8h26.4l-33.6,157.68h-26.4l16.56-78.24h-52.08l-16.56,78.24h-26.4L859.02,7.02Z" style="stroke-width:0px;"/><path d="M1014.67,7.02h63.6l-4.08,20.16h20.16l-29.28,137.52h-26.64l11.28-52.08h-51.84l-11.28,52.08h-26.64l29.28-137.52h21.36l4.08-20.16ZM1055.23,85.98l11.04-52.32h-51.84l-11.04,52.32h51.84Z" style="stroke-width:0px;"/><path d="M1213.41,7.26l-4.61,26.88h-38.88l-27.84,131.04h-26.64l27.84-131.04h-38.64l5.52-26.88h103.25Z" style="stroke-width:0px;"/><path d="M1299.73,7.26l-5.76,26.88h-38.88l-27.84,131.04h-26.64l27.84-131.04h-38.64l5.52-26.88h104.4Z" style="stroke-width:0px;"/><path d="M1329.94,7.02h26.64l-33.6,157.68h-26.64l33.6-157.68Z" style="stroke-width:0px;"/><path d="M1390.68,7.02h26.64l-5.76,27.12h21.6l-5.52,25.92h16.8l-5.28,25.2h13.44l16.56-78.24h26.64l-33.6,157.68h-26.64l11.28-52.8h-21.6l5.28-25.44h-16.8l5.52-26.16h-13.2l-22.32,104.4h-26.64l33.6-157.68Z" style="stroke-width:0px;"/><path d="M1595.33,164.94h-85.44l4.32-20.4h-19.44l24.72-117.36h19.68l4.08-20.16h84.48l-5.76,26.64h-77.52l-22.32,104.4h52.32l11.52-53.28h26.64l-17.28,80.16Z" style="stroke-width:0px;"/></g></mask><mask id="mask-17" x="-.4" y="-.98" width="1637" height="174" maskUnits="userSpaceOnUse"><g id="path-1-outside-1_1912_486-18"><rect x="-.4" y="-.98" width="1637" height="174" style="fill:#fff; stroke-width:0px;"/><path d="M61.64,7.02l85.2.24-5.52,26.88H63.08l-5.28,25.68h58.56l-4.08,19.44h19.68l-14.16,66h-19.92l-4.08,19.68H8.6l5.52-26.64h78.48l11.04-51.84-58.8-.24,3.84-18.96h-19.44l8.64-40.32h19.44l4.32-19.92Z" style="stroke-width:0px;"/><path d="M264.41,7.26l-5.76,26.88h-38.88l-27.84,131.04h-26.64l27.84-131.04h-38.64l5.52-26.88h104.4Z" style="stroke-width:0px;"/><path d="M298.22,7.02h63.6l-4.08,20.16h20.16l-29.28,137.52h-26.64l11.28-52.08h-51.84l-11.28,52.08h-26.64l29.28-137.52h21.36l4.08-20.16ZM338.78,85.98l11.04-52.32h-51.84l-11.04,52.32h51.84Z" style="stroke-width:0px;"/><path d="M477.95,106.14h20.16l-12.48,58.56h-26.64l11.28-52.8h-20.4l5.28-25.44h-31.44l-16.56,78.48-26.64-.24L413.87,7.02h84.48l-4.08,20.16h20.64l-8.4,41.04h-20.64c-3.12,15.36-4.56,22.8-7.92,37.92ZM481.55,59.82l5.28-25.68h-51.84l-5.28,25.68h51.84Z" style="stroke-width:0px;"/><path d="M638.15,7.26l-5.76,26.88h-38.88l-27.84,131.04h-26.64l27.84-131.04h-38.64l5.52-26.88h104.4Z" style="stroke-width:0px;"/><path d="M740.25,7.02h86.16l-11.28,53.28h-26.4l5.76-26.16h-52.32l-22.08,104.16h77.52l-5.52,26.64h-85.44l4.32-18.96h-18.72l25.2-118.8h18.72l4.08-20.16Z" style="stroke-width:0px;"/><path d="M859.02,7.02h26.16l-11.04,52.8h52.08l11.28-52.8h26.4l-33.6,157.68h-26.4l16.56-78.24h-52.08l-16.56,78.24h-26.4L859.02,7.02Z" style="stroke-width:0px;"/><path d="M1014.67,7.02h63.6l-4.08,20.16h20.16l-29.28,137.52h-26.64l11.28-52.08h-51.84l-11.28,52.08h-26.64l29.28-137.52h21.36l4.08-20.16ZM1055.23,85.98l11.04-52.32h-51.84l-11.04,52.32h51.84Z" style="stroke-width:0px;"/><path d="M1213.41,7.26l-4.61,26.88h-38.88l-27.84,131.04h-26.64l27.84-131.04h-38.64l5.52-26.88h103.25Z" style="stroke-width:0px;"/><path d="M1299.73,7.26l-5.76,26.88h-38.88l-27.84,131.04h-26.64l27.84-131.04h-38.64l5.52-26.88h104.4Z" style="stroke-width:0px;"/><path d="M1329.94,7.02h26.64l-33.6,157.68h-26.64l33.6-157.68Z" style="stroke-width:0px;"/><path d="M1390.68,7.02h26.64l-5.76,27.12h21.6l-5.52,25.92h16.8l-5.28,25.2h13.44l16.56-78.24h26.64l-33.6,157.68h-26.64l11.28-52.8h-21.6l5.28-25.44h-16.8l5.52-26.16h-13.2l-22.32,104.4h-26.64l33.6-157.68Z" style="stroke-width:0px;"/><path d="M1595.33,164.94h-85.44l4.32-20.4h-19.44l24.72-117.36h19.68l4.08-20.16h84.48l-5.76,26.64h-77.52l-22.32,104.4h52.32l11.52-53.28h26.64l-17.28,80.16Z" style="stroke-width:0px;"/></g></mask><mask id="mask-18" x="-.4" y="-.98" width="1637" height="174" maskUnits="userSpaceOnUse"><g id="path-1-outside-1_1912_486-19"><rect x="-.4" y="-.98" width="1637" height="174" style="fill:#fff; stroke-width:0px;"/><path d="M61.64,7.02l85.2.24-5.52,26.88H63.08l-5.28,25.68h58.56l-4.08,19.44h19.68l-14.16,66h-19.92l-4.08,19.68H8.6l5.52-26.64h78.48l11.04-51.84-58.8-.24,3.84-18.96h-19.44l8.64-40.32h19.44l4.32-19.92Z" style="stroke-width:0px;"/><path d="M264.41,7.26l-5.76,26.88h-38.88l-27.84,131.04h-26.64l27.84-131.04h-38.64l5.52-26.88h104.4Z" style="stroke-width:0px;"/><path d="M298.22,7.02h63.6l-4.08,20.16h20.16l-29.28,137.52h-26.64l11.28-52.08h-51.84l-11.28,52.08h-26.64l29.28-137.52h21.36l4.08-20.16ZM338.78,85.98l11.04-52.32h-51.84l-11.04,52.32h51.84Z" style="stroke-width:0px;"/><path d="M477.95,106.14h20.16l-12.48,58.56h-26.64l11.28-52.8h-20.4l5.28-25.44h-31.44l-16.56,78.48-26.64-.24L413.87,7.02h84.48l-4.08,20.16h20.64l-8.4,41.04h-20.64c-3.12,15.36-4.56,22.8-7.92,37.92ZM481.55,59.82l5.28-25.68h-51.84l-5.28,25.68h51.84Z" style="stroke-width:0px;"/><path d="M638.15,7.26l-5.76,26.88h-38.88l-27.84,131.04h-26.64l27.84-131.04h-38.64l5.52-26.88h104.4Z" style="stroke-width:0px;"/><path d="M740.25,7.02h86.16l-11.28,53.28h-26.4l5.76-26.16h-52.32l-22.08,104.16h77.52l-5.52,26.64h-85.44l4.32-18.96h-18.72l25.2-118.8h18.72l4.08-20.16Z" style="stroke-width:0px;"/><path d="M859.02,7.02h26.16l-11.04,52.8h52.08l11.28-52.8h26.4l-33.6,157.68h-26.4l16.56-78.24h-52.08l-16.56,78.24h-26.4L859.02,7.02Z" style="stroke-width:0px;"/><path d="M1014.67,7.02h63.6l-4.08,20.16h20.16l-29.28,137.52h-26.64l11.28-52.08h-51.84l-11.28,52.08h-26.64l29.28-137.52h21.36l4.08-20.16ZM1055.23,85.98l11.04-52.32h-51.84l-11.04,52.32h51.84Z" style="stroke-width:0px;"/><path d="M1213.41,7.26l-4.61,26.88h-38.88l-27.84,131.04h-26.64l27.84-131.04h-38.64l5.52-26.88h103.25Z" style="stroke-width:0px;"/><path d="M1299.73,7.26l-5.76,26.88h-38.88l-27.84,131.04h-26.64l27.84-131.04h-38.64l5.52-26.88h104.4Z" style="stroke-width:0px;"/><path d="M1329.94,7.02h26.64l-33.6,157.68h-26.64l33.6-157.68Z" style="stroke-width:0px;"/><path d="M1390.68,7.02h26.64l-5.76,27.12h21.6l-5.52,25.92h16.8l-5.28,25.2h13.44l16.56-78.24h26.64l-33.6,157.68h-26.64l11.28-52.8h-21.6l5.28-25.44h-16.8l5.52-26.16h-13.2l-22.32,104.4h-26.64l33.6-157.68Z" style="stroke-width:0px;"/><path d="M1595.33,164.94h-85.44l4.32-20.4h-19.44l24.72-117.36h19.68l4.08-20.16h84.48l-5.76,26.64h-77.52l-22.32,104.4h52.32l11.52-53.28h26.64l-17.28,80.16Z" style="stroke-width:0px;"/></g></mask><mask id="mask-19" x="-.4" y="-.98" width="1637" height="174" maskUnits="userSpaceOnUse"><g id="path-1-outside-1_1912_486-20"><rect x="-.4" y="-.98" width="1637" height="174" style="fill:#fff; stroke-width:0px;"/><path d="M61.64,7.02l85.2.24-5.52,26.88H63.08l-5.28,25.68h58.56l-4.08,19.44h19.68l-14.16,66h-19.92l-4.08,19.68H8.6l5.52-26.64h78.48l11.04-51.84-58.8-.24,3.84-18.96h-19.44l8.64-40.32h19.44l4.32-19.92Z" style="stroke-width:0px;"/><path d="M264.41,7.26l-5.76,26.88h-38.88l-27.84,131.04h-26.64l27.84-131.04h-38.64l5.52-26.88h104.4Z" style="stroke-width:0px;"/><path d="M298.22,7.02h63.6l-4.08,20.16h20.16l-29.28,137.52h-26.64l11.28-52.08h-51.84l-11.28,52.08h-26.64l29.28-137.52h21.36l4.08-20.16ZM338.78,85.98l11.04-52.32h-51.84l-11.04,52.32h51.84Z" style="stroke-width:0px;"/><path d="M477.95,106.14h20.16l-12.48,58.56h-26.64l11.28-52.8h-20.4l5.28-25.44h-31.44l-16.56,78.48-26.64-.24L413.87,7.02h84.48l-4.08,20.16h20.64l-8.4,41.04h-20.64c-3.12,15.36-4.56,22.8-7.92,37.92ZM481.55,59.82l5.28-25.68h-51.84l-5.28,25.68h51.84Z" style="stroke-width:0px;"/><path d="M638.15,7.26l-5.76,26.88h-38.88l-27.84,131.04h-26.64l27.84-131.04h-38.64l5.52-26.88h104.4Z" style="stroke-width:0px;"/><path d="M740.25,7.02h86.16l-11.28,53.28h-26.4l5.76-26.16h-52.32l-22.08,104.16h77.52l-5.52,26.64h-85.44l4.32-18.96h-18.72l25.2-118.8h18.72l4.08-20.16Z" style="stroke-width:0px;"/><path d="M859.02,7.02h26.16l-11.04,52.8h52.08l11.28-52.8h26.4l-33.6,157.68h-26.4l16.56-78.24h-52.08l-16.56,78.24h-26.4L859.02,7.02Z" style="stroke-width:0px;"/><path d="M1014.67,7.02h63.6l-4.08,20.16h20.16l-29.28,137.52h-26.64l11.28-52.08h-51.84l-11.28,52.08h-26.64l29.28-137.52h21.36l4.08-20.16ZM1055.23,85.98l11.04-52.32h-51.84l-11.04,52.32h51.84Z" style="stroke-width:0px;"/><path d="M1213.41,7.26l-4.61,26.88h-38.88l-27.84,131.04h-26.64l27.84-131.04h-38.64l5.52-26.88h103.25Z" style="stroke-width:0px;"/><path d="M1299.73,7.26l-5.76,26.88h-38.88l-27.84,131.04h-26.64l27.84-131.04h-38.64l5.52-26.88h104.4Z" style="stroke-width:0px;"/><path d="M1329.94,7.02h26.64l-33.6,157.68h-26.64l33.6-157.68Z" style="stroke-width:0px;"/><path d="M1390.68,7.02h26.64l-5.76,27.12h21.6l-5.52,25.92h16.8l-5.28,25.2h13.44l16.56-78.24h26.64l-33.6,157.68h-26.64l11.28-52.8h-21.6l5.28-25.44h-16.8l5.52-26.16h-13.2l-22.32,104.4h-26.64l33.6-157.68Z" style="stroke-width:0px;"/><path d="M1595.33,164.94h-85.44l4.32-20.4h-19.44l24.72-117.36h19.68l4.08-20.16h84.48l-5.76,26.64h-77.52l-22.32,104.4h52.32l11.52-53.28h26.64l-17.28,80.16Z" style="stroke-width:0px;"/></g></mask><mask id="mask-20" x="-.4" y="-.98" width="1637" height="174" maskUnits="userSpaceOnUse"><g id="path-1-outside-1_1912_486-21"><rect x="-.4" y="-.98" width="1637" height="174" style="fill:#fff; stroke-width:0px;"/><path d="M61.64,7.02l85.2.24-5.52,26.88H63.08l-5.28,25.68h58.56l-4.08,19.44h19.68l-14.16,66h-19.92l-4.08,19.68H8.6l5.52-26.64h78.48l11.04-51.84-58.8-.24,3.84-18.96h-19.44l8.64-40.32h19.44l4.32-19.92Z" style="stroke-width:0px;"/><path d="M264.41,7.26l-5.76,26.88h-38.88l-27.84,131.04h-26.64l27.84-131.04h-38.64l5.52-26.88h104.4Z" style="stroke-width:0px;"/><path d="M298.22,7.02h63.6l-4.08,20.16h20.16l-29.28,137.52h-26.64l11.28-52.08h-51.84l-11.28,52.08h-26.64l29.28-137.52h21.36l4.08-20.16ZM338.78,85.98l11.04-52.32h-51.84l-11.04,52.32h51.84Z" style="stroke-width:0px;"/><path d="M477.95,106.14h20.16l-12.48,58.56h-26.64l11.28-52.8h-20.4l5.28-25.44h-31.44l-16.56,78.48-26.64-.24L413.87,7.02h84.48l-4.08,20.16h20.64l-8.4,41.04h-20.64c-3.12,15.36-4.56,22.8-7.92,37.92ZM481.55,59.82l5.28-25.68h-51.84l-5.28,25.68h51.84Z" style="stroke-width:0px;"/><path d="M638.15,7.26l-5.76,26.88h-38.88l-27.84,131.04h-26.64l27.84-131.04h-38.64l5.52-26.88h104.4Z" style="stroke-width:0px;"/><path d="M740.25,7.02h86.16l-11.28,53.28h-26.4l5.76-26.16h-52.32l-22.08,104.16h77.52l-5.52,26.64h-85.44l4.32-18.96h-18.72l25.2-118.8h18.72l4.08-20.16Z" style="stroke-width:0px;"/><path d="M859.02,7.02h26.16l-11.04,52.8h52.08l11.28-52.8h26.4l-33.6,157.68h-26.4l16.56-78.24h-52.08l-16.56,78.24h-26.4L859.02,7.02Z" style="stroke-width:0px;"/><path d="M1014.67,7.02h63.6l-4.08,20.16h20.16l-29.28,137.52h-26.64l11.28-52.08h-51.84l-11.28,52.08h-26.64l29.28-137.52h21.36l4.08-20.16ZM1055.23,85.98l11.04-52.32h-51.84l-11.04,52.32h51.84Z" style="stroke-width:0px;"/><path d="M1213.41,7.26l-4.61,26.88h-38.88l-27.84,131.04h-26.64l27.84-131.04h-38.64l5.52-26.88h103.25Z" style="stroke-width:0px;"/><path d="M1299.73,7.26l-5.76,26.88h-38.88l-27.84,131.04h-26.64l27.84-131.04h-38.64l5.52-26.88h104.4Z" style="stroke-width:0px;"/><path d="M1329.94,7.02h26.64l-33.6,157.68h-26.64l33.6-157.68Z" style="stroke-width:0px;"/><path d="M1390.68,7.02h26.64l-5.76,27.12h21.6l-5.52,25.92h16.8l-5.28,25.2h13.44l16.56-78.24h26.64l-33.6,157.68h-26.64l11.28-52.8h-21.6l5.28-25.44h-16.8l5.52-26.16h-13.2l-22.32,104.4h-26.64l33.6-157.68Z" style="stroke-width:0px;"/><path d="M1595.33,164.94h-85.44l4.32-20.4h-19.44l24.72-117.36h19.68l4.08-20.16h84.48l-5.76,26.64h-77.52l-22.32,104.4h52.32l11.52-53.28h26.64l-17.28,80.16Z" style="stroke-width:0px;"/></g></mask><mask id="mask-21" x="-.4" y="-.98" width="1637" height="174" maskUnits="userSpaceOnUse"><g id="path-1-outside-1_1912_486-22"><rect x="-.4" y="-.98" width="1637" height="174" style="fill:#fff; stroke-width:0px;"/><path d="M61.64,7.02l85.2.24-5.52,26.88H63.08l-5.28,25.68h58.56l-4.08,19.44h19.68l-14.16,66h-19.92l-4.08,19.68H8.6l5.52-26.64h78.48l11.04-51.84-58.8-.24,3.84-18.96h-19.44l8.64-40.32h19.44l4.32-19.92Z" style="stroke-width:0px;"/><path d="M264.41,7.26l-5.76,26.88h-38.88l-27.84,131.04h-26.64l27.84-131.04h-38.64l5.52-26.88h104.4Z" style="stroke-width:0px;"/><path d="M298.22,7.02h63.6l-4.08,20.16h20.16l-29.28,137.52h-26.64l11.28-52.08h-51.84l-11.28,52.08h-26.64l29.28-137.52h21.36l4.08-20.16ZM338.78,85.98l11.04-52.32h-51.84l-11.04,52.32h51.84Z" style="stroke-width:0px;"/><path d="M477.95,106.14h20.16l-12.48,58.56h-26.64l11.28-52.8h-20.4l5.28-25.44h-31.44l-16.56,78.48-26.64-.24L413.87,7.02h84.48l-4.08,20.16h20.64l-8.4,41.04h-20.64c-3.12,15.36-4.56,22.8-7.92,37.92ZM481.55,59.82l5.28-25.68h-51.84l-5.28,25.68h51.84Z" style="stroke-width:0px;"/><path d="M638.15,7.26l-5.76,26.88h-38.88l-27.84,131.04h-26.64l27.84-131.04h-38.64l5.52-26.88h104.4Z" style="stroke-width:0px;"/><path d="M740.25,7.02h86.16l-11.28,53.28h-26.4l5.76-26.16h-52.32l-22.08,104.16h77.52l-5.52,26.64h-85.44l4.32-18.96h-18.72l25.2-118.8h18.72l4.08-20.16Z" style="stroke-width:0px;"/><path d="M859.02,7.02h26.16l-11.04,52.8h52.08l11.28-52.8h26.4l-33.6,157.68h-26.4l16.56-78.24h-52.08l-16.56,78.24h-26.4L859.02,7.02Z" style="stroke-width:0px;"/><path d="M1014.67,7.02h63.6l-4.08,20.16h20.16l-29.28,137.52h-26.64l11.28-52.08h-51.84l-11.28,52.08h-26.64l29.28-137.52h21.36l4.08-20.16ZM1055.23,85.98l11.04-52.32h-51.84l-11.04,52.32h51.84Z" style="stroke-width:0px;"/><path d="M1213.41,7.26l-4.61,26.88h-38.88l-27.84,131.04h-26.64l27.84-131.04h-38.64l5.52-26.88h103.25Z" style="stroke-width:0px;"/><path d="M1299.73,7.26l-5.76,26.88h-38.88l-27.84,131.04h-26.64l27.84-131.04h-38.64l5.52-26.88h104.4Z" style="stroke-width:0px;"/><path d="M1329.94,7.02h26.64l-33.6,157.68h-26.64l33.6-157.68Z" style="stroke-width:0px;"/><path d="M1390.68,7.02h26.64l-5.76,27.12h21.6l-5.52,25.92h16.8l-5.28,25.2h13.44l16.56-78.24h26.64l-33.6,157.68h-26.64l11.28-52.8h-21.6l5.28-25.44h-16.8l5.52-26.16h-13.2l-22.32,104.4h-26.64l33.6-157.68Z" style="stroke-width:0px;"/><path d="M1595.33,164.94h-85.44l4.32-20.4h-19.44l24.72-117.36h19.68l4.08-20.16h84.48l-5.76,26.64h-77.52l-22.32,104.4h52.32l11.52-53.28h26.64l-17.28,80.16Z" style="stroke-width:0px;"/></g></mask><mask id="mask-22" x="-.4" y="-.98" width="1637" height="174" maskUnits="userSpaceOnUse"><g id="path-1-outside-1_1912_486-23"><rect x="-.4" y="-.98" width="1637" height="174" style="fill:#fff; stroke-width:0px;"/><path d="M61.64,7.02l85.2.24-5.52,26.88H63.08l-5.28,25.68h58.56l-4.08,19.44h19.68l-14.16,66h-19.92l-4.08,19.68H8.6l5.52-26.64h78.48l11.04-51.84-58.8-.24,3.84-18.96h-19.44l8.64-40.32h19.44l4.32-19.92Z" style="stroke-width:0px;"/><path d="M264.41,7.26l-5.76,26.88h-38.88l-27.84,131.04h-26.64l27.84-131.04h-38.64l5.52-26.88h104.4Z" style="stroke-width:0px;"/><path d="M298.22,7.02h63.6l-4.08,20.16h20.16l-29.28,137.52h-26.64l11.28-52.08h-51.84l-11.28,52.08h-26.64l29.28-137.52h21.36l4.08-20.16ZM338.78,85.98l11.04-52.32h-51.84l-11.04,52.32h51.84Z" style="stroke-width:0px;"/><path d="M477.95,106.14h20.16l-12.48,58.56h-26.64l11.28-52.8h-20.4l5.28-25.44h-31.44l-16.56,78.48-26.64-.24L413.87,7.02h84.48l-4.08,20.16h20.64l-8.4,41.04h-20.64c-3.12,15.36-4.56,22.8-7.92,37.92ZM481.55,59.82l5.28-25.68h-51.84l-5.28,25.68h51.84Z" style="stroke-width:0px;"/><path d="M638.15,7.26l-5.76,26.88h-38.88l-27.84,131.04h-26.64l27.84-131.04h-38.64l5.52-26.88h104.4Z" style="stroke-width:0px;"/><path d="M740.25,7.02h86.16l-11.28,53.28h-26.4l5.76-26.16h-52.32l-22.08,104.16h77.52l-5.52,26.64h-85.44l4.32-18.96h-18.72l25.2-118.8h18.72l4.08-20.16Z" style="stroke-width:0px;"/><path d="M859.02,7.02h26.16l-11.04,52.8h52.08l11.28-52.8h26.4l-33.6,157.68h-26.4l16.56-78.24h-52.08l-16.56,78.24h-26.4L859.02,7.02Z" style="stroke-width:0px;"/><path d="M1014.67,7.02h63.6l-4.08,20.16h20.16l-29.28,137.52h-26.64l11.28-52.08h-51.84l-11.28,52.08h-26.64l29.28-137.52h21.36l4.08-20.16ZM1055.23,85.98l11.04-52.32h-51.84l-11.04,52.32h51.84Z" style="stroke-width:0px;"/><path d="M1213.41,7.26l-4.61,26.88h-38.88l-27.84,131.04h-26.64l27.84-131.04h-38.64l5.52-26.88h103.25Z" style="stroke-width:0px;"/><path d="M1299.73,7.26l-5.76,26.88h-38.88l-27.84,131.04h-26.64l27.84-131.04h-38.64l5.52-26.88h104.4Z" style="stroke-width:0px;"/><path d="M1329.94,7.02h26.64l-33.6,157.68h-26.64l33.6-157.68Z" style="stroke-width:0px;"/><path d="M1390.68,7.02h26.64l-5.76,27.12h21.6l-5.52,25.92h16.8l-5.28,25.2h13.44l16.56-78.24h26.64l-33.6,157.68h-26.64l11.28-52.8h-21.6l5.28-25.44h-16.8l5.52-26.16h-13.2l-22.32,104.4h-26.64l33.6-157.68Z" style="stroke-width:0px;"/><path d="M1595.33,164.94h-85.44l4.32-20.4h-19.44l24.72-117.36h19.68l4.08-20.16h84.48l-5.76,26.64h-77.52l-22.32,104.4h52.32l11.52-53.28h26.64l-17.28,80.16Z" style="stroke-width:0px;"/></g></mask><mask id="mask-23" x="-.4" y="-.98" width="1637" height="174" maskUnits="userSpaceOnUse"><g id="path-1-outside-1_1912_486-24"><rect x="-.4" y="-.98" width="1637" height="174" style="fill:#fff; stroke-width:0px;"/><path d="M61.64,7.02l85.2.24-5.52,26.88H63.08l-5.28,25.68h58.56l-4.08,19.44h19.68l-14.16,66h-19.92l-4.08,19.68H8.6l5.52-26.64h78.48l11.04-51.84-58.8-.24,3.84-18.96h-19.44l8.64-40.32h19.44l4.32-19.92Z" style="stroke-width:0px;"/><path d="M264.41,7.26l-5.76,26.88h-38.88l-27.84,131.04h-26.64l27.84-131.04h-38.64l5.52-26.88h104.4Z" style="stroke-width:0px;"/><path d="M298.22,7.02h63.6l-4.08,20.16h20.16l-29.28,137.52h-26.64l11.28-52.08h-51.84l-11.28,52.08h-26.64l29.28-137.52h21.36l4.08-20.16ZM338.78,85.98l11.04-52.32h-51.84l-11.04,52.32h51.84Z" style="stroke-width:0px;"/><path d="M477.95,106.14h20.16l-12.48,58.56h-26.64l11.28-52.8h-20.4l5.28-25.44h-31.44l-16.56,78.48-26.64-.24L413.87,7.02h84.48l-4.08,20.16h20.64l-8.4,41.04h-20.64c-3.12,15.36-4.56,22.8-7.92,37.92ZM481.55,59.82l5.28-25.68h-51.84l-5.28,25.68h51.84Z" style="stroke-width:0px;"/><path d="M638.15,7.26l-5.76,26.88h-38.88l-27.84,131.04h-26.64l27.84-131.04h-38.64l5.52-26.88h104.4Z" style="stroke-width:0px;"/><path d="M740.25,7.02h86.16l-11.28,53.28h-26.4l5.76-26.16h-52.32l-22.08,104.16h77.52l-5.52,26.64h-85.44l4.32-18.96h-18.72l25.2-118.8h18.72l4.08-20.16Z" style="stroke-width:0px;"/><path d="M859.02,7.02h26.16l-11.04,52.8h52.08l11.28-52.8h26.4l-33.6,157.68h-26.4l16.56-78.24h-52.08l-16.56,78.24h-26.4L859.02,7.02Z" style="stroke-width:0px;"/><path d="M1014.67,7.02h63.6l-4.08,20.16h20.16l-29.28,137.52h-26.64l11.28-52.08h-51.84l-11.28,52.08h-26.64l29.28-137.52h21.36l4.08-20.16ZM1055.23,85.98l11.04-52.32h-51.84l-11.04,52.32h51.84Z" style="stroke-width:0px;"/><path d="M1213.41,7.26l-4.61,26.88h-38.88l-27.84,131.04h-26.64l27.84-131.04h-38.64l5.52-26.88h103.25Z" style="stroke-width:0px;"/><path d="M1299.73,7.26l-5.76,26.88h-38.88l-27.84,131.04h-26.64l27.84-131.04h-38.64l5.52-26.88h104.4Z" style="stroke-width:0px;"/><path d="M1329.94,7.02h26.64l-33.6,157.68h-26.64l33.6-157.68Z" style="stroke-width:0px;"/><path d="M1390.68,7.02h26.64l-5.76,27.12h21.6l-5.52,25.92h16.8l-5.28,25.2h13.44l16.56-78.24h26.64l-33.6,157.68h-26.64l11.28-52.8h-21.6l5.28-25.44h-16.8l5.52-26.16h-13.2l-22.32,104.4h-26.64l33.6-157.68Z" style="stroke-width:0px;"/><path d="M1595.33,164.94h-85.44l4.32-20.4h-19.44l24.72-117.36h19.68l4.08-20.16h84.48l-5.76,26.64h-77.52l-22.32,104.4h52.32l11.52-53.28h26.64l-17.28,80.16Z" style="stroke-width:0px;"/></g></mask><mask id="mask-24" x="-.4" y="-.98" width="1637" height="174" maskUnits="userSpaceOnUse"><g id="path-1-outside-1_1912_486-25"><rect x="-.4" y="-.98" width="1637" height="174" style="fill:#fff; stroke-width:0px;"/><path d="M61.64,7.02l85.2.24-5.52,26.88H63.08l-5.28,25.68h58.56l-4.08,19.44h19.68l-14.16,66h-19.92l-4.08,19.68H8.6l5.52-26.64h78.48l11.04-51.84-58.8-.24,3.84-18.96h-19.44l8.64-40.32h19.44l4.32-19.92Z" style="stroke-width:0px;"/><path d="M264.41,7.26l-5.76,26.88h-38.88l-27.84,131.04h-26.64l27.84-131.04h-38.64l5.52-26.88h104.4Z" style="stroke-width:0px;"/><path d="M298.22,7.02h63.6l-4.08,20.16h20.16l-29.28,137.52h-26.64l11.28-52.08h-51.84l-11.28,52.08h-26.64l29.28-137.52h21.36l4.08-20.16ZM338.78,85.98l11.04-52.32h-51.84l-11.04,52.32h51.84Z" style="stroke-width:0px;"/><path d="M477.95,106.14h20.16l-12.48,58.56h-26.64l11.28-52.8h-20.4l5.28-25.44h-31.44l-16.56,78.48-26.64-.24L413.87,7.02h84.48l-4.08,20.16h20.64l-8.4,41.04h-20.64c-3.12,15.36-4.56,22.8-7.92,37.92ZM481.55,59.82l5.28-25.68h-51.84l-5.28,25.68h51.84Z" style="stroke-width:0px;"/><path d="M638.15,7.26l-5.76,26.88h-38.88l-27.84,131.04h-26.64l27.84-131.04h-38.64l5.52-26.88h104.4Z" style="stroke-width:0px;"/><path d="M740.25,7.02h86.16l-11.28,53.28h-26.4l5.76-26.16h-52.32l-22.08,104.16h77.52l-5.52,26.64h-85.44l4.32-18.96h-18.72l25.2-118.8h18.72l4.08-20.16Z" style="stroke-width:0px;"/><path d="M859.02,7.02h26.16l-11.04,52.8h52.08l11.28-52.8h26.4l-33.6,157.68h-26.4l16.56-78.24h-52.08l-16.56,78.24h-26.4L859.02,7.02Z" style="stroke-width:0px;"/><path d="M1014.67,7.02h63.6l-4.08,20.16h20.16l-29.28,137.52h-26.64l11.28-52.08h-51.84l-11.28,52.08h-26.64l29.28-137.52h21.36l4.08-20.16ZM1055.23,85.98l11.04-52.32h-51.84l-11.04,52.32h51.84Z" style="stroke-width:0px;"/><path d="M1213.41,7.26l-4.61,26.88h-38.88l-27.84,131.04h-26.64l27.84-131.04h-38.64l5.52-26.88h103.25Z" style="stroke-width:0px;"/><path d="M1299.73,7.26l-5.76,26.88h-38.88l-27.84,131.04h-26.64l27.84-131.04h-38.64l5.52-26.88h104.4Z" style="stroke-width:0px;"/><path d="M1329.94,7.02h26.64l-33.6,157.68h-26.64l33.6-157.68Z" style="stroke-width:0px;"/><path d="M1390.68,7.02h26.64l-5.76,27.12h21.6l-5.52,25.92h16.8l-5.28,25.2h13.44l16.56-78.24h26.64l-33.6,157.68h-26.64l11.28-52.8h-21.6l5.28-25.44h-16.8l5.52-26.16h-13.2l-22.32,104.4h-26.64l33.6-157.68Z" style="stroke-width:0px;"/><path d="M1595.33,164.94h-85.44l4.32-20.4h-19.44l24.72-117.36h19.68l4.08-20.16h84.48l-5.76,26.64h-77.52l-22.32,104.4h52.32l11.52-53.28h26.64l-17.28,80.16Z" style="stroke-width:0px;"/></g></mask><mask id="mask-25" x="-.4" y="-.98" width="1637" height="174" maskUnits="userSpaceOnUse"><g id="path-1-outside-1_1912_486-26"><rect x="-.4" y="-.98" width="1637" height="174" style="fill:#fff; stroke-width:0px;"/><path d="M61.64,7.02l85.2.24-5.52,26.88H63.08l-5.28,25.68h58.56l-4.08,19.44h19.68l-14.16,66h-19.92l-4.08,19.68H8.6l5.52-26.64h78.48l11.04-51.84-58.8-.24,3.84-18.96h-19.44l8.64-40.32h19.44l4.32-19.92Z" style="stroke-width:0px;"/><path d="M264.41,7.26l-5.76,26.88h-38.88l-27.84,131.04h-26.64l27.84-131.04h-38.64l5.52-26.88h104.4Z" style="stroke-width:0px;"/><path d="M298.22,7.02h63.6l-4.08,20.16h20.16l-29.28,137.52h-26.64l11.28-52.08h-51.84l-11.28,52.08h-26.64l29.28-137.52h21.36l4.08-20.16ZM338.78,85.98l11.04-52.32h-51.84l-11.04,52.32h51.84Z" style="stroke-width:0px;"/><path d="M477.95,106.14h20.16l-12.48,58.56h-26.64l11.28-52.8h-20.4l5.28-25.44h-31.44l-16.56,78.48-26.64-.24L413.87,7.02h84.48l-4.08,20.16h20.64l-8.4,41.04h-20.64c-3.12,15.36-4.56,22.8-7.92,37.92ZM481.55,59.82l5.28-25.68h-51.84l-5.28,25.68h51.84Z" style="stroke-width:0px;"/><path d="M638.15,7.26l-5.76,26.88h-38.88l-27.84,131.04h-26.64l27.84-131.04h-38.64l5.52-26.88h104.4Z" style="stroke-width:0px;"/><path d="M740.25,7.02h86.16l-11.28,53.28h-26.4l5.76-26.16h-52.32l-22.08,104.16h77.52l-5.52,26.64h-85.44l4.32-18.96h-18.72l25.2-118.8h18.72l4.08-20.16Z" style="stroke-width:0px;"/><path d="M859.02,7.02h26.16l-11.04,52.8h52.08l11.28-52.8h26.4l-33.6,157.68h-26.4l16.56-78.24h-52.08l-16.56,78.24h-26.4L859.02,7.02Z" style="stroke-width:0px;"/><path d="M1014.67,7.02h63.6l-4.08,20.16h20.16l-29.28,137.52h-26.64l11.28-52.08h-51.84l-11.28,52.08h-26.64l29.28-137.52h21.36l4.08-20.16ZM1055.23,85.98l11.04-52.32h-51.84l-11.04,52.32h51.84Z" style="stroke-width:0px;"/><path d="M1213.41,7.26l-4.61,26.88h-38.88l-27.84,131.04h-26.64l27.84-131.04h-38.64l5.52-26.88h103.25Z" style="stroke-width:0px;"/><path d="M1299.73,7.26l-5.76,26.88h-38.88l-27.84,131.04h-26.64l27.84-131.04h-38.64l5.52-26.88h104.4Z" style="stroke-width:0px;"/><path d="M1329.94,7.02h26.64l-33.6,157.68h-26.64l33.6-157.68Z" style="stroke-width:0px;"/><path d="M1390.68,7.02h26.64l-5.76,27.12h21.6l-5.52,25.92h16.8l-5.28,25.2h13.44l16.56-78.24h26.64l-33.6,157.68h-26.64l11.28-52.8h-21.6l5.28-25.44h-16.8l5.52-26.16h-13.2l-22.32,104.4h-26.64l33.6-157.68Z" style="stroke-width:0px;"/><path d="M1595.33,164.94h-85.44l4.32-20.4h-19.44l24.72-117.36h19.68l4.08-20.16h84.48l-5.76,26.64h-77.52l-22.32,104.4h52.32l11.52-53.28h26.64l-17.28,80.16Z" style="stroke-width:0px;"/></g></mask></defs><path d="M754.05,18.56h86.16l-11.28,53.28h-26.4l5.76-26.16h-52.32l-22.08,104.16h77.52l-5.52,26.64h-85.44l4.32-18.96h-18.72l25.2-118.8h18.72l4.08-20.16Z" style="fill:url(#linear-gradient); stroke-width:0px;"/><path d="M872.82,18.56h26.16l-11.04,52.8h52.08l11.28-52.8h26.4l-33.6,157.68h-26.4l16.56-78.24h-52.08l-16.56,78.24h-26.4l33.6-157.68Z" style="fill:url(#linear-gradient-2); stroke-width:0px;"/><path d="M1028.47,18.56h63.6l-4.08,20.16h20.16l-29.28,137.52h-26.64l11.28-52.08h-51.84l-11.28,52.08h-26.64l29.28-137.52h21.36l4.08-20.16ZM1069.03,97.52l11.04-52.32h-51.84l-11.04,52.32h51.84Z" style="fill:url(#linear-gradient-3); stroke-width:0px;"/><path d="M1227.21,18.8l-4.61,26.88h-38.88l-27.84,131.04h-26.64l27.84-131.04h-38.64l5.52-26.88h103.25Z" style="fill:url(#linear-gradient-4); stroke-width:0px;"/><path d="M1313.53,18.8l-5.76,26.88h-38.88l-27.84,131.04h-26.64l27.84-131.04h-38.64l5.52-26.88h104.4Z" style="fill:url(#linear-gradient-5); stroke-width:0px;"/><path d="M1343.74,18.56h26.64l-33.6,157.68h-26.64l33.6-157.68Z" style="fill:url(#linear-gradient-6); stroke-width:0px;"/><path d="M1404.48,18.56h26.64l-5.76,27.12h21.6l-5.52,25.92h16.8l-5.28,25.2h13.44l16.56-78.24h26.64l-33.6,157.68h-26.64l11.28-52.8h-21.6l5.28-25.44h-16.8l5.52-26.16h-13.2l-22.32,104.4h-26.64l33.6-157.68Z" style="fill:url(#linear-gradient-7); stroke-width:0px;"/><path d="M1609.13,176.48h-85.44l4.32-20.4h-19.44l24.72-117.36h19.68l4.08-20.16h84.48l-5.76,26.64h-77.52l-22.32,104.4h52.32l11.52-53.28h26.64l-17.28,80.16Z" style="fill:url(#linear-gradient-8); stroke-width:0px;"/><g style="mask:url(#mask);"><path d="M754.05,18.56h86.16l-11.28,53.28h-26.4l5.76-26.16h-52.32l-22.08,104.16h77.52l-5.52,26.64h-85.44l4.32-18.96h-18.72l25.2-118.8h18.72l4.08-20.16Z" style="fill:none; stroke:#000; stroke-width:14px;"/></g><g style="mask:url(#mask-1);"><path d="M872.82,18.56h26.16l-11.04,52.8h52.08l11.28-52.8h26.4l-33.6,157.68h-26.4l16.56-78.24h-52.08l-16.56,78.24h-26.4l33.6-157.68Z" style="fill:none; stroke:#000; stroke-width:14px;"/></g><g style="mask:url(#mask-2);"><path d="M1028.47,18.56h63.6l-4.08,20.16h20.16l-29.28,137.52h-26.64l11.28-52.08h-51.84l-11.28,52.08h-26.64l29.28-137.52h21.36l4.08-20.16ZM1069.03,97.52l11.04-52.32h-51.84l-11.04,52.32h51.84Z" style="fill:none; stroke:#000; stroke-width:14px;"/></g><g style="mask:url(#mask-3);"><path d="M1227.21,18.8l-4.61,26.88h-38.88l-27.84,131.04h-26.64l27.84-131.04h-38.64l5.52-26.88h103.25Z" style="fill:none; stroke:#000; stroke-width:14px;"/></g><g style="mask:url(#mask-4);"><path d="M1313.53,18.8l-5.76,26.88h-38.88l-27.84,131.04h-26.64l27.84-131.04h-38.64l5.52-26.88h104.4Z" style="fill:none; stroke:#000; stroke-width:14px;"/></g><g style="mask:url(#mask-5);"><path d="M1343.74,18.56h26.64l-33.6,157.68h-26.64l33.6-157.68Z" style="fill:none; stroke:#000; stroke-width:14px;"/></g><g style="mask:url(#mask-6);"><path d="M1404.48,18.56h26.64l-5.76,27.12h21.6l-5.52,25.92h16.8l-5.28,25.2h13.44l16.56-78.24h26.64l-33.6,157.68h-26.64l11.28-52.8h-21.6l5.28-25.44h-16.8l5.52-26.16h-13.2l-22.32,104.4h-26.64l33.6-157.68Z" style="fill:none; stroke:#000; stroke-width:14px;"/></g><g style="mask:url(#mask-7);"><path d="M1609.13,176.48h-85.44l4.32-20.4h-19.44l24.72-117.36h19.68l4.08-20.16h84.48l-5.76,26.64h-77.52l-22.32,104.4h52.32l11.52-53.28h26.64l-17.28,80.16Z" style="fill:none; stroke:#000; stroke-width:14px;"/></g><path d="M74.94,19.12l85.2.24-5.52,26.88h-78.24l-5.28,25.68h58.56l-4.08,19.44h19.68l-14.16,66h-19.92l-4.08,19.68H21.9l5.52-26.64h78.48l11.04-51.84-58.8-.24,3.84-18.96h-19.44l8.64-40.32h19.44l4.32-19.92Z" style="fill:url(#linear-gradient-9); stroke-width:0px;"/><path d="M277.71,19.36l-5.76,26.88h-38.88l-27.84,131.04h-26.64l27.84-131.04h-38.64l5.52-26.88h104.4Z" style="fill:url(#linear-gradient-10); stroke-width:0px;"/><path d="M311.52,19.12h63.6l-4.08,20.16h20.16l-29.28,137.52h-26.64l11.28-52.08h-51.84l-11.28,52.08h-26.64l29.28-137.52h21.36l4.08-20.16ZM352.08,98.08l11.04-52.32h-51.84l-11.04,52.32h51.84Z" style="fill:url(#linear-gradient-11); stroke-width:0px;"/><path d="M491.25,118.24h20.16l-12.48,58.56h-26.64l11.28-52.8h-20.4l5.28-25.44h-31.44l-16.56,78.48-26.64-.24,33.36-157.68h84.48l-4.08,20.16h20.64l-8.4,41.04h-20.64c-3.12,15.36-4.56,22.8-7.92,37.92ZM494.85,71.92l5.28-25.68h-51.84l-5.28,25.68h51.84Z" style="fill:url(#linear-gradient-12); stroke-width:0px;"/><path d="M651.45,19.36l-5.76,26.88h-38.88l-27.84,131.04h-26.64l27.84-131.04h-38.64l5.52-26.88h104.4Z" style="fill:url(#linear-gradient-13); stroke-width:0px;"/><g style="mask:url(#mask-8);"><path d="M74.94,19.12l85.2.24-5.52,26.88h-78.24l-5.28,25.68h58.56l-4.08,19.44h19.68l-14.16,66h-19.92l-4.08,19.68H21.9l5.52-26.64h78.48l11.04-51.84-58.8-.24,3.84-18.96h-19.44l8.64-40.32h19.44l4.32-19.92Z" style="fill:none; stroke:#000; stroke-width:14px;"/></g><g style="mask:url(#mask-9);"><path d="M277.71,19.36l-5.76,26.88h-38.88l-27.84,131.04h-26.64l27.84-131.04h-38.64l5.52-26.88h104.4Z" style="fill:none; stroke:#000; stroke-width:14px;"/></g><g style="mask:url(#mask-10);"><path d="M311.52,19.12h63.6l-4.08,20.16h20.16l-29.28,137.52h-26.64l11.28-52.08h-51.84l-11.28,52.08h-26.64l29.28-137.52h21.36l4.08-20.16ZM352.08,98.08l11.04-52.32h-51.84l-11.04,52.32h51.84Z" style="fill:none; stroke:#000; stroke-width:14px;"/></g><g style="mask:url(#mask-11);"><path d="M491.25,118.24h20.16l-12.48,58.56h-26.64l11.28-52.8h-20.4l5.28-25.44h-31.44l-16.56,78.48-26.64-.24,33.36-157.68h84.48l-4.08,20.16h20.64l-8.4,41.04h-20.64c-3.12,15.36-4.56,22.8-7.92,37.92ZM494.85,71.92l5.28-25.68h-51.84l-5.28,25.68h51.84Z" style="fill:none; stroke:#000; stroke-width:14px;"/></g><g style="mask:url(#mask-12);"><path d="M651.45,19.36l-5.76,26.88h-38.88l-27.84,131.04h-26.64l27.84-131.04h-38.64l5.52-26.88h104.4Z" style="fill:none; stroke:#000; stroke-width:14px;"/></g><path d="M61.64,7.02l85.2.24-5.52,26.88H63.08l-5.28,25.68h58.56l-4.08,19.44h19.68l-14.16,66h-19.92l-4.08,19.68H8.6l5.52-26.64h78.48l11.04-51.84-58.8-.24,3.84-18.96h-19.44l8.64-40.32h19.44l4.32-19.92Z" style="fill:url(#linear-gradient-14); stroke-width:0px;"/><path d="M264.41,7.26l-5.76,26.88h-38.88l-27.84,131.04h-26.64l27.84-131.04h-38.64l5.52-26.88h104.4Z" style="fill:url(#linear-gradient-15); stroke-width:0px;"/><path d="M298.22,7.02h63.6l-4.08,20.16h20.16l-29.28,137.52h-26.64l11.28-52.08h-51.84l-11.28,52.08h-26.64l29.28-137.52h21.36l4.08-20.16ZM338.78,85.98l11.04-52.32h-51.84l-11.04,52.32h51.84Z" style="fill:url(#linear-gradient-16); stroke-width:0px;"/><path d="M477.95,106.14h20.16l-12.48,58.56h-26.64l11.28-52.8h-20.4l5.28-25.44h-31.44l-16.56,78.48-26.64-.24L413.87,7.02h84.48l-4.08,20.16h20.64l-8.4,41.04h-20.64c-3.12,15.36-4.56,22.8-7.92,37.92ZM481.55,59.82l5.28-25.68h-51.84l-5.28,25.68h51.84Z" style="fill:url(#linear-gradient-17); stroke-width:0px;"/><path d="M638.15,7.26l-5.76,26.88h-38.88l-27.84,131.04h-26.64l27.84-131.04h-38.64l5.52-26.88h104.4Z" style="fill:url(#linear-gradient-18); stroke-width:0px;"/><path d="M740.25,7.02h86.16l-11.28,53.28h-26.4l5.76-26.16h-52.32l-22.08,104.16h77.52l-5.52,26.64h-85.44l4.32-18.96h-18.72l25.2-118.8h18.72l4.08-20.16Z" style="fill:url(#linear-gradient-19); stroke-width:0px;"/><path d="M859.02,7.02h26.16l-11.04,52.8h52.08l11.28-52.8h26.4l-33.6,157.68h-26.4l16.56-78.24h-52.08l-16.56,78.24h-26.4L859.02,7.02Z" style="fill:url(#linear-gradient-20); stroke-width:0px;"/><path d="M1014.67,7.02h63.6l-4.08,20.16h20.16l-29.28,137.52h-26.64l11.28-52.08h-51.84l-11.28,52.08h-26.64l29.28-137.52h21.36l4.08-20.16ZM1055.23,85.98l11.04-52.32h-51.84l-11.04,52.32h51.84Z" style="fill:url(#linear-gradient-21); stroke-width:0px;"/><path d="M1213.41,7.26l-4.61,26.88h-38.88l-27.84,131.04h-26.64l27.84-131.04h-38.64l5.52-26.88h103.25Z" style="fill:url(#linear-gradient-22); stroke-width:0px;"/><path d="M1299.73,7.26l-5.76,26.88h-38.88l-27.84,131.04h-26.64l27.84-131.04h-38.64l5.52-26.88h104.4Z" style="fill:url(#linear-gradient-23); stroke-width:0px;"/><path d="M1329.94,7.02h26.64l-33.6,157.68h-26.64l33.6-157.68Z" style="fill:url(#linear-gradient-24); stroke-width:0px;"/><path d="M1390.68,7.02h26.64l-5.76,27.12h21.6l-5.52,25.92h16.8l-5.28,25.2h13.44l16.56-78.24h26.64l-33.6,157.68h-26.64l11.28-52.8h-21.6l5.28-25.44h-16.8l5.52-26.16h-13.2l-22.32,104.4h-26.64l33.6-157.68Z" style="fill:url(#linear-gradient-25); stroke-width:0px;"/><path d="M1595.33,164.94h-85.44l4.32-20.4h-19.44l24.72-117.36h19.68l4.08-20.16h84.48l-5.76,26.64h-77.52l-22.32,104.4h52.32l11.52-53.28h26.64l-17.28,80.16Z" style="fill:url(#linear-gradient-26); stroke-width:0px;"/><g style="mask:url(#mask-13);"><path d="M61.64,7.02l85.2.24-5.52,26.88H63.08l-5.28,25.68h58.56l-4.08,19.44h19.68l-14.16,66h-19.92l-4.08,19.68H8.6l5.52-26.64h78.48l11.04-51.84-58.8-.24,3.84-18.96h-19.44l8.64-40.32h19.44l4.32-19.92Z" style="fill:none; stroke:#000; stroke-width:14px;"/></g><g style="mask:url(#mask-14);"><path d="M264.41,7.26l-5.76,26.88h-38.88l-27.84,131.04h-26.64l27.84-131.04h-38.64l5.52-26.88h104.4Z" style="fill:none; stroke:#000; stroke-width:14px;"/></g><g style="mask:url(#mask-15);"><path d="M298.22,7.02h63.6l-4.08,20.16h20.16l-29.28,137.52h-26.64l11.28-52.08h-51.84l-11.28,52.08h-26.64l29.28-137.52h21.36l4.08-20.16ZM338.78,85.98l11.04-52.32h-51.84l-11.04,52.32h51.84Z" style="fill:none; stroke:#000; stroke-width:14px;"/></g><g style="mask:url(#mask-16);"><path d="M477.95,106.14h20.16l-12.48,58.56h-26.64l11.28-52.8h-20.4l5.28-25.44h-31.44l-16.56,78.48-26.64-.24L413.87,7.02h84.48l-4.08,20.16h20.64l-8.4,41.04h-20.64c-3.12,15.36-4.56,22.8-7.92,37.92ZM481.55,59.82l5.28-25.68h-51.84l-5.28,25.68h51.84Z" style="fill:none; stroke:#000; stroke-width:14px;"/></g><g style="mask:url(#mask-17);"><path d="M638.15,7.26l-5.76,26.88h-38.88l-27.84,131.04h-26.64l27.84-131.04h-38.64l5.52-26.88h104.4Z" style="fill:none; stroke:#000; stroke-width:14px;"/></g><g style="mask:url(#mask-18);"><path d="M740.25,7.02h86.16l-11.28,53.28h-26.4l5.76-26.16h-52.32l-22.08,104.16h77.52l-5.52,26.64h-85.44l4.32-18.96h-18.72l25.2-118.8h18.72l4.08-20.16Z" style="fill:none; stroke:#000; stroke-width:14px;"/></g><g style="mask:url(#mask-19);"><path d="M859.02,7.02h26.16l-11.04,52.8h52.08l11.28-52.8h26.4l-33.6,157.68h-26.4l16.56-78.24h-52.08l-16.56,78.24h-26.4L859.02,7.02Z" style="fill:none; stroke:#000; stroke-width:14px;"/></g><g style="mask:url(#mask-20);"><path d="M1014.67,7.02h63.6l-4.08,20.16h20.16l-29.28,137.52h-26.64l11.28-52.08h-51.84l-11.28,52.08h-26.64l29.28-137.52h21.36l4.08-20.16ZM1055.23,85.98l11.04-52.32h-51.84l-11.04,52.32h51.84Z" style="fill:none; stroke:#000; stroke-width:14px;"/></g><g style="mask:url(#mask-21);"><path d="M1213.41,7.26l-4.61,26.88h-38.88l-27.84,131.04h-26.64l27.84-131.04h-38.64l5.52-26.88h103.25Z" style="fill:none; stroke:#000; stroke-width:14px;"/></g><g style="mask:url(#mask-22);"><path d="M1299.73,7.26l-5.76,26.88h-38.88l-27.84,131.04h-26.64l27.84-131.04h-38.64l5.52-26.88h104.4Z" style="fill:none; stroke:#000; stroke-width:14px;"/></g><g style="mask:url(#mask-23);"><path d="M1329.94,7.02h26.64l-33.6,157.68h-26.64l33.6-157.68Z" style="fill:none; stroke:#000; stroke-width:14px;"/></g><g style="mask:url(#mask-24);"><path d="M1390.68,7.02h26.64l-5.76,27.12h21.6l-5.52,25.92h16.8l-5.28,25.2h13.44l16.56-78.24h26.64l-33.6,157.68h-26.64l11.28-52.8h-21.6l5.28-25.44h-16.8l5.52-26.16h-13.2l-22.32,104.4h-26.64l33.6-157.68Z" style="fill:none; stroke:#000; stroke-width:14px;"/></g><g style="mask:url(#mask-25);"><path d="M1595.33,164.94h-85.44l4.32-20.4h-19.44l24.72-117.36h19.68l4.08-20.16h84.48l-5.76,26.64h-77.52l-22.32,104.4h52.32l11.52-53.28h26.64l-17.28,80.16Z" style="fill:none; stroke:#000; stroke-width:14px;"/></g></svg>