<svg xmlns="http://www.w3.org/2000/svg" width="100%" height="100%" viewBox="0 0 150 37.5"  preserveAspectRatio="xMidYMid meet" version="1.0"><defs><g/></defs><path stroke-linecap="butt" transform="matrix(0.296053, 0, 0, 0.296053, 5.206759, 15.932113)" fill="none" stroke-linejoin="miter" d="M 42.487031 -18.322083 L 42.487031 -9.996388 L 34.148142 -9.996388 L 34.148142 -18.322083 Z M 34.148142 -9.996388 L 34.148142 -1.657499 L 25.822447 -1.657499 L 25.822447 -9.996388 Z M 50.812726 -9.996388 L 50.812726 -1.657499 L 42.487031 -1.657499 L 42.487031 -9.996388 Z M 25.822447 -1.657499 L 25.822447 15.007085 L 50.812726 15.007085 L 50.812726 -1.657499 L 59.151615 -1.657499 L 59.151615 39.997364 L 50.812726 39.997364 L 50.812726 23.33278 L 25.822447 23.33278 L 25.822447 39.997364 L 17.483558 39.997364 L 17.483558 -1.657499 Z M 79.1412 -9.996388 L 79.1412 6.668196 L 70.815505 6.668196 L 70.815505 -9.996388 Z M 104.144673 -18.322083 L 104.144673 -9.996388 L 79.1412 -9.996388 L 79.1412 -18.322083 Z M 112.470368 -9.996388 L 112.470368 -1.657499 L 104.144673 -1.657499 L 104.144673 -9.996388 Z M 104.144673 6.668196 L 104.144673 15.007085 L 79.1412 15.007085 L 79.1412 6.668196 Z M 112.470368 15.007085 L 112.470368 31.671669 L 104.144673 31.671669 L 104.144673 15.007085 Z M 104.144673 31.671669 L 104.144673 39.997364 L 79.1412 39.997364 L 79.1412 31.671669 Z M 79.1412 23.33278 L 79.1412 31.671669 L 70.815505 31.671669 L 70.815505 23.33278 Z M 194.117593 -18.322083 L 194.117593 6.668196 L 185.791898 6.668196 L 185.791898 -18.322083 Z M 210.782177 -18.322083 L 210.782177 6.668196 L 202.456482 6.668196 L 202.456482 -18.322083 Z M 255.775235 -18.322083 L 255.775235 -9.996388 L 247.44954 -9.996388 L 247.44954 -18.322083 Z M 247.44954 -9.996388 L 247.44954 -1.657499 L 239.110651 -1.657499 L 239.110651 -9.996388 Z M 264.114124 -9.996388 L 264.114124 -1.657499 L 255.775235 -1.657499 L 255.775235 -9.996388 Z M 239.110651 -1.657499 L 239.110651 15.007085 L 264.114124 15.007085 L 264.114124 -1.657499 L 272.439819 -1.657499 L 272.439819 39.997364 L 264.114124 39.997364 L 264.114124 23.33278 L 239.110651 23.33278 L 239.110651 39.997364 L 230.784956 39.997364 L 230.784956 -1.657499 Z M 292.442597 -9.996388 L 292.442597 6.668196 L 284.103708 6.668196 L 284.103708 -9.996388 Z M 317.432876 -18.322083 L 317.432876 -9.996388 L 292.442597 -9.996388 L 292.442597 -18.322083 Z M 325.771765 -9.996388 L 325.771765 -1.657499 L 317.432876 -1.657499 L 317.432876 -9.996388 Z M 317.432876 6.668196 L 317.432876 15.007085 L 292.442597 15.007085 L 292.442597 6.668196 Z M 325.771765 15.007085 L 325.771765 31.671669 L 317.432876 31.671669 L 317.432876 15.007085 Z M 317.432876 31.671669 L 317.432876 39.997364 L 292.442597 39.997364 L 292.442597 31.671669 Z M 292.442597 23.33278 L 292.442597 31.671669 L 284.103708 31.671669 L 284.103708 23.33278 Z M 337.42246 39.997364 L 337.42246 -18.322083 L 345.76135 -18.322083 L 345.76135 6.668196 L 370.751628 6.668196 L 370.751628 -18.322083 L 379.090518 -18.322083 L 379.090518 39.997364 L 370.751628 39.997364 L 370.751628 15.007085 L 345.76135 15.007085 L 345.76135 39.997364 Z M 407.418991 -18.322083 L 407.418991 6.668196 L 399.080102 6.668196 L 399.080102 -18.322083 Z M 424.083575 -18.322083 L 424.083575 6.668196 L 415.744686 6.668196 L 415.744686 -18.322083 Z M 424.083575 -18.322083 " stroke="#000000" stroke-width="4.99992" stroke-opacity="1" stroke-miterlimit="4"/><g fill="#000000" fill-opacity="1"><g transform="translate(7.917491, 27.774218)"><g><path d="M 9.875 -17.265625 L 9.875 -14.796875 L 7.40625 -14.796875 L 7.40625 -17.265625 Z M 7.40625 -14.796875 L 7.40625 -12.328125 L 4.9375 -12.328125 L 4.9375 -14.796875 Z M 12.328125 -14.796875 L 12.328125 -12.328125 L 9.875 -12.328125 L 9.875 -14.796875 Z M 4.9375 -12.328125 L 4.9375 -7.40625 L 12.328125 -7.40625 L 12.328125 -12.328125 L 14.796875 -12.328125 L 14.796875 0 L 12.328125 0 L 12.328125 -4.9375 L 4.9375 -4.9375 L 4.9375 0 L 2.46875 0 L 2.46875 -12.328125 Z M 4.9375 -12.328125 "/></g></g></g><g fill="#000000" fill-opacity="1"><g transform="translate(23.703961, 27.774218)"><g><path d="M 4.9375 -14.796875 L 4.9375 -9.875 L 2.46875 -9.875 L 2.46875 -14.796875 Z M 12.328125 -17.265625 L 12.328125 -14.796875 L 4.9375 -14.796875 L 4.9375 -17.265625 Z M 14.796875 -14.796875 L 14.796875 -12.328125 L 12.328125 -12.328125 L 12.328125 -14.796875 Z M 12.328125 -9.875 L 12.328125 -7.40625 L 4.9375 -7.40625 L 4.9375 -9.875 Z M 14.796875 -7.40625 L 14.796875 -2.46875 L 12.328125 -2.46875 L 12.328125 -7.40625 Z M 12.328125 -2.46875 L 12.328125 0 L 4.9375 0 L 4.9375 -2.46875 Z M 4.9375 -4.9375 L 4.9375 -2.46875 L 2.46875 -2.46875 L 2.46875 -4.9375 Z M 4.9375 -4.9375 "/></g></g></g><g fill="#000000" fill-opacity="1"><g transform="translate(39.490431, 27.774218)"><g/></g></g><g fill="#000000" fill-opacity="1"><g transform="translate(55.276903, 27.774218)"><g><path d="M 7.40625 -17.265625 L 7.40625 -9.875 L 4.9375 -9.875 L 4.9375 -17.265625 Z M 12.328125 -17.265625 L 12.328125 -9.875 L 9.875 -9.875 L 9.875 -17.265625 Z M 12.328125 -17.265625 "/></g></g></g><g fill="#000000" fill-opacity="1"><g transform="translate(71.06337, 27.774218)"><g><path d="M 9.875 -17.265625 L 9.875 -14.796875 L 7.40625 -14.796875 L 7.40625 -17.265625 Z M 7.40625 -14.796875 L 7.40625 -12.328125 L 4.9375 -12.328125 L 4.9375 -14.796875 Z M 12.328125 -14.796875 L 12.328125 -12.328125 L 9.875 -12.328125 L 9.875 -14.796875 Z M 4.9375 -12.328125 L 4.9375 -7.40625 L 12.328125 -7.40625 L 12.328125 -12.328125 L 14.796875 -12.328125 L 14.796875 0 L 12.328125 0 L 12.328125 -4.9375 L 4.9375 -4.9375 L 4.9375 0 L 2.46875 0 L 2.46875 -12.328125 Z M 4.9375 -12.328125 "/></g></g></g><g fill="#000000" fill-opacity="1"><g transform="translate(86.849837, 27.774218)"><g><path d="M 4.9375 -14.796875 L 4.9375 -9.875 L 2.46875 -9.875 L 2.46875 -14.796875 Z M 12.328125 -17.265625 L 12.328125 -14.796875 L 4.9375 -14.796875 L 4.9375 -17.265625 Z M 14.796875 -14.796875 L 14.796875 -12.328125 L 12.328125 -12.328125 L 12.328125 -14.796875 Z M 12.328125 -9.875 L 12.328125 -7.40625 L 4.9375 -7.40625 L 4.9375 -9.875 Z M 14.796875 -7.40625 L 14.796875 -2.46875 L 12.328125 -2.46875 L 12.328125 -7.40625 Z M 12.328125 -2.46875 L 12.328125 0 L 4.9375 0 L 4.9375 -2.46875 Z M 4.9375 -4.9375 L 4.9375 -2.46875 L 2.46875 -2.46875 L 2.46875 -4.9375 Z M 4.9375 -4.9375 "/></g></g></g><g fill="#000000" fill-opacity="1"><g transform="translate(102.636305, 27.774218)"><g><path d="M 2.46875 0 L 2.46875 -17.265625 L 4.9375 -17.265625 L 4.9375 -9.875 L 12.328125 -9.875 L 12.328125 -17.265625 L 14.796875 -17.265625 L 14.796875 0 L 12.328125 0 L 12.328125 -7.40625 L 4.9375 -7.40625 L 4.9375 0 Z M 2.46875 0 "/></g></g></g><g fill="#000000" fill-opacity="1"><g transform="translate(118.422772, 27.774218)"><g><path d="M 7.40625 -17.265625 L 7.40625 -9.875 L 4.9375 -9.875 L 4.9375 -17.265625 Z M 12.328125 -17.265625 L 12.328125 -9.875 L 9.875 -9.875 L 9.875 -17.265625 Z M 12.328125 -17.265625 "/></g></g></g><path stroke-linecap="butt" transform="matrix(0.740132, 0, 0, 0.740132, 7.180412, 14.658306)" fill="none" stroke-linejoin="miter" d="M 13.330689 -8.325834 L 13.330689 -4.995556 L 9.995133 -4.995556 L 9.995133 -8.325834 Z M 9.995133 -4.995556 L 9.995133 -1.660001 L 6.664855 -1.660001 L 6.664855 -4.995556 Z M 16.660966 -4.995556 L 16.660966 -1.660001 L 13.330689 -1.660001 L 13.330689 -4.995556 Z M 6.664855 -1.660001 L 6.664855 5.000555 L 16.660966 5.000555 L 16.660966 -1.660001 L 19.996522 -1.660001 L 19.996522 15.001945 L 16.660966 15.001945 L 16.660966 8.336111 L 6.664855 8.336111 L 6.664855 15.001945 L 3.334577 15.001945 L 3.334577 -1.660001 Z M 27.987078 -4.995556 L 27.987078 1.670277 L 24.6568 1.670277 L 24.6568 -4.995556 Z M 37.98319 -8.325834 L 37.98319 -4.995556 L 27.987078 -4.995556 L 27.987078 -8.325834 Z M 41.318745 -4.995556 L 41.318745 -1.660001 L 37.98319 -1.660001 L 37.98319 -4.995556 Z M 37.98319 1.670277 L 37.98319 5.000555 L 27.987078 5.000555 L 27.987078 1.670277 Z M 41.318745 5.000555 L 41.318745 11.666389 L 37.98319 11.666389 L 37.98319 5.000555 Z M 37.98319 11.666389 L 37.98319 15.001945 L 27.987078 15.001945 L 27.987078 11.666389 Z M 27.987078 8.336111 L 27.987078 11.666389 L 24.6568 11.666389 L 24.6568 8.336111 Z M 73.96708 -8.325834 L 73.96708 1.670277 L 70.636802 1.670277 L 70.636802 -8.325834 Z M 80.632914 -8.325834 L 80.632914 1.670277 L 77.297358 1.670277 L 77.297358 -8.325834 Z M 98.624859 -8.325834 L 98.624859 -4.995556 L 95.289303 -4.995556 L 95.289303 -8.325834 Z M 95.289303 -4.995556 L 95.289303 -1.660001 L 91.959025 -1.660001 L 91.959025 -4.995556 Z M 101.955137 -4.995556 L 101.955137 -1.660001 L 98.624859 -1.660001 L 98.624859 -4.995556 Z M 91.959025 -1.660001 L 91.959025 5.000555 L 101.955137 5.000555 L 101.955137 -1.660001 L 105.285415 -1.660001 L 105.285415 15.001945 L 101.955137 15.001945 L 101.955137 8.336111 L 91.959025 8.336111 L 91.959025 15.001945 L 88.623469 15.001945 L 88.623469 -1.660001 Z M 113.281248 -4.995556 L 113.281248 1.670277 L 109.945693 1.670277 L 109.945693 -4.995556 Z M 123.27736 -8.325834 L 123.27736 -4.995556 L 113.281248 -4.995556 L 113.281248 -8.325834 Z M 126.612915 -4.995556 L 126.612915 -1.660001 L 123.27736 -1.660001 L 123.27736 -4.995556 Z M 123.27736 1.670277 L 123.27736 5.000555 L 113.281248 5.000555 L 113.281248 1.670277 Z M 126.612915 5.000555 L 126.612915 11.666389 L 123.27736 11.666389 L 123.27736 5.000555 Z M 123.27736 11.666389 L 123.27736 15.001945 L 113.281248 15.001945 L 113.281248 11.666389 Z M 113.281248 8.336111 L 113.281248 11.666389 L 109.945693 11.666389 L 109.945693 8.336111 Z M 131.273193 15.001945 L 131.273193 -8.325834 L 134.603471 -8.325834 L 134.603471 1.670277 L 144.599583 1.670277 L 144.599583 -8.325834 L 147.935139 -8.325834 L 147.935139 15.001945 L 144.599583 15.001945 L 144.599583 5.000555 L 134.603471 5.000555 L 134.603471 15.001945 Z M 159.26125 -8.325834 L 159.26125 1.670277 L 155.925694 1.670277 L 155.925694 -8.325834 Z M 165.921806 -8.325834 L 165.921806 1.670277 L 162.591528 1.670277 L 162.591528 -8.325834 Z M 165.921806 -8.325834 " stroke="#000000" stroke-width="1.999965" stroke-opacity="1" stroke-miterlimit="4"/><g fill="#ffffff" fill-opacity="1"><g transform="translate(7.180412, 25.76028)"><g><path d="M 9.875 -17.265625 L 9.875 -14.796875 L 7.40625 -14.796875 L 7.40625 -17.265625 Z M 7.40625 -14.796875 L 7.40625 -12.328125 L 4.9375 -12.328125 L 4.9375 -14.796875 Z M 12.328125 -14.796875 L 12.328125 -12.328125 L 9.875 -12.328125 L 9.875 -14.796875 Z M 4.9375 -12.328125 L 4.9375 -7.40625 L 12.328125 -7.40625 L 12.328125 -12.328125 L 14.796875 -12.328125 L 14.796875 0 L 12.328125 0 L 12.328125 -4.9375 L 4.9375 -4.9375 L 4.9375 0 L 2.46875 0 L 2.46875 -12.328125 Z M 4.9375 -12.328125 "/></g></g></g><g fill="#ffffff" fill-opacity="1"><g transform="translate(22.962312, 25.76028)"><g><path d="M 4.9375 -14.796875 L 4.9375 -9.875 L 2.46875 -9.875 L 2.46875 -14.796875 Z M 12.328125 -17.265625 L 12.328125 -14.796875 L 4.9375 -14.796875 L 4.9375 -17.265625 Z M 14.796875 -14.796875 L 14.796875 -12.328125 L 12.328125 -12.328125 L 12.328125 -14.796875 Z M 12.328125 -9.875 L 12.328125 -7.40625 L 4.9375 -7.40625 L 4.9375 -9.875 Z M 14.796875 -7.40625 L 14.796875 -2.46875 L 12.328125 -2.46875 L 12.328125 -7.40625 Z M 12.328125 -2.46875 L 12.328125 0 L 4.9375 0 L 4.9375 -2.46875 Z M 4.9375 -4.9375 L 4.9375 -2.46875 L 2.46875 -2.46875 L 2.46875 -4.9375 Z M 4.9375 -4.9375 "/></g></g></g><g fill="#ffffff" fill-opacity="1"><g transform="translate(38.744211, 25.76028)"><g/></g></g><g fill="#ffffff" fill-opacity="1"><g transform="translate(54.526111, 25.76028)"><g><path d="M 7.40625 -17.265625 L 7.40625 -9.875 L 4.9375 -9.875 L 4.9375 -17.265625 Z M 12.328125 -17.265625 L 12.328125 -9.875 L 9.875 -9.875 L 9.875 -17.265625 Z M 12.328125 -17.265625 "/></g></g></g><g fill="#ffffff" fill-opacity="1"><g transform="translate(70.308011, 25.76028)"><g><path d="M 9.875 -17.265625 L 9.875 -14.796875 L 7.40625 -14.796875 L 7.40625 -17.265625 Z M 7.40625 -14.796875 L 7.40625 -12.328125 L 4.9375 -12.328125 L 4.9375 -14.796875 Z M 12.328125 -14.796875 L 12.328125 -12.328125 L 9.875 -12.328125 L 9.875 -14.796875 Z M 4.9375 -12.328125 L 4.9375 -7.40625 L 12.328125 -7.40625 L 12.328125 -12.328125 L 14.796875 -12.328125 L 14.796875 0 L 12.328125 0 L 12.328125 -4.9375 L 4.9375 -4.9375 L 4.9375 0 L 2.46875 0 L 2.46875 -12.328125 Z M 4.9375 -12.328125 "/></g></g></g><g fill="#ffffff" fill-opacity="1"><g transform="translate(86.089914, 25.76028)"><g><path d="M 4.9375 -14.796875 L 4.9375 -9.875 L 2.46875 -9.875 L 2.46875 -14.796875 Z M 12.328125 -17.265625 L 12.328125 -14.796875 L 4.9375 -14.796875 L 4.9375 -17.265625 Z M 14.796875 -14.796875 L 14.796875 -12.328125 L 12.328125 -12.328125 L 12.328125 -14.796875 Z M 12.328125 -9.875 L 12.328125 -7.40625 L 4.9375 -7.40625 L 4.9375 -9.875 Z M 14.796875 -7.40625 L 14.796875 -2.46875 L 12.328125 -2.46875 L 12.328125 -7.40625 Z M 12.328125 -2.46875 L 12.328125 0 L 4.9375 0 L 4.9375 -2.46875 Z M 4.9375 -4.9375 L 4.9375 -2.46875 L 2.46875 -2.46875 L 2.46875 -4.9375 Z M 4.9375 -4.9375 "/></g></g></g><g fill="#ffffff" fill-opacity="1"><g transform="translate(101.871816, 25.76028)"><g><path d="M 2.46875 0 L 2.46875 -17.265625 L 4.9375 -17.265625 L 4.9375 -9.875 L 12.328125 -9.875 L 12.328125 -17.265625 L 14.796875 -17.265625 L 14.796875 0 L 12.328125 0 L 12.328125 -7.40625 L 4.9375 -7.40625 L 4.9375 0 Z M 2.46875 0 "/></g></g></g><g fill="#ffffff" fill-opacity="1"><g transform="translate(117.653719, 25.76028)"><g><path d="M 7.40625 -17.265625 L 7.40625 -9.875 L 4.9375 -9.875 L 4.9375 -17.265625 Z M 12.328125 -17.265625 L 12.328125 -9.875 L 9.875 -9.875 L 9.875 -17.265625 Z M 12.328125 -17.265625 "/></g></g></g></svg>