<svg xmlns="http://www.w3.org/2000/svg" width="100%" height="100%" viewBox="0 0 150 37.5" preserveAspectRatio="xMidYMid meet" version="1.0"><defs><g/></defs><path stroke-linecap="butt" transform="matrix(0.296053, 0, 0, 0.296053, 5.206759, 15.932124)" fill="none" stroke-linejoin="miter" d="M 42.487031 -18.32212 L 42.487031 -9.996425 L 34.148142 -9.996425 L 34.148142 -18.32212 Z M 34.148142 -9.996425 L 34.148142 -1.657536 L 25.822447 -1.657536 L 25.822447 -9.996425 Z M 50.812726 -9.996425 L 50.812726 -1.657536 L 42.487031 -1.657536 L 42.487031 -9.996425 Z M 25.822447 -1.657536 L 25.822447 15.007048 L 50.812726 15.007048 L 50.812726 -1.657536 L 59.151615 -1.657536 L 59.151615 39.997327 L 50.812726 39.997327 L 50.812726 23.332743 L 25.822447 23.332743 L 25.822447 39.997327 L 17.483558 39.997327 L 17.483558 -1.657536 Z M 79.1412 -9.996425 L 79.1412 6.668159 L 70.815505 6.668159 L 70.815505 -9.996425 Z M 104.144673 -18.32212 L 104.144673 -9.996425 L 79.1412 -9.996425 L 79.1412 -18.32212 Z M 112.470368 -9.996425 L 112.470368 -1.657536 L 104.144673 -1.657536 L 104.144673 -9.996425 Z M 104.144673 6.668159 L 104.144673 15.007048 L 79.1412 15.007048 L 79.1412 6.668159 Z M 112.470368 15.007048 L 112.470368 31.671632 L 104.144673 31.671632 L 104.144673 15.007048 Z M 104.144673 31.671632 L 104.144673 39.997327 L 79.1412 39.997327 L 79.1412 31.671632 Z M 79.1412 23.332743 L 79.1412 31.671632 L 70.815505 31.671632 L 70.815505 23.332743 Z M 194.117593 -18.32212 L 194.117593 6.668159 L 185.791898 6.668159 L 185.791898 -18.32212 Z M 210.782177 -18.32212 L 210.782177 6.668159 L 202.456482 6.668159 L 202.456482 -18.32212 Z M 230.784956 39.997327 L 230.784956 -18.32212 L 264.114124 -18.32212 L 264.114124 -9.996425 L 272.439819 -9.996425 L 272.439819 31.671632 L 264.114124 31.671632 L 264.114124 39.997327 Z M 264.114124 31.671632 L 264.114124 -9.996425 L 239.110651 -9.996425 L 239.110651 31.671632 Z M 292.442597 39.997327 L 292.442597 31.671632 L 284.103708 31.671632 L 284.103708 -9.996425 L 292.442597 -9.996425 L 292.442597 -18.32212 L 317.432876 -18.32212 L 317.432876 -9.996425 L 325.771765 -9.996425 L 325.771765 31.671632 L 317.432876 31.671632 L 317.432876 39.997327 Z M 292.442597 31.671632 L 317.432876 31.671632 L 317.432876 -9.996425 L 292.442597 -9.996425 Z M 337.42246 -9.996425 L 337.42246 -18.32212 L 379.090518 -18.32212 L 379.090518 -9.996425 L 362.425934 -9.996425 L 362.425934 39.997327 L 354.087044 39.997327 L 354.087044 -9.996425 Z M 407.418991 -18.32212 L 407.418991 6.668159 L 399.080102 6.668159 L 399.080102 -18.32212 Z M 424.083575 -18.32212 L 424.083575 6.668159 L 415.744686 6.668159 L 415.744686 -18.32212 Z M 424.083575 -18.32212 " stroke="#000000" stroke-width="4.99992" stroke-opacity="1" stroke-miterlimit="4"/><g fill="#000000" fill-opacity="1"><g transform="translate(7.917491, 27.774229)"><g><path d="M 9.875 -17.265625 L 9.875 -14.796875 L 7.40625 -14.796875 L 7.40625 -17.265625 Z M 7.40625 -14.796875 L 7.40625 -12.328125 L 4.9375 -12.328125 L 4.9375 -14.796875 Z M 12.328125 -14.796875 L 12.328125 -12.328125 L 9.875 -12.328125 L 9.875 -14.796875 Z M 4.9375 -12.328125 L 4.9375 -7.40625 L 12.328125 -7.40625 L 12.328125 -12.328125 L 14.796875 -12.328125 L 14.796875 0 L 12.328125 0 L 12.328125 -4.9375 L 4.9375 -4.9375 L 4.9375 0 L 2.46875 0 L 2.46875 -12.328125 Z M 4.9375 -12.328125 "/></g></g></g><g fill="#000000" fill-opacity="1"><g transform="translate(23.703961, 27.774229)"><g><path d="M 4.9375 -14.796875 L 4.9375 -9.875 L 2.46875 -9.875 L 2.46875 -14.796875 Z M 12.328125 -17.265625 L 12.328125 -14.796875 L 4.9375 -14.796875 L 4.9375 -17.265625 Z M 14.796875 -14.796875 L 14.796875 -12.328125 L 12.328125 -12.328125 L 12.328125 -14.796875 Z M 12.328125 -9.875 L 12.328125 -7.40625 L 4.9375 -7.40625 L 4.9375 -9.875 Z M 14.796875 -7.40625 L 14.796875 -2.46875 L 12.328125 -2.46875 L 12.328125 -7.40625 Z M 12.328125 -2.46875 L 12.328125 0 L 4.9375 0 L 4.9375 -2.46875 Z M 4.9375 -4.9375 L 4.9375 -2.46875 L 2.46875 -2.46875 L 2.46875 -4.9375 Z M 4.9375 -4.9375 "/></g></g></g><g fill="#000000" fill-opacity="1"><g transform="translate(39.490431, 27.774229)"><g/></g></g><g fill="#000000" fill-opacity="1"><g transform="translate(55.276903, 27.774229)"><g><path d="M 7.40625 -17.265625 L 7.40625 -9.875 L 4.9375 -9.875 L 4.9375 -17.265625 Z M 12.328125 -17.265625 L 12.328125 -9.875 L 9.875 -9.875 L 9.875 -17.265625 Z M 12.328125 -17.265625 "/></g></g></g><g fill="#000000" fill-opacity="1"><g transform="translate(71.06337, 27.774229)"><g><path d="M 2.46875 0 L 2.46875 -17.265625 L 12.328125 -17.265625 L 12.328125 -14.796875 L 14.796875 -14.796875 L 14.796875 -2.46875 L 12.328125 -2.46875 L 12.328125 0 Z M 12.328125 -2.46875 L 12.328125 -14.796875 L 4.9375 -14.796875 L 4.9375 -2.46875 Z M 12.328125 -2.46875 "/></g></g></g><g fill="#000000" fill-opacity="1"><g transform="translate(86.849837, 27.774229)"><g><path d="M 4.9375 0 L 4.9375 -2.46875 L 2.46875 -2.46875 L 2.46875 -14.796875 L 4.9375 -14.796875 L 4.9375 -17.265625 L 12.328125 -17.265625 L 12.328125 -14.796875 L 14.796875 -14.796875 L 14.796875 -2.46875 L 12.328125 -2.46875 L 12.328125 0 Z M 4.9375 -2.46875 L 12.328125 -2.46875 L 12.328125 -14.796875 L 4.9375 -14.796875 Z M 4.9375 -2.46875 "/></g></g></g><g fill="#000000" fill-opacity="1"><g transform="translate(102.636305, 27.774229)"><g><path d="M 2.46875 -14.796875 L 2.46875 -17.265625 L 14.796875 -17.265625 L 14.796875 -14.796875 L 9.875 -14.796875 L 9.875 0 L 7.40625 0 L 7.40625 -14.796875 Z M 2.46875 -14.796875 "/></g></g></g><g fill="#000000" fill-opacity="1"><g transform="translate(118.422772, 27.774229)"><g><path d="M 7.40625 -17.265625 L 7.40625 -9.875 L 4.9375 -9.875 L 4.9375 -17.265625 Z M 12.328125 -17.265625 L 12.328125 -9.875 L 9.875 -9.875 L 9.875 -17.265625 Z M 12.328125 -17.265625 "/></g></g></g><path stroke-linecap="butt" transform="matrix(0.740132, 0, 0, 0.740132, 7.180412, 14.335019)" fill="none" stroke-linejoin="miter" d="M 13.330689 -8.327093 L 13.330689 -4.996815 L 9.995133 -4.996815 L 9.995133 -8.327093 Z M 9.995133 -4.996815 L 9.995133 -1.661259 L 6.664855 -1.661259 L 6.664855 -4.996815 Z M 16.660966 -4.996815 L 16.660966 -1.661259 L 13.330689 -1.661259 L 13.330689 -4.996815 Z M 6.664855 -1.661259 L 6.664855 5.004574 L 16.660966 5.004574 L 16.660966 -1.661259 L 19.996522 -1.661259 L 19.996522 15.000686 L 16.660966 15.000686 L 16.660966 8.334852 L 6.664855 8.334852 L 6.664855 15.000686 L 3.334577 15.000686 L 3.334577 -1.661259 Z M 27.987078 -4.996815 L 27.987078 1.669019 L 24.6568 1.669019 L 24.6568 -4.996815 Z M 37.98319 -8.327093 L 37.98319 -4.996815 L 27.987078 -4.996815 L 27.987078 -8.327093 Z M 41.318745 -4.996815 L 41.318745 -1.661259 L 37.98319 -1.661259 L 37.98319 -4.996815 Z M 37.98319 1.669019 L 37.98319 5.004574 L 27.987078 5.004574 L 27.987078 1.669019 Z M 41.318745 5.004574 L 41.318745 11.66513 L 37.98319 11.66513 L 37.98319 5.004574 Z M 37.98319 11.66513 L 37.98319 15.000686 L 27.987078 15.000686 L 27.987078 11.66513 Z M 27.987078 8.334852 L 27.987078 11.66513 L 24.6568 11.66513 L 24.6568 8.334852 Z M 73.96708 -8.327093 L 73.96708 1.669019 L 70.636802 1.669019 L 70.636802 -8.327093 Z M 80.632914 -8.327093 L 80.632914 1.669019 L 77.297358 1.669019 L 77.297358 -8.327093 Z M 88.623469 15.000686 L 88.623469 -8.327093 L 101.955137 -8.327093 L 101.955137 -4.996815 L 105.285415 -4.996815 L 105.285415 11.66513 L 101.955137 11.66513 L 101.955137 15.000686 Z M 101.955137 11.66513 L 101.955137 -4.996815 L 91.959025 -4.996815 L 91.959025 11.66513 Z M 113.281248 15.000686 L 113.281248 11.66513 L 109.945693 11.66513 L 109.945693 -4.996815 L 113.281248 -4.996815 L 113.281248 -8.327093 L 123.27736 -8.327093 L 123.27736 -4.996815 L 126.612915 -4.996815 L 126.612915 11.66513 L 123.27736 11.66513 L 123.27736 15.000686 Z M 113.281248 11.66513 L 123.27736 11.66513 L 123.27736 -4.996815 L 113.281248 -4.996815 Z M 131.273193 -4.996815 L 131.273193 -8.327093 L 147.935139 -8.327093 L 147.935139 -4.996815 L 141.269305 -4.996815 L 141.269305 15.000686 L 137.933749 15.000686 L 137.933749 -4.996815 Z M 159.26125 -8.327093 L 159.26125 1.669019 L 155.925694 1.669019 L 155.925694 -8.327093 Z M 165.921806 -8.327093 L 165.921806 1.669019 L 162.591528 1.669019 L 162.591528 -8.327093 Z M 165.921806 -8.327093 " stroke="#000000" stroke-width="1.999965" stroke-opacity="1" stroke-miterlimit="4"/><g fill="#ffffff" fill-opacity="1"><g transform="translate(7.180412, 25.436992)"><g><path d="M 9.875 -17.265625 L 9.875 -14.796875 L 7.40625 -14.796875 L 7.40625 -17.265625 Z M 7.40625 -14.796875 L 7.40625 -12.328125 L 4.9375 -12.328125 L 4.9375 -14.796875 Z M 12.328125 -14.796875 L 12.328125 -12.328125 L 9.875 -12.328125 L 9.875 -14.796875 Z M 4.9375 -12.328125 L 4.9375 -7.40625 L 12.328125 -7.40625 L 12.328125 -12.328125 L 14.796875 -12.328125 L 14.796875 0 L 12.328125 0 L 12.328125 -4.9375 L 4.9375 -4.9375 L 4.9375 0 L 2.46875 0 L 2.46875 -12.328125 Z M 4.9375 -12.328125 "/></g></g></g><g fill="#ffffff" fill-opacity="1"><g transform="translate(22.962312, 25.436992)"><g><path d="M 4.9375 -14.796875 L 4.9375 -9.875 L 2.46875 -9.875 L 2.46875 -14.796875 Z M 12.328125 -17.265625 L 12.328125 -14.796875 L 4.9375 -14.796875 L 4.9375 -17.265625 Z M 14.796875 -14.796875 L 14.796875 -12.328125 L 12.328125 -12.328125 L 12.328125 -14.796875 Z M 12.328125 -9.875 L 12.328125 -7.40625 L 4.9375 -7.40625 L 4.9375 -9.875 Z M 14.796875 -7.40625 L 14.796875 -2.46875 L 12.328125 -2.46875 L 12.328125 -7.40625 Z M 12.328125 -2.46875 L 12.328125 0 L 4.9375 0 L 4.9375 -2.46875 Z M 4.9375 -4.9375 L 4.9375 -2.46875 L 2.46875 -2.46875 L 2.46875 -4.9375 Z M 4.9375 -4.9375 "/></g></g></g><g fill="#ffffff" fill-opacity="1"><g transform="translate(38.744211, 25.436992)"><g/></g></g><g fill="#ffffff" fill-opacity="1"><g transform="translate(54.526111, 25.436992)"><g><path d="M 7.40625 -17.265625 L 7.40625 -9.875 L 4.9375 -9.875 L 4.9375 -17.265625 Z M 12.328125 -17.265625 L 12.328125 -9.875 L 9.875 -9.875 L 9.875 -17.265625 Z M 12.328125 -17.265625 "/></g></g></g><g fill="#ffffff" fill-opacity="1"><g transform="translate(70.308011, 25.436992)"><g><path d="M 2.46875 0 L 2.46875 -17.265625 L 12.328125 -17.265625 L 12.328125 -14.796875 L 14.796875 -14.796875 L 14.796875 -2.46875 L 12.328125 -2.46875 L 12.328125 0 Z M 12.328125 -2.46875 L 12.328125 -14.796875 L 4.9375 -14.796875 L 4.9375 -2.46875 Z M 12.328125 -2.46875 "/></g></g></g><g fill="#ffffff" fill-opacity="1"><g transform="translate(86.089914, 25.436992)"><g><path d="M 4.9375 0 L 4.9375 -2.46875 L 2.46875 -2.46875 L 2.46875 -14.796875 L 4.9375 -14.796875 L 4.9375 -17.265625 L 12.328125 -17.265625 L 12.328125 -14.796875 L 14.796875 -14.796875 L 14.796875 -2.46875 L 12.328125 -2.46875 L 12.328125 0 Z M 4.9375 -2.46875 L 12.328125 -2.46875 L 12.328125 -14.796875 L 4.9375 -14.796875 Z M 4.9375 -2.46875 "/></g></g></g><g fill="#ffffff" fill-opacity="1"><g transform="translate(101.871816, 25.436992)"><g><path d="M 2.46875 -14.796875 L 2.46875 -17.265625 L 14.796875 -17.265625 L 14.796875 -14.796875 L 9.875 -14.796875 L 9.875 0 L 7.40625 0 L 7.40625 -14.796875 Z M 2.46875 -14.796875 "/></g></g></g><g fill="#ffffff" fill-opacity="1"><g transform="translate(117.653719, 25.436992)"><g><path d="M 7.40625 -17.265625 L 7.40625 -9.875 L 4.9375 -9.875 L 4.9375 -17.265625 Z M 12.328125 -17.265625 L 12.328125 -9.875 L 9.875 -9.875 L 9.875 -17.265625 Z M 12.328125 -17.265625 "/></g></g></g></svg>