<svg xmlns="http://www.w3.org/2000/svg" width="100%" height="100%" viewBox="0 0 150 37.5" preserveAspectRatio="xMidYMid meet" version="1.0"><defs><g/></defs><path stroke-linecap="butt" transform="matrix(0.296053, 0, 0, 0.296053, 5.206759, 15.932128)" fill="none" stroke-linejoin="miter" d="M 42.487031 -18.322132 L 42.487031 -9.996437 L 34.148142 -9.996437 L 34.148142 -18.322132 Z M 34.148142 -9.996437 L 34.148142 -1.657548 L 25.822447 -1.657548 L 25.822447 -9.996437 Z M 50.812726 -9.996437 L 50.812726 -1.657548 L 42.487031 -1.657548 L 42.487031 -9.996437 Z M 25.822447 -1.657548 L 25.822447 15.007036 L 50.812726 15.007036 L 50.812726 -1.657548 L 59.151615 -1.657548 L 59.151615 39.997315 L 50.812726 39.997315 L 50.812726 23.332731 L 25.822447 23.332731 L 25.822447 39.997315 L 17.483558 39.997315 L 17.483558 -1.657548 Z M 79.1412 -9.996437 L 79.1412 6.668147 L 70.815505 6.668147 L 70.815505 -9.996437 Z M 104.144673 -18.322132 L 104.144673 -9.996437 L 79.1412 -9.996437 L 79.1412 -18.322132 Z M 112.470368 -9.996437 L 112.470368 -1.657548 L 104.144673 -1.657548 L 104.144673 -9.996437 Z M 104.144673 6.668147 L 104.144673 15.007036 L 79.1412 15.007036 L 79.1412 6.668147 Z M 112.470368 15.007036 L 112.470368 31.67162 L 104.144673 31.67162 L 104.144673 15.007036 Z M 104.144673 31.67162 L 104.144673 39.997315 L 79.1412 39.997315 L 79.1412 31.67162 Z M 79.1412 23.332731 L 79.1412 31.67162 L 70.815505 31.67162 L 70.815505 23.332731 Z M 194.117593 -18.322132 L 194.117593 6.668147 L 185.791898 6.668147 L 185.791898 -18.322132 Z M 210.782177 -18.322132 L 210.782177 6.668147 L 202.456482 6.668147 L 202.456482 -18.322132 Z M 230.784956 -18.322132 L 230.784956 39.997315 L 272.439819 39.997315 L 272.439819 31.67162 L 239.110651 31.67162 L 239.110651 15.007036 L 264.114124 15.007036 L 264.114124 6.668147 L 239.110651 6.668147 L 239.110651 -9.996437 L 272.439819 -9.996437 L 272.439819 -18.322132 Z M 300.768292 39.997315 L 300.768292 31.67162 L 292.442597 31.67162 L 292.442597 23.332731 L 284.103708 23.332731 L 284.103708 -18.322132 L 292.442597 -18.322132 L 292.442597 23.332731 L 300.768292 23.332731 L 300.768292 31.67162 L 309.107181 31.67162 L 309.107181 23.332731 L 317.432876 23.332731 L 317.432876 -18.322132 L 325.771765 -18.322132 L 325.771765 23.332731 L 317.432876 23.332731 L 317.432876 31.67162 L 309.107181 31.67162 L 309.107181 39.997315 Z M 337.42246 -18.322132 L 337.42246 39.997315 L 379.090518 39.997315 L 379.090518 31.67162 L 345.76135 31.67162 L 345.76135 15.007036 L 370.751628 15.007036 L 370.751628 6.668147 L 345.76135 6.668147 L 345.76135 -9.996437 L 379.090518 -9.996437 L 379.090518 -18.322132 Z M 407.418991 -18.322132 L 407.418991 6.668147 L 399.080102 6.668147 L 399.080102 -18.322132 Z M 424.083575 -18.322132 L 424.083575 6.668147 L 415.744686 6.668147 L 415.744686 -18.322132 Z M 424.083575 -18.322132 " stroke="#000000" stroke-width="4.99992" stroke-opacity="1" stroke-miterlimit="4"/><g fill="#000000" fill-opacity="1"><g transform="translate(7.917491, 27.774232)"><g><path d="M 9.875 -17.265625 L 9.875 -14.796875 L 7.40625 -14.796875 L 7.40625 -17.265625 Z M 7.40625 -14.796875 L 7.40625 -12.328125 L 4.9375 -12.328125 L 4.9375 -14.796875 Z M 12.328125 -14.796875 L 12.328125 -12.328125 L 9.875 -12.328125 L 9.875 -14.796875 Z M 4.9375 -12.328125 L 4.9375 -7.40625 L 12.328125 -7.40625 L 12.328125 -12.328125 L 14.796875 -12.328125 L 14.796875 0 L 12.328125 0 L 12.328125 -4.9375 L 4.9375 -4.9375 L 4.9375 0 L 2.46875 0 L 2.46875 -12.328125 Z M 4.9375 -12.328125 "/></g></g></g><g fill="#000000" fill-opacity="1"><g transform="translate(23.703961, 27.774232)"><g><path d="M 4.9375 -14.796875 L 4.9375 -9.875 L 2.46875 -9.875 L 2.46875 -14.796875 Z M 12.328125 -17.265625 L 12.328125 -14.796875 L 4.9375 -14.796875 L 4.9375 -17.265625 Z M 14.796875 -14.796875 L 14.796875 -12.328125 L 12.328125 -12.328125 L 12.328125 -14.796875 Z M 12.328125 -9.875 L 12.328125 -7.40625 L 4.9375 -7.40625 L 4.9375 -9.875 Z M 14.796875 -7.40625 L 14.796875 -2.46875 L 12.328125 -2.46875 L 12.328125 -7.40625 Z M 12.328125 -2.46875 L 12.328125 0 L 4.9375 0 L 4.9375 -2.46875 Z M 4.9375 -4.9375 L 4.9375 -2.46875 L 2.46875 -2.46875 L 2.46875 -4.9375 Z M 4.9375 -4.9375 "/></g></g></g><g fill="#000000" fill-opacity="1"><g transform="translate(39.490431, 27.774232)"><g/></g></g><g fill="#000000" fill-opacity="1"><g transform="translate(55.276903, 27.774232)"><g><path d="M 7.40625 -17.265625 L 7.40625 -9.875 L 4.9375 -9.875 L 4.9375 -17.265625 Z M 12.328125 -17.265625 L 12.328125 -9.875 L 9.875 -9.875 L 9.875 -17.265625 Z M 12.328125 -17.265625 "/></g></g></g><g fill="#000000" fill-opacity="1"><g transform="translate(71.06337, 27.774232)"><g><path d="M 2.46875 -17.265625 L 2.46875 0 L 14.796875 0 L 14.796875 -2.46875 L 4.9375 -2.46875 L 4.9375 -7.40625 L 12.328125 -7.40625 L 12.328125 -9.875 L 4.9375 -9.875 L 4.9375 -14.796875 L 14.796875 -14.796875 L 14.796875 -17.265625 Z M 2.46875 -17.265625 "/></g></g></g><g fill="#000000" fill-opacity="1"><g transform="translate(86.849837, 27.774232)"><g><path d="M 7.40625 0 L 7.40625 -2.46875 L 4.9375 -2.46875 L 4.9375 -4.9375 L 2.46875 -4.9375 L 2.46875 -17.265625 L 4.9375 -17.265625 L 4.9375 -4.9375 L 7.40625 -4.9375 L 7.40625 -2.46875 L 9.875 -2.46875 L 9.875 -4.9375 L 12.328125 -4.9375 L 12.328125 -17.265625 L 14.796875 -17.265625 L 14.796875 -4.9375 L 12.328125 -4.9375 L 12.328125 -2.46875 L 9.875 -2.46875 L 9.875 0 Z M 7.40625 0 "/></g></g></g><g fill="#000000" fill-opacity="1"><g transform="translate(102.636305, 27.774232)"><g><path d="M 2.46875 -17.265625 L 2.46875 0 L 14.796875 0 L 14.796875 -2.46875 L 4.9375 -2.46875 L 4.9375 -7.40625 L 12.328125 -7.40625 L 12.328125 -9.875 L 4.9375 -9.875 L 4.9375 -14.796875 L 14.796875 -14.796875 L 14.796875 -17.265625 Z M 2.46875 -17.265625 "/></g></g></g><g fill="#000000" fill-opacity="1"><g transform="translate(118.422772, 27.774232)"><g><path d="M 7.40625 -17.265625 L 7.40625 -9.875 L 4.9375 -9.875 L 4.9375 -17.265625 Z M 12.328125 -17.265625 L 12.328125 -9.875 L 9.875 -9.875 L 9.875 -17.265625 Z M 12.328125 -17.265625 "/></g></g></g><path stroke-linecap="butt" transform="matrix(0.740132, 0, 0, 0.740132, 7.180412, 14.45185)" fill="none" stroke-linejoin="miter" d="M 13.330689 -8.326611 L 13.330689 -4.996333 L 9.995133 -4.996333 L 9.995133 -8.326611 Z M 9.995133 -4.996333 L 9.995133 -1.660778 L 6.664855 -1.660778 L 6.664855 -4.996333 Z M 16.660966 -4.996333 L 16.660966 -1.660778 L 13.330689 -1.660778 L 13.330689 -4.996333 Z M 6.664855 -1.660778 L 6.664855 5.005056 L 16.660966 5.005056 L 16.660966 -1.660778 L 19.996522 -1.660778 L 19.996522 15.001168 L 16.660966 15.001168 L 16.660966 8.335334 L 6.664855 8.335334 L 6.664855 15.001168 L 3.334577 15.001168 L 3.334577 -1.660778 Z M 27.987078 -4.996333 L 27.987078 1.6695 L 24.6568 1.6695 L 24.6568 -4.996333 Z M 37.98319 -8.326611 L 37.98319 -4.996333 L 27.987078 -4.996333 L 27.987078 -8.326611 Z M 41.318745 -4.996333 L 41.318745 -1.660778 L 37.98319 -1.660778 L 37.98319 -4.996333 Z M 37.98319 1.6695 L 37.98319 5.005056 L 27.987078 5.005056 L 27.987078 1.6695 Z M 41.318745 5.005056 L 41.318745 11.665612 L 37.98319 11.665612 L 37.98319 5.005056 Z M 37.98319 11.665612 L 37.98319 15.001168 L 27.987078 15.001168 L 27.987078 11.665612 Z M 27.987078 8.335334 L 27.987078 11.665612 L 24.6568 11.665612 L 24.6568 8.335334 Z M 73.96708 -8.326611 L 73.96708 1.6695 L 70.636802 1.6695 L 70.636802 -8.326611 Z M 80.632914 -8.326611 L 80.632914 1.6695 L 77.297358 1.6695 L 77.297358 -8.326611 Z M 88.623469 -8.326611 L 88.623469 15.001168 L 105.285415 15.001168 L 105.285415 11.665612 L 91.959025 11.665612 L 91.959025 5.005056 L 101.955137 5.005056 L 101.955137 1.6695 L 91.959025 1.6695 L 91.959025 -4.996333 L 105.285415 -4.996333 L 105.285415 -8.326611 Z M 116.611526 15.001168 L 116.611526 11.665612 L 113.281248 11.665612 L 113.281248 8.335334 L 109.945693 8.335334 L 109.945693 -8.326611 L 113.281248 -8.326611 L 113.281248 8.335334 L 116.611526 8.335334 L 116.611526 11.665612 L 119.947082 11.665612 L 119.947082 8.335334 L 123.27736 8.335334 L 123.27736 -8.326611 L 126.612915 -8.326611 L 126.612915 8.335334 L 123.27736 8.335334 L 123.27736 11.665612 L 119.947082 11.665612 L 119.947082 15.001168 Z M 131.273193 -8.326611 L 131.273193 15.001168 L 147.935139 15.001168 L 147.935139 11.665612 L 134.603471 11.665612 L 134.603471 5.005056 L 144.599583 5.005056 L 144.599583 1.6695 L 134.603471 1.6695 L 134.603471 -4.996333 L 147.935139 -4.996333 L 147.935139 -8.326611 Z M 159.26125 -8.326611 L 159.26125 1.6695 L 155.925694 1.6695 L 155.925694 -8.326611 Z M 165.921806 -8.326611 L 165.921806 1.6695 L 162.591528 1.6695 L 162.591528 -8.326611 Z M 165.921806 -8.326611 " stroke="#000000" stroke-width="1.999965" stroke-opacity="1" stroke-miterlimit="4"/><g fill="#ffffff" fill-opacity="1"><g transform="translate(7.180412, 25.553823)"><g><path d="M 9.875 -17.265625 L 9.875 -14.796875 L 7.40625 -14.796875 L 7.40625 -17.265625 Z M 7.40625 -14.796875 L 7.40625 -12.328125 L 4.9375 -12.328125 L 4.9375 -14.796875 Z M 12.328125 -14.796875 L 12.328125 -12.328125 L 9.875 -12.328125 L 9.875 -14.796875 Z M 4.9375 -12.328125 L 4.9375 -7.40625 L 12.328125 -7.40625 L 12.328125 -12.328125 L 14.796875 -12.328125 L 14.796875 0 L 12.328125 0 L 12.328125 -4.9375 L 4.9375 -4.9375 L 4.9375 0 L 2.46875 0 L 2.46875 -12.328125 Z M 4.9375 -12.328125 "/></g></g></g><g fill="#ffffff" fill-opacity="1"><g transform="translate(22.962312, 25.553823)"><g><path d="M 4.9375 -14.796875 L 4.9375 -9.875 L 2.46875 -9.875 L 2.46875 -14.796875 Z M 12.328125 -17.265625 L 12.328125 -14.796875 L 4.9375 -14.796875 L 4.9375 -17.265625 Z M 14.796875 -14.796875 L 14.796875 -12.328125 L 12.328125 -12.328125 L 12.328125 -14.796875 Z M 12.328125 -9.875 L 12.328125 -7.40625 L 4.9375 -7.40625 L 4.9375 -9.875 Z M 14.796875 -7.40625 L 14.796875 -2.46875 L 12.328125 -2.46875 L 12.328125 -7.40625 Z M 12.328125 -2.46875 L 12.328125 0 L 4.9375 0 L 4.9375 -2.46875 Z M 4.9375 -4.9375 L 4.9375 -2.46875 L 2.46875 -2.46875 L 2.46875 -4.9375 Z M 4.9375 -4.9375 "/></g></g></g><g fill="#ffffff" fill-opacity="1"><g transform="translate(38.744211, 25.553823)"><g/></g></g><g fill="#ffffff" fill-opacity="1"><g transform="translate(54.526111, 25.553823)"><g><path d="M 7.40625 -17.265625 L 7.40625 -9.875 L 4.9375 -9.875 L 4.9375 -17.265625 Z M 12.328125 -17.265625 L 12.328125 -9.875 L 9.875 -9.875 L 9.875 -17.265625 Z M 12.328125 -17.265625 "/></g></g></g><g fill="#ffffff" fill-opacity="1"><g transform="translate(70.308011, 25.553823)"><g><path d="M 2.46875 -17.265625 L 2.46875 0 L 14.796875 0 L 14.796875 -2.46875 L 4.9375 -2.46875 L 4.9375 -7.40625 L 12.328125 -7.40625 L 12.328125 -9.875 L 4.9375 -9.875 L 4.9375 -14.796875 L 14.796875 -14.796875 L 14.796875 -17.265625 Z M 2.46875 -17.265625 "/></g></g></g><g fill="#ffffff" fill-opacity="1"><g transform="translate(86.089914, 25.553823)"><g><path d="M 7.40625 0 L 7.40625 -2.46875 L 4.9375 -2.46875 L 4.9375 -4.9375 L 2.46875 -4.9375 L 2.46875 -17.265625 L 4.9375 -17.265625 L 4.9375 -4.9375 L 7.40625 -4.9375 L 7.40625 -2.46875 L 9.875 -2.46875 L 9.875 -4.9375 L 12.328125 -4.9375 L 12.328125 -17.265625 L 14.796875 -17.265625 L 14.796875 -4.9375 L 12.328125 -4.9375 L 12.328125 -2.46875 L 9.875 -2.46875 L 9.875 0 Z M 7.40625 0 "/></g></g></g><g fill="#ffffff" fill-opacity="1"><g transform="translate(101.871816, 25.553823)"><g><path d="M 2.46875 -17.265625 L 2.46875 0 L 14.796875 0 L 14.796875 -2.46875 L 4.9375 -2.46875 L 4.9375 -7.40625 L 12.328125 -7.40625 L 12.328125 -9.875 L 4.9375 -9.875 L 4.9375 -14.796875 L 14.796875 -14.796875 L 14.796875 -17.265625 Z M 2.46875 -17.265625 "/></g></g></g><g fill="#ffffff" fill-opacity="1"><g transform="translate(117.653719, 25.553823)"><g><path d="M 7.40625 -17.265625 L 7.40625 -9.875 L 4.9375 -9.875 L 4.9375 -17.265625 Z M 12.328125 -17.265625 L 12.328125 -9.875 L 9.875 -9.875 L 9.875 -17.265625 Z M 12.328125 -17.265625 "/></g></g></g></svg>