<svg viewBox="0 0 264 280" fill="none" xmlns="http://www.w3.org/2000/svg">
  <path d="M70.3025 96.3032H64.2688V102.337H70.3025V96.3032Z" fill="#FF8400" stroke="#FF8400"/>
  <path d="M76.3361 96.3032H70.3025V102.337H76.3361V96.3032Z" fill="#FF8400" stroke="#FF8400"/>
  <path d="M82.3699 96.3032H76.3362V102.337H82.3699V96.3032Z" fill="#FF8400" stroke="#FF8400"/>
  <path d="M88.4036 96.3032H82.3699V102.337H88.4036V96.3032Z" fill="#FF8400" stroke="#FF8400"/>
  <path d="M94.4372 96.3032H88.4036V102.337H94.4372V96.3032Z" fill="#FF8400" stroke="#FF8400"/>
  <path d="M100.47 96.3032H94.4368V102.337H100.47V96.3032Z" fill="#FF8400" stroke="#FF8400"/>
  <path d="M106.505 96.3032H100.471V102.337H106.505V96.3032Z" fill="#FFBAF9" stroke="#FFBAF9"/>
  <path d="M112.538 96.3032H106.505V102.337H112.538V96.3032Z" fill="#FF8400" stroke="#FF8400"/>
  <path d="M118.572 96.3032H112.538V102.337H118.572V96.3032Z" fill="#FFBAF9" stroke="#FFBAF9"/>
  <path d="M124.606 96.3032H118.572V102.337H124.606V96.3032Z" fill="#FFBAF9" stroke="#FFBAF9"/>
  <path d="M130.639 96.3032H124.605V102.337H130.639V96.3032Z" fill="#FFBAF9" stroke="#FFBAF9"/>
  <path d="M136.673 96.3032H130.639V102.337H136.673V96.3032Z" fill="#F91C86" stroke="#F91C86"/>
  <path d="M142.706 96.3032H136.673V102.337H142.706V96.3032Z" fill="#F91C86" stroke="#F91C86"/>
  <path d="M148.741 96.3032H142.707V102.337H148.741V96.3032Z" fill="#FF8400" stroke="#FF8400"/>
  <path d="M154.774 96.3032H148.74V102.337H154.774V96.3032Z" fill="#FF8400" stroke="#FF8400"/>
  <path d="M160.808 96.3032H154.774V102.337H160.808V96.3032Z" fill="#FF8400" stroke="#FF8400"/>
  <path d="M166.841 96.3032H160.808V102.337H166.841V96.3032Z" fill="#FFD500" stroke="#FFD500"/>
  <path d="M172.875 96.3032H166.841V102.337H172.875V96.3032Z" fill="#FF8400" stroke="#FF8400"/>
  <path d="M178.909 96.3032H172.875V102.337H178.909V96.3032Z" fill="#FF8400" stroke="#FF8400"/>
  <path d="M184.942 96.3032H178.909V102.337H184.942V96.3032Z" fill="#FF8400" stroke="#FF8400"/>
  <path d="M190.976 96.3032H184.942V102.337H190.976V96.3032Z" fill="#FF8400" stroke="#FF8400"/>
  <path d="M197.009 96.3032H190.976V102.337H197.009V96.3032Z" fill="#FF8400" stroke="#FF8400"/>
  <path d="M203.043 96.3032H197.009V102.337H203.043V96.3032Z" fill="#FF8400" stroke="#FF8400"/>
  <path d="M76.3361 102.337H70.3025V108.371H76.3361V102.337Z" fill="#FF8400" stroke="#FF8400"/>
  <path d="M82.3699 102.337H76.3362V108.371H82.3699V102.337Z" fill="#FF8400" stroke="#FF8400"/>
  <path d="M88.4036 102.337H82.3699V108.371H88.4036V102.337Z" fill="#FF8400" stroke="#FF8400"/>
  <path d="M94.4372 102.337H88.4036V108.371H94.4372V102.337Z" fill="#FFD500" stroke="#FFD500"/>
  <path d="M100.47 102.337H94.4368V108.371H100.47V102.337Z" fill="#FF8400" stroke="#FF8400"/>
  <path d="M106.505 102.337H100.471V108.371H106.505V102.337Z" fill="#FFBAF9" stroke="#FFBAF9"/>
  <path d="M112.538 102.337H106.505V108.371H112.538V102.337Z" fill="#FF8400" stroke="#FF8400"/>
  <path d="M118.572 102.337H112.538V108.371H118.572V102.337Z" fill="#FFBAF9" stroke="#FFBAF9"/>
  <path d="M124.606 102.337H118.572V108.371H124.606V102.337Z" fill="#FFBAF9" stroke="#FFBAF9"/>
  <path d="M130.639 102.337H124.605V108.371H130.639V102.337Z" fill="#FFBAF9" stroke="#FFBAF9"/>
  <path d="M136.673 102.337H130.639V108.371H136.673V102.337Z" fill="#FFBAF9" stroke="#FFBAF9"/>
  <path d="M142.706 102.337H136.673V108.371H142.706V102.337Z" fill="#FFBAF9" stroke="#FFBAF9"/>
  <path d="M148.741 102.337H142.707V108.371H148.741V102.337Z" fill="#F91C86" stroke="#F91C86"/>
  <path d="M154.774 102.337H148.74V108.371H154.774V102.337Z" fill="#FF8400" stroke="#FF8400"/>
  <path d="M160.808 102.337H154.774V108.371H160.808V102.337Z" fill="#FF8400" stroke="#FF8400"/>
  <path d="M166.841 102.337H160.808V108.371H166.841V102.337Z" fill="#FF8400" stroke="#FF8400"/>
  <path d="M172.875 102.337H166.841V108.371H172.875V102.337Z" fill="#FFD500" stroke="#FFD500"/>
  <path d="M178.909 102.337H172.875V108.371H178.909V102.337Z" fill="#FFD500" stroke="#FFD500"/>
  <path d="M184.942 102.337H178.909V108.371H184.942V102.337Z" fill="#FF8400" stroke="#FF8400"/>
  <path d="M190.976 102.337H184.942V108.371H190.976V102.337Z" fill="#FF8400" stroke="#FF8400"/>
  <path d="M70.3025 108.371H64.2688V114.404H70.3025V108.371Z" fill="#FF8400" stroke="#FF8400"/>
  <path d="M76.3361 108.371H70.3025V114.404H76.3361V108.371Z" fill="#FF8400" stroke="#FF8400"/>
  <path d="M82.3699 108.371H76.3362V114.404H82.3699V108.371Z" fill="#FF8400" stroke="#FF8400"/>
  <path d="M88.4036 108.371H82.3699V114.404H88.4036V108.371Z" fill="#FFD500" stroke="#FFD500"/>
  <path d="M94.4372 108.371H88.4036V114.404H94.4372V108.371Z" fill="#FF8400" stroke="#FF8400"/>
  <path d="M100.47 108.371H94.4368V114.404H100.47V108.371Z" fill="#FFBAF9" stroke="#FFBAF9"/>
  <path d="M106.505 108.371H100.471V114.404H106.505V108.371Z" fill="#FFBAF9" stroke="#FFBAF9"/>
  <path d="M112.538 108.371H106.505V114.404H112.538V108.371Z" fill="#FFBAF9" stroke="#FFBAF9"/>
  <path d="M118.572 108.371H112.538V114.404H118.572V108.371Z" fill="#FFBAF9" stroke="#FFBAF9"/>
  <path d="M124.606 108.371H118.572V114.404H124.606V108.371Z" fill="#FFBAF9" stroke="#FFBAF9"/>
  <path d="M130.639 108.371H124.605V114.404H130.639V108.371Z" fill="#FFBAF9" stroke="#FFBAF9"/>
  <path d="M136.673 108.371H130.639V114.404H136.673V108.371Z" fill="#FFBAF9" stroke="#FFBAF9"/>
  <path d="M142.706 108.371H136.673V114.404H142.706V108.371Z" fill="#FFBAF9" stroke="#FFBAF9"/>
  <path d="M148.741 108.371H142.707V114.404H148.741V108.371Z" fill="#FFBAF9" stroke="#FFBAF9"/>
  <path d="M154.774 108.371H148.74V114.404H154.774V108.371Z" fill="#F91C86" stroke="#F91C86"/>
  <path d="M160.808 108.371H154.774V114.404H160.808V108.371Z" fill="#FF8400" stroke="#FF8400"/>
  <path d="M166.841 108.371H160.808V114.404H166.841V108.371Z" fill="#FF8400" stroke="#FF8400"/>
  <path d="M172.875 108.371H166.841V114.404H172.875V108.371Z" fill="#FF8400" stroke="#FF8400"/>
  <path d="M178.909 108.371H172.875V114.404H178.909V108.371Z" fill="#FF8400" stroke="#FF8400"/>
  <path d="M184.942 108.371H178.909V114.404H184.942V108.371Z" fill="#FFD500" stroke="#FFD500"/>
  <path d="M190.976 108.371H184.942V114.404H190.976V108.371Z" fill="#FF8400" stroke="#FF8400"/>
  <path d="M197.009 108.371H190.976V114.404H197.009V108.371Z" fill="#FF8400" stroke="#FF8400"/>
  <path d="M70.3025 78.2021H64.2688V84.2359H70.3025V78.2021Z" fill="#FF8400" stroke="#FF8400"/>
  <path d="M76.3361 78.2021H70.3025V84.2359H76.3361V78.2021Z" fill="#FF8400" stroke="#FF8400"/>
  <path d="M82.3699 78.2021H76.3362V84.2359H82.3699V78.2021Z" fill="#FF8400" stroke="#FF8400"/>
  <path d="M88.4036 78.2021H82.3699V84.2359H88.4036V78.2021Z" fill="#FF8400" stroke="#FF8400"/>
  <path d="M94.4372 78.2021H88.4036V84.2359H94.4372V78.2021Z" fill="#FFD500" stroke="#FFD500"/>
  <path d="M100.47 78.2021H94.4368V84.2359H100.47V78.2021Z" fill="#FF8400" stroke="#FF8400"/>
  <path d="M106.505 78.2021H100.471V84.2359H106.505V78.2021Z" fill="#FF8400" stroke="#FF8400"/>
  <path d="M112.538 78.2021H106.505V84.2359H112.538V78.2021Z" fill="#FF8400" stroke="#FF8400"/>
  <path d="M118.572 78.2021H112.538V84.2359H118.572V78.2021Z" fill="#FF8400" stroke="#FF8400"/>
  <path d="M124.606 78.2021H118.572V84.2359H124.606V78.2021Z" fill="#FF8400" stroke="#FF8400"/>
  <path d="M130.639 78.2021H124.605V84.2359H130.639V78.2021Z" fill="#FF8400" stroke="#FF8400"/>
  <path d="M136.673 78.2021H130.639V84.2359H136.673V78.2021Z" fill="#FF8400" stroke="#FF8400"/>
  <path d="M142.706 78.2021H136.673V84.2359H142.706V78.2021Z" fill="#FF8400" stroke="#FF8400"/>
  <path d="M148.741 78.2021H142.707V84.2359H148.741V78.2021Z" fill="#FF8400" stroke="#FF8400"/>
  <path d="M154.774 78.2021H148.74V84.2359H154.774V78.2021Z" fill="#FF8400" stroke="#FF8400"/>
  <path d="M160.808 78.2021H154.774V84.2359H160.808V78.2021Z" fill="#FFD500" stroke="#FFD500"/>
  <path d="M166.841 78.2021H160.808V84.2359H166.841V78.2021Z" fill="#FFD500" stroke="#FFD500"/>
  <path d="M172.875 78.2021H166.841V84.2359H172.875V78.2021Z" fill="#FF8400" stroke="#FF8400"/>
  <path d="M178.909 78.2021H172.875V84.2359H178.909V78.2021Z" fill="#FF8400" stroke="#FF8400"/>
  <path d="M184.942 78.2021H178.909V84.2359H184.942V78.2021Z" fill="#FF8400" stroke="#FF8400"/>
  <path d="M190.976 78.2021H184.942V84.2359H190.976V78.2021Z" fill="#FF8400" stroke="#FF8400"/>
  <path d="M197.009 78.2021H190.976V84.2359H197.009V78.2021Z" fill="#FF8400" stroke="#FF8400"/>
  <path d="M70.3025 72.1685H64.2688V78.2022H70.3025V72.1685Z" fill="#FFD500" stroke="#FFD500"/>
  <path d="M76.3361 72.1685H70.3025V78.2022H76.3361V72.1685Z" fill="#FF8400" stroke="#FF8400"/>
  <path d="M82.3699 72.1685H76.3362V78.2022H82.3699V72.1685Z" fill="#FF8400" stroke="#FF8400"/>
  <path d="M88.4036 72.1685H82.3699V78.2022H88.4036V72.1685Z" fill="#FF8400" stroke="#FF8400"/>
  <path d="M94.4372 72.1685H88.4036V78.2022H94.4372V72.1685Z" fill="#FF8400" stroke="#FF8400"/>
  <path d="M100.47 72.1685H94.4368V78.2022H100.47V72.1685Z" fill="#FFD500" stroke="#FFD500"/>
  <path d="M106.505 72.1685H100.471V78.2022H106.505V72.1685Z" fill="#FFD500" stroke="#FFD500"/>
  <path d="M112.538 72.1685H106.505V78.2022H112.538V72.1685Z" fill="#FFD500" stroke="#FFD500"/>
  <path d="M118.572 72.1685H112.538V78.2022H118.572V72.1685Z" fill="#FF8400" stroke="#FF8400"/>
  <path d="M124.606 72.1685H118.572V78.2022H124.606V72.1685Z" fill="#FF8400" stroke="#FF8400"/>
  <path d="M130.639 72.1685H124.605V78.2022H130.639V72.1685Z" fill="#FF8400" stroke="#FF8400"/>
  <path d="M136.673 72.1685H130.639V78.2022H136.673V72.1685Z" fill="#FF8400" stroke="#FF8400"/>
  <path d="M142.706 72.1685H136.673V78.2022H142.706V72.1685Z" fill="#FFD500" stroke="#FFD500"/>
  <path d="M148.741 72.1685H142.707V78.2022H148.741V72.1685Z" fill="#FF8400" stroke="#FF8400"/>
  <path d="M154.774 72.1685H148.74V78.2022H154.774V72.1685Z" fill="#FF8400" stroke="#FF8400"/>
  <path d="M160.808 72.1685H154.774V78.2022H160.808V72.1685Z" fill="#FFD500" stroke="#FFD500"/>
  <path d="M166.841 72.1685H160.808V78.2022H166.841V72.1685Z" fill="#FF8400" stroke="#FF8400"/>
  <path d="M172.875 72.1685H166.841V78.2022H172.875V72.1685Z" fill="#FF8400" stroke="#FF8400"/>
  <path d="M178.909 72.1685H172.875V78.2022H178.909V72.1685Z" fill="#FF8400" stroke="#FF8400"/>
  <path d="M184.942 72.1685H178.909V78.2022H184.942V72.1685Z" fill="#FFD500" stroke="#FFD500"/>
  <path d="M190.976 72.1685H184.942V78.2022H190.976V72.1685Z" fill="#FFD500" stroke="#FFD500"/>
  <path d="M70.3025 84.2358H64.2688V90.2695H70.3025V84.2358Z" fill="#FF8400" stroke="#FF8400"/>
  <path d="M76.3361 84.2358H70.3025V90.2695H76.3361V84.2358Z" fill="#FF8400" stroke="#FF8400"/>
  <path d="M82.3699 84.2358H76.3362V90.2695H82.3699V84.2358Z" fill="#FFD500" stroke="#FFD500"/>
  <path d="M88.4036 84.2358H82.3699V90.2695H88.4036V84.2358Z" fill="#FF8400" stroke="#FF8400"/>
  <path d="M94.4372 84.2358H88.4036V90.2695H94.4372V84.2358Z" fill="#FF8400" stroke="#FF8400"/>
  <path d="M100.47 84.2358H94.4368V90.2695H100.47V84.2358Z" fill="#FFD500" stroke="#FFD500"/>
  <path d="M106.505 84.2358H100.471V90.2695H106.505V84.2358Z" fill="#FF8400" stroke="#FF8400"/>
  <path d="M112.538 84.2358H106.505V90.2695H112.538V84.2358Z" fill="#FF8400" stroke="#FF8400"/>
  <path d="M118.572 84.2358H112.538V90.2695H118.572V84.2358Z" fill="#FF8400" stroke="#FF8400"/>
  <path d="M124.606 84.2358H118.572V90.2695H124.606V84.2358Z" fill="#F91C86" stroke="#F91C86"/>
  <path d="M130.639 84.2358H124.605V90.2695H130.639V84.2358Z" fill="#FF8400" stroke="#FF8400"/>
  <path d="M136.673 84.2358H130.639V90.2695H136.673V84.2358Z" fill="#FF8400" stroke="#FF8400"/>
  <path d="M142.706 84.2358H136.673V90.2695H142.706V84.2358Z" fill="#FF8400" stroke="#FF8400"/>
  <path d="M148.741 84.2358H142.707V90.2695H148.741V84.2358Z" fill="#FFD500" stroke="#FFD500"/>
  <path d="M154.774 84.2358H148.74V90.2695H154.774V84.2358Z" fill="#FF8400" stroke="#FF8400"/>
  <path d="M160.808 84.2358H154.774V90.2695H160.808V84.2358Z" fill="#FF8400" stroke="#FF8400"/>
  <path d="M166.841 84.2358H160.808V90.2695H166.841V84.2358Z" fill="#FF8400" stroke="#FF8400"/>
  <path d="M172.875 84.2358H166.841V90.2695H172.875V84.2358Z" fill="#FF8400" stroke="#FF8400"/>
  <path d="M178.909 84.2358H172.875V90.2695H178.909V84.2358Z" fill="#FF8400" stroke="#FF8400"/>
  <path d="M184.942 84.2358H178.909V90.2695H184.942V84.2358Z" fill="#FFD500" stroke="#FFD500"/>
  <path d="M190.976 84.2358H184.942V90.2695H190.976V84.2358Z" fill="#FF8400" stroke="#FF8400"/>
  <path d="M197.009 84.2358H190.976V90.2695H197.009V84.2358Z" fill="#FF8400" stroke="#FF8400"/>
  <path d="M203.043 84.2358H197.009V90.2695H203.043V84.2358Z" fill="#FF8400" stroke="#FF8400"/>
  <path d="M70.3025 90.2695H64.2688V96.3032H70.3025V90.2695Z" fill="#FFD500" stroke="#FFD500"/>
  <path d="M76.3361 90.2695H70.3025V96.3032H76.3361V90.2695Z" fill="#FFD500" stroke="#FFD500"/>
  <path d="M82.3699 90.2695H76.3362V96.3032H82.3699V90.2695Z" fill="#FF8400" stroke="#FF8400"/>
  <path d="M88.4036 90.2695H82.3699V96.3032H88.4036V90.2695Z" fill="#FF8400" stroke="#FF8400"/>
  <path d="M94.4372 90.2695H88.4036V96.3032H94.4372V90.2695Z" fill="#FFD500" stroke="#FFD500"/>
  <path d="M100.47 90.2695H94.4368V96.3032H100.47V90.2695Z" fill="#FF8400" stroke="#FF8400"/>
  <path d="M106.505 90.2695H100.471V96.3032H106.505V90.2695Z" fill="#FF8400" stroke="#FF8400"/>
  <path d="M112.538 90.2695H106.505V96.3032H112.538V90.2695Z" fill="#FFBAF9" stroke="#FFBAF9"/>
  <path d="M118.572 90.2695H112.538V96.3032H118.572V90.2695Z" fill="#FF8400" stroke="#FF8400"/>
  <path d="M124.606 90.2695H118.572V96.3032H124.606V90.2695Z" fill="#FFBAF9" stroke="#FFBAF9"/>
  <path d="M130.639 90.2695H124.605V96.3032H130.639V90.2695Z" fill="#F91C86" stroke="#F91C86"/>
  <path d="M136.673 90.2695H130.639V96.3032H136.673V90.2695Z" fill="#FF8400" stroke="#FF8400"/>
  <path d="M142.706 90.2695H136.673V96.3032H142.706V90.2695Z" fill="#FF8400" stroke="#FF8400"/>
  <path d="M148.741 90.2695H142.707V96.3032H148.741V90.2695Z" fill="#FF8400" stroke="#FF8400"/>
  <path d="M154.774 90.2695H148.74V96.3032H154.774V90.2695Z" fill="#FFD500" stroke="#FFD500"/>
  <path d="M160.808 90.2695H154.774V96.3032H160.808V90.2695Z" fill="#FF8400" stroke="#FF8400"/>
  <path d="M166.841 90.2695H160.808V96.3032H166.841V90.2695Z" fill="#FFD500" stroke="#FFD500"/>
  <path d="M172.875 90.2695H166.841V96.3032H172.875V90.2695Z" fill="#FF8400" stroke="#FF8400"/>
  <path d="M178.909 90.2695H172.875V96.3032H178.909V90.2695Z" fill="#FF8400" stroke="#FF8400"/>
  <path d="M184.942 90.2695H178.909V96.3032H184.942V90.2695Z" fill="#FF8400" stroke="#FF8400"/>
  <path d="M190.976 90.2695H184.942V96.3032H190.976V90.2695Z" fill="#FFD500" stroke="#FFD500"/>
  <path d="M197.009 90.2695H190.976V96.3032H197.009V90.2695Z" fill="#FF8400" stroke="#FF8400"/>
  <path d="M70.3025 114.404H64.2688V120.438H70.3025V114.404Z" fill="#FF8400" stroke="#FF8400"/>
  <path d="M76.3361 114.404H70.3025V120.438H76.3361V114.404Z" fill="#FF8400" stroke="#FF8400"/>
  <path d="M82.3699 114.404H76.3362V120.438H82.3699V114.404Z" fill="#FF8400" stroke="#FF8400"/>
  <path d="M88.4036 114.404H82.3699V120.438H88.4036V114.404Z" fill="#FFD500" stroke="#FFD500"/>
  <path d="M94.4372 114.404H88.4036V120.438H94.4372V114.404Z" fill="#FF8400" stroke="#FF8400"/>
  <path d="M100.47 114.404H94.4368V120.438H100.47V114.404Z" fill="#FFBAF9" stroke="#FFBAF9"/>
  <path d="M106.505 114.404H100.471V120.438H106.505V114.404Z" fill="#FFBAF9" stroke="#FFBAF9"/>
  <path d="M112.538 114.404H106.505V120.438H112.538V114.404Z" fill="#FFBAF9" stroke="#FFBAF9"/>
  <path d="M118.572 114.404H112.538V120.438H118.572V114.404Z" fill="#FFBAF9" stroke="#FFBAF9"/>
  <path d="M124.606 114.404H118.572V120.438H124.606V114.404Z" fill="#FFBAF9" stroke="#FFBAF9"/>
  <path d="M130.639 114.404H124.605V120.438H130.639V114.404Z" fill="#FFBAF9" stroke="#FFBAF9"/>
  <path d="M136.673 114.404H130.639V120.438H136.673V114.404Z" fill="#FFBAF9" stroke="#FFBAF9"/>
  <path d="M142.706 114.404H136.673V120.438H142.706V114.404Z" fill="#FFBAF9" stroke="#FFBAF9"/>
  <path d="M148.741 114.404H142.707V120.438H148.741V114.404Z" fill="#FFBAF9" stroke="#FFBAF9"/>
  <path d="M154.774 114.404H148.74V120.438H154.774V114.404Z" fill="#FFBAF9" stroke="#FFBAF9"/>
  <path d="M160.808 114.404H154.774V120.438H160.808V114.404Z" fill="#F91C86" stroke="#F91C86"/>
  <path d="M166.841 114.404H160.808V120.438H166.841V114.404Z" fill="#F91C86" stroke="#F91C86"/>
  <path d="M172.875 114.404H166.841V120.438H172.875V114.404Z" fill="#FF8400" stroke="#FF8400"/>
  <path d="M178.909 114.404H172.875V120.438H178.909V114.404Z" fill="#FF8400" stroke="#FF8400"/>
  <path d="M184.942 114.404H178.909V120.438H184.942V114.404Z" fill="#FF8400" stroke="#FF8400"/>
  <path d="M190.976 114.404H184.942V120.438H190.976V114.404Z" fill="#FF8400" stroke="#FF8400"/>
  <path d="M197.009 114.404H190.976V120.438H197.009V114.404Z" fill="#FF8400" stroke="#FF8400"/>
  <path d="M82.3699 120.438H76.3362V126.472H82.3699V120.438Z" fill="#FF8400" stroke="#FF8400"/>
  <path d="M88.4036 120.438H82.3699V126.472H88.4036V120.438Z" fill="#FF8400" stroke="#FF8400"/>
  <path d="M94.4372 120.438H88.4036V126.472H94.4372V120.438Z" fill="#FF8400" stroke="#FF8400"/>
  <path d="M100.47 120.438H94.4368V126.472H100.47V120.438Z" fill="#FFBAF9" stroke="#FFBAF9"/>
  <path d="M106.505 120.438H100.471V126.472H106.505V120.438Z" fill="#FF8400" stroke="#FF8400"/>
  <path d="M112.538 120.438H106.505V126.472H112.538V120.438Z" fill="#FF8400" stroke="#FF8400"/>
  <path d="M118.572 120.438H112.538V126.472H118.572V120.438Z" fill="#FF8400" stroke="#FF8400"/>
  <path d="M124.606 120.438H118.572V126.472H124.606V120.438Z" fill="#FF8400" stroke="#FF8400"/>
  <path d="M130.639 120.438H124.605V126.472H130.639V120.438Z" fill="#FFBAF9" stroke="#FFBAF9"/>
  <path d="M136.673 120.438H130.639V126.472H136.673V120.438Z" fill="#FFBAF9" stroke="#FFBAF9"/>
  <path d="M142.706 120.438H136.673V126.472H142.706V120.438Z" fill="#FFBAF9" stroke="#FFBAF9"/>
  <path d="M148.741 120.438H142.707V126.472H148.741V120.438Z" fill="#FF8400" stroke="#FF8400"/>
  <path d="M154.774 120.438H148.74V126.472H154.774V120.438Z" fill="#FF8400" stroke="#FF8400"/>
  <path d="M160.808 120.438H154.774V126.472H160.808V120.438Z" fill="#FF8400" stroke="#FF8400"/>
  <path d="M166.841 120.438H160.808V126.472H166.841V120.438Z" fill="#FF8400" stroke="#FF8400"/>
  <path d="M172.875 120.438H166.841V126.472H172.875V120.438Z" fill="#F91C86" stroke="#F91C86"/>
  <path d="M178.909 120.438H172.875V126.472H178.909V120.438Z" fill="#FF8400" stroke="#FF8400"/>
  <path d="M184.942 120.438H178.909V126.472H184.942V120.438Z" fill="#FFD500" stroke="#FFD500"/>
  <path d="M190.976 120.438H184.942V126.472H190.976V120.438Z" fill="#FF8400" stroke="#FF8400"/>
  <path d="M76.3361 126.471H70.3025V132.505H76.3361V126.471Z" fill="#FFD500" stroke="#FFD500"/>
  <path d="M82.3699 126.471H76.3362V132.505H82.3699V126.471Z" fill="#FF8400" stroke="#FF8400"/>
  <path d="M88.4036 126.471H82.3699V132.505H88.4036V126.471Z" fill="#FF8400" stroke="#FF8400"/>
  <path d="M94.4372 126.471H88.4036V132.505H94.4372V126.471Z" fill="#FF8400" stroke="#FF8400"/>
  <path d="M100.47 126.471H94.4368V132.505H100.47V126.471Z" fill="#FFBAF9" stroke="#FFBAF9"/>
  <path d="M106.505 126.471H100.471V132.505H106.505V126.471Z" fill="#F91C86" stroke="#F91C86"/>
  <path d="M112.538 126.471H106.505V132.505H112.538V126.471Z" fill="#F91C86" stroke="#F91C86"/>
  <path d="M118.572 126.471H112.538V132.505H118.572V126.471Z" fill="#F91C86" stroke="#F91C86"/>
  <path d="M124.606 126.471H118.572V132.505H124.606V126.471Z" fill="#F91C86" stroke="#F91C86"/>
  <path d="M130.639 126.471H124.605V132.505H130.639V126.471Z" fill="#FFBAF9" stroke="#FFBAF9"/>
  <path d="M136.673 126.471H130.639V132.505H136.673V126.471Z" fill="#FFBAF9" stroke="#FFBAF9"/>
  <path d="M142.706 126.471H136.673V132.505H142.706V126.471Z" fill="#FFBAF9" stroke="#FFBAF9"/>
  <path d="M148.741 126.471H142.707V132.505H148.741V126.471Z" fill="#F91C86" stroke="#F91C86"/>
  <path d="M154.774 126.471H148.74V132.505H154.774V126.471Z" fill="#F91C86" stroke="#F91C86"/>
  <path d="M160.808 126.471H154.774V132.505H160.808V126.471Z" fill="#F91C86" stroke="#F91C86"/>
  <path d="M166.841 126.471H160.808V132.505H166.841V126.471Z" fill="#F91C86" stroke="#F91C86"/>
  <path d="M172.875 126.471H166.841V132.505H172.875V126.471Z" fill="#F91C86" stroke="#F91C86"/>
  <path d="M178.909 126.471H172.875V132.505H178.909V126.471Z" fill="#FF8400" stroke="#FF8400"/>
  <path d="M184.942 126.471H178.909V132.505H184.942V126.471Z" fill="#FF8400" stroke="#FF8400"/>
  <path d="M190.976 126.471H184.942V132.505H190.976V126.471Z" fill="#FFD500" stroke="#FFD500"/>
  <path d="M197.009 126.471H190.976V132.505H197.009V126.471Z" fill="#FFD500" stroke="#FFD500"/>
  <path d="M70.3025 132.505H64.2688V138.539H70.3025V132.505Z" fill="#FFD500" stroke="#FFD500"/>
  <path d="M76.3361 132.505H70.3025V138.539H76.3361V132.505Z" fill="#FFD500" stroke="#FFD500"/>
  <path d="M88.4036 132.505H82.3699V138.539H88.4036V132.505Z" fill="#FFBAF9" stroke="#FFBAF9"/>
  <path d="M94.4372 132.505H88.4036V138.539H94.4372V132.505Z" fill="#F91C86" stroke="#F91C86"/>
  <path d="M100.47 132.505H94.4368V138.539H100.47V132.505Z" fill="#FFBAF9" stroke="#FFBAF9"/>
  <path d="M106.505 132.505H100.471V138.539H106.505V132.505Z" fill="#F5F5F5" stroke="#F5F5F5"/>
  <path d="M112.538 132.505H106.505V138.539H112.538V132.505Z" fill="black" stroke="black"/>
  <path d="M124.606 132.505H118.572V138.539H124.606V132.505Z" fill="#F5F5F5" stroke="#F5F5F5"/>
  <path d="M130.639 132.505H124.605V138.539H130.639V132.505Z" fill="#FFBAF9" stroke="#FFBAF9"/>
  <path d="M136.673 132.505H130.639V138.539H136.673V132.505Z" fill="#F91C86" stroke="#F91C86"/>
  <path d="M142.706 132.505H136.673V138.539H142.706V132.505Z" fill="#FFBAF9" stroke="#FFBAF9"/>
  <path d="M148.741 132.505H142.707V138.539H148.741V132.505Z" fill="#F5F5F5" stroke="#F5F5F5"/>
  <path d="M154.774 132.505H148.74V138.539H154.774V132.505Z" fill="black" stroke="black"/>
  <path d="M166.841 132.505H160.808V138.539H166.841V132.505Z" fill="#F5F5F5" stroke="#F5F5F5"/>
  <path d="M172.875 132.505H166.841V138.539H172.875V132.505Z" fill="#FFBAF9" stroke="#FFBAF9"/>
  <path d="M178.909 132.505H172.875V138.539H178.909V132.505Z" fill="#F91C86" stroke="#F91C86"/>
  <path d="M184.942 132.505H178.909V138.539H184.942V132.505Z" fill="#FFBAF9" stroke="#FFBAF9"/>
  <path d="M197.009 132.505H190.976V138.539H197.009V132.505Z" fill="#FFD500" stroke="#FFD500"/>
  <path d="M203.043 132.505H197.009V138.539H203.043V132.505Z" fill="#FFD500" stroke="#FFD500"/>
  <path d="M88.4036 138.539H82.3699V144.572H88.4036V138.539Z" fill="#FFBAF9" stroke="#FFBAF9"/>
  <path d="M94.4372 138.539H88.4036V144.572H94.4372V138.539Z" fill="#F91C86" stroke="#F91C86"/>
  <path d="M100.47 138.539H94.4368V144.572H100.47V138.539Z" fill="#FFBAF9" stroke="#FFBAF9"/>
  <path d="M106.505 138.539H100.471V144.572H106.505V138.539Z" fill="#FFBAF9" stroke="#FFBAF9"/>
  <path d="M112.538 138.539H106.505V144.572H112.538V138.539Z" fill="#FFBAF9" stroke="#FFBAF9"/>
  <path d="M118.572 138.539H112.538V144.572H118.572V138.539Z" fill="#FFBAF9" stroke="#FFBAF9"/>
  <path d="M124.606 138.539H118.572V144.572H124.606V138.539Z" fill="#FFBAF9" stroke="#FFBAF9"/>
  <path d="M130.639 138.539H124.605V144.572H130.639V138.539Z" fill="#FFBAF9" stroke="#FFBAF9"/>
  <path d="M136.673 138.539H130.639V144.572H136.673V138.539Z" fill="#F91C86" stroke="#F91C86"/>
  <path d="M142.706 138.539H136.673V144.572H142.706V138.539Z" fill="#FFBAF9" stroke="#FFBAF9"/>
  <path d="M148.741 138.539H142.707V144.572H148.741V138.539Z" fill="#FFBAF9" stroke="#FFBAF9"/>
  <path d="M154.774 138.539H148.74V144.572H154.774V138.539Z" fill="#FFBAF9" stroke="#FFBAF9"/>
  <path d="M160.808 138.539H154.774V144.572H160.808V138.539Z" fill="#FFBAF9" stroke="#FFBAF9"/>
  <path d="M166.841 138.539H160.808V144.572H166.841V138.539Z" fill="#FFBAF9" stroke="#FFBAF9"/>
  <path d="M172.875 138.539H166.841V144.572H172.875V138.539Z" fill="#FFBAF9" stroke="#FFBAF9"/>
  <path d="M178.909 138.539H172.875V144.572H178.909V138.539Z" fill="#F91C86" stroke="#F91C86"/>
  <path d="M184.942 138.539H178.909V144.572H184.942V138.539Z" fill="#FFBAF9" stroke="#FFBAF9"/>
  <path d="M203.043 138.539H197.009V144.572H203.043V138.539Z" fill="#FFD500" stroke="#FFD500"/>
  <path d="M88.4036 144.572H82.3699V150.606H88.4036V144.572Z" fill="#FFBAF9" stroke="#FFBAF9"/>
  <path d="M94.4372 144.572H88.4036V150.606H94.4372V144.572Z" fill="#F91C86" stroke="#F91C86"/>
  <path d="M100.47 144.572H94.4368V150.606H100.47V144.572Z" fill="#FFBAF9" stroke="#FFBAF9"/>
  <path d="M106.505 144.572H100.471V150.606H106.505V144.572Z" fill="#FFBAF9" stroke="#FFBAF9"/>
  <path d="M112.538 144.572H106.505V150.606H112.538V144.572Z" fill="#FFBAF9" stroke="#FFBAF9"/>
  <path d="M118.572 144.572H112.538V150.606H118.572V144.572Z" fill="#FFBAF9" stroke="#FFBAF9"/>
  <path d="M124.606 144.572H118.572V150.606H124.606V144.572Z" fill="#FFBAF9" stroke="#FFBAF9"/>
  <path d="M130.639 144.572H124.605V150.606H130.639V144.572Z" fill="#FFBAF9" stroke="#FFBAF9"/>
  <path d="M136.673 144.572H130.639V150.606H136.673V144.572Z" fill="#F91C86" stroke="#F91C86"/>
  <path d="M142.706 144.572H136.673V150.606H142.706V144.572Z" fill="#FFBAF9" stroke="#FFBAF9"/>
  <path d="M148.741 144.572H142.707V150.606H148.741V144.572Z" fill="#FFBAF9" stroke="#FFBAF9"/>
  <path d="M154.774 144.572H148.74V150.606H154.774V144.572Z" fill="#FFBAF9" stroke="#FFBAF9"/>
  <path d="M160.808 144.572H154.774V150.606H160.808V144.572Z" fill="#FFBAF9" stroke="#FFBAF9"/>
  <path d="M166.841 144.572H160.808V150.606H166.841V144.572Z" fill="#FFBAF9" stroke="#FFBAF9"/>
  <path d="M172.875 144.572H166.841V150.606H172.875V144.572Z" fill="#FFBAF9" stroke="#FFBAF9"/>
  <path d="M178.909 144.572H172.875V150.606H178.909V144.572Z" fill="#F91C86" stroke="#F91C86"/>
  <path d="M184.942 144.572H178.909V150.606H184.942V144.572Z" fill="#FFBAF9" stroke="#FFBAF9"/>
  <path d="M82.3699 150.606H76.3362V156.64H82.3699V150.606Z" fill="#FF8400" stroke="#FF8400"/>
  <path d="M88.4036 150.606H82.3699V156.64H88.4036V150.606Z" fill="#FFBAF9" stroke="#FFBAF9"/>
  <path d="M94.4372 150.606H88.4036V156.64H94.4372V150.606Z" fill="#F91C86" stroke="#F91C86"/>
  <path d="M100.47 150.606H94.4368V156.64H100.47V150.606Z" fill="#FFBAF9" stroke="#FFBAF9"/>
  <path d="M106.505 150.606H100.471V156.64H106.505V150.606Z" fill="#FFBAF9" stroke="#FFBAF9"/>
  <path d="M112.538 150.606H106.505V156.64H112.538V150.606Z" fill="#FFBAF9" stroke="#FFBAF9"/>
  <path d="M118.572 150.606H112.538V156.64H118.572V150.606Z" fill="#FFBAF9" stroke="#FFBAF9"/>
  <path d="M124.606 150.606H118.572V156.64H124.606V150.606Z" fill="#FFBAF9" stroke="#FFBAF9"/>
  <path d="M130.639 150.606H124.605V156.64H130.639V150.606Z" fill="#FFBAF9" stroke="#FFBAF9"/>
  <path d="M136.673 150.606H130.639V156.64H136.673V150.606Z" fill="#F91C86" stroke="#F91C86"/>
  <path d="M142.706 150.606H136.673V156.64H142.706V150.606Z" fill="#FFBAF9" stroke="#FFBAF9"/>
  <path d="M148.741 150.606H142.707V156.64H148.741V150.606Z" fill="#FFBAF9" stroke="#FFBAF9"/>
  <path d="M154.774 150.606H148.74V156.64H154.774V150.606Z" fill="#FFBAF9" stroke="#FFBAF9"/>
  <path d="M160.808 150.606H154.774V156.64H160.808V150.606Z" fill="#FFBAF9" stroke="#FFBAF9"/>
  <path d="M166.841 150.606H160.808V156.64H166.841V150.606Z" fill="#FFBAF9" stroke="#FFBAF9"/>
  <path d="M172.875 150.606H166.841V156.64H172.875V150.606Z" fill="#FFBAF9" stroke="#FFBAF9"/>
  <path d="M178.909 150.606H172.875V156.64H178.909V150.606Z" fill="#F91C86" stroke="#F91C86"/>
  <path d="M184.942 150.606H178.909V156.64H184.942V150.606Z" fill="#FFBAF9" stroke="#FFBAF9"/>
  <path d="M190.976 150.606H184.942V156.64H190.976V150.606Z" fill="#FF8400" stroke="#FF8400"/>
  <path d="M82.3699 156.639H76.3362V162.673H82.3699V156.639Z" fill="#FF8400" stroke="#FF8400"/>
  <path d="M88.4036 156.639H82.3699V162.673H88.4036V156.639Z" fill="#F5F5F5" stroke="#F5F5F5"/>
  <path d="M94.4372 156.639H88.4036V162.673H94.4372V156.639Z" fill="#F91C86" stroke="#F91C86"/>
  <path d="M100.47 156.639H94.4368V162.673H100.47V156.639Z" fill="#FFBAF9" stroke="#FFBAF9"/>
  <path d="M106.505 156.639H100.471V162.673H106.505V156.639Z" fill="#FFBAF9" stroke="#FFBAF9"/>
  <path d="M112.538 156.639H106.505V162.673H112.538V156.639Z" fill="#FFBAF9" stroke="#FFBAF9"/>
  <path d="M118.572 156.639H112.538V162.673H118.572V156.639Z" fill="#FFBAF9" stroke="#FFBAF9"/>
  <path d="M124.606 156.639H118.572V162.673H124.606V156.639Z" fill="#FFBAF9" stroke="#FFBAF9"/>
  <path d="M130.639 156.639H124.605V162.673H130.639V156.639Z" fill="#F91C86" stroke="#F91C86"/>
  <path d="M136.673 156.639H130.639V162.673H136.673V156.639Z" fill="#F91C86" stroke="#F91C86"/>
  <path d="M142.706 156.639H136.673V162.673H142.706V156.639Z" fill="#F91C86" stroke="#F91C86"/>
  <path d="M148.741 156.639H142.707V162.673H148.741V156.639Z" fill="#FFBAF9" stroke="#FFBAF9"/>
  <path d="M154.774 156.639H148.74V162.673H154.774V156.639Z" fill="#FFBAF9" stroke="#FFBAF9"/>
  <path d="M160.808 156.639H154.774V162.673H160.808V156.639Z" fill="#FFBAF9" stroke="#FFBAF9"/>
  <path d="M166.841 156.639H160.808V162.673H166.841V156.639Z" fill="#FFBAF9" stroke="#FFBAF9"/>
  <path d="M172.875 156.639H166.841V162.673H172.875V156.639Z" fill="#FFBAF9" stroke="#FFBAF9"/>
  <path d="M178.909 156.639H172.875V162.673H178.909V156.639Z" fill="#F91C86" stroke="#F91C86"/>
  <path d="M184.942 156.639H178.909V162.673H184.942V156.639Z" fill="#F5F5F5" stroke="#F5F5F5"/>
  <path d="M190.976 156.639H184.942V162.673H190.976V156.639Z" fill="#FF8400" stroke="#FF8400"/>
  <path d="M82.3699 162.673H76.3362V168.707H82.3699V162.673Z" fill="#FF8400" stroke="#FF8400"/>
  <path d="M88.4036 162.673H82.3699V168.707H88.4036V162.673Z" fill="#5A0038" stroke="#5A0038"/>
  <path d="M94.4372 162.673H88.4036V168.707H94.4372V162.673Z" fill="#5A0038" stroke="#5A0038"/>
  <path d="M100.47 162.673H94.4368V168.707H100.47V162.673Z" fill="#FFBAF9" stroke="#FFBAF9"/>
  <path d="M106.505 162.673H100.471V168.707H106.505V162.673Z" fill="#FFBAF9" stroke="#FFBAF9"/>
  <path d="M112.538 162.673H106.505V168.707H112.538V162.673Z" fill="#FFBAF9" stroke="#FFBAF9"/>
  <path d="M118.572 162.673H112.538V168.707H118.572V162.673Z" fill="#FFBAF9" stroke="#FFBAF9"/>
  <path d="M124.606 162.673H118.572V168.707H124.606V162.673Z" fill="#FFBAF9" stroke="#FFBAF9"/>
  <path d="M130.639 162.673H124.605V168.707H130.639V162.673Z" fill="#FFBAF9" stroke="#FFBAF9"/>
  <path d="M136.673 162.673H130.639V168.707H136.673V162.673Z" fill="#FFBAF9" stroke="#FFBAF9"/>
  <path d="M142.706 162.673H136.673V168.707H142.706V162.673Z" fill="#FFBAF9" stroke="#FFBAF9"/>
  <path d="M148.741 162.673H142.707V168.707H148.741V162.673Z" fill="#FFBAF9" stroke="#FFBAF9"/>
  <path d="M154.774 162.673H148.74V168.707H154.774V162.673Z" fill="#FFBAF9" stroke="#FFBAF9"/>
  <path d="M160.808 162.673H154.774V168.707H160.808V162.673Z" fill="#FFBAF9" stroke="#FFBAF9"/>
  <path d="M166.841 162.673H160.808V168.707H166.841V162.673Z" fill="#FFBAF9" stroke="#FFBAF9"/>
  <path d="M172.875 162.673H166.841V168.707H172.875V162.673Z" fill="#F91C86" stroke="#F91C86"/>
  <path d="M178.909 162.673H172.875V168.707H178.909V162.673Z" fill="#5A0038" stroke="#5A0038"/>
  <path d="M184.942 162.673H178.909V168.707H184.942V162.673Z" fill="#5A0038" stroke="#5A0038"/>
  <path d="M190.976 162.673H184.942V168.707H190.976V162.673Z" fill="#FF8400" stroke="#FF8400"/>
  <path d="M82.3699 168.707H76.3362V174.741H82.3699V168.707Z" fill="#FF8400" stroke="#FF8400"/>
  <path d="M88.4036 168.707H82.3699V174.741H88.4036V168.707Z" fill="#FFD500" stroke="#FFD500"/>
  <path d="M94.4372 168.707H88.4036V174.741H94.4372V168.707Z" fill="#FF8400" stroke="#FF8400"/>
  <path d="M100.47 168.707H94.4368V174.741H100.47V168.707Z" fill="#FFBAF9" stroke="#FFBAF9"/>
  <path d="M106.505 168.707H100.471V174.741H106.505V168.707Z" fill="#FFBAF9" stroke="#FFBAF9"/>
  <path d="M112.538 168.707H106.505V174.741H112.538V168.707Z" fill="#FFBAF9" stroke="#FFBAF9"/>
  <path d="M118.572 168.707H112.538V174.741H118.572V168.707Z" fill="#FFBAF9" stroke="#FFBAF9"/>
  <path d="M124.606 168.707H118.572V174.741H124.606V168.707Z" fill="#FFBAF9" stroke="#FFBAF9"/>
  <path d="M130.639 168.707H124.605V174.741H130.639V168.707Z" fill="#F91C86" stroke="#F91C86"/>
  <path d="M136.673 168.707H130.639V174.741H136.673V168.707Z" fill="#F91C86" stroke="#F91C86"/>
  <path d="M142.706 168.707H136.673V174.741H142.706V168.707Z" fill="#F91C86" stroke="#F91C86"/>
  <path d="M148.741 168.707H142.707V174.741H148.741V168.707Z" fill="#FFBAF9" stroke="#FFBAF9"/>
  <path d="M154.774 168.707H148.74V174.741H154.774V168.707Z" fill="#FFBAF9" stroke="#FFBAF9"/>
  <path d="M160.808 168.707H154.774V174.741H160.808V168.707Z" fill="#FFBAF9" stroke="#FFBAF9"/>
  <path d="M166.841 168.707H160.808V174.741H166.841V168.707Z" fill="#FFBAF9" stroke="#FFBAF9"/>
  <path d="M172.875 168.707H166.841V174.741H172.875V168.707Z" fill="#F91C86" stroke="#F91C86"/>
  <path d="M178.909 168.707H172.875V174.741H178.909V168.707Z" fill="#FF8400" stroke="#FF8400"/>
  <path d="M184.942 168.707H178.909V174.741H184.942V168.707Z" fill="#FF8400" stroke="#FF8400"/>
  <path d="M190.976 168.707H184.942V174.741H190.976V168.707Z" fill="#FF8400" stroke="#FF8400"/>
  <path d="M76.3361 174.741H70.3025V180.774H76.3361V174.741Z" fill="#FF8400" stroke="#FF8400"/>
  <path d="M82.3699 174.741H76.3362V180.774H82.3699V174.741Z" fill="#FFD500" stroke="#FFD500"/>
  <path d="M88.4036 174.741H82.3699V180.774H88.4036V174.741Z" fill="#FF8400" stroke="#FF8400"/>
  <path d="M94.4372 174.741H88.4036V180.774H94.4372V174.741Z" fill="#FF8400" stroke="#FF8400"/>
  <path d="M100.47 174.741H94.4368V180.774H100.47V174.741Z" fill="#FFBAF9" stroke="#FFBAF9"/>
  <path d="M106.505 174.741H100.471V180.774H106.505V174.741Z" fill="#FFBAF9" stroke="#FFBAF9"/>
  <path d="M112.538 174.741H106.505V180.774H112.538V174.741Z" fill="#FFBAF9" stroke="#FFBAF9"/>
  <path d="M118.572 174.741H112.538V180.774H118.572V174.741Z" fill="#FFBAF9" stroke="#FFBAF9"/>
  <path d="M124.606 174.741H118.572V180.774H124.606V174.741Z" fill="#F91C86" stroke="#F91C86"/>
  <path d="M130.639 174.741H124.605V180.774H130.639V174.741Z" fill="#F5F5F5" stroke="#F5F5F5"/>
  <path d="M136.673 174.741H130.639V180.774H136.673V174.741Z" fill="#F5F5F5" stroke="#F5F5F5"/>
  <path d="M142.706 174.741H136.673V180.774H142.706V174.741Z" fill="#F5F5F5" stroke="#F5F5F5"/>
  <path d="M148.741 174.741H142.707V180.774H148.741V174.741Z" fill="#F91C86" stroke="#F91C86"/>
  <path d="M154.774 174.741H148.74V180.774H154.774V174.741Z" fill="#FFBAF9" stroke="#FFBAF9"/>
  <path d="M160.808 174.741H154.774V180.774H160.808V174.741Z" fill="#FFBAF9" stroke="#FFBAF9"/>
  <path d="M166.841 174.741H160.808V180.774H166.841V174.741Z" fill="#FFBAF9" stroke="#FFBAF9"/>
  <path d="M172.875 174.741H166.841V180.774H172.875V174.741Z" fill="#F91C86" stroke="#F91C86"/>
  <path d="M178.909 174.741H172.875V180.774H178.909V174.741Z" fill="#FF8400" stroke="#FF8400"/>
  <path d="M184.942 174.741H178.909V180.774H184.942V174.741Z" fill="#FF8400" stroke="#FF8400"/>
  <path d="M190.976 174.741H184.942V180.774H190.976V174.741Z" fill="#FF8400" stroke="#FF8400"/>
  <path d="M76.3361 180.774H70.3025V186.808H76.3361V180.774Z" fill="#FF8400" stroke="#FF8400"/>
  <path d="M82.3699 180.774H76.3362V186.808H82.3699V180.774Z" fill="#FF8400" stroke="#FF8400"/>
  <path d="M88.4036 180.774H82.3699V186.808H88.4036V180.774Z" fill="#FF8400" stroke="#FF8400"/>
  <path d="M94.4372 180.774H88.4036V186.808H94.4372V180.774Z" fill="#FF8400" stroke="#FF8400"/>
  <path d="M100.47 180.774H94.4368V186.808H100.47V180.774Z" fill="#FF8400" stroke="#FF8400"/>
  <path d="M106.505 180.774H100.471V186.808H106.505V180.774Z" fill="#FFBAF9" stroke="#FFBAF9"/>
  <path d="M112.538 180.774H106.505V186.808H112.538V180.774Z" fill="#FFBAF9" stroke="#FFBAF9"/>
  <path d="M118.572 180.774H112.538V186.808H118.572V180.774Z" fill="#FFBAF9" stroke="#FFBAF9"/>
  <path d="M124.606 180.774H118.572V186.808H124.606V180.774Z" fill="#FFBAF9" stroke="#FFBAF9"/>
  <path d="M130.639 180.774H124.605V186.808H130.639V180.774Z" fill="#F91C86" stroke="#F91C86"/>
  <path d="M136.673 180.774H130.639V186.808H136.673V180.774Z" fill="#F91C86" stroke="#F91C86"/>
  <path d="M142.706 180.774H136.673V186.808H142.706V180.774Z" fill="#F91C86" stroke="#F91C86"/>
  <path d="M148.741 180.774H142.707V186.808H148.741V180.774Z" fill="#FFBAF9" stroke="#FFBAF9"/>
  <path d="M154.774 180.774H148.74V186.808H154.774V180.774Z" fill="#FFBAF9" stroke="#FFBAF9"/>
  <path d="M160.808 180.774H154.774V186.808H160.808V180.774Z" fill="#FFBAF9" stroke="#FFBAF9"/>
  <path d="M166.841 180.774H160.808V186.808H166.841V180.774Z" fill="#F91C86" stroke="#F91C86"/>
  <path d="M172.875 180.774H166.841V186.808H172.875V180.774Z" fill="#FF8400" stroke="#FF8400"/>
  <path d="M178.909 180.774H172.875V186.808H178.909V180.774Z" fill="#FF8400" stroke="#FF8400"/>
  <path d="M184.942 180.774H178.909V186.808H184.942V180.774Z" fill="#FFD500" stroke="#FFD500"/>
  <path d="M190.976 180.774H184.942V186.808H190.976V180.774Z" fill="#FF8400" stroke="#FF8400"/>
  <path d="M197.009 180.774H190.976V186.808H197.009V180.774Z" fill="#FF8400" stroke="#FF8400"/>
  <path d="M70.3025 186.808H64.2688V192.842H70.3025V186.808Z" fill="#FFD500" stroke="#FFD500"/>
  <path d="M76.3361 186.808H70.3025V192.842H76.3361V186.808Z" fill="#FF8400" stroke="#FF8400"/>
  <path d="M82.3699 186.808H76.3362V192.842H82.3699V186.808Z" fill="#FFD500" stroke="#FFD500"/>
  <path d="M88.4036 186.808H82.3699V192.842H88.4036V186.808Z" fill="#FF8400" stroke="#FF8400"/>
  <path d="M94.4372 186.808H88.4036V192.842H94.4372V186.808Z" fill="#FF8400" stroke="#FF8400"/>
  <path d="M100.47 186.808H94.4368V192.842H100.47V186.808Z" fill="#FFD500" stroke="#FFD500"/>
  <path d="M106.505 186.808H100.471V192.842H106.505V186.808Z" fill="#FF8400" stroke="#FF8400"/>
  <path d="M112.538 186.808H106.505V192.842H112.538V186.808Z" fill="#FFBAF9" stroke="#FFBAF9"/>
  <path d="M118.572 186.808H112.538V192.842H118.572V186.808Z" fill="#FFBAF9" stroke="#FFBAF9"/>
  <path d="M124.606 186.808H118.572V192.842H124.606V186.808Z" fill="#FFBAF9" stroke="#FFBAF9"/>
  <path d="M130.639 186.808H124.605V192.842H130.639V186.808Z" fill="#FFBAF9" stroke="#FFBAF9"/>
  <path d="M136.673 186.808H130.639V192.842H136.673V186.808Z" fill="#FFBAF9" stroke="#FFBAF9"/>
  <path d="M142.706 186.808H136.673V192.842H142.706V186.808Z" fill="#FFBAF9" stroke="#FFBAF9"/>
  <path d="M148.741 186.808H142.707V192.842H148.741V186.808Z" fill="#FFBAF9" stroke="#FFBAF9"/>
  <path d="M154.774 186.808H148.74V192.842H154.774V186.808Z" fill="#FFBAF9" stroke="#FFBAF9"/>
  <path d="M160.808 186.808H154.774V192.842H160.808V186.808Z" fill="#FFBAF9" stroke="#FFBAF9"/>
  <path d="M166.841 186.808H160.808V192.842H166.841V186.808Z" fill="#FF8400" stroke="#FF8400"/>
  <path d="M172.875 186.808H166.841V192.842H172.875V186.808Z" fill="#FF8400" stroke="#FF8400"/>
  <path d="M178.909 186.808H172.875V192.842H178.909V186.808Z" fill="#FF8400" stroke="#FF8400"/>
  <path d="M184.942 186.808H178.909V192.842H184.942V186.808Z" fill="#FF8400" stroke="#FF8400"/>
  <path d="M190.976 186.808H184.942V192.842H190.976V186.808Z" fill="#FF8400" stroke="#FF8400"/>
  <path d="M197.009 186.808H190.976V192.842H197.009V186.808Z" fill="#FF8400" stroke="#FF8400"/>
  <path d="M203.043 186.808H197.009V192.842H203.043V186.808Z" fill="#FFD500" stroke="#FFD500"/>
  <path d="M70.3025 192.841H64.2688V198.875H70.3025V192.841Z" fill="#FF8400" stroke="#FF8400"/>
  <path d="M76.3361 192.841H70.3025V198.875H76.3361V192.841Z" fill="#FFD500" stroke="#FFD500"/>
  <path d="M82.3699 192.841H76.3362V198.875H82.3699V192.841Z" fill="#FF8400" stroke="#FF8400"/>
  <path d="M88.4036 192.841H82.3699V198.875H88.4036V192.841Z" fill="#FFD500" stroke="#FFD500"/>
  <path d="M94.4372 192.841H88.4036V198.875H94.4372V192.841Z" fill="#FF8400" stroke="#FF8400"/>
  <path d="M100.47 192.841H94.4368V198.875H100.47V192.841Z" fill="#FF8400" stroke="#FF8400"/>
  <path d="M106.505 192.841H100.471V198.875H106.505V192.841Z" fill="#FFD500" stroke="#FFD500"/>
  <path d="M112.538 192.841H106.505V198.875H112.538V192.841Z" fill="#F91C86" stroke="#F91C86"/>
  <path d="M118.572 192.841H112.538V198.875H118.572V192.841Z" fill="#FFBAF9" stroke="#FFBAF9"/>
  <path d="M124.606 192.841H118.572V198.875H124.606V192.841Z" fill="#FFBAF9" stroke="#FFBAF9"/>
  <path d="M130.639 192.841H124.605V198.875H130.639V192.841Z" fill="#FFBAF9" stroke="#FFBAF9"/>
  <path d="M136.673 192.841H130.639V198.875H136.673V192.841Z" fill="#FFBAF9" stroke="#FFBAF9"/>
  <path d="M142.706 192.841H136.673V198.875H142.706V192.841Z" fill="#FFBAF9" stroke="#FFBAF9"/>
  <path d="M148.741 192.841H142.707V198.875H148.741V192.841Z" fill="#FFBAF9" stroke="#FFBAF9"/>
  <path d="M154.774 192.841H148.74V198.875H154.774V192.841Z" fill="#FFBAF9" stroke="#FFBAF9"/>
  <path d="M160.808 192.841H154.774V198.875H160.808V192.841Z" fill="#F91C86" stroke="#F91C86"/>
  <path d="M166.841 192.841H160.808V198.875H166.841V192.841Z" fill="#FF8400" stroke="#FF8400"/>
  <path d="M172.875 192.841H166.841V198.875H172.875V192.841Z" fill="#FF8400" stroke="#FF8400"/>
  <path d="M178.909 192.841H172.875V198.875H178.909V192.841Z" fill="#FF8400" stroke="#FF8400"/>
  <path d="M184.942 192.841H178.909V198.875H184.942V192.841Z" fill="#FF8400" stroke="#FF8400"/>
  <path d="M190.976 192.841H184.942V198.875H190.976V192.841Z" fill="#FFD500" stroke="#FFD500"/>
  <path d="M197.009 192.841H190.976V198.875H197.009V192.841Z" fill="#FFD500" stroke="#FFD500"/>
  <path d="M203.043 192.841H197.009V198.875H203.043V192.841Z" fill="#FF8400" stroke="#FF8400"/>
  <path d="M70.3025 198.875H64.2688V204.909H70.3025V198.875Z" fill="#FF8400" stroke="#FF8400"/>
  <path d="M76.3361 198.875H70.3025V204.909H76.3361V198.875Z" fill="#FF8400" stroke="#FF8400"/>
  <path d="M82.3699 198.875H76.3362V204.909H82.3699V198.875Z" fill="#FF8400" stroke="#FF8400"/>
  <path d="M88.4036 198.875H82.3699V204.909H88.4036V198.875Z" fill="#FF8400" stroke="#FF8400"/>
  <path d="M118.572 198.875H112.538V204.909H118.572V198.875Z" fill="#F91C86" stroke="#F91C86"/>
  <path d="M124.606 198.875H118.572V204.909H124.606V198.875Z" fill="#FFBAF9" stroke="#FFBAF9"/>
  <path d="M130.639 198.875H124.605V204.909H130.639V198.875Z" fill="#FFBAF9" stroke="#FFBAF9"/>
  <path d="M136.673 198.875H130.639V204.909H136.673V198.875Z" fill="#FFBAF9" stroke="#FFBAF9"/>
  <path d="M142.706 198.875H136.673V204.909H142.706V198.875Z" fill="#FFBAF9" stroke="#FFBAF9"/>
  <path d="M148.741 198.875H142.707V204.909H148.741V198.875Z" fill="#FFBAF9" stroke="#FFBAF9"/>
  <path d="M154.774 198.875H148.74V204.909H154.774V198.875Z" fill="#F91C86" stroke="#F91C86"/>
  <path d="M184.942 198.875H178.909V204.909H184.942V198.875Z" fill="#FF8400" stroke="#FF8400"/>
  <path d="M190.976 198.875H184.942V204.909H190.976V198.875Z" fill="#FFD500" stroke="#FFD500"/>
  <path d="M197.009 198.875H190.976V204.909H197.009V198.875Z" fill="#FF8400" stroke="#FF8400"/>
  <path d="M203.043 198.875H197.009V204.909H203.043V198.875Z" fill="#FF8400" stroke="#FF8400"/>
  <path d="M76.3361 204.909H70.3025V210.942H76.3361V204.909Z" fill="#FF8400" stroke="#FF8400"/>
  <path d="M82.3699 204.909H76.3362V210.942H82.3699V204.909Z" fill="#FF8400" stroke="#FF8400"/>
  <path d="M88.4036 204.909H82.3699V210.942H88.4036V204.909Z" fill="#FFD500" stroke="#FFD500"/>
  <path d="M118.572 204.909H112.538V210.942H118.572V204.909Z" fill="#F91C86" stroke="#F91C86"/>
  <path d="M124.606 204.909H118.572V210.942H124.606V204.909Z" fill="#F91C86" stroke="#F91C86"/>
  <path d="M130.639 204.909H124.605V210.942H130.639V204.909Z" fill="#F91C86" stroke="#F91C86"/>
  <path d="M136.673 204.909H130.639V210.942H136.673V204.909Z" fill="#F91C86" stroke="#F91C86"/>
  <path d="M142.706 204.909H136.673V210.942H142.706V204.909Z" fill="#F91C86" stroke="#F91C86"/>
  <path d="M148.741 204.909H142.707V210.942H148.741V204.909Z" fill="#F91C86" stroke="#F91C86"/>
  <path d="M154.774 204.909H148.74V210.942H154.774V204.909Z" fill="#F91C86" stroke="#F91C86"/>
  <path d="M184.942 204.909H178.909V210.942H184.942V204.909Z" fill="#FF8400" stroke="#FF8400"/>
  <path d="M190.976 204.909H184.942V210.942H190.976V204.909Z" fill="#FF8400" stroke="#FF8400"/>
  <path d="M197.009 204.909H190.976V210.942H197.009V204.909Z" fill="#FFD500" stroke="#FFD500"/>
  <path d="M203.043 204.909H197.009V210.942H203.043V204.909Z" fill="#FF8400" stroke="#FF8400"/>
  <path d="M76.3361 210.942H70.3025V216.976H76.3361V210.942Z" fill="#FF8400" stroke="#FF8400"/>
  <path d="M82.3699 210.942H76.3362V216.976H82.3699V210.942Z" fill="#FFD500" stroke="#FFD500"/>
  <path d="M88.4036 210.942H82.3699V216.976H88.4036V210.942Z" fill="#FF8400" stroke="#FF8400"/>
  <path d="M94.4372 210.942H88.4036V216.976H94.4372V210.942Z" fill="#FF8400" stroke="#FF8400"/>
  <path d="M118.572 210.942H112.538V216.976H118.572V210.942Z" fill="#FFBAF9" stroke="#FFBAF9"/>
  <path d="M124.606 210.942H118.572V216.976H124.606V210.942Z" fill="#F91C86" stroke="#F91C86"/>
  <path d="M130.639 210.942H124.605V216.976H130.639V210.942Z" fill="#F91C86" stroke="#F91C86"/>
  <path d="M136.673 210.942H130.639V216.976H136.673V210.942Z" fill="#F91C86" stroke="#F91C86"/>
  <path d="M142.706 210.942H136.673V216.976H142.706V210.942Z" fill="#F91C86" stroke="#F91C86"/>
  <path d="M148.741 210.942H142.707V216.976H148.741V210.942Z" fill="#F91C86" stroke="#F91C86"/>
  <path d="M154.774 210.942H148.74V216.976H154.774V210.942Z" fill="#FFBAF9" stroke="#FFBAF9"/>
  <path d="M178.909 210.942H172.875V216.976H178.909V210.942Z" fill="#FFD500" stroke="#FFD500"/>
  <path d="M184.942 210.942H178.909V216.976H184.942V210.942Z" fill="#FF8400" stroke="#FF8400"/>
  <path d="M190.976 210.942H184.942V216.976H190.976V210.942Z" fill="#FFD500" stroke="#FFD500"/>
  <path d="M197.009 210.942H190.976V216.976H197.009V210.942Z" fill="#FF8400" stroke="#FF8400"/>
  <path d="M203.043 210.942H197.009V216.976H203.043V210.942Z" fill="#FF8400" stroke="#FF8400"/>
  <path d="M76.3361 216.976H70.3025V223.01H76.3361V216.976Z" fill="#FF8400" stroke="#FF8400"/>
  <path d="M82.3699 216.976H76.3362V223.01H82.3699V216.976Z" fill="#FF8400" stroke="#FF8400"/>
  <path d="M88.4036 216.976H82.3699V223.01H88.4036V216.976Z" fill="#FF8400" stroke="#FF8400"/>
  <path d="M94.4372 216.976H88.4036V223.01H94.4372V216.976Z" fill="#FFD500" stroke="#FFD500"/>
  <path d="M118.572 216.976H112.538V223.01H118.572V216.976Z" fill="#FFBAF9" stroke="#FFBAF9"/>
  <path d="M124.606 216.976H118.572V223.01H124.606V216.976Z" fill="#FFBAF9" stroke="#FFBAF9"/>
  <path d="M130.639 216.976H124.605V223.01H130.639V216.976Z" fill="#FFBAF9" stroke="#FFBAF9"/>
  <path d="M136.673 216.976H130.639V223.01H136.673V216.976Z" fill="#FFBAF9" stroke="#FFBAF9"/>
  <path d="M142.706 216.976H136.673V223.01H142.706V216.976Z" fill="#F91C86" stroke="#F91C86"/>
  <path d="M148.741 216.976H142.707V223.01H148.741V216.976Z" fill="#FFBAF9" stroke="#FFBAF9"/>
  <path d="M154.774 216.976H148.74V223.01H154.774V216.976Z" fill="#FFBAF9" stroke="#FFBAF9"/>
  <path d="M178.909 216.976H172.875V223.01H178.909V216.976Z" fill="#FFD500" stroke="#FFD500"/>
  <path d="M184.942 216.976H178.909V223.01H184.942V216.976Z" fill="#FF8400" stroke="#FF8400"/>
  <path d="M190.976 216.976H184.942V223.01H190.976V216.976Z" fill="#FF8400" stroke="#FF8400"/>
  <path d="M197.009 216.976H190.976V223.01H197.009V216.976Z" fill="#FF8400" stroke="#FF8400"/>
  <path d="M76.3361 223.01H70.3025V229.043H76.3361V223.01Z" fill="#FF8400" stroke="#FF8400"/>
  <path d="M82.3699 223.01H76.3362V229.043H82.3699V223.01Z" fill="#FF8400" stroke="#FF8400"/>
  <path d="M88.4036 223.01H82.3699V229.043H88.4036V223.01Z" fill="#FF8400" stroke="#FF8400"/>
  <path d="M94.4372 223.01H88.4036V229.043H94.4372V223.01Z" fill="#FFD500" stroke="#FFD500"/>
  <path d="M118.572 223.01H112.538V229.043H118.572V223.01Z" fill="#FFBAF9" stroke="#FFBAF9"/>
  <path d="M124.606 223.01H118.572V229.043H124.606V223.01Z" fill="#FFBAF9" stroke="#FFBAF9"/>
  <path d="M130.639 223.01H124.605V229.043H130.639V223.01Z" fill="#FFBAF9" stroke="#FFBAF9"/>
  <path d="M136.673 223.01H130.639V229.043H136.673V223.01Z" fill="#FFBAF9" stroke="#FFBAF9"/>
  <path d="M142.706 223.01H136.673V229.043H142.706V223.01Z" fill="#F91C86" stroke="#F91C86"/>
  <path d="M148.741 223.01H142.707V229.043H148.741V223.01Z" fill="#FFBAF9" stroke="#FFBAF9"/>
  <path d="M154.774 223.01H148.74V229.043H154.774V223.01Z" fill="#F91C86" stroke="#F91C86"/>
  <path d="M178.909 223.01H172.875V229.043H178.909V223.01Z" fill="#FF8400" stroke="#FF8400"/>
  <path d="M184.942 223.01H178.909V229.043H184.942V223.01Z" fill="#FF8400" stroke="#FF8400"/>
  <path d="M190.976 223.01H184.942V229.043H190.976V223.01Z" fill="#FF8400" stroke="#FF8400"/>
  <path d="M197.009 223.01H190.976V229.043H197.009V223.01Z" fill="#FF8400" stroke="#FF8400"/>
  <path d="M118.572 229.043H112.538V235.077H118.572V229.043Z" fill="#FFBAF9" stroke="#FFBAF9"/>
  <path d="M124.606 229.043H118.572V235.077H124.606V229.043Z" fill="#FFBAF9" stroke="#FFBAF9"/>
  <path d="M130.639 229.043H124.605V235.077H130.639V229.043Z" fill="#FFBAF9" stroke="#FFBAF9"/>
  <path d="M136.673 229.043H130.639V235.077H136.673V229.043Z" fill="#FFBAF9" stroke="#FFBAF9"/>
  <path d="M142.706 229.043H136.673V235.077H142.706V229.043Z" fill="#F91C86" stroke="#F91C86"/>
  <path d="M148.741 229.043H142.707V235.077H148.741V229.043Z" fill="#FFBAF9" stroke="#FFBAF9"/>
  <path d="M154.774 229.043H148.74V235.077H154.774V229.043Z" fill="#F91C86" stroke="#F91C86"/>
  <path d="M118.572 235.077H112.538V241.11H118.572V235.077Z" fill="#78A2FF" stroke="#78A2FF"/>
  <path d="M124.606 235.077H118.572V241.11H124.606V235.077Z" fill="#FFBAF9" stroke="#FFBAF9"/>
  <path d="M130.639 235.077H124.605V241.11H130.639V235.077Z" fill="#FFBAF9" stroke="#FFBAF9"/>
  <path d="M136.673 235.077H130.639V241.11H136.673V235.077Z" fill="#FFBAF9" stroke="#FFBAF9"/>
  <path d="M142.706 235.077H136.673V241.11H142.706V235.077Z" fill="#FFBAF9" stroke="#FFBAF9"/>
  <path d="M148.741 235.077H142.707V241.11H148.741V235.077Z" fill="#FFBAF9" stroke="#FFBAF9"/>
  <path d="M154.774 235.077H148.74V241.11H154.774V235.077Z" fill="#5A0038" stroke="#5A0038"/>
  <path d="M118.572 241.111H112.538V247.145H118.572V241.111Z" fill="#FFBAF9" stroke="#FFBAF9"/>
  <path d="M124.606 241.111H118.572V247.145H124.606V241.111Z" fill="#78A2FF" stroke="#78A2FF"/>
  <path d="M130.639 241.111H124.605V247.145H130.639V241.111Z" fill="#FFBAF9" stroke="#FFBAF9"/>
  <path d="M136.673 241.111H130.639V247.145H136.673V241.111Z" fill="#FFBAF9" stroke="#FFBAF9"/>
  <path d="M142.706 241.111H136.673V247.145H142.706V241.111Z" fill="#FFBAF9" stroke="#FFBAF9"/>
  <path d="M148.741 241.111H142.707V247.145H148.741V241.111Z" fill="#78A2FF" stroke="#78A2FF"/>
  <path d="M154.774 241.111H148.74V247.145H154.774V241.111Z" fill="#F91C86" stroke="#F91C86"/>
  <path d="M124.606 247.145H118.572V253.178H124.606V247.145Z" fill="#FFBAF9" stroke="#FFBAF9"/>
  <path d="M130.639 247.145H124.605V253.178H130.639V247.145Z" fill="#78A2FF" stroke="#78A2FF"/>
  <path d="M136.673 247.145H130.639V253.178H136.673V247.145Z" fill="#FFBAF9" stroke="#FFBAF9"/>
  <path d="M142.706 247.145H136.673V253.178H142.706V247.145Z" fill="#78A2FF" stroke="#78A2FF"/>
  <path d="M148.741 247.145H142.707V253.178H148.741V247.145Z" fill="#FFBAF9" stroke="#FFBAF9"/>
  <path d="M130.639 253.178H124.605V259.212H130.639V253.178Z" fill="#FFBAF9" stroke="#FFBAF9"/>
  <path d="M136.673 253.178H130.639V259.212H136.673V253.178Z" fill="#78A2FF" stroke="#78A2FF"/>
  <path d="M142.706 253.178H136.673V259.212H142.706V253.178Z" fill="#FFBAF9" stroke="#FFBAF9"/>
  <path d="M64.2688 96.3032H58.2351V102.337H64.2688V96.3032Z" fill="#FFD500" stroke="#FFD500"/>
  <path d="M58.2356 102.337H52.2019V108.371H58.2356V102.337Z" fill="#FF8400" stroke="#FF8400"/>
  <path d="M64.2688 102.337H58.2351V108.371H64.2688V102.337Z" fill="#FF8400" stroke="#FF8400"/>
<!--  <path d="M58.2356 108.371H52.2019V114.404H58.2356V108.371Z" fill="none" stroke="none"/>-->
<!--  <path d="M64.2688 108.371H58.2351V114.404H64.2688V108.371Z" fill="none" stroke="none"/>-->
  <path d="M58.2356 78.2021H52.2019V84.2359H58.2356V78.2021Z" fill="#FFD500" stroke="#FFD500"/>
  <path d="M64.2688 78.2021H58.2351V84.2359H64.2688V78.2021Z" fill="#FFD500" stroke="#FFD500"/>
  <path d="M64.2688 72.1685H58.2351V78.2022H64.2688V72.1685Z" fill="#FF8400" stroke="#FF8400"/>
  <path d="M58.2356 84.2358H52.2019V90.2695H58.2356V84.2358Z" fill="#FFD500" stroke="#FFD500"/>
  <path d="M64.2688 84.2358H58.2351V90.2695H64.2688V84.2358Z" fill="#FF8400" stroke="#FF8400"/>
  <path d="M64.2688 90.2695H58.2351V96.3032H64.2688V90.2695Z" fill="#FF8400" stroke="#FF8400"/>
  <path d="M64.2688 114.404H58.2351V120.438H64.2688V114.404Z" fill="#FF8400" stroke="#FF8400"/>
  <path d="M58.2356 120.438H52.2019V126.472H58.2356V120.438Z" fill="#FF8400" stroke="#FF8400"/>
  <path d="M64.2688 120.438H58.2351V126.472H64.2688V120.438Z" fill="#FF8400" stroke="#FF8400"/>
  <path d="M64.2688 138.539H58.2351V144.572H64.2688V138.539Z" fill="#FFD500" stroke="#FFD500"/>
  <path d="M52.2014 84.2358H46.1677V90.2695H52.2014V84.2358Z" fill="#FFD500" stroke="#FFD500"/>
  <path d="M136.673 259.211H130.639V265.245H136.673V259.211Z" fill="#F5F5F5" stroke="#F5F5F5"/>
  <path d="M209.077 96.3032H203.043V102.337H209.077V96.3032Z" fill="#FF8400" stroke="#FF8400"/>
  <path d="M70.3025 66.1348H64.2688V72.1685H70.3025V66.1348Z" fill="#FF8400" stroke="#FF8400"/>
  <path d="M76.3361 66.1348H70.3025V72.1685H76.3361V66.1348Z" fill="#FF8400" stroke="#FF8400"/>
  <path d="M82.3699 66.1348H76.3362V72.1685H82.3699V66.1348Z" fill="#FF8400" stroke="#FF8400"/>
  <path d="M88.4036 66.1348H82.3699V72.1685H88.4036V66.1348Z" fill="#FF8400" stroke="#FF8400"/>
  <path d="M94.4372 66.1348H88.4036V72.1685H94.4372V66.1348Z" fill="#FF8400" stroke="#FF8400"/>
  <path d="M100.47 66.1348H94.4368V72.1685H100.47V66.1348Z" fill="#FF8400" stroke="#FF8400"/>
  <path d="M106.505 66.1348H100.471V72.1685H106.505V66.1348Z" fill="#FF8400" stroke="#FF8400"/>
  <path d="M112.538 66.1348H106.505V72.1685H112.538V66.1348Z" fill="#FF8400" stroke="#FF8400"/>
  <path d="M118.572 66.1348H112.538V72.1685H118.572V66.1348Z" fill="#FF8400" stroke="#FF8400"/>
  <path d="M124.606 66.1348H118.572V72.1685H124.606V66.1348Z" fill="#FF8400" stroke="#FF8400"/>
  <path d="M130.639 66.1348H124.605V72.1685H130.639V66.1348Z" fill="#FFD500" stroke="#FFD500"/>
  <path d="M136.673 66.1348H130.639V72.1685H136.673V66.1348Z" fill="#FF8400" stroke="#FF8400"/>
  <path d="M142.706 66.1348H136.673V72.1685H142.706V66.1348Z" fill="#FF8400" stroke="#FF8400"/>
  <path d="M148.741 66.1348H142.707V72.1685H148.741V66.1348Z" fill="#FFD500" stroke="#FFD500"/>
  <path d="M154.774 66.1348H148.74V72.1685H154.774V66.1348Z" fill="#FFD500" stroke="#FFD500"/>
  <path d="M160.808 66.1348H154.774V72.1685H160.808V66.1348Z" fill="#FF8400" stroke="#FF8400"/>
  <path d="M166.841 66.1348H160.808V72.1685H166.841V66.1348Z" fill="#FF8400" stroke="#FF8400"/>
  <path d="M172.875 66.1348H166.841V72.1685H172.875V66.1348Z" fill="#FF8400" stroke="#FF8400"/>
  <path d="M178.909 66.1348H172.875V72.1685H178.909V66.1348Z" fill="#FFD500" stroke="#FFD500"/>
  <path d="M184.942 66.1348H178.909V72.1685H184.942V66.1348Z" fill="#FF8400" stroke="#FF8400"/>
  <path d="M190.976 66.1348H184.942V72.1685H190.976V66.1348Z" fill="#FF8400" stroke="#FF8400"/>
  <path d="M197.009 66.1348H190.976V72.1685H197.009V66.1348Z" fill="#FF8400" stroke="#FF8400"/>
  <path d="M64.2688 66.1348H58.2351V72.1685H64.2688V66.1348Z" fill="#FF8400" stroke="#FF8400"/>
  <path d="M70.3025 60.1011H64.2688V66.1348H70.3025V60.1011Z" fill="#FF8400" stroke="#FF8400"/>
  <path d="M76.3361 60.1011H70.3025V66.1348H76.3361V60.1011Z" fill="#FF8400" stroke="#FF8400"/>
  <path d="M82.3699 60.1011H76.3362V66.1348H82.3699V60.1011Z" fill="#FF8400" stroke="#FF8400"/>
  <path d="M88.4036 60.1011H82.3699V66.1348H88.4036V60.1011Z" fill="#FF8400" stroke="#FF8400"/>
  <path d="M94.4372 60.1011H88.4036V66.1348H94.4372V60.1011Z" fill="#FFD500" stroke="#FFD500"/>
  <path d="M100.47 60.1011H94.4368V66.1348H100.47V60.1011Z" fill="#FF8400" stroke="#FF8400"/>
  <path d="M106.505 60.1011H100.471V66.1348H106.505V60.1011Z" fill="#FF8400" stroke="#FF8400"/>
  <path d="M112.538 60.1011H106.505V66.1348H112.538V60.1011Z" fill="#FF8400" stroke="#FF8400"/>
  <path d="M118.572 60.1011H112.538V66.1348H118.572V60.1011Z" fill="#FF8400" stroke="#FF8400"/>
  <path d="M124.606 60.1011H118.572V66.1348H124.606V60.1011Z" fill="#FF8400" stroke="#FF8400"/>
  <path d="M130.639 60.1011H124.605V66.1348H130.639V60.1011Z" fill="#FF8400" stroke="#FF8400"/>
  <path d="M136.673 60.1011H130.639V66.1348H136.673V60.1011Z" fill="#FFD500" stroke="#FFD500"/>
  <path d="M142.706 60.1011H136.673V66.1348H142.706V60.1011Z" fill="#FF8400" stroke="#FF8400"/>
  <path d="M148.741 60.1011H142.707V66.1348H148.741V60.1011Z" fill="#FF8400" stroke="#FF8400"/>
  <path d="M154.774 60.1011H148.74V66.1348H154.774V60.1011Z" fill="#FF8400" stroke="#FF8400"/>
  <path d="M160.808 60.1011H154.774V66.1348H160.808V60.1011Z" fill="#FF8400" stroke="#FF8400"/>
  <path d="M166.841 60.1011H160.808V66.1348H166.841V60.1011Z" fill="#FF8400" stroke="#FF8400"/>
  <path d="M172.875 60.1011H166.841V66.1348H172.875V60.1011Z" fill="#FF8400" stroke="#FF8400"/>
  <path d="M178.909 60.1011H172.875V66.1348H178.909V60.1011Z" fill="#FF8400" stroke="#FF8400"/>
  <path d="M184.942 60.1011H178.909V66.1348H184.942V60.1011Z" fill="#FF8400" stroke="#FF8400"/>
  <path d="M197.009 60.1011H190.976V66.1348H197.009V60.1011Z" fill="#FF8400" stroke="#FF8400"/>
  <path d="M203.043 60.1011H197.009V66.1348H203.043V60.1011Z" fill="#FF8400" stroke="#FF8400"/>
  <path d="M58.2356 60.1011H52.2019V66.1348H58.2356V60.1011Z" fill="#FF8400" stroke="#FF8400"/>
  <path d="M64.2688 60.1011H58.2351V66.1348H64.2688V60.1011Z" fill="#FF8400" stroke="#FF8400"/>
  <path d="M209.077 60.1011H203.043V66.1348H209.077V60.1011Z" fill="#FF8400" stroke="#FF8400"/>
  <path d="M82.3699 54.0679H76.3362V60.1016H82.3699V54.0679Z" fill="#FF8400" stroke="#FF8400"/>
  <path d="M88.4036 54.0679H82.3699V60.1016H88.4036V54.0679Z" fill="#FFD500" stroke="#FFD500"/>
  <path d="M94.4372 54.0679H88.4036V60.1016H94.4372V54.0679Z" fill="#FF8400" stroke="#FF8400"/>
  <path d="M100.47 54.0679H94.4368V60.1016H100.47V54.0679Z" fill="#FF8400" stroke="#FF8400"/>
  <path d="M106.505 54.0679H100.471V60.1016H106.505V54.0679Z" fill="#FF8400" stroke="#FF8400"/>
  <path d="M112.538 54.0679H106.505V60.1016H112.538V54.0679Z" fill="#FF8400" stroke="#FF8400"/>
  <path d="M118.572 54.0679H112.538V60.1016H118.572V54.0679Z" fill="#FFD500" stroke="#FFD500"/>
  <path d="M124.606 54.0679H118.572V60.1016H124.606V54.0679Z" fill="#FF8400" stroke="#FF8400"/>
  <path d="M130.639 54.0679H124.605V60.1016H130.639V54.0679Z" fill="#FF8400" stroke="#FF8400"/>
  <path d="M136.673 54.0679H130.639V60.1016H136.673V54.0679Z" fill="#FF8400" stroke="#FF8400"/>
  <path d="M142.706 54.0679H136.673V60.1016H142.706V54.0679Z" fill="#FF8400" stroke="#FF8400"/>
  <path d="M148.741 54.0679H142.707V60.1016H148.741V54.0679Z" fill="#FF8400" stroke="#FF8400"/>
  <path d="M154.774 54.0679H148.74V60.1016H154.774V54.0679Z" fill="#FF8400" stroke="#FF8400"/>
  <path d="M160.808 54.0679H154.774V60.1016H160.808V54.0679Z" fill="#FFD500" stroke="#FFD500"/>
  <path d="M166.841 54.0679H160.808V60.1016H166.841V54.0679Z" fill="#FFD500" stroke="#FFD500"/>
  <path d="M172.875 54.0679H166.841V60.1016H172.875V54.0679Z" fill="#FF8400" stroke="#FF8400"/>
  <path d="M178.909 54.0679H172.875V60.1016H178.909V54.0679Z" fill="#FF8400" stroke="#FF8400"/>
  <path d="M70.3025 48.0342H64.2688V54.0679H70.3025V48.0342Z" fill="#FF8400" stroke="#FF8400"/>
  <path d="M76.3361 48.0342H70.3025V54.0679H76.3361V48.0342Z" fill="#FF8400" stroke="#FF8400"/>
  <path d="M82.3699 48.0342H76.3362V54.0679H82.3699V48.0342Z" fill="#FFD500" stroke="#FFD500"/>
  <path d="M88.4036 48.0342H82.3699V54.0679H88.4036V48.0342Z" fill="#FF8400" stroke="#FF8400"/>
  <path d="M94.4372 48.0342H88.4036V54.0679H94.4372V48.0342Z" fill="#FF8400" stroke="#FF8400"/>
  <path d="M100.47 48.0342H94.4368V54.0679H100.47V48.0342Z" fill="#FF8400" stroke="#FF8400"/>
  <path d="M106.505 48.0342H100.471V54.0679H106.505V48.0342Z" fill="#FFD500" stroke="#FFD500"/>
  <path d="M112.538 48.0342H106.505V54.0679H112.538V48.0342Z" fill="#FFD500" stroke="#FFD500"/>
  <path d="M124.606 48.0342H118.572V54.0679H124.606V48.0342Z" fill="#FF8400" stroke="#FF8400"/>
  <path d="M130.639 48.0342H124.605V54.0679H130.639V48.0342Z" fill="#FF8400" stroke="#FF8400"/>
  <path d="M136.673 48.0342H130.639V54.0679H136.673V48.0342Z" fill="#FFD500" stroke="#FFD500"/>
  <path d="M142.706 48.0342H136.673V54.0679H142.706V48.0342Z" fill="#FF8400" stroke="#FF8400"/>
  <path d="M148.741 48.0342H142.707V54.0679H148.741V48.0342Z" fill="#FFD500" stroke="#FFD500"/>
  <path d="M154.774 48.0342H148.74V54.0679H154.774V48.0342Z" fill="#FFD500" stroke="#FFD500"/>
  <path d="M160.808 48.0342H154.774V54.0679H160.808V48.0342Z" fill="#FF8400" stroke="#FF8400"/>
  <path d="M166.841 48.0342H160.808V54.0679H166.841V48.0342Z" fill="#FF8400" stroke="#FF8400"/>
  <path d="M172.875 48.0342H166.841V54.0679H172.875V48.0342Z" fill="#FF8400" stroke="#FF8400"/>
  <path d="M178.909 48.0342H172.875V54.0679H178.909V48.0342Z" fill="#FF8400" stroke="#FF8400"/>
  <path d="M184.942 48.0342H178.909V54.0679H184.942V48.0342Z" fill="#FF8400" stroke="#FF8400"/>
  <path d="M70.3025 42.0005H64.2688V48.0342H70.3025V42.0005Z" fill="#FF8400" stroke="#FF8400"/>
  <path d="M100.47 42.0005H94.4368V48.0342H100.47V42.0005Z" fill="#FF8400" stroke="#FF8400"/>
  <path d="M106.505 42.0005H100.471V48.0342H106.505V42.0005Z" fill="#FFD500" stroke="#FFD500"/>
<!--  <path d="M112.538 42.0005H106.505V48.0342H112.538V42.0005Z" fill="none" stroke="none"/>-->
<!--  <path d="M118.572 42.0005H112.538V48.0342H118.572V42.0005Z" fill="none" stroke="none"/>-->
  <path d="M124.606 42.0005H118.572V48.0342H124.606V42.0005Z" fill="#FF8400" stroke="#FF8400"/>
  <path d="M130.639 42.0005H124.605V48.0342H130.639V42.0005Z" fill="#FF8400" stroke="#FF8400"/>
  <path d="M136.673 42.0005H130.639V48.0342H136.673V42.0005Z" fill="#FF8400" stroke="#FF8400"/>
  <path d="M142.706 42.0005H136.673V48.0342H142.706V42.0005Z" fill="#FFD500" stroke="#FFD500"/>
  <path d="M148.741 42.0005H142.707V48.0342H148.741V42.0005Z" fill="#FF8400" stroke="#FF8400"/>
  <path d="M154.774 42.0005H148.74V48.0342H154.774V42.0005Z" fill="#FF8400" stroke="#FF8400"/>
  <path d="M160.808 42.0005H154.774V48.0342H160.808V42.0005Z" fill="#FF8400" stroke="#FF8400"/>
  <path d="M100.47 35.9668H94.4368V42.0005H100.47V35.9668Z" fill="#FF8400" stroke="#FF8400"/>
  <path d="M130.639 35.9668H124.605V42.0005H130.639V35.9668Z" fill="#FF8400" stroke="#FF8400"/>
  <path d="M136.673 35.9668H130.639V42.0005H136.673V35.9668Z" fill="#FF8400" stroke="#FF8400"/>
  <path d="M142.706 35.9668H136.673V42.0005H142.706V35.9668Z" fill="#FF8400" stroke="#FF8400"/>
  <path d="M148.741 35.9668H142.707V42.0005H148.741V35.9668Z" fill="#FFD500" stroke="#FFD500"/>
  <path d="M154.774 35.9668H148.74V42.0005H154.774V35.9668Z" fill="#FFD500" stroke="#FFD500"/>
  <path d="M160.808 35.9668H154.774V42.0005H160.808V35.9668Z" fill="#FF8400" stroke="#FF8400"/>
  <path d="M166.841 35.9668H160.808V42.0005H166.841V35.9668Z" fill="#FF8400" stroke="#FF8400"/>
  <path d="M172.875 35.9668H166.841V42.0005H172.875V35.9668Z" fill="#FF8400" stroke="#FF8400"/>
  <path d="M94.4372 29.9331H88.4036V35.9668H94.4372V29.9331Z" fill="#FF8400" stroke="#FF8400"/>
  <path d="M100.47 29.9331H94.4368V35.9668H100.47V29.9331Z" fill="#FF8400" stroke="#FF8400"/>
  <path d="M142.706 29.9331H136.673V35.9668H142.706V29.9331Z" fill="#FF8400" stroke="#FF8400"/>
  <path d="M148.741 29.9331H142.707V35.9668H148.741V29.9331Z" fill="#FF8400" stroke="#FF8400"/>
  <path d="M154.774 29.9331H148.74V35.9668H154.774V29.9331Z" fill="#FF8400" stroke="#FF8400"/>
  <path d="M160.808 29.9331H154.774V35.9668H160.808V29.9331Z" fill="#FFD500" stroke="#FFD500"/>
  <path d="M178.909 29.9331H172.875V35.9668H178.909V29.9331Z" fill="#FF8400" stroke="#FF8400"/>
  <path d="M154.774 23.8994H148.74V29.9331H154.774V23.8994Z" fill="#FF8400" stroke="#FF8400"/>
  <path d="M118.572 132.505H112.538V138.539H118.572V132.505Z" fill="#5CFF00" stroke="#5CFF00"/>
  <path d="M160.808 132.505H154.774V138.539H160.808V132.505Z" fill="#5CFF00" stroke="#5CFF00"/>
  <path d="M94.4372 198.875H88.4036V204.909H94.4372V198.875Z" fill="#FFD500" stroke="#FFD500"/>
  <path d="M100.47 198.875H94.4368V204.909H100.47V198.875Z" fill="#FF8400" stroke="#FF8400"/>
  <path d="M172.875 198.875H166.841V204.909H172.875V198.875Z" fill="#FF8400" stroke="#FF8400"/>
  <path d="M178.909 198.875H172.875V204.909H178.909V198.875Z" fill="#FFD500" stroke="#FFD500"/>
  <path d="M94.4372 204.909H88.4036V210.942H94.4372V204.909Z" fill="#FF8400" stroke="#FF8400"/>
  <path d="M100.47 204.909H94.4368V210.942H100.47V204.909Z" fill="#FF8400" stroke="#FF8400"/>
  <path d="M106.505 204.909H100.471V210.942H106.505V204.909Z" fill="#FF8400" stroke="#FF8400"/>
  <path d="M166.841 204.909H160.808V210.942H166.841V204.909Z" fill="#FF8400" stroke="#FF8400"/>
  <path d="M172.875 204.909H166.841V210.942H172.875V204.909Z" fill="#FF8400" stroke="#FF8400"/>
  <path d="M178.909 204.909H172.875V210.942H178.909V204.909Z" fill="#FFD500" stroke="#FFD500"/>
  <path d="M100.47 210.942H94.4368V216.976H100.47V210.942Z" fill="#FFD500" stroke="#FFD500"/>
  <path d="M106.505 210.942H100.471V216.976H106.505V210.942Z" fill="#FF8400" stroke="#FF8400"/>
  <path d="M166.841 210.942H160.808V216.976H166.841V210.942Z" fill="#FF8400" stroke="#FF8400"/>
  <path d="M172.875 210.942H166.841V216.976H172.875V210.942Z" fill="#FFD500" stroke="#FFD500"/>
  <path d="M100.47 216.976H94.4368V223.01H100.47V216.976Z" fill="#FF8400" stroke="#FF8400"/>
  <path d="M106.505 216.976H100.471V223.01H106.505V216.976Z" fill="#FF8400" stroke="#FF8400"/>
  <path d="M166.841 216.976H160.808V223.01H166.841V216.976Z" fill="#FF8400" stroke="#FF8400"/>
  <path d="M172.875 216.976H166.841V223.01H172.875V216.976Z" fill="#FF8400" stroke="#FF8400"/>
  <path d="M100.47 223.01H94.4368V229.043H100.47V223.01Z" fill="#FF8400" stroke="#FF8400"/>
  <path d="M106.505 223.01H100.471V229.043H106.505V223.01Z" fill="#5A0038" stroke="#5A0038"/>
  <path d="M166.841 223.01H160.808V229.043H166.841V223.01Z" fill="#FF8400" stroke="#FF8400"/>
  <path d="M172.875 223.01H166.841V229.043H172.875V223.01Z" fill="#FF8400" stroke="#FF8400"/>
  <path d="M70.3025 229.043H64.2688V235.077H70.3025V229.043Z" fill="#5A0038" stroke="#5A0038"/>
  <path d="M76.3361 229.043H70.3025V235.077H76.3361V229.043Z" fill="#FF8400" stroke="#FF8400"/>
  <path d="M82.3699 229.043H76.3362V235.077H82.3699V229.043Z" fill="#FF8400" stroke="#FF8400"/>
  <path d="M88.4036 229.043H82.3699V235.077H88.4036V229.043Z" fill="#FFD500" stroke="#FFD500"/>
  <path d="M94.4372 229.043H88.4036V235.077H94.4372V229.043Z" fill="#FF8400" stroke="#FF8400"/>
  <path d="M100.47 229.043H94.4368V235.077H100.47V229.043Z" fill="#FF8400" stroke="#FF8400"/>
  <path d="M106.505 229.043H100.471V235.077H106.505V229.043Z" fill="#5A0038" stroke="#5A0038"/>
  <path d="M166.841 229.043H160.808V235.077H166.841V229.043Z" fill="#FF8400" stroke="#FF8400"/>
  <path d="M172.875 229.043H166.841V235.077H172.875V229.043Z" fill="#FFD500" stroke="#FFD500"/>
  <path d="M178.909 229.043H172.875V235.077H178.909V229.043Z" fill="#FF8400" stroke="#FF8400"/>
  <path d="M184.942 229.043H178.909V235.077H184.942V229.043Z" fill="#FF8400" stroke="#FF8400"/>
  <path d="M190.976 229.043H184.942V235.077H190.976V229.043Z" fill="#FF8400" stroke="#FF8400"/>
  <path d="M197.009 229.043H190.976V235.077H197.009V229.043Z" fill="#FF8400" stroke="#FF8400"/>
  <path d="M203.043 229.043H197.009V235.077H203.043V229.043Z" fill="#5A0038" stroke="#5A0038"/>
  <path d="M70.3025 235.077H64.2688V241.11H70.3025V235.077Z" fill="#5A0038" stroke="#5A0038"/>
  <path d="M76.3361 235.077H70.3025V241.11H76.3361V235.077Z" fill="#FF8400" stroke="#FF8400"/>
  <path d="M82.3699 235.077H76.3362V241.11H82.3699V235.077Z" fill="#FFD500" stroke="#FFD500"/>
  <path d="M88.4036 235.077H82.3699V241.11H88.4036V235.077Z" fill="#FF8400" stroke="#FF8400"/>
  <path d="M94.4372 235.077H88.4036V241.11H94.4372V235.077Z" fill="#FF8400" stroke="#FF8400"/>
  <path d="M100.47 235.077H94.4368V241.11H100.47V235.077Z" fill="#5A0038" stroke="#5A0038"/>
  <path d="M106.505 235.077H100.471V241.11H106.505V235.077Z" fill="#FF8400" stroke="#FF8400"/>
  <path d="M166.841 235.077H160.808V241.11H166.841V235.077Z" fill="#5A0038" stroke="#5A0038"/>
  <path d="M172.875 235.077H166.841V241.11H172.875V235.077Z" fill="#FF8400" stroke="#FF8400"/>
  <path d="M178.909 235.077H172.875V241.11H178.909V235.077Z" fill="#FFD500" stroke="#FFD500"/>
  <path d="M184.942 235.077H178.909V241.11H184.942V235.077Z" fill="#FF8400" stroke="#FF8400"/>
  <path d="M190.976 235.077H184.942V241.11H190.976V235.077Z" fill="#FFD500" stroke="#FFD500"/>
  <path d="M197.009 235.077H190.976V241.11H197.009V235.077Z" fill="#FF8400" stroke="#FF8400"/>
  <path d="M203.043 235.077H197.009V241.11H203.043V235.077Z" fill="#FF8400" stroke="#FF8400"/>
  <path d="M70.3025 241.111H64.2688V247.145H70.3025V241.111Z" fill="#5A0038" stroke="#5A0038"/>
  <path d="M76.3361 241.111H70.3025V247.145H76.3361V241.111Z" fill="#FF8400" stroke="#FF8400"/>
  <path d="M82.3699 241.111H76.3362V247.145H82.3699V241.111Z" fill="#FF8400" stroke="#FF8400"/>
  <path d="M88.4036 241.111H82.3699V247.145H88.4036V241.111Z" fill="#FF8400" stroke="#FF8400"/>
  <path d="M94.4372 241.111H88.4036V247.145H94.4372V241.111Z" fill="#5A0038" stroke="#5A0038"/>
  <path d="M100.47 241.111H94.4368V247.145H100.47V241.111Z" fill="#FF8400" stroke="#FF8400"/>
  <path d="M106.505 241.111H100.471V247.145H106.505V241.111Z" fill="#FF8400" stroke="#FF8400"/>
  <path d="M166.841 241.111H160.808V247.145H166.841V241.111Z" fill="#FF8400" stroke="#FF8400"/>
  <path d="M172.875 241.111H166.841V247.145H172.875V241.111Z" fill="#5A0038" stroke="#5A0038"/>
  <path d="M178.909 241.111H172.875V247.145H178.909V241.111Z" fill="#FF8400" stroke="#FF8400"/>
  <path d="M184.942 241.111H178.909V247.145H184.942V241.111Z" fill="#FF8400" stroke="#FF8400"/>
  <path d="M190.976 241.111H184.942V247.145H190.976V241.111Z" fill="#FF8400" stroke="#FF8400"/>
  <path d="M197.009 241.111H190.976V247.145H197.009V241.111Z" fill="#FFD500" stroke="#FFD500"/>
  <path d="M203.043 241.111H197.009V247.145H203.043V241.111Z" fill="#FF8400" stroke="#FF8400"/>
  <path d="M70.3025 247.145H64.2688V253.178H70.3025V247.145Z" fill="#FF8400" stroke="#FF8400"/>
  <path d="M76.3361 247.145H70.3025V253.178H76.3361V247.145Z" fill="#5A0038" stroke="#5A0038"/>
  <path d="M82.3699 247.145H76.3362V253.178H82.3699V247.145Z" fill="#FF8400" stroke="#FF8400"/>
  <path d="M88.4036 247.145H82.3699V253.178H88.4036V247.145Z" fill="#FF8400" stroke="#FF8400"/>
  <path d="M94.4372 247.145H88.4036V253.178H94.4372V247.145Z" fill="#5A0038" stroke="#5A0038"/>
  <path d="M100.47 247.145H94.4368V253.178H100.47V247.145Z" fill="#FF8400" stroke="#FF8400"/>
  <path d="M106.505 247.145H100.471V253.178H106.505V247.145Z" fill="#FF8400" stroke="#FF8400"/>
  <path d="M112.538 247.145H106.505V253.178H112.538V247.145Z" fill="#FFBAF9" stroke="#FFBAF9"/>
  <path d="M160.808 247.145H154.774V253.178H160.808V247.145Z" fill="#F91C86" stroke="#F91C86"/>
  <path d="M166.841 247.145H160.808V253.178H166.841V247.145Z" fill="#FF8400" stroke="#FF8400"/>
  <path d="M172.875 247.145H166.841V253.178H172.875V247.145Z" fill="#FF8400" stroke="#FF8400"/>
  <path d="M178.909 247.145H172.875V253.178H178.909V247.145Z" fill="#5A0038" stroke="#5A0038"/>
  <path d="M184.942 247.145H178.909V253.178H184.942V247.145Z" fill="#FF8400" stroke="#FF8400"/>
  <path d="M190.976 247.145H184.942V253.178H190.976V247.145Z" fill="#FF8400" stroke="#FF8400"/>
  <path d="M197.009 247.145H190.976V253.178H197.009V247.145Z" fill="#FF8400" stroke="#FF8400"/>
  <path d="M203.043 247.145H197.009V253.178H203.043V247.145Z" fill="#FF8400" stroke="#FF8400"/>
  <path d="M70.3025 253.178H64.2688V259.212H70.3025V253.178Z" fill="#FF8400" stroke="#FF8400"/>
  <path d="M76.3361 253.178H70.3025V259.212H76.3361V253.178Z" fill="#FF8400" stroke="#FF8400"/>
  <path d="M82.3699 253.178H76.3362V259.212H82.3699V253.178Z" fill="#FF8400" stroke="#FF8400"/>
  <path d="M88.4036 253.178H82.3699V259.212H88.4036V253.178Z" fill="#5A0038" stroke="#5A0038"/>
  <path d="M94.4372 253.178H88.4036V259.212H94.4372V253.178Z" fill="#FF8400" stroke="#FF8400"/>
  <path d="M100.47 253.178H94.4368V259.212H100.47V253.178Z" fill="#FF8400" stroke="#FF8400"/>
  <path d="M106.505 253.178H100.471V259.212H106.505V253.178Z" fill="#FF8400" stroke="#FF8400"/>
  <path d="M112.538 253.178H106.505V259.212H112.538V253.178Z" fill="#FFBAF9" stroke="#FFBAF9"/>
  <path d="M118.572 253.178H112.538V259.212H118.572V253.178Z" fill="#FFBAF9" stroke="#FFBAF9"/>
  <path d="M154.774 253.178H148.74V259.212H154.774V253.178Z" fill="#FFBAF9" stroke="#FFBAF9"/>
  <path d="M160.808 253.178H154.774V259.212H160.808V253.178Z" fill="#F91C86" stroke="#F91C86"/>
  <path d="M166.841 253.178H160.808V259.212H166.841V253.178Z" fill="#FF8400" stroke="#FF8400"/>
  <path d="M172.875 253.178H166.841V259.212H172.875V253.178Z" fill="#FF8400" stroke="#FF8400"/>
  <path d="M178.909 253.178H172.875V259.212H178.909V253.178Z" fill="#FF8400" stroke="#FF8400"/>
  <path d="M184.942 253.178H178.909V259.212H184.942V253.178Z" fill="#5A0038" stroke="#5A0038"/>
  <path d="M190.976 253.178H184.942V259.212H190.976V253.178Z" fill="#FF8400" stroke="#FF8400"/>
  <path d="M197.009 253.178H190.976V259.212H197.009V253.178Z" fill="#5A0038" stroke="#5A0038"/>
  <path d="M203.043 253.178H197.009V259.212H203.043V253.178Z" fill="#5A0038" stroke="#5A0038"/>
  <path d="M70.3025 259.211H64.2688V265.245H70.3025V259.211Z" fill="#5A0038" stroke="#5A0038"/>
  <path d="M76.3361 259.211H70.3025V265.245H76.3361V259.211Z" fill="#5A0038" stroke="#5A0038"/>
  <path d="M58.2356 229.043H52.2019V235.077H58.2356V229.043Z" fill="#FF8400" stroke="#FF8400"/>
  <path d="M64.2688 229.043H58.2351V235.077H64.2688V229.043Z" fill="#FF8400" stroke="#FF8400"/>
  <path d="M58.2356 235.077H52.2019V241.11H58.2356V235.077Z" fill="#FF8400" stroke="#FF8400"/>
  <path d="M64.2688 235.077H58.2351V241.11H64.2688V235.077Z" fill="#FF8400" stroke="#FF8400"/>
  <path d="M58.2356 241.111H52.2019V247.145H58.2356V241.111Z" fill="#FF8400" stroke="#FF8400"/>
  <path d="M64.2688 241.111H58.2351V247.145H64.2688V241.111Z" fill="#FF8400" stroke="#FF8400"/>
  <path d="M58.2356 247.145H52.2019V253.178H58.2356V247.145Z" fill="#FF8400" stroke="#FF8400"/>
  <path d="M64.2688 247.145H58.2351V253.178H64.2688V247.145Z" fill="#5A0038" stroke="#5A0038"/>
  <path d="M58.2356 253.178H52.2019V259.212H58.2356V253.178Z" fill="#FF8400" stroke="#FF8400"/>
  <path d="M64.2688 253.178H58.2351V259.212H64.2688V253.178Z" fill="#5A0038" stroke="#5A0038"/>
  <path d="M58.2356 259.211H52.2019V265.245H58.2356V259.211Z" fill="#FF8400" stroke="#FF8400"/>
  <path d="M64.2688 259.211H58.2351V265.245H64.2688V259.211Z" fill="#5A0038" stroke="#5A0038"/>
  <path d="M46.1682 229.043H40.1345V235.077H46.1682V229.043Z" fill="#FF8400" stroke="#FF8400"/>
  <path d="M52.2014 229.043H46.1677V235.077H52.2014V229.043Z" fill="#FF8400" stroke="#FF8400"/>
  <path d="M46.1682 235.077H40.1345V241.11H46.1682V235.077Z" fill="#FF8400" stroke="#FF8400"/>
  <path d="M52.2014 235.077H46.1677V241.11H52.2014V235.077Z" fill="#FF8400" stroke="#FF8400"/>
  <path d="M46.1682 241.111H40.1345V247.145H46.1682V241.111Z" fill="#FF8400" stroke="#FF8400"/>
  <path d="M52.2014 241.111H46.1677V247.145H52.2014V241.111Z" fill="#FF8400" stroke="#FF8400"/>
  <path d="M46.1682 247.145H40.1345V253.178H46.1682V247.145Z" fill="#FF8400" stroke="#FF8400"/>
  <path d="M52.2014 247.145H46.1677V253.178H52.2014V247.145Z" fill="#FF8400" stroke="#FF8400"/>
  <path d="M46.1682 253.178H40.1345V259.212H46.1682V253.178Z" fill="#FF8400" stroke="#FF8400"/>
  <path d="M52.2014 253.178H46.1677V259.212H52.2014V253.178Z" fill="#FF8400" stroke="#FF8400"/>
  <path d="M46.1682 259.211H40.1345V265.245H46.1682V259.211Z" fill="#FF8400" stroke="#FF8400"/>
  <path d="M52.2014 259.211H46.1677V265.245H52.2014V259.211Z" fill="#FF8400" stroke="#FF8400"/>
  <path d="M34.1009 229.043H28.0671V235.077H34.1009V229.043Z" fill="#FF8400" stroke="#FF8400"/>
  <path d="M40.1345 229.043H34.1008V235.077H40.1345V229.043Z" fill="#FF8400" stroke="#FF8400"/>
  <path d="M34.1009 235.077H28.0671V241.11H34.1009V235.077Z" fill="#FF8400" stroke="#FF8400"/>
  <path d="M40.1345 235.077H34.1008V241.11H40.1345V235.077Z" fill="#FF8400" stroke="#FF8400"/>
  <path d="M34.1009 241.111H28.0671V247.145H34.1009V241.111Z" fill="#FF8400" stroke="#FF8400"/>
  <path d="M40.1345 241.111H34.1008V247.145H40.1345V241.111Z" fill="#FF8400" stroke="#FF8400"/>
  <path d="M34.1009 247.145H28.0671V253.178H34.1009V247.145Z" fill="#FF8400" stroke="#FF8400"/>
  <path d="M40.1345 247.145H34.1008V253.178H40.1345V247.145Z" fill="#FF8400" stroke="#FF8400"/>
  <path d="M34.1009 253.178H28.0671V259.212H34.1009V253.178Z" fill="#FF8400" stroke="#FF8400"/>
  <path d="M40.1345 253.178H34.1008V259.212H40.1345V253.178Z" fill="#FF8400" stroke="#FF8400"/>
  <path d="M34.1009 259.211H28.0671V265.245H34.1009V259.211Z" fill="#FF8400" stroke="#FF8400"/>
  <path d="M40.1345 259.211H34.1008V265.245H40.1345V259.211Z" fill="#FF8400" stroke="#FF8400"/>
  <path d="M28.0671 235.077H22.0334V241.11H28.0671V235.077Z" fill="#FF8400" stroke="#FF8400"/>
  <path d="M22.0335 241.111H15.9998V247.145H22.0335V241.111Z" fill="#FF8400" stroke="#FF8400"/>
  <path d="M28.0671 241.111H22.0334V247.145H28.0671V241.111Z" fill="#FF8400" stroke="#FF8400"/>
  <path d="M22.0335 247.145H15.9998V253.178H22.0335V247.145Z" fill="#FF8400" stroke="#FF8400"/>
  <path d="M28.0671 247.145H22.0334V253.178H28.0671V247.145Z" fill="#FF8400" stroke="#FF8400"/>
  <path d="M22.0335 253.178H15.9998V259.212H22.0335V253.178Z" fill="#FF8400" stroke="#FF8400"/>
  <path d="M28.0671 253.178H22.0334V259.212H28.0671V253.178Z" fill="#FF8400" stroke="#FF8400"/>
  <path d="M22.0335 259.211H15.9998V265.245H22.0335V259.211Z" fill="#FF8400" stroke="#FF8400"/>
  <path d="M28.0671 259.211H22.0334V265.245H28.0671V259.211Z" fill="#FF8400" stroke="#FF8400"/>
  <path d="M82.3699 259.211H76.3362V265.245H82.3699V259.211Z" fill="#5A0038" stroke="#5A0038"/>
  <path d="M88.4036 259.211H82.3699V265.245H88.4036V259.211Z" fill="#FF8400" stroke="#FF8400"/>
  <path d="M94.4372 259.211H88.4036V265.245H94.4372V259.211Z" fill="#FF8400" stroke="#FF8400"/>
  <path d="M100.47 259.211H94.4368V265.245H100.47V259.211Z" fill="#FF8400" stroke="#FF8400"/>
  <path d="M106.505 259.211H100.471V265.245H106.505V259.211Z" fill="#FFBAF9" stroke="#FFBAF9"/>
  <path d="M112.538 259.211H106.505V265.245H112.538V259.211Z" fill="#FFBAF9" stroke="#FFBAF9"/>
  <path d="M118.572 259.211H112.538V265.245H118.572V259.211Z" fill="#FFBAF9" stroke="#FFBAF9"/>
  <path d="M124.606 259.211H118.572V265.245H124.606V259.211Z" fill="#FFBAF9" stroke="#FFBAF9"/>
  <path d="M148.741 259.211H142.707V265.245H148.741V259.211Z" fill="#FFBAF9" stroke="#FFBAF9"/>
  <path d="M154.774 259.211H148.74V265.245H154.774V259.211Z" fill="#FFBAF9" stroke="#FFBAF9"/>
  <path d="M160.808 259.211H154.774V265.245H160.808V259.211Z" fill="#F91C86" stroke="#F91C86"/>
  <path d="M166.841 259.211H160.808V265.245H166.841V259.211Z" fill="#F91C86" stroke="#F91C86"/>
  <path d="M172.875 259.211H166.841V265.245H172.875V259.211Z" fill="#FF8400" stroke="#FF8400"/>
  <path d="M178.909 259.211H172.875V265.245H178.909V259.211Z" fill="#FF8400" stroke="#FF8400"/>
  <path d="M184.942 259.211H178.909V265.245H184.942V259.211Z" fill="#FF8400" stroke="#FF8400"/>
  <path d="M190.976 259.211H184.942V265.245H190.976V259.211Z" fill="#5A0038" stroke="#5A0038"/>
  <path d="M197.009 259.211H190.976V265.245H197.009V259.211Z" fill="#5A0038" stroke="#5A0038"/>
  <path d="M203.043 259.211H197.009V265.245H203.043V259.211Z" fill="#5A0038" stroke="#5A0038"/>
  <path d="M209.077 229.043H203.043V235.077H209.077V229.043Z" fill="#FF8400" stroke="#FF8400"/>
  <path d="M215.11 229.043H209.077V235.077H215.11V229.043Z" fill="#FF8400" stroke="#FF8400"/>
  <path d="M209.077 235.077H203.043V241.11H209.077V235.077Z" fill="#5A0038" stroke="#5A0038"/>
  <path d="M215.11 235.077H209.077V241.11H215.11V235.077Z" fill="#FF8400" stroke="#FF8400"/>
  <path d="M209.077 241.111H203.043V247.145H209.077V241.111Z" fill="#5A0038" stroke="#5A0038"/>
  <path d="M215.11 241.111H209.077V247.145H215.11V241.111Z" fill="#5A0038" stroke="#5A0038"/>
  <path d="M209.077 247.145H203.043V253.178H209.077V247.145Z" fill="#FF8400" stroke="#FF8400"/>
  <path d="M215.11 247.145H209.077V253.178H215.11V247.145Z" fill="#5A0038" stroke="#5A0038"/>
  <path d="M209.077 253.178H203.043V259.212H209.077V253.178Z" fill="#FF8400" stroke="#FF8400"/>
  <path d="M215.11 253.178H209.077V259.212H215.11V253.178Z" fill="#FF8400" stroke="#FF8400"/>
  <path d="M209.077 259.211H203.043V265.245H209.077V259.211Z" fill="#5A0038" stroke="#5A0038"/>
  <path d="M215.11 259.211H209.077V265.245H215.11V259.211Z" fill="#5A0038" stroke="#5A0038"/>
  <path d="M221.144 229.043H215.111V235.077H221.144V229.043Z" fill="#FF8400" stroke="#FF8400"/>
  <path d="M227.178 229.043H221.144V235.077H227.178V229.043Z" fill="#FF8400" stroke="#FF8400"/>
  <path d="M221.144 235.077H215.111V241.11H221.144V235.077Z" fill="#FF8400" stroke="#FF8400"/>
  <path d="M227.178 235.077H221.144V241.11H227.178V235.077Z" fill="#FF8400" stroke="#FF8400"/>
  <path d="M221.144 241.111H215.111V247.145H221.144V241.111Z" fill="#FF8400" stroke="#FF8400"/>
  <path d="M227.178 241.111H221.144V247.145H227.178V241.111Z" fill="#FF8400" stroke="#FF8400"/>
  <path d="M221.144 247.145H215.111V253.178H221.144V247.145Z" fill="#FF8400" stroke="#FF8400"/>
  <path d="M227.178 247.145H221.144V253.178H227.178V247.145Z" fill="#5A0038" stroke="#5A0038"/>
  <path d="M221.144 253.178H215.111V259.212H221.144V253.178Z" fill="#5A0038" stroke="#5A0038"/>
  <path d="M227.178 253.178H221.144V259.212H227.178V253.178Z" fill="#5A0038" stroke="#5A0038"/>
  <path d="M221.144 259.211H215.111V265.245H221.144V259.211Z" fill="#5A0038" stroke="#5A0038"/>
  <path d="M227.178 259.211H221.144V265.245H227.178V259.211Z" fill="#5A0038" stroke="#5A0038"/>
  <path d="M233.211 229.043H227.178V235.077H233.211V229.043Z" fill="#FF8400" stroke="#FF8400"/>
  <path d="M239.245 229.043H233.211V235.077H239.245V229.043Z" fill="#FF8400" stroke="#FF8400"/>
  <path d="M233.211 235.077H227.178V241.11H233.211V235.077Z" fill="#FF8400" stroke="#FF8400"/>
  <path d="M239.245 235.077H233.211V241.11H239.245V235.077Z" fill="#FF8400" stroke="#FF8400"/>
  <path d="M233.211 241.111H227.178V247.145H233.211V241.111Z" fill="#FF8400" stroke="#FF8400"/>
  <path d="M239.245 241.111H233.211V247.145H239.245V241.111Z" fill="#FF8400" stroke="#FF8400"/>
  <path d="M233.211 247.145H227.178V253.178H233.211V247.145Z" fill="#FF8400" stroke="#FF8400"/>
  <path d="M239.245 247.145H233.211V253.178H239.245V247.145Z" fill="#FF8400" stroke="#FF8400"/>
  <path d="M233.211 253.178H227.178V259.212H233.211V253.178Z" fill="#FF8400" stroke="#FF8400"/>
  <path d="M239.245 253.178H233.211V259.212H239.245V253.178Z" fill="#FF8400" stroke="#FF8400"/>
  <path d="M233.211 259.211H227.178V265.245H233.211V259.211Z" fill="#FF8400" stroke="#FF8400"/>
  <path d="M239.245 259.211H233.211V265.245H239.245V259.211Z" fill="#FF8400" stroke="#FF8400"/>
  <path d="M245.279 235.077H239.245V241.11H245.279V235.077Z" fill="#FF8400" stroke="#FF8400"/>
  <path d="M245.279 241.111H239.245V247.145H245.279V241.111Z" fill="#FF8400" stroke="#FF8400"/>
  <path d="M251.313 241.111H245.279V247.145H251.313V241.111Z" fill="#FF8400" stroke="#FF8400"/>
  <path d="M245.279 247.145H239.245V253.178H245.279V247.145Z" fill="#FF8400" stroke="#FF8400"/>
  <path d="M251.313 247.145H245.279V253.178H251.313V247.145Z" fill="#FF8400" stroke="#FF8400"/>
  <path d="M245.279 253.178H239.245V259.212H245.279V253.178Z" fill="#FF8400" stroke="#FF8400"/>
  <path d="M251.313 253.178H245.279V259.212H251.313V253.178Z" fill="#FF8400" stroke="#FF8400"/>
  <path d="M245.279 259.211H239.245V265.245H245.279V259.211Z" fill="#FF8400" stroke="#FF8400"/>
  <path d="M251.313 259.211H245.279V265.245H251.313V259.211Z" fill="#FF8400" stroke="#FF8400"/>
  <path d="M106.505 198.875H100.471V204.909H106.505V198.875Z" fill="#FF8400" stroke="#FF8400"/>
  <path d="M112.538 198.875H106.505V204.909H112.538V198.875Z" fill="#FFBAF9" stroke="#FFBAF9"/>
  <path d="M160.808 198.875H154.774V204.909H160.808V198.875Z" fill="#F91C86" stroke="#F91C86"/>
  <path d="M166.841 198.875H160.808V204.909H166.841V198.875Z" fill="#FFD500" stroke="#FFD500"/>
  <path d="M112.538 204.909H106.505V210.942H112.538V204.909Z" fill="#FFBAF9" stroke="#FFBAF9"/>
  <path d="M160.808 204.909H154.774V210.942H160.808V204.909Z" fill="#F91C86" stroke="#F91C86"/>
  <path d="M112.538 210.942H106.505V216.976H112.538V210.942Z" fill="#FFBAF9" stroke="#FFBAF9"/>
  <path d="M160.808 210.942H154.774V216.976H160.808V210.942Z" fill="#F91C86" stroke="#F91C86"/>
  <path d="M112.538 216.976H106.505V223.01H112.538V216.976Z" fill="#FFBAF9" stroke="#FFBAF9"/>
  <path d="M160.808 216.976H154.774V223.01H160.808V216.976Z" fill="#F91C86" stroke="#F91C86"/>
  <path d="M112.538 223.01H106.505V229.043H112.538V223.01Z" fill="#FF8400" stroke="#FF8400"/>
  <path d="M160.808 223.01H154.774V229.043H160.808V223.01Z" fill="#5A0038" stroke="#5A0038"/>
  <path d="M112.538 229.043H106.505V235.077H112.538V229.043Z" fill="#FF8400" stroke="#FF8400"/>
  <path d="M160.808 229.043H154.774V235.077H160.808V229.043Z" fill="#5A0038" stroke="#5A0038"/>
  <path d="M112.538 235.077H106.505V241.11H112.538V235.077Z" fill="#FF8400" stroke="#FF8400"/>
  <path d="M160.808 235.077H154.774V241.11H160.808V235.077Z" fill="#FF8400" stroke="#FF8400"/>
  <path d="M112.538 241.111H106.505V247.145H112.538V241.111Z" fill="#FF8400" stroke="#FF8400"/>
  <path d="M160.808 241.111H154.774V247.145H160.808V241.111Z" fill="#FF8400" stroke="#FF8400"/>
  <path d="M118.572 247.145H112.538V253.178H118.572V247.145Z" fill="#FFBAF9" stroke="#FFBAF9"/>
  <path d="M154.774 247.145H148.74V253.178H154.774V247.145Z" fill="#F91C86" stroke="#F91C86"/>
  <path d="M124.606 253.178H118.572V259.212H124.606V253.178Z" fill="#FFBAF9" stroke="#FFBAF9"/>
  <path d="M148.741 253.178H142.707V259.212H148.741V253.178Z" fill="#FFBAF9" stroke="#FFBAF9"/>
  <path d="M130.639 259.211H124.605V265.245H130.639V259.211Z" fill="#FFBAF9" stroke="#FFBAF9"/>
  <path d="M142.706 259.211H136.673V265.245H142.706V259.211Z" fill="#FFBAF9" stroke="#FFBAF9"/>
  <g id="selector-arrow">
    <path d="M139.684 9.6761L139.684 4.83789L134.915 4.83789L134.915 9.6761L139.684 9.6761Z" fill="transparent"/>
    <path d="M144.453 4.83821L144.453 0L139.684 -2.08461e-07L139.684 4.83821L144.453 4.83821Z" fill="transparent"/>
    <path d="M134.915 14.5145L134.915 9.67627L130.146 9.67627L130.146 14.5145L134.915 14.5145Z" fill="transparent"/>
    <path d="M130.146 9.6761L130.146 4.83789L125.377 4.83789L125.377 9.6761L130.146 9.6761Z" fill="transparent"/>
    <path d="M130.146 4.83821L130.146 0L125.377 -2.08461e-07L125.377 4.83821L130.146 4.83821Z" fill="transparent"/>
    <path d="M134.915 4.83821L134.915 0L130.146 -2.08461e-07L130.146 4.83821L134.915 4.83821Z" fill="transparent"/>
    <path d="M139.684 4.83821L139.684 0L134.915 -2.08461e-07L134.915 4.83821L139.684 4.83821Z" fill="transparent"/>
    <path d="M125.377 4.83821L125.377 0L120.608 -2.08461e-07L120.608 4.83821L125.377 4.83821Z" fill="transparent"/>
    <path d="M134.915 9.6761L134.915 4.83789L130.146 4.83789L130.146 9.6761L134.915 9.6761Z" fill="transparent"/>
    <g id="selector-border">
      <path d="M3 247L3 277L33 277" stroke="transparent" stroke-width="6"/>
      <path d="M261 247L261 277L231 277" stroke="transparent" stroke-width="6"/>
      <path d="M3 38L3 8L33 8" stroke="transparent" stroke-width="6"/>
      <path d="M261 38L261 8L231 8" stroke="transparent" stroke-width="6"/>
    </g>
  </g>
</svg>
