<svg viewBox="0 0 264 280" fill="none" xmlns="http://www.w3.org/2000/svg">
  <path d="M86.4041 96.3032H80.3704V102.337H86.4041V96.3032Z" fill="#FFD500" stroke="#FFD500"/>
  <path d="M92.437 96.3032H86.4033V102.337H92.437V96.3032Z" fill="#FFD500" stroke="#FFD500"/>
  <path d="M98.4715 96.3032H92.4377V102.337H98.4715V96.3032Z" fill="#A08100" stroke="#A08100"/>
  <path d="M170.875 96.3032H164.842V102.337H170.875V96.3032Z" fill="#A08100" stroke="#A08100"/>
  <path d="M176.908 96.3032H170.875V102.337H176.908V96.3032Z" fill="#FFD500" stroke="#FFD500"/>
  <path d="M182.943 96.3032H176.909V102.337H182.943V96.3032Z" fill="#FFD500" stroke="#FFD500"/>
  <path d="M86.4041 102.337H80.3704V108.371H86.4041V102.337Z" fill="#FFD500" stroke="#FFD500"/>
  <path d="M92.437 102.337H86.4033V108.371H92.437V102.337Z" fill="#FFD500" stroke="#FFD500"/>
  <path d="M98.4715 102.337H92.4377V108.371H98.4715V102.337Z" fill="#FFD500" stroke="#FFD500"/>
  <path d="M170.875 102.337H164.842V108.371H170.875V102.337Z" fill="#FFD500" stroke="#FFD500"/>
  <path d="M176.908 102.337H170.875V108.371H176.908V102.337Z" fill="#FFD500" stroke="#FFD500"/>
  <path d="M182.943 102.337H176.909V108.371H182.943V102.337Z" fill="#FFD500" stroke="#FFD500"/>
  <path d="M86.4041 108.371H80.3704V114.404H86.4041V108.371Z" fill="#A08100" stroke="#A08100"/>
  <path d="M92.437 108.371H86.4033V114.404H92.437V108.371Z" fill="#A08100" stroke="#A08100"/>
  <path d="M176.908 108.371H170.875V114.404H176.908V108.371Z" fill="#A08100" stroke="#A08100"/>
  <path d="M182.943 108.371H176.909V114.404H182.943V108.371Z" fill="#A08100" stroke="#A08100"/>
  <path d="M98.4715 78.2021H92.4377V84.2359H98.4715V78.2021Z" fill="#FFD500" stroke="#FFD500"/>
  <path d="M104.505 78.2021H98.4714V84.2359H104.505V78.2021Z" fill="#FFD500" stroke="#FFD500"/>
  <path d="M110.539 78.2021H104.505V84.2359H110.539V78.2021Z" fill="#A08100" stroke="#A08100"/>
  <path d="M116.572 78.2021H110.538V84.2359H116.572V78.2021Z" fill="#FFD500" stroke="#FFD500"/>
  <path d="M122.606 78.2021H116.573V84.2359H122.606V78.2021Z" fill="#FFD500" stroke="#FFD500"/>
  <path d="M128.639 78.2021H122.606V84.2359H128.639V78.2021Z" fill="#FFD500" stroke="#FFD500"/>
  <path d="M134.673 78.2021H128.639V84.2359H134.673V78.2021Z" fill="#A08100" stroke="#A08100"/>
  <path d="M140.707 78.2021H134.673V84.2359H140.707V78.2021Z" fill="#FFD500" stroke="#FFD500"/>
  <path d="M146.74 78.2021H140.707V84.2359H146.74V78.2021Z" fill="#FFD500" stroke="#FFD500"/>
  <path d="M152.774 78.2021H146.74V84.2359H152.774V78.2021Z" fill="#FFD500" stroke="#FFD500"/>
  <path d="M158.808 78.2021H152.774V84.2359H158.808V78.2021Z" fill="#A08100" stroke="#A08100"/>
  <path d="M164.841 78.2021H158.807V84.2359H164.841V78.2021Z" fill="#FFD500" stroke="#FFD500"/>
  <path d="M170.875 78.2021H164.842V84.2359H170.875V78.2021Z" fill="#FFD500" stroke="#FFD500"/>
  <path d="M74.3364 72.1685H68.3027V78.2022H74.3364V72.1685Z" fill="#FFD500" stroke="#FFD500"/>
  <path d="M80.3704 72.1685H74.3367V78.2022H80.3704V72.1685Z" fill="#FFD500" stroke="#FFD500"/>
  <path d="M86.4041 72.1685H80.3704V78.2022H86.4041V72.1685Z" fill="#FFD500" stroke="#FFD500"/>
  <path d="M92.437 72.1685H86.4033V78.2022H92.437V72.1685Z" fill="#A08100" stroke="#A08100"/>
  <path d="M98.4715 72.1685H92.4377V78.2022H98.4715V72.1685Z" fill="#FFD500" stroke="#FFD500"/>
  <path d="M104.505 72.1685H98.4714V78.2022H104.505V72.1685Z" fill="#FFD500" stroke="#FFD500"/>
  <path d="M110.539 72.1685H104.505V78.2022H110.539V72.1685Z" fill="#A08100" stroke="#A08100"/>
  <path d="M116.572 72.1685H110.538V78.2022H116.572V72.1685Z" fill="#FFD500" stroke="#FFD500"/>
  <path d="M122.606 72.1685H116.573V78.2022H122.606V72.1685Z" fill="#FFD500" stroke="#FFD500"/>
  <path d="M128.639 72.1685H122.606V78.2022H128.639V72.1685Z" fill="#FFD500" stroke="#FFD500"/>
  <path d="M134.673 72.1685H128.639V78.2022H134.673V72.1685Z" fill="#A08100" stroke="#A08100"/>
  <path d="M140.707 72.1685H134.673V78.2022H140.707V72.1685Z" fill="#FFD500" stroke="#FFD500"/>
  <path d="M146.74 72.1685H140.707V78.2022H146.74V72.1685Z" fill="#FFD500" stroke="#FFD500"/>
  <path d="M152.774 72.1685H146.74V78.2022H152.774V72.1685Z" fill="#FFD500" stroke="#FFD500"/>
  <path d="M158.808 72.1685H152.774V78.2022H158.808V72.1685Z" fill="#A08100" stroke="#A08100"/>
  <path d="M164.841 72.1685H158.807V78.2022H164.841V72.1685Z" fill="#FFD500" stroke="#FFD500"/>
  <path d="M170.875 72.1685H164.842V78.2022H170.875V72.1685Z" fill="#FFD500" stroke="#FFD500"/>
  <path d="M176.908 72.1685H170.875V78.2022H176.908V72.1685Z" fill="#A08100" stroke="#A08100"/>
  <path d="M182.943 72.1685H176.909V78.2022H182.943V72.1685Z" fill="#FFD500" stroke="#FFD500"/>
  <path d="M188.976 72.1685H182.942V78.2022H188.976V72.1685Z" fill="#FFD500" stroke="#FFD500"/>
  <path d="M195.01 72.1685H188.976V78.2022H195.01V72.1685Z" fill="#FFD500" stroke="#FFD500"/>
  <path d="M92.437 84.2358H86.4033V90.2695H92.437V84.2358Z" fill="#A08100" stroke="#A08100"/>
  <path d="M98.4715 84.2358H92.4377V90.2695H98.4715V84.2358Z" fill="#FFD500" stroke="#FFD500"/>
  <path d="M104.505 84.2358H98.4714V90.2695H104.505V84.2358Z" fill="#FFD500" stroke="#FFD500"/>
  <path d="M110.539 84.2358H104.505V90.2695H110.539V84.2358Z" fill="#FFD500" stroke="#FFD500"/>
  <path d="M116.572 84.2358H110.538V90.2695H116.572V84.2358Z" fill="#A08100" stroke="#A08100"/>
  <path d="M152.774 84.2358H146.74V90.2695H152.774V84.2358Z" fill="#A08100" stroke="#A08100"/>
  <path d="M158.808 84.2358H152.774V90.2695H158.808V84.2358Z" fill="#FFD500" stroke="#FFD500"/>
  <path d="M164.841 84.2358H158.807V90.2695H164.841V84.2358Z" fill="#FFD500" stroke="#FFD500"/>
  <path d="M170.875 84.2358H164.842V90.2695H170.875V84.2358Z" fill="#FFD500" stroke="#FFD500"/>
  <path d="M176.908 84.2358H170.875V90.2695H176.908V84.2358Z" fill="#A08100" stroke="#A08100"/>
  <path d="M86.4041 90.2695H80.3704V96.3032H86.4041V90.2695Z" fill="#FFD500" stroke="#FFD500"/>
  <path d="M92.437 90.2695H86.4033V96.3032H92.437V90.2695Z" fill="#A08100" stroke="#A08100"/>
  <path d="M98.4715 90.2695H92.4377V96.3032H98.4715V90.2695Z" fill="#FFD500" stroke="#FFD500"/>
  <path d="M104.505 90.2695H98.4714V96.3032H104.505V90.2695Z" fill="#FFD500" stroke="#FFD500"/>
  <path d="M164.841 90.2695H158.807V96.3032H164.841V90.2695Z" fill="#FFD500" stroke="#FFD500"/>
  <path d="M170.875 90.2695H164.842V96.3032H170.875V90.2695Z" fill="#FFD500" stroke="#FFD500"/>
  <path d="M176.908 90.2695H170.875V96.3032H176.908V90.2695Z" fill="#A08100" stroke="#A08100"/>
  <path d="M182.943 90.2695H176.909V96.3032H182.943V90.2695Z" fill="#FFD500" stroke="#FFD500"/>
  <path d="M92.437 114.404H86.4033V120.438H92.437V114.404Z" fill="#FFD500" stroke="#FFD500"/>
  <path d="M176.908 114.404H170.875V120.438H176.908V114.404Z" fill="#FFD500" stroke="#FFD500"/>
  <path d="M92.437 120.438H86.4033V126.471H92.437V120.438Z" fill="#FF8400" stroke="#FF8400"/>
  <path d="M98.4715 120.438H92.4377V126.471H98.4715V120.438Z" fill="#FF8400" stroke="#FF8400"/>
  <path d="M104.505 120.438H98.4714V126.471H104.505V120.438Z" fill="#FF8400" stroke="#FF8400"/>
  <path d="M110.539 120.438H104.505V126.471H110.539V120.438Z" fill="#FF8400" stroke="#FF8400"/>
  <path d="M116.572 120.438H110.538V126.471H116.572V120.438Z" fill="#FF8400" stroke="#FF8400"/>
  <path d="M122.606 120.438H116.573V126.471H122.606V120.438Z" fill="#FF8400" stroke="#FF8400"/>
  <path d="M128.639 120.438H122.606V126.471H128.639V120.438Z" fill="#FF8400" stroke="#FF8400"/>
  <path d="M140.707 120.438H134.673V126.471H140.707V120.438Z" fill="#FF8400" stroke="#FF8400"/>
  <path d="M146.74 120.438H140.707V126.471H146.74V120.438Z" fill="#FF8400" stroke="#FF8400"/>
  <path d="M152.774 120.438H146.74V126.471H152.774V120.438Z" fill="#FF8400" stroke="#FF8400"/>
  <path d="M158.808 120.438H152.774V126.471H158.808V120.438Z" fill="#FF8400" stroke="#FF8400"/>
  <path d="M164.841 120.438H158.807V126.471H164.841V120.438Z" fill="#FF8400" stroke="#FF8400"/>
  <path d="M170.875 120.438H164.842V126.471H170.875V120.438Z" fill="#FF8400" stroke="#FF8400"/>
  <path d="M176.908 120.438H170.875V126.471H176.908V120.438Z" fill="#FF8400" stroke="#FF8400"/>
  <path d="M92.437 126.471H86.4033V132.505H92.437V126.471Z" fill="#FF8400" stroke="#FF8400"/>
  <path d="M98.4715 126.471H92.4377V132.505H98.4715V126.471Z" fill="black" stroke="black"/>
  <path d="M104.505 126.471H98.4714V132.505H104.505V126.471Z" fill="black" stroke="black"/>
  <path d="M110.539 126.471H104.505V132.505H110.539V126.471Z" fill="black" stroke="black"/>
  <path d="M116.572 126.471H110.538V132.505H116.572V126.471Z" fill="black" stroke="black"/>
  <path d="M122.606 126.471H116.573V132.505H122.606V126.471Z" fill="black" stroke="black"/>
  <path d="M128.639 126.471H122.606V132.505H128.639V126.471Z" fill="#FF8400" stroke="#FF8400"/>
  <path d="M134.673 126.471H128.639V132.505H134.673V126.471Z" fill="#FF8400" stroke="#FF8400"/>
  <path d="M140.707 126.471H134.673V132.505H140.707V126.471Z" fill="#FF8400" stroke="#FF8400"/>
  <path d="M146.74 126.471H140.707V132.505H146.74V126.471Z" fill="black" stroke="black"/>
  <path d="M152.774 126.471H146.74V132.505H152.774V126.471Z" fill="black" stroke="black"/>
  <path d="M158.808 126.471H152.774V132.505H158.808V126.471Z" fill="black" stroke="black"/>
  <path d="M164.841 126.471H158.807V132.505H164.841V126.471Z" fill="black" stroke="black"/>
  <path d="M170.875 126.471H164.842V132.505H170.875V126.471Z" fill="black" stroke="black"/>
  <path d="M176.908 126.471H170.875V132.505H176.908V126.471Z" fill="#FF8400" stroke="#FF8400"/>
  <path d="M92.437 132.505H86.4033V138.539H92.437V132.505Z" fill="#FF8400" stroke="#FF8400"/>
  <path d="M98.4715 132.505H92.4377V138.539H98.4715V132.505Z" fill="#FF8400" stroke="#FF8400"/>
  <path d="M104.505 132.505H98.4714V138.539H104.505V132.505Z" fill="#F5F5F5" stroke="#F5F5F5"/>
  <path d="M110.539 132.505H104.505V138.539H110.539V132.505Z" fill="black" stroke="black"/>
  <path d="M122.606 132.505H116.573V138.539H122.606V132.505Z" fill="#F5F5F5" stroke="#F5F5F5"/>
  <path d="M128.639 132.505H122.606V138.539H128.639V132.505Z" fill="#FF8400" stroke="#FF8400"/>
  <path d="M140.707 132.505H134.673V138.539H140.707V132.505Z" fill="#FF8400" stroke="#FF8400"/>
  <path d="M146.74 132.505H140.707V138.539H146.74V132.505Z" fill="#F5F5F5" stroke="#F5F5F5"/>
  <path d="M152.774 132.505H146.74V138.539H152.774V132.505Z" fill="black" stroke="black"/>
  <path d="M164.841 132.505H158.807V138.539H164.841V132.505Z" fill="#F5F5F5" stroke="#F5F5F5"/>
  <path d="M170.875 132.505H164.842V138.539H170.875V132.505Z" fill="#FF8400" stroke="#FF8400"/>
  <path d="M176.908 132.505H170.875V138.539H176.908V132.505Z" fill="#FF8400" stroke="#FF8400"/>
  <path d="M80.3704 138.539H74.3367V144.572H80.3704V138.539Z" fill="#A08100" stroke="#A08100"/>
  <path d="M98.4715 138.539H92.4377V144.572H98.4715V138.539Z" fill="#FF8400" stroke="#FF8400"/>
  <path d="M104.505 138.539H98.4714V144.572H104.505V138.539Z" fill="#F5F5F5" stroke="#F5F5F5"/>
  <path d="M110.539 138.539H104.505V144.572H110.539V138.539Z" fill="black" stroke="black"/>
  <path d="M116.572 138.539H110.538V144.572H116.572V138.539Z" fill="black" stroke="black"/>
  <path d="M122.606 138.539H116.573V144.572H122.606V138.539Z" fill="#F5F5F5" stroke="#F5F5F5"/>
  <path d="M128.639 138.539H122.606V144.572H128.639V138.539Z" fill="#FF8400" stroke="#FF8400"/>
  <path d="M140.707 138.539H134.673V144.572H140.707V138.539Z" fill="#FF8400" stroke="#FF8400"/>
  <path d="M146.74 138.539H140.707V144.572H146.74V138.539Z" fill="#F5F5F5" stroke="#F5F5F5"/>
  <path d="M152.774 138.539H146.74V144.572H152.774V138.539Z" fill="black" stroke="black"/>
  <path d="M158.808 138.539H152.774V144.572H158.808V138.539Z" fill="black" stroke="black"/>
  <path d="M164.841 138.539H158.807V144.572H164.841V138.539Z" fill="#F5F5F5" stroke="#F5F5F5"/>
  <path d="M170.875 138.539H164.842V144.572H170.875V138.539Z" fill="#FF8400" stroke="#FF8400"/>
  <path d="M188.976 138.539H182.942V144.572H188.976V138.539Z" fill="#A08100" stroke="#A08100"/>
  <path d="M74.3364 144.572H68.3027V150.606H74.3364V144.572Z" fill="#FFD500" stroke="#FFD500"/>
  <path d="M80.3704 144.572H74.3367V150.606H80.3704V144.572Z" fill="#A08100" stroke="#A08100"/>
  <path d="M98.4715 144.572H92.4377V150.606H98.4715V144.572Z" fill="#FF8400" stroke="#FF8400"/>
  <path d="M104.505 144.572H98.4714V150.606H104.505V144.572Z" fill="#FF8400" stroke="#FF8400"/>
  <path d="M122.606 144.572H116.573V150.606H122.606V144.572Z" fill="#FF8400" stroke="#FF8400"/>
  <path d="M128.639 144.572H122.606V150.606H128.639V144.572Z" fill="#FF8400" stroke="#FF8400"/>
  <path d="M140.707 144.572H134.673V150.606H140.707V144.572Z" fill="#FF8400" stroke="#FF8400"/>
  <path d="M146.74 144.572H140.707V150.606H146.74V144.572Z" fill="#FF8400" stroke="#FF8400"/>
  <path d="M164.841 144.572H158.807V150.606H164.841V144.572Z" fill="#FF8400" stroke="#FF8400"/>
  <path d="M170.875 144.572H164.842V150.606H170.875V144.572Z" fill="#FF8400" stroke="#FF8400"/>
  <path d="M188.976 144.572H182.942V150.606H188.976V144.572Z" fill="#A08100" stroke="#A08100"/>
  <path d="M195.01 144.572H188.976V150.606H195.01V144.572Z" fill="#FFD500" stroke="#FFD500"/>
  <path d="M74.3364 150.606H68.3027V156.64H74.3364V150.606Z" fill="#FFD500" stroke="#FFD500"/>
  <path d="M80.3704 150.606H74.3367V156.64H80.3704V150.606Z" fill="#A08100" stroke="#A08100"/>
  <path d="M104.505 150.606H98.4714V156.64H104.505V150.606Z" fill="#FF8400" stroke="#FF8400"/>
  <path d="M110.539 150.606H104.505V156.64H110.539V150.606Z" fill="#FF8400" stroke="#FF8400"/>
  <path d="M116.572 150.606H110.538V156.64H116.572V150.606Z" fill="#FF8400" stroke="#FF8400"/>
  <path d="M122.606 150.606H116.573V156.64H122.606V150.606Z" fill="#FF8400" stroke="#FF8400"/>
  <path d="M146.74 150.606H140.707V156.64H146.74V150.606Z" fill="#FF8400" stroke="#FF8400"/>
  <path d="M152.774 150.606H146.74V156.64H152.774V150.606Z" fill="#FF8400" stroke="#FF8400"/>
  <path d="M158.808 150.606H152.774V156.64H158.808V150.606Z" fill="#FF8400" stroke="#FF8400"/>
  <path d="M164.841 150.606H158.807V156.64H164.841V150.606Z" fill="#FF8400" stroke="#FF8400"/>
  <path d="M188.976 150.606H182.942V156.64H188.976V150.606Z" fill="#A08100" stroke="#A08100"/>
  <path d="M195.01 150.606H188.976V156.64H195.01V150.606Z" fill="#FFD500" stroke="#FFD500"/>
  <path d="M68.3027 156.639H62.269V162.673H68.3027V156.639Z" fill="#FFD500" stroke="#FFD500"/>
  <path d="M74.3364 156.639H68.3027V162.673H74.3364V156.639Z" fill="#FFD500" stroke="#FFD500"/>
  <path d="M80.3704 156.639H74.3367V162.673H80.3704V156.639Z" fill="#FFD500" stroke="#FFD500"/>
  <path d="M86.4041 156.639H80.3704V162.673H86.4041V156.639Z" fill="#A08100" stroke="#A08100"/>
  <path d="M92.437 156.639H86.4033V162.673H92.437V156.639Z" fill="#FF8400" stroke="#FF8400"/>
  <path d="M176.908 156.639H170.875V162.673H176.908V156.639Z" fill="#FF8400" stroke="#FF8400"/>
  <path d="M182.943 156.639H176.909V162.673H182.943V156.639Z" fill="#A08100" stroke="#A08100"/>
  <path d="M188.976 156.639H182.942V162.673H188.976V156.639Z" fill="#A08100" stroke="#A08100"/>
  <path d="M195.01 156.639H188.976V162.673H195.01V156.639Z" fill="#FFD500" stroke="#FFD500"/>
  <path d="M201.043 156.639H195.01V162.673H201.043V156.639Z" fill="#FFD500" stroke="#FFD500"/>
  <path d="M68.3027 162.673H62.269V168.707H68.3027V162.673Z" fill="#A08100" stroke="#A08100"/>
  <path d="M74.3364 162.673H68.3027V168.707H74.3364V162.673Z" fill="#FFD500" stroke="#FFD500"/>
  <path d="M80.3704 162.673H74.3367V168.707H80.3704V162.673Z" fill="#FFD500" stroke="#FFD500"/>
  <path d="M86.4041 162.673H80.3704V168.707H86.4041V162.673Z" fill="#FF8400" stroke="#FF8400"/>
  <path d="M92.437 162.673H86.4033V168.707H92.437V162.673Z" fill="#A08100" stroke="#A08100"/>
  <path d="M176.908 162.673H170.875V168.707H176.908V162.673Z" fill="#A08100" stroke="#A08100"/>
  <path d="M182.943 162.673H176.909V168.707H182.943V162.673Z" fill="#FF8400" stroke="#FF8400"/>
  <path d="M188.976 162.673H182.942V168.707H188.976V162.673Z" fill="#FFD500" stroke="#FFD500"/>
  <path d="M195.01 162.673H188.976V168.707H195.01V162.673Z" fill="#FFD500" stroke="#FFD500"/>
  <path d="M201.043 162.673H195.01V168.707H201.043V162.673Z" fill="#A08100" stroke="#A08100"/>
  <path d="M68.3027 168.707H62.269V174.741H68.3027V168.707Z" fill="#FFD500" stroke="#FFD500"/>
  <path d="M74.3364 168.707H68.3027V174.741H74.3364V168.707Z" fill="#FFD500" stroke="#FFD500"/>
  <path d="M80.3704 168.707H74.3367V174.741H80.3704V168.707Z" fill="#FF8400" stroke="#FF8400"/>
  <path d="M86.4041 168.707H80.3704V174.741H86.4041V168.707Z" fill="#FFD500" stroke="#FFD500"/>
  <path d="M92.437 168.707H86.4033V174.741H92.437V168.707Z" fill="#A08100" stroke="#A08100"/>
  <path d="M176.908 168.707H170.875V174.741H176.908V168.707Z" fill="#A08100" stroke="#A08100"/>
  <path d="M182.943 168.707H176.909V174.741H182.943V168.707Z" fill="#FFD500" stroke="#FFD500"/>
  <path d="M188.976 168.707H182.942V174.741H188.976V168.707Z" fill="#FF8400" stroke="#FF8400"/>
  <path d="M195.01 168.707H188.976V174.741H195.01V168.707Z" fill="#FFD500" stroke="#FFD500"/>
  <path d="M201.043 168.707H195.01V174.741H201.043V168.707Z" fill="#FFD500" stroke="#FFD500"/>
  <path d="M68.3027 174.741H62.269V180.774H68.3027V174.741Z" fill="#FFD500" stroke="#FFD500"/>
  <path d="M74.3364 174.741H68.3027V180.774H74.3364V174.741Z" fill="#FFD500" stroke="#FFD500"/>
  <path d="M80.3704 174.741H74.3367V180.774H80.3704V174.741Z" fill="#FF8400" stroke="#FF8400"/>
  <path d="M86.4041 174.741H80.3704V180.774H86.4041V174.741Z" fill="#FFD500" stroke="#FFD500"/>
  <path d="M92.437 174.741H86.4033V180.774H92.437V174.741Z" fill="#A08100" stroke="#A08100"/>
  <path d="M176.908 174.741H170.875V180.774H176.908V174.741Z" fill="#A08100" stroke="#A08100"/>
  <path d="M182.943 174.741H176.909V180.774H182.943V174.741Z" fill="#FFD500" stroke="#FFD500"/>
  <path d="M188.976 174.741H182.942V180.774H188.976V174.741Z" fill="#FF8400" stroke="#FF8400"/>
  <path d="M195.01 174.741H188.976V180.774H195.01V174.741Z" fill="#FFD500" stroke="#FFD500"/>
  <path d="M201.043 174.741H195.01V180.774H201.043V174.741Z" fill="#FFD500" stroke="#FFD500"/>
  <path d="M68.3027 180.774H62.269V186.808H68.3027V180.774Z" fill="#A08100" stroke="#A08100"/>
  <path d="M74.3364 180.774H68.3027V186.808H74.3364V180.774Z" fill="#FFD500" stroke="#FFD500"/>
  <path d="M80.3704 180.774H74.3367V186.808H80.3704V180.774Z" fill="#FFD500" stroke="#FFD500"/>
  <path d="M86.4041 180.774H80.3704V186.808H86.4041V180.774Z" fill="#FF8400" stroke="#FF8400"/>
  <path d="M92.437 180.774H86.4033V186.808H92.437V180.774Z" fill="#FF8400" stroke="#FF8400"/>
  <path d="M98.4715 180.774H92.4377V186.808H98.4715V180.774Z" fill="#A08100" stroke="#A08100"/>
  <path d="M170.875 180.774H164.842V186.808H170.875V180.774Z" fill="#A08100" stroke="#A08100"/>
  <path d="M176.908 180.774H170.875V186.808H176.908V180.774Z" fill="#FF8400" stroke="#FF8400"/>
  <path d="M182.943 180.774H176.909V186.808H182.943V180.774Z" fill="#FF8400" stroke="#FF8400"/>
  <path d="M188.976 180.774H182.942V186.808H188.976V180.774Z" fill="#FFD500" stroke="#FFD500"/>
  <path d="M195.01 180.774H188.976V186.808H195.01V180.774Z" fill="#FFD500" stroke="#FFD500"/>
  <path d="M201.043 180.774H195.01V186.808H201.043V180.774Z" fill="#A08100" stroke="#A08100"/>
  <path d="M68.3027 186.808H62.269V192.842H68.3027V186.808Z" fill="#FFD500" stroke="#FFD500"/>
  <path d="M74.3364 186.808H68.3027V192.842H74.3364V186.808Z" fill="#A08100" stroke="#A08100"/>
  <path d="M80.3704 186.808H74.3367V192.842H80.3704V186.808Z" fill="#FFD500" stroke="#FFD500"/>
  <path d="M86.4041 186.808H80.3704V192.842H86.4041V186.808Z" fill="#A08100" stroke="#A08100"/>
  <path d="M92.437 186.808H86.4033V192.842H92.437V186.808Z" fill="#A08100" stroke="#A08100"/>
  <path d="M98.4715 186.808H92.4377V192.842H98.4715V186.808Z" fill="#A08100" stroke="#A08100"/>
  <path d="M104.505 186.808H98.4714V192.842H104.505V186.808Z" fill="#A08100" stroke="#A08100"/>
  <path d="M164.841 186.808H158.807V192.842H164.841V186.808Z" fill="#A08100" stroke="#A08100"/>
  <path d="M170.875 186.808H164.842V192.842H170.875V186.808Z" fill="#A08100" stroke="#A08100"/>
  <path d="M176.908 186.808H170.875V192.842H176.908V186.808Z" fill="#A08100" stroke="#A08100"/>
  <path d="M182.943 186.808H176.909V192.842H182.943V186.808Z" fill="#A08100" stroke="#A08100"/>
  <path d="M188.976 186.808H182.942V192.842H188.976V186.808Z" fill="#FFD500" stroke="#FFD500"/>
  <path d="M195.01 186.808H188.976V192.842H195.01V186.808Z" fill="#A08100" stroke="#A08100"/>
  <path d="M201.043 186.808H195.01V192.842H201.043V186.808Z" fill="#FFD500" stroke="#FFD500"/>
  <path d="M68.3027 192.841H62.269V198.875H68.3027V192.841Z" fill="#FFD500" stroke="#FFD500"/>
  <path d="M74.3364 192.841H68.3027V198.875H74.3364V192.841Z" fill="#FFD500" stroke="#FFD500"/>
  <path d="M80.3704 192.841H74.3367V198.875H80.3704V192.841Z" fill="#A08100" stroke="#A08100"/>
  <path d="M86.4041 192.841H80.3704V198.875H86.4041V192.841Z" fill="#FFD500" stroke="#FFD500"/>
  <path d="M92.437 192.841H86.4033V198.875H92.437V192.841Z" fill="#FFD500" stroke="#FFD500"/>
  <path d="M98.4715 192.841H92.4377V198.875H98.4715V192.841Z" fill="#FFD500" stroke="#FFD500"/>
  <path d="M104.505 192.841H98.4714V198.875H104.505V192.841Z" fill="#FFD500" stroke="#FFD500"/>
  <path d="M110.539 192.841H104.505V198.875H110.539V192.841Z" fill="#A08100" stroke="#A08100"/>
  <path d="M158.808 192.841H152.774V198.875H158.808V192.841Z" fill="#A08100" stroke="#A08100"/>
  <path d="M164.841 192.841H158.807V198.875H164.841V192.841Z" fill="#FFD500" stroke="#FFD500"/>
  <path d="M170.875 192.841H164.842V198.875H170.875V192.841Z" fill="#FFD500" stroke="#FFD500"/>
  <path d="M176.908 192.841H170.875V198.875H176.908V192.841Z" fill="#FFD500" stroke="#FFD500"/>
  <path d="M182.943 192.841H176.909V198.875H182.943V192.841Z" fill="#FFD500" stroke="#FFD500"/>
  <path d="M188.976 192.841H182.942V198.875H188.976V192.841Z" fill="#A08100" stroke="#A08100"/>
  <path d="M195.01 192.841H188.976V198.875H195.01V192.841Z" fill="#FFD500" stroke="#FFD500"/>
  <path d="M201.043 192.841H195.01V198.875H201.043V192.841Z" fill="#FFD500" stroke="#FFD500"/>
  <path d="M68.3027 198.875H62.269V204.909H68.3027V198.875Z" fill="#FFD500" stroke="#FFD500"/>
  <path d="M74.3364 198.875H68.3027V204.909H74.3364V198.875Z" fill="#FFD500" stroke="#FFD500"/>
  <path d="M80.3704 198.875H74.3367V204.909H80.3704V198.875Z" fill="#FFD500" stroke="#FFD500"/>
  <path d="M86.4041 198.875H80.3704V204.909H86.4041V198.875Z" fill="#A08100" stroke="#A08100"/>
  <path d="M104.505 96.3032H98.4714V102.337H104.505V96.3032Z" fill="#F91C86" stroke="#F91C86"/>
  <path d="M110.539 96.3032H104.505V102.337H110.539V96.3032Z" fill="#F91C86" stroke="#F91C86"/>
  <path d="M116.572 96.3032H110.538V102.337H116.572V96.3032Z" fill="#F91C86" stroke="#F91C86"/>
  <path d="M122.606 96.3032H116.573V102.337H122.606V96.3032Z" fill="#F91C86" stroke="#F91C86"/>
  <path d="M128.639 96.3032H122.606V102.337H128.639V96.3032Z" fill="#F91C86" stroke="#F91C86"/>
  <path d="M134.673 96.3032H128.639V102.337H134.673V96.3032Z" fill="#F91C86" stroke="#F91C86"/>
  <path d="M140.707 96.3032H134.673V102.337H140.707V96.3032Z" fill="#F91C86" stroke="#F91C86"/>
  <path d="M146.74 96.3032H140.707V102.337H146.74V96.3032Z" fill="#F91C86" stroke="#F91C86"/>
  <path d="M152.774 96.3032H146.74V102.337H152.774V96.3032Z" fill="#F91C86" stroke="#F91C86"/>
  <path d="M158.808 96.3032H152.774V102.337H158.808V96.3032Z" fill="#F91C86" stroke="#F91C86"/>
  <path d="M164.841 96.3032H158.807V102.337H164.841V96.3032Z" fill="#F91C86" stroke="#F91C86"/>
  <path d="M104.505 102.337H98.4714V108.371H104.505V102.337Z" fill="#F91C86" stroke="#F91C86"/>
  <path d="M110.539 102.337H104.505V108.371H110.539V102.337Z" fill="#F91C86" stroke="#F91C86"/>
  <path d="M116.572 102.337H110.538V108.371H116.572V102.337Z" fill="#F91C86" stroke="#F91C86"/>
  <path d="M122.606 102.337H116.573V108.371H122.606V102.337Z" fill="#F91C86" stroke="#F91C86"/>
  <path d="M128.639 102.337H122.606V108.371H128.639V102.337Z" fill="#F91C86" stroke="#F91C86"/>
  <path d="M134.673 102.337H128.639V108.371H134.673V102.337Z" fill="#F91C86" stroke="#F91C86"/>
  <path d="M140.707 102.337H134.673V108.371H140.707V102.337Z" fill="#F91C86" stroke="#F91C86"/>
  <path d="M146.74 102.337H140.707V108.371H146.74V102.337Z" fill="#F91C86" stroke="#F91C86"/>
  <path d="M152.774 102.337H146.74V108.371H152.774V102.337Z" fill="#F91C86" stroke="#F91C86"/>
  <path d="M158.808 102.337H152.774V108.371H158.808V102.337Z" fill="#F91C86" stroke="#F91C86"/>
  <path d="M164.841 102.337H158.807V108.371H164.841V102.337Z" fill="#F91C86" stroke="#F91C86"/>
  <path d="M98.4715 108.371H92.4377V114.404H98.4715V108.371Z" fill="#F91C86" stroke="#F91C86"/>
  <path d="M104.505 108.371H98.4714V114.404H104.505V108.371Z" fill="#F91C86" stroke="#F91C86"/>
  <path d="M110.539 108.371H104.505V114.404H110.539V108.371Z" fill="#F91C86" stroke="#F91C86"/>
  <path d="M116.572 108.371H110.538V114.404H116.572V108.371Z" fill="#F91C86" stroke="#F91C86"/>
  <path d="M122.606 108.371H116.573V114.404H122.606V108.371Z" fill="#F91C86" stroke="#F91C86"/>
  <path d="M128.639 108.371H122.606V114.404H128.639V108.371Z" fill="#F91C86" stroke="#F91C86"/>
  <path d="M134.673 108.371H128.639V114.404H134.673V108.371Z" fill="#F91C86" stroke="#F91C86"/>
  <path d="M140.707 108.371H134.673V114.404H140.707V108.371Z" fill="#F91C86" stroke="#F91C86"/>
  <path d="M146.74 108.371H140.707V114.404H146.74V108.371Z" fill="#F91C86" stroke="#F91C86"/>
  <path d="M152.774 108.371H146.74V114.404H152.774V108.371Z" fill="#F91C86" stroke="#F91C86"/>
  <path d="M158.808 108.371H152.774V114.404H158.808V108.371Z" fill="#F91C86" stroke="#F91C86"/>
  <path d="M164.841 108.371H158.807V114.404H164.841V108.371Z" fill="#F91C86" stroke="#F91C86"/>
  <path d="M170.875 108.371H164.842V114.404H170.875V108.371Z" fill="#F91C86" stroke="#F91C86"/>
  <path d="M122.606 84.2358H116.573V90.2695H122.606V84.2358Z" fill="#F91C86" stroke="#F91C86"/>
  <path d="M128.639 84.2358H122.606V90.2695H128.639V84.2358Z" fill="#F91C86" stroke="#F91C86"/>
  <path d="M134.673 84.2358H128.639V90.2695H134.673V84.2358Z" fill="#F91C86" stroke="#F91C86"/>
  <path d="M140.707 84.2358H134.673V90.2695H140.707V84.2358Z" fill="#F91C86" stroke="#F91C86"/>
  <path d="M146.74 84.2358H140.707V90.2695H146.74V84.2358Z" fill="#F91C86" stroke="#F91C86"/>
  <path d="M110.539 90.2695H104.505V96.3032H110.539V90.2695Z" fill="#F91C86" stroke="#F91C86"/>
  <path d="M116.572 90.2695H110.538V96.3032H116.572V90.2695Z" fill="#F91C86" stroke="#F91C86"/>
  <path d="M122.606 90.2695H116.573V96.3032H122.606V90.2695Z" fill="#F91C86" stroke="#F91C86"/>
  <path d="M128.639 90.2695H122.606V96.3032H128.639V90.2695Z" fill="#F91C86" stroke="#F91C86"/>
  <path d="M134.673 90.2695H128.639V96.3032H134.673V90.2695Z" fill="#F91C86" stroke="#F91C86"/>
  <path d="M140.707 90.2695H134.673V96.3032H140.707V90.2695Z" fill="#F91C86" stroke="#F91C86"/>
  <path d="M146.74 90.2695H140.707V96.3032H146.74V90.2695Z" fill="#F91C86" stroke="#F91C86"/>
  <path d="M152.774 90.2695H146.74V96.3032H152.774V90.2695Z" fill="#F91C86" stroke="#F91C86"/>
  <path d="M158.808 90.2695H152.774V96.3032H158.808V90.2695Z" fill="#F91C86" stroke="#F91C86"/>
  <path d="M98.4715 114.404H92.4377V120.438H98.4715V114.404Z" fill="#F91C86" stroke="#F91C86"/>
  <path d="M104.505 114.404H98.4714V120.438H104.505V114.404Z" fill="#5A0038" stroke="#5A0038"/>
  <path d="M110.539 114.404H104.505V120.438H110.539V114.404Z" fill="#5A0038" stroke="#5A0038"/>
  <path d="M116.572 114.404H110.538V120.438H116.572V114.404Z" fill="#5A0038" stroke="#5A0038"/>
  <path d="M122.606 114.404H116.573V120.438H122.606V114.404Z" fill="#5A0038" stroke="#5A0038"/>
  <path d="M128.639 114.404H122.606V120.438H128.639V114.404Z" fill="#F91C86" stroke="#F91C86"/>
  <path d="M134.673 114.404H128.639V120.438H134.673V114.404Z" fill="#F91C86" stroke="#F91C86"/>
  <path d="M140.707 114.404H134.673V120.438H140.707V114.404Z" fill="#F91C86" stroke="#F91C86"/>
  <path d="M146.74 114.404H140.707V120.438H146.74V114.404Z" fill="#5A0038" stroke="#5A0038"/>
  <path d="M152.774 114.404H146.74V120.438H152.774V114.404Z" fill="#5A0038" stroke="#5A0038"/>
  <path d="M158.808 114.404H152.774V120.438H158.808V114.404Z" fill="#5A0038" stroke="#5A0038"/>
  <path d="M164.841 114.404H158.807V120.438H164.841V114.404Z" fill="#5A0038" stroke="#5A0038"/>
  <path d="M170.875 114.404H164.842V120.438H170.875V114.404Z" fill="#F91C86" stroke="#F91C86"/>
  <path d="M134.673 120.438H128.639V126.471H134.673V120.438Z" fill="#F91C86" stroke="#F91C86"/>
  <path d="M86.4041 126.471H80.3704V132.505H86.4041V126.471Z" fill="#F91C86" stroke="#F91C86"/>
  <path d="M182.943 126.471H176.909V132.505H182.943V126.471Z" fill="#F91C86" stroke="#F91C86"/>
  <path d="M86.4041 132.505H80.3704V138.539H86.4041V132.505Z" fill="#F91C86" stroke="#F91C86"/>
  <path d="M134.673 132.505H128.639V138.539H134.673V132.505Z" fill="#F91C86" stroke="#F91C86"/>
  <path d="M182.943 132.505H176.909V138.539H182.943V132.505Z" fill="#F91C86" stroke="#F91C86"/>
  <path d="M86.4041 138.539H80.3704V144.572H86.4041V138.539Z" fill="#F91C86" stroke="#F91C86"/>
  <path d="M92.437 138.539H86.4033V144.572H92.437V138.539Z" fill="#F91C86" stroke="#F91C86"/>
  <path d="M134.673 138.539H128.639V144.572H134.673V138.539Z" fill="#F91C86" stroke="#F91C86"/>
  <path d="M176.908 138.539H170.875V144.572H176.908V138.539Z" fill="#F91C86" stroke="#F91C86"/>
  <path d="M182.943 138.539H176.909V144.572H182.943V138.539Z" fill="#F91C86" stroke="#F91C86"/>
  <path d="M86.4041 144.572H80.3704V150.606H86.4041V144.572Z" fill="#F91C86" stroke="#F91C86"/>
  <path d="M92.437 144.572H86.4033V150.606H92.437V144.572Z" fill="#F91C86" stroke="#F91C86"/>
  <path d="M110.539 144.572H104.505V150.606H110.539V144.572Z" fill="#F91C86" stroke="#F91C86"/>
  <path d="M116.572 144.572H110.538V150.606H116.572V144.572Z" fill="#F91C86" stroke="#F91C86"/>
  <path d="M134.673 144.572H128.639V150.606H134.673V144.572Z" fill="#F91C86" stroke="#F91C86"/>
  <path d="M152.774 144.572H146.74V150.606H152.774V144.572Z" fill="#F91C86" stroke="#F91C86"/>
  <path d="M158.808 144.572H152.774V150.606H158.808V144.572Z" fill="#F91C86" stroke="#F91C86"/>
  <path d="M176.908 144.572H170.875V150.606H176.908V144.572Z" fill="#F91C86" stroke="#F91C86"/>
  <path d="M182.943 144.572H176.909V150.606H182.943V144.572Z" fill="#F91C86" stroke="#F91C86"/>
  <path d="M86.4041 150.606H80.3704V156.64H86.4041V150.606Z" fill="#F91C86" stroke="#F91C86"/>
  <path d="M92.437 150.606H86.4033V156.64H92.437V150.606Z" fill="#F91C86" stroke="#F91C86"/>
  <path d="M98.4715 150.606H92.4377V156.64H98.4715V150.606Z" fill="#F91C86" stroke="#F91C86"/>
  <path d="M128.639 150.606H122.606V156.64H128.639V150.606Z" fill="#F91C86" stroke="#F91C86"/>
  <path d="M134.673 150.606H128.639V156.64H134.673V150.606Z" fill="#F91C86" stroke="#F91C86"/>
  <path d="M140.707 150.606H134.673V156.64H140.707V150.606Z" fill="#F91C86" stroke="#F91C86"/>
  <path d="M170.875 150.606H164.842V156.64H170.875V150.606Z" fill="#F91C86" stroke="#F91C86"/>
  <path d="M176.908 150.606H170.875V156.64H176.908V150.606Z" fill="#F91C86" stroke="#F91C86"/>
  <path d="M182.943 150.606H176.909V156.64H182.943V150.606Z" fill="#F91C86" stroke="#F91C86"/>
  <path d="M98.4715 156.639H92.4377V162.673H98.4715V156.639Z" fill="#F91C86" stroke="#F91C86"/>
  <path d="M104.505 156.639H98.4714V162.673H104.505V156.639Z" fill="#F91C86" stroke="#F91C86"/>
  <path d="M110.539 156.639H104.505V162.673H110.539V156.639Z" fill="#F91C86" stroke="#F91C86"/>
  <path d="M116.572 156.639H110.538V162.673H116.572V156.639Z" fill="#F91C86" stroke="#F91C86"/>
  <path d="M122.606 156.639H116.573V162.673H122.606V156.639Z" fill="#F91C86" stroke="#F91C86"/>
  <path d="M146.74 156.639H140.707V162.673H146.74V156.639Z" fill="#F91C86" stroke="#F91C86"/>
  <path d="M152.774 156.639H146.74V162.673H152.774V156.639Z" fill="#F91C86" stroke="#F91C86"/>
  <path d="M158.808 156.639H152.774V162.673H158.808V156.639Z" fill="#F91C86" stroke="#F91C86"/>
  <path d="M164.841 156.639H158.807V162.673H164.841V156.639Z" fill="#F91C86" stroke="#F91C86"/>
  <path d="M170.875 156.639H164.842V162.673H170.875V156.639Z" fill="#F91C86" stroke="#F91C86"/>
  <path d="M98.4715 162.673H92.4377V168.707H98.4715V162.673Z" fill="#F91C86" stroke="#F91C86"/>
  <path d="M104.505 162.673H98.4714V168.707H104.505V162.673Z" fill="#F91C86" stroke="#F91C86"/>
  <path d="M110.539 162.673H104.505V168.707H110.539V162.673Z" fill="#F91C86" stroke="#F91C86"/>
  <path d="M116.572 162.673H110.538V168.707H116.572V162.673Z" fill="#F91C86" stroke="#F91C86"/>
  <path d="M122.606 162.673H116.573V168.707H122.606V162.673Z" fill="#F91C86" stroke="#F91C86"/>
  <path d="M128.639 162.673H122.606V168.707H128.639V162.673Z" fill="#F91C86" stroke="#F91C86"/>
  <path d="M134.673 162.673H128.639V168.707H134.673V162.673Z" fill="#F91C86" stroke="#F91C86"/>
  <path d="M140.707 162.673H134.673V168.707H140.707V162.673Z" fill="#F91C86" stroke="#F91C86"/>
  <path d="M146.74 162.673H140.707V168.707H146.74V162.673Z" fill="#F91C86" stroke="#F91C86"/>
  <path d="M152.774 162.673H146.74V168.707H152.774V162.673Z" fill="#F91C86" stroke="#F91C86"/>
  <path d="M158.808 162.673H152.774V168.707H158.808V162.673Z" fill="#F91C86" stroke="#F91C86"/>
  <path d="M164.841 162.673H158.807V168.707H164.841V162.673Z" fill="#F91C86" stroke="#F91C86"/>
  <path d="M170.875 162.673H164.842V168.707H170.875V162.673Z" fill="#F91C86" stroke="#F91C86"/>
  <path d="M98.4715 168.707H92.4377V174.741H98.4715V168.707Z" fill="#F91C86" stroke="#F91C86"/>
  <path d="M104.505 168.707H98.4714V174.741H104.505V168.707Z" fill="#F91C86" stroke="#F91C86"/>
  <path d="M110.539 168.707H104.505V174.741H110.539V168.707Z" fill="#F91C86" stroke="#F91C86"/>
  <path d="M116.572 168.707H110.538V174.741H116.572V168.707Z" fill="#F91C86" stroke="#F91C86"/>
  <path d="M122.606 168.707H116.573V174.741H122.606V168.707Z" fill="#F91C86" stroke="#F91C86"/>
  <path d="M146.74 168.707H140.707V174.741H146.74V168.707Z" fill="#F91C86" stroke="#F91C86"/>
  <path d="M152.774 168.707H146.74V174.741H152.774V168.707Z" fill="#F91C86" stroke="#F91C86"/>
  <path d="M158.808 168.707H152.774V174.741H158.808V168.707Z" fill="#F91C86" stroke="#F91C86"/>
  <path d="M164.841 168.707H158.807V174.741H164.841V168.707Z" fill="#F91C86" stroke="#F91C86"/>
  <path d="M170.875 168.707H164.842V174.741H170.875V168.707Z" fill="#F91C86" stroke="#F91C86"/>
  <path d="M98.4715 174.741H92.4377V180.774H98.4715V174.741Z" fill="#F91C86" stroke="#F91C86"/>
  <path d="M104.505 174.741H98.4714V180.774H104.505V174.741Z" fill="#F91C86" stroke="#F91C86"/>
  <path d="M110.539 174.741H104.505V180.774H110.539V174.741Z" fill="#F91C86" stroke="#F91C86"/>
  <path d="M116.572 174.741H110.538V180.774H116.572V174.741Z" fill="#F91C86" stroke="#F91C86"/>
  <path d="M152.774 174.741H146.74V180.774H152.774V174.741Z" fill="#F91C86" stroke="#F91C86"/>
  <path d="M158.808 174.741H152.774V180.774H158.808V174.741Z" fill="#F91C86" stroke="#F91C86"/>
  <path d="M164.841 174.741H158.807V180.774H164.841V174.741Z" fill="#F91C86" stroke="#F91C86"/>
  <path d="M170.875 174.741H164.842V180.774H170.875V174.741Z" fill="#F91C86" stroke="#F91C86"/>
  <path d="M104.505 180.774H98.4714V186.808H104.505V180.774Z" fill="#F91C86" stroke="#F91C86"/>
  <path d="M110.539 180.774H104.505V186.808H110.539V180.774Z" fill="#F91C86" stroke="#F91C86"/>
  <path d="M116.572 180.774H110.538V186.808H116.572V180.774Z" fill="#F91C86" stroke="#F91C86"/>
  <path d="M122.606 180.774H116.573V186.808H122.606V180.774Z" fill="#F91C86" stroke="#F91C86"/>
  <path d="M146.74 180.774H140.707V186.808H146.74V180.774Z" fill="#F91C86" stroke="#F91C86"/>
  <path d="M152.774 180.774H146.74V186.808H152.774V180.774Z" fill="#F91C86" stroke="#F91C86"/>
  <path d="M158.808 180.774H152.774V186.808H158.808V180.774Z" fill="#F91C86" stroke="#F91C86"/>
  <path d="M164.841 180.774H158.807V186.808H164.841V180.774Z" fill="#F91C86" stroke="#F91C86"/>
  <path d="M110.539 186.808H104.505V192.842H110.539V186.808Z" fill="#F91C86" stroke="#F91C86"/>
  <path d="M116.572 186.808H110.538V192.842H116.572V186.808Z" fill="#F91C86" stroke="#F91C86"/>
  <path d="M122.606 186.808H116.573V192.842H122.606V186.808Z" fill="#F91C86" stroke="#F91C86"/>
  <path d="M128.639 186.808H122.606V192.842H128.639V186.808Z" fill="#F91C86" stroke="#F91C86"/>
  <path d="M134.673 186.808H128.639V192.842H134.673V186.808Z" fill="#F91C86" stroke="#F91C86"/>
  <path d="M140.707 186.808H134.673V192.842H140.707V186.808Z" fill="#F91C86" stroke="#F91C86"/>
  <path d="M146.74 186.808H140.707V192.842H146.74V186.808Z" fill="#F91C86" stroke="#F91C86"/>
  <path d="M152.774 186.808H146.74V192.842H152.774V186.808Z" fill="#F91C86" stroke="#F91C86"/>
  <path d="M158.808 186.808H152.774V192.842H158.808V186.808Z" fill="#F91C86" stroke="#F91C86"/>
  <path d="M116.572 192.841H110.538V198.875H116.572V192.841Z" fill="#F91C86" stroke="#F91C86"/>
  <path d="M122.606 192.841H116.573V198.875H122.606V192.841Z" fill="#F91C86" stroke="#F91C86"/>
  <path d="M128.639 192.841H122.606V198.875H128.639V192.841Z" fill="#F91C86" stroke="#F91C86"/>
  <path d="M134.673 192.841H128.639V198.875H134.673V192.841Z" fill="#F91C86" stroke="#F91C86"/>
  <path d="M140.707 192.841H134.673V198.875H140.707V192.841Z" fill="#F91C86" stroke="#F91C86"/>
  <path d="M146.74 192.841H140.707V198.875H146.74V192.841Z" fill="#F91C86" stroke="#F91C86"/>
  <path d="M152.774 192.841H146.74V198.875H152.774V192.841Z" fill="#F91C86" stroke="#F91C86"/>
  <path d="M122.606 198.875H116.573V204.909H122.606V198.875Z" fill="#F91C86" stroke="#F91C86"/>
  <path d="M128.639 198.875H122.606V204.909H128.639V198.875Z" fill="#F91C86" stroke="#F91C86"/>
  <path d="M134.673 198.875H128.639V204.909H134.673V198.875Z" fill="#F91C86" stroke="#F91C86"/>
  <path d="M140.707 198.875H134.673V204.909H140.707V198.875Z" fill="#F91C86" stroke="#F91C86"/>
  <path d="M146.74 198.875H140.707V204.909H146.74V198.875Z" fill="#F91C86" stroke="#F91C86"/>
  <path d="M182.943 198.875H176.909V204.909H182.943V198.875Z" fill="#A08100" stroke="#A08100"/>
  <path d="M188.976 198.875H182.942V204.909H188.976V198.875Z" fill="#FFD500" stroke="#FFD500"/>
  <path d="M195.01 198.875H188.976V204.909H195.01V198.875Z" fill="#FFD500" stroke="#FFD500"/>
  <path d="M201.043 198.875H195.01V204.909H201.043V198.875Z" fill="#A08100" stroke="#A08100"/>
  <path d="M68.3027 204.909H62.269V210.942H68.3027V204.909Z" fill="#A08100" stroke="#A08100"/>
  <path d="M74.3364 204.909H68.3027V210.942H74.3364V204.909Z" fill="#FFD500" stroke="#FFD500"/>
  <path d="M80.3704 204.909H74.3367V210.942H80.3704V204.909Z" fill="#FFD500" stroke="#FFD500"/>
  <path d="M86.4041 204.909H80.3704V210.942H86.4041V204.909Z" fill="#FFD500" stroke="#FFD500"/>
  <path d="M128.639 156.639H122.606V162.673H128.639V156.639Z" fill="#5A0038" stroke="#5A0038"/>
  <path d="M134.673 156.639H128.639V162.673H134.673V156.639Z" fill="#5A0038" stroke="#5A0038"/>
  <path d="M140.707 156.639H134.673V162.673H140.707V156.639Z" fill="#5A0038" stroke="#5A0038"/>
  <path d="M128.639 168.707H122.606V174.741H128.639V168.707Z" fill="#5A0038" stroke="#5A0038"/>
  <path d="M134.673 168.707H128.639V174.741H134.673V168.707Z" fill="#5A0038" stroke="#5A0038"/>
  <path d="M140.707 168.707H134.673V174.741H140.707V168.707Z" fill="#5A0038" stroke="#5A0038"/>
  <path d="M122.606 174.741H116.573V180.774H122.606V174.741Z" fill="#5A0038" stroke="#5A0038"/>
  <path d="M128.639 174.741H122.606V180.774H128.639V174.741Z" fill="#5A0038" stroke="#5A0038"/>
  <path d="M134.673 174.741H128.639V180.774H134.673V174.741Z" fill="#5A0038" stroke="#5A0038"/>
  <path d="M140.707 174.741H134.673V180.774H140.707V174.741Z" fill="#5A0038" stroke="#5A0038"/>
  <path d="M146.74 174.741H140.707V180.774H146.74V174.741Z" fill="#5A0038" stroke="#5A0038"/>
  <path d="M128.639 180.774H122.606V186.808H128.639V180.774Z" fill="#5A0038" stroke="#5A0038"/>
  <path d="M134.673 180.774H128.639V186.808H134.673V180.774Z" fill="#5A0038" stroke="#5A0038"/>
  <path d="M140.707 180.774H134.673V186.808H140.707V180.774Z" fill="#5A0038" stroke="#5A0038"/>
  <path d="M116.572 198.875H110.538V204.909H116.572V198.875Z" fill="#5A0038" stroke="#5A0038"/>
  <path d="M152.774 198.875H146.74V204.909H152.774V198.875Z" fill="#5A0038" stroke="#5A0038"/>
  <path d="M116.572 204.909H110.538V210.942H116.572V204.909Z" fill="#5A0038" stroke="#5A0038"/>
  <path d="M122.606 204.909H116.573V210.942H122.606V204.909Z" fill="#5A0038" stroke="#5A0038"/>
  <path d="M128.639 204.909H122.606V210.942H128.639V204.909Z" fill="#5A0038" stroke="#5A0038"/>
  <path d="M134.673 204.909H128.639V210.942H134.673V204.909Z" fill="#5A0038" stroke="#5A0038"/>
  <path d="M140.707 204.909H134.673V210.942H140.707V204.909Z" fill="#5A0038" stroke="#5A0038"/>
  <path d="M146.74 204.909H140.707V210.942H146.74V204.909Z" fill="#5A0038" stroke="#5A0038"/>
  <path d="M152.774 204.909H146.74V210.942H152.774V204.909Z" fill="#5A0038" stroke="#5A0038"/>
  <path d="M182.943 204.909H176.909V210.942H182.943V204.909Z" fill="#FFD500" stroke="#FFD500"/>
  <path d="M188.976 204.909H182.942V210.942H188.976V204.909Z" fill="#FFD500" stroke="#FFD500"/>
  <path d="M195.01 204.909H188.976V210.942H195.01V204.909Z" fill="#FFD500" stroke="#FFD500"/>
  <path d="M201.043 204.909H195.01V210.942H201.043V204.909Z" fill="#FFD500" stroke="#FFD500"/>
  <path d="M74.3364 210.942H68.3027V216.976H74.3364V210.942Z" fill="#FFD500" stroke="#FFD500"/>
  <path d="M80.3704 210.942H74.3367V216.976H80.3704V210.942Z" fill="#FFD500" stroke="#FFD500"/>
  <path d="M86.4041 210.942H80.3704V216.976H86.4041V210.942Z" fill="#FFD500" stroke="#FFD500"/>
  <path d="M92.437 210.942H86.4033V216.976H92.437V210.942Z" fill="#A08100" stroke="#A08100"/>
  <path d="M116.572 210.942H110.538V216.976H116.572V210.942Z" fill="#A08100" stroke="#A08100"/>
  <path d="M122.606 210.942H116.573V216.976H122.606V210.942Z" fill="#A08100" stroke="#A08100"/>
  <path d="M128.639 210.942H122.606V216.976H128.639V210.942Z" fill="#A08100" stroke="#A08100"/>
  <path d="M134.673 210.942H128.639V216.976H134.673V210.942Z" fill="#1B00FF" stroke="#1B00FF"/>
  <path d="M140.707 210.942H134.673V216.976H140.707V210.942Z" fill="#A08100" stroke="#A08100"/>
  <path d="M146.74 210.942H140.707V216.976H146.74V210.942Z" fill="#A08100" stroke="#A08100"/>
  <path d="M152.774 210.942H146.74V216.976H152.774V210.942Z" fill="#A08100" stroke="#A08100"/>
  <path d="M176.908 210.942H170.875V216.976H176.908V210.942Z" fill="#A08100" stroke="#A08100"/>
  <path d="M182.943 210.942H176.909V216.976H182.943V210.942Z" fill="#FFD500" stroke="#FFD500"/>
  <path d="M188.976 210.942H182.942V216.976H188.976V210.942Z" fill="#FFD500" stroke="#FFD500"/>
  <path d="M195.01 210.942H188.976V216.976H195.01V210.942Z" fill="#FFD500" stroke="#FFD500"/>
  <path d="M80.3704 216.976H74.3367V223.01H80.3704V216.976Z" fill="#FFD500" stroke="#FFD500"/>
  <path d="M86.4041 216.976H80.3704V223.01H86.4041V216.976Z" fill="#A08100" stroke="#A08100"/>
  <path d="M92.437 216.976H86.4033V223.01H92.437V216.976Z" fill="#FFD500" stroke="#FFD500"/>
  <path d="M116.572 216.976H110.538V223.01H116.572V216.976Z" fill="#A08100" stroke="#A08100"/>
  <path d="M122.606 216.976H116.573V223.01H122.606V216.976Z" fill="#FFD500" stroke="#FFD500"/>
  <path d="M128.639 216.976H122.606V223.01H128.639V216.976Z" fill="#FFD500" stroke="#FFD500"/>
  <path d="M134.673 216.976H128.639V223.01H134.673V216.976Z" fill="#78A2FF" stroke="#78A2FF"/>
  <path d="M140.707 216.976H134.673V223.01H140.707V216.976Z" fill="#FFD500" stroke="#FFD500"/>
  <path d="M146.74 216.976H140.707V223.01H146.74V216.976Z" fill="#FFD500" stroke="#FFD500"/>
  <path d="M152.774 216.976H146.74V223.01H152.774V216.976Z" fill="#A08100" stroke="#A08100"/>
  <path d="M176.908 216.976H170.875V223.01H176.908V216.976Z" fill="#FFD500" stroke="#FFD500"/>
  <path d="M182.943 216.976H176.909V223.01H182.943V216.976Z" fill="#A08100" stroke="#A08100"/>
  <path d="M188.976 216.976H182.942V223.01H188.976V216.976Z" fill="#FFD500" stroke="#FFD500"/>
  <path d="M80.3704 223.01H74.3367V229.043H80.3704V223.01Z" fill="#FFD500" stroke="#FFD500"/>
  <path d="M86.4041 223.01H80.3704V229.043H86.4041V223.01Z" fill="#FFD500" stroke="#FFD500"/>
  <path d="M92.437 223.01H86.4033V229.043H92.437V223.01Z" fill="#FFD500" stroke="#FFD500"/>
  <path d="M116.572 223.01H110.538V229.043H116.572V223.01Z" fill="#A08100" stroke="#A08100"/>
  <path d="M122.606 223.01H116.573V229.043H122.606V223.01Z" fill="#FFD500" stroke="#FFD500"/>
  <path d="M128.639 223.01H122.606V229.043H128.639V223.01Z" fill="#FFD500" stroke="#FFD500"/>
  <path d="M134.673 223.01H128.639V229.043H134.673V223.01Z" fill="#78A2FF" stroke="#78A2FF" />
  <path d="M140.707 223.01H134.673V229.043H140.707V223.01Z" fill="#FFD500" stroke="#FFD500"/>
  <path d="M146.74 223.01H140.707V229.043H146.74V223.01Z" fill="#FFD500" stroke="#FFD500"/>
  <path d="M152.774 223.01H146.74V229.043H152.774V223.01Z" fill="#A08100" stroke="#A08100"/>
  <path d="M176.908 223.01H170.875V229.043H176.908V223.01Z" fill="#FFD500" stroke="#FFD500"/>
  <path d="M182.943 223.01H176.909V229.043H182.943V223.01Z" fill="#FFD500" stroke="#FFD500"/>
  <path d="M188.976 223.01H182.942V229.043H188.976V223.01Z" fill="#FFD500" stroke="#FFD500"/>
  <path d="M116.572 229.043H110.538V235.077H116.572V229.043Z" fill="#A08100" stroke="#A08100"/>
  <path d="M122.606 229.043H116.573V235.077H122.606V229.043Z" fill="#FFD500" stroke="#FFD500"/>
  <path d="M128.639 229.043H122.606V235.077H128.639V229.043Z" fill="#FFD500" stroke="#FFD500"/>
  <path d="M134.673 229.043H128.639V235.077H134.673V229.043Z" fill="#F5F5F5" stroke="#F5F5F5"/>
  <path d="M140.707 229.043H134.673V235.077H140.707V229.043Z" fill="#FFD500" stroke="#FFD500"/>
  <path d="M146.74 229.043H140.707V235.077H146.74V229.043Z" fill="#FFD500" stroke="#FFD500"/>
  <path d="M152.774 229.043H146.74V235.077H152.774V229.043Z" fill="#A08100" stroke="#A08100"/>
  <path d="M116.572 235.077H110.538V241.11H116.572V235.077Z" fill="#A08100" stroke="#A08100"/>
  <path d="M122.606 235.077H116.573V241.11H122.606V235.077Z" fill="#FFD500" stroke="#FFD500"/>
  <path d="M128.639 235.077H122.606V241.11H128.639V235.077Z" fill="#FFD500" stroke="#FFD500"/>
  <path d="M134.673 235.077H128.639V241.11H134.673V235.077Z" fill="#F5F5F5" stroke="#F5F5F5"/>
  <path d="M140.707 235.077H134.673V241.11H140.707V235.077Z" fill="#FFD500" stroke="#FFD500"/>
  <path d="M146.74 235.077H140.707V241.11H146.74V235.077Z" fill="#FFD500" stroke="#FFD500"/>
  <path d="M152.774 235.077H146.74V241.11H152.774V235.077Z" fill="#A08100" stroke="#A08100"/>
  <path d="M116.572 241.111H110.538V247.145H116.572V241.111Z" fill="#A08100" stroke="#A08100"/>
  <path d="M122.606 241.111H116.573V247.145H122.606V241.111Z" fill="#FFD500" stroke="#FFD500"/>
  <path d="M128.639 241.111H122.606V247.145H128.639V241.111Z" fill="#FFD500" stroke="#FFD500"/>
  <path d="M134.673 241.111H128.639V247.145H134.673V241.111Z" fill="#F5F5F5" stroke="#F5F5F5"/>
  <path d="M140.707 241.111H134.673V247.145H140.707V241.111Z" fill="#FFD500" stroke="#FFD500"/>
  <path d="M146.74 241.111H140.707V247.145H146.74V241.111Z" fill="#FFD500" stroke="#FFD500"/>
  <path d="M152.774 241.111H146.74V247.145H152.774V241.111Z" fill="#A08100" stroke="#A08100"/>
  <path d="M122.606 247.144H116.573V253.178H122.606V247.144Z" fill="#FFD500" stroke="#FFD500"/>
  <path d="M128.639 247.144H122.606V253.178H128.639V247.144Z" fill="#FFD500" stroke="#FFD500"/>
  <path d="M134.673 247.144H128.639V253.178H134.673V247.144Z" fill="#F5F5F5" stroke="#F5F5F5"/>
  <path d="M140.707 247.144H134.673V253.178H140.707V247.144Z" fill="#FFD500" stroke="#FFD500"/>
  <path d="M146.74 247.144H140.707V253.178H146.74V247.144Z" fill="#FFD500" stroke="#FFD500"/>
  <path d="M128.639 253.178H122.606V259.212H128.639V253.178Z" fill="#FFD500" stroke="#FFD500"/>
  <path d="M134.673 253.178H128.639V259.212H134.673V253.178Z" fill="#F5F5F5" stroke="#F5F5F5"/>
  <path d="M140.707 253.178H134.673V259.212H140.707V253.178Z" fill="#FFD500" stroke="#FFD500"/>
  <path d="M62.2691 162.673H56.2354V168.707H62.2691V162.673Z" fill="#FFD500" stroke="#FFD500"/>
  <path d="M56.2361 168.707H50.2024V174.741H56.2361V168.707Z" fill="#FFD500" stroke="#FFD500"/>
  <path d="M62.2691 168.707H56.2354V174.741H62.2691V168.707Z" fill="#FFD500" stroke="#FFD500"/>
  <path d="M56.2361 174.741H50.2024V180.774H56.2361V174.741Z" fill="#FFD500" stroke="#FFD500"/>
  <path d="M62.2691 174.741H56.2354V180.774H62.2691V174.741Z" fill="#FFD500" stroke="#FFD500"/>
  <path d="M56.2361 180.774H50.2024V186.808H56.2361V180.774Z" fill="#FFD500" stroke="#FFD500"/>
  <path d="M62.2691 180.774H56.2354V186.808H62.2691V180.774Z" fill="#FFD500" stroke="#FFD500"/>
  <path d="M56.2361 186.808H50.2024V192.842H56.2361V186.808Z" fill="#FFD500" stroke="#FFD500"/>
  <path d="M62.2691 186.808H56.2354V192.842H62.2691V186.808Z" fill="#A08100" stroke="#A08100"/>
  <path d="M56.2361 192.841H50.2024V198.875H56.2361V192.841Z" fill="#FFD500" stroke="#FFD500"/>
  <path d="M62.2691 192.841H56.2354V198.875H62.2691V192.841Z" fill="#FFD500" stroke="#FFD500"/>
  <path d="M62.2691 198.875H56.2354V204.909H62.2691V198.875Z" fill="#FFD500" stroke="#FFD500"/>
  <path d="M134.673 259.211H128.639V265.245H134.673V259.211Z" fill="#F5F5F5" stroke="#F5F5F5"/>
  <path d="M207.077 162.673H201.043V168.707H207.077V162.673Z" fill="#FFD500" stroke="#FFD500"/>
  <path d="M207.077 168.707H201.043V174.741H207.077V168.707Z" fill="#FFD500" stroke="#FFD500"/>
  <path d="M213.111 168.707H207.077V174.741H213.111V168.707Z" fill="#FFD500" stroke="#FFD500"/>
  <path d="M207.077 174.741H201.043V180.774H207.077V174.741Z" fill="#FFD500" stroke="#FFD500"/>
  <path d="M213.111 174.741H207.077V180.774H213.111V174.741Z" fill="#FFD500" stroke="#FFD500"/>
  <path d="M207.077 180.774H201.043V186.808H207.077V180.774Z" fill="#FFD500" stroke="#FFD500"/>
  <path d="M213.111 180.774H207.077V186.808H213.111V180.774Z" fill="#FFD500" stroke="#FFD500"/>
  <path d="M207.077 186.808H201.043V192.842H207.077V186.808Z" fill="#FFD500" stroke="#FFD500"/>
  <path d="M213.111 186.808H207.077V192.842H213.111V186.808Z" fill="#A08100" stroke="#A08100"/>
  <path d="M207.077 192.841H201.043V198.875H207.077V192.841Z" fill="#FFD500" stroke="#FFD500"/>
  <path d="M213.111 192.841H207.077V198.875H213.111V192.841Z" fill="#FFD500" stroke="#FFD500"/>
  <path d="M207.077 198.875H201.043V204.909H207.077V198.875Z" fill="#FFD500" stroke="#FFD500"/>
  <path d="M68.3027 66.1348H62.269V72.1685H68.3027V66.1348Z" fill="#FFD500" stroke="#FFD500"/>
  <path d="M74.3364 66.1348H68.3027V72.1685H74.3364V66.1348Z" fill="#FFD500" stroke="#FFD500"/>
  <path d="M80.3704 66.1348H74.3367V72.1685H80.3704V66.1348Z" fill="#A08100" stroke="#A08100"/>
  <path d="M86.4041 66.1348H80.3704V72.1685H86.4041V66.1348Z" fill="#A08100" stroke="#A08100"/>
  <path d="M92.437 66.1348H86.4033V72.1685H92.437V66.1348Z" fill="#A08100" stroke="#A08100"/>
  <path d="M98.4715 66.1348H92.4377V72.1685H98.4715V66.1348Z" fill="#A08100" stroke="#A08100"/>
  <path d="M104.505 66.1348H98.4714V72.1685H104.505V66.1348Z" fill="#FFD500" stroke="#FFD500"/>
  <path d="M110.539 66.1348H104.505V72.1685H110.539V66.1348Z" fill="#FFD500" stroke="#FFD500"/>
  <path d="M116.572 66.1348H110.538V72.1685H116.572V66.1348Z" fill="#A08100" stroke="#A08100"/>
  <path d="M122.606 66.1348H116.573V72.1685H122.606V66.1348Z" fill="#FFD500" stroke="#FFD500"/>
  <path d="M128.639 66.1348H122.606V72.1685H128.639V66.1348Z" fill="#FFD500" stroke="#FFD500"/>
  <path d="M134.673 66.1348H128.639V72.1685H134.673V66.1348Z" fill="#A08100" stroke="#A08100"/>
  <path d="M140.707 66.1348H134.673V72.1685H140.707V66.1348Z" fill="#FFD500" stroke="#FFD500"/>
  <path d="M146.74 66.1348H140.707V72.1685H146.74V66.1348Z" fill="#FFD500" stroke="#FFD500"/>
  <path d="M152.774 66.1348H146.74V72.1685H152.774V66.1348Z" fill="#A08100" stroke="#A08100"/>
  <path d="M158.808 66.1348H152.774V72.1685H158.808V66.1348Z" fill="#FFD500" stroke="#FFD500"/>
  <path d="M164.841 66.1348H158.807V72.1685H164.841V66.1348Z" fill="#FFD500" stroke="#FFD500"/>
  <path d="M170.875 66.1348H164.842V72.1685H170.875V66.1348Z" fill="#A08100" stroke="#A08100"/>
  <path d="M176.908 66.1348H170.875V72.1685H176.908V66.1348Z" fill="#A08100" stroke="#A08100"/>
  <path d="M182.943 66.1348H176.909V72.1685H182.943V66.1348Z" fill="#A08100" stroke="#A08100"/>
  <path d="M188.976 66.1348H182.942V72.1685H188.976V66.1348Z" fill="#A08100" stroke="#A08100"/>
  <path d="M195.01 66.1348H188.976V72.1685H195.01V66.1348Z" fill="#FFD500" stroke="#FFD500"/>
  <path d="M201.043 66.1348H195.01V72.1685H201.043V66.1348Z" fill="#FFD500" stroke="#FFD500"/>
  <path d="M68.3027 60.1011H62.269V66.1348H68.3027V60.1011Z" fill="#FFD500" stroke="#FFD500"/>
  <path d="M74.3364 60.1011H68.3027V66.1348H74.3364V60.1011Z" fill="#A08100" stroke="#A08100"/>
  <path d="M80.3704 60.1011H74.3367V66.1348H80.3704V60.1011Z" fill="#FFD500" stroke="#FFD500"/>
  <path d="M86.4041 60.1011H80.3704V66.1348H86.4041V60.1011Z" fill="#FFD500" stroke="#FFD500"/>
  <path d="M92.437 60.1011H86.4033V66.1348H92.437V60.1011Z" fill="#FFD500" stroke="#FFD500"/>
  <path d="M98.4715 60.1011H92.4377V66.1348H98.4715V60.1011Z" fill="#FFD500" stroke="#FFD500"/>
  <path d="M104.505 60.1011H98.4714V66.1348H104.505V60.1011Z" fill="#A08100" stroke="#A08100"/>
  <path d="M164.841 60.1011H158.807V66.1348H164.841V60.1011Z" fill="#A08100" stroke="#A08100"/>
  <path d="M170.875 60.1011H164.842V66.1348H170.875V60.1011Z" fill="#FFD500" stroke="#FFD500"/>
  <path d="M176.908 60.1011H170.875V66.1348H176.908V60.1011Z" fill="#FFD500" stroke="#FFD500"/>
  <path d="M182.943 60.1011H176.909V66.1348H182.943V60.1011Z" fill="#FFD500" stroke="#FFD500"/>
  <path d="M188.976 60.1011H182.942V66.1348H188.976V60.1011Z" fill="#FFD500" stroke="#FFD500"/>
  <path d="M195.01 60.1011H188.976V66.1348H195.01V60.1011Z" fill="#A08100" stroke="#A08100"/>
  <path d="M201.043 60.1011H195.01V66.1348H201.043V60.1011Z" fill="#FFD500" stroke="#FFD500"/>
  <path d="M68.3027 54.0674H62.269V60.1011H68.3027V54.0674Z" fill="#FFD500" stroke="#FFD500"/>
  <path d="M74.3364 54.0674H68.3027V60.1011H74.3364V54.0674Z" fill="#FFD500" stroke="#FFD500"/>
  <path d="M80.3704 54.0674H74.3367V60.1011H80.3704V54.0674Z" fill="#A08100" stroke="#A08100"/>
  <path d="M86.4041 54.0674H80.3704V60.1011H86.4041V54.0674Z" fill="#FFD500" stroke="#FFD500"/>
  <path d="M92.437 54.0674H86.4033V60.1011H92.437V54.0674Z" fill="#A08100" stroke="#A08100"/>
  <path d="M98.4715 54.0674H92.4377V60.1011H98.4715V54.0674Z" fill="#FFD500" stroke="#FFD500"/>
  <path d="M104.505 54.0674H98.4714V60.1011H104.505V54.0674Z" fill="#FFD500" stroke="#FFD500"/>
  <path d="M164.841 54.0674H158.807V60.1011H164.841V54.0674Z" fill="#FFD500" stroke="#FFD500"/>
  <path d="M170.875 54.0674H164.842V60.1011H170.875V54.0674Z" fill="#FFD500" stroke="#FFD500"/>
  <path d="M176.908 54.0674H170.875V60.1011H176.908V54.0674Z" fill="#A08100" stroke="#A08100"/>
  <path d="M182.943 54.0674H176.909V60.1011H182.943V54.0674Z" fill="#FFD500" stroke="#FFD500"/>
  <path d="M188.976 54.0674H182.942V60.1011H188.976V54.0674Z" fill="#A08100" stroke="#A08100"/>
  <path d="M195.01 54.0674H188.976V60.1011H195.01V54.0674Z" fill="#FFD500" stroke="#FFD500"/>
  <path d="M201.043 54.0674H195.01V60.1011H201.043V54.0674Z" fill="#FFD500" stroke="#FFD500"/>
  <path d="M74.3364 48.0342H68.3027V54.0679H74.3364V48.0342Z" fill="#FFD500" stroke="#FFD500"/>
  <path d="M80.3704 48.0342H74.3367V54.0679H80.3704V48.0342Z" fill="#FFD500" stroke="#FFD500"/>
  <path d="M86.4041 48.0342H80.3704V54.0679H86.4041V48.0342Z" fill="#A08100" stroke="#A08100"/>
  <path d="M92.437 48.0342H86.4033V54.0679H92.437V48.0342Z" fill="#A08100" stroke="#A08100"/>
  <path d="M98.4715 48.0342H92.4377V54.0679H98.4715V48.0342Z" fill="#FFD500" stroke="#FFD500"/>
  <path d="M104.505 48.0342H98.4714V54.0679H104.505V48.0342Z" fill="#FFD500" stroke="#FFD500"/>
  <path d="M164.841 48.0342H158.807V54.0679H164.841V48.0342Z" fill="#FFD500" stroke="#FFD500"/>
  <path d="M170.875 48.0342H164.842V54.0679H170.875V48.0342Z" fill="#FFD500" stroke="#FFD500"/>
  <path d="M176.908 48.0342H170.875V54.0679H176.908V48.0342Z" fill="#A08100" stroke="#A08100"/>
  <path d="M182.943 48.0342H176.909V54.0679H182.943V48.0342Z" fill="#A08100" stroke="#A08100"/>
  <path d="M188.976 48.0342H182.942V54.0679H188.976V48.0342Z" fill="#FFD500" stroke="#FFD500"/>
  <path d="M195.01 48.0342H188.976V54.0679H195.01V48.0342Z" fill="#FFD500" stroke="#FFD500"/>
  <path d="M80.3704 42H74.3367V48.0337H80.3704V42Z" fill="#FFD500" stroke="#FFD500"/>
  <path d="M86.4041 42H80.3704V48.0337H86.4041V42Z" fill="#FFD500" stroke="#FFD500"/>
  <path d="M92.437 42H86.4033V48.0337H92.437V42Z" fill="#FFD500" stroke="#FFD500"/>
  <path d="M98.4715 42H92.4377V48.0337H98.4715V42Z" fill="#FFD500" stroke="#FFD500"/>
  <path d="M170.875 42H164.842V48.0337H170.875V42Z" fill="#FFD500" stroke="#FFD500"/>
  <path d="M176.908 42H170.875V48.0337H176.908V42Z" fill="#FFD500" stroke="#FFD500"/>
  <path d="M182.943 42H176.909V48.0337H182.943V42Z" fill="#FFD500" stroke="#FFD500"/>
  <path d="M188.976 42H182.942V48.0337H188.976V42Z" fill="#FFD500" stroke="#FFD500"/>
  <path d="M116.572 132.505H110.538V138.539H116.572V132.505Z" fill="#5CFF00"/>
  <path d="M158.808 132.505H152.774V138.539H158.808V132.505Z" fill="#5CFF00"/>
  <path d="M92.437 198.875H86.4033V204.909H92.437V198.875Z" fill="#FFD500" stroke="#FFD500"/>
  <path d="M98.4715 198.875H92.4377V204.909H98.4715V198.875Z" fill="#FFD500" stroke="#FFD500"/>
  <path d="M170.875 198.875H164.842V204.909H170.875V198.875Z" fill="#FFD500" stroke="#FFD500"/>
  <path d="M176.908 198.875H170.875V204.909H176.908V198.875Z" fill="#FFD500" stroke="#FFD500"/>
  <path d="M92.437 204.909H86.4033V210.942H92.437V204.909Z" fill="#A08100" stroke="#A08100"/>
  <path d="M98.4715 204.909H92.4377V210.942H98.4715V204.909Z" fill="#FFD500" stroke="#FFD500"/>
  <path d="M104.505 204.909H98.4714V210.942H104.505V204.909Z" fill="#FFD500" stroke="#FFD500"/>
  <path d="M164.841 204.909H158.807V210.942H164.841V204.909Z" fill="#FFD500" stroke="#FFD500"/>
  <path d="M170.875 204.909H164.842V210.942H170.875V204.909Z" fill="#FFD500" stroke="#FFD500"/>
  <path d="M176.908 204.909H170.875V210.942H176.908V204.909Z" fill="#A08100" stroke="#A08100"/>
  <path d="M98.4715 210.942H92.4377V216.976H98.4715V210.942Z" fill="#FFD500" stroke="#FFD500"/>
  <path d="M104.505 210.942H98.4714V216.976H104.505V210.942Z" fill="#FFD500" stroke="#FFD500"/>
  <path d="M164.841 210.942H158.807V216.976H164.841V210.942Z" fill="#FFD500" stroke="#FFD500"/>
  <path d="M170.875 210.942H164.842V216.976H170.875V210.942Z" fill="#FFD500" stroke="#FFD500"/>
  <path d="M98.4715 216.976H92.4377V223.01H98.4715V216.976Z" fill="#FFD500" stroke="#FFD500"/>
  <path d="M104.505 216.976H98.4714V223.01H104.505V216.976Z" fill="#A08100" stroke="#A08100"/>
  <path d="M164.841 216.976H158.807V223.01H164.841V216.976Z" fill="#A08100" stroke="#A08100"/>
  <path d="M170.875 216.976H164.842V223.01H170.875V216.976Z" fill="#FFD500" stroke="#FFD500"/>
  <path d="M98.4715 223.01H92.4377V229.043H98.4715V223.01Z" fill="#A08100" stroke="#A08100"/>
  <path d="M104.505 223.01H98.4714V229.043H104.505V223.01Z" fill="#FFD500" stroke="#FFD500"/>
  <path d="M164.841 223.01H158.807V229.043H164.841V223.01Z" fill="#FFD500" stroke="#FFD500"/>
  <path d="M170.875 223.01H164.842V229.043H170.875V223.01Z" fill="#A08100" stroke="#A08100"/>
  <path d="M68.3027 229.043H62.269V235.077H68.3027V229.043Z" fill="#A08100" stroke="#A08100"/>
  <path d="M74.3364 229.043H68.3027V235.077H74.3364V229.043Z" fill="#FFD500" stroke="#FFD500"/>
  <path d="M80.3704 229.043H74.3367V235.077H80.3704V229.043Z" fill="#A08100" stroke="#A08100"/>
  <path d="M86.4041 229.043H80.3704V235.077H86.4041V229.043Z" fill="#FFD500" stroke="#FFD500"/>
  <path d="M92.437 229.043H86.4033V235.077H92.437V229.043Z" fill="#A08100" stroke="#A08100"/>
  <path d="M98.4715 229.043H92.4377V235.077H98.4715V229.043Z" fill="#FFD500" stroke="#FFD500"/>
  <path d="M104.505 229.043H98.4714V235.077H104.505V229.043Z" fill="#FFD500" stroke="#FFD500"/>
  <path d="M164.841 229.043H158.807V235.077H164.841V229.043Z" fill="#FFD500" stroke="#FFD500"/>
  <path d="M170.875 229.043H164.842V235.077H170.875V229.043Z" fill="#FFD500" stroke="#FFD500"/>
  <path d="M176.908 229.043H170.875V235.077H176.908V229.043Z" fill="#A08100" stroke="#A08100"/>
  <path d="M182.943 229.043H176.909V235.077H182.943V229.043Z" fill="#FFD500" stroke="#FFD500"/>
  <path d="M188.976 229.043H182.942V235.077H188.976V229.043Z" fill="#A08100" stroke="#A08100"/>
  <path d="M195.01 229.043H188.976V235.077H195.01V229.043Z" fill="#FFD500" stroke="#FFD500"/>
  <path d="M201.043 229.043H195.01V235.077H201.043V229.043Z" fill="#A08100" stroke="#A08100"/>
  <path d="M68.3027 235.077H62.269V241.11H68.3027V235.077Z" fill="#A08100" stroke="#A08100"/>
  <path d="M74.3364 235.077H68.3027V241.11H74.3364V235.077Z" fill="#FFD500" stroke="#FFD500"/>
  <path d="M80.3704 235.077H74.3367V241.11H80.3704V235.077Z" fill="#FFD500" stroke="#FFD500"/>
  <path d="M86.4041 235.077H80.3704V241.11H86.4041V235.077Z" fill="#FFD500" stroke="#FFD500"/>
  <path d="M92.437 235.077H86.4033V241.11H92.437V235.077Z" fill="#FFD500" stroke="#FFD500"/>
  <path d="M98.4715 235.077H92.4377V241.11H98.4715V235.077Z" fill="#FFD500" stroke="#FFD500"/>
  <path d="M104.505 235.077H98.4714V241.11H104.505V235.077Z" fill="#FFD500" stroke="#FFD500"/>
  <path d="M164.841 235.077H158.807V241.11H164.841V235.077Z" fill="#FFD500" stroke="#FFD500"/>
  <path d="M170.875 235.077H164.842V241.11H170.875V235.077Z" fill="#FFD500" stroke="#FFD500"/>
  <path d="M176.908 235.077H170.875V241.11H176.908V235.077Z" fill="#FFD500" stroke="#FFD500"/>
  <path d="M182.943 235.077H176.909V241.11H182.943V235.077Z" fill="#FFD500" stroke="#FFD500"/>
  <path d="M188.976 235.077H182.942V241.11H188.976V235.077Z" fill="#FFD500" stroke="#FFD500"/>
  <path d="M195.01 235.077H188.976V241.11H195.01V235.077Z" fill="#FFD500" stroke="#FFD500"/>
  <path d="M201.043 235.077H195.01V241.11H201.043V235.077Z" fill="#A08100" stroke="#A08100"/>
  <path d="M68.3027 241.111H62.269V247.145H68.3027V241.111Z" fill="#A08100" stroke="#A08100"/>
  <path d="M74.3364 241.111H68.3027V247.145H74.3364V241.111Z" fill="#A08100" stroke="#A08100"/>
  <path d="M80.3704 241.111H74.3367V247.145H80.3704V241.111Z" fill="#FFD500" stroke="#FFD500"/>
  <path d="M86.4041 241.111H80.3704V247.145H86.4041V241.111Z" fill="#FFD500" stroke="#FFD500"/>
  <path d="M92.437 241.111H86.4033V247.145H92.437V241.111Z" fill="#FFD500" stroke="#FFD500"/>
  <path d="M98.4715 241.111H92.4377V247.145H98.4715V241.111Z" fill="#FFD500" stroke="#FFD500"/>
  <path d="M104.505 241.111H98.4714V247.145H104.505V241.111Z" fill="#A08100" stroke="#A08100"/>
  <path d="M164.841 241.111H158.807V247.145H164.841V241.111Z" fill="#A08100" stroke="#A08100"/>
  <path d="M170.875 241.111H164.842V247.145H170.875V241.111Z" fill="#FFD500" stroke="#FFD500"/>
  <path d="M176.908 241.111H170.875V247.145H176.908V241.111Z" fill="#FFD500" stroke="#FFD500"/>
  <path d="M182.943 241.111H176.909V247.145H182.943V241.111Z" fill="#FFD500" stroke="#FFD500"/>
  <path d="M188.976 241.111H182.942V247.145H188.976V241.111Z" fill="#FFD500" stroke="#FFD500"/>
  <path d="M195.01 241.111H188.976V247.145H195.01V241.111Z" fill="#A08100" stroke="#A08100"/>
  <path d="M201.043 241.111H195.01V247.145H201.043V241.111Z" fill="#A08100" stroke="#A08100"/>
  <path d="M68.3027 247.144H62.269V253.178H68.3027V247.144Z" fill="#FFD500" stroke="#FFD500"/>
  <path d="M74.3364 247.144H68.3027V253.178H74.3364V247.144Z" fill="#A08100" stroke="#A08100"/>
  <path d="M80.3704 247.144H74.3367V253.178H80.3704V247.144Z" fill="#A08100" stroke="#A08100"/>
  <path d="M86.4041 247.144H80.3704V253.178H86.4041V247.144Z" fill="#A08100" stroke="#A08100"/>
  <path d="M92.437 247.144H86.4033V253.178H92.437V247.144Z" fill="#A08100" stroke="#A08100"/>
  <path d="M98.4715 247.144H92.4377V253.178H98.4715V247.144Z" fill="#A08100" stroke="#A08100"/>
  <path d="M104.505 247.144H98.4714V253.178H104.505V247.144Z" fill="#A08100" stroke="#A08100"/>
  <path d="M110.539 247.144H104.505V253.178H110.539V247.144Z" fill="#A08100" stroke="#A08100"/>
  <path d="M158.808 247.144H152.774V253.178H158.808V247.144Z" fill="#A08100" stroke="#A08100"/>
  <path d="M164.841 247.144H158.807V253.178H164.841V247.144Z" fill="#A08100" stroke="#A08100"/>
  <path d="M170.875 247.144H164.842V253.178H170.875V247.144Z" fill="#A08100" stroke="#A08100"/>
  <path d="M176.908 247.144H170.875V253.178H176.908V247.144Z" fill="#A08100" stroke="#A08100"/>
  <path d="M182.943 247.144H176.909V253.178H182.943V247.144Z" fill="#A08100" stroke="#A08100"/>
  <path d="M188.976 247.144H182.942V253.178H188.976V247.144Z" fill="#A08100" stroke="#A08100"/>
  <path d="M195.01 247.144H188.976V253.178H195.01V247.144Z" fill="#A08100" stroke="#A08100"/>
  <path d="M201.043 247.144H195.01V253.178H201.043V247.144Z" fill="#A08100" stroke="#A08100"/>
  <path d="M68.3027 253.178H62.269V259.212H68.3027V253.178Z" fill="#FFD500" stroke="#FFD500"/>
  <path d="M74.3364 253.178H68.3027V259.212H74.3364V253.178Z" fill="#FFD500" stroke="#FFD500"/>
  <path d="M80.3704 253.178H74.3367V259.212H80.3704V253.178Z" fill="#FFD500" stroke="#FFD500"/>
  <path d="M86.4041 253.178H80.3704V259.212H86.4041V253.178Z" fill="#A08100" stroke="#A08100"/>
  <path d="M92.437 253.178H86.4033V259.212H92.437V253.178Z" fill="#A08100" stroke="#A08100"/>
  <path d="M98.4715 253.178H92.4377V259.212H98.4715V253.178Z" fill="#A08100" stroke="#A08100"/>
  <path d="M104.505 253.178H98.4714V259.212H104.505V253.178Z" fill="#A08100" stroke="#A08100"/>
  <path d="M110.539 253.178H104.505V259.212H110.539V253.178Z" fill="#FFD500" stroke="#FFD500"/>
  <path d="M116.572 253.178H110.538V259.212H116.572V253.178Z" fill="#FFD500" stroke="#FFD500"/>
  <path d="M152.774 253.178H146.74V259.212H152.774V253.178Z" fill="#FFD500" stroke="#FFD500"/>
  <path d="M158.808 253.178H152.774V259.212H158.808V253.178Z" fill="#FFD500" stroke="#FFD500"/>
  <path d="M164.841 253.178H158.807V259.212H164.841V253.178Z" fill="#FFD500" stroke="#FFD500"/>
  <path d="M170.875 253.178H164.842V259.212H170.875V253.178Z" fill="#A08100" stroke="#A08100"/>
  <path d="M176.908 253.178H170.875V259.212H176.908V253.178Z" fill="#A08100" stroke="#A08100"/>
  <path d="M182.943 253.178H176.909V259.212H182.943V253.178Z" fill="#A08100" stroke="#A08100"/>
  <path d="M188.976 253.178H182.942V259.212H188.976V253.178Z" fill="#A08100" stroke="#A08100"/>
  <path d="M195.01 253.178H188.976V259.212H195.01V253.178Z" fill="#FFD500" stroke="#FFD500"/>
  <path d="M201.043 253.178H195.01V259.212H201.043V253.178Z" fill="#FFD500" stroke="#FFD500"/>
  <path d="M68.3027 259.211H62.269V265.245H68.3027V259.211Z" fill="#FFD500" stroke="#FFD500"/>
  <path d="M74.3364 259.211H68.3027V265.245H74.3364V259.211Z" fill="#FFD500" stroke="#FFD500"/>
  <path d="M56.2361 229.043H50.2024V235.077H56.2361V229.043Z" fill="#F5F5F5" stroke="#F5F5F5"/>
  <path d="M62.2691 229.043H56.2354V235.077H62.2691V229.043Z" fill="#F5F5F5" stroke="#F5F5F5"/>
  <path d="M56.2361 235.077H50.2024V241.11H56.2361V235.077Z" fill="#FFD500" stroke="#FFD500"/>
  <path d="M62.2691 235.077H56.2354V241.11H62.2691V235.077Z" fill="#FFD500" stroke="#FFD500"/>
  <path d="M56.2361 241.111H50.2024V247.145H56.2361V241.111Z" fill="#FFD500" stroke="#FFD500"/>
  <path d="M62.2691 241.111H56.2354V247.145H62.2691V241.111Z" fill="#FFD500" stroke="#FFD500"/>
  <path d="M56.2361 247.144H50.2024V253.178H56.2361V247.144Z" fill="#FFD500" stroke="#FFD500"/>
  <path d="M62.2691 247.144H56.2354V253.178H62.2691V247.144Z" fill="#FFD500" stroke="#FFD500"/>
  <path d="M56.2361 253.178H50.2024V259.212H56.2361V253.178Z" fill="#FFD500" stroke="#FFD500"/>
  <path d="M62.2691 253.178H56.2354V259.212H62.2691V253.178Z" fill="#FFD500" stroke="#FFD500"/>
  <path d="M56.2361 259.211H50.2024V265.245H56.2361V259.211Z" fill="#FFD500" stroke="#FFD500"/>
  <path d="M62.2691 259.211H56.2354V265.245H62.2691V259.211Z" fill="#FFD500" stroke="#FFD500"/>
  <path d="M44.168 229.043H38.1343V235.077H44.168V229.043Z" fill="#F5F5F5" stroke="#F5F5F5"/>
  <path d="M50.2024 229.043H44.1687V235.077H50.2024V229.043Z" fill="#F5F5F5" stroke="#F5F5F5"/>
  <path d="M44.168 235.077H38.1343V241.11H44.168V235.077Z" fill="#FFD500" stroke="#FFD500"/>
  <path d="M50.2024 235.077H44.1687V241.11H50.2024V235.077Z" fill="#FFD500" stroke="#FFD500"/>
  <path d="M44.168 241.111H38.1343V247.145H44.168V241.111Z" fill="#FFD500" stroke="#FFD500"/>
  <path d="M50.2024 241.111H44.1687V247.145H50.2024V241.111Z" fill="#FFD500" stroke="#FFD500"/>
  <path d="M44.168 247.144H38.1343V253.178H44.168V247.144Z" fill="#FFD500" stroke="#FFD500"/>
  <path d="M50.2024 247.144H44.1687V253.178H50.2024V247.144Z" fill="#FFD500" stroke="#FFD500"/>
  <path d="M44.168 253.178H38.1343V259.212H44.168V253.178Z" fill="#FFD500" stroke="#FFD500"/>
  <path d="M50.2024 253.178H44.1687V259.212H50.2024V253.178Z" fill="#FFD500" stroke="#FFD500"/>
  <path d="M44.168 259.211H38.1343V265.245H44.168V259.211Z" fill="#FFD500" stroke="#FFD500"/>
  <path d="M50.2024 259.211H44.1687V265.245H50.2024V259.211Z" fill="#FFD500" stroke="#FFD500"/>
  <path d="M32.1011 229.043H26.0674V235.077H32.1011V229.043Z" fill="#F5F5F5" stroke="#F5F5F5"/>
  <path d="M38.1348 229.043H32.1011V235.077H38.1348V229.043Z" fill="#F5F5F5" stroke="#F5F5F5"/>
  <path d="M32.1011 235.077H26.0674V241.11H32.1011V235.077Z" fill="#FFD500" stroke="#FFD500"/>
  <path d="M38.1348 235.077H32.1011V241.11H38.1348V235.077Z" fill="#FFD500" stroke="#FFD500"/>
  <path d="M32.1011 241.111H26.0674V247.145H32.1011V241.111Z" fill="#FFD500" stroke="#FFD500"/>
  <path d="M38.1348 241.111H32.1011V247.145H38.1348V241.111Z" fill="#FFD500" stroke="#FFD500"/>
  <path d="M32.1011 247.144H26.0674V253.178H32.1011V247.144Z" fill="#FFD500" stroke="#FFD500"/>
  <path d="M38.1348 247.144H32.1011V253.178H38.1348V247.144Z" fill="#FFD500" stroke="#FFD500"/>
  <path d="M32.1011 253.178H26.0674V259.212H32.1011V253.178Z" fill="#FFD500" stroke="#FFD500"/>
  <path d="M38.1348 253.178H32.1011V259.212H38.1348V253.178Z" fill="#FFD500" stroke="#FFD500"/>
  <path d="M32.1011 259.211H26.0674V265.245H32.1011V259.211Z" fill="#FFD500" stroke="#FFD500"/>
  <path d="M38.1348 259.211H32.1011V265.245H38.1348V259.211Z" fill="#FFD500" stroke="#FFD500"/>
  <path d="M26.0674 235.077H20.0337V241.11H26.0674V235.077Z" fill="#F5F5F5" stroke="#F5F5F5"/>
  <path d="M20.0337 241.111H14V247.145H20.0337V241.111Z" fill="#F5F5F5" stroke="#F5F5F5"/>
  <path d="M26.0674 241.111H20.0337V247.145H26.0674V241.111Z" fill="#FFD500" stroke="#FFD500"/>
  <path d="M20.0337 247.144H14V253.178H20.0337V247.144Z" fill="#FFD500" stroke="#FFD500"/>
  <path d="M26.0674 247.144H20.0337V253.178H26.0674V247.144Z" fill="#FFD500" stroke="#FFD500"/>
  <path d="M20.0337 253.178H14V259.212H20.0337V253.178Z" fill="#FFD500" stroke="#FFD500"/>
  <path d="M26.0674 253.178H20.0337V259.212H26.0674V253.178Z" fill="#FFD500" stroke="#FFD500"/>
  <path d="M20.0337 259.211H14V265.245H20.0337V259.211Z" fill="#FFD500" stroke="#FFD500"/>
  <path d="M26.0674 259.211H20.0337V265.245H26.0674V259.211Z" fill="#FFD500" stroke="#FFD500"/>
  <path d="M80.3704 259.211H74.3367V265.245H80.3704V259.211Z" fill="#FFD500" stroke="#FFD500"/>
  <path d="M86.4041 259.211H80.3704V265.245H86.4041V259.211Z" fill="#FFD500" stroke="#FFD500"/>
  <path d="M92.437 259.211H86.4033V265.245H92.437V259.211Z" fill="#FFD500" stroke="#FFD500"/>
  <path d="M98.4715 259.211H92.4377V265.245H98.4715V259.211Z" fill="#FFD500" stroke="#FFD500"/>
  <path d="M104.505 259.211H98.4714V265.245H104.505V259.211Z" fill="#FFD500" stroke="#FFD500"/>
  <path d="M110.539 259.211H104.505V265.245H110.539V259.211Z" fill="#FFD500" stroke="#FFD500"/>
  <path d="M116.572 259.211H110.538V265.245H116.572V259.211Z" fill="#FFD500" stroke="#FFD500"/>
  <path d="M122.606 259.211H116.573V265.245H122.606V259.211Z" fill="#FFD500" stroke="#FFD500"/>
  <path d="M146.74 259.211H140.707V265.245H146.74V259.211Z" fill="#FFD500" stroke="#FFD500"/>
  <path d="M152.774 259.211H146.74V265.245H152.774V259.211Z" fill="#FFD500" stroke="#FFD500"/>
  <path d="M158.808 259.211H152.774V265.245H158.808V259.211Z" fill="#FFD500" stroke="#FFD500"/>
  <path d="M164.841 259.211H158.807V265.245H164.841V259.211Z" fill="#FFD500" stroke="#FFD500"/>
  <path d="M170.875 259.211H164.842V265.245H170.875V259.211Z" fill="#FFD500" stroke="#FFD500"/>
  <path d="M176.908 259.211H170.875V265.245H176.908V259.211Z" fill="#FFD500" stroke="#FFD500"/>
  <path d="M182.943 259.211H176.909V265.245H182.943V259.211Z" fill="#FFD500" stroke="#FFD500"/>
  <path d="M188.976 259.211H182.942V265.245H188.976V259.211Z" fill="#FFD500" stroke="#FFD500"/>
  <path d="M195.01 259.211H188.976V265.245H195.01V259.211Z" fill="#FFD500" stroke="#FFD500"/>
  <path d="M201.043 259.211H195.01V265.245H201.043V259.211Z" fill="#FFD500" stroke="#FFD500"/>
  <path d="M207.077 229.043H201.043V235.077H207.077V229.043Z" fill="#F5F5F5" stroke="#F5F5F5"/>
  <path d="M213.111 229.043H207.077V235.077H213.111V229.043Z" fill="#F5F5F5" stroke="#F5F5F5"/>
  <path d="M207.077 235.077H201.043V241.11H207.077V235.077Z" fill="#FFD500" stroke="#FFD500"/>
  <path d="M213.111 235.077H207.077V241.11H213.111V235.077Z" fill="#FFD500" stroke="#FFD500"/>
  <path d="M207.077 241.111H201.043V247.145H207.077V241.111Z" fill="#FFD500" stroke="#FFD500"/>
  <path d="M213.111 241.111H207.077V247.145H213.111V241.111Z" fill="#FFD500" stroke="#FFD500"/>
  <path d="M207.077 247.144H201.043V253.178H207.077V247.144Z" fill="#FFD500" stroke="#FFD500"/>
  <path d="M213.111 247.144H207.077V253.178H213.111V247.144Z" fill="#FFD500" stroke="#FFD500"/>
  <path d="M207.077 253.178H201.043V259.212H207.077V253.178Z" fill="#FFD500" stroke="#FFD500"/>
  <path d="M213.111 253.178H207.077V259.212H213.111V253.178Z" fill="#FFD500" stroke="#FFD500"/>
  <path d="M207.077 259.211H201.043V265.245H207.077V259.211Z" fill="#FFD500" stroke="#FFD500"/>
  <path d="M213.111 259.211H207.077V265.245H213.111V259.211Z" fill="#FFD500" stroke="#FFD500"/>
  <path d="M219.144 229.043H213.111V235.077H219.144V229.043Z" fill="#F5F5F5" stroke="#F5F5F5"/>
  <path d="M225.178 229.043H219.144V235.077H225.178V229.043Z" fill="#F5F5F5" stroke="#F5F5F5"/>
  <path d="M219.144 235.077H213.111V241.11H219.144V235.077Z" fill="#FFD500" stroke="#FFD500"/>
  <path d="M225.178 235.077H219.144V241.11H225.178V235.077Z" fill="#FFD500" stroke="#FFD500"/>
  <path d="M219.144 241.111H213.111V247.145H219.144V241.111Z" fill="#FFD500" stroke="#FFD500"/>
  <path d="M225.178 241.111H219.144V247.145H225.178V241.111Z" fill="#FFD500" stroke="#FFD500"/>
  <path d="M219.144 247.144H213.111V253.178H219.144V247.144Z" fill="#FFD500" stroke="#FFD500"/>
  <path d="M225.178 247.144H219.144V253.178H225.178V247.144Z" fill="#FFD500" stroke="#FFD500"/>
  <path d="M219.144 253.178H213.111V259.212H219.144V253.178Z" fill="#FFD500" stroke="#FFD500"/>
  <path d="M225.178 253.178H219.144V259.212H225.178V253.178Z" fill="#FFD500" stroke="#FFD500"/>
  <path d="M219.144 259.211H213.111V265.245H219.144V259.211Z" fill="#FFD500" stroke="#FFD500"/>
  <path d="M225.178 259.211H219.144V265.245H225.178V259.211Z" fill="#FFD500" stroke="#FFD500"/>
  <path d="M231.212 229.043H225.178V235.077H231.212V229.043Z" fill="#F5F5F5" stroke="#F5F5F5"/>
  <path d="M237.245 229.043H231.212V235.077H237.245V229.043Z" fill="#F5F5F5" stroke="#F5F5F5"/>
  <path d="M231.212 235.077H225.178V241.11H231.212V235.077Z" fill="#FFD500" stroke="#FFD500"/>
  <path d="M237.245 235.077H231.212V241.11H237.245V235.077Z" fill="#FFD500" stroke="#FFD500"/>
  <path d="M231.212 241.111H225.178V247.145H231.212V241.111Z" fill="#FFD500" stroke="#FFD500"/>
  <path d="M237.245 241.111H231.212V247.145H237.245V241.111Z" fill="#FFD500" stroke="#FFD500"/>
  <path d="M231.212 247.144H225.178V253.178H231.212V247.144Z" fill="#FFD500" stroke="#FFD500"/>
  <path d="M237.245 247.144H231.212V253.178H237.245V247.144Z" fill="#FFD500" stroke="#FFD500"/>
  <path d="M231.212 253.178H225.178V259.212H231.212V253.178Z" fill="#FFD500" stroke="#FFD500"/>
  <path d="M237.245 253.178H231.212V259.212H237.245V253.178Z" fill="#FFD500" stroke="#FFD500"/>
  <path d="M231.212 259.211H225.178V265.245H231.212V259.211Z" fill="#FFD500" stroke="#FFD500"/>
  <path d="M237.245 259.211H231.212V265.245H237.245V259.211Z" fill="#FFD500" stroke="#FFD500"/>
  <path d="M243.279 235.077H237.245V241.11H243.279V235.077Z" fill="#F5F5F5" stroke="#F5F5F5"/>
  <path d="M243.279 241.111H237.245V247.145H243.279V241.111Z" fill="#FFD500" stroke="#FFD500"/>
  <path d="M249.313 241.111H243.279V247.145H249.313V241.111Z" fill="#F5F5F5" stroke="#F5F5F5"/>
  <path d="M243.279 247.144H237.245V253.178H243.279V247.144Z" fill="#FFD500" stroke="#FFD500"/>
  <path d="M249.313 247.144H243.279V253.178H249.313V247.144Z" fill="#FFD500" stroke="#FFD500"/>
  <path d="M243.279 253.178H237.245V259.212H243.279V253.178Z" fill="#FFD500" stroke="#FFD500"/>
  <path d="M249.313 253.178H243.279V259.212H249.313V253.178Z" fill="#FFD500" stroke="#FFD500"/>
  <path d="M243.279 259.211H237.245V265.245H243.279V259.211Z" fill="#FFD500" stroke="#FFD500"/>
  <path d="M249.313 259.211H243.279V265.245H249.313V259.211Z" fill="#FFD500" stroke="#FFD500"/>
  <path d="M104.505 198.875H98.4714V204.909H104.505V198.875Z" fill="#FFD500" stroke="#FFD500"/>
  <path d="M110.539 198.875H104.505V204.909H110.539V198.875Z" fill="#FFD500" stroke="#FFD500"/>
  <path d="M158.808 198.875H152.774V204.909H158.808V198.875Z" fill="#FFD500" stroke="#FFD500"/>
  <path d="M164.841 198.875H158.807V204.909H164.841V198.875Z" fill="#FFD500" stroke="#FFD500"/>
  <path d="M110.539 204.909H104.505V210.942H110.539V204.909Z" fill="#FFD500" stroke="#FFD500"/>
  <path d="M158.808 204.909H152.774V210.942H158.808V204.909Z" fill="#FFD500" stroke="#FFD500"/>
  <path d="M110.539 210.942H104.505V216.976H110.539V210.942Z" fill="#FFD500" stroke="#FFD500"/>
  <path d="M158.808 210.942H152.774V216.976H158.808V210.942Z" fill="#FFD500" stroke="#FFD500"/>
  <path d="M110.539 216.976H104.505V223.01H110.539V216.976Z" fill="#FFD500" stroke="#FFD500"/>
  <path d="M158.808 216.976H152.774V223.01H158.808V216.976Z" fill="#FFD500" stroke="#FFD500"/>
  <path d="M110.539 223.01H104.505V229.043H110.539V223.01Z" fill="#FFD500" stroke="#FFD500"/>
  <path d="M158.808 223.01H152.774V229.043H158.808V223.01Z" fill="#FFD500" stroke="#FFD500"/>
  <path d="M110.539 229.043H104.505V235.077H110.539V229.043Z" fill="#FFD500" stroke="#FFD500"/>
  <path d="M158.808 229.043H152.774V235.077H158.808V229.043Z" fill="#FFD500" stroke="#FFD500"/>
  <path d="M110.539 235.077H104.505V241.11H110.539V235.077Z" fill="#A08100" stroke="#A08100"/>
  <path d="M158.808 235.077H152.774V241.11H158.808V235.077Z" fill="#A08100" stroke="#A08100"/>
  <path d="M110.539 241.111H104.505V247.145H110.539V241.111Z" fill="#A08100" stroke="#A08100"/>
  <path d="M158.808 241.111H152.774V247.145H158.808V241.111Z" fill="#A08100" stroke="#A08100"/>
  <path d="M116.572 247.144H110.538V253.178H116.572V247.144Z" fill="#FFD500" stroke="#FFD500"/>
  <path d="M152.774 247.144H146.74V253.178H152.774V247.144Z" fill="#FFD500" stroke="#FFD500"/>
  <path d="M122.606 253.178H116.573V259.212H122.606V253.178Z" fill="#FFD500" stroke="#FFD500"/>
  <path d="M146.74 253.178H140.707V259.212H146.74V253.178Z" fill="#FFD500" stroke="#FFD500"/>
  <path d="M128.639 259.211H122.606V265.245H128.639V259.211Z" fill="#FFD500" stroke="#FFD500"/>
  <path d="M140.707 259.211H134.673V265.245H140.707V259.211Z" fill="#FFD500" stroke="#FFD500"/>
  <g id="selector-arrow">
    <path d="M139.684 9.6761L139.684 4.83789L134.915 4.83789L134.915 9.6761L139.684 9.6761Z" fill="transparent"/>
    <path d="M144.453 4.83821L144.453 0L139.684 -2.08461e-07L139.684 4.83821L144.453 4.83821Z" fill="transparent"/>
    <path d="M134.915 14.5145L134.915 9.67627L130.146 9.67627L130.146 14.5145L134.915 14.5145Z" fill="transparent"/>
    <path d="M130.146 9.6761L130.146 4.83789L125.377 4.83789L125.377 9.6761L130.146 9.6761Z" fill="transparent"/>
    <path d="M130.146 4.83821L130.146 0L125.377 -2.08461e-07L125.377 4.83821L130.146 4.83821Z" fill="transparent"/>
    <path d="M134.915 4.83821L134.915 0L130.146 -2.08461e-07L130.146 4.83821L134.915 4.83821Z" fill="transparent"/>
    <path d="M139.684 4.83821L139.684 0L134.915 -2.08461e-07L134.915 4.83821L139.684 4.83821Z" fill="transparent"/>
    <path d="M125.377 4.83821L125.377 0L120.608 -2.08461e-07L120.608 4.83821L125.377 4.83821Z" fill="transparent"/>
    <path d="M134.915 9.6761L134.915 4.83789L130.146 4.83789L130.146 9.6761L134.915 9.6761Z" fill="transparent"/>
    <g id="selector-border">
      <path d="M3 247L3 277L33 277" stroke="transparent" stroke-width="6"/>
      <path d="M261 247L261 277L231 277" stroke="transparent" stroke-width="6"/>
      <path d="M3 38L3 8L33 8" stroke="transparent" stroke-width="6"/>
      <path d="M261 38L261 8L231 8" stroke="transparent" stroke-width="6"/>
    </g>
  </g>
</svg>
