<svg xmlns="http://www.w3.org/2000/svg" viewBox="0 0 264 280">
    <path d="M74.4,99.37h-6.03v6.03h6.03v-6.03Z" fill="#00683e" stroke="#00683e"/>
    <path d="M80.44,99.37h-6.03v6.03h6.03v-6.03Z" fill="#00683e" stroke="#00683e"/>
    <path d="M86.47,99.37h-6.03v6.03h6.03v-6.03Z" fill="#00683e" stroke="#00683e"/>
    <path d="M92.51,99.37h-6.03v6.03h6.03v-6.03Z" fill="#00683e" stroke="#00683e"/>
    <path d="M98.54,99.37h-6.03v6.03h6.03v-6.03Z" fill="#00683e" stroke="#00683e"/>
    <path d="M104.57,99.37h-6.03v6.03h6.03v-6.03Z" fill="#ffbaf9" stroke="#ffbaf9"/>
    <path d="M110.61,99.37h-6.03v6.03h6.03v-6.03Z" fill="#ffbaf9" stroke="#ffbaf9"/>
    <path d="M116.64,99.37h-6.03v6.03h6.03v-6.03Z" fill="#ffbaf9" stroke="#ffbaf9"/>
    <path d="M122.67,99.37h-6.03v6.03h6.03v-6.03Z" fill="#ffbaf9" stroke="#ffbaf9"/>
    <path d="M128.71,99.37h-6.03v6.03h6.03v-6.03Z" fill="#ffbaf9" stroke="#ffbaf9"/>
    <path d="M134.74,99.37h-6.03v6.03h6.03v-6.03Z" fill="#f91c86" stroke="#f91c86"/>
    <path d="M140.77,99.37h-6.03v6.03h6.03v-6.03Z" fill="#f91c86" stroke="#f91c86"/>
    <path d="M146.81,99.37h-6.03v6.03h6.03v-6.03Z" fill="#00683e" stroke="#00683e"/>
    <path d="M152.84,99.37h-6.03v6.03h6.03v-6.03Z" fill="#00683e" stroke="#00683e"/>
    <path d="M158.88,99.37h-6.03v6.03h6.03v-6.03Z" fill="#00683e" stroke="#00683e"/>
    <path d="M164.91,99.37h-6.03v6.03h6.03v-6.03Z" fill="#00ff91" stroke="#00ff91"/>
    <path d="M170.94,99.37h-6.03v6.03h6.03v-6.03Z" fill="#00683e" stroke="#00683e"/>
    <path d="M176.98,99.37h-6.03v6.03h6.03v-6.03Z" fill="#00683e" stroke="#00683e"/>
    <path d="M183.01,99.37h-6.03v6.03h6.03v-6.03Z" fill="#00683e" stroke="#00683e"/>
    <path d="M189.04,99.37h-6.03v6.03h6.03v-6.03Z" fill="#00683e" stroke="#00683e"/>
    <path d="M74.4,105.4h-6.03v6.03h6.03v-6.03Z" fill="#00683e" stroke="#00683e"/>
    <path d="M80.44,105.4h-6.03v6.03h6.03v-6.03Z" fill="#00683e" stroke="#00683e"/>
    <path d="M86.47,105.4h-6.03v6.03h6.03v-6.03Z" fill="#00683e" stroke="#00683e"/>
    <path d="M92.51,105.4h-6.03v6.03h6.03v-6.03Z" fill="#00ff91" stroke="#00ff91"/>
    <path d="M98.54,105.4h-6.03v6.03h6.03v-6.03Z" fill="#00683e" stroke="#00683e"/>
    <path d="M104.57,105.4h-6.03v6.03h6.03v-6.03Z" fill="#ffbaf9" stroke="#ffbaf9"/>
    <path d="M110.61,105.4h-6.03v6.03h6.03v-6.03Z" fill="#ffbaf9" stroke="#ffbaf9"/>
    <path d="M116.64,105.4h-6.03v6.03h6.03v-6.03Z" fill="#ffbaf9" stroke="#ffbaf9"/>
    <path d="M122.67,105.4h-6.03v6.03h6.03v-6.03Z" fill="#ffbaf9" stroke="#ffbaf9"/>
    <path d="M128.71,105.4h-6.03v6.03h6.03v-6.03Z" fill="#ffbaf9" stroke="#ffbaf9"/>
    <path d="M134.74,105.4h-6.03v6.03h6.03v-6.03Z" fill="#ffbaf9" stroke="#ffbaf9"/>
    <path d="M140.77,105.4h-6.03v6.03h6.03v-6.03Z" fill="#ffbaf9" stroke="#ffbaf9"/>
    <path d="M146.81,105.4h-6.03v6.03h6.03v-6.03Z" fill="#f91c86" stroke="#f91c86"/>
    <path d="M152.84,105.4h-6.03v6.03h6.03v-6.03Z" fill="#00683e" stroke="#00683e"/>
    <path d="M158.88,105.4h-6.03v6.03h6.03v-6.03Z" fill="#00683e" stroke="#00683e"/>
    <path d="M164.91,105.4h-6.03v6.03h6.03v-6.03Z" fill="#00683e" stroke="#00683e"/>
    <path d="M170.94,105.4h-6.03v6.03h6.03v-6.03Z" fill="#00ff91" stroke="#00ff91"/>
    <path d="M176.98,105.4h-6.03v6.03h6.03v-6.03Z" fill="#00ff91" stroke="#00ff91"/>
    <path d="M183.01,105.4h-6.03v6.03h6.03v-6.03Z" fill="#00683e" stroke="#00683e"/>
    <path d="M189.04,105.4h-6.03v6.03h6.03v-6.03Z" fill="#00683e" stroke="#00683e"/>
    <path d="M80.44,111.44h-6.03v6.03h6.03v-6.03Z" fill="#00683e" stroke="#00683e"/>
    <path d="M86.47,111.44h-6.03v6.03h6.03v-6.03Z" fill="#00ff91" stroke="#00ff91"/>
    <path d="M92.51,111.44h-6.03v6.03h6.03v-6.03Z" fill="#00683e" stroke="#00683e"/>
    <path d="M98.54,111.44h-6.03v6.03h6.03v-6.03Z" fill="#ffbaf9" stroke="#ffbaf9"/>
    <path d="M104.57,111.44h-6.03v6.03h6.03v-6.03Z" fill="#ffbaf9" stroke="#ffbaf9"/>
    <path d="M110.61,111.44h-6.03v6.03h6.03v-6.03Z" fill="#ffbaf9" stroke="#ffbaf9"/>
    <path d="M116.64,111.44h-6.03v6.03h6.03v-6.03Z" fill="#ffbaf9" stroke="#ffbaf9"/>
    <path d="M122.67,111.44h-6.03v6.03h6.03v-6.03Z" fill="#ffbaf9" stroke="#ffbaf9"/>
    <path d="M128.71,111.44h-6.03v6.03h6.03v-6.03Z" fill="#ffbaf9" stroke="#ffbaf9"/>
    <path d="M134.74,111.44h-6.03v6.03h6.03v-6.03Z" fill="#ffbaf9" stroke="#ffbaf9"/>
    <path d="M140.77,111.44h-6.03v6.03h6.03v-6.03Z" fill="#ffbaf9" stroke="#ffbaf9"/>
    <path d="M146.81,111.44h-6.03v6.03h6.03v-6.03Z" fill="#ffbaf9" stroke="#ffbaf9"/>
    <path d="M152.84,111.44h-6.03v6.03h6.03v-6.03Z" fill="#f91c86" stroke="#f91c86"/>
    <path d="M158.88,111.44h-6.03v6.03h6.03v-6.03Z" fill="#00683e" stroke="#00683e"/>
    <path d="M164.91,111.44h-6.03v6.03h6.03v-6.03Z" fill="#00683e" stroke="#00683e"/>
    <path d="M170.94,111.44h-6.03v6.03h6.03v-6.03Z" fill="#00683e" stroke="#00683e"/>
    <path d="M176.98,111.44h-6.03v6.03h6.03v-6.03Z" fill="#00683e" stroke="#00683e"/>
    <path d="M183.01,111.44h-6.03v6.03h6.03v-6.03Z" fill="#00ff91" stroke="#00ff91"/>
    <path d="M189.04,111.44h-6.03v6.03h6.03v-6.03Z" fill="#00683e" stroke="#00683e"/>
    <path d="M195.08,111.44h-6.03v6.03h6.03v-6.03Z" fill="#00683e" stroke="#00683e"/>
    <path d="M80.44,81.27h-6.03v6.03h6.03v-6.03Z" fill="#00683e" stroke="#00683e"/>
    <path d="M86.47,81.27h-6.03v6.03h6.03v-6.03Z" fill="#00683e" stroke="#00683e"/>
    <path d="M92.51,81.27h-6.03v6.03h6.03v-6.03Z" fill="#00ff91" stroke="#00ff91"/>
    <path d="M98.54,81.27h-6.03v6.03h6.03v-6.03Z" fill="#00683e" stroke="#00683e"/>
    <path d="M104.57,81.27h-6.03v6.03h6.03v-6.03Z" fill="#00683e" stroke="#00683e"/>
    <path d="M110.61,81.27h-6.03v6.03h6.03v-6.03Z" fill="#00683e" stroke="#00683e"/>
    <path d="M116.64,81.27h-6.03v6.03h6.03v-6.03Z" fill="#00683e" stroke="#00683e"/>
    <path d="M122.67,81.27h-6.03v6.03h6.03v-6.03Z" fill="#00683e" stroke="#00683e"/>
    <path d="M128.71,81.27h-6.03v6.03h6.03v-6.03Z" fill="#00683e" stroke="#00683e"/>
    <path d="M134.74,81.27h-6.03v6.03h6.03v-6.03Z" fill="#00683e" stroke="#00683e"/>
    <path d="M140.77,81.27h-6.03v6.03h6.03v-6.03Z" fill="#00683e" stroke="#00683e"/>
    <path d="M146.81,81.27h-6.03v6.03h6.03v-6.03Z" fill="#00683e" stroke="#00683e"/>
    <path d="M152.84,81.27h-6.03v6.03h6.03v-6.03Z" fill="#00683e" stroke="#00683e"/>
    <path d="M158.88,81.27h-6.03v6.03h6.03v-6.03Z" fill="#00ff91" stroke="#00ff91"/>
    <path d="M164.91,81.27h-6.03v6.03h6.03v-6.03Z" fill="#00ff91" stroke="#00ff91"/>
    <path d="M170.94,81.27h-6.03v6.03h6.03v-6.03Z" fill="#00683e" stroke="#00683e"/>
    <path d="M176.98,81.27h-6.03v6.03h6.03v-6.03Z" fill="#00683e" stroke="#00683e"/>
    <path d="M183.01,81.27h-6.03v6.03h6.03v-6.03Z" fill="#00683e" stroke="#00683e"/>
    <path d="M86.47,75.24h-6.03v6.03h6.03v-6.03Z" fill="#00683e" stroke="#00683e"/>
    <path d="M92.51,75.24h-6.03v6.03h6.03v-6.03Z" fill="#00683e" stroke="#00683e"/>
    <path d="M98.54,75.24h-6.03v6.03h6.03v-6.03Z" fill="#00ff91" stroke="#00ff91"/>
    <path d="M104.57,75.24h-6.03v6.03h6.03v-6.03Z" fill="#00ff91" stroke="#00ff91"/>
    <path d="M110.61,75.24h-6.03v6.03h6.03v-6.03Z" fill="#00ff91" stroke="#00ff91"/>
    <path d="M116.64,75.24h-6.03v6.03h6.03v-6.03Z" fill="#00683e" stroke="#00683e"/>
    <path d="M122.67,75.24h-6.03v6.03h6.03v-6.03Z" fill="#00683e" stroke="#00683e"/>
    <path d="M128.71,75.24h-6.03v6.03h6.03v-6.03Z" fill="#00683e" stroke="#00683e"/>
    <path d="M134.74,75.24h-6.03v6.03h6.03v-6.03Z" fill="#00683e" stroke="#00683e"/>
    <path d="M140.77,75.24h-6.03v6.03h6.03v-6.03Z" fill="#00ff91" stroke="#00ff91"/>
    <path d="M146.81,75.24h-6.03v6.03h6.03v-6.03Z" fill="#00683e" stroke="#00683e"/>
    <path d="M152.84,75.24h-6.03v6.03h6.03v-6.03Z" fill="#00683e" stroke="#00683e"/>
    <path d="M158.88,75.24h-6.03v6.03h6.03v-6.03Z" fill="#00ff91" stroke="#00ff91"/>
    <path d="M164.91,75.24h-6.03v6.03h6.03v-6.03Z" fill="#00683e" stroke="#00683e"/>
    <path d="M170.94,75.24h-6.03v6.03h6.03v-6.03Z" fill="#00683e" stroke="#00683e"/>
    <path d="M176.98,75.24h-6.03v6.03h6.03v-6.03Z" fill="#00683e" stroke="#00683e"/>
    <path d="M80.44,87.3h-6.03v6.03h6.03v-6.03Z" fill="#00683e" stroke="#00683e"/>
    <path d="M86.47,87.3h-6.03v6.03h6.03v-6.03Z" fill="#00683e" stroke="#00683e"/>
    <path d="M92.51,87.3h-6.03v6.03h6.03v-6.03Z" fill="#00683e" stroke="#00683e"/>
    <path d="M98.54,87.3h-6.03v6.03h6.03v-6.03Z" fill="#00ff91" stroke="#00ff91"/>
    <path d="M104.57,87.3h-6.03v6.03h6.03v-6.03Z" fill="#00683e" stroke="#00683e"/>
    <path d="M110.61,87.3h-6.03v6.03h6.03v-6.03Z" fill="#00683e" stroke="#00683e"/>
    <path d="M116.64,87.3h-6.03v6.03h6.03v-6.03Z" fill="#00683e" stroke="#00683e"/>
    <path d="M122.67,87.3h-6.03v6.03h6.03v-6.03Z" fill="#f91c86" stroke="#f91c86"/>
    <path d="M128.71,87.3h-6.03v6.03h6.03v-6.03Z" fill="#00683e" stroke="#00683e"/>
    <path d="M134.74,87.3h-6.03v6.03h6.03v-6.03Z" fill="#00683e" stroke="#00683e"/>
    <path d="M140.77,87.3h-6.03v6.03h6.03v-6.03Z" fill="#00683e" stroke="#00683e"/>
    <path d="M146.81,87.3h-6.03v6.03h6.03v-6.03Z" fill="#00ff91" stroke="#00ff91"/>
    <path d="M152.84,87.3h-6.03v6.03h6.03v-6.03Z" fill="#00683e" stroke="#00683e"/>
    <path d="M158.88,87.3h-6.03v6.03h6.03v-6.03Z" fill="#00683e" stroke="#00683e"/>
    <path d="M164.91,87.3h-6.03v6.03h6.03v-6.03Z" fill="#00683e" stroke="#00683e"/>
    <path d="M170.94,87.3h-6.03v6.03h6.03v-6.03Z" fill="#00683e" stroke="#00683e"/>
    <path d="M176.98,87.3h-6.03v6.03h6.03v-6.03Z" fill="#00683e" stroke="#00683e"/>
    <path d="M183.01,87.3h-6.03v6.03h6.03v-6.03Z" fill="#00683e" stroke="#00683e"/>
    <path d="M189.04,87.3h-6.03v6.03h6.03v-6.03Z" fill="#00683e" stroke="#00683e"/>
    <path d="M74.4,93.34h-6.03v6.03h6.03v-6.03Z" fill="#00683e" stroke="#00683e"/>
    <path d="M80.44,93.34h-6.03v6.03h6.03v-6.03Z" fill="#00683e" stroke="#00683e"/>
    <path d="M86.47,93.34h-6.03v6.03h6.03v-6.03Z" fill="#00683e" stroke="#00683e"/>
    <path d="M92.51,93.34h-6.03v6.03h6.03v-6.03Z" fill="#00ff91" stroke="#00ff91"/>
    <path d="M98.54,93.34h-6.03v6.03h6.03v-6.03Z" fill="#00683e" stroke="#00683e"/>
    <path d="M104.57,93.34h-6.03v6.03h6.03v-6.03Z" fill="#00683e" stroke="#00683e"/>
    <path d="M110.61,93.34h-6.03v6.03h6.03v-6.03Z" fill="#ffbaf9" stroke="#ffbaf9"/>
    <path d="M116.64,93.34h-6.03v6.03h6.03v-6.03Z" fill="#ffbaf9" stroke="#ffbaf9"/>
    <path d="M122.67,93.34h-6.03v6.03h6.03v-6.03Z" fill="#ffbaf9" stroke="#ffbaf9"/>
    <path d="M128.71,93.34h-6.03v6.03h6.03v-6.03Z" fill="#f91c86" stroke="#f91c86"/>
    <path d="M134.74,93.34h-6.03v6.03h6.03v-6.03Z" fill="#00683e" stroke="#00683e"/>
    <path d="M140.77,93.34h-6.03v6.03h6.03v-6.03Z" fill="#00683e" stroke="#00683e"/>
    <path d="M146.81,93.34h-6.03v6.03h6.03v-6.03Z" fill="#00683e" stroke="#00683e"/>
    <path d="M152.84,93.34h-6.03v6.03h6.03v-6.03Z" fill="#00ff91" stroke="#00ff91"/>
    <path d="M158.88,93.34h-6.03v6.03h6.03v-6.03Z" fill="#00683e" stroke="#00683e"/>
    <path d="M164.91,93.34h-6.03v6.03h6.03v-6.03Z" fill="#00ff91" stroke="#00ff91"/>
    <path d="M170.94,93.34h-6.03v6.03h6.03v-6.03Z" fill="#00683e" stroke="#00683e"/>
    <path d="M176.98,93.34h-6.03v6.03h6.03v-6.03Z" fill="#00683e" stroke="#00683e"/>
    <path d="M183.01,93.34h-6.03v6.03h6.03v-6.03Z" fill="#00683e" stroke="#00683e"/>
    <path d="M189.04,93.34h-6.03v6.03h6.03v-6.03Z" fill="#00683e" stroke="#00683e"/>
    <path d="M80.44,117.47h-6.03v6.03h6.03v-6.03Z" fill="#00683e" stroke="#00683e"/>
    <path d="M86.47,117.47h-6.03v6.03h6.03v-6.03Z" fill="#00ff91" stroke="#00ff91"/>
    <path d="M92.51,117.47h-6.03v6.03h6.03v-6.03Z" fill="#00683e" stroke="#00683e"/>
    <path d="M98.54,117.47h-6.03v6.03h6.03v-6.03Z" fill="#ffbaf9" stroke="#ffbaf9"/>
    <path d="M104.57,117.47h-6.03v6.03h6.03v-6.03Z" fill="black" stroke="black" />
    <path d="M110.61,117.47h-6.03v6.03h6.03v-6.03Z" fill="black" stroke="black" />
    <path d="M116.64,117.47h-6.03v6.03h6.03v-6.03Z" fill="black" stroke="black" />
    <path d="M122.67,117.47h-6.03v6.03h6.03v-6.03Z" fill="black" stroke="black" />
    <path d="M128.71,117.47h-6.03v6.03h6.03v-6.03Z" fill="#ffbaf9" stroke="#ffbaf9"/>
    <path d="M134.74,117.47h-6.03v6.03h6.03v-6.03Z" fill="#ffbaf9" stroke="#ffbaf9"/>
    <path d="M140.77,117.47h-6.03v6.03h6.03v-6.03Z" fill="#ffbaf9" stroke="#ffbaf9"/>
    <path d="M146.81,117.47h-6.03v6.03h6.03v-6.03Z" fill="black" stroke="black" />
    <path d="M152.84,117.47h-6.03v6.03h6.03v-6.03Z" fill="black" stroke="black" />
    <path d="M158.88,117.47h-6.03v6.03h6.03v-6.03Z" fill="black" stroke="black" />
    <path d="M164.91,117.47h-6.03v6.03h6.03v-6.03Z" fill="black" stroke="black" />
    <path d="M170.94,117.47h-6.03v6.03h6.03v-6.03Z" fill="#00683e" stroke="#00683e"/>
    <path d="M176.98,117.47h-6.03v6.03h6.03v-6.03Z" fill="#00683e" stroke="#00683e"/>
    <path d="M183.01,117.47h-6.03v6.03h6.03v-6.03Z" fill="#00683e" stroke="#00683e"/>
    <path d="M189.04,117.47h-6.03v6.03h6.03v-6.03Z" fill="#00683e" stroke="#00683e"/>
    <path d="M195.08,117.47h-6.03v6.03h6.03v-6.03Z" fill="#00683e" stroke="#00683e"/>
    <path d="M80.44,123.51h-6.03v6.03h6.03v-6.03Z" fill="#00683e" stroke="#00683e"/>
    <path d="M86.47,123.51h-6.03v6.03h6.03v-6.03Z" fill="#00683e" stroke="#00683e"/>
    <path d="M92.51,123.51h-6.03v6.03h6.03v-6.03Z" fill="#00683e" stroke="#00683e"/>
    <path d="M98.54,123.51h-6.03v6.03h6.03v-6.03Z" fill="#f91c86" stroke="#f91c86"/>
    <path d="M104.57,123.51h-6.03v6.03h6.03v-6.03Z" fill="#f91c86" stroke="#f91c86"/>
    <path d="M110.61,123.51h-6.03v6.03h6.03v-6.03Z" fill="#f91c86" stroke="#f91c86"/>
    <path d="M116.64,123.51h-6.03v6.03h6.03v-6.03Z" fill="#f91c86" stroke="#f91c86"/>
    <path d="M122.67,123.51h-6.03v6.03h6.03v-6.03Z" fill="#f91c86" stroke="#f91c86"/>
    <path d="M128.71,123.51h-6.03v6.03h6.03v-6.03Z" fill="#ffbaf9" stroke="#ffbaf9"/>
    <path d="M134.74,123.51h-6.03v6.03h6.03v-6.03Z" fill="#ffbaf9" stroke="#ffbaf9"/>
    <path d="M140.77,123.51h-6.03v6.03h6.03v-6.03Z" fill="#ffbaf9" stroke="#ffbaf9"/>
    <path d="M146.81,123.51h-6.03v6.03h6.03v-6.03Z" fill="#f91c86" stroke="#f91c86"/>
    <path d="M152.84,123.51h-6.03v6.03h6.03v-6.03Z" fill="#f91c86" stroke="#f91c86"/>
    <path d="M158.88,123.51h-6.03v6.03h6.03v-6.03Z" fill="#f91c86" stroke="#f91c86"/>
    <path d="M164.91,123.51h-6.03v6.03h6.03v-6.03Z" fill="#f91c86" stroke="#f91c86"/>
    <path d="M170.94,123.51h-6.03v6.03h6.03v-6.03Z" fill="#f91c86" stroke="#f91c86"/>
    <path d="M176.98,123.51h-6.03v6.03h6.03v-6.03Z" fill="#00683e" stroke="#00683e"/>
    <path d="M183.01,123.51h-6.03v6.03h6.03v-6.03Z" fill="#00683e" stroke="#00683e"/>
    <path d="M189.04,123.51h-6.03v6.03h6.03v-6.03Z" fill="#00683e" stroke="#00683e"/>
    <path d="M80.44,129.54h-6.03v6.03h6.03v-6.03Z" fill="#00683e" stroke="#00683e"/>
    <path d="M86.47,129.54h-6.03v6.03h6.03v-6.03Z" fill="#f91c86" stroke="#f91c86"/>
    <path d="M92.51,129.54h-6.03v6.03h6.03v-6.03Z" fill="black" stroke="black"/>
    <path d="M98.54,129.54h-6.03v6.03h6.03v-6.03Z" fill="black" stroke="black"/>
    <path d="M104.57,129.54h-6.03v6.03h6.03v-6.03Z" fill="black" stroke="black"/>
    <path d="M110.61,129.54h-6.03v6.03h6.03v-6.03Z" fill="black" stroke="black"/>
    <path d="M116.64,129.54h-6.03v6.03h6.03v-6.03Z" fill="black" stroke="black"/>
    <path d="M122.67,129.54h-6.03v6.03h6.03v-6.03Z" fill="black" stroke="black"/>
    <path d="M128.71,129.54h-6.03v6.03h6.03v-6.03Z" fill="black" stroke="black"/>
    <path d="M134.74,129.54h-6.03v6.03h6.03v-6.03Z" fill="black" stroke="black"/>
    <path d="M140.77,129.54h-6.03v6.03h6.03v-6.03Z" fill="black" stroke="black"/>
    <path d="M146.81,129.54h-6.03v6.03h6.03v-6.03Z" fill="black" stroke="black"/>
    <path d="M152.84,129.54h-6.03v6.03h6.03v-6.03Z" fill="black" stroke="black"/>
    <path d="M158.88,129.54h-6.03v6.03h6.03v-6.03Z" fill="black" stroke="black"/>
    <path d="M164.91,129.54h-6.03v6.03h6.03v-6.03Z" fill="black" stroke="black"/>
    <path d="M170.94,129.54h-6.03v6.03h6.03v-6.03Z" fill="black" stroke="black"/>
    <path d="M176.98,129.54h-6.03v6.03h6.03v-6.03Z" fill="black" stroke="black"/>
    <path d="M183.01,129.54h-6.03v6.03h6.03v-6.03Z" fill="#f91c86" stroke="#f91c86"/>
    <path d="M189.04,129.54h-6.03v6.03h6.03v-6.03Z" fill="#00683e" stroke="#00683e"/>
    <path d="M80.44,135.57h-6.03v6.03h6.03v-6.03Z" fill="#00683e" stroke="#00683e"/>
    <path d="M86.47,135.57h-6.03v6.03h6.03v-6.03Z" fill="#ffbaf9" stroke="#ffbaf9"/>
    <path d="M92.51,135.57h-6.03v6.03h6.03v-6.03Z" fill="black" stroke="black"/>
    <path d="M98.54,135.57h-6.03v6.03h6.03v-6.03Z" fill="black" stroke="black"/>
    <path d="M104.57,135.57h-6.03v6.03h6.03v-6.03Z" fill="#f5f5f5" stroke="#f5f5f5"/>
    <path d="M110.61,135.57h-6.03v6.03h6.03v-6.03Z" fill="black" stroke="black"/>
    <path d="M122.67,135.57h-6.03v6.03h6.03v-6.03Z" fill="#f5f5f5" stroke="#f5f5f5"/>
    <path d="M128.71,135.57h-6.03v6.03h6.03v-6.03Z" fill="black" stroke="black"/>
    <path d="M134.74,135.57h-6.03v6.03h6.03v-6.03Z" fill="#f91c86" stroke="#f91c86"/>
    <path d="M140.77,135.57h-6.03v6.03h6.03v-6.03Z" fill="black" stroke="black"/>
    <path d="M146.81,135.57h-6.03v6.03h6.03v-6.03Z" fill="#f5f5f5" stroke="#f5f5f5"/>
    <path d="M152.84,135.57h-6.03v6.03h6.03v-6.03Z" fill="black" stroke="black"/>
    <path d="M164.91,135.57h-6.03v6.03h6.03v-6.03Z" fill="#f5f5f5" stroke="#f5f5f5"/>
    <path d="M170.94,135.57h-6.03v6.03h6.03v-6.03Z" fill="black" stroke="black"/>
    <path d="M176.98,135.57h-6.03v6.03h6.03v-6.03Z" fill="black" stroke="black"/>
    <path d="M183.01,135.57h-6.03v6.03h6.03v-6.03Z" fill="#ffbaf9" stroke="#ffbaf9"/>
    <path d="M189.04,135.57h-6.03v6.03h6.03v-6.03Z" fill="#00683e" stroke="#00683e"/>
    <path d="M80.44,141.61h-6.03v6.03h6.03v-6.03Z" fill="#00683e" stroke="#00683e"/>
    <path d="M86.47,141.61h-6.03v6.03h6.03v-6.03Z" fill="#ffbaf9" stroke="#ffbaf9"/>
    <path d="M92.51,141.61h-6.03v6.03h6.03v-6.03Z" fill="#f91c86" stroke="#f91c86"/>
    <path d="M98.54,141.61h-6.03v6.03h6.03v-6.03Z" fill="black" stroke="black" />
    <path d="M104.57,141.61h-6.03v6.03h6.03v-6.03Z" fill="#f5f5f5" stroke="#f5f5f5"/>
    <path d="M110.61,141.61h-6.03v6.03h6.03v-6.03Z" fill="black" stroke="black" />
    <path d="M116.64,141.61h-6.03v6.03h6.03v-6.03Z" fill="black" stroke="black" />
    <path d="M122.67,141.61h-6.03v6.03h6.03v-6.03Z" fill="#f5f5f5" stroke="#f5f5f5"/>
    <path d="M128.71,141.61h-6.03v6.03h6.03v-6.03Z" fill="black" stroke="black" />
    <path d="M134.74,141.61h-6.03v6.03h6.03v-6.03Z" fill="#f91c86" stroke="#f91c86"/>
    <path d="M140.77,141.61h-6.03v6.03h6.03v-6.03Z" fill="black" stroke="black" />
    <path d="M146.81,141.61h-6.03v6.03h6.03v-6.03Z" fill="#f5f5f5" stroke="#f5f5f5"/>
    <path d="M152.84,141.61h-6.03v6.03h6.03v-6.03Z" fill="black" stroke="black" />
    <path d="M158.88,141.61h-6.03v6.03h6.03v-6.03Z" fill="black" stroke="black" />
    <path d="M164.91,141.61h-6.03v6.03h6.03v-6.03Z" fill="#f5f5f5" stroke="#f5f5f5"/>
    <path d="M170.94,141.61h-6.03v6.03h6.03v-6.03Z" fill="black" stroke="black" />
    <path d="M176.98,141.61h-6.03v6.03h6.03v-6.03Z" fill="#f91c86" stroke="#f91c86"/>
    <path d="M183.01,141.61h-6.03v6.03h6.03v-6.03Z" fill="#ffbaf9" stroke="#ffbaf9"/>
    <path d="M189.04,141.61h-6.03v6.03h6.03v-6.03Z" fill="#00683e" stroke="#00683e"/>
    <path d="M74.4,147.64h-6.03v6.03h6.03v-6.03Z" fill="#00683e" stroke="#00683e"/>
    <path d="M80.44,147.64h-6.03v6.03h6.03v-6.03Z" fill="#00683e" stroke="#00683e"/>
    <path d="M86.47,147.64h-6.03v6.03h6.03v-6.03Z" fill="#ffbaf9" stroke="#ffbaf9"/>
    <path d="M92.51,147.64h-6.03v6.03h6.03v-6.03Z" fill="#f91c86" stroke="#f91c86"/>
    <path d="M98.54,147.64h-6.03v6.03h6.03v-6.03Z" fill="black" stroke="black" />
    <path d="M104.57,147.64h-6.03v6.03h6.03v-6.03Z" fill="black" stroke="black" />
    <path d="M110.61,147.64h-6.03v6.03h6.03v-6.03Z" fill="black" stroke="black" />
    <path d="M116.64,147.64h-6.03v6.03h6.03v-6.03Z" fill="black" stroke="black" />
    <path d="M122.67,147.64h-6.03v6.03h6.03v-6.03Z" fill="black" stroke="black" />
    <path d="M128.71,147.64h-6.03v6.03h6.03v-6.03Z" fill="black" stroke="black" />
    <path d="M134.74,147.64h-6.03v6.03h6.03v-6.03Z" fill="#f91c86" stroke="#f91c86"/>
    <path d="M140.77,147.64h-6.03v6.03h6.03v-6.03Z" fill="black" stroke="black" />
    <path d="M146.81,147.64h-6.03v6.03h6.03v-6.03Z" fill="black" stroke="black" />
    <path d="M152.84,147.64h-6.03v6.03h6.03v-6.03Z" fill="black" stroke="black" />
    <path d="M158.88,147.64h-6.03v6.03h6.03v-6.03Z" fill="black" stroke="black" />
    <path d="M164.91,147.64h-6.03v6.03h6.03v-6.03Z" fill="black" stroke="black" />
    <path d="M170.94,147.64h-6.03v6.03h6.03v-6.03Z" fill="black" stroke="black" />
    <path d="M176.98,147.64h-6.03v6.03h6.03v-6.03Z" fill="#f91c86" stroke="#f91c86"/>
    <path d="M183.01,147.64h-6.03v6.03h6.03v-6.03Z" fill="#ffbaf9" stroke="#ffbaf9"/>
    <path d="M189.04,147.64h-6.03v6.03h6.03v-6.03Z" fill="#00683e" stroke="#00683e"/>
    <path d="M195.08,147.64h-6.03v6.03h6.03v-6.03Z" fill="#00683e" stroke="#00683e"/>
    <path d="M68.37,153.67h-6.03v6.03h6.03v-6.03Z" fill="#00683e" stroke="#00683e"/>
    <path d="M74.4,153.67h-6.03v6.03h6.03v-6.03Z" fill="#00683e" stroke="#00683e"/>
    <path d="M80.44,153.67h-6.03v6.03h6.03v-6.03Z" fill="#00683e" stroke="#00683e"/>
    <path d="M86.47,153.67h-6.03v6.03h6.03v-6.03Z" fill="#ffbaf9" stroke="#ffbaf9"/>
    <path d="M92.51,153.67h-6.03v6.03h6.03v-6.03Z" fill="#f91c86" stroke="#f91c86"/>
    <path d="M98.54,153.67h-6.03v6.03h6.03v-6.03Z" fill="#ffbaf9" stroke="#ffbaf9"/>
    <path d="M104.57,153.67h-6.03v6.03h6.03v-6.03Z" fill="#ffbaf9" stroke="#ffbaf9"/>
    <path d="M110.61,153.67h-6.03v6.03h6.03v-6.03Z" fill="#ffbaf9" stroke="#ffbaf9"/>
    <path d="M116.64,153.67h-6.03v6.03h6.03v-6.03Z" fill="#ffbaf9" stroke="#ffbaf9"/>
    <path d="M122.67,153.67h-6.03v6.03h6.03v-6.03Z" fill="#ffbaf9" stroke="#ffbaf9"/>
    <path d="M128.71,153.67h-6.03v6.03h6.03v-6.03Z" fill="#ffbaf9" stroke="#ffbaf9"/>
    <path d="M134.74,153.67h-6.03v6.03h6.03v-6.03Z" fill="#f91c86" stroke="#f91c86"/>
    <path d="M140.77,153.67h-6.03v6.03h6.03v-6.03Z" fill="#ffbaf9" stroke="#ffbaf9"/>
    <path d="M146.81,153.67h-6.03v6.03h6.03v-6.03Z" fill="#ffbaf9" stroke="#ffbaf9"/>
    <path d="M152.84,153.67h-6.03v6.03h6.03v-6.03Z" fill="#ffbaf9" stroke="#ffbaf9"/>
    <path d="M158.88,153.67h-6.03v6.03h6.03v-6.03Z" fill="#ffbaf9" stroke="#ffbaf9"/>
    <path d="M164.91,153.67h-6.03v6.03h6.03v-6.03Z" fill="#ffbaf9" stroke="#ffbaf9"/>
    <path d="M170.94,153.67h-6.03v6.03h6.03v-6.03Z" fill="#ffbaf9" stroke="#ffbaf9"/>
    <path d="M176.98,153.67h-6.03v6.03h6.03v-6.03Z" fill="#f91c86" stroke="#f91c86"/>
    <path d="M183.01,153.67h-6.03v6.03h6.03v-6.03Z" fill="#ffbaf9" stroke="#ffbaf9"/>
    <path d="M189.04,153.67h-6.03v6.03h6.03v-6.03Z" fill="#00683e" stroke="#00683e"/>
    <path d="M195.08,153.67h-6.03v6.03h6.03v-6.03Z" fill="#00683e" stroke="#00683e"/>
    <path d="M201.11,153.67h-6.03v6.03h6.03v-6.03Z" fill="#00683e" stroke="#00683e"/>
    <path d="M80.44,159.71h-6.03v6.03h6.03v-6.03Z" fill="#00683e" stroke="#00683e"/>
    <path d="M86.47,159.71h-6.03v6.03h6.03v-6.03Z" fill="#00683e" stroke="#00683e"/>
    <path d="M92.51,159.71h-6.03v6.03h6.03v-6.03Z" fill="#f91c86" stroke="#f91c86"/>
    <path d="M98.54,159.71h-6.03v6.03h6.03v-6.03Z" fill="#ffbaf9" stroke="#ffbaf9"/>
    <path d="M104.57,159.71h-6.03v6.03h6.03v-6.03Z" fill="#ffbaf9" stroke="#ffbaf9"/>
    <path d="M110.61,159.71h-6.03v6.03h6.03v-6.03Z" fill="#ffbaf9" stroke="#ffbaf9"/>
    <path d="M116.64,159.71h-6.03v6.03h6.03v-6.03Z" fill="#ffbaf9" stroke="#ffbaf9"/>
    <path d="M122.67,159.71h-6.03v6.03h6.03v-6.03Z" fill="#ffbaf9" stroke="#ffbaf9"/>
    <path d="M128.71,159.71h-6.03v6.03h6.03v-6.03Z" fill="#f91c86" stroke="#f91c86"/>
    <path d="M134.74,159.71h-6.03v6.03h6.03v-6.03Z" fill="#f91c86" stroke="#f91c86"/>
    <path d="M140.77,159.71h-6.03v6.03h6.03v-6.03Z" fill="#f91c86" stroke="#f91c86"/>
    <path d="M146.81,159.71h-6.03v6.03h6.03v-6.03Z" fill="#ffbaf9" stroke="#ffbaf9"/>
    <path d="M152.84,159.71h-6.03v6.03h6.03v-6.03Z" fill="#ffbaf9" stroke="#ffbaf9"/>
    <path d="M158.88,159.71h-6.03v6.03h6.03v-6.03Z" fill="#ffbaf9" stroke="#ffbaf9"/>
    <path d="M164.91,159.71h-6.03v6.03h6.03v-6.03Z" fill="#ffbaf9" stroke="#ffbaf9"/>
    <path d="M170.94,159.71h-6.03v6.03h6.03v-6.03Z" fill="#ffbaf9" stroke="#ffbaf9"/>
    <path d="M176.98,159.71h-6.03v6.03h6.03v-6.03Z" fill="#f91c86" stroke="#f91c86"/>
    <path d="M183.01,159.71h-6.03v6.03h6.03v-6.03Z" fill="#00683e" stroke="#00683e"/>
    <path d="M189.04,159.71h-6.03v6.03h6.03v-6.03Z" fill="#00683e" stroke="#00683e"/>
    <path d="M86.47,165.74h-6.03v6.03h6.03v-6.03Z" fill="#00683e" stroke="#00683e"/>
    <path d="M92.51,165.74h-6.03v6.03h6.03v-6.03Z" fill="#00ff91" stroke="#00ff91"/>
    <path d="M98.54,165.74h-6.03v6.03h6.03v-6.03Z" fill="#ffbaf9" stroke="#ffbaf9"/>
    <path d="M104.57,165.74h-6.03v6.03h6.03v-6.03Z" fill="#ffbaf9" stroke="#ffbaf9"/>
    <path d="M110.61,165.74h-6.03v6.03h6.03v-6.03Z" fill="#ffbaf9" stroke="#ffbaf9"/>
    <path d="M116.64,165.74h-6.03v6.03h6.03v-6.03Z" fill="#ffbaf9" stroke="#ffbaf9"/>
    <path d="M122.67,165.74h-6.03v6.03h6.03v-6.03Z" fill="#ffbaf9" stroke="#ffbaf9"/>
    <path d="M128.71,165.74h-6.03v6.03h6.03v-6.03Z" fill="#ffbaf9" stroke="#ffbaf9"/>
    <path d="M134.74,165.74h-6.03v6.03h6.03v-6.03Z" fill="#ffbaf9" stroke="#ffbaf9"/>
    <path d="M140.77,165.74h-6.03v6.03h6.03v-6.03Z" fill="#ffbaf9" stroke="#ffbaf9"/>
    <path d="M146.81,165.74h-6.03v6.03h6.03v-6.03Z" fill="#ffbaf9" stroke="#ffbaf9"/>
    <path d="M152.84,165.74h-6.03v6.03h6.03v-6.03Z" fill="#ffbaf9" stroke="#ffbaf9"/>
    <path d="M158.88,165.74h-6.03v6.03h6.03v-6.03Z" fill="#ffbaf9" stroke="#ffbaf9"/>
    <path d="M164.91,165.74h-6.03v6.03h6.03v-6.03Z" fill="#ffbaf9" stroke="#ffbaf9"/>
    <path d="M170.94,165.74h-6.03v6.03h6.03v-6.03Z" fill="#f91c86" stroke="#f91c86"/>
    <path d="M176.98,165.74h-6.03v6.03h6.03v-6.03Z" fill="#00683e" stroke="#00683e"/>
    <path d="M183.01,165.74h-6.03v6.03h6.03v-6.03Z" fill="#00683e" stroke="#00683e"/>
    <path d="M189.04,165.74h-6.03v6.03h6.03v-6.03Z" fill="#00683e" stroke="#00683e"/>
    <path d="M86.47,171.77h-6.03v6.03h6.03v-6.03Z" fill="#00ff91" stroke="#00ff91"/>
    <path d="M92.51,171.77h-6.03v6.03h6.03v-6.03Z" fill="#00683e" stroke="#00683e"/>
    <path d="M98.54,171.77h-6.03v6.03h6.03v-6.03Z" fill="#ffbaf9" stroke="#ffbaf9"/>
    <path d="M104.57,171.77h-6.03v6.03h6.03v-6.03Z" fill="#ffbaf9" stroke="#ffbaf9"/>
    <path d="M110.61,171.77h-6.03v6.03h6.03v-6.03Z" fill="#ffbaf9" stroke="#ffbaf9"/>
    <path d="M116.64,171.77h-6.03v6.03h6.03v-6.03Z" fill="#ffbaf9" stroke="#ffbaf9"/>
    <path d="M122.67,171.77h-6.03v6.03h6.03v-6.03Z" fill="#ffbaf9" stroke="#ffbaf9"/>
    <path d="M128.71,171.77h-6.03v6.03h6.03v-6.03Z" fill="#f91c86" stroke="#f91c86"/>
    <path d="M134.74,171.77h-6.03v6.03h6.03v-6.03Z" fill="#f91c86" stroke="#f91c86"/>
    <path d="M140.77,171.77h-6.03v6.03h6.03v-6.03Z" fill="#f91c86" stroke="#f91c86"/>
    <path d="M146.81,171.77h-6.03v6.03h6.03v-6.03Z" fill="#ffbaf9" stroke="#ffbaf9"/>
    <path d="M152.84,171.77h-6.03v6.03h6.03v-6.03Z" fill="#ffbaf9" stroke="#ffbaf9"/>
    <path d="M158.88,171.77h-6.03v6.03h6.03v-6.03Z" fill="#ffbaf9" stroke="#ffbaf9"/>
    <path d="M164.91,171.77h-6.03v6.03h6.03v-6.03Z" fill="#ffbaf9" stroke="#ffbaf9"/>
    <path d="M170.94,171.77h-6.03v6.03h6.03v-6.03Z" fill="#f91c86" stroke="#f91c86"/>
    <path d="M176.98,171.77h-6.03v6.03h6.03v-6.03Z" fill="#00683e" stroke="#00683e"/>
    <path d="M183.01,171.77h-6.03v6.03h6.03v-6.03Z" fill="#00683e" stroke="#00683e"/>
    <path d="M92.51,177.81h-6.03v6.03h6.03v-6.03Z" fill="#00683e" stroke="#00683e"/>
    <path d="M98.54,177.81h-6.03v6.03h6.03v-6.03Z" fill="#ffbaf9" stroke="#ffbaf9"/>
    <path d="M104.57,177.81h-6.03v6.03h6.03v-6.03Z" fill="#ffbaf9" stroke="#ffbaf9"/>
    <path d="M110.61,177.81h-6.03v6.03h6.03v-6.03Z" fill="#ffbaf9" stroke="#ffbaf9"/>
    <path d="M116.64,177.81h-6.03v6.03h6.03v-6.03Z" fill="#ffbaf9" stroke="#ffbaf9"/>
    <path d="M122.67,177.81h-6.03v6.03h6.03v-6.03Z" fill="#f91c86" stroke="#f91c86"/>
    <path d="M128.71,177.81h-6.03v6.03h6.03v-6.03Z" fill="#f5f5f5" stroke="#f5f5f5"/>
    <path d="M134.74,177.81h-6.03v6.03h6.03v-6.03Z" fill="#f5f5f5" stroke="#f5f5f5"/>
    <path d="M140.77,177.81h-6.03v6.03h6.03v-6.03Z" fill="#f5f5f5" stroke="#f5f5f5"/>
    <path d="M146.81,177.81h-6.03v6.03h6.03v-6.03Z" fill="#f91c86" stroke="#f91c86"/>
    <path d="M152.84,177.81h-6.03v6.03h6.03v-6.03Z" fill="#ffbaf9" stroke="#ffbaf9"/>
    <path d="M158.88,177.81h-6.03v6.03h6.03v-6.03Z" fill="#ffbaf9" stroke="#ffbaf9"/>
    <path d="M164.91,177.81h-6.03v6.03h6.03v-6.03Z" fill="#ffbaf9" stroke="#ffbaf9"/>
    <path d="M170.94,177.81h-6.03v6.03h6.03v-6.03Z" fill="#f91c86" stroke="#f91c86"/>
    <path d="M176.98,177.81h-6.03v6.03h6.03v-6.03Z" fill="#00683e" stroke="#00683e"/>
    <path d="M86.47,183.84h-6.03v6.03h6.03v-6.03Z" fill="#00683e" stroke="#00683e"/>
    <path d="M92.51,183.84h-6.03v6.03h6.03v-6.03Z" fill="#00683e" stroke="#00683e"/>
    <path d="M98.54,183.84h-6.03v6.03h6.03v-6.03Z" fill="#00683e" stroke="#00683e"/>
    <path d="M104.57,183.84h-6.03v6.03h6.03v-6.03Z" fill="#ffbaf9" stroke="#ffbaf9"/>
    <path d="M110.61,183.84h-6.03v6.03h6.03v-6.03Z" fill="#ffbaf9" stroke="#ffbaf9"/>
    <path d="M116.64,183.84h-6.03v6.03h6.03v-6.03Z" fill="#ffbaf9" stroke="#ffbaf9"/>
    <path d="M122.67,183.84h-6.03v6.03h6.03v-6.03Z" fill="#ffbaf9" stroke="#ffbaf9"/>
    <path d="M128.71,183.84h-6.03v6.03h6.03v-6.03Z" fill="#f91c86" stroke="#f91c86"/>
    <path d="M134.74,183.84h-6.03v6.03h6.03v-6.03Z" fill="#f91c86" stroke="#f91c86"/>
    <path d="M140.77,183.84h-6.03v6.03h6.03v-6.03Z" fill="#f91c86" stroke="#f91c86"/>
    <path d="M146.81,183.84h-6.03v6.03h6.03v-6.03Z" fill="#ffbaf9" stroke="#ffbaf9"/>
    <path d="M152.84,183.84h-6.03v6.03h6.03v-6.03Z" fill="#ffbaf9" stroke="#ffbaf9"/>
    <path d="M158.88,183.84h-6.03v6.03h6.03v-6.03Z" fill="#ffbaf9" stroke="#ffbaf9"/>
    <path d="M164.91,183.84h-6.03v6.03h6.03v-6.03Z" fill="#f91c86" stroke="#f91c86"/>
    <path d="M170.94,183.84h-6.03v6.03h6.03v-6.03Z" fill="#00683e" stroke="#00683e"/>
    <path d="M176.98,183.84h-6.03v6.03h6.03v-6.03Z" fill="#00ff91" stroke="#00ff91"/>
    <path d="M183.01,183.84h-6.03v6.03h6.03v-6.03Z" fill="#00683e" stroke="#00683e"/>
    <path d="M86.47,189.88h-6.03v6.03h6.03v-6.03Z" fill="#00683e" stroke="#00683e"/>
    <path d="M92.51,189.88h-6.03v6.03h6.03v-6.03Z" fill="#00683e" stroke="#00683e"/>
    <path d="M98.54,189.88h-6.03v6.03h6.03v-6.03Z" fill="#00683e" stroke="#00683e"/>
    <path d="M104.57,189.88h-6.03v6.03h6.03v-6.03Z" fill="#00683e" stroke="#00683e"/>
    <path d="M110.61,189.88h-6.03v6.03h6.03v-6.03Z" fill="#ffbaf9" stroke="#ffbaf9"/>
    <path d="M116.64,189.88h-6.03v6.03h6.03v-6.03Z" fill="#ffbaf9" stroke="#ffbaf9"/>
    <path d="M122.67,189.88h-6.03v6.03h6.03v-6.03Z" fill="#ffbaf9" stroke="#ffbaf9"/>
    <path d="M128.71,189.88h-6.03v6.03h6.03v-6.03Z" fill="#ffbaf9" stroke="#ffbaf9"/>
    <path d="M134.74,189.88h-6.03v6.03h6.03v-6.03Z" fill="#ffbaf9" stroke="#ffbaf9"/>
    <path d="M140.77,189.88h-6.03v6.03h6.03v-6.03Z" fill="#ffbaf9" stroke="#ffbaf9"/>
    <path d="M146.81,189.88h-6.03v6.03h6.03v-6.03Z" fill="#ffbaf9" stroke="#ffbaf9"/>
    <path d="M152.84,189.88h-6.03v6.03h6.03v-6.03Z" fill="#ffbaf9" stroke="#ffbaf9"/>
    <path d="M158.88,189.88h-6.03v6.03h6.03v-6.03Z" fill="#ffbaf9" stroke="#ffbaf9"/>
    <path d="M164.91,189.88h-6.03v6.03h6.03v-6.03Z" fill="#00683e" stroke="#00683e"/>
    <path d="M170.94,189.88h-6.03v6.03h6.03v-6.03Z" fill="#00683e" stroke="#00683e"/>
    <path d="M176.98,189.88h-6.03v6.03h6.03v-6.03Z" fill="#00683e" stroke="#00683e"/>
    <path d="M183.01,189.88h-6.03v6.03h6.03v-6.03Z" fill="#00ff91" stroke="#00ff91"/>
    <path d="M110.61,195.91h-6.03v6.03h6.03v-6.03Z" fill="#f91c86" stroke="#f91c86"/>
    <path d="M116.64,195.91h-6.03v6.03h6.03v-6.03Z" fill="#ffbaf9" stroke="#ffbaf9"/>
    <path d="M122.67,195.91h-6.03v6.03h6.03v-6.03Z" fill="#ffbaf9" stroke="#ffbaf9"/>
    <path d="M128.71,195.91h-6.03v6.03h6.03v-6.03Z" fill="#ffbaf9" stroke="#ffbaf9"/>
    <path d="M134.74,195.91h-6.03v6.03h6.03v-6.03Z" fill="#ffbaf9" stroke="#ffbaf9"/>
    <path d="M140.77,195.91h-6.03v6.03h6.03v-6.03Z" fill="#ffbaf9" stroke="#ffbaf9"/>
    <path d="M146.81,195.91h-6.03v6.03h6.03v-6.03Z" fill="#ffbaf9" stroke="#ffbaf9"/>
    <path d="M152.84,195.91h-6.03v6.03h6.03v-6.03Z" fill="#ffbaf9" stroke="#ffbaf9"/>
    <path d="M158.88,195.91h-6.03v6.03h6.03v-6.03Z" fill="#f91c86" stroke="#f91c86"/>
    <path d="M116.64,201.94h-6.03v6.03h6.03v-6.03Z" fill="#f91c86" stroke="#f91c86"/>
    <path d="M122.67,201.94h-6.03v6.03h6.03v-6.03Z" fill="#ffbaf9" stroke="#ffbaf9"/>
    <path d="M128.71,201.94h-6.03v6.03h6.03v-6.03Z" fill="#ffbaf9" stroke="#ffbaf9"/>
    <path d="M134.74,201.94h-6.03v6.03h6.03v-6.03Z" fill="#ffbaf9" stroke="#ffbaf9"/>
    <path d="M140.77,201.94h-6.03v6.03h6.03v-6.03Z" fill="#ffbaf9" stroke="#ffbaf9"/>
    <path d="M146.81,201.94h-6.03v6.03h6.03v-6.03Z" fill="#ffbaf9" stroke="#ffbaf9"/>
    <path d="M152.84,201.94h-6.03v6.03h6.03v-6.03Z" fill="#f91c86" stroke="#f91c86"/>
    <path d="M116.64,207.98h-6.03v6.03h6.03v-6.03Z" fill="#f91c86" stroke="#f91c86"/>
    <path d="M122.67,207.98h-6.03v6.03h6.03v-6.03Z" fill="#f91c86" stroke="#f91c86"/>
    <path d="M128.71,207.98h-6.03v6.03h6.03v-6.03Z" fill="#f91c86" stroke="#f91c86"/>
    <path d="M134.74,207.98h-6.03v6.03h6.03v-6.03Z" fill="#f91c86" stroke="#f91c86"/>
    <path d="M140.77,207.98h-6.03v6.03h6.03v-6.03Z" fill="#f91c86" stroke="#f91c86"/>
    <path d="M146.81,207.98h-6.03v6.03h6.03v-6.03Z" fill="#f91c86" stroke="#f91c86"/>
    <path d="M152.84,207.98h-6.03v6.03h6.03v-6.03Z" fill="#f91c86" stroke="#f91c86"/>
    <path d="M116.64,214.01h-6.03v6.03h6.03v-6.03Z" fill="#ffbaf9" stroke="#ffbaf9"/>
    <path d="M122.67,214.01h-6.03v6.03h6.03v-6.03Z" fill="#f91c86" stroke="#f91c86"/>
    <path d="M128.71,214.01h-6.03v6.03h6.03v-6.03Z" fill="#f91c86" stroke="#f91c86"/>
    <path d="M134.74,214.01h-6.03v6.03h6.03v-6.03Z" fill="#f91c86" stroke="#f91c86"/>
    <path d="M140.77,214.01h-6.03v6.03h6.03v-6.03Z" fill="#f91c86" stroke="#f91c86"/>
    <path d="M146.81,214.01h-6.03v6.03h6.03v-6.03Z" fill="#f91c86" stroke="#f91c86"/>
    <path d="M152.84,214.01h-6.03v6.03h6.03v-6.03Z" fill="#ffbaf9" stroke="#ffbaf9"/>
    <path d="M116.64,220.04h-6.03v6.03h6.03v-6.03Z" fill="#ffbaf9" stroke="#ffbaf9"/>
    <path d="M122.67,220.04h-6.03v6.03h6.03v-6.03Z" fill="#ffbaf9" stroke="#ffbaf9"/>
    <path d="M128.71,220.04h-6.03v6.03h6.03v-6.03Z" fill="#ffbaf9" stroke="#ffbaf9"/>
    <path d="M134.74,220.04h-6.03v6.03h6.03v-6.03Z" fill="#ffbaf9" stroke="#ffbaf9"/>
    <path d="M140.77,220.04h-6.03v6.03h6.03v-6.03Z" fill="#ffbaf9" stroke="#ffbaf9"/>
    <path d="M146.81,220.04h-6.03v6.03h6.03v-6.03Z" fill="#ffbaf9" stroke="#ffbaf9"/>
    <path d="M152.84,220.04h-6.03v6.03h6.03v-6.03Z" fill="#ffbaf9" stroke="#ffbaf9"/>
    <path d="M116.64,226.08h-6.03v6.03h6.03v-6.03Z" fill="#ffbaf9" stroke="#ffbaf9"/>
    <path d="M122.67,226.08h-6.03v6.03h6.03v-6.03Z" fill="#ffbaf9" stroke="#ffbaf9"/>
    <path d="M128.71,226.08h-6.03v6.03h6.03v-6.03Z" fill="#ffbaf9" stroke="#ffbaf9"/>
    <path d="M134.74,226.08h-6.03v6.03h6.03v-6.03Z" fill="#ffbaf9" stroke="#ffbaf9"/>
    <path d="M140.77,226.08h-6.03v6.03h6.03v-6.03Z" fill="#ffbaf9" stroke="#ffbaf9"/>
    <path d="M146.81,226.08h-6.03v6.03h6.03v-6.03Z" fill="#ffbaf9" stroke="#ffbaf9"/>
    <path d="M152.84,226.08h-6.03v6.03h6.03v-6.03Z" fill="#f91c86" stroke="#f91c86"/>
    <path d="M116.64,232.11h-6.03v6.03h6.03v-6.03Z" fill="#00ff91" stroke="#00ff91"/>
    <path d="M122.67,232.11h-6.03v6.03h6.03v-6.03Z" fill="#ffbaf9" stroke="#ffbaf9"/>
    <path d="M128.71,232.11h-6.03v6.03h6.03v-6.03Z" fill="#ffbaf9" stroke="#ffbaf9"/>
    <path d="M134.74,232.11h-6.03v6.03h6.03v-6.03Z" fill="#ffbaf9" stroke="#ffbaf9"/>
    <path d="M140.77,232.11h-6.03v6.03h6.03v-6.03Z" fill="#ffbaf9" stroke="#ffbaf9"/>
    <path d="M146.81,232.11h-6.03v6.03h6.03v-6.03Z" fill="#f91c86" stroke="#f91c86"/>
    <path d="M152.84,232.11h-6.03v6.03h6.03v-6.03Z" fill="#00ff91" stroke="#00ff91"/>
    <path d="M116.64,238.14h-6.03v6.03h6.03v-6.03Z" fill="#00ff91" stroke="#00ff91"/>
    <path d="M122.67,238.14h-6.03v6.03h6.03v-6.03Z" fill="#00ff91" stroke="#00ff91"/>
    <path d="M128.71,238.14h-6.03v6.03h6.03v-6.03Z" fill="#ffbaf9" stroke="#ffbaf9"/>
    <path d="M134.74,238.14h-6.03v6.03h6.03v-6.03Z" fill="#ffbaf9" stroke="#ffbaf9"/>
    <path d="M140.77,238.14h-6.03v6.03h6.03v-6.03Z" fill="#f91c86" stroke="#f91c86"/>
    <path d="M146.81,238.14h-6.03v6.03h6.03v-6.03Z" fill="#00ff91" stroke="#00ff91"/>
    <path d="M152.84,238.14h-6.03v6.03h6.03v-6.03Z" fill="#00ff91" stroke="#00ff91"/>
    <path d="M116.64,244.18h-6.03v6.03h6.03v-6.03Z" fill="#00ff91" stroke="#00ff91"/>
    <path d="M122.67,244.18h-6.03v6.03h6.03v-6.03Z" fill="#00ff91" stroke="#00ff91"/>
    <path d="M128.71,244.18h-6.03v6.03h6.03v-6.03Z" fill="#00ff91" stroke="#00ff91"/>
    <path d="M134.74,244.18h-6.03v6.03h6.03v-6.03Z" fill="#00683e" stroke="#00683e"/>
    <path d="M140.77,244.18h-6.03v6.03h6.03v-6.03Z" fill="#00ff91" stroke="#00ff91"/>
    <path d="M146.81,244.18h-6.03v6.03h6.03v-6.03Z" fill="#00ff91" stroke="#00ff91"/>
    <path d="M152.84,244.18h-6.03v6.03h6.03v-6.03Z" fill="#00ff91" stroke="#00ff91"/>
    <path d="M122.67,250.21h-6.03v6.03h6.03v-6.03Z" fill="#00ff91" stroke="#00ff91"/>
    <path d="M128.71,250.21h-6.03v6.03h6.03v-6.03Z" fill="#00683e" stroke="#00683e"/>
    <path d="M134.74,250.21h-6.03v6.03h6.03v-6.03Z" fill="#00683e" stroke="#00683e"/>
    <path d="M140.77,250.21h-6.03v6.03h6.03v-6.03Z" fill="#00683e" stroke="#00683e"/>
    <path d="M146.81,250.21h-6.03v6.03h6.03v-6.03Z" fill="#00ff91" stroke="#00ff91"/>
    <path d="M128.71,256.25h-6.03v6.03h6.03v-6.03Z" fill="#00683e" stroke="#00683e"/>
    <path d="M134.74,256.25h-6.03v6.03h6.03v-6.03Z" fill="#00683e" stroke="#00683e"/>
    <path d="M140.77,256.25h-6.03v6.03h6.03v-6.03Z" fill="#00683e" stroke="#00683e"/>
    <path d="M134.74,262.28h-6.03v6.03h6.03v-6.03Z" fill="#00683e" stroke="#00683e"/>
    <path d="M92.51,69.2h-6.03v6.03h6.03v-6.03Z" fill="#00683e" stroke="#00683e"/>
    <path d="M98.54,69.2h-6.03v6.03h6.03v-6.03Z" fill="#00683e" stroke="#00683e"/>
    <path d="M104.57,69.2h-6.03v6.03h6.03v-6.03Z" fill="#00683e" stroke="#00683e"/>
    <path d="M110.61,69.2h-6.03v6.03h6.03v-6.03Z" fill="#00683e" stroke="#00683e"/>
    <path d="M116.64,69.2h-6.03v6.03h6.03v-6.03Z" fill="#00683e" stroke="#00683e"/>
    <path d="M122.67,69.2h-6.03v6.03h6.03v-6.03Z" fill="#00683e" stroke="#00683e"/>
    <path d="M128.71,69.2h-6.03v6.03h6.03v-6.03Z" fill="#00ff91" stroke="#00ff91"/>
    <path d="M134.74,69.2h-6.03v6.03h6.03v-6.03Z" fill="#00683e" stroke="#00683e"/>
    <path d="M140.77,69.2h-6.03v6.03h6.03v-6.03Z" fill="#00683e" stroke="#00683e"/>
    <path d="M146.81,69.2h-6.03v6.03h6.03v-6.03Z" fill="#00ff91" stroke="#00ff91"/>
    <path d="M152.84,69.2h-6.03v6.03h6.03v-6.03Z" fill="#00ff91" stroke="#00ff91"/>
    <path d="M158.88,69.2h-6.03v6.03h6.03v-6.03Z" fill="#00683e" stroke="#00683e"/>
    <path d="M164.91,69.2h-6.03v6.03h6.03v-6.03Z" fill="#00683e" stroke="#00683e"/>
    <path d="M170.94,69.2h-6.03v6.03h6.03v-6.03Z" fill="#00683e" stroke="#00683e"/>>
    <path d="M122.67,63.17h-6.03v6.03h6.03v-6.03Z" fill="#00683e" stroke="#00683e"/>
    <path d="M128.71,63.17h-6.03v6.03h6.03v-6.03Z" fill="#00683e" stroke="#00683e"/>
    <path d="M134.74,63.17h-6.03v6.03h6.03v-6.03Z" fill="#00ff91" stroke="#00ff91"/>
    <path d="M140.77,63.17h-6.03v6.03h6.03v-6.03Z" fill="#00683e" stroke="#00683e"/>
    <path d="M146.81,63.17h-6.03v6.03h6.03v-6.03Z" fill="#00683e" stroke="#00683e"/>
    <path d="M152.84,63.17h-6.03v6.03h6.03v-6.03Z" fill="#00683e" stroke="#00683e"/>
    <path d="M158.88,63.17h-6.03v6.03h6.03v-6.03Z" fill="#00683e" stroke="#00683e"/>
    <path d="M122.67,57.13h-6.03v6.03h6.03v-6.03Z" fill="#00683e" stroke="#00683e"/>
    <path d="M128.71,57.13h-6.03v6.03h6.03v-6.03Z" fill="#00683e" stroke="#00683e"/>
    <path d="M134.74,57.13h-6.03v6.03h6.03v-6.03Z" fill="#00683e" stroke="#00683e"/>
    <path d="M140.77,57.13h-6.03v6.03h6.03v-6.03Z" fill="#00683e" stroke="#00683e"/>
    <path d="M146.81,57.13h-6.03v6.03h6.03v-6.03Z" fill="#00683e" stroke="#00683e"/>
    <path d="M104.57,220.04h-6.03v6.03h6.03v-6.03Z" fill="#00ff91" stroke="#00ff91"/>
    <path d="M164.91,220.04h-6.03v6.03h6.03v-6.03Z" fill="#00ff91" stroke="#00ff91"/>
    <path d="M98.54,226.08h-6.03v6.03h6.03v-6.03Z" fill="#00683e" stroke="#00683e"/>
    <path d="M104.57,226.08h-6.03v6.03h6.03v-6.03Z" fill="#00ff91" stroke="#00ff91"/>
    <path d="M164.91,226.08h-6.03v6.03h6.03v-6.03Z" fill="#00ff91" stroke="#00ff91"/>
    <path d="M170.94,226.08h-6.03v6.03h6.03v-6.03Z" fill="#00ff91" stroke="#00ff91"/>
    <path d="M68.37,232.11h-6.03v6.03h6.03v-6.03Z" fill="#00ff91" stroke="#00ff91"/>
    <path d="M74.4,232.11h-6.03v6.03h6.03v-6.03Z" fill="#00ff91" stroke="#00ff91"/>
    <path d="M80.44,232.11h-6.03v6.03h6.03v-6.03Z" fill="#00ff91" stroke="#00ff91"/>
    <path d="M86.47,232.11h-6.03v6.03h6.03v-6.03Z" fill="#00ff91" stroke="#00ff91"/>
    <path d="M92.51,232.11h-6.03v6.03h6.03v-6.03Z" fill="#00ff91" stroke="#00ff91"/>
    <path d="M98.54,232.11h-6.03v6.03h6.03v-6.03Z" fill="#00683e" stroke="#00683e"/>
    <path d="M104.57,232.11h-6.03v6.03h6.03v-6.03Z" fill="#00ff91" stroke="#00ff91"/>
    <path d="M164.91,232.11h-6.03v6.03h6.03v-6.03Z" fill="#00ff91" stroke="#00ff91"/>
    <path d="M170.94,232.11h-6.03v6.03h6.03v-6.03Z" fill="#00683e" stroke="#00683e"/>
    <path d="M176.98,232.11h-6.03v6.03h6.03v-6.03Z" fill="#00ff91" stroke="#00ff91"/>
    <path d="M183.01,232.11h-6.03v6.03h6.03v-6.03Z" fill="#00ff91" stroke="#00ff91"/>
    <path d="M189.04,232.11h-6.03v6.03h6.03v-6.03Z" fill="#00ff91" stroke="#00ff91"/>
    <path d="M195.08,232.11h-6.03v6.03h6.03v-6.03Z" fill="#00ff91" stroke="#00ff91"/>
    <path d="M201.11,232.11h-6.03v6.03h6.03v-6.03Z" fill="#00ff91" stroke="#00ff91"/>
    <path d="M68.37,238.14h-6.03v6.03h6.03v-6.03Z" fill="#00ff91" stroke="#00ff91"/>
    <path d="M74.4,238.14h-6.03v6.03h6.03v-6.03Z" fill="#00ff91" stroke="#00ff91"/>
    <path d="M80.44,238.14h-6.03v6.03h6.03v-6.03Z" fill="#00ff91" stroke="#00ff91"/>
    <path d="M86.47,238.14h-6.03v6.03h6.03v-6.03Z" fill="#00ff91" stroke="#00ff91"/>
    <path d="M92.51,238.14h-6.03v6.03h6.03v-6.03Z" fill="#00ff91" stroke="#00ff91"/>
    <path d="M98.54,238.14h-6.03v6.03h6.03v-6.03Z" fill="#00683e" stroke="#00683e"/>
    <path d="M104.57,238.14h-6.03v6.03h6.03v-6.03Z" fill="#00ff91" stroke="#00ff91"/>
    <path d="M164.91,238.14h-6.03v6.03h6.03v-6.03Z" fill="#00ff91" stroke="#00ff91"/>
    <path d="M170.94,238.14h-6.03v6.03h6.03v-6.03Z" fill="#00683e" stroke="#00683e"/>
    <path d="M176.98,238.14h-6.03v6.03h6.03v-6.03Z" fill="#00ff91" stroke="#00ff91"/>
    <path d="M183.01,238.14h-6.03v6.03h6.03v-6.03Z" fill="#00ff91" stroke="#00ff91"/>
    <path d="M189.04,238.14h-6.03v6.03h6.03v-6.03Z" fill="#00ff91" stroke="#00ff91"/>
    <path d="M195.08,238.14h-6.03v6.03h6.03v-6.03Z" fill="#00ff91" stroke="#00ff91"/>
    <path d="M201.11,238.14h-6.03v6.03h6.03v-6.03Z" fill="#00ff91" stroke="#00ff91"/>
    <path d="M68.37,244.18h-6.03v6.03h6.03v-6.03Z" fill="#00ff91" stroke="#00ff91"/>
    <path d="M74.4,244.18h-6.03v6.03h6.03v-6.03Z" fill="#00ff91" stroke="#00ff91"/>
    <path d="M80.44,244.18h-6.03v6.03h6.03v-6.03Z" fill="#00ff91" stroke="#00ff91"/>
    <path d="M86.47,244.18h-6.03v6.03h6.03v-6.03Z" fill="#00ff91" stroke="#00ff91"/>
    <path d="M92.51,244.18h-6.03v6.03h6.03v-6.03Z" fill="#00ff91" stroke="#00ff91"/>
    <path d="M98.54,244.18h-6.03v6.03h6.03v-6.03Z" fill="#00ff91" stroke="#00ff91"/>
    <path d="M104.57,244.18h-6.03v6.03h6.03v-6.03Z" fill="#00683e" stroke="#00683e"/>
    <path d="M164.91,244.18h-6.03v6.03h6.03v-6.03Z" fill="#00683e" stroke="#00683e"/>
    <path d="M170.94,244.18h-6.03v6.03h6.03v-6.03Z" fill="#00ff91" stroke="#00ff91"/>
    <path d="M176.98,244.18h-6.03v6.03h6.03v-6.03Z" fill="#00ff91" stroke="#00ff91"/>
    <path d="M183.01,244.18h-6.03v6.03h6.03v-6.03Z" fill="#00ff91" stroke="#00ff91"/>
    <path d="M189.04,244.18h-6.03v6.03h6.03v-6.03Z" fill="#00ff91" stroke="#00ff91"/>
    <path d="M195.08,244.18h-6.03v6.03h6.03v-6.03Z" fill="#00ff91" stroke="#00ff91"/>
    <path d="M201.11,244.18h-6.03v6.03h6.03v-6.03Z" fill="#00ff91" stroke="#00ff91"/>
    <path d="M68.37,250.21h-6.03v6.03h6.03v-6.03Z" fill="#00ff91" stroke="#00ff91"/>
    <path d="M74.4,250.21h-6.03v6.03h6.03v-6.03Z" fill="#00ff91" stroke="#00ff91"/>
    <path d="M80.44,250.21h-6.03v6.03h6.03v-6.03Z" fill="#00ff91" stroke="#00ff91"/>
    <path d="M86.47,250.21h-6.03v6.03h6.03v-6.03Z" fill="#00ff91" stroke="#00ff91"/>
    <path d="M92.51,250.21h-6.03v6.03h6.03v-6.03Z" fill="#00ff91" stroke="#00ff91"/>
    <path d="M98.54,250.21h-6.03v6.03h6.03v-6.03Z" fill="#00ff91" stroke="#00ff91"/>
    <path d="M104.57,250.21h-6.03v6.03h6.03v-6.03Z" fill="#00683e" stroke="#00683e"/>
    <path d="M110.61,250.21h-6.03v6.03h6.03v-6.03Z" fill="#00ff91" stroke="#00ff91"/>
    <path d="M158.88,250.21h-6.03v6.03h6.03v-6.03Z" fill="#00ff91" stroke="#00ff91"/>
    <path d="M164.91,250.21h-6.03v6.03h6.03v-6.03Z" fill="#00683e" stroke="#00683e"/>
    <path d="M170.94,250.21h-6.03v6.03h6.03v-6.03Z" fill="#00ff91" stroke="#00ff91"/>
    <path d="M176.98,250.21h-6.03v6.03h6.03v-6.03Z" fill="#00ff91" stroke="#00ff91"/>
    <path d="M183.01,250.21h-6.03v6.03h6.03v-6.03Z" fill="#00ff91" stroke="#00ff91"/>
    <path d="M189.04,250.21h-6.03v6.03h6.03v-6.03Z" fill="#00ff91" stroke="#00ff91"/>
    <path d="M195.08,250.21h-6.03v6.03h6.03v-6.03Z" fill="#00ff91" stroke="#00ff91"/>
    <path d="M201.11,250.21h-6.03v6.03h6.03v-6.03Z" fill="#00ff91" stroke="#00ff91"/>
    <path d="M68.37,256.25h-6.03v6.03h6.03v-6.03Z" fill="#00ff91" stroke="#00ff91"/>
    <path d="M74.4,256.25h-6.03v6.03h6.03v-6.03Z" fill="#00ff91" stroke="#00ff91"/>
    <path d="M80.44,256.25h-6.03v6.03h6.03v-6.03Z" fill="#00ff91" stroke="#00ff91"/>
    <path d="M86.47,256.25h-6.03v6.03h6.03v-6.03Z" fill="#00ff91" stroke="#00ff91"/>
    <path d="M92.51,256.25h-6.03v6.03h6.03v-6.03Z" fill="#00ff91" stroke="#00ff91"/>
    <path d="M98.54,256.25h-6.03v6.03h6.03v-6.03Z" fill="#00ff91" stroke="#00ff91"/>
    <path d="M104.57,256.25h-6.03v6.03h6.03v-6.03Z" fill="#00ff91" stroke="#00ff91"/>
    <path d="M110.61,256.25h-6.03v6.03h6.03v-6.03Z" fill="#00683e" stroke="#00683e"/>
    <path d="M116.64,256.25h-6.03v6.03h6.03v-6.03Z" fill="#00ff91" stroke="#00ff91"/>
    <path d="M152.84,256.25h-6.03v6.03h6.03v-6.03Z" fill="#00ff91" stroke="#00ff91"/>
    <path d="M158.88,256.25h-6.03v6.03h6.03v-6.03Z" fill="#00683e" stroke="#00683e"/>
    <path d="M164.91,256.25h-6.03v6.03h6.03v-6.03Z" fill="#00ff91" stroke="#00ff91"/>
    <path d="M170.94,256.25h-6.03v6.03h6.03v-6.03Z" fill="#00ff91" stroke="#00ff91"/>
    <path d="M176.98,256.25h-6.03v6.03h6.03v-6.03Z" fill="#00ff91" stroke="#00ff91"/>
    <path d="M183.01,256.25h-6.03v6.03h6.03v-6.03Z" fill="#00ff91" stroke="#00ff91"/>
    <path d="M189.04,256.25h-6.03v6.03h6.03v-6.03Z" fill="#00ff91" stroke="#00ff91"/>
    <path d="M195.08,256.25h-6.03v6.03h6.03v-6.03Z" fill="#00ff91" stroke="#00ff91"/>
    <path d="M201.11,256.25h-6.03v6.03h6.03v-6.03Z" fill="#00ff91" stroke="#00ff91"/>
    <path d="M68.37,262.28h-6.03v6.03h6.03v-6.03Z" fill="#00ff91" stroke="#00ff91"/>
    <path d="M74.4,262.28h-6.03v6.03h6.03v-6.03Z" fill="#00ff91" stroke="#00ff91"/>
    <path d="M56.3,232.11h-6.03v6.03h6.03v-6.03Z" fill="#00ff91" stroke="#00ff91"/>
    <path d="M62.34,232.11h-6.03v6.03h6.03v-6.03Z" fill="#00ff91" stroke="#00ff91"/>
    <path d="M56.3,238.14h-6.03v6.03h6.03v-6.03Z" fill="#00ff91" stroke="#00ff91"/>
    <path d="M62.34,238.14h-6.03v6.03h6.03v-6.03Z" fill="#00ff91" stroke="#00ff91"/>
    <path d="M56.3,244.18h-6.03v6.03h6.03v-6.03Z" fill="#00ff91" stroke="#00ff91"/>
    <path d="M62.34,244.18h-6.03v6.03h6.03v-6.03Z" fill="#00ff91" stroke="#00ff91"/>
    <path d="M56.3,250.21h-6.03v6.03h6.03v-6.03Z" fill="#00ff91" stroke="#00ff91"/>
    <path d="M62.34,250.21h-6.03v6.03h6.03v-6.03Z" fill="#00ff91" stroke="#00ff91"/>
    <path d="M56.3,256.25h-6.03v6.03h6.03v-6.03Z" fill="#00ff91" stroke="#00ff91"/>
    <path d="M62.34,256.25h-6.03v6.03h6.03v-6.03Z" fill="#00ff91" stroke="#00ff91"/>
    <path d="M56.3,262.28h-6.03v6.03h6.03v-6.03Z" fill="#00ff91" stroke="#00ff91"/>
    <path d="M62.34,262.28h-6.03v6.03h6.03v-6.03Z" fill="#00ff91" stroke="#00ff91"/>
    <path d="M44.24,232.11h-6.03v6.03h6.03v-6.03Z" fill="#00ff91" stroke="#00ff91"/>
    <path d="M50.27,232.11h-6.03v6.03h6.03v-6.03Z" fill="#00ff91" stroke="#00ff91"/>
    <path d="M44.24,238.14h-6.03v6.03h6.03v-6.03Z" fill="#00ff91" stroke="#00ff91"/>
    <path d="M50.27,238.14h-6.03v6.03h6.03v-6.03Z" fill="#00ff91" stroke="#00ff91"/>
    <path d="M44.24,244.18h-6.03v6.03h6.03v-6.03Z" fill="#00ff91" stroke="#00ff91"/>
    <path d="M50.27,244.18h-6.03v6.03h6.03v-6.03Z" fill="#00ff91" stroke="#00ff91"/>
    <path d="M44.24,250.21h-6.03v6.03h6.03v-6.03Z" fill="#00ff91" stroke="#00ff91"/>
    <path d="M50.27,250.21h-6.03v6.03h6.03v-6.03Z" fill="#00ff91" stroke="#00ff91"/>
    <path d="M44.24,256.25h-6.03v6.03h6.03v-6.03Z" fill="#00ff91" stroke="#00ff91"/>
    <path d="M50.27,256.25h-6.03v6.03h6.03v-6.03Z" fill="#00ff91" stroke="#00ff91"/>
    <path d="M44.24,262.28h-6.03v6.03h6.03v-6.03Z" fill="#00ff91" stroke="#00ff91"/>
    <path d="M50.27,262.28h-6.03v6.03h6.03v-6.03Z" fill="#00ff91" stroke="#00ff91"/>
    <path d="M32.17,232.11h-6.03v6.03h6.03v-6.03Z" fill="#00ff91" stroke="#00ff91"/>
    <path d="M38.2,232.11h-6.03v6.03h6.03v-6.03Z" fill="#00ff91" stroke="#00ff91"/>
    <path d="M32.17,238.14h-6.03v6.03h6.03v-6.03Z" fill="#00ff91" stroke="#00ff91"/>
    <path d="M38.2,238.14h-6.03v6.03h6.03v-6.03Z" fill="#00ff91" stroke="#00ff91"/>
    <path d="M32.17,244.18h-6.03v6.03h6.03v-6.03Z" fill="#00ff91" stroke="#00ff91"/>
    <path d="M38.2,244.18h-6.03v6.03h6.03v-6.03Z" fill="#00ff91" stroke="#00ff91"/>
    <path d="M32.17,250.21h-6.03v6.03h6.03v-6.03Z" fill="#00ff91" stroke="#00ff91"/>
    <path d="M38.2,250.21h-6.03v6.03h6.03v-6.03Z" fill="#00ff91" stroke="#00ff91"/>
    <path d="M32.17,256.25h-6.03v6.03h6.03v-6.03Z" fill="#00ff91" stroke="#00ff91"/>
    <path d="M38.2,256.25h-6.03v6.03h6.03v-6.03Z" fill="#00ff91" stroke="#00ff91"/>
    <path d="M32.17,262.28h-6.03v6.03h6.03v-6.03Z" fill="#00ff91" stroke="#00ff91"/>
    <path d="M38.2,262.28h-6.03v6.03h6.03v-6.03Z" fill="#00ff91" stroke="#00ff91"/>
    <path d="M26.14,238.14h-6.03v6.03h6.03v-6.03Z" fill="#00ff91" stroke="#00ff91"/>
    <path d="M20.1,244.18h-6.03v6.03h6.03v-6.03Z" fill="#00ff91" stroke="#00ff91"/>
    <path d="M26.14,244.18h-6.03v6.03h6.03v-6.03Z" fill="#00ff91" stroke="#00ff91"/>
    <path d="M20.1,250.21h-6.03v6.03h6.03v-6.03Z" fill="#00ff91" stroke="#00ff91"/>
    <path d="M26.14,250.21h-6.03v6.03h6.03v-6.03Z" fill="#00ff91" stroke="#00ff91"/>
    <path d="M20.1,256.25h-6.03v6.03h6.03v-6.03Z" fill="#00ff91" stroke="#00ff91"/>
    <path d="M26.14,256.25h-6.03v6.03h6.03v-6.03Z" fill="#00ff91" stroke="#00ff91"/>
    <path d="M20.1,262.28h-6.03v6.03h6.03v-6.03Z" fill="#00ff91" stroke="#00ff91"/>
    <path d="M26.14,262.28h-6.03v6.03h6.03v-6.03Z" fill="#00ff91" stroke="#00ff91"/>
    <path d="M80.44,262.28h-6.03v6.03h6.03v-6.03Z" fill="#00ff91" stroke="#00ff91"/>
    <path d="M86.47,262.28h-6.03v6.03h6.03v-6.03Z" fill="#00ff91" stroke="#00ff91"/>
    <path d="M92.51,262.28h-6.03v6.03h6.03v-6.03Z" fill="#00ff91" stroke="#00ff91"/>
    <path d="M98.54,262.28h-6.03v6.03h6.03v-6.03Z" fill="#00ff91" stroke="#00ff91"/>
    <path d="M104.57,262.28h-6.03v6.03h6.03v-6.03Z" fill="#00ff91" stroke="#00ff91"/>
    <path d="M110.61,262.28h-6.03v6.03h6.03v-6.03Z" fill="#00ff91" stroke="#00ff91"/>
    <path d="M116.64,262.28h-6.03v6.03h6.03v-6.03Z" fill="#00683e" stroke="#00683e"/>
    <path d="M122.67,262.28h-6.03v6.03h6.03v-6.03Z" fill="#00683e" stroke="#00683e"/>
    <path d="M146.81,262.28h-6.03v6.03h6.03v-6.03Z" fill="#00683e" stroke="#00683e"/>
    <path d="M152.84,262.28h-6.03v6.03h6.03v-6.03Z" fill="#00683e" stroke="#00683e"/>
    <path d="M158.88,262.28h-6.03v6.03h6.03v-6.03Z" fill="#00ff91" stroke="#00ff91"/>
    <path d="M164.91,262.28h-6.03v6.03h6.03v-6.03Z" fill="#00ff91" stroke="#00ff91"/>
    <path d="M170.94,262.28h-6.03v6.03h6.03v-6.03Z" fill="#00ff91" stroke="#00ff91"/>
    <path d="M176.98,262.28h-6.03v6.03h6.03v-6.03Z" fill="#00ff91" stroke="#00ff91"/>
    <path d="M183.01,262.28h-6.03v6.03h6.03v-6.03Z" fill="#00ff91" stroke="#00ff91"/>
    <path d="M189.04,262.28h-6.03v6.03h6.03v-6.03Z" fill="#00ff91" stroke="#00ff91"/>
    <path d="M195.08,262.28h-6.03v6.03h6.03v-6.03Z" fill="#00ff91" stroke="#00ff91"/>
    <path d="M201.11,262.28h-6.03v6.03h6.03v-6.03Z" fill="#00ff91" stroke="#00ff91"/>
    <path d="M207.14,232.11h-6.03v6.03h6.03v-6.03Z" fill="#00ff91" stroke="#00ff91"/>
    <path d="M213.18,232.11h-6.03v6.03h6.03v-6.03Z" fill="#00ff91" stroke="#00ff91"/>
    <path d="M207.14,238.14h-6.03v6.03h6.03v-6.03Z" fill="#00ff91" stroke="#00ff91"/>
    <path d="M213.18,238.14h-6.03v6.03h6.03v-6.03Z" fill="#00ff91" stroke="#00ff91"/>
    <path d="M207.14,244.18h-6.03v6.03h6.03v-6.03Z" fill="#00ff91" stroke="#00ff91"/>
    <path d="M213.18,244.18h-6.03v6.03h6.03v-6.03Z" fill="#00ff91" stroke="#00ff91"/>
    <path d="M207.14,250.21h-6.03v6.03h6.03v-6.03Z" fill="#00ff91" stroke="#00ff91"/>
    <path d="M213.18,250.21h-6.03v6.03h6.03v-6.03Z" fill="#00ff91" stroke="#00ff91"/>
    <path d="M207.14,256.25h-6.03v6.03h6.03v-6.03Z" fill="#00ff91" stroke="#00ff91"/>
    <path d="M213.18,256.25h-6.03v6.03h6.03v-6.03Z" fill="#00ff91" stroke="#00ff91"/>
    <path d="M207.14,262.28h-6.03v6.03h6.03v-6.03Z" fill="#00ff91" stroke="#00ff91"/>
    <path d="M213.18,262.28h-6.03v6.03h6.03v-6.03Z" fill="#00ff91" stroke="#00ff91"/>
    <path d="M219.21,232.11h-6.03v6.03h6.03v-6.03Z" fill="#00ff91" stroke="#00ff91"/>
    <path d="M225.25,232.11h-6.03v6.03h6.03v-6.03Z" fill="#00ff91" stroke="#00ff91"/>
    <path d="M219.21,238.14h-6.03v6.03h6.03v-6.03Z" fill="#00ff91" stroke="#00ff91"/>
    <path d="M225.25,238.14h-6.03v6.03h6.03v-6.03Z" fill="#00ff91" stroke="#00ff91"/>
    <path d="M219.21,244.18h-6.03v6.03h6.03v-6.03Z" fill="#00ff91" stroke="#00ff91"/>
    <path d="M225.25,244.18h-6.03v6.03h6.03v-6.03Z" fill="#00ff91" stroke="#00ff91"/>
    <path d="M219.21,250.21h-6.03v6.03h6.03v-6.03Z" fill="#00ff91" stroke="#00ff91"/>
    <path d="M225.25,250.21h-6.03v6.03h6.03v-6.03Z" fill="#00ff91" stroke="#00ff91"/>
    <path d="M219.21,256.25h-6.03v6.03h6.03v-6.03Z" fill="#00ff91" stroke="#00ff91"/>
    <path d="M225.25,256.25h-6.03v6.03h6.03v-6.03Z" fill="#00ff91" stroke="#00ff91"/>
    <path d="M219.21,262.28h-6.03v6.03h6.03v-6.03Z" fill="#00ff91" stroke="#00ff91"/>
    <path d="M225.25,262.28h-6.03v6.03h6.03v-6.03Z" fill="#00ff91" stroke="#00ff91"/>
    <path d="M231.28,232.11h-6.03v6.03h6.03v-6.03Z" fill="#00ff91" stroke="#00ff91"/>
    <path d="M237.31,232.11h-6.03v6.03h6.03v-6.03Z" fill="#00ff91" stroke="#00ff91"/>
    <path d="M231.28,238.14h-6.03v6.03h6.03v-6.03Z" fill="#00ff91" stroke="#00ff91"/>
    <path d="M237.31,238.14h-6.03v6.03h6.03v-6.03Z" fill="#00ff91" stroke="#00ff91"/>
    <path d="M231.28,244.18h-6.03v6.03h6.03v-6.03Z" fill="#00ff91" stroke="#00ff91"/>
    <path d="M237.31,244.18h-6.03v6.03h6.03v-6.03Z" fill="#00ff91" stroke="#00ff91"/>
    <path d="M231.28,250.21h-6.03v6.03h6.03v-6.03Z" fill="#00ff91" stroke="#00ff91"/>
    <path d="M237.31,250.21h-6.03v6.03h6.03v-6.03Z" fill="#00ff91" stroke="#00ff91"/>
    <path d="M231.28,256.25h-6.03v6.03h6.03v-6.03Z" fill="#00ff91" stroke="#00ff91"/>
    <path d="M237.31,256.25h-6.03v6.03h6.03v-6.03Z" fill="#00ff91" stroke="#00ff91"/>
    <path d="M231.28,262.28h-6.03v6.03h6.03v-6.03Z" fill="#00ff91" stroke="#00ff91"/>
    <path d="M237.31,262.28h-6.03v6.03h6.03v-6.03Z" fill="#00ff91" stroke="#00ff91"/>
    <path d="M243.35,238.14h-6.03v6.03h6.03v-6.03Z" fill="#00ff91" stroke="#00ff91"/>
    <path d="M243.35,244.18h-6.03v6.03h6.03v-6.03Z" fill="#00ff91" stroke="#00ff91"/>
    <path d="M249.38,244.18h-6.03v6.03h6.03v-6.03Z" fill="#00ff91" stroke="#00ff91"/>
    <path d="M243.35,250.21h-6.03v6.03h6.03v-6.03Z" fill="#00ff91" stroke="#00ff91"/>
    <path d="M249.38,250.21h-6.03v6.03h6.03v-6.03Z" fill="#00ff91" stroke="#00ff91"/>
    <path d="M243.35,256.25h-6.03v6.03h6.03v-6.03Z" fill="#00ff91" stroke="#00ff91"/>
    <path d="M249.38,256.25h-6.03v6.03h6.03v-6.03Z" fill="#00ff91" stroke="#00ff91"/>
    <path d="M243.35,262.28h-6.03v6.03h6.03v-6.03Z" fill="#00ff91" stroke="#00ff91"/>
    <path d="M249.38,262.28h-6.03v6.03h6.03v-6.03Z" fill="#00ff91" stroke="#00ff91"/>
    <path d="M110.61,201.94h-6.03v6.03h6.03v-6.03Z" fill="#ffbaf9" stroke="#ffbaf9"/>
    <path d="M158.88,201.94h-6.03v6.03h6.03v-6.03Z" fill="#f91c86" stroke="#f91c86"/>
    <path d="M110.61,207.98h-6.03v6.03h6.03v-6.03Z" fill="#ffbaf9" stroke="#ffbaf9"/>
    <path d="M158.88,207.98h-6.03v6.03h6.03v-6.03Z" fill="#f91c86" stroke="#f91c86"/>
    <path d="M110.61,214.01h-6.03v6.03h6.03v-6.03Z" fill="#ffbaf9" stroke="#ffbaf9"/>
    <path d="M158.88,214.01h-6.03v6.03h6.03v-6.03Z" fill="#f91c86" stroke="#f91c86"/>
    <path d="M110.61,220.04h-6.03v6.03h6.03v-6.03Z" fill="#ffbaf9" stroke="#ffbaf9"/>
    <path d="M158.88,220.04h-6.03v6.03h6.03v-6.03Z" fill="#f91c86" stroke="#f91c86"/>
    <path d="M110.61,226.08h-6.03v6.03h6.03v-6.03Z" fill="#00ff91" stroke="#00ff91"/>
    <path d="M158.88,226.08h-6.03v6.03h6.03v-6.03Z" fill="#00ff91" stroke="#00ff91"/>
    <path d="M110.61,232.11h-6.03v6.03h6.03v-6.03Z" fill="#00ff91" stroke="#00ff91"/>
    <path d="M158.88,232.11h-6.03v6.03h6.03v-6.03Z" fill="#00ff91" stroke="#00ff91"/>
    <path d="M110.61,238.14h-6.03v6.03h6.03v-6.03Z" fill="#00ff91" stroke="#00ff91"/>
    <path d="M158.88,238.14h-6.03v6.03h6.03v-6.03Z" fill="#00ff91" stroke="#00ff91"/>
    <path d="M110.61,244.18h-6.03v6.03h6.03v-6.03Z" fill="#00ff91" stroke="#00ff91"/>
    <path d="M158.88,244.18h-6.03v6.03h6.03v-6.03Z" fill="#00ff91" stroke="#00ff91"/>
    <path d="M116.64,250.21h-6.03v6.03h6.03v-6.03Z" fill="#00ff91" stroke="#00ff91"/>
    <path d="M152.84,250.21h-6.03v6.03h6.03v-6.03Z" fill="#00ff91" stroke="#00ff91"/>
    <path d="M122.67,256.25h-6.03v6.03h6.03v-6.03Z" fill="#00683e" stroke="#00683e"/>
    <path d="M146.81,256.25h-6.03v6.03h6.03v-6.03Z" fill="#00683e" stroke="#00683e"/>
    <path d="M128.71,262.28h-6.03v6.03h6.03v-6.03Z" fill="#00ff91" stroke="#00ff91"/>
    <path d="M140.77,262.28h-6.03v6.03h6.03v-6.03Z" fill="#00ff91" stroke="#00ff91"/>
    <path d="M116.64,135.57h-6.03v6.03h6.03v-6.03Z" fill="#5cff00" stroke="#5cff00"/>
    <path d="M158.88,135.57h-6.03v6.03h6.03v-6.03Z" fill="#5cff00" stroke="#5cff00"/>
    <g id="selector">
        <path d="M139.68,9.68v-4.84h-4.77v4.84h4.77Z" fill="transparent"/>
        <path d="M144.45,4.84V0h-4.77s0,4.84,0,4.84h4.77Z" fill="transparent"/>
        <path d="M134.91,14.51v-4.84h-4.77v4.84h4.77Z" fill="transparent"/>
        <path d="M130.15,9.68v-4.84h-4.77v4.84h4.77Z" fill="transparent"/>
        <path d="M130.15,4.84V0h-4.77s0,4.84,0,4.84h4.77Z" fill="transparent"/>
        <path d="M134.91,4.84V0h-4.77s0,4.84,0,4.84h4.77Z" fill="transparent"/>
        <path d="M139.68,4.84V0h-4.77s0,4.84,0,4.84h4.77Z" fill="transparent"/>
        <path d="M125.38,4.84V0h-4.77s0,4.84,0,4.84h4.77Z" fill="transparent"/>
        <path d="M134.91,9.68v-4.84h-4.77v4.84h4.77Z" fill="transparent"/>
        <g id="selector2">
            <path d="M3,247v30h30" fill="none" stroke= "transparent" stroke-width="6px"/>
            <path d="M261,247v30h-30" fill="none" stroke= "transparent" stroke-width="6px"/>
            <path d="M3,33V3h30" fill="none" stroke= "transparent" stroke-width="6px"/>
            <path d="M261,33V3h-30" fill="none" stroke= "transparent" stroke-width="6px"/>
        </g>
    </g>
</svg>