<svg viewBox="0 0 264 270" fill="none" xmlns="http://www.w3.org/2000/svg">
<path d="M105.504 100.506H99.4702V106.54H105.504V100.506Z" fill="#FFBAF9" stroke="#FFBAF9"/>
<path d="M111.538 100.506H105.504V106.54H111.538V100.506Z" fill="#FFBAF9" stroke="#FFBAF9"/>
<path d="M117.571 100.506H111.537V106.54H117.571V100.506Z" fill="#FFBAF9" stroke="#FFBAF9"/>
<path d="M123.605 100.506H117.571V106.54H123.605V100.506Z" fill="#FFBAF9" stroke="#FFBAF9"/>
<path d="M129.638 100.506H123.604V106.54H129.638V100.506Z" fill="#FFBAF9" stroke="#FFBAF9"/>
<path d="M135.672 100.506H129.638V106.54H135.672V100.506Z" fill="#FFBAF9" stroke="#FFBAF9"/>
<path d="M141.705 100.506H135.671V106.54H141.705V100.506Z" fill="#F91C86" stroke="#F91C86"/>
<path d="M105.504 106.54H99.4702V112.573H105.504V106.54Z" fill="#FFBAF9" stroke="#FFBAF9"/>
<path d="M111.538 106.54H105.504V112.573H111.538V106.54Z" fill="#FFBAF9" stroke="#FFBAF9"/>
<path d="M117.571 106.54H111.537V112.573H117.571V106.54Z" fill="#FFBAF9" stroke="#FFBAF9"/>
<path d="M123.605 106.54H117.571V112.573H123.605V106.54Z" fill="#FFBAF9" stroke="#FFBAF9"/>
<path d="M129.638 106.54H123.604V112.573H129.638V106.54Z" fill="#FFBAF9" stroke="#FFBAF9"/>
<path d="M135.672 106.54H129.638V112.573H135.672V106.54Z" fill="#FFBAF9" stroke="#FFBAF9"/>
<path d="M141.705 106.54H135.671V112.573H141.705V106.54Z" fill="#FFBAF9" stroke="#FFBAF9"/>
<path d="M147.739 106.54H141.706V112.573H147.739V106.54Z" fill="#F91C86" stroke="#F91C86"/>
<path d="M99.4702 112.573H93.4365V118.607H99.4702V112.573Z" fill="#FFBAF9" stroke="#FFBAF9"/>
<path d="M105.504 112.573H99.4702V118.607H105.504V112.573Z" fill="#FFBAF9" stroke="#FFBAF9"/>
<path d="M111.538 112.573H105.504V118.607H111.538V112.573Z" fill="#FFBAF9" stroke="#FFBAF9"/>
<path d="M117.571 112.573H111.537V118.607H117.571V112.573Z" fill="#FFBAF9" stroke="#FFBAF9"/>
<path d="M123.605 112.573H117.571V118.607H123.605V112.573Z" fill="#FFBAF9" stroke="#FFBAF9"/>
<path d="M129.638 112.573H123.604V118.607H129.638V112.573Z" fill="#FFBAF9" stroke="#FFBAF9"/>
<path d="M135.672 112.573H129.638V118.607H135.672V112.573Z" fill="#FFBAF9" stroke="#FFBAF9"/>
<path d="M141.705 112.573H135.671V118.607H141.705V112.573Z" fill="#FFBAF9" stroke="#FFBAF9"/>
<path d="M147.739 112.573H141.706V118.607H147.739V112.573Z" fill="#FFBAF9" stroke="#FFBAF9"/>
<path d="M153.772 112.573H147.739V118.607H153.772V112.573Z" fill="#F91C86" stroke="#F91C86"/>
<path d="M123.605 88.4385H117.571V94.4722H123.605V88.4385Z" fill="#FFBAF9" stroke="#FFBAF9"/>
<path d="M129.638 88.4385H123.604V94.4722H129.638V88.4385Z" fill="#F91C86" stroke="#F91C86"/>
<path d="M135.672 88.4385H129.638V94.4722H135.672V88.4385Z" fill="#F91C86" stroke="#F91C86"/>
<path d="M111.538 94.4722H105.504V100.506H111.538V94.4722Z" fill="#FFBAF9" stroke="#FFBAF9"/>
<path d="M117.571 94.4722H111.537V100.506H117.571V94.4722Z" fill="#FFBAF9" stroke="#FFBAF9"/>
<path d="M123.605 94.4722H117.571V100.506H123.605V94.4722Z" fill="#FFBAF9" stroke="#FFBAF9"/>
<path d="M129.638 94.4722H123.604V100.506H129.638V94.4722Z" fill="#FFBAF9" stroke="#FFBAF9"/>
<path d="M135.672 94.4722H129.638V100.506H135.672V94.4722Z" fill="#F91C86" stroke="#F91C86"/>
<path d="M141.705 94.4722H135.671V100.506H141.705V94.4722Z" fill="#F91C86" stroke="#F91C86"/>
<path d="M99.4702 118.607H93.4365V124.641H99.4702V118.607Z" fill="#FFBAF9" stroke="#FFBAF9"/>
<path d="M105.504 118.607H99.4702V124.641H105.504V118.607Z" fill="#FFBAF9" stroke="#FFBAF9"/>
<path d="M111.538 118.607H105.504V124.641H111.538V118.607Z" fill="#FFBAF9" stroke="#FFBAF9"/>
<path d="M117.571 118.607H111.537V124.641H117.571V118.607Z" fill="#FFBAF9" stroke="#FFBAF9"/>
<path d="M123.605 118.607H117.571V124.641H123.605V118.607Z" fill="#FFBAF9" stroke="#FFBAF9"/>
<path d="M129.638 118.607H123.604V124.641H129.638V118.607Z" fill="#FFBAF9" stroke="#FFBAF9"/>
<path d="M135.672 118.607H129.638V124.641H135.672V118.607Z" fill="#FFBAF9" stroke="#FFBAF9"/>
<path d="M141.705 118.607H135.671V124.641H141.705V118.607Z" fill="#FFBAF9" stroke="#FFBAF9"/>
<path d="M147.739 118.607H141.706V124.641H147.739V118.607Z" fill="#FFBAF9" stroke="#FFBAF9"/>
<path d="M153.772 118.607H147.739V124.641H153.772V118.607Z" fill="#FFBAF9" stroke="#FFBAF9"/>
<path d="M159.806 118.607H153.772V124.641H159.806V118.607Z" fill="#F91C86" stroke="#F91C86"/>
<path d="M165.84 118.607H159.806V124.641H165.84V118.607Z" fill="#F91C86" stroke="#F91C86"/>
<path d="M99.4702 124.641H93.4365V130.674H99.4702V124.641Z" fill="#F91C86" stroke="#F91C86"/>
<path d="M105.504 124.641H99.4702V130.674H105.504V124.641Z" fill="#F91C86" stroke="#F91C86"/>
<path d="M111.538 124.641H105.504V130.674H111.538V124.641Z" fill="#F91C86" stroke="#F91C86"/>
<path d="M117.571 124.641H111.537V130.674H117.571V124.641Z" fill="#F91C86" stroke="#F91C86"/>
<path d="M123.605 124.641H117.571V130.674H123.605V124.641Z" fill="#F91C86" stroke="#F91C86"/>
<path d="M129.638 124.641H123.604V130.674H129.638V124.641Z" fill="#FFBAF9" stroke="#FFBAF9"/>
<path d="M135.672 124.641H129.638V130.674H135.672V124.641Z" fill="#FFBAF9" stroke="#FFBAF9"/>
<path d="M141.705 124.641H135.671V130.674H141.705V124.641Z" fill="#FFBAF9" stroke="#FFBAF9"/>
<path d="M147.739 124.641H141.706V130.674H147.739V124.641Z" fill="#F91C86" stroke="#F91C86"/>
<path d="M153.772 124.641H147.739V130.674H153.772V124.641Z" fill="#F91C86" stroke="#F91C86"/>
<path d="M159.806 124.641H153.772V130.674H159.806V124.641Z" fill="#F91C86" stroke="#F91C86"/>
<path d="M165.84 124.641H159.806V130.674H165.84V124.641Z" fill="#F91C86" stroke="#F91C86"/>
<path d="M171.873 124.641H165.839V130.674H171.873V124.641Z" fill="#F91C86" stroke="#F91C86"/>
<path d="M87.4033 130.674H81.3696V136.708H87.4033V130.674Z" fill="#FFBAF9" stroke="#FFBAF9"/>
<path d="M93.437 130.674H87.4033V136.708H93.437V130.674Z" fill="#F91C86" stroke="#F91C86"/>
  <path d="M99.4702 130.674H93.4365V136.708H99.4702V130.674Z" fill="black" stroke="black"/>
  <path d="M105.504 130.674H99.4702V136.708H105.504V130.674Z" fill="black" stroke="black"/>
  <path d="M111.538 130.674H105.504V136.708H111.538V130.674Z" fill="black" stroke="black"/>
  <path d="M117.571 130.674H111.537V136.708H117.571V130.674Z" fill="black" stroke="black"/>
  <path d="M123.605 130.674H117.571V136.708H123.605V130.674Z" fill="black" stroke="black"/>
<path d="M129.638 130.674H123.604V136.708H129.638V130.674Z" fill="#FFBAF9" stroke="#FFBAF9"/>
<path d="M135.672 130.674H129.638V136.708H135.672V130.674Z" fill="#FFBAF9" stroke="#FFBAF9"/>
<path d="M141.705 130.674H135.671V136.708H141.705V130.674Z" fill="#FFBAF9" stroke="#FFBAF9"/>
  <path d="M147.739 130.674H141.706V136.708H147.739V130.674Z" fill="black" stroke="black"/>
  <path d="M153.772 130.674H147.739V136.708H153.772V130.674Z" fill="black" stroke="black"/>
  <path d="M159.806 130.674H153.772V136.708H159.806V130.674Z" fill="black" stroke="black"/>
  <path d="M165.84 130.674H159.806V136.708H165.84V130.674Z" fill="black" stroke="black"/>
  <path d="M171.873 130.674H165.839V136.708H171.873V130.674Z" fill="black" stroke="black"/>
<path d="M177.907 130.674H171.873V136.708H177.907V130.674Z" fill="#F91C86" stroke="#F91C86"/>
<path d="M183.94 130.674H177.907V136.708H183.94V130.674Z" fill="#F91C86" stroke="#F91C86"/>
<path d="M87.4033 136.708H81.3696V142.742H87.4033V136.708Z" fill="#FFBAF9" stroke="#FFBAF9"/>
<path d="M93.437 136.708H87.4033V142.742H93.437V136.708Z" fill="#F91C86" stroke="#F91C86"/>
<path d="M99.4702 136.708H93.4365V142.742H99.4702V136.708Z" fill="#F91C86" stroke="#F91C86"/>
<path d="M105.504 136.708H99.4702V142.742H105.504V136.708Z" fill="white" stroke="white"/>
<path d="M111.538 136.708H105.504V142.742H111.538V136.708Z" fill="black" stroke="black"/>
<path d="M123.605 136.708H117.571V142.742H123.605V136.708Z" fill="white" stroke="white"/>
<path d="M129.638 136.708H123.604V142.742H129.638V136.708Z" fill="#FFBAF9" stroke="#FFBAF9"/>
<path d="M135.672 136.708H129.638V142.742H135.672V136.708Z" fill="#FFBAF9" stroke="#FFBAF9"/>
<path d="M141.705 136.708H135.671V142.742H141.705V136.708Z" fill="#FFBAF9" stroke="#FFBAF9"/>
<path d="M147.739 136.708H141.706V142.742H147.739V136.708Z" fill="white" stroke="white"/>
<path d="M153.772 136.708H147.739V142.742H153.772V136.708Z" fill="black" stroke="black"/>
<path d="M165.84 136.708H159.806V142.742H165.84V136.708Z" fill="white" stroke="white"/>
<path d="M171.873 136.708H165.839V142.742H171.873V136.708Z" fill="#F91C86" stroke="#F91C86"/>
<path d="M177.907 136.708H171.873V142.742H177.907V136.708Z" fill="#F91C86" stroke="#F91C86"/>
<path d="M183.94 136.708H177.907V142.742H183.94V136.708Z" fill="#FFBAF9" stroke="#FFBAF9"/>
<path d="M87.4033 142.742H81.3696V148.775H87.4033V142.742Z" fill="#FFBAF9" stroke="#FFBAF9"/>
<path d="M93.437 142.742H87.4033V148.775H93.437V142.742Z" fill="#F91C86" stroke="#F91C86"/>
<path d="M99.4702 142.742H93.4365V148.775H99.4702V142.742Z" fill="#FFBAF9" stroke="#FFBAF9"/>
<path d="M105.504 142.742H99.4702V148.775H105.504V142.742Z" fill="white" stroke="white"/>
<path d="M111.538 142.742H105.504V148.775H111.538V142.742Z" fill="black" stroke="black"/>
<path d="M117.571 142.742H111.537V148.775H117.571V142.742Z" fill="black" stroke="black"/>
<path d="M123.605 142.742H117.571V148.775H123.605V142.742Z" fill="white" stroke="white"/>
<path d="M129.638 142.742H123.604V148.775H129.638V142.742Z" fill="#FFBAF9" stroke="#FFBAF9"/>
<path d="M135.672 142.742H129.638V148.775H135.672V142.742Z" fill="#FFBAF9" stroke="#FFBAF9"/>
<path d="M141.705 142.742H135.671V148.775H141.705V142.742Z" fill="#FFBAF9" stroke="#FFBAF9"/>
<path d="M147.739 142.742H141.706V148.775H147.739V142.742Z" fill="white" stroke="white"/>
<path d="M153.772 142.742H147.739V148.775H153.772V142.742Z" fill="black" stroke="black"/>
<path d="M159.806 142.742H153.772V148.775H159.806V142.742Z" fill="black" stroke="black"/>
<path d="M165.84 142.742H159.806V148.775H165.84V142.742Z" fill="white" stroke="white"/>
<path d="M171.873 142.742H165.839V148.775H171.873V142.742Z" fill="#FFBAF9" stroke="#FFBAF9"/>
<path d="M177.907 142.742H171.873V148.775H177.907V142.742Z" fill="#F91C86" stroke="#F91C86"/>
<path d="M183.94 142.742H177.907V148.775H183.94V142.742Z" fill="#FFBAF9" stroke="#FFBAF9"/>
<path d="M87.4033 148.775H81.3696V154.809H87.4033V148.775Z" fill="#FFBAF9" stroke="#FFBAF9"/>
<path d="M93.437 148.775H87.4033V154.809H93.437V148.775Z" fill="#F91C86" stroke="#F91C86"/>
<path d="M99.4702 148.775H93.4365V154.809H99.4702V148.775Z" fill="#FFBAF9" stroke="#FFBAF9"/>
<path d="M105.504 148.775H99.4702V154.809H105.504V148.775Z" fill="#FFBAF9" stroke="#FFBAF9"/>
<path d="M111.538 148.775H105.504V154.809H111.538V148.775Z" fill="#FFBAF9" stroke="#FFBAF9"/>
<path d="M117.571 148.775H111.537V154.809H117.571V148.775Z" fill="#FFBAF9" stroke="#FFBAF9"/>
<path d="M123.605 148.775H117.571V154.809H123.605V148.775Z" fill="#FFBAF9" stroke="#FFBAF9"/>
<path d="M129.638 148.775H123.604V154.809H129.638V148.775Z" fill="#FFBAF9" stroke="#FFBAF9"/>
<path d="M135.672 148.775H129.638V154.809H135.672V148.775Z" fill="#FFBAF9" stroke="#FFBAF9"/>
<path d="M141.705 148.775H135.671V154.809H141.705V148.775Z" fill="#FFBAF9" stroke="#FFBAF9"/>
<path d="M147.739 148.775H141.706V154.809H147.739V148.775Z" fill="#FFBAF9" stroke="#FFBAF9"/>
<path d="M153.772 148.775H147.739V154.809H153.772V148.775Z" fill="#FFBAF9" stroke="#FFBAF9"/>
<path d="M159.806 148.775H153.772V154.809H159.806V148.775Z" fill="#FFBAF9" stroke="#FFBAF9"/>
<path d="M165.84 148.775H159.806V154.809H165.84V148.775Z" fill="#FFBAF9" stroke="#FFBAF9"/>
<path d="M171.873 148.775H165.839V154.809H171.873V148.775Z" fill="#FFBAF9" stroke="#FFBAF9"/>
<path d="M177.907 148.775H171.873V154.809H177.907V148.775Z" fill="#F91C86" stroke="#F91C86"/>
<path d="M183.94 148.775H177.907V154.809H183.94V148.775Z" fill="#FFBAF9" stroke="#FFBAF9"/>
<path d="M87.4033 154.81H81.3696V160.843H87.4033V154.81Z" fill="#FFBAF9" stroke="#FFBAF9"/>
<path d="M93.437 154.81H87.4033V160.843H93.437V154.81Z" fill="#F91C86" stroke="#F91C86"/>
<path d="M99.4702 154.81H93.4365V160.843H99.4702V154.81Z" fill="#FFBAF9" stroke="#FFBAF9"/>
<path d="M105.504 154.81H99.4702V160.843H105.504V154.81Z" fill="#FFBAF9" stroke="#FFBAF9"/>
<path d="M111.538 154.81H105.504V160.843H111.538V154.81Z" fill="#FFBAF9" stroke="#FFBAF9"/>
<path d="M117.571 154.81H111.537V160.843H117.571V154.81Z" fill="#FFBAF9" stroke="#FFBAF9"/>
<path d="M123.605 154.81H117.571V160.843H123.605V154.81Z" fill="#FFBAF9" stroke="#FFBAF9"/>
<path d="M129.638 154.81H123.604V160.843H129.638V154.81Z" fill="#FFBAF9" stroke="#FFBAF9"/>
<path d="M135.672 154.81H129.638V160.843H135.672V154.81Z" fill="#FFBAF9" stroke="#FFBAF9"/>
<path d="M141.705 154.81H135.671V160.843H141.705V154.81Z" fill="#FFBAF9" stroke="#FFBAF9"/>
<path d="M147.739 154.81H141.706V160.843H147.739V154.81Z" fill="#FFBAF9" stroke="#FFBAF9"/>
<path d="M153.772 154.81H147.739V160.843H153.772V154.81Z" fill="#FFBAF9" stroke="#FFBAF9"/>
<path d="M159.806 154.81H153.772V160.843H159.806V154.81Z" fill="#FFBAF9" stroke="#FFBAF9"/>
<path d="M165.84 154.81H159.806V160.843H165.84V154.81Z" fill="#FFBAF9" stroke="#FFBAF9"/>
<path d="M171.873 154.81H165.839V160.843H171.873V154.81Z" fill="#FFBAF9" stroke="#FFBAF9"/>
<path d="M177.907 154.81H171.873V160.843H177.907V154.81Z" fill="#F91C86" stroke="#F91C86"/>
<path d="M183.94 154.81H177.907V160.843H183.94V154.81Z" fill="#FFBAF9" stroke="#FFBAF9"/>
<path d="M93.437 160.843H87.4033V166.877H93.437V160.843Z" fill="#F91C86" stroke="#F91C86"/>
<path d="M99.4702 160.843H93.4365V166.877H99.4702V160.843Z" fill="#FFBAF9" stroke="#FFBAF9"/>
<path d="M105.504 160.843H99.4702V166.877H105.504V160.843Z" fill="#FFBAF9" stroke="#FFBAF9"/>
<path d="M111.538 160.843H105.504V166.877H111.538V160.843Z" fill="#FFBAF9" stroke="#FFBAF9"/>
<path d="M117.571 160.843H111.537V166.877H117.571V160.843Z" fill="#FFBAF9" stroke="#FFBAF9"/>
<path d="M123.605 160.843H117.571V166.877H123.605V160.843Z" fill="#FFBAF9" stroke="#FFBAF9"/>
<path d="M129.638 160.843H123.604V166.877H129.638V160.843Z" fill="#F91C86" stroke="#F91C86"/>
<path d="M135.672 160.843H129.638V166.877H135.672V160.843Z" fill="#F91C86" stroke="#F91C86"/>
<path d="M141.705 160.843H135.671V166.877H141.705V160.843Z" fill="#F91C86" stroke="#F91C86"/>
<path d="M147.739 160.843H141.706V166.877H147.739V160.843Z" fill="#FFBAF9" stroke="#FFBAF9"/>
<path d="M153.772 160.843H147.739V166.877H153.772V160.843Z" fill="#FFBAF9" stroke="#FFBAF9"/>
<path d="M159.806 160.843H153.772V166.877H159.806V160.843Z" fill="#FFBAF9" stroke="#FFBAF9"/>
<path d="M165.84 160.843H159.806V166.877H165.84V160.843Z" fill="#FFBAF9" stroke="#FFBAF9"/>
<path d="M171.873 160.843H165.839V166.877H171.873V160.843Z" fill="#FFBAF9" stroke="#FFBAF9"/>
<path d="M177.907 160.843H171.873V166.877H177.907V160.843Z" fill="#F91C86" stroke="#F91C86"/>
<path d="M81.3696 166.876H75.3359V172.91H81.3696V166.876Z" fill="#F91C86" stroke="#F91C86"/>
<path d="M87.4033 166.876H81.3696V172.91H87.4033V166.876Z" fill="white" stroke="white"/>
<path d="M99.4702 166.876H93.4365V172.91H99.4702V166.876Z" fill="#FFBAF9" stroke="#FFBAF9"/>
<path d="M105.504 166.876H99.4702V172.91H105.504V166.876Z" fill="#FFBAF9" stroke="#FFBAF9"/>
<path d="M111.538 166.876H105.504V172.91H111.538V166.876Z" fill="#FFBAF9" stroke="#FFBAF9"/>
<path d="M117.571 166.876H111.537V172.91H117.571V166.876Z" fill="#FFBAF9" stroke="#FFBAF9"/>
<path d="M123.605 166.876H117.571V172.91H123.605V166.876Z" fill="#FFBAF9" stroke="#FFBAF9"/>
<path d="M129.638 166.876H123.604V172.91H129.638V166.876Z" fill="#FFBAF9" stroke="#FFBAF9"/>
<path d="M135.672 166.876H129.638V172.91H135.672V166.876Z" fill="#FFBAF9" stroke="#FFBAF9"/>
<path d="M141.705 166.876H135.671V172.91H141.705V166.876Z" fill="#FFBAF9" stroke="#FFBAF9"/>
<path d="M147.739 166.876H141.706V172.91H147.739V166.876Z" fill="#FFBAF9" stroke="#FFBAF9"/>
<path d="M153.772 166.876H147.739V172.91H153.772V166.876Z" fill="#FFBAF9" stroke="#FFBAF9"/>
<path d="M159.806 166.876H153.772V172.91H159.806V166.876Z" fill="#FFBAF9" stroke="#FFBAF9"/>
<path d="M165.84 166.876H159.806V172.91H165.84V166.876Z" fill="#FFBAF9" stroke="#FFBAF9"/>
<path d="M171.873 166.876H165.839V172.91H171.873V166.876Z" fill="#FFBAF9" stroke="#FFBAF9"/>
<path d="M183.94 166.876H177.907V172.91H183.94V166.876Z" fill="#F91C86" stroke="#F91C86"/>
<path d="M189.974 166.876H183.94V172.91H189.974V166.876Z" fill="white" stroke="white"/>
<path d="M81.3696 172.911H75.3359V178.944H81.3696V172.911Z" fill="#F91C86" stroke="#F91C86"/>
<path d="M87.4033 172.911H81.3696V178.944H87.4033V172.911Z" fill="#F91C86" stroke="#F91C86"/>
<path d="M99.4702 172.911H93.4365V178.944H99.4702V172.911Z" fill="#FFBAF9" stroke="#FFBAF9"/>
<path d="M105.504 172.911H99.4702V178.944H105.504V172.911Z" fill="#FFBAF9" stroke="#FFBAF9"/>
<path d="M111.538 172.911H105.504V178.944H111.538V172.911Z" fill="#FFBAF9" stroke="#FFBAF9"/>
<path d="M117.571 172.911H111.537V178.944H117.571V172.911Z" fill="#F91C86" stroke="#F91C86"/>
<path d="M123.605 172.911H117.571V178.944H123.605V172.911Z" fill="#F91C86" stroke="#F91C86"/>
<path d="M129.638 172.911H123.604V178.944H129.638V172.911Z" fill="#F91C86" stroke="#F91C86"/>
<path d="M135.672 172.911H129.638V178.944H135.672V172.911Z" fill="#F91C86" stroke="#F91C86"/>
<path d="M141.705 172.911H135.671V178.944H141.705V172.911Z" fill="#F91C86" stroke="#F91C86"/>
<path d="M147.739 172.911H141.706V178.944H147.739V172.911Z" fill="#F91C86" stroke="#F91C86"/>
<path d="M153.772 172.911H147.739V178.944H153.772V172.911Z" fill="#F91C86" stroke="#F91C86"/>
<path d="M159.806 172.911H153.772V178.944H159.806V172.911Z" fill="#FFBAF9" stroke="#FFBAF9"/>
<path d="M165.84 172.911H159.806V178.944H165.84V172.911Z" fill="#FFBAF9" stroke="#FFBAF9"/>
<path d="M171.873 172.911H165.839V178.944H171.873V172.911Z" fill="#FFBAF9" stroke="#FFBAF9"/>
<path d="M183.94 172.911H177.907V178.944H183.94V172.911Z" fill="#F91C86" stroke="#F91C86"/>
<path d="M189.974 172.911H183.94V178.944H189.974V172.911Z" fill="#F91C86" stroke="#F91C86"/>
<path d="M99.4702 178.944H93.4365V184.978H99.4702V178.944Z" fill="#FFBAF9" stroke="#FFBAF9"/>
<path d="M105.504 178.944H99.4702V184.978H105.504V178.944Z" fill="#FFBAF9" stroke="#FFBAF9"/>
<path d="M111.538 178.944H105.504V184.978H111.538V178.944Z" fill="#FFBAF9" stroke="#FFBAF9"/>
<path d="M117.571 178.944H111.537V184.978H117.571V178.944Z" fill="#FFBAF9" stroke="#FFBAF9"/>
<path d="M123.605 178.944H117.571V184.978H123.605V178.944Z" fill="#F91C86" stroke="#F91C86"/>
<path d="M129.638 178.944H123.604V184.978H129.638V178.944Z" fill="white" stroke="white"/>
<path d="M135.672 178.944H129.638V184.978H135.672V178.944Z" fill="white" stroke="white"/>
<path d="M141.705 178.944H135.671V184.978H141.705V178.944Z" fill="white" stroke="white"/>
<path d="M147.739 178.944H141.706V184.978H147.739V178.944Z" fill="#F91C86" stroke="#F91C86"/>
<path d="M153.772 178.944H147.739V184.978H153.772V178.944Z" fill="#FFBAF9" stroke="#FFBAF9"/>
<path d="M159.806 178.944H153.772V184.978H159.806V178.944Z" fill="#FFBAF9" stroke="#FFBAF9"/>
<path d="M165.84 178.944H159.806V184.978H165.84V178.944Z" fill="#FFBAF9" stroke="#FFBAF9"/>
<path d="M171.873 178.944H165.839V184.978H171.873V178.944Z" fill="#FFBAF9" stroke="#FFBAF9"/>
<path d="M105.504 184.978H99.4702V191.012H105.504V184.978Z" fill="#FFBAF9" stroke="#FFBAF9"/>
<path d="M111.538 184.978H105.504V191.012H111.538V184.978Z" fill="#FFBAF9" stroke="#FFBAF9"/>
<path d="M117.571 184.978H111.537V191.012H117.571V184.978Z" fill="#FFBAF9" stroke="#FFBAF9"/>
<path d="M123.605 184.978H117.571V191.012H123.605V184.978Z" fill="#FFBAF9" stroke="#FFBAF9"/>
<path d="M129.638 184.978H123.604V191.012H129.638V184.978Z" fill="#F91C86" stroke="#F91C86"/>
<path d="M135.672 184.978H129.638V191.012H135.672V184.978Z" fill="#F91C86" stroke="#F91C86"/>
<path d="M141.705 184.978H135.671V191.012H141.705V184.978Z" fill="#F91C86" stroke="#F91C86"/>
<path d="M147.739 184.978H141.706V191.012H147.739V184.978Z" fill="#FFBAF9" stroke="#FFBAF9"/>
<path d="M153.772 184.978H147.739V191.012H153.772V184.978Z" fill="#FFBAF9" stroke="#FFBAF9"/>
<path d="M159.806 184.978H153.772V191.012H159.806V184.978Z" fill="#FFBAF9" stroke="#FFBAF9"/>
<path d="M165.84 184.978H159.806V191.012H165.84V184.978Z" fill="#FFBAF9" stroke="#FFBAF9"/>
<path d="M111.538 191.012H105.504V197.045H111.538V191.012Z" fill="#FFBAF9" stroke="#FFBAF9"/>
<path d="M117.571 191.012H111.537V197.045H117.571V191.012Z" fill="#FFBAF9" stroke="#FFBAF9"/>
<path d="M123.605 191.012H117.571V197.045H123.605V191.012Z" fill="#FFBAF9" stroke="#FFBAF9"/>
<path d="M129.638 191.012H123.604V197.045H129.638V191.012Z" fill="#FFBAF9" stroke="#FFBAF9"/>
<path d="M135.672 191.012H129.638V197.045H135.672V191.012Z" fill="#FFBAF9" stroke="#FFBAF9"/>
<path d="M141.705 191.012H135.671V197.045H141.705V191.012Z" fill="#FFBAF9" stroke="#FFBAF9"/>
<path d="M147.739 191.012H141.706V197.045H147.739V191.012Z" fill="#FFBAF9" stroke="#FFBAF9"/>
<path d="M153.772 191.012H147.739V197.045H153.772V191.012Z" fill="#FFBAF9" stroke="#FFBAF9"/>
<path d="M159.806 191.012H153.772V197.045H159.806V191.012Z" fill="#FFBAF9" stroke="#FFBAF9"/>
<path d="M117.571 197.045H111.537V203.079H117.571V197.045Z" fill="#FFBAF9" stroke="#FFBAF9"/>
<path d="M123.605 197.045H117.571V203.079H123.605V197.045Z" fill="#FFBAF9" stroke="#FFBAF9"/>
<path d="M129.638 197.045H123.604V203.079H129.638V197.045Z" fill="#FFBAF9" stroke="#FFBAF9"/>
<path d="M135.672 197.045H129.638V203.079H135.672V197.045Z" fill="#FFBAF9" stroke="#FFBAF9"/>
<path d="M141.705 197.045H135.671V203.079H141.705V197.045Z" fill="#FFBAF9" stroke="#FFBAF9"/>
<path d="M147.739 197.045H141.706V203.079H147.739V197.045Z" fill="#FFBAF9" stroke="#FFBAF9"/>
<path d="M153.772 197.045H147.739V203.079H153.772V197.045Z" fill="#FFBAF9" stroke="#FFBAF9"/>
<path d="M117.571 203.079H111.537V209.113H117.571V203.079Z" fill="#F91C86" stroke="#F91C86"/>
<path d="M123.605 203.079H117.571V209.113H123.605V203.079Z" fill="#FFBAF9" stroke="#FFBAF9"/>
<path d="M129.638 203.079H123.604V209.113H129.638V203.079Z" fill="#FFBAF9" stroke="#FFBAF9"/>
<path d="M135.672 203.079H129.638V209.113H135.672V203.079Z" fill="#FFBAF9" stroke="#FFBAF9"/>
<path d="M141.705 203.079H135.671V209.113H141.705V203.079Z" fill="#FFBAF9" stroke="#FFBAF9"/>
<path d="M147.739 203.079H141.706V209.113H147.739V203.079Z" fill="#FFBAF9" stroke="#FFBAF9"/>
<path d="M153.772 203.079H147.739V209.113H153.772V203.079Z" fill="#F91C86" stroke="#F91C86"/>
<path d="M117.571 209.113H111.537V215.147H117.571V209.113Z" fill="#F91C86" stroke="#F91C86"/>
<path d="M123.605 209.113H117.571V215.147H123.605V209.113Z" fill="#F91C86" stroke="#F91C86"/>
<path d="M129.638 209.113H123.604V215.147H129.638V209.113Z" fill="#F91C86" stroke="#F91C86"/>
<path d="M135.672 209.113H129.638V215.147H135.672V209.113Z" fill="#F91C86" stroke="#F91C86"/>
<path d="M141.705 209.113H135.671V215.147H141.705V209.113Z" fill="#F91C86" stroke="#F91C86"/>
<path d="M147.739 209.113H141.706V215.147H147.739V209.113Z" fill="#F91C86" stroke="#F91C86"/>
<path d="M153.772 209.113H147.739V215.147H153.772V209.113Z" fill="#F91C86" stroke="#F91C86"/>
<path d="M117.571 215.146H111.537V221.18H117.571V215.146Z" fill="#FFBAF9" stroke="#FFBAF9"/>
<path d="M123.605 215.146H117.571V221.18H123.605V215.146Z" fill="#F91C86" stroke="#F91C86"/>
<path d="M129.638 215.146H123.604V221.18H129.638V215.146Z" fill="#F91C86" stroke="#F91C86"/>
<path d="M135.672 215.146H129.638V221.18H135.672V215.146Z" fill="#F91C86" stroke="#F91C86"/>
<path d="M141.705 215.146H135.671V221.18H141.705V215.146Z" fill="#F91C86" stroke="#F91C86"/>
<path d="M147.739 215.146H141.706V221.18H147.739V215.146Z" fill="#F91C86" stroke="#F91C86"/>
<path d="M153.772 215.146H147.739V221.18H153.772V215.146Z" fill="#F91C86" stroke="#F91C86"/>
<path d="M117.571 221.18H111.537V227.214H117.571V221.18Z" fill="#FFBAF9" stroke="#FFBAF9"/>
<path d="M123.605 221.18H117.571V227.214H123.605V221.18Z" fill="#FFBAF9" stroke="#FFBAF9"/>
<path d="M129.638 221.18H123.604V227.214H129.638V221.18Z" fill="#FFBAF9" stroke="#FFBAF9"/>
<path d="M135.672 221.18H129.638V227.214H135.672V221.18Z" fill="#FFBAF9" stroke="#FFBAF9"/>
<path d="M141.705 221.18H135.671V227.214H141.705V221.18Z" fill="#FFBAF9" stroke="#FFBAF9"/>
<path d="M147.739 221.18H141.706V227.214H147.739V221.18Z" fill="#FFBAF9" stroke="#FFBAF9"/>
<path d="M153.772 221.18H147.739V227.214H153.772V221.18Z" fill="#F91C86" stroke="#F91C86"/>
<path d="M117.571 227.214H111.537V233.248H117.571V227.214Z" fill="#FFBAF9" stroke="#FFBAF9"/>
<path d="M123.605 227.214H117.571V233.248H123.605V227.214Z" fill="#FFBAF9" stroke="#FFBAF9"/>
<path d="M129.638 227.214H123.604V233.248H129.638V227.214Z" fill="#FFBAF9" stroke="#FFBAF9"/>
<path d="M135.672 227.214H129.638V233.248H135.672V227.214Z" fill="#FFBAF9" stroke="#FFBAF9"/>
<path d="M141.705 227.214H135.671V233.248H141.705V227.214Z" fill="#FFBAF9" stroke="#FFBAF9"/>
<path d="M147.739 227.214H141.706V233.248H147.739V227.214Z" fill="#FFBAF9" stroke="#FFBAF9"/>
<path d="M153.772 227.214H147.739V233.248H153.772V227.214Z" fill="#F91C86" stroke="#F91C86"/>
<path d="M117.571 233.248H111.537V239.281H117.571V233.248Z" fill="#FFBAF9" stroke="#FFBAF9"/>
<path d="M123.605 233.248H117.571V239.281H123.605V233.248Z" fill="#FFBAF9" stroke="#FFBAF9"/>
<path d="M129.638 233.248H123.604V239.281H129.638V233.248Z" fill="#FFBAF9" stroke="#FFBAF9"/>
<path d="M135.672 233.248H129.638V239.281H135.672V233.248Z" fill="#FFBAF9" stroke="#FFBAF9"/>
<path d="M141.705 233.248H135.671V239.281H141.705V233.248Z" fill="#FFBAF9" stroke="#FFBAF9"/>
<path d="M147.739 233.248H141.706V239.281H147.739V233.248Z" fill="#FFBAF9" stroke="#FFBAF9"/>
<path d="M153.772 233.248H147.739V239.281H153.772V233.248Z" fill="#F91C86" stroke="#F91C86"/>
<path d="M117.571 239.281H111.537V245.315H117.571V239.281Z" fill="#FFBAF9" stroke="#FFBAF9"/>
<path d="M123.605 239.281H117.571V245.315H123.605V239.281Z" fill="#FFBAF9" stroke="#FFBAF9"/>
<path d="M129.638 239.281H123.604V245.315H129.638V239.281Z" fill="#FFBAF9" stroke="#FFBAF9"/>
<path d="M135.672 239.281H129.638V245.315H135.672V239.281Z" fill="#FFBAF9" stroke="#FFBAF9"/>
<path d="M141.705 239.281H135.671V245.315H141.705V239.281Z" fill="#FFBAF9" stroke="#FFBAF9"/>
<path d="M147.739 239.281H141.706V245.315H147.739V239.281Z" fill="#FFBAF9" stroke="#FFBAF9"/>
<path d="M153.772 239.281H147.739V245.315H153.772V239.281Z" fill="#F91C86" stroke="#F91C86"/>
<path d="M117.571 245.315H111.537V251.349H117.571V245.315Z" fill="#FFBAF9" stroke="#FFBAF9"/>
<path d="M123.605 245.315H117.571V251.349H123.605V245.315Z" fill="#FFBAF9" stroke="#FFBAF9"/>
<path d="M129.638 245.315H123.604V251.349H129.638V245.315Z" fill="#FFBAF9" stroke="#FFBAF9"/>
<path d="M135.672 245.315H129.638V251.349H135.672V245.315Z" fill="#FFBAF9" stroke="#FFBAF9"/>
<path d="M141.705 245.315H135.671V251.349H141.705V245.315Z" fill="#FFBAF9" stroke="#FFBAF9"/>
<path d="M147.739 245.315H141.706V251.349H147.739V245.315Z" fill="#FFBAF9" stroke="#FFBAF9"/>
<path d="M153.772 245.315H147.739V251.349H153.772V245.315Z" fill="#F91C86" stroke="#F91C86"/>
<path d="M123.605 251.349H117.571V257.383H123.605V251.349Z" fill="#FFBAF9" stroke="#FFBAF9"/>
<path d="M129.638 251.349H123.604V257.383H129.638V251.349Z" fill="#FFBAF9" stroke="#FFBAF9"/>
<path d="M135.672 251.349H129.638V257.383H135.672V251.349Z" fill="#FFBAF9" stroke="#FFBAF9"/>
<path d="M141.705 251.349H135.671V257.383H141.705V251.349Z" fill="#FFBAF9" stroke="#FFBAF9"/>
<path d="M147.739 251.349H141.706V257.383H147.739V251.349Z" fill="#F91C86" stroke="#F91C86"/>
<path d="M129.638 257.383H123.604V263.417H129.638V257.383Z" fill="#FFBAF9" stroke="#FFBAF9"/>
<path d="M135.672 257.383H129.638V263.417H135.672V257.383Z" fill="#FFBAF9" stroke="#FFBAF9"/>
<path d="M141.705 257.383H135.671V263.417H141.705V257.383Z" fill="#00FF00" stroke="#00FF00"/>
<path d="M159.806 100.506H153.772V106.54H159.806V100.506Z" fill="#00FF00" stroke="#00FF00"/>
<path d="M177.907 100.506H171.873V106.54H177.907V100.506Z" fill="#00FF00" stroke="#00FF00"/>
<path d="M183.94 100.506H177.907V106.54H183.94V100.506Z" fill="#00FF00" stroke="#00FF00"/>
<path d="M165.84 106.54H159.806V112.573H165.84V106.54Z" fill="#00FF00" stroke="#00FF00"/>
<path d="M196.008 112.573H189.974V118.607H196.008V112.573Z" fill="#00FF00" stroke="#00FF00"/>
<path d="M202.041 112.573H196.008V118.607H202.041V112.573Z" fill="#00FF00" stroke="#00FF00"/>
<path d="M105.504 82.4048H99.4702V88.4386H105.504V82.4048Z" fill="#00FF00" stroke="#00FF00"/>
<path d="M183.94 82.4048H177.907V88.4386H183.94V82.4048Z" fill="#00FF00" stroke="#00FF00"/>
<path d="M189.974 82.4048H183.94V88.4386H189.974V82.4048Z" fill="#00FF00" stroke="#00FF00"/>
<path d="M183.94 76.3711H177.907V82.4049H183.94V76.3711Z" fill="#00FF00" stroke="#00FF00"/>
<path d="M99.4702 88.4385H93.4365V94.4722H99.4702V88.4385Z" fill="#00FF00" stroke="#00FF00"/>
<path d="M165.84 88.4385H159.806V94.4722H165.84V88.4385Z" fill="#00FF00" stroke="#00FF00"/>
<path d="M93.437 94.4722H87.4033V100.506H93.437V94.4722Z" fill="#00FF00" stroke="#00FF00"/>
<path d="M171.873 94.4722H165.839V100.506H171.873V94.4722Z" fill="#00FF00" stroke="#00FF00"/>
<path d="M87.4033 184.978H81.3696V191.012H87.4033V184.978Z" fill="#00FF00" stroke="#00FF00"/>
<path d="M81.3696 191.012H75.3359V197.045H81.3696V191.012Z" fill="#00FF00" stroke="#00FF00"/>
<path d="M81.3696 197.045H75.3359V203.079H81.3696V197.045Z" fill="#00FF00" stroke="#00FF00"/>
<path d="M189.974 209.113H183.94V215.147H189.974V209.113Z" fill="#00FF00" stroke="#00FF00"/>
<path d="M196.008 215.146H189.974V221.18H196.008V215.146Z" fill="#00FF00" stroke="#00FF00"/>
<path d="M196.008 221.18H189.974V227.214H196.008V221.18Z" fill="#00FF00" stroke="#00FF00"/>
<path d="M196.008 227.214H189.974V233.248H196.008V227.214Z" fill="#00FF00" stroke="#00FF00"/>
<path d="M214.108 106.54H208.075V112.573H214.108V106.54Z" fill="#00FF00" stroke="#00FF00"/>
<path d="M208.075 112.573H202.041V118.607H208.075V112.573Z" fill="#00FF00" stroke="#00FF00"/>
<path d="M214.108 76.3711H208.075V82.4049H214.108V76.3711Z" fill="#00FF00" stroke="#00FF00"/>
<path d="M214.108 94.4722H208.075V100.506H214.108V94.4722Z" fill="#00FF00" stroke="#00FF00"/>
<path d="M220.142 82.4048H214.108V88.4386H220.142V82.4048Z" fill="#00FF00" stroke="#00FF00"/>
<path d="M220.142 88.4385H214.108V94.4722H220.142V88.4385Z" fill="#00FF00" stroke="#00FF00"/>
<path d="M111.538 70.3369H105.504V76.3707H111.538V70.3369Z" fill="#00FF00" stroke="#00FF00"/>
<path d="M117.571 70.3369H111.538V76.3707H117.571V70.3369Z" fill="#00FF00" stroke="#00FF00"/>
<path d="M123.605 64.3032H117.571V70.337H123.605V64.3032Z" fill="#00FF00" stroke="#00FF00"/>
<path d="M141.705 64.3032H135.671V70.337H141.705V64.3032Z" fill="#00FF00" stroke="#00FF00"/>
<path d="M171.873 64.3032H165.839V70.337H171.873V64.3032Z" fill="#00FF00" stroke="#00FF00"/>
<path d="M99.4702 58.27H93.4365V64.3038H99.4702V58.27Z" fill="#00FF00" stroke="#00FF00"/>
<path d="M129.638 58.27H123.604V64.3038H129.638V58.27Z" fill="#00FF00" stroke="#00FF00"/>
<path d="M135.672 58.27H129.638V64.3038H135.672V58.27Z" fill="#00FF00" stroke="#00FF00"/>
<path d="M153.772 58.27H147.739V64.3038H153.772V58.27Z" fill="#00FF00" stroke="#00FF00"/>
<path d="M165.84 58.27H159.806V64.3038H165.84V58.27Z" fill="#00FF00" stroke="#00FF00"/>
<path d="M105.504 52.2358H99.47V58.2696H105.504V52.2358Z" fill="#00FF00" stroke="#00FF00"/>
<path d="M159.806 52.2358H153.772V58.2696H159.806V52.2358Z" fill="#00FF00" stroke="#00FF00"/>
  <path d="M135.672 263.416H129.638V269.45H135.672V263.416Z" fill="#F91C86" stroke="#F91C86"/>
<path d="M87.4033 100.506H81.3696V106.54H87.4033V100.506Z" fill="#006800" stroke="#006800"/>
<path d="M93.437 100.506H87.4033V106.54H93.437V100.506Z" fill="#006800" stroke="#006800"/>
<path d="M99.4702 100.506H93.4365V106.54H99.4702V100.506Z" fill="#006800" stroke="#006800"/>
<path d="M147.739 100.506H141.706V106.54H147.739V100.506Z" fill="#006800" stroke="#006800"/>
<path d="M153.773 100.506H147.739V106.54H153.773V100.506Z" fill="#006800" stroke="#006800"/>
<path d="M165.84 100.506H159.806V106.54H165.84V100.506Z" fill="#006800" stroke="#006800"/>
<path d="M171.873 100.506H165.84V106.54H171.873V100.506Z" fill="#006800" stroke="#006800"/>
<path d="M189.974 100.506H183.94V106.54H189.974V100.506Z" fill="#006800" stroke="#006800"/>
<path d="M196.008 100.506H189.974V106.54H196.008V100.506Z" fill="#006800" stroke="#006800"/>
<path d="M202.041 100.506H196.008V106.54H202.041V100.506Z" fill="#006800" stroke="#006800"/>
<path d="M87.4033 106.54H81.3696V112.573H87.4033V106.54Z" fill="#006800" stroke="#006800"/>
<path d="M93.437 106.54H87.4033V112.573H93.437V106.54Z" fill="#006800" stroke="#006800"/>
<path d="M99.4702 106.54H93.4365V112.573H99.4702V106.54Z" fill="#006800" stroke="#006800"/>
<path d="M153.773 106.54H147.739V112.573H153.773V106.54Z" fill="#006800" stroke="#006800"/>
<path d="M159.806 106.54H153.772V112.573H159.806V106.54Z" fill="#006800" stroke="#006800"/>
<path d="M171.873 106.54H165.84V112.573H171.873V106.54Z" fill="#006800" stroke="#006800"/>
<path d="M177.907 106.54H171.873V112.573H177.907V106.54Z" fill="#006800" stroke="#006800"/>
<path d="M183.94 106.54H177.907V112.573H183.94V106.54Z" fill="#006800" stroke="#006800"/>
<path d="M189.974 106.54H183.94V112.573H189.974V106.54Z" fill="#006800" stroke="#006800"/>
<path d="M196.008 106.54H189.974V112.573H196.008V106.54Z" fill="#006800" stroke="#006800"/>
<path d="M202.041 106.54H196.008V112.573H202.041V106.54Z" fill="#006800" stroke="#006800"/>
<path d="M87.4033 112.573H81.3696V118.607H87.4033V112.573Z" fill="#006800" stroke="#006800"/>
<path d="M93.437 112.573H87.4033V118.607H93.437V112.573Z" fill="#006800" stroke="#006800"/>
<path d="M159.806 112.573H153.772V118.607H159.806V112.573Z" fill="#006800" stroke="#006800"/>
<path d="M165.84 112.573H159.806V118.607H165.84V112.573Z" fill="#006800" stroke="#006800"/>
<path d="M171.873 112.573H165.84V118.607H171.873V112.573Z" fill="#006800" stroke="#006800"/>
<path d="M177.907 112.573H171.873V118.607H177.907V112.573Z" fill="#006800" stroke="#006800"/>
<path d="M183.94 112.573H177.907V118.607H183.94V112.573Z" fill="#006800" stroke="#006800"/>
<path d="M189.974 112.573H183.94V118.607H189.974V112.573Z" fill="#006800" stroke="#006800"/>
<path d="M93.437 82.4048H87.4033V88.4386H93.437V82.4048Z" fill="#006800" stroke="#006800"/>
<path d="M99.4702 82.4048H93.4365V88.4386H99.4702V82.4048Z" fill="#006800" stroke="#006800"/>
<path d="M111.538 82.4048H105.504V88.4386H111.538V82.4048Z" fill="#006800" stroke="#006800"/>
<path d="M117.571 82.4048H111.538V88.4386H117.571V82.4048Z" fill="#006800" stroke="#006800"/>
<path d="M123.605 82.4048H117.571V88.4386H123.605V82.4048Z" fill="#006800" stroke="#006800"/>
<path d="M129.638 82.4048H123.604V88.4386H129.638V82.4048Z" fill="#006800" stroke="#006800"/>
<path d="M135.672 82.4048H129.638V88.4386H135.672V82.4048Z" fill="#006800" stroke="#006800"/>
<path d="M141.706 82.4048H135.672V88.4386H141.706V82.4048Z" fill="#006800" stroke="#006800"/>
<path d="M147.739 82.4048H141.706V88.4386H147.739V82.4048Z" fill="#006800" stroke="#006800"/>
<path d="M153.773 82.4048H147.739V88.4386H153.773V82.4048Z" fill="#006800" stroke="#006800"/>
<path d="M159.806 82.4048H153.772V88.4386H159.806V82.4048Z" fill="#006800" stroke="#006800"/>
<path d="M165.84 82.4048H159.806V88.4386H165.84V82.4048Z" fill="#006800" stroke="#006800"/>
<path d="M171.873 82.4048H165.84V88.4386H171.873V82.4048Z" fill="#006800" stroke="#006800"/>
<path d="M177.907 82.4048H171.873V88.4386H177.907V82.4048Z" fill="#006800" stroke="#006800"/>
<path d="M93.437 76.3711H87.4033V82.4049H93.437V76.3711Z" fill="#006800" stroke="#006800"/>
<path d="M99.4702 76.3711H93.4365V82.4049H99.4702V76.3711Z" fill="#006800" stroke="#006800"/>
<path d="M105.504 76.3711H99.4702V82.4049H105.504V76.3711Z" fill="#006800" stroke="#006800"/>
<path d="M111.538 76.3711H105.504V82.4049H111.538V76.3711Z" fill="#006800" stroke="#006800"/>
<path d="M117.571 76.3711H111.538V82.4049H117.571V76.3711Z" fill="#006800" stroke="#006800"/>
<path d="M123.605 76.3711H117.571V82.4049H123.605V76.3711Z" fill="#006800" stroke="#006800"/>
<path d="M129.638 76.3711H123.604V82.4049H129.638V76.3711Z" fill="#006800" stroke="#006800"/>
<path d="M135.672 76.3711H129.638V82.4049H135.672V76.3711Z" fill="#006800" stroke="#006800"/>
<path d="M141.706 76.3711H135.672V82.4049H141.706V76.3711Z" fill="#006800" stroke="#006800"/>
<path d="M147.739 76.3711H141.706V82.4049H147.739V76.3711Z" fill="#006800" stroke="#006800"/>
<path d="M153.773 76.3711H147.739V82.4049H153.773V76.3711Z" fill="#006800" stroke="#006800"/>
<path d="M159.806 76.3711H153.772V82.4049H159.806V76.3711Z" fill="#006800" stroke="#006800"/>
<path d="M165.84 76.3711H159.806V82.4049H165.84V76.3711Z" fill="#006800" stroke="#006800"/>
<path d="M171.873 76.3711H165.84V82.4049H171.873V76.3711Z" fill="#006800" stroke="#006800"/>
<path d="M177.907 76.3711H171.873V82.4049H177.907V76.3711Z" fill="#006800" stroke="#006800"/>
<path d="M189.974 76.3711H183.94V82.4049H189.974V76.3711Z" fill="#006800" stroke="#006800"/>
<path d="M202.041 76.3711H196.008V82.4049H202.041V76.3711Z" fill="#006800" stroke="#006800"/>
<path d="M87.4033 88.4385H81.3696V94.4722H87.4033V88.4385Z" fill="#006800" stroke="#006800"/>
<path d="M93.437 88.4385H87.4033V94.4722H93.437V88.4385Z" fill="#006800" stroke="#006800"/>
<path d="M105.504 88.4385H99.4702V94.4722H105.504V88.4385Z" fill="#006800" stroke="#006800"/>
<path d="M111.538 88.4385H105.504V94.4722H111.538V88.4385Z" fill="#006800" stroke="#006800"/>
<path d="M117.571 88.4385H111.538V94.4722H117.571V88.4385Z" fill="#006800" stroke="#006800"/>
<path d="M141.706 88.4385H135.672V94.4722H141.706V88.4385Z" fill="#006800" stroke="#006800"/>
<path d="M147.739 88.4385H141.706V94.4722H147.739V88.4385Z" fill="#006800" stroke="#006800"/>
<path d="M153.773 88.4385H147.739V94.4722H153.773V88.4385Z" fill="#006800" stroke="#006800"/>
<path d="M159.806 88.4385H153.772V94.4722H159.806V88.4385Z" fill="#006800" stroke="#006800"/>
<path d="M171.873 88.4385H165.84V94.4722H171.873V88.4385Z" fill="#006800" stroke="#006800"/>
<path d="M177.907 88.4385H171.873V94.4722H177.907V88.4385Z" fill="#006800" stroke="#006800"/>
<path d="M183.94 88.4385H177.907V94.4722H183.94V88.4385Z" fill="#006800" stroke="#006800"/>
<path d="M189.974 88.4385H183.94V94.4722H189.974V88.4385Z" fill="#006800" stroke="#006800"/>
<path d="M196.008 88.4385H189.974V94.4722H196.008V88.4385Z" fill="#006800" stroke="#006800"/>
<path d="M202.041 88.4385H196.008V94.4722H202.041V88.4385Z" fill="#006800" stroke="#006800"/>
<path d="M87.4033 94.4722H81.3696V100.506H87.4033V94.4722Z" fill="#006800" stroke="#006800"/>
<path d="M99.4702 94.4722H93.4365V100.506H99.4702V94.4722Z" fill="#006800" stroke="#006800"/>
<path d="M105.504 94.4722H99.4702V100.506H105.504V94.4722Z" fill="#006800" stroke="#006800"/>
<path d="M147.739 94.4722H141.706V100.506H147.739V94.4722Z" fill="#006800" stroke="#006800"/>
<path d="M153.773 94.4722H147.739V100.506H153.773V94.4722Z" fill="#006800" stroke="#006800"/>
<path d="M159.806 94.4722H153.772V100.506H159.806V94.4722Z" fill="#006800" stroke="#006800"/>
<path d="M165.84 94.4722H159.806V100.506H165.84V94.4722Z" fill="#006800" stroke="#006800"/>
<path d="M177.907 94.4722H171.873V100.506H177.907V94.4722Z" fill="#006800" stroke="#006800"/>
<path d="M183.94 94.4722H177.907V100.506H183.94V94.4722Z" fill="#006800" stroke="#006800"/>
<path d="M189.974 94.4722H183.94V100.506H189.974V94.4722Z" fill="#006800" stroke="#006800"/>
<path d="M196.008 94.4722H189.974V100.506H196.008V94.4722Z" fill="#006800" stroke="#006800"/>
<path d="M202.041 94.4722H196.008V100.506H202.041V94.4722Z" fill="#006800" stroke="#006800"/>
<path d="M93.437 118.607H87.4033V124.641H93.437V118.607Z" fill="#006800" stroke="#006800"/>
<path d="M171.873 118.607H165.84V124.641H171.873V118.607Z" fill="#006800" stroke="#006800"/>
<path d="M177.907 118.607H171.873V124.641H177.907V118.607Z" fill="#006800" stroke="#006800"/>
<path d="M183.94 118.607H177.907V124.641H183.94V118.607Z" fill="#006800" stroke="#006800"/>
<path d="M189.974 118.607H183.94V124.641H189.974V118.607Z" fill="#006800" stroke="#006800"/>
<path d="M196.008 118.607H189.974V124.641H196.008V118.607Z" fill="#006800" stroke="#006800"/>
<path d="M202.041 118.607H196.008V124.641H202.041V118.607Z" fill="#006800" stroke="#006800"/>
<path d="M93.437 124.641H87.4033V130.674H93.437V124.641Z" fill="#006800" stroke="#006800"/>
<path d="M177.907 124.641H171.873V130.674H177.907V124.641Z" fill="#006800" stroke="#006800"/>
<path d="M183.94 124.641H177.907V130.674H183.94V124.641Z" fill="#006800" stroke="#006800"/>
<path d="M189.974 124.641H183.94V130.674H189.974V124.641Z" fill="#006800" stroke="#006800"/>
<path d="M81.3696 136.708H75.3359V142.742H81.3696V136.708Z" fill="#006800" stroke="#006800"/>
<path d="M81.3696 142.742H75.3359V148.775H81.3696V142.742Z" fill="#006800" stroke="#006800"/>
<path d="M81.3696 148.776H75.3359V154.81H81.3696V148.776Z" fill="#006800" stroke="#006800"/>
<path d="M81.3696 154.81H75.3359V160.843H81.3696V154.81Z" fill="#006800" stroke="#006800"/>
<path d="M81.3696 160.843H75.3359V166.877H81.3696V160.843Z" fill="#006800" stroke="#006800"/>
<path d="M87.4033 160.843H81.3696V166.877H87.4033V160.843Z" fill="#006800" stroke="#006800"/>
<path d="M183.94 160.843H177.907V166.877H183.94V160.843Z" fill="#006800" stroke="#006800"/>
<path d="M189.974 160.843H183.94V166.877H189.974V160.843Z" fill="#006800" stroke="#006800"/>
<path d="M93.437 166.876H87.4033V172.91H93.437V166.876Z" fill="#006800" stroke="#006800"/>
<path d="M177.907 166.876H171.873V172.91H177.907V166.876Z" fill="#006800" stroke="#006800"/>
<path d="M196.008 166.876H189.974V172.91H196.008V166.876Z" fill="#006800" stroke="#006800"/>
<path d="M202.041 166.876H196.008V172.91H202.041V166.876Z" fill="#006800" stroke="#006800"/>
<path d="M93.437 172.911H87.4033V178.944H93.437V172.911Z" fill="#006800" stroke="#006800"/>
<path d="M177.907 172.911H171.873V178.944H177.907V172.911Z" fill="#006800" stroke="#006800"/>
<path d="M196.008 172.911H189.974V178.944H196.008V172.911Z" fill="#006800" stroke="#006800"/>
<path d="M202.041 172.911H196.008V178.944H202.041V172.911Z" fill="#006800" stroke="#006800"/>
<path d="M81.3696 178.944H75.3359V184.978H81.3696V178.944Z" fill="#006800" stroke="#006800"/>
<path d="M87.4033 178.944H81.3696V184.978H87.4033V178.944Z" fill="#006800" stroke="#006800"/>
<path d="M93.437 178.944H87.4033V184.978H93.437V178.944Z" fill="#006800" stroke="#006800"/>
<path d="M177.907 178.944H171.873V184.978H177.907V178.944Z" fill="#006800" stroke="#006800"/>
<path d="M183.94 178.944H177.907V184.978H183.94V178.944Z" fill="#006800" stroke="#006800"/>
<path d="M189.974 178.944H183.94V184.978H189.974V178.944Z" fill="#006800" stroke="#006800"/>
<path d="M196.008 178.944H189.974V184.978H196.008V178.944Z" fill="#006800" stroke="#006800"/>
<path d="M202.041 178.944H196.008V184.978H202.041V178.944Z" fill="#006800" stroke="#006800"/>
<path d="M75.3359 184.978H69.3022V191.012H75.3359V184.978Z" fill="#006800" stroke="#006800"/>
<path d="M81.3696 184.978H75.3359V191.012H81.3696V184.978Z" fill="#006800" stroke="#006800"/>
<path d="M93.437 184.978H87.4033V191.012H93.437V184.978Z" fill="#006800" stroke="#006800"/>
<path d="M99.4702 184.978H93.4365V191.012H99.4702V184.978Z" fill="#006800" stroke="#006800"/>
<path d="M171.873 184.978H165.84V191.012H171.873V184.978Z" fill="#006800" stroke="#006800"/>
<path d="M177.907 184.978H171.873V191.012H177.907V184.978Z" fill="#006800" stroke="#006800"/>
<path d="M183.94 184.978H177.907V191.012H183.94V184.978Z" fill="#006800" stroke="#006800"/>
<path d="M189.974 184.978H183.94V191.012H189.974V184.978Z" fill="#006800" stroke="#006800"/>
<path d="M196.008 184.978H189.974V191.012H196.008V184.978Z" fill="#006800" stroke="#006800"/>
<path d="M202.041 184.978H196.008V191.012H202.041V184.978Z" fill="#006800" stroke="#006800"/>
<path d="M75.3359 191.012H69.3022V197.045H75.3359V191.012Z" fill="#006800" stroke="#006800"/>
<path d="M87.4033 191.012H81.3696V197.045H87.4033V191.012Z" fill="#006800" stroke="#006800"/>
<path d="M93.437 191.012H87.4033V197.045H93.437V191.012Z" fill="#006800" stroke="#006800"/>
<path d="M99.4702 191.012H93.4365V197.045H99.4702V191.012Z" fill="#006800" stroke="#006800"/>
<path d="M105.504 191.012H99.4702V197.045H105.504V191.012Z" fill="#006800" stroke="#006800"/>
<path d="M165.84 191.012H159.806V197.045H165.84V191.012Z" fill="#006800" stroke="#006800"/>
<path d="M171.873 191.012H165.84V197.045H171.873V191.012Z" fill="#006800" stroke="#006800"/>
<path d="M177.907 191.012H171.873V197.045H177.907V191.012Z" fill="#006800" stroke="#006800"/>
<path d="M183.94 191.012H177.907V197.045H183.94V191.012Z" fill="#006800" stroke="#006800"/>
<path d="M189.974 191.012H183.94V197.045H189.974V191.012Z" fill="#006800" stroke="#006800"/>
<path d="M196.008 191.012H189.974V197.045H196.008V191.012Z" fill="#006800" stroke="#006800"/>
<path d="M202.041 191.012H196.008V197.045H202.041V191.012Z" fill="#006800" stroke="#006800"/>
<path d="M75.3359 197.045H69.3022V203.079H75.3359V197.045Z" fill="#006800" stroke="#006800"/>
<path d="M87.4033 197.045H81.3696V203.079H87.4033V197.045Z" fill="#006800" stroke="#006800"/>
<path d="M93.437 197.045H87.4033V203.079H93.437V197.045Z" fill="#006800" stroke="#006800"/>
<path d="M99.4702 197.045H93.4365V203.079H99.4702V197.045Z" fill="#006800" stroke="#006800"/>
<path d="M105.504 197.045H99.4702V203.079H105.504V197.045Z" fill="#006800" stroke="#006800"/>
<path d="M111.538 197.045H105.504V203.079H111.538V197.045Z" fill="#006800" stroke="#006800"/>
<path d="M159.806 197.045H153.772V203.079H159.806V197.045Z" fill="#006800" stroke="#006800"/>
<path d="M165.84 197.045H159.806V203.079H165.84V197.045Z" fill="#006800" stroke="#006800"/>
<path d="M171.873 197.045H165.84V203.079H171.873V197.045Z" fill="#006800" stroke="#006800"/>
<path d="M177.907 197.045H171.873V203.079H177.907V197.045Z" fill="#006800" stroke="#006800"/>
<path d="M183.94 197.045H177.907V203.079H183.94V197.045Z" fill="#006800" stroke="#006800"/>
<path d="M189.974 197.045H183.94V203.079H189.974V197.045Z" fill="#006800" stroke="#006800"/>
<path d="M196.008 197.045H189.974V203.079H196.008V197.045Z" fill="#006800" stroke="#006800"/>
<path d="M75.3359 203.079H69.3022V209.113H75.3359V203.079Z" fill="#006800" stroke="#006800"/>
<path d="M81.3696 203.079H75.3359V209.113H81.3696V203.079Z" fill="#006800" stroke="#006800"/>
<path d="M87.4033 203.079H81.3696V209.113H87.4033V203.079Z" fill="#006800" stroke="#006800"/>
<path d="M183.94 203.079H177.907V209.113H183.94V203.079Z" fill="#006800" stroke="#006800"/>
<path d="M189.974 203.079H183.94V209.113H189.974V203.079Z" fill="#006800" stroke="#006800"/>
<path d="M196.008 203.079H189.974V209.113H196.008V203.079Z" fill="#006800" stroke="#006800"/>
<path d="M81.3696 209.113H75.3359V215.147H81.3696V209.113Z" fill="#006800" stroke="#006800"/>
<path d="M87.4033 209.113H81.3696V215.147H87.4033V209.113Z" fill="#006800" stroke="#006800"/>
<path d="M183.94 209.113H177.907V215.147H183.94V209.113Z" fill="#006800" stroke="#006800"/>
<path d="M196.008 209.113H189.974V215.147H196.008V209.113Z" fill="#006800" stroke="#006800"/>
<path d="M81.3696 215.146H75.3359V221.18H81.3696V215.146Z" fill="#006800" stroke="#006800"/>
<path d="M87.4033 215.146H81.3696V221.18H87.4033V215.146Z" fill="#006800" stroke="#006800"/>
<path d="M93.437 215.146H87.4033V221.18H93.437V215.146Z" fill="#006800" stroke="#006800"/>
<path d="M177.907 215.146H171.873V221.18H177.907V215.146Z" fill="#006800" stroke="#006800"/>
<path d="M183.94 215.146H177.907V221.18H183.94V215.146Z" fill="#006800" stroke="#006800"/>
<path d="M189.974 215.146H183.94V221.18H189.974V215.146Z" fill="#006800" stroke="#006800"/>
<path d="M202.041 215.146H196.008V221.18H202.041V215.146Z" fill="#006800" stroke="#006800"/>
<path d="M81.3696 221.18H75.3359V227.214H81.3696V221.18Z" fill="#006800" stroke="#006800"/>
<path d="M87.4033 221.18H81.3696V227.214H87.4033V221.18Z" fill="#006800" stroke="#006800"/>
<path d="M93.437 221.18H87.4033V227.214H93.437V221.18Z" fill="#006800" stroke="#006800"/>
<path d="M177.907 221.18H171.873V227.214H177.907V221.18Z" fill="#006800" stroke="#006800"/>
<path d="M183.94 221.18H177.907V227.214H183.94V221.18Z" fill="#006800" stroke="#006800"/>
<path d="M189.974 221.18H183.94V227.214H189.974V221.18Z" fill="#006800" stroke="#006800"/>
<path d="M202.041 221.18H196.008V227.214H202.041V221.18Z" fill="#006800" stroke="#006800"/>
<path d="M75.3359 227.214H69.3022V233.248H75.3359V227.214Z" fill="#006800" stroke="#006800"/>
<path d="M81.3696 227.214H75.3359V233.248H81.3696V227.214Z" fill="#006800" stroke="#006800"/>
<path d="M87.4033 227.214H81.3696V233.248H87.4033V227.214Z" fill="#006800" stroke="#006800"/>
<path d="M93.437 227.214H87.4033V233.248H93.437V227.214Z" fill="#006800" stroke="#006800"/>
<path d="M177.907 227.214H171.873V233.248H177.907V227.214Z" fill="#006800" stroke="#006800"/>
<path d="M183.94 227.214H177.907V233.248H183.94V227.214Z" fill="#006800" stroke="#006800"/>
<path d="M189.974 227.214H183.94V233.248H189.974V227.214Z" fill="#006800" stroke="#006800"/>
<path d="M202.041 227.214H196.008V233.248H202.041V227.214Z" fill="#006800" stroke="#006800"/>
<path d="M208.075 100.506H202.041V106.54H208.075V100.506Z" fill="#006800" stroke="#006800"/>
<path d="M214.108 100.506H208.075V106.54H214.108V100.506Z" fill="#006800" stroke="#006800"/>
<path d="M208.075 106.54H202.041V112.573H208.075V106.54Z" fill="#006800" stroke="#006800"/>
<path d="M214.108 112.573H208.075V118.607H214.108V112.573Z" fill="#006800" stroke="#006800"/>
<path d="M208.075 82.4048H202.041V88.4386H208.075V82.4048Z" fill="#006800" stroke="#006800"/>
<path d="M214.108 82.4048H208.075V88.4386H214.108V82.4048Z" fill="#006800" stroke="#006800"/>
<path d="M208.075 76.3711H202.041V82.4049H208.075V76.3711Z" fill="#006800" stroke="#006800"/>
<path d="M208.075 88.4385H202.041V94.4722H208.075V88.4385Z" fill="#006800" stroke="#006800"/>
<path d="M214.108 88.4385H208.075V94.4722H214.108V88.4385Z" fill="#006800" stroke="#006800"/>
<path d="M208.075 94.4722H202.041V100.506H208.075V94.4722Z" fill="#006800" stroke="#006800"/>
<path d="M208.075 118.607H202.041V124.641H208.075V118.607Z" fill="#006800" stroke="#006800"/>
<path d="M214.108 118.607H208.075V124.641H214.108V118.607Z" fill="#006800" stroke="#006800"/>
<path d="M208.075 172.911H202.041V178.944H208.075V172.911Z" fill="#006800" stroke="#006800"/>
<path d="M208.075 178.944H202.041V184.978H208.075V178.944Z" fill="#006800" stroke="#006800"/>
<path d="M208.075 221.18H202.041V227.214H208.075V221.18Z" fill="#006800" stroke="#006800"/>
<path d="M208.075 227.214H202.041V233.248H208.075V227.214Z" fill="#006800" stroke="#006800"/>
<path d="M220.142 100.506H214.108V106.54H220.142V100.506Z" fill="#006800" stroke="#006800"/>
<path d="M226.176 100.506H220.142V106.54H226.176V100.506Z" fill="#006800" stroke="#006800"/>
<path d="M220.142 106.54H214.108V112.573H220.142V106.54Z" fill="#006800" stroke="#006800"/>
<path d="M226.176 106.54H220.142V112.573H226.176V106.54Z" fill="#006800" stroke="#006800"/>
<path d="M220.142 112.573H214.108V118.607H220.142V112.573Z" fill="#006800" stroke="#006800"/>
<path d="M226.176 82.4048H220.142V88.4386H226.176V82.4048Z" fill="#006800" stroke="#006800"/>
<path d="M220.142 76.3711H214.108V82.4049H220.142V76.3711Z" fill="#006800" stroke="#006800"/>
<path d="M226.176 76.3711H220.142V82.4049H226.176V76.3711Z" fill="#006800" stroke="#006800"/>
<path d="M226.176 88.4385H220.142V94.4722H226.176V88.4385Z" fill="#006800" stroke="#006800"/>
<path d="M220.142 94.4722H214.108V100.506H220.142V94.4722Z" fill="#006800" stroke="#006800"/>
<path d="M226.176 94.4722H220.142V100.506H226.176V94.4722Z" fill="#006800" stroke="#006800"/>
<path d="M232.209 82.4048H226.176V88.4386H232.209V82.4048Z" fill="#006800" stroke="#006800"/>
<path d="M232.209 88.4385H226.176V94.4722H232.209V88.4385Z" fill="#006800" stroke="#006800"/>
<path d="M232.209 94.4722H226.176V100.506H232.209V94.4722Z" fill="#006800" stroke="#006800"/>
<path d="M93.437 70.3369H87.4033V76.3707H93.437V70.3369Z" fill="#006800" stroke="#006800"/>
<path d="M99.4702 70.3369H93.4365V76.3707H99.4702V70.3369Z" fill="#006800" stroke="#006800"/>
<path d="M105.504 70.3369H99.4702V76.3707H105.504V70.3369Z" fill="#006800" stroke="#006800"/>
<path d="M123.605 70.3369H117.571V76.3707H123.605V70.3369Z" fill="#006800" stroke="#006800"/>
<path d="M129.638 70.3369H123.604V76.3707H129.638V70.3369Z" fill="#006800" stroke="#006800"/>
<path d="M135.672 70.3369H129.638V76.3707H135.672V70.3369Z" fill="#006800" stroke="#006800"/>
<path d="M141.706 70.3369H135.672V76.3707H141.706V70.3369Z" fill="#006800" stroke="#006800"/>
<path d="M147.739 70.3369H141.706V76.3707H147.739V70.3369Z" fill="#006800" stroke="#006800"/>
<path d="M153.773 70.3369H147.739V76.3707H153.773V70.3369Z" fill="#006800" stroke="#006800"/>
<path d="M159.806 70.3369H153.772V76.3707H159.806V70.3369Z" fill="#006800" stroke="#006800"/>
<path d="M165.84 70.3369H159.806V76.3707H165.84V70.3369Z" fill="#006800" stroke="#006800"/>
<path d="M171.873 70.3369H165.84V76.3707H171.873V70.3369Z" fill="#006800" stroke="#006800"/>
<path d="M177.907 70.3369H171.873V76.3707H177.907V70.3369Z" fill="#006800" stroke="#006800"/>
<path d="M183.94 70.3369H177.907V76.3707H183.94V70.3369Z" fill="#006800" stroke="#006800"/>
<path d="M189.974 70.3369H183.94V76.3707H189.974V70.3369Z" fill="#006800" stroke="#006800"/>
<path d="M202.041 70.3369H196.008V76.3707H202.041V70.3369Z" fill="#006800" stroke="#006800"/>
<path d="M208.075 70.3369H202.041V76.3707H208.075V70.3369Z" fill="#006800" stroke="#006800"/>
<path d="M214.108 70.3369H208.075V76.3707H214.108V70.3369Z" fill="#006800" stroke="#006800"/>
<path d="M220.142 70.3369H214.108V76.3707H220.142V70.3369Z" fill="#006800" stroke="#006800"/>
<path d="M226.176 70.3369H220.142V76.3707H226.176V70.3369Z" fill="#006800" stroke="#006800"/>
<path d="M93.437 64.3037H87.4033V70.3375H93.437V64.3037Z" fill="#006800" stroke="#006800"/>
<path d="M99.4702 64.3037H93.4365V70.3375H99.4702V64.3037Z" fill="#006800" stroke="#006800"/>
<path d="M105.504 64.3037H99.4702V70.3375H105.504V64.3037Z" fill="#006800" stroke="#006800"/>
<path d="M111.538 64.3037H105.504V70.3375H111.538V64.3037Z" fill="#006800" stroke="#006800"/>
<path d="M117.571 64.3037H111.538V70.3375H117.571V64.3037Z" fill="#006800" stroke="#006800"/>
<path d="M129.638 64.3037H123.604V70.3375H129.638V64.3037Z" fill="#006800" stroke="#006800"/>
<path d="M135.672 64.3037H129.638V70.3375H135.672V64.3037Z" fill="#006800" stroke="#006800"/>
<path d="M147.739 64.3037H141.706V70.3375H147.739V64.3037Z" fill="#006800" stroke="#006800"/>
<path d="M153.773 64.3037H147.739V70.3375H153.773V64.3037Z" fill="#006800" stroke="#006800"/>
<path d="M159.806 64.3037H153.772V70.3375H159.806V64.3037Z" fill="#006800" stroke="#006800"/>
<path d="M165.84 64.3037H159.806V70.3375H165.84V64.3037Z" fill="#006800" stroke="#006800"/>
<path d="M177.907 64.3037H171.873V70.3375H177.907V64.3037Z" fill="#006800" stroke="#006800"/>
<path d="M183.94 64.3037H177.907V70.3375H183.94V64.3037Z" fill="#006800" stroke="#006800"/>
<path d="M189.974 64.3037H183.94V70.3375H189.974V64.3037Z" fill="#006800" stroke="#006800"/>
<path d="M93.437 58.27H87.4033V64.3038H93.437V58.27Z" fill="#006800" stroke="#006800"/>
<path d="M105.504 58.27H99.4702V64.3038H105.504V58.27Z" fill="#006800" stroke="#006800"/>
<path d="M111.538 58.27H105.504V64.3038H111.538V58.27Z" fill="#006800" stroke="#006800"/>
<path d="M117.571 58.27H111.538V64.3038H117.571V58.27Z" fill="#006800" stroke="#006800"/>
<path d="M123.605 58.27H117.571V64.3038H123.605V58.27Z" fill="#006800" stroke="#006800"/>
<path d="M141.706 58.27H135.672V64.3038H141.706V58.27Z" fill="#006800" stroke="#006800"/>
<path d="M147.739 58.27H141.706V64.3038H147.739V58.27Z" fill="#006800" stroke="#006800"/>
<path d="M159.806 58.27H153.772V64.3038H159.806V58.27Z" fill="#006800" stroke="#006800"/>
<path d="M171.873 58.27H165.84V64.3038H171.873V58.27Z" fill="#006800" stroke="#006800"/>
<path d="M177.907 58.27H171.873V64.3038H177.907V58.27Z" fill="#006800" stroke="#006800"/>
<path d="M183.94 58.27H177.907V64.3038H183.94V58.27Z" fill="#006800" stroke="#006800"/>
<path d="M189.974 58.27H183.94V64.3038H189.974V58.27Z" fill="#006800" stroke="#006800"/>
<path d="M93.437 52.2358H87.4033V58.2696H93.437V52.2358Z" fill="#006800" stroke="#006800"/>
<path d="M99.4702 52.2358H93.4365V58.2696H99.4702V52.2358Z" fill="#006800" stroke="#006800"/>
<path d="M111.538 52.2358H105.504V58.2696H111.538V52.2358Z" fill="#006800" stroke="#006800"/>
<path d="M117.571 52.2358H111.538V58.2696H117.571V52.2358Z" fill="#006800" stroke="#006800"/>
<path d="M123.605 52.2358H117.571V58.2696H123.605V52.2358Z" fill="#006800" stroke="#006800"/>
<path d="M129.638 52.2358H123.604V58.2696H129.638V52.2358Z" fill="#006800" stroke="#006800"/>
<path d="M135.672 52.2358H129.638V58.2696H135.672V52.2358Z" fill="#006800" stroke="#006800"/>
<path d="M141.706 52.2358H135.672V58.2696H141.706V52.2358Z" fill="#006800" stroke="#006800"/>
<path d="M147.739 52.2358H141.706V58.2696H147.739V52.2358Z" fill="#006800" stroke="#006800"/>
<path d="M153.773 52.2358H147.739V58.2696H153.773V52.2358Z" fill="#006800" stroke="#006800"/>
<path d="M165.84 52.2358H159.806V58.2696H165.84V52.2358Z" fill="#006800" stroke="#006800"/>
<path d="M171.873 52.2358H165.84V58.2696H171.873V52.2358Z" fill="#006800" stroke="#006800"/>
<path d="M177.907 52.2358H171.873V58.2696H177.907V52.2358Z" fill="#006800" stroke="#006800"/>
<path d="M183.94 52.2358H177.907V58.2696H183.94V52.2358Z" fill="#006800" stroke="#006800"/>
<path d="M99.4702 46.2026H93.4365V52.2364H99.4702V46.2026Z" fill="#006800" stroke="#006800"/>
<path d="M105.504 46.2026H99.4702V52.2364H105.504V46.2026Z" fill="#006800" stroke="#006800"/>
<path d="M111.538 46.2026H105.504V52.2364H111.538V46.2026Z" fill="#006800" stroke="#006800"/>
<path d="M117.571 46.2026H111.538V52.2364H117.571V46.2026Z" fill="#006800" stroke="#006800"/>
<path d="M123.605 46.2026H117.571V52.2364H123.605V46.2026Z" fill="#006800" stroke="#006800"/>
<path d="M129.638 46.2026H123.604V52.2364H129.638V46.2026Z" fill="#006800" stroke="#006800"/>
<path d="M135.672 46.2026H129.638V52.2364H135.672V46.2026Z" fill="#006800" stroke="#006800"/>
<path d="M141.706 46.2026H135.672V52.2364H141.706V46.2026Z" fill="#006800" stroke="#006800"/>
<path d="M147.739 46.2026H141.706V52.2364H147.739V46.2026Z" fill="#006800" stroke="#006800"/>
<path d="M153.773 46.2026H147.739V52.2364H153.773V46.2026Z" fill="#006800" stroke="#006800"/>
<path d="M159.806 46.2026H153.772V52.2364H159.806V46.2026Z" fill="#006800" stroke="#006800"/>
<path d="M165.84 46.2026H159.806V52.2364H165.84V46.2026Z" fill="#006800" stroke="#006800"/>
<path d="M171.873 46.2026H165.84V52.2364H171.873V46.2026Z" fill="#006800" stroke="#006800"/>
<path d="M177.907 46.2026H171.873V52.2364H177.907V46.2026Z" fill="#006800" stroke="#006800"/>
<path d="M183.94 46.2026H177.907V52.2364H183.94V46.2026Z" fill="#006800" stroke="#006800"/>
<path d="M123.605 40.1685H117.571V46.2022H123.605V40.1685Z" fill="#006800" stroke="#006800"/>
<path d="M129.638 40.1685H123.604V46.2022H129.638V40.1685Z" fill="#006800" stroke="#006800"/>
<path d="M135.672 40.1685H129.638V46.2022H135.672V40.1685Z" fill="#006800" stroke="#006800"/>
<path d="M141.706 40.1685H135.672V46.2022H141.706V40.1685Z" fill="#006800" stroke="#006800"/>
<path d="M147.739 40.1685H141.706V46.2022H147.739V40.1685Z" fill="#006800" stroke="#006800"/>
<path d="M153.773 40.1685H147.739V46.2022H153.773V40.1685Z" fill="#006800" stroke="#006800"/>
<path d="M159.806 40.1685H153.772V46.2022H159.806V40.1685Z" fill="#006800" stroke="#006800"/>
<path d="M165.84 40.1685H159.806V46.2022H165.84V40.1685Z" fill="#006800" stroke="#006800"/>
<path d="M171.873 40.1685H165.84V46.2022H171.873V40.1685Z" fill="#006800" stroke="#006800"/>
<path d="M141.705 34.1348H135.672V40.1685H141.705V34.1348Z" fill="#006800" stroke="#006800"/>
<path d="M147.739 34.1348H141.705V40.1685H147.739V34.1348Z" fill="#006800" stroke="#006800"/>
<path d="M153.773 34.1348H147.739V40.1685H153.773V34.1348Z" fill="#006800" stroke="#006800"/>
<path d="M159.806 34.1348H153.772V40.1685H159.806V34.1348Z" fill="#006800" stroke="#006800"/>
<path d="M165.84 34.1348H159.806V40.1685H165.84V34.1348Z" fill="#006800" stroke="#006800"/>
<path d="M105.504 203.079H99.4702V209.113H105.504V203.079Z" fill="#006800" stroke="#006800"/>
<path d="M111.537 203.079H105.504V209.113H111.537V203.079Z" fill="#006800" stroke="#006800"/>
<path d="M159.806 203.079H153.772V209.113H159.806V203.079Z" fill="#006800" stroke="#006800"/>
<path d="M165.84 203.079H159.806V209.113H165.84V203.079Z" fill="#006800" stroke="#006800"/>
<path d="M111.538 209.113H105.504V215.147H111.538V209.113Z" fill="#006800" stroke="#006800"/>
<path d="M159.806 209.113H153.772V215.147H159.806V209.113Z" fill="#006800" stroke="#006800"/>
<path d="M111.538 215.147H105.504V221.181H111.538V215.147Z" fill="#006800" stroke="#006800"/>
<path d="M159.806 215.147H153.772V221.181H159.806V215.147Z" fill="#006800" stroke="#006800"/>
<path d="M111.538 221.181H105.504V227.214H111.538V221.181Z" fill="#006800" stroke="#006800"/>
<path d="M159.806 221.181H153.772V227.214H159.806V221.181Z" fill="#006800" stroke="#006800"/>
<path d="M111.538 227.214H105.504V233.248H111.538V227.214Z" fill="#006800" stroke="#006800"/>
<path d="M159.806 227.214H153.772V233.248H159.806V227.214Z" fill="#006800" stroke="#006800"/>
<path d="M111.538 233.248H105.504V239.281H111.538V233.248Z" fill="#006800" stroke="#006800"/>
<path d="M159.806 233.248H153.772V239.281H159.806V233.248Z" fill="#006800" stroke="#006800"/>
<path d="M111.538 239.282H105.504V245.316H111.538V239.282Z" fill="#006800" stroke="#006800"/>
<path d="M159.806 239.282H153.772V245.316H159.806V239.282Z" fill="#006800" stroke="#006800"/>
<path d="M111.538 245.315H105.504V251.349H111.538V245.315Z" fill="#006800" stroke="#006800"/>
<path d="M159.806 245.315H153.772V251.349H159.806V245.315Z" fill="#006800" stroke="#006800"/>
<path d="M117.571 251.349H111.538V257.383H117.571V251.349Z" fill="#006800" stroke="#006800"/>
<path d="M153.773 251.349H147.739V257.383H153.773V251.349Z" fill="#006800" stroke="#006800"/>
<path d="M123.605 257.383H117.571V263.417H123.605V257.383Z" fill="#006800" stroke="#006800"/>
<path d="M147.739 257.383H141.706V263.417H147.739V257.383Z" fill="#006800" stroke="#006800"/>
<path d="M129.638 263.416H123.604V269.45H129.638V263.416Z" fill="#006800" stroke="#006800"/>
<path d="M141.706 263.416H135.672V269.45H141.706V263.416Z" fill="#006800" stroke="#006800"/>
<path d="M117.571 136.708H111.537V142.742H117.571V136.708Z" fill="#00FF00"/>
<path d="M159.806 136.708H153.772V142.742H159.806V136.708Z" fill="#00FF00"/>
<path d="M93.437 203.079H87.4033V209.113H93.437V203.079Z" fill="#00FF00" stroke="#00FF00"/>
<path d="M99.4702 203.079H93.4365V209.113H99.4702V203.079Z" fill="#00FF00" stroke="#00FF00"/>
<path d="M171.873 203.079H165.839V209.113H171.873V203.079Z" fill="#00FF00" stroke="#00FF00"/>
<path d="M177.907 203.079H171.873V209.113H177.907V203.079Z" fill="#00FF00" stroke="#00FF00"/>
<path d="M93.437 209.113H87.4033V215.147H93.437V209.113Z" fill="#00FF00" stroke="#00FF00"/>
<path d="M99.4702 209.113H93.4365V215.147H99.4702V209.113Z" fill="#00FF00" stroke="#00FF00"/>
<path d="M105.504 209.113H99.4702V215.147H105.504V209.113Z" fill="#00FF00" stroke="#00FF00"/>
<path d="M165.84 209.113H159.806V215.147H165.84V209.113Z" fill="#00FF00" stroke="#00FF00"/>
<path d="M171.873 209.113H165.839V215.147H171.873V209.113Z" fill="#00FF00" stroke="#00FF00"/>
<path d="M177.907 209.113H171.873V215.147H177.907V209.113Z" fill="#00FF00" stroke="#00FF00"/>
<path d="M99.4702 215.146H93.4365V221.18H99.4702V215.146Z" fill="#00FF00" stroke="#00FF00"/>
<path d="M105.504 215.146H99.4702V221.18H105.504V215.146Z" fill="#00FF00" stroke="#00FF00"/>
<path d="M165.84 215.146H159.806V221.18H165.84V215.146Z" fill="#00FF00" stroke="#00FF00"/>
<path d="M171.873 215.146H165.839V221.18H171.873V215.146Z" fill="#00FF00" stroke="#00FF00"/>
<path d="M99.4702 221.18H93.4365V227.214H99.4702V221.18Z" fill="#00FF00" stroke="#00FF00"/>
<path d="M105.504 221.18H99.4702V227.214H105.504V221.18Z" fill="#00FF00" stroke="#00FF00"/>
<path d="M165.84 221.18H159.806V227.214H165.84V221.18Z" fill="#00FF00" stroke="#00FF00"/>
<path d="M171.873 221.18H165.839V227.214H171.873V221.18Z" fill="#00FF00" stroke="#00FF00"/>
<path d="M99.4702 227.214H93.4365V233.248H99.4702V227.214Z" fill="#00FF00" stroke="#00FF00"/>
<path d="M105.504 227.214H99.4702V233.248H105.504V227.214Z" fill="#00FF00" stroke="#00FF00"/>
<path d="M165.84 227.214H159.806V233.248H165.84V227.214Z" fill="#00FF00" stroke="#00FF00"/>
<path d="M171.873 227.214H165.839V233.248H171.873V227.214Z" fill="#00FF00" stroke="#00FF00"/>
<path d="M69.3022 233.248H63.2686V239.281H69.3022V233.248Z" fill="#00FF00" stroke="#00FF00"/>
<path d="M75.3359 233.248H69.3022V239.281H75.3359V233.248Z" fill="#00FF00" stroke="#00FF00"/>
<path d="M81.3696 233.248H75.3359V239.281H81.3696V233.248Z" fill="#00FF00" stroke="#00FF00"/>
<path d="M87.4033 233.248H81.3696V239.281H87.4033V233.248Z" fill="#00FF00" stroke="#00FF00"/>
<path d="M93.437 233.248H87.4033V239.281H93.437V233.248Z" fill="#00FF00" stroke="#00FF00"/>
<path d="M99.4702 233.248H93.4365V239.281H99.4702V233.248Z" fill="#00FF00" stroke="#00FF00"/>
<path d="M105.504 233.248H99.4702V239.281H105.504V233.248Z" fill="#00FF00" stroke="#00FF00"/>
<path d="M165.84 233.248H159.806V239.281H165.84V233.248Z" fill="#00FF00" stroke="#00FF00"/>
<path d="M171.873 233.248H165.839V239.281H171.873V233.248Z" fill="#00FF00" stroke="#00FF00"/>
<path d="M177.907 233.248H171.873V239.281H177.907V233.248Z" fill="#00FF00" stroke="#00FF00"/>
<path d="M183.94 233.248H177.907V239.281H183.94V233.248Z" fill="#00FF00" stroke="#00FF00"/>
<path d="M189.974 233.248H183.94V239.281H189.974V233.248Z" fill="#00FF00" stroke="#00FF00"/>
<path d="M196.008 233.248H189.974V239.281H196.008V233.248Z" fill="#00FF00" stroke="#00FF00"/>
<path d="M202.041 233.248H196.008V239.281H202.041V233.248Z" fill="#00FF00" stroke="#00FF00"/>
<path d="M69.3022 239.281H63.2686V245.315H69.3022V239.281Z" fill="#00FF00" stroke="#00FF00"/>
<path d="M75.3359 239.281H69.3022V245.315H75.3359V239.281Z" fill="#00FF00" stroke="#00FF00"/>
<path d="M81.3696 239.281H75.3359V245.315H81.3696V239.281Z" fill="#00FF00" stroke="#00FF00"/>
<path d="M87.4033 239.281H81.3696V245.315H87.4033V239.281Z" fill="#00FF00" stroke="#00FF00"/>
<path d="M93.437 239.281H87.4033V245.315H93.437V239.281Z" fill="#00FF00" stroke="#00FF00"/>
<path d="M99.4702 239.281H93.4365V245.315H99.4702V239.281Z" fill="#00FF00" stroke="#00FF00"/>
<path d="M105.504 239.281H99.4702V245.315H105.504V239.281Z" fill="#00FF00" stroke="#00FF00"/>
<path d="M165.84 239.281H159.806V245.315H165.84V239.281Z" fill="#00FF00" stroke="#00FF00"/>
<path d="M171.873 239.281H165.839V245.315H171.873V239.281Z" fill="#00FF00" stroke="#00FF00"/>
<path d="M177.907 239.281H171.873V245.315H177.907V239.281Z" fill="#00FF00" stroke="#00FF00"/>
<path d="M183.94 239.281H177.907V245.315H183.94V239.281Z" fill="#00FF00" stroke="#00FF00"/>
<path d="M189.974 239.281H183.94V245.315H189.974V239.281Z" fill="#00FF00" stroke="#00FF00"/>
<path d="M196.008 239.281H189.974V245.315H196.008V239.281Z" fill="#00FF00" stroke="#00FF00"/>
<path d="M202.041 239.281H196.008V245.315H202.041V239.281Z" fill="#00FF00" stroke="#00FF00"/>
<path d="M69.3022 245.315H63.2686V251.349H69.3022V245.315Z" fill="#00FF00" stroke="#00FF00"/>
<path d="M75.3359 245.315H69.3022V251.349H75.3359V245.315Z" fill="#00FF00" stroke="#00FF00"/>
<path d="M81.3696 245.315H75.3359V251.349H81.3696V245.315Z" fill="#00FF00" stroke="#00FF00"/>
<path d="M87.4033 245.315H81.3696V251.349H87.4033V245.315Z" fill="#00FF00" stroke="#00FF00"/>
<path d="M93.437 245.315H87.4033V251.349H93.437V245.315Z" fill="#00FF00" stroke="#00FF00"/>
<path d="M99.4702 245.315H93.4365V251.349H99.4702V245.315Z" fill="#00FF00" stroke="#00FF00"/>
<path d="M105.504 245.315H99.4702V251.349H105.504V245.315Z" fill="#00FF00" stroke="#00FF00"/>
<path d="M165.84 245.315H159.806V251.349H165.84V245.315Z" fill="#00FF00" stroke="#00FF00"/>
<path d="M171.873 245.315H165.839V251.349H171.873V245.315Z" fill="#00FF00" stroke="#00FF00"/>
<path d="M177.907 245.315H171.873V251.349H177.907V245.315Z" fill="#00FF00" stroke="#00FF00"/>
<path d="M183.94 245.315H177.907V251.349H183.94V245.315Z" fill="#00FF00" stroke="#00FF00"/>
<path d="M189.974 245.315H183.94V251.349H189.974V245.315Z" fill="#00FF00" stroke="#00FF00"/>
<path d="M196.008 245.315H189.974V251.349H196.008V245.315Z" fill="#00FF00" stroke="#00FF00"/>
<path d="M202.041 245.315H196.008V251.349H202.041V245.315Z" fill="#00FF00" stroke="#00FF00"/>
<path d="M69.3022 251.349H63.2686V257.383H69.3022V251.349Z" fill="#00FF00" stroke="#00FF00"/>
<path d="M75.3359 251.349H69.3022V257.383H75.3359V251.349Z" fill="#00FF00" stroke="#00FF00"/>
<path d="M81.3696 251.349H75.3359V257.383H81.3696V251.349Z" fill="#00FF00" stroke="#00FF00"/>
<path d="M87.4033 251.349H81.3696V257.383H87.4033V251.349Z" fill="#00FF00" stroke="#00FF00"/>
<path d="M93.437 251.349H87.4033V257.383H93.437V251.349Z" fill="#00FF00" stroke="#00FF00"/>
<path d="M99.4702 251.349H93.4365V257.383H99.4702V251.349Z" fill="#00FF00" stroke="#00FF00"/>
<path d="M105.504 251.349H99.4702V257.383H105.504V251.349Z" fill="#00FF00" stroke="#00FF00"/>
<path d="M111.538 251.349H105.504V257.383H111.538V251.349Z" fill="#00FF00" stroke="#00FF00"/>
<path d="M159.806 251.349H153.772V257.383H159.806V251.349Z" fill="#00FF00" stroke="#00FF00"/>
<path d="M165.84 251.349H159.806V257.383H165.84V251.349Z" fill="#00FF00" stroke="#00FF00"/>
<path d="M171.873 251.349H165.839V257.383H171.873V251.349Z" fill="#00FF00" stroke="#00FF00"/>
<path d="M177.907 251.349H171.873V257.383H177.907V251.349Z" fill="#00FF00" stroke="#00FF00"/>
<path d="M183.94 251.349H177.907V257.383H183.94V251.349Z" fill="#00FF00" stroke="#00FF00"/>
<path d="M189.974 251.349H183.94V257.383H189.974V251.349Z" fill="#00FF00" stroke="#00FF00"/>
<path d="M196.008 251.349H189.974V257.383H196.008V251.349Z" fill="#00FF00" stroke="#00FF00"/>
<path d="M202.041 251.349H196.008V257.383H202.041V251.349Z" fill="#00FF00" stroke="#00FF00"/>
<path d="M69.3022 257.383H63.2686V263.417H69.3022V257.383Z" fill="#00FF00" stroke="#00FF00"/>
<path d="M75.3359 257.383H69.3022V263.417H75.3359V257.383Z" fill="#00FF00" stroke="#00FF00"/>
<path d="M81.3696 257.383H75.3359V263.417H81.3696V257.383Z" fill="#00FF00" stroke="#00FF00"/>
<path d="M87.4033 257.383H81.3696V263.417H87.4033V257.383Z" fill="#00FF00" stroke="#00FF00"/>
<path d="M93.437 257.383H87.4033V263.417H93.437V257.383Z" fill="#00FF00" stroke="#00FF00"/>
<path d="M99.4702 257.383H93.4365V263.417H99.4702V257.383Z" fill="#00FF00" stroke="#00FF00"/>
<path d="M105.504 257.383H99.4702V263.417H105.504V257.383Z" fill="#00FF00" stroke="#00FF00"/>
<path d="M111.538 257.383H105.504V263.417H111.538V257.383Z" fill="#00FF00" stroke="#00FF00"/>
<path d="M117.571 257.383H111.538V263.417H117.571V257.383Z" fill="#00FF00" stroke="#00FF00"/>
<path d="M153.772 257.383H147.739V263.417H153.772V257.383Z" fill="#00FF00" stroke="#00FF00"/>
<path d="M159.806 257.383H153.772V263.417H159.806V257.383Z" fill="#00FF00" stroke="#00FF00"/>
<path d="M165.84 257.383H159.806V263.417H165.84V257.383Z" fill="#00FF00" stroke="#00FF00"/>
<path d="M171.873 257.383H165.839V263.417H171.873V257.383Z" fill="#00FF00" stroke="#00FF00"/>
<path d="M177.907 257.383H171.873V263.417H177.907V257.383Z" fill="#00FF00" stroke="#00FF00"/>
<path d="M183.94 257.383H177.907V263.417H183.94V257.383Z" fill="#00FF00" stroke="#00FF00"/>
<path d="M189.974 257.383H183.94V263.417H189.974V257.383Z" fill="#00FF00" stroke="#00FF00"/>
<path d="M196.008 257.383H189.974V263.417H196.008V257.383Z" fill="#00FF00" stroke="#00FF00"/>
<path d="M202.041 257.383H196.008V263.417H202.041V257.383Z" fill="#00FF00" stroke="#00FF00"/>
<path d="M69.3022 263.416H63.2686V269.45H69.3022V263.416Z" fill="#00FF00" stroke="#00FF00"/>
<path d="M75.3359 263.416H69.3022V269.45H75.3359V263.416Z" fill="#00FF00" stroke="#00FF00"/>
<path d="M57.2353 233.248H51.2017V239.281H57.2353V233.248Z" fill="#00FF00" stroke="#00FF00"/>
<path d="M63.269 233.248H57.2354V239.281H63.269V233.248Z" fill="#00FF00" stroke="#00FF00"/>
<path d="M57.2353 239.281H51.2017V245.315H57.2353V239.281Z" fill="#00FF00" stroke="#00FF00"/>
<path d="M63.269 239.281H57.2354V245.315H63.269V239.281Z" fill="#00FF00" stroke="#00FF00"/>
<path d="M57.2353 245.315H51.2017V251.349H57.2353V245.315Z" fill="#00FF00" stroke="#00FF00"/>
<path d="M63.269 245.315H57.2354V251.349H63.269V245.315Z" fill="#00FF00" stroke="#00FF00"/>
<path d="M57.2353 251.349H51.2017V257.383H57.2353V251.349Z" fill="#00FF00" stroke="#00FF00"/>
<path d="M63.269 251.349H57.2354V257.383H63.269V251.349Z" fill="#00FF00" stroke="#00FF00"/>
<path d="M57.2353 257.383H51.2017V263.417H57.2353V257.383Z" fill="#00FF00" stroke="#00FF00"/>
<path d="M63.269 257.383H57.2354V263.417H63.269V257.383Z" fill="#00FF00" stroke="#00FF00"/>
<path d="M57.2353 263.416H51.2017V269.45H57.2353V263.416Z" fill="#00FF00" stroke="#00FF00"/>
<path d="M63.269 263.416H57.2354V269.45H63.269V263.416Z" fill="#00FF00" stroke="#00FF00"/>
<path d="M45.1679 233.248H39.1343V239.281H45.1679V233.248Z" fill="#00FF00" stroke="#00FF00"/>
<path d="M51.2016 233.248H45.168V239.281H51.2016V233.248Z" fill="#00FF00" stroke="#00FF00"/>
<path d="M45.1679 239.281H39.1343V245.315H45.1679V239.281Z" fill="#00FF00" stroke="#00FF00"/>
<path d="M51.2016 239.281H45.168V245.315H51.2016V239.281Z" fill="#00FF00" stroke="#00FF00"/>
<path d="M45.1679 245.315H39.1343V251.349H45.1679V245.315Z" fill="#00FF00" stroke="#00FF00"/>
<path d="M51.2016 245.315H45.168V251.349H51.2016V245.315Z" fill="#00FF00" stroke="#00FF00"/>
<path d="M45.1679 251.349H39.1343V257.383H45.1679V251.349Z" fill="#00FF00" stroke="#00FF00"/>
<path d="M51.2016 251.349H45.168V257.383H51.2016V251.349Z" fill="#00FF00" stroke="#00FF00"/>
<path d="M45.1679 257.383H39.1343V263.417H45.1679V257.383Z" fill="#00FF00" stroke="#00FF00"/>
<path d="M51.2016 257.383H45.168V263.417H51.2016V257.383Z" fill="#00FF00" stroke="#00FF00"/>
<path d="M45.1679 263.416H39.1343V269.45H45.1679V263.416Z" fill="#00FF00" stroke="#00FF00"/>
<path d="M51.2016 263.416H45.168V269.45H51.2016V263.416Z" fill="#00FF00" stroke="#00FF00"/>
<path d="M33.101 233.248H27.0674V239.281H33.101V233.248Z" fill="#00FF00" stroke="#00FF00"/>
<path d="M39.1342 233.248H33.1006V239.281H39.1342V233.248Z" fill="#00FF00" stroke="#00FF00"/>
<path d="M33.101 239.281H27.0674V245.315H33.101V239.281Z" fill="#00FF00" stroke="#00FF00"/>
<path d="M39.1342 239.281H33.1006V245.315H39.1342V239.281Z" fill="#00FF00" stroke="#00FF00"/>
<path d="M33.101 245.315H27.0674V251.349H33.101V245.315Z" fill="#00FF00" stroke="#00FF00"/>
<path d="M39.1342 245.315H33.1006V251.349H39.1342V245.315Z" fill="#00FF00" stroke="#00FF00"/>
<path d="M33.101 251.349H27.0674V257.383H33.101V251.349Z" fill="#00FF00" stroke="#00FF00"/>
<path d="M39.1342 251.349H33.1006V257.383H39.1342V251.349Z" fill="#00FF00" stroke="#00FF00"/>
<path d="M33.101 257.383H27.0674V263.417H33.101V257.383Z" fill="#00FF00" stroke="#00FF00"/>
<path d="M39.1342 257.383H33.1006V263.417H39.1342V257.383Z" fill="#00FF00" stroke="#00FF00"/>
<path d="M33.101 263.416H27.0674V269.45H33.101V263.416Z" fill="#00FF00" stroke="#00FF00"/>
<path d="M39.1342 263.416H33.1006V269.45H39.1342V263.416Z" fill="#00FF00" stroke="#00FF00"/>
<path d="M27.0673 239.281H21.0337V245.315H27.0673V239.281Z" fill="#00FF00" stroke="#00FF00"/>
<path d="M21.0336 245.315H15V251.349H21.0336V245.315Z" fill="#00FF00" stroke="#00FF00"/>
<path d="M27.0673 245.315H21.0337V251.349H27.0673V245.315Z" fill="#00FF00" stroke="#00FF00"/>
<path d="M21.0336 251.349H15V257.383H21.0336V251.349Z" fill="#00FF00" stroke="#00FF00"/>
<path d="M27.0673 251.349H21.0337V257.383H27.0673V251.349Z" fill="#00FF00" stroke="#00FF00"/>
<path d="M21.0336 257.383H15V263.417H21.0336V257.383Z" fill="#00FF00" stroke="#00FF00"/>
<path d="M27.0673 257.383H21.0337V263.417H27.0673V257.383Z" fill="#00FF00" stroke="#00FF00"/>
<path d="M21.0336 263.416H15V269.45H21.0336V263.416Z" fill="#00FF00" stroke="#00FF00"/>
<path d="M27.0673 263.416H21.0337V269.45H27.0673V263.416Z" fill="#00FF00" stroke="#00FF00"/>
<path d="M81.3696 263.416H75.3359V269.45H81.3696V263.416Z" fill="#00FF00" stroke="#00FF00"/>
<path d="M87.4033 263.416H81.3696V269.45H87.4033V263.416Z" fill="#00FF00" stroke="#00FF00"/>
<path d="M93.437 263.416H87.4033V269.45H93.437V263.416Z" fill="#00FF00" stroke="#00FF00"/>
<path d="M99.4702 263.416H93.4365V269.45H99.4702V263.416Z" fill="#00FF00" stroke="#00FF00"/>
<path d="M105.504 263.416H99.4702V269.45H105.504V263.416Z" fill="#00FF00" stroke="#00FF00"/>
<path d="M111.538 263.416H105.504V269.45H111.538V263.416Z" fill="#00FF00" stroke="#00FF00"/>
<path d="M117.571 263.416H111.538V269.45H117.571V263.416Z" fill="#00FF00" stroke="#00FF00"/>
<path d="M123.605 263.416H117.571V269.45H123.605V263.416Z" fill="#00FF00" stroke="#00FF00"/>
<path d="M147.739 263.416H141.705V269.45H147.739V263.416Z" fill="#00FF00" stroke="#00FF00"/>
<path d="M153.772 263.416H147.739V269.45H153.772V263.416Z" fill="#00FF00" stroke="#00FF00"/>
<path d="M159.806 263.416H153.772V269.45H159.806V263.416Z" fill="#00FF00" stroke="#00FF00"/>
<path d="M165.84 263.416H159.806V269.45H165.84V263.416Z" fill="#00FF00" stroke="#00FF00"/>
<path d="M171.873 263.416H165.839V269.45H171.873V263.416Z" fill="#00FF00" stroke="#00FF00"/>
<path d="M177.907 263.416H171.873V269.45H177.907V263.416Z" fill="#00FF00" stroke="#00FF00"/>
<path d="M183.94 263.416H177.907V269.45H183.94V263.416Z" fill="#00FF00" stroke="#00FF00"/>
<path d="M189.974 263.416H183.94V269.45H189.974V263.416Z" fill="#00FF00" stroke="#00FF00"/>
<path d="M196.008 263.416H189.974V269.45H196.008V263.416Z" fill="#00FF00" stroke="#00FF00"/>
<path d="M202.041 263.416H196.008V269.45H202.041V263.416Z" fill="#00FF00" stroke="#00FF00"/>
<path d="M208.075 233.248H202.041V239.281H208.075V233.248Z" fill="#00FF00" stroke="#00FF00"/>
<path d="M214.108 233.248H208.075V239.281H214.108V233.248Z" fill="#00FF00" stroke="#00FF00"/>
<path d="M208.075 239.281H202.041V245.315H208.075V239.281Z" fill="#00FF00" stroke="#00FF00"/>
<path d="M214.108 239.281H208.075V245.315H214.108V239.281Z" fill="#00FF00" stroke="#00FF00"/>
<path d="M208.075 245.315H202.041V251.349H208.075V245.315Z" fill="#00FF00" stroke="#00FF00"/>
<path d="M214.108 245.315H208.075V251.349H214.108V245.315Z" fill="#00FF00" stroke="#00FF00"/>
<path d="M208.075 251.349H202.041V257.383H208.075V251.349Z" fill="#00FF00" stroke="#00FF00"/>
<path d="M214.108 251.349H208.075V257.383H214.108V251.349Z" fill="#00FF00" stroke="#00FF00"/>
<path d="M208.075 257.383H202.041V263.417H208.075V257.383Z" fill="#00FF00" stroke="#00FF00"/>
<path d="M214.108 257.383H208.075V263.417H214.108V257.383Z" fill="#00FF00" stroke="#00FF00"/>
<path d="M208.075 263.416H202.041V269.45H208.075V263.416Z" fill="#00FF00" stroke="#00FF00"/>
<path d="M214.108 263.416H208.075V269.45H214.108V263.416Z" fill="#00FF00" stroke="#00FF00"/>
<path d="M220.142 233.248H214.108V239.281H220.142V233.248Z" fill="#00FF00" stroke="#00FF00"/>
<path d="M226.176 233.248H220.142V239.281H226.176V233.248Z" fill="#00FF00" stroke="#00FF00"/>
<path d="M220.142 239.281H214.108V245.315H220.142V239.281Z" fill="#00FF00" stroke="#00FF00"/>
<path d="M226.176 239.281H220.142V245.315H226.176V239.281Z" fill="#00FF00" stroke="#00FF00"/>
<path d="M220.142 245.315H214.108V251.349H220.142V245.315Z" fill="#00FF00" stroke="#00FF00"/>
<path d="M226.176 245.315H220.142V251.349H226.176V245.315Z" fill="#00FF00" stroke="#00FF00"/>
<path d="M220.142 251.349H214.108V257.383H220.142V251.349Z" fill="#00FF00" stroke="#00FF00"/>
<path d="M226.176 251.349H220.142V257.383H226.176V251.349Z" fill="#00FF00" stroke="#00FF00"/>
<path d="M220.142 257.383H214.108V263.417H220.142V257.383Z" fill="#00FF00" stroke="#00FF00"/>
<path d="M226.176 257.383H220.142V263.417H226.176V257.383Z" fill="#00FF00" stroke="#00FF00"/>
<path d="M220.142 263.416H214.108V269.45H220.142V263.416Z" fill="#00FF00" stroke="#00FF00"/>
<path d="M226.176 263.416H220.142V269.45H226.176V263.416Z" fill="#00FF00" stroke="#00FF00"/>
<path d="M232.209 233.248H226.176V239.281H232.209V233.248Z" fill="#00FF00" stroke="#00FF00"/>
<path d="M238.243 233.248H232.209V239.281H238.243V233.248Z" fill="#00FF00" stroke="#00FF00"/>
<path d="M232.209 239.281H226.176V245.315H232.209V239.281Z" fill="#00FF00" stroke="#00FF00"/>
<path d="M238.243 239.281H232.209V245.315H238.243V239.281Z" fill="#00FF00" stroke="#00FF00"/>
<path d="M232.209 245.315H226.176V251.349H232.209V245.315Z" fill="#00FF00" stroke="#00FF00"/>
<path d="M238.243 245.315H232.209V251.349H238.243V245.315Z" fill="#00FF00" stroke="#00FF00"/>
<path d="M232.209 251.349H226.176V257.383H232.209V251.349Z" fill="#00FF00" stroke="#00FF00"/>
<path d="M238.243 251.349H232.209V257.383H238.243V251.349Z" fill="#00FF00" stroke="#00FF00"/>
<path d="M232.209 257.383H226.176V263.417H232.209V257.383Z" fill="#00FF00" stroke="#00FF00"/>
<path d="M238.243 257.383H232.209V263.417H238.243V257.383Z" fill="#00FF00" stroke="#00FF00"/>
<path d="M232.209 263.416H226.176V269.45H232.209V263.416Z" fill="#00FF00" stroke="#00FF00"/>
<path d="M238.243 263.416H232.209V269.45H238.243V263.416Z" fill="#00FF00" stroke="#00FF00"/>
<path d="M244.276 239.281H238.243V245.315H244.276V239.281Z" fill="#00FF00" stroke="#00FF00"/>
<path d="M244.276 245.315H238.243V251.349H244.276V245.315Z" fill="#00FF00" stroke="#00FF00"/>
<path d="M250.31 245.315H244.276V251.349H250.31V245.315Z" fill="#00FF00" stroke="#00FF00"/>
<path d="M244.276 251.349H238.243V257.383H244.276V251.349Z" fill="#00FF00" stroke="#00FF00"/>
<path d="M250.31 251.349H244.276V257.383H250.31V251.349Z" fill="#00FF00" stroke="#00FF00"/>
<path d="M244.276 257.383H238.243V263.417H244.276V257.383Z" fill="#00FF00" stroke="#00FF00"/>
<path d="M250.31 257.383H244.276V263.417H250.31V257.383Z" fill="#00FF00" stroke="#00FF00"/>
<path d="M244.276 263.416H238.243V269.45H244.276V263.416Z" fill="#00FF00" stroke="#00FF00"/>
<path d="M250.31 263.416H244.276V269.45H250.31V263.416Z" fill="#00FF00" stroke="#00FF00"/>
  <g id="selector-arrow">
    <path d="M139.684 9.6761L139.684 4.83789L134.915 4.83789L134.915 9.6761L139.684 9.6761Z" fill="transparent"/>
    <path d="M144.453 4.83821L144.453 0L139.684 -2.08461e-07L139.684 4.83821L144.453 4.83821Z" fill="transparent"/>
    <path d="M134.915 14.5145L134.915 9.67627L130.146 9.67627L130.146 14.5145L134.915 14.5145Z" fill="transparent"/>
    <path d="M130.146 9.6761L130.146 4.83789L125.377 4.83789L125.377 9.6761L130.146 9.6761Z" fill="transparent"/>
    <path d="M130.146 4.83821L130.146 0L125.377 -2.08461e-07L125.377 4.83821L130.146 4.83821Z" fill="transparent"/>
    <path d="M134.915 4.83821L134.915 0L130.146 -2.08461e-07L130.146 4.83821L134.915 4.83821Z" fill="transparent"/>
    <path d="M139.684 4.83821L139.684 0L134.915 -2.08461e-07L134.915 4.83821L139.684 4.83821Z" fill="transparent"/>
    <path d="M125.377 4.83821L125.377 0L120.608 -2.08461e-07L120.608 4.83821L125.377 4.83821Z" fill="transparent"/>
    <path d="M134.915 9.6761L134.915 4.83789L130.146 4.83789L130.146 9.6761L134.915 9.6761Z" fill="transparent"/>
    <g id="selector-border">
      <path d="M3 247L3 277L33 277" stroke="transparent" stroke-width="6"/>
      <path d="M261 247L261 277L231 277" stroke="transparent" stroke-width="6"/>
      <path d="M3 38L3 8L33 8" stroke="transparent" stroke-width="6"/>
      <path d="M261 38L261 8L231 8" stroke="transparent" stroke-width="6"/>
    </g>
  </g>
</svg>
