<svg width="330" height="363" viewBox="0 0 330 363" fill="none" xmlns="http://www.w3.org/2000/svg">
<path d="M101.353 126.692H92.907V135.138H101.353V126.692Z" fill="#FF7700" stroke="#FF7700"/>
<path d="M109.8 126.692H101.354V135.138H109.8V126.692Z" fill="#FF7700" stroke="#FF7700"/>
<path d="M118.246 126.692H109.8V135.138H118.246V126.692Z" fill="#FF7700" stroke="#FF7700"/>
<path d="M126.692 126.692H118.246V135.138H126.692V126.692Z" fill="#FF69D1" stroke="#FF69D1"/>
<path d="M135.138 126.692H126.692V135.138H135.138V126.692Z" fill="#FF69D1" stroke="#FF69D1"/>
<path d="M143.584 126.692H135.138V135.138H143.584V126.692Z" fill="#FF69D1" stroke="#FF69D1"/>
<path d="M152.03 126.692H143.584V135.138H152.03V126.692Z" fill="#FF69D1" stroke="#FF69D1"/>
<path d="M160.476 126.692H152.03V135.138H160.476V126.692Z" fill="#FF69D1" stroke="#FF69D1"/>
<path d="M168.922 126.692H160.476V135.138H168.922V126.692Z" fill="#FF69D1" stroke="#FF69D1"/>
<path d="M177.368 126.692H168.922V135.138H177.368V126.692Z" fill="#F91C86" stroke="#F91C86"/>
<path d="M185.814 126.692H177.368V135.138H185.814V126.692Z" fill="#FF7700" stroke="#FF7700"/>
<path d="M194.261 126.692H185.815V135.138H194.261V126.692Z" fill="#FF7700" stroke="#FF7700"/>
<path d="M202.707 126.692H194.26V135.138H202.707V126.692Z" fill="#FF7700" stroke="#FF7700"/>
<path d="M211.153 126.692H202.707V135.138H211.153V126.692Z" fill="#FF7700" stroke="#FF7700"/>
<path d="M219.599 126.692H211.153V135.138H219.599V126.692Z" fill="#FF7700" stroke="#FF7700"/>
<path d="M228.045 126.692H219.599V135.138H228.045V126.692Z" fill="#F91C86" stroke="#F91C86"/>
<path d="M236.491 126.692H228.045V135.138H236.491V126.692Z" fill="#F91C86" stroke="#F91C86"/>
<path d="M244.937 126.692H236.491V135.138H244.937V126.692Z" fill="#FF7700" stroke="#FF7700"/>
<path d="M253.384 126.692H244.938V135.138H253.384V126.692Z" fill="#FF7700" stroke="#FF7700"/>
<path d="M261.83 126.692H253.384V135.138H261.83V126.692Z" fill="#FF7700" stroke="#FF7700"/>
<path d="M101.353 135.138H92.907V143.584H101.353V135.138Z" fill="#FF7700" stroke="#FF7700"/>
<path d="M109.8 135.138H101.354V143.584H109.8V135.138Z" fill="#FF7700" stroke="#FF7700"/>
<path d="M118.246 135.138H109.8V143.584H118.246V135.138Z" fill="#FF7700" stroke="#FF7700"/>
<path d="M126.692 135.138H118.246V143.584H126.692V135.138Z" fill="#FF69D1" stroke="#FF69D1"/>
<path d="M135.138 135.138H126.692V143.584H135.138V135.138Z" fill="#FF69D1" stroke="#FF69D1"/>
<path d="M143.584 135.138H135.138V143.584H143.584V135.138Z" fill="#FF69D1" stroke="#FF69D1"/>
<path d="M152.03 135.138H143.584V143.584H152.03V135.138Z" fill="#FF69D1" stroke="#FF69D1"/>
<path d="M160.476 135.138H152.03V143.584H160.476V135.138Z" fill="#FF69D1" stroke="#FF69D1"/>
<path d="M168.922 135.138H160.476V143.584H168.922V135.138Z" fill="#FF69D1" stroke="#FF69D1"/>
<path d="M177.368 135.138H168.922V143.584H177.368V135.138Z" fill="#FF69D1" stroke="#FF69D1"/>
<path d="M185.814 135.138H177.368V143.584H185.814V135.138Z" fill="#F91C86" stroke="#F91C86"/>
<path d="M194.261 135.138H185.815V143.584H194.261V135.138Z" fill="#FF7700" stroke="#FF7700"/>
<path d="M202.707 135.138H194.26V143.584H202.707V135.138Z" fill="#FF7700" stroke="#FF7700"/>
<path d="M211.153 135.138H202.707V143.584H211.153V135.138Z" fill="#FF7700" stroke="#FF7700"/>
<path d="M219.599 135.138H211.153V143.584H219.599V135.138Z" fill="#FF7700" stroke="#FF7700"/>
<path d="M228.045 135.138H219.599V143.584H228.045V135.138Z" fill="#FF7700" stroke="#FF7700"/>
<path d="M236.491 135.138H228.045V143.584H236.491V135.138Z" fill="#FF7700" stroke="#FF7700"/>
<path d="M244.937 135.138H236.491V143.584H244.937V135.138Z" fill="#FF7700" stroke="#FF7700"/>
<path d="M253.384 135.138H244.938V143.584H253.384V135.138Z" fill="#FF7700" stroke="#FF7700"/>
<path d="M261.83 135.138H253.384V143.584H261.83V135.138Z" fill="#FF7700" stroke="#FF7700"/>
<path d="M101.353 143.584H92.907V152.03H101.353V143.584Z" fill="#FF7700" stroke="#FF7700"/>
<path d="M109.8 143.584H101.354V152.03H109.8V143.584Z" fill="#FF7700" stroke="#FF7700"/>
<path d="M118.246 143.584H109.8V152.03H118.246V143.584Z" fill="#FF69D1" stroke="#FF69D1"/>
<path d="M126.692 143.584H118.246V152.03H126.692V143.584Z" fill="#FF69D1" stroke="#FF69D1"/>
<path d="M135.138 143.584H126.692V152.03H135.138V143.584Z" fill="#FF69D1" stroke="#FF69D1"/>
<path d="M143.584 143.584H135.138V152.03H143.584V143.584Z" fill="#FF69D1" stroke="#FF69D1"/>
<path d="M152.03 143.584H143.584V152.03H152.03V143.584Z" fill="#FF69D1" stroke="#FF69D1"/>
<path d="M160.476 143.584H152.03V152.03H160.476V143.584Z" fill="#FF69D1" stroke="#FF69D1"/>
<path d="M168.922 143.584H160.476V152.03H168.922V143.584Z" fill="#FF69D1" stroke="#FF69D1"/>
<path d="M177.368 143.584H168.922V152.03H177.368V143.584Z" fill="#FF69D1" stroke="#FF69D1"/>
<path d="M185.814 143.584H177.368V152.03H185.814V143.584Z" fill="#FF69D1" stroke="#FF69D1"/>
<path d="M194.261 143.584H185.815V152.03H194.261V143.584Z" fill="#F91C86" stroke="#F91C86"/>
<path d="M202.707 143.584H194.26V152.03H202.707V143.584Z" fill="#FF7700" stroke="#FF7700"/>
<path d="M211.153 143.584H202.707V152.03H211.153V143.584Z" fill="#FF7700" stroke="#FF7700"/>
<path d="M219.599 143.584H211.153V152.03H219.599V143.584Z" fill="#FF7700" stroke="#FF7700"/>
<path d="M228.045 143.584H219.599V152.03H228.045V143.584Z" fill="#FF7700" stroke="#FF7700"/>
<path d="M236.491 143.584H228.045V152.03H236.491V143.584Z" fill="#FF7700" stroke="#FF7700"/>
<path d="M244.937 143.584H236.491V152.03H244.937V143.584Z" fill="#FF7700" stroke="#FF7700"/>
<path d="M253.384 143.584H244.938V152.03H253.384V143.584Z" fill="#F91C86" stroke="#F91C86"/>
<path d="M261.83 143.584H253.384V152.03H261.83V143.584Z" fill="#F91C86" stroke="#F91C86"/>
<path d="M109.8 101.353H101.354V109.8H109.8V101.353Z" fill="#FF7700" stroke="#FF7700"/>
<path d="M118.246 101.353H109.8V109.8H118.246V101.353Z" fill="#FF7700" stroke="#FF7700"/>
<path d="M126.692 101.353H118.246V109.8H126.692V101.353Z" fill="#F91C86" stroke="#F91C86"/>
<path d="M135.138 101.353H126.692V109.8H135.138V101.353Z" fill="#FF7700" stroke="#FF7700"/>
<path d="M143.584 101.353H135.138V109.8H143.584V101.353Z" fill="#FF7700" stroke="#FF7700"/>
<path d="M152.03 101.353H143.584V109.8H152.03V101.353Z" fill="#FF7700" stroke="#FF7700"/>
<path d="M160.476 101.353H152.03V109.8H160.476V101.353Z" fill="#FF7700" stroke="#FF7700"/>
<path d="M168.922 101.353H160.476V109.8H168.922V101.353Z" fill="#FF7700" stroke="#FF7700"/>
<path d="M177.368 101.353H168.922V109.8H177.368V101.353Z" fill="#FF7700" stroke="#FF7700"/>
<path d="M185.814 101.353H177.368V109.8H185.814V101.353Z" fill="#FF7700" stroke="#FF7700"/>
<path d="M194.261 101.353H185.815V109.8H194.261V101.353Z" fill="#FF7700" stroke="#FF7700"/>
<path d="M202.707 101.353H194.26V109.8H202.707V101.353Z" fill="#FF7700" stroke="#FF7700"/>
<path d="M211.153 101.353H202.707V109.8H211.153V101.353Z" fill="#FF7700" stroke="#FF7700"/>
<path d="M219.599 101.353H211.153V109.8H219.599V101.353Z" fill="#FF7700" stroke="#FF7700"/>
<path d="M228.045 101.353H219.599V109.8H228.045V101.353Z" fill="#FF7700" stroke="#FF7700"/>
<path d="M236.491 101.353H228.045V109.8H236.491V101.353Z" fill="#FF7700" stroke="#FF7700"/>
<path d="M244.937 101.353H236.491V109.8H244.937V101.353Z" fill="#FF7700" stroke="#FF7700"/>
<path d="M109.8 92.9073H101.354V101.353H109.8V92.9073Z" fill="#FF7700" stroke="#FF7700"/>
<path d="M118.246 92.9073H109.8V101.353H118.246V92.9073Z" fill="#FF7700" stroke="#FF7700"/>
<path d="M126.692 92.9073H118.246V101.353H126.692V92.9073Z" fill="#FF7700" stroke="#FF7700"/>
<path d="M135.138 92.9073H126.692V101.353H135.138V92.9073Z" fill="#FF7700" stroke="#FF7700"/>
<path d="M143.584 92.9073H135.138V101.353H143.584V92.9073Z" fill="#FF7700" stroke="#FF7700"/>
<path d="M152.03 92.9073H143.584V101.353H152.03V92.9073Z" fill="#FF7700" stroke="#FF7700"/>
<path d="M160.476 92.9073H152.03V101.353H160.476V92.9073Z" fill="#FF7700" stroke="#FF7700"/>
<path d="M168.922 92.9073H160.476V101.353H168.922V92.9073Z" fill="#FF7700" stroke="#FF7700"/>
<path d="M177.368 92.9073H168.922V101.353H177.368V92.9073Z" fill="#FF7700" stroke="#FF7700"/>
<path d="M185.814 92.9073H177.368V101.353H185.814V92.9073Z" fill="#FF7700" stroke="#FF7700"/>
<path d="M194.261 92.9073H185.815V101.353H194.261V92.9073Z" fill="#FF7700" stroke="#FF7700"/>
<path d="M202.707 92.9073H194.26V101.353H202.707V92.9073Z" fill="#FF7700" stroke="#FF7700"/>
<path d="M211.153 92.9073H202.707V101.353H211.153V92.9073Z" fill="#FF7700" stroke="#FF7700"/>
<path d="M219.599 92.9073H211.153V101.353H219.599V92.9073Z" fill="#FF7700" stroke="#FF7700"/>
<path d="M228.045 92.9073H219.599V101.353H228.045V92.9073Z" fill="#FF7700" stroke="#FF7700"/>
<path d="M236.491 92.9073H228.045V101.353H236.491V92.9073Z" fill="#FF7700" stroke="#FF7700"/>
<path d="M244.937 92.9073H236.491V101.353H244.937V92.9073Z" fill="#FF7700" stroke="#FF7700"/>
<path d="M261.83 92.9073H253.384V101.353H261.83V92.9073Z" fill="#FF7700" stroke="#FF7700"/>
<path d="M101.353 109.8H92.907V118.246H101.353V109.8Z" fill="#FF7700" stroke="#FF7700"/>
<path d="M109.8 109.8H101.354V118.246H109.8V109.8Z" fill="#FF7700" stroke="#FF7700"/>
<path d="M118.246 109.8H109.8V118.246H118.246V109.8Z" fill="#F91C86" stroke="#F91C86"/>
<path d="M126.692 109.8H118.246V118.246H126.692V109.8Z" fill="#FF7700" stroke="#FF7700"/>
<path d="M135.138 109.8H126.692V118.246H135.138V109.8Z" fill="#FF7700" stroke="#FF7700"/>
<path d="M143.584 109.8H135.138V118.246H143.584V109.8Z" fill="#FF7700" stroke="#FF7700"/>
<path d="M152.03 109.8H143.584V118.246H152.03V109.8Z" fill="#FF69D1" stroke="#FF69D1"/>
<path d="M160.476 109.8H152.03V118.246H160.476V109.8Z" fill="#FF69D1" stroke="#FF69D1"/>
<path d="M168.922 109.8H160.476V118.246H168.922V109.8Z" fill="#FF69D1" stroke="#FF69D1"/>
<path d="M177.368 109.8H168.922V118.246H177.368V109.8Z" fill="#FF7700" stroke="#FF7700"/>
<path d="M185.814 109.8H177.368V118.246H185.814V109.8Z" fill="#FF7700" stroke="#FF7700"/>
<path d="M194.261 109.8H185.815V118.246H194.261V109.8Z" fill="#FF7700" stroke="#FF7700"/>
<path d="M202.707 109.8H194.26V118.246H202.707V109.8Z" fill="#FF7700" stroke="#FF7700"/>
<path d="M211.153 109.8H202.707V118.246H211.153V109.8Z" fill="#F91C86" stroke="#F91C86"/>
<path d="M219.599 109.8H211.153V118.246H219.599V109.8Z" fill="#FF7700" stroke="#FF7700"/>
<path d="M228.045 109.8H219.599V118.246H228.045V109.8Z" fill="#FF7700" stroke="#FF7700"/>
<path d="M236.491 109.8H228.045V118.246H236.491V109.8Z" fill="#FF7700" stroke="#FF7700"/>
<path d="M244.937 109.8H236.491V118.246H244.937V109.8Z" fill="#FF7700" stroke="#FF7700"/>
<path d="M253.384 109.8H244.938V118.246H253.384V109.8Z" fill="#FF7700" stroke="#FF7700"/>
<path d="M261.83 109.8H253.384V118.246H261.83V109.8Z" fill="#FF7700" stroke="#FF7700"/>
<path d="M101.353 118.245H92.907V126.692H101.353V118.245Z" fill="#FF7700" stroke="#FF7700"/>
<path d="M109.8 118.245H101.354V126.692H109.8V118.245Z" fill="#F91C86" stroke="#F91C86"/>
<path d="M118.246 118.245H109.8V126.692H118.246V118.245Z" fill="#FF7700" stroke="#FF7700"/>
<path d="M126.692 118.245H118.246V126.692H126.692V118.245Z" fill="#FF7700" stroke="#FF7700"/>
<path d="M135.138 118.245H126.692V126.692H135.138V118.245Z" fill="#FF69D1" stroke="#FF69D1"/>
<path d="M143.584 118.245H135.138V126.692H143.584V118.245Z" fill="#FF69D1" stroke="#FF69D1"/>
<path d="M152.03 118.245H143.584V126.692H152.03V118.245Z" fill="#FF69D1" stroke="#FF69D1"/>
<path d="M160.476 118.245H152.03V126.692H160.476V118.245Z" fill="#FF69D1" stroke="#FF69D1"/>
<path d="M168.922 118.245H160.476V126.692H168.922V118.245Z" fill="#FF69D1" stroke="#FF69D1"/>
<path d="M177.368 118.245H168.922V126.692H177.368V118.245Z" fill="#F91C86" stroke="#F91C86"/>
<path d="M185.814 118.245H177.368V126.692H185.814V118.245Z" fill="#FF7700" stroke="#FF7700"/>
<path d="M194.261 118.245H185.815V126.692H194.261V118.245Z" fill="#FF7700" stroke="#FF7700"/>
<path d="M202.707 118.245H194.26V126.692H202.707V118.245Z" fill="#FF7700" stroke="#FF7700"/>
<path d="M211.153 118.245H202.707V126.692H211.153V118.245Z" fill="#FF7700" stroke="#FF7700"/>
<path d="M219.599 118.245H211.153V126.692H219.599V118.245Z" fill="#F91C86" stroke="#F91C86"/>
<path d="M228.045 118.245H219.599V126.692H228.045V118.245Z" fill="#FF7700" stroke="#FF7700"/>
<path d="M236.491 118.245H228.045V126.692H236.491V118.245Z" fill="#FF7700" stroke="#FF7700"/>
<path d="M244.937 118.245H236.491V126.692H244.937V118.245Z" fill="#FF7700" stroke="#FF7700"/>
<path d="M253.384 118.245H244.938V126.692H253.384V118.245Z" fill="#FF7700" stroke="#FF7700"/>
<path d="M261.83 118.245H253.384V126.692H261.83V118.245Z" fill="#FF7700" stroke="#FF7700"/>
<path d="M109.8 152.03H101.354V160.476H109.8V152.03Z" fill="#FF7700" stroke="#FF7700"/>
<path d="M118.246 152.03H109.8V160.476H118.246V152.03Z" fill="#FF69D1" stroke="#FF69D1"/>
<path d="M126.692 152.03H118.246V160.476H126.692V152.03Z" fill="#FF69D1" stroke="#FF69D1"/>
<path d="M135.138 152.03H126.692V160.476H135.138V152.03Z" fill="#FF69D1" stroke="#FF69D1"/>
<path d="M143.584 152.03H135.138V160.476H143.584V152.03Z" fill="#FF69D1" stroke="#FF69D1"/>
<path d="M152.03 152.03H143.584V160.476H152.03V152.03Z" fill="#FF69D1" stroke="#FF69D1"/>
<path d="M160.476 152.03H152.03V160.476H160.476V152.03Z" fill="#FF69D1" stroke="#FF69D1"/>
<path d="M168.922 152.03H160.476V160.476H168.922V152.03Z" fill="#FF69D1" stroke="#FF69D1"/>
<path d="M177.368 152.03H168.922V160.476H177.368V152.03Z" fill="#FF69D1" stroke="#FF69D1"/>
<path d="M185.814 152.03H177.368V160.476H185.814V152.03Z" fill="#FF69D1" stroke="#FF69D1"/>
<path d="M194.261 152.03H185.815V160.476H194.261V152.03Z" fill="#FF69D1" stroke="#FF69D1"/>
<path d="M202.707 152.03H194.26V160.476H202.707V152.03Z" fill="#F91C86" stroke="#F91C86"/>
<path d="M211.153 152.03H202.707V160.476H211.153V152.03Z" fill="#F91C86" stroke="#F91C86"/>
<path d="M219.599 152.03H211.153V160.476H219.599V152.03Z" fill="#F91C86" stroke="#F91C86"/>
<path d="M228.045 152.03H219.599V160.476H228.045V152.03Z" fill="#FF7700" stroke="#FF7700"/>
<path d="M236.491 152.03H228.045V160.476H236.491V152.03Z" fill="#FF7700" stroke="#FF7700"/>
<path d="M244.937 152.03H236.491V160.476H244.937V152.03Z" fill="#FF7700" stroke="#FF7700"/>
<path d="M253.384 152.03H244.938V160.476H253.384V152.03Z" fill="#FF7700" stroke="#FF7700"/>
<path d="M261.83 152.03H253.384V160.476H261.83V152.03Z" fill="#FF7700" stroke="#FF7700"/>
<path d="M109.8 160.476H101.354V168.922H109.8V160.476Z" fill="#FF7700" stroke="#FF7700"/>
<path d="M118.246 160.476H109.8V168.922H118.246V160.476Z" fill="#F91C86" stroke="#F91C86"/>
<path d="M126.692 160.476H118.246V168.922H126.692V160.476Z" fill="#F91C86" stroke="#F91C86"/>
<path d="M135.138 160.476H126.692V168.922H135.138V160.476Z" fill="#F91C86" stroke="#F91C86"/>
<path d="M143.584 160.476H135.138V168.922H143.584V160.476Z" fill="#F91C86" stroke="#F91C86"/>
<path d="M152.03 160.476H143.584V168.922H152.03V160.476Z" fill="#F91C86" stroke="#F91C86"/>
<path d="M160.476 160.476H152.03V168.922H160.476V160.476Z" fill="#FF69D1" stroke="#FF69D1"/>
<path d="M168.922 160.476H160.476V168.922H168.922V160.476Z" fill="#FF69D1" stroke="#FF69D1"/>
<path d="M177.368 160.476H168.922V168.922H177.368V160.476Z" fill="#FF69D1" stroke="#FF69D1"/>
<path d="M185.814 160.476H177.368V168.922H185.814V160.476Z" fill="#F91C86" stroke="#F91C86"/>
<path d="M194.261 160.476H185.815V168.922H194.261V160.476Z" fill="#F91C86" stroke="#F91C86"/>
<path d="M202.707 160.476H194.26V168.922H202.707V160.476Z" fill="#F91C86" stroke="#F91C86"/>
<path d="M211.153 160.476H202.707V168.922H211.153V160.476Z" fill="#F91C86" stroke="#F91C86"/>
<path d="M219.599 160.476H211.153V168.922H219.599V160.476Z" fill="#F91C86" stroke="#F91C86"/>
<path d="M228.045 160.476H219.599V168.922H228.045V160.476Z" fill="#FF7700" stroke="#FF7700"/>
<path d="M236.491 160.476H228.045V168.922H236.491V160.476Z" fill="#FF7700" stroke="#FF7700"/>
<path d="M244.937 160.476H236.491V168.922H244.937V160.476Z" fill="#FF7700" stroke="#FF7700"/>
<path d="M101.353 168.922H92.907V177.368H101.353V168.922Z" fill="#FF69D1" stroke="#FF69D1"/>
<path d="M109.8 168.922H101.354V177.368H109.8V168.922Z" fill="#F91C86" stroke="#F91C86"/>
<path d="M118.246 168.922H109.8V177.368H118.246V168.922Z" fill="black" stroke="black"/>
<path d="M126.692 168.922H118.246V177.368H126.692V168.922Z" fill="black" stroke="black"/>
<path d="M135.138 168.922H126.692V177.368H135.138V168.922Z" fill="black" stroke="black"/>
<path d="M143.584 168.922H135.138V177.368H143.584V168.922Z" fill="black" stroke="black"/>
<path d="M152.03 168.922H143.584V177.368H152.03V168.922Z" fill="black" stroke="black"/>
<path d="M160.476 168.922H152.03V177.368H160.476V168.922Z" fill="#FF69D1" stroke="#FF69D1"/>
<path d="M168.922 168.922H160.476V177.368H168.922V168.922Z" fill="#FF69D1" stroke="#FF69D1"/>
<path d="M177.368 168.922H168.922V177.368H177.368V168.922Z" fill="#FF69D1" stroke="#FF69D1"/>
<path d="M185.814 168.922H177.368V177.368H185.814V168.922Z" fill="black" stroke="black"/>
<path d="M194.261 168.922H185.815V177.368H194.261V168.922Z" fill="black" stroke="black"/>
<path d="M202.707 168.922H194.26V177.368H202.707V168.922Z" fill="black" stroke="black"/>
<path d="M211.153 168.922H202.707V177.368H211.153V168.922Z" fill="black" stroke="black"/>
<path d="M219.599 168.922H211.153V177.368H219.599V168.922Z" fill="black" stroke="black"/>
<path d="M228.045 168.922H219.599V177.368H228.045V168.922Z" fill="#F91C86" stroke="#F91C86"/>
<path d="M236.491 168.922H228.045V177.368H236.491V168.922Z" fill="#F91C86" stroke="#F91C86"/>
<path d="M92.9073 177.368H84.4612V185.814H92.9073V177.368Z" fill="#FF7700" stroke="#FF7700"/>
<path d="M101.353 177.368H92.907V185.814H101.353V177.368Z" fill="#FF69D1" stroke="#FF69D1"/>
<path d="M109.8 177.368H101.354V185.814H109.8V177.368Z" fill="#F91C86" stroke="#F91C86"/>
<path d="M118.246 177.368H109.8V185.814H118.246V177.368Z" fill="#F91C86" stroke="#F91C86"/>
<path d="M126.692 177.368H118.246V185.814H126.692V177.368Z" fill="white" stroke="white"/>
<path d="M135.138 177.368H126.692V185.814H135.138V177.368Z" fill="black" stroke="black"/>
<path d="M143.584 177.368H135.138V185.814H143.584V177.368Z" fill="#00FF00" stroke="#00FF00"/>
<path d="M152.03 177.368H143.584V185.814H152.03V177.368Z" fill="white" stroke="white"/>
<path d="M160.476 177.368H152.03V185.814H160.476V177.368Z" fill="#FF69D1" stroke="#FF69D1"/>
<path d="M168.922 177.368H160.476V185.814H168.922V177.368Z" fill="#FF69D1" stroke="#FF69D1"/>
<path d="M177.368 177.368H168.922V185.814H177.368V177.368Z" fill="#FF69D1" stroke="#FF69D1"/>
<path d="M185.814 177.368H177.368V185.814H185.814V177.368Z" fill="white" stroke="white"/>
<path d="M194.261 177.368H185.815V185.814H194.261V177.368Z" fill="black" stroke="black"/>
<path d="M202.707 177.368H194.26V185.814H202.707V177.368Z" fill="#00FF00" stroke="#00FF00"/>
<path d="M211.153 177.368H202.707V185.814H211.153V177.368Z" fill="white" stroke="white"/>
<path d="M219.599 177.368H211.153V185.814H219.599V177.368Z" fill="#F91C86" stroke="#F91C86"/>
<path d="M228.045 177.368H219.599V185.814H228.045V177.368Z" fill="#F91C86" stroke="#F91C86"/>
<path d="M236.491 177.368H228.045V185.814H236.491V177.368Z" fill="#FF69D1" stroke="#FF69D1"/>
<path d="M92.9073 185.814H84.4612V194.261H92.9073V185.814Z" fill="#FF7700" stroke="#FF7700"/>
<path d="M101.353 185.814H92.907V194.261H101.353V185.814Z" fill="#FF69D1" stroke="#FF69D1"/>
<path d="M109.8 185.814H101.354V194.261H109.8V185.814Z" fill="#F91C86" stroke="#F91C86"/>
<path d="M118.246 185.814H109.8V194.261H118.246V185.814Z" fill="#FF69D1" stroke="#FF69D1"/>
<path d="M126.692 185.814H118.246V194.261H126.692V185.814Z" fill="white" stroke="white"/>
<path d="M135.138 185.814H126.692V194.261H135.138V185.814Z" fill="black" stroke="black"/>
<path d="M143.584 185.814H135.138V194.261H143.584V185.814Z" fill="black" stroke="black"/>
<path d="M152.03 185.814H143.584V194.261H152.03V185.814Z" fill="white" stroke="white"/>
<path d="M160.476 185.814H152.03V194.261H160.476V185.814Z" fill="#FF69D1" stroke="#FF69D1"/>
<path d="M168.922 185.814H160.476V194.261H168.922V185.814Z" fill="#FF69D1" stroke="#FF69D1"/>
<path d="M177.368 185.814H168.922V194.261H177.368V185.814Z" fill="#FF69D1" stroke="#FF69D1"/>
<path d="M185.814 185.814H177.368V194.261H185.814V185.814Z" fill="white" stroke="white"/>
<path d="M194.261 185.814H185.815V194.261H194.261V185.814Z" fill="black" stroke="black"/>
<path d="M202.707 185.814H194.26V194.261H202.707V185.814Z" fill="black" stroke="black"/>
<path d="M211.153 185.814H202.707V194.261H211.153V185.814Z" fill="white" stroke="white"/>
<path d="M219.599 185.814H211.153V194.261H219.599V185.814Z" fill="#FF69D1" stroke="#FF69D1"/>
<path d="M228.045 185.814H219.599V194.261H228.045V185.814Z" fill="#F91C86" stroke="#F91C86"/>
<path d="M236.491 185.814H228.045V194.261H236.491V185.814Z" fill="#FF69D1" stroke="#FF69D1"/>
<path d="M92.9073 194.261H84.4612V202.707H92.9073V194.261Z" fill="#FF7700" stroke="#FF7700"/>
<path d="M101.353 194.261H92.907V202.707H101.353V194.261Z" fill="#FF69D1" stroke="#FF69D1"/>
<path d="M109.8 194.261H101.354V202.707H109.8V194.261Z" fill="#F91C86" stroke="#F91C86"/>
<path d="M118.246 194.261H109.8V202.707H118.246V194.261Z" fill="#FF69D1" stroke="#FF69D1"/>
<path d="M126.692 194.261H118.246V202.707H126.692V194.261Z" fill="#FF69D1" stroke="#FF69D1"/>
<path d="M135.138 194.261H126.692V202.707H135.138V194.261Z" fill="#FF69D1" stroke="#FF69D1"/>
<path d="M143.584 194.261H135.138V202.707H143.584V194.261Z" fill="#FF69D1" stroke="#FF69D1"/>
<path d="M152.03 194.261H143.584V202.707H152.03V194.261Z" fill="#FF69D1" stroke="#FF69D1"/>
<path d="M160.476 194.261H152.03V202.707H160.476V194.261Z" fill="#FF69D1" stroke="#FF69D1"/>
<path d="M168.922 194.261H160.476V202.707H168.922V194.261Z" fill="#FF69D1" stroke="#FF69D1"/>
<path d="M177.368 194.261H168.922V202.707H177.368V194.261Z" fill="#FF69D1" stroke="#FF69D1"/>
<path d="M185.814 194.261H177.368V202.707H185.814V194.261Z" fill="#FF69D1" stroke="#FF69D1"/>
<path d="M194.261 194.261H185.815V202.707H194.261V194.261Z" fill="#FF69D1" stroke="#FF69D1"/>
<path d="M202.707 194.261H194.26V202.707H202.707V194.261Z" fill="#FF69D1" stroke="#FF69D1"/>
<path d="M211.153 194.261H202.707V202.707H211.153V194.261Z" fill="#FF69D1" stroke="#FF69D1"/>
<path d="M219.599 194.261H211.153V202.707H219.599V194.261Z" fill="#FF69D1" stroke="#FF69D1"/>
<path d="M228.045 194.261H219.599V202.707H228.045V194.261Z" fill="#F91C86" stroke="#F91C86"/>
<path d="M236.491 194.261H228.045V202.707H236.491V194.261Z" fill="#FF69D1" stroke="#FF69D1"/>
<path d="M92.9073 202.707H84.4612V211.153H92.9073V202.707Z" fill="#FF7700" stroke="#FF7700"/>
<path d="M101.353 202.707H92.907V211.153H101.353V202.707Z" fill="#FF69D1" stroke="#FF69D1"/>
<path d="M109.8 202.707H101.354V211.153H109.8V202.707Z" fill="#F91C86" stroke="#F91C86"/>
<path d="M118.246 202.707H109.8V211.153H118.246V202.707Z" fill="#FF69D1" stroke="#FF69D1"/>
<path d="M126.692 202.707H118.246V211.153H126.692V202.707Z" fill="#FF69D1" stroke="#FF69D1"/>
<path d="M135.138 202.707H126.692V211.153H135.138V202.707Z" fill="#FF69D1" stroke="#FF69D1"/>
<path d="M143.584 202.707H135.138V211.153H143.584V202.707Z" fill="#FF69D1" stroke="#FF69D1"/>
<path d="M152.03 202.707H143.584V211.153H152.03V202.707Z" fill="#FF69D1" stroke="#FF69D1"/>
<path d="M160.476 202.707H152.03V211.153H160.476V202.707Z" fill="#FF69D1" stroke="#FF69D1"/>
<path d="M168.922 202.707H160.476V211.153H168.922V202.707Z" fill="#FF69D1" stroke="#FF69D1"/>
<path d="M177.368 202.707H168.922V211.153H177.368V202.707Z" fill="#FF69D1" stroke="#FF69D1"/>
<path d="M185.814 202.707H177.368V211.153H185.814V202.707Z" fill="#FF69D1" stroke="#FF69D1"/>
<path d="M194.261 202.707H185.815V211.153H194.261V202.707Z" fill="#FF69D1" stroke="#FF69D1"/>
<path d="M202.707 202.707H194.26V211.153H202.707V202.707Z" fill="#FF69D1" stroke="#FF69D1"/>
<path d="M211.153 202.707H202.707V211.153H211.153V202.707Z" fill="#FF69D1" stroke="#FF69D1"/>
<path d="M219.599 202.707H211.153V211.153H219.599V202.707Z" fill="#FF69D1" stroke="#FF69D1"/>
<path d="M228.045 202.707H219.599V211.153H228.045V202.707Z" fill="#F91C86" stroke="#F91C86"/>
<path d="M236.491 202.707H228.045V211.153H236.491V202.707Z" fill="#FF69D1" stroke="#FF69D1"/>
<path d="M92.9073 211.153H84.4612V219.599H92.9073V211.153Z" fill="#FF7700" stroke="#FF7700"/>
<path d="M101.353 211.153H92.907V219.599H101.353V211.153Z" fill="#FF7700" stroke="#FF7700"/>
<path d="M109.8 211.153H101.354V219.599H109.8V211.153Z" fill="#F91C86" stroke="#F91C86"/>
<path d="M118.246 211.153H109.8V219.599H118.246V211.153Z" fill="#FF69D1" stroke="#FF69D1"/>
<path d="M126.692 211.153H118.246V219.599H126.692V211.153Z" fill="#FF69D1" stroke="#FF69D1"/>
<path d="M135.138 211.153H126.692V219.599H135.138V211.153Z" fill="#FF69D1" stroke="#FF69D1"/>
<path d="M143.584 211.153H135.138V219.599H143.584V211.153Z" fill="#FF69D1" stroke="#FF69D1"/>
<path d="M152.03 211.153H143.584V219.599H152.03V211.153Z" fill="#FF69D1" stroke="#FF69D1"/>
<path d="M160.476 211.153H152.03V219.599H160.476V211.153Z" fill="#F91C86" stroke="#F91C86"/>
<path d="M168.922 211.153H160.476V219.599H168.922V211.153Z" fill="#F91C86" stroke="#F91C86"/>
<path d="M177.368 211.153H168.922V219.599H177.368V211.153Z" fill="#F91C86" stroke="#F91C86"/>
<path d="M185.814 211.153H177.368V219.599H185.814V211.153Z" fill="#FF69D1" stroke="#FF69D1"/>
<path d="M194.261 211.153H185.815V219.599H194.261V211.153Z" fill="#FF69D1" stroke="#FF69D1"/>
<path d="M202.707 211.153H194.26V219.599H202.707V211.153Z" fill="#FF69D1" stroke="#FF69D1"/>
<path d="M211.153 211.153H202.707V219.599H211.153V211.153Z" fill="#FF69D1" stroke="#FF69D1"/>
<path d="M219.599 211.153H211.153V219.599H219.599V211.153Z" fill="#FF69D1" stroke="#FF69D1"/>
<path d="M228.045 211.153H219.599V219.599H228.045V211.153Z" fill="#F91C86" stroke="#F91C86"/>
<path d="M236.491 211.153H228.045V219.599H236.491V211.153Z" fill="#FF7700" stroke="#FF7700"/>
<path d="M244.937 211.153H236.491V219.599H244.937V211.153Z" fill="#FF7700" stroke="#FF7700"/>
<path d="M253.384 211.153H244.938V219.599H253.384V211.153Z" fill="#FF7700" stroke="#FF7700"/>
<path d="M92.9073 219.599H84.4612V228.045H92.9073V219.599Z" fill="#F91C86" stroke="#F91C86"/>
<path d="M101.353 219.599H92.907V228.045H101.353V219.599Z" fill="white" stroke="white"/>
<path d="M109.8 219.599H101.354V228.045H109.8V219.599Z" fill="#FF7700" stroke="#FF7700"/>
<path d="M118.246 219.599H109.8V228.045H118.246V219.599Z" fill="#FF69D1" stroke="#FF69D1"/>
<path d="M126.692 219.599H118.246V228.045H126.692V219.599Z" fill="#FF69D1" stroke="#FF69D1"/>
<path d="M135.138 219.599H126.692V228.045H135.138V219.599Z" fill="#FF69D1" stroke="#FF69D1"/>
<path d="M143.584 219.599H135.138V228.045H143.584V219.599Z" fill="#FF69D1" stroke="#FF69D1"/>
<path d="M152.03 219.599H143.584V228.045H152.03V219.599Z" fill="#FF69D1" stroke="#FF69D1"/>
<path d="M160.476 219.599H152.03V228.045H160.476V219.599Z" fill="#FF69D1" stroke="#FF69D1"/>
<path d="M168.922 219.599H160.476V228.045H168.922V219.599Z" fill="#FF69D1" stroke="#FF69D1"/>
<path d="M177.368 219.599H168.922V228.045H177.368V219.599Z" fill="#FF69D1" stroke="#FF69D1"/>
<path d="M185.814 219.599H177.368V228.045H185.814V219.599Z" fill="#FF69D1" stroke="#FF69D1"/>
<path d="M194.261 219.599H185.815V228.045H194.261V219.599Z" fill="#FF69D1" stroke="#FF69D1"/>
<path d="M202.707 219.599H194.26V228.045H202.707V219.599Z" fill="#FF69D1" stroke="#FF69D1"/>
<path d="M211.153 219.599H202.707V228.045H211.153V219.599Z" fill="#FF69D1" stroke="#FF69D1"/>
<path d="M219.599 219.599H211.153V228.045H219.599V219.599Z" fill="#FF69D1" stroke="#FF69D1"/>
<path d="M228.045 219.599H219.599V228.045H228.045V219.599Z" fill="#FF7700" stroke="#FF7700"/>
<path d="M236.491 219.599H228.045V228.045H236.491V219.599Z" fill="#F91C86" stroke="#F91C86"/>
<path d="M244.937 219.599H236.491V228.045H244.937V219.599Z" fill="white" stroke="white"/>
<path d="M253.384 219.599H244.938V228.045H253.384V219.599Z" fill="#FF7700" stroke="#FF7700"/>
<path d="M261.83 219.599H253.384V228.045H261.83V219.599Z" fill="#FF7700" stroke="#FF7700"/>
<path d="M92.9073 228.045H84.4612V236.491H92.9073V228.045Z" fill="#F91C86" stroke="#F91C86"/>
<path d="M101.353 228.045H92.907V236.491H101.353V228.045Z" fill="#F91C86" stroke="#F91C86"/>
<path d="M109.8 228.045H101.354V236.491H109.8V228.045Z" fill="#FF7700" stroke="#FF7700"/>
<path d="M118.246 228.045H109.8V236.491H118.246V228.045Z" fill="#FF69D1" stroke="#FF69D1"/>
<path d="M126.692 228.045H118.246V236.491H126.692V228.045Z" fill="#FF69D1" stroke="#FF69D1"/>
<path d="M135.138 228.045H126.692V236.491H135.138V228.045Z" fill="#FF69D1" stroke="#FF69D1"/>
<path d="M143.584 228.045H135.138V236.491H143.584V228.045Z" fill="#F91C86" stroke="#F91C86"/>
<path d="M152.03 228.045H143.584V236.491H152.03V228.045Z" fill="#F91C86" stroke="#F91C86"/>
<path d="M160.476 228.045H152.03V236.491H160.476V228.045Z" fill="#F91C86" stroke="#F91C86"/>
<path d="M168.922 228.045H160.476V236.491H168.922V228.045Z" fill="#F91C86" stroke="#F91C86"/>
<path d="M177.368 228.045H168.922V236.491H177.368V228.045Z" fill="#F91C86" stroke="#F91C86"/>
<path d="M185.814 228.045H177.368V236.491H185.814V228.045Z" fill="#F91C86" stroke="#F91C86"/>
<path d="M194.261 228.045H185.815V236.491H194.261V228.045Z" fill="#F91C86" stroke="#F91C86"/>
<path d="M202.707 228.045H194.26V236.491H202.707V228.045Z" fill="#FF69D1" stroke="#FF69D1"/>
<path d="M211.153 228.045H202.707V236.491H211.153V228.045Z" fill="#FF69D1" stroke="#FF69D1"/>
<path d="M219.599 228.045H211.153V236.491H219.599V228.045Z" fill="#FF69D1" stroke="#FF69D1"/>
<path d="M228.045 228.045H219.599V236.491H228.045V228.045Z" fill="#FF7700" stroke="#FF7700"/>
<path d="M236.491 228.045H228.045V236.491H236.491V228.045Z" fill="#F91C86" stroke="#F91C86"/>
<path d="M244.937 228.045H236.491V236.491H244.937V228.045Z" fill="#F91C86" stroke="#F91C86"/>
<path d="M253.384 228.045H244.938V236.491H253.384V228.045Z" fill="#FF7700" stroke="#FF7700"/>
<path d="M261.83 228.045H253.384V236.491H261.83V228.045Z" fill="#FF7700" stroke="#FF7700"/>
<path d="M92.9073 236.491H84.4612V244.937H92.9073V236.491Z" fill="#FF7700" stroke="#FF7700"/>
<path d="M101.353 236.491H92.907V244.937H101.353V236.491Z" fill="#FF7700" stroke="#FF7700"/>
<path d="M109.8 236.491H101.354V244.937H109.8V236.491Z" fill="#FF7700" stroke="#FF7700"/>
<path d="M118.246 236.491H109.8V244.937H118.246V236.491Z" fill="#FF69D1" stroke="#FF69D1"/>
<path d="M126.692 236.491H118.246V244.937H126.692V236.491Z" fill="#FF69D1" stroke="#FF69D1"/>
<path d="M135.138 236.491H126.692V244.937H135.138V236.491Z" fill="#FF69D1" stroke="#FF69D1"/>
<path d="M143.584 236.491H135.138V244.937H143.584V236.491Z" fill="#FF69D1" stroke="#FF69D1"/>
<path d="M152.03 236.491H143.584V244.937H152.03V236.491Z" fill="#F91C86" stroke="#F91C86"/>
<path d="M160.476 236.491H152.03V244.937H160.476V236.491Z" fill="white" stroke="white"/>
<path d="M168.922 236.491H160.476V244.937H168.922V236.491Z" fill="white" stroke="white"/>
<path d="M177.368 236.491H168.922V244.937H177.368V236.491Z" fill="white" stroke="white"/>
<path d="M185.814 236.491H177.368V244.937H185.814V236.491Z" fill="#F91C86" stroke="#F91C86"/>
<path d="M194.261 236.491H185.815V244.937H194.261V236.491Z" fill="#FF69D1" stroke="#FF69D1"/>
<path d="M202.707 236.491H194.26V244.937H202.707V236.491Z" fill="#FF69D1" stroke="#FF69D1"/>
<path d="M211.153 236.491H202.707V244.937H211.153V236.491Z" fill="#FF69D1" stroke="#FF69D1"/>
<path d="M219.599 236.491H211.153V244.937H219.599V236.491Z" fill="#FF69D1" stroke="#FF69D1"/>
<path d="M228.045 236.491H219.599V244.937H228.045V236.491Z" fill="#FF7700" stroke="#FF7700"/>
<path d="M236.491 236.491H228.045V244.937H236.491V236.491Z" fill="#FF7700" stroke="#FF7700"/>
<path d="M244.937 236.491H236.491V244.937H244.937V236.491Z" fill="#FF7700" stroke="#FF7700"/>
<path d="M253.384 236.491H244.938V244.937H253.384V236.491Z" fill="#FF7700" stroke="#FF7700"/>
<path d="M261.83 236.491H253.384V244.937H261.83V236.491Z" fill="#FF7700" stroke="#FF7700"/>
<path d="M84.4611 244.937H76.0149V253.384H84.4611V244.937Z" fill="#FF7700" stroke="#FF7700"/>
<path d="M92.9073 244.937H84.4612V253.384H92.9073V244.937Z" fill="#FF7700" stroke="#FF7700"/>
<path d="M101.353 244.937H92.907V253.384H101.353V244.937Z" fill="#FF7700" stroke="#FF7700"/>
<path d="M109.8 244.937H101.354V253.384H109.8V244.937Z" fill="#FF7700" stroke="#FF7700"/>
<path d="M118.246 244.937H109.8V253.384H118.246V244.937Z" fill="#F91C86" stroke="#F91C86"/>
<path d="M126.692 244.937H118.246V253.384H126.692V244.937Z" fill="#FF69D1" stroke="#FF69D1"/>
<path d="M135.138 244.937H126.692V253.384H135.138V244.937Z" fill="#FF69D1" stroke="#FF69D1"/>
<path d="M143.584 244.937H135.138V253.384H143.584V244.937Z" fill="#FF69D1" stroke="#FF69D1"/>
<path d="M152.03 244.937H143.584V253.384H152.03V244.937Z" fill="#FF69D1" stroke="#FF69D1"/>
<path d="M160.476 244.937H152.03V253.384H160.476V244.937Z" fill="#F91C86" stroke="#F91C86"/>
<path d="M168.922 244.937H160.476V253.384H168.922V244.937Z" fill="#F91C86" stroke="#F91C86"/>
<path d="M177.368 244.937H168.922V253.384H177.368V244.937Z" fill="#F91C86" stroke="#F91C86"/>
<path d="M185.814 244.937H177.368V253.384H185.814V244.937Z" fill="#FF69D1" stroke="#FF69D1"/>
<path d="M194.261 244.937H185.815V253.384H194.261V244.937Z" fill="#FF69D1" stroke="#FF69D1"/>
<path d="M202.707 244.937H194.26V253.384H202.707V244.937Z" fill="#FF69D1" stroke="#FF69D1"/>
<path d="M211.153 244.937H202.707V253.384H211.153V244.937Z" fill="#FF69D1" stroke="#FF69D1"/>
<path d="M219.599 244.937H211.153V253.384H219.599V244.937Z" fill="#F91C86" stroke="#F91C86"/>
<path d="M228.045 244.937H219.599V253.384H228.045V244.937Z" fill="#FF7700" stroke="#FF7700"/>
<path d="M236.491 244.937H228.045V253.384H236.491V244.937Z" fill="#FF7700" stroke="#FF7700"/>
<path d="M244.937 244.937H236.491V253.384H244.937V244.937Z" fill="#FF7700" stroke="#FF7700"/>
<path d="M253.384 244.937H244.938V253.384H253.384V244.937Z" fill="#FF7700" stroke="#FF7700"/>
<path d="M261.83 244.937H253.384V253.384H261.83V244.937Z" fill="#FF7700" stroke="#FF7700"/>
<path d="M84.4611 253.384H76.0149V261.83H84.4611V253.384Z" fill="#FF7700" stroke="#FF7700"/>
<path d="M92.9073 253.384H84.4612V261.83H92.9073V253.384Z" fill="#FF7700" stroke="#FF7700"/>
<path d="M101.353 253.384H92.907V261.83H101.353V253.384Z" fill="#FF7700" stroke="#FF7700"/>
<path d="M109.8 253.384H101.354V261.83H109.8V253.384Z" fill="#FF7700" stroke="#FF7700"/>
<path d="M118.246 253.384H109.8V261.83H118.246V253.384Z" fill="#F91C86" stroke="#F91C86"/>
<path d="M126.692 253.384H118.246V261.83H126.692V253.384Z" fill="#FF69D1" stroke="#FF69D1"/>
<path d="M135.138 253.384H126.692V261.83H135.138V253.384Z" fill="#FF69D1" stroke="#FF69D1"/>
<path d="M143.584 253.384H135.138V261.83H143.584V253.384Z" fill="#FF69D1" stroke="#FF69D1"/>
<path d="M152.03 253.384H143.584V261.83H152.03V253.384Z" fill="#FF69D1" stroke="#FF69D1"/>
<path d="M160.476 253.384H152.03V261.83H160.476V253.384Z" fill="#FF69D1" stroke="#FF69D1"/>
<path d="M168.922 253.384H160.476V261.83H168.922V253.384Z" fill="#FF69D1" stroke="#FF69D1"/>
<path d="M177.368 253.384H168.922V261.83H177.368V253.384Z" fill="#FF69D1" stroke="#FF69D1"/>
<path d="M185.814 253.384H177.368V261.83H185.814V253.384Z" fill="#FF69D1" stroke="#FF69D1"/>
<path d="M194.261 253.384H185.815V261.83H194.261V253.384Z" fill="#FF69D1" stroke="#FF69D1"/>
<path d="M202.707 253.384H194.26V261.83H202.707V253.384Z" fill="#FF69D1" stroke="#FF69D1"/>
<path d="M211.153 253.384H202.707V261.83H211.153V253.384Z" fill="#FF69D1" stroke="#FF69D1"/>
<path d="M219.599 253.384H211.153V261.83H219.599V253.384Z" fill="#F91C86" stroke="#F91C86"/>
<path d="M228.045 253.384H219.599V261.83H228.045V253.384Z" fill="#FF7700" stroke="#FF7700"/>
<path d="M236.491 253.384H228.045V261.83H236.491V253.384Z" fill="#FF7700" stroke="#FF7700"/>
<path d="M244.937 253.384H236.491V261.83H244.937V253.384Z" fill="#FF7700" stroke="#FF7700"/>
<path d="M253.384 253.384H244.938V261.83H253.384V253.384Z" fill="#FF7700" stroke="#FF7700"/>
<path d="M261.83 253.384H253.384V261.83H261.83V253.384Z" fill="#FF7700" stroke="#FF7700"/>
<path d="M84.4611 261.829H76.0149V270.276H84.4611V261.829Z" fill="#FF7700" stroke="#FF7700"/>
<path d="M92.9073 261.829H84.4612V270.276H92.9073V261.829Z" fill="#FF7700" stroke="#FF7700"/>
<path d="M101.353 261.829H92.907V270.276H101.353V261.829Z" fill="#FF7700" stroke="#FF7700"/>
<path d="M109.8 261.829H101.354V270.276H109.8V261.829Z" fill="#FF7700" stroke="#FF7700"/>
<path d="M118.246 261.829H109.8V270.276H118.246V261.829Z" fill="#F91C86" stroke="#F91C86"/>
<path d="M126.692 261.829H118.246V270.276H126.692V261.829Z" fill="#F91C86" stroke="#F91C86"/>
<path d="M135.138 261.829H126.692V270.276H135.138V261.829Z" fill="#FF69D1" stroke="#FF69D1"/>
<path d="M143.584 261.829H135.138V270.276H143.584V261.829Z" fill="#FF69D1" stroke="#FF69D1"/>
<path d="M152.03 261.829H143.584V270.276H152.03V261.829Z" fill="#FF69D1" stroke="#FF69D1"/>
<path d="M160.476 261.829H152.03V270.276H160.476V261.829Z" fill="#FF69D1" stroke="#FF69D1"/>
<path d="M168.922 261.829H160.476V270.276H168.922V261.829Z" fill="#FF69D1" stroke="#FF69D1"/>
<path d="M177.368 261.829H168.922V270.276H177.368V261.829Z" fill="#FF69D1" stroke="#FF69D1"/>
<path d="M185.814 261.829H177.368V270.276H185.814V261.829Z" fill="#FF69D1" stroke="#FF69D1"/>
<path d="M194.261 261.829H185.815V270.276H194.261V261.829Z" fill="#FF69D1" stroke="#FF69D1"/>
<path d="M202.707 261.829H194.26V270.276H202.707V261.829Z" fill="#FF69D1" stroke="#FF69D1"/>
<path d="M211.153 261.829H202.707V270.276H211.153V261.829Z" fill="#F91C86" stroke="#F91C86"/>
<path d="M219.599 261.829H211.153V270.276H219.599V261.829Z" fill="#F91C86" stroke="#F91C86"/>
<path d="M228.045 261.829H219.599V270.276H228.045V261.829Z" fill="#FF7700" stroke="#FF7700"/>
<path d="M236.491 261.829H228.045V270.276H236.491V261.829Z" fill="#FF7700" stroke="#FF7700"/>
<path d="M244.937 261.829H236.491V270.276H244.937V261.829Z" fill="#FF7700" stroke="#FF7700"/>
<path d="M253.384 261.829H244.938V270.276H253.384V261.829Z" fill="#FF7700" stroke="#FF7700"/>
<path d="M84.4611 270.276H76.0149V278.722H84.4611V270.276Z" fill="#FF7700" stroke="#FF7700"/>
<path d="M92.9073 270.276H84.4612V278.722H92.9073V270.276Z" fill="#FF7700" stroke="#FF7700"/>
<path d="M101.353 270.276H92.907V278.722H101.353V270.276Z" fill="#FF7700" stroke="#FF7700"/>
<path d="M109.8 270.276H101.354V278.722H109.8V270.276Z" fill="#00FF00" stroke="#00FF00"/>
<path d="M118.246 270.276H109.8V278.722H118.246V270.276Z" fill="#00FF00" stroke="#00FF00"/>
<path d="M126.692 270.276H118.246V278.722H126.692V270.276Z" fill="#00FF00" stroke="#00FF00"/>
<path d="M135.138 270.276H126.692V278.722H135.138V270.276Z" fill="#006800" stroke="#006800"/>
<path d="M143.584 270.276H135.138V278.722H143.584V270.276Z" fill="#F91C86" stroke="#F91C86"/>
<path d="M152.03 270.276H143.584V278.722H152.03V270.276Z" fill="#FF69D1" stroke="#FF69D1"/>
<path d="M160.476 270.276H152.03V278.722H160.476V270.276Z" fill="#FF69D1" stroke="#FF69D1"/>
<path d="M168.922 270.276H160.476V278.722H168.922V270.276Z" fill="#FF69D1" stroke="#FF69D1"/>
<path d="M177.368 270.276H168.922V278.722H177.368V270.276Z" fill="#FF69D1" stroke="#FF69D1"/>
<path d="M185.814 270.276H177.368V278.722H185.814V270.276Z" fill="#FF69D1" stroke="#FF69D1"/>
<path d="M194.261 270.276H185.815V278.722H194.261V270.276Z" fill="#F91C86" stroke="#F91C86"/>
<path d="M202.707 270.276H194.26V278.722H202.707V270.276Z" fill="#006800" stroke="#006800"/>
<path d="M211.153 270.276H202.707V278.722H211.153V270.276Z" fill="#00FF00" stroke="#00FF00"/>
<path d="M219.599 270.276H211.153V278.722H219.599V270.276Z" fill="#00FF00" stroke="#00FF00"/>
<path d="M228.045 270.276H219.599V278.722H228.045V270.276Z" fill="#00FF00" stroke="#00FF00"/>
<path d="M236.491 270.276H228.045V278.722H236.491V270.276Z" fill="#FF7700" stroke="#FF7700"/>
<path d="M244.937 270.276H236.491V278.722H244.937V270.276Z" fill="#FF7700" stroke="#FF7700"/>
<path d="M253.384 270.276H244.938V278.722H253.384V270.276Z" fill="#FF7700" stroke="#FF7700"/>
<path d="M92.9073 278.722H84.4612V287.168H92.9073V278.722Z" fill="#FF7700" stroke="#FF7700"/>
<path d="M101.353 278.722H92.907V287.168H101.353V278.722Z" fill="#FF7700" stroke="#FF7700"/>
<path d="M109.8 278.722H101.354V287.168H109.8V278.722Z" fill="#00FF00" stroke="#00FF00"/>
<path d="M118.246 278.722H109.8V287.168H118.246V278.722Z" fill="#00FF00" stroke="#00FF00"/>
<path d="M126.692 278.722H118.246V287.168H126.692V278.722Z" fill="#00FF00" stroke="#00FF00"/>
<path d="M135.138 278.722H126.692V287.168H135.138V278.722Z" fill="#006800" stroke="#006800"/>
<path d="M143.584 278.722H135.138V287.168H143.584V278.722Z" fill="#F91C86" stroke="#F91C86"/>
<path d="M152.03 278.722H143.584V287.168H152.03V278.722Z" fill="#F91C86" stroke="#F91C86"/>
<path d="M160.476 278.722H152.03V287.168H160.476V278.722Z" fill="#F91C86" stroke="#F91C86"/>
<path d="M168.922 278.722H160.476V287.168H168.922V278.722Z" fill="#F91C86" stroke="#F91C86"/>
<path d="M177.368 278.722H168.922V287.168H177.368V278.722Z" fill="#F91C86" stroke="#F91C86"/>
<path d="M185.814 278.722H177.368V287.168H185.814V278.722Z" fill="#F91C86" stroke="#F91C86"/>
<path d="M194.261 278.722H185.815V287.168H194.261V278.722Z" fill="#F91C86" stroke="#F91C86"/>
<path d="M202.707 278.722H194.26V287.168H202.707V278.722Z" fill="#006800" stroke="#006800"/>
<path d="M211.153 278.722H202.707V287.168H211.153V278.722Z" fill="#00FF00" stroke="#00FF00"/>
<path d="M219.599 278.722H211.153V287.168H219.599V278.722Z" fill="#00FF00" stroke="#00FF00"/>
<path d="M228.045 278.722H219.599V287.168H228.045V278.722Z" fill="#00FF00" stroke="#00FF00"/>
<path d="M236.491 278.722H228.045V287.168H236.491V278.722Z" fill="#FF7700" stroke="#FF7700"/>
<path d="M244.937 278.722H236.491V287.168H244.937V278.722Z" fill="#FF7700" stroke="#FF7700"/>
<path d="M253.384 278.722H244.938V287.168H253.384V278.722Z" fill="#FF7700" stroke="#FF7700"/>

<path d="M92.9073 287.168H84.4612V295.614H92.9073V287.168Z" fill="#FF7700" stroke="#FF7700"/>
<path d="M101.353 287.168H92.907V295.614H101.353V287.168Z" fill="#FF7700" stroke="#FF7700"/>
<path d="M109.8 287.168H101.354V295.614H109.8V287.168Z" fill="#FF7700" stroke="#FF7700"/>
<path d="M118.246 287.168H109.8V295.614H118.246V287.168Z" fill="#00FF00" stroke="#00FF00"/>
<path d="M126.692 287.168H118.246V295.614H126.692V287.168Z" fill="#00FF00" stroke="#00FF00"/>
<path d="M135.138 287.168H126.692V295.614H135.138V287.168Z" fill="#006800" stroke="#006800"/>
<path d="M143.584 287.168H135.138V295.614H143.584V287.168Z" fill="#FF69D1" stroke="#FF69D1"/>
<path d="M152.03 287.168H143.584V295.614H152.03V287.168Z" fill="#F91C86" stroke="#F91C86"/>
<path d="M160.476 287.168H152.03V295.614H160.476V287.168Z" fill="#F91C86" stroke="#F91C86"/>
<path d="M168.922 287.168H160.476V295.614H168.922V287.168Z" fill="#F91C86" stroke="#F91C86"/>
<path d="M177.368 287.168H168.922V295.614H177.368V287.168Z" fill="#F91C86" stroke="#F91C86"/>
<path d="M185.814 287.168H177.368V295.614H185.814V287.168Z" fill="#F91C86" stroke="#F91C86"/>
<path d="M194.261 287.168H185.815V295.614H194.261V287.168Z" fill="#F91C86" stroke="#F91C86"/>
<path d="M202.707 287.168H194.26V295.614H202.707V287.168Z" fill="#006800" stroke="#006800"/>
<path d="M211.153 287.168H202.707V295.614H211.153V287.168Z" fill="#00FF00" stroke="#00FF00"/>
<path d="M219.599 287.168H211.153V295.614H219.599V287.168Z" fill="#00FF00" stroke="#00FF00"/>
<path d="M228.045 287.168H219.599V295.614H228.045V287.168Z" fill="#FF7700" stroke="#FF7700"/>
<path d="M236.491 287.168H228.045V295.614H236.491V287.168Z" fill="#FF7700" stroke="#FF7700"/>
<path d="M244.937 287.168H236.491V295.614H244.937V287.168Z" fill="#FF7700" stroke="#FF7700"/>
<path d="M253.384 287.168H244.938V295.614H253.384V287.168Z" fill="#FF7700" stroke="#FF7700"/>
<path d="M261.83 287.168H253.384V295.614H261.83V287.168Z" fill="#FF7700" stroke="#FF7700"/>
<path d="M92.9073 295.614H84.4612V304.06H92.9073V295.614Z" fill="#FF7700" stroke="#FF7700"/>
<path d="M101.353 295.614H92.907V304.06H101.353V295.614Z" fill="#FF7700" stroke="#FF7700"/>
<path d="M109.8 295.614H101.354V304.06H109.8V295.614Z" fill="#FF7700" stroke="#FF7700"/>
<path d="M118.246 295.614H109.8V304.06H118.246V295.614Z" fill="#00FF00" stroke="#00FF00"/>
<path d="M126.692 295.614H118.246V304.06H126.692V295.614Z" fill="#00FF00" stroke="#00FF00"/>
<path d="M135.138 295.614H126.692V304.06H135.138V295.614Z" fill="#006800" stroke="#006800"/>
<path d="M143.584 295.614H135.138V304.06H143.584V295.614Z" fill="#FF69D1" stroke="#FF69D1"/>
<path d="M152.03 295.614H143.584V304.06H152.03V295.614Z" fill="#FF69D1" stroke="#FF69D1"/>
<path d="M160.476 295.614H152.03V304.06H160.476V295.614Z" fill="#FF69D1" stroke="#FF69D1"/>
<path d="M168.922 295.614H160.476V304.06H168.922V295.614Z" fill="#FF69D1" stroke="#FF69D1"/>
<path d="M177.368 295.614H168.922V304.06H177.368V295.614Z" fill="#FF69D1" stroke="#FF69D1"/>
<path d="M185.814 295.614H177.368V304.06H185.814V295.614Z" fill="#FF69D1" stroke="#FF69D1"/>
<path d="M194.261 295.614H185.815V304.06H194.261V295.614Z" fill="#F91C86" stroke="#F91C86"/>
<path d="M202.707 295.614H194.26V304.06H202.707V295.614Z" fill="#006800" stroke="#006800"/>
<path d="M211.153 295.614H202.707V304.06H211.153V295.614Z" fill="#00FF00" stroke="#00FF00"/>
<path d="M219.599 295.614H211.153V304.06H219.599V295.614Z" fill="#00FF00" stroke="#00FF00"/>
<path d="M228.045 295.614H219.599V304.06H228.045V295.614Z" fill="#FF7700" stroke="#FF7700"/>
<path d="M236.491 295.614H228.045V304.06H236.491V295.614Z" fill="#FF7700" stroke="#FF7700"/>
<path d="M244.937 295.614H236.491V304.06H244.937V295.614Z" fill="#FF7700" stroke="#FF7700"/>
<path d="M253.384 295.614H244.938V304.06H253.384V295.614Z" fill="#FF7700" stroke="#FF7700"/>
<path d="M261.83 295.614H253.384V304.06H261.83V295.614Z" fill="#FF7700" stroke="#FF7700"/>
<path d="M84.4611 304.06H76.0149V312.506H84.4611V304.06Z" fill="#FF7700" stroke="#FF7700"/>
<path d="M92.9073 304.06H84.4612V312.506H92.9073V304.06Z" fill="#FF7700" stroke="#FF7700"/>
<path d="M101.353 304.06H92.907V312.506H101.353V304.06Z" fill="#FF7700" stroke="#FF7700"/>
<path d="M109.8 304.06H101.354V312.506H109.8V304.06Z" fill="#FF7700" stroke="#FF7700"/>
<path d="M118.246 304.06H109.8V312.506H118.246V304.06Z" fill="#00FF00" stroke="#00FF00"/>
<path d="M126.692 304.06H118.246V312.506H126.692V304.06Z" fill="#00FF00" stroke="#00FF00"/>
<path d="M135.138 304.06H126.692V312.506H135.138V304.06Z" fill="#006800" stroke="#006800"/>
<path d="M143.584 304.06H135.138V312.506H143.584V304.06Z" fill="#FF69D1" stroke="#FF69D1"/>
<path d="M152.03 304.06H143.584V312.506H152.03V304.06Z" fill="#FF69D1" stroke="#FF69D1"/>
<path d="M160.476 304.06H152.03V312.506H160.476V304.06Z" fill="#FF69D1" stroke="#FF69D1"/>
<path d="M168.922 304.06H160.476V312.506H168.922V304.06Z" fill="#FF69D1" stroke="#FF69D1"/>
<path d="M177.368 304.06H168.922V312.506H177.368V304.06Z" fill="#FF69D1" stroke="#FF69D1"/>
<path d="M185.814 304.06H177.368V312.506H185.814V304.06Z" fill="#FF69D1" stroke="#FF69D1"/>
<path d="M194.261 304.06H185.815V312.506H194.261V304.06Z" fill="#F91C86" stroke="#F91C86"/>
<path d="M202.707 304.06H194.26V312.506H202.707V304.06Z" fill="#006800" stroke="#006800"/>
<path d="M211.153 304.06H202.707V312.506H211.153V304.06Z" fill="#00FF00" stroke="#00FF00"/>
<path d="M219.599 304.06H211.153V312.506H219.599V304.06Z" fill="#00FF00" stroke="#00FF00"/>
<path d="M228.045 304.06H219.599V312.506H228.045V304.06Z" fill="#FF7700" stroke="#FF7700"/>
<path d="M236.491 304.06H228.045V312.506H236.491V304.06Z" fill="#FF7700" stroke="#FF7700"/>
<path d="M244.937 304.06H236.491V312.506H244.937V304.06Z" fill="#FF7700" stroke="#FF7700"/>
<path d="M253.384 304.06H244.938V312.506H253.384V304.06Z" fill="#FF7700" stroke="#FF7700"/>
<path d="M261.83 304.06H253.384V312.506H261.83V304.06Z" fill="#FF7700" stroke="#FF7700"/>
<path d="M76.0151 312.506H67.5688V320.952H76.0151V312.506Z" fill="#00FF00" stroke="#00FF00"/>
<path d="M84.4611 312.506H76.0149V320.952H84.4611V312.506Z" fill="#00FF00" stroke="#00FF00"/>
<path d="M92.9073 312.506H84.4612V320.952H92.9073V312.506Z" fill="#00FF00" stroke="#00FF00"/>
<path d="M101.353 312.506H92.907V320.952H101.353V312.506Z" fill="#00FF00" stroke="#00FF00"/>
<path d="M109.8 312.506H101.354V320.952H109.8V312.506Z" fill="#00FF00" stroke="#00FF00"/>
<path d="M118.246 312.506H109.8V320.952H118.246V312.506Z" fill="#00FF00" stroke="#00FF00"/>
<path d="M126.692 312.506H118.246V320.952H126.692V312.506Z" fill="#00FF00" stroke="#00FF00"/>
<path d="M135.138 312.506H126.692V320.952H135.138V312.506Z" fill="#00FF00" stroke="#00FF00"/>
<path d="M143.584 312.506H135.138V320.952H143.584V312.506Z" fill="#FF69D1" stroke="#FF69D1"/>
<path d="M152.03 312.506H143.584V320.952H152.03V312.506Z" fill="#FF69D1" stroke="#FF69D1"/>
<path d="M160.476 312.506H152.03V320.952H160.476V312.506Z" fill="#FF69D1" stroke="#FF69D1"/>
<path d="M168.922 312.506H160.476V320.952H168.922V312.506Z" fill="#FF69D1" stroke="#FF69D1"/>
<path d="M177.368 312.506H168.922V320.952H177.368V312.506Z" fill="#FF69D1" stroke="#FF69D1"/>
<path d="M185.814 312.506H177.368V320.952H185.814V312.506Z" fill="#FF69D1" stroke="#FF69D1"/>
<path d="M194.261 312.506H185.815V320.952H194.261V312.506Z" fill="#F91C86" stroke="#F91C86"/>
<path d="M202.707 312.506H194.26V320.952H202.707V312.506Z" fill="#00FF00" stroke="#00FF00"/>
<path d="M211.153 312.506H202.707V320.952H211.153V312.506Z" fill="#00FF00" stroke="#00FF00"/>
<path d="M219.599 312.506H211.153V320.952H219.599V312.506Z" fill="#00FF00" stroke="#00FF00"/>
<path d="M228.045 312.506H219.599V320.952H228.045V312.506Z" fill="#00FF00" stroke="#00FF00"/>
<path d="M236.491 312.506H228.045V320.952H236.491V312.506Z" fill="#00FF00" stroke="#00FF00"/>
<path d="M244.937 312.506H236.491V320.952H244.937V312.506Z" fill="#00FF00" stroke="#00FF00"/>
<path d="M253.384 312.506H244.938V320.952H253.384V312.506Z" fill="#00FF00" stroke="#00FF00"/>
<path d="M261.83 312.506H253.384V320.952H261.83V312.506Z" fill="#00FF00" stroke="#00FF00"/>
<path d="M76.0151 320.952H67.5688V329.398H76.0151V320.952Z" fill="#00FF00" stroke="#00FF00"/>
<path d="M84.4611 320.952H76.0149V329.398H84.4611V320.952Z" fill="#00FF00" stroke="#00FF00"/>
<path d="M92.9073 320.952H84.4612V329.398H92.9073V320.952Z" fill="#00FF00" stroke="#00FF00"/>
<path d="M101.353 320.952H92.907V329.398H101.353V320.952Z" fill="#00FF00" stroke="#00FF00"/>
<path d="M109.8 320.952H101.354V329.398H109.8V320.952Z" fill="#00FF00" stroke="#00FF00"/>
<path d="M118.246 320.952H109.8V329.398H118.246V320.952Z" fill="#00FF00" stroke="#00FF00"/>
<path d="M126.692 320.952H118.246V329.398H126.692V320.952Z" fill="#00FF00" stroke="#00FF00"/>
<path d="M135.138 320.952H126.692V329.398H135.138V320.952Z" fill="#00FF00" stroke="#00FF00"/>
<path d="M143.584 320.952H135.138V329.398H143.584V320.952Z" fill="#FF69D1" stroke="#FF69D1"/>
<path d="M152.03 320.952H143.584V329.398H152.03V320.952Z" fill="#FF69D1" stroke="#FF69D1"/>
<path d="M160.476 320.952H152.03V329.398H160.476V320.952Z" fill="#FF69D1" stroke="#FF69D1"/>
<path d="M168.922 320.952H160.476V329.398H168.922V320.952Z" fill="#FF69D1" stroke="#FF69D1"/>
<path d="M177.368 320.952H168.922V329.398H177.368V320.952Z" fill="#FF69D1" stroke="#FF69D1"/>
<path d="M185.814 320.952H177.368V329.398H185.814V320.952Z" fill="#FF69D1" stroke="#FF69D1"/>
<path d="M194.261 320.952H185.815V329.398H194.261V320.952Z" fill="#F91C86" stroke="#F91C86"/>
<path d="M202.707 320.952H194.26V329.398H202.707V320.952Z" fill="#00FF00" stroke="#00FF00"/>
<path d="M211.153 320.952H202.707V329.398H211.153V320.952Z" fill="#00FF00" stroke="#00FF00"/>
<path d="M219.599 320.952H211.153V329.398H219.599V320.952Z" fill="#00FF00" stroke="#00FF00"/>
<path d="M228.045 320.952H219.599V329.398H228.045V320.952Z" fill="#00FF00" stroke="#00FF00"/>
<path d="M236.491 320.952H228.045V329.398H236.491V320.952Z" fill="#00FF00" stroke="#00FF00"/>
<path d="M244.937 320.952H236.491V329.398H244.937V320.952Z" fill="#00FF00" stroke="#00FF00"/>
<path d="M253.384 320.952H244.938V329.398H253.384V320.952Z" fill="#00FF00" stroke="#00FF00"/>
<path d="M261.83 320.952H253.384V329.398H261.83V320.952Z" fill="#00FF00" stroke="#00FF00"/>
<path d="M76.0151 329.398H67.5688V337.845H76.0151V329.398Z" fill="#00FF00" stroke="#00FF00"/>
<path d="M84.4611 329.398H76.0149V337.845H84.4611V329.398Z" fill="#00FF00" stroke="#00FF00"/>
<path d="M92.9073 329.398H84.4612V337.845H92.9073V329.398Z" fill="#00FF00" stroke="#00FF00"/>
<path d="M101.353 329.398H92.907V337.845H101.353V329.398Z" fill="#00FF00" stroke="#00FF00"/>
<path d="M109.8 329.398H101.354V337.845H109.8V329.398Z" fill="#00FF00" stroke="#00FF00"/>
<path d="M118.246 329.398H109.8V337.845H118.246V329.398Z" fill="#00FF00" stroke="#00FF00"/>
<path d="M126.692 329.398H118.246V337.845H126.692V329.398Z" fill="#00FF00" stroke="#00FF00"/>
<path d="M135.138 329.398H126.692V337.845H135.138V329.398Z" fill="#00FF00" stroke="#00FF00"/>
<path d="M143.584 329.398H135.138V337.845H143.584V329.398Z" fill="#FF69D1" stroke="#FF69D1"/>
<path d="M152.03 329.398H143.584V337.845H152.03V329.398Z" fill="#FF69D1" stroke="#FF69D1"/>
<path d="M160.476 329.398H152.03V337.845H160.476V329.398Z" fill="#FF69D1" stroke="#FF69D1"/>
<path d="M168.922 329.398H160.476V337.845H168.922V329.398Z" fill="#FF69D1" stroke="#FF69D1"/>
<path d="M177.368 329.398H168.922V337.845H177.368V329.398Z" fill="#FF69D1" stroke="#FF69D1"/>
<path d="M185.814 329.398H177.368V337.845H185.814V329.398Z" fill="#FF69D1" stroke="#FF69D1"/>
<path d="M194.261 329.398H185.815V337.845H194.261V329.398Z" fill="#F91C86" stroke="#F91C86"/>
<path d="M202.707 329.398H194.26V337.845H202.707V329.398Z" fill="#00FF00" stroke="#00FF00"/>
<path d="M211.153 329.398H202.707V337.845H211.153V329.398Z" fill="#00FF00" stroke="#00FF00"/>
<path d="M219.599 329.398H211.153V337.845H219.599V329.398Z" fill="#00FF00" stroke="#00FF00"/>
<path d="M228.045 329.398H219.599V337.845H228.045V329.398Z" fill="#00FF00" stroke="#00FF00"/>
<path d="M236.491 329.398H228.045V337.845H236.491V329.398Z" fill="#00FF00" stroke="#00FF00"/>
<path d="M244.937 329.398H236.491V337.845H244.937V329.398Z" fill="#00FF00" stroke="#00FF00"/>
<path d="M253.384 329.398H244.938V337.845H253.384V329.398Z" fill="#00FF00" stroke="#00FF00"/>
<path d="M261.83 329.398H253.384V337.845H261.83V329.398Z" fill="#00FF00" stroke="#00FF00"/>
<path d="M76.0151 337.845H67.5688V346.291H76.0151V337.845Z" fill="#00FF00" stroke="#00FF00"/>
<path d="M84.4611 337.845H76.0149V346.291H84.4611V337.845Z" fill="#00FF00" stroke="#00FF00"/>
<path d="M92.9073 337.845H84.4612V346.291H92.9073V337.845Z" fill="#00FF00" stroke="#00FF00"/>
<path d="M101.353 337.845H92.907V346.291H101.353V337.845Z" fill="#00FF00" stroke="#00FF00"/>
<path d="M109.8 337.845H101.354V346.291H109.8V337.845Z" fill="#00FF00" stroke="#00FF00"/>
<path d="M118.246 337.845H109.8V346.291H118.246V337.845Z" fill="#00FF00" stroke="#00FF00"/>
<path d="M126.692 337.845H118.246V346.291H126.692V337.845Z" fill="#00FF00" stroke="#00FF00"/>
<path d="M135.138 337.845H126.692V346.291H135.138V337.845Z" fill="#00FF00" stroke="#00FF00"/>
<path d="M143.584 337.845H135.138V346.291H143.584V337.845Z" fill="#00FF00" stroke="#00FF00"/>
<path d="M152.03 337.845H143.584V346.291H152.03V337.845Z" fill="#FF69D1" stroke="#FF69D1"/>
<path d="M160.476 337.845H152.03V346.291H160.476V337.845Z" fill="#FF69D1" stroke="#FF69D1"/>
<path d="M168.922 337.845H160.476V346.291H168.922V337.845Z" fill="#FF69D1" stroke="#FF69D1"/>
<path d="M177.368 337.845H168.922V346.291H177.368V337.845Z" fill="#FF69D1" stroke="#FF69D1"/>
<path d="M185.814 337.845H177.368V346.291H185.814V337.845Z" fill="#F91C86" stroke="#F91C86"/>
<path d="M194.261 337.845H185.815V346.291H194.261V337.845Z" fill="#00FF00" stroke="#00FF00"/>
<path d="M202.707 337.845H194.26V346.291H202.707V337.845Z" fill="#00FF00" stroke="#00FF00"/>
<path d="M211.153 337.845H202.707V346.291H211.153V337.845Z" fill="#00FF00" stroke="#00FF00"/>
<path d="M219.599 337.845H211.153V346.291H219.599V337.845Z" fill="#00FF00" stroke="#00FF00"/>
<path d="M228.045 337.845H219.599V346.291H228.045V337.845Z" fill="#00FF00" stroke="#00FF00"/>
<path d="M236.491 337.845H228.045V346.291H236.491V337.845Z" fill="#00FF00" stroke="#00FF00"/>
<path d="M244.937 337.845H236.491V346.291H244.937V337.845Z" fill="#00FF00" stroke="#00FF00"/>
<path d="M253.384 337.845H244.938V346.291H253.384V337.845Z" fill="#00FF00" stroke="#00FF00"/>
<path d="M261.83 337.845H253.384V346.291H261.83V337.845Z" fill="#00FF00" stroke="#00FF00"/>
<path d="M76.0151 346.291H67.5688V354.737H76.0151V346.291Z" fill="#00FF00" stroke="#00FF00"/>
<path d="M84.4611 346.291H76.0149V354.737H84.4611V346.291Z" fill="#00FF00" stroke="#00FF00"/>
<path d="M92.9073 346.291H84.4612V354.737H92.9073V346.291Z" fill="#00FF00" stroke="#00FF00"/>
<path d="M101.353 346.291H92.907V354.737H101.353V346.291Z" fill="#00FF00" stroke="#00FF00"/>
<path d="M109.8 346.291H101.354V354.737H109.8V346.291Z" fill="#00FF00" stroke="#00FF00"/>
<path d="M118.246 346.291H109.8V354.737H118.246V346.291Z" fill="#00FF00" stroke="#00FF00"/>
<path d="M126.692 346.291H118.246V354.737H126.692V346.291Z" fill="#00FF00" stroke="#00FF00"/>
<path d="M135.138 346.291H126.692V354.737H135.138V346.291Z" fill="#00FF00" stroke="#00FF00"/>
<path d="M143.584 346.291H135.138V354.737H143.584V346.291Z" fill="#00FF00" stroke="#00FF00"/>
<path d="M152.03 346.291H143.584V354.737H152.03V346.291Z" fill="#00FF00" stroke="#00FF00"/>
<path d="M160.476 346.291H152.03V354.737H160.476V346.291Z" fill="#FF69D1" stroke="#FF69D1"/>
<path d="M168.922 346.291H160.476V354.737H168.922V346.291Z" fill="#FF69D1" stroke="#FF69D1"/>
<path d="M177.368 346.291H168.922V354.737H177.368V346.291Z" fill="#F91C86" stroke="#F91C86"/>
<path d="M185.814 346.291H177.368V354.737H185.814V346.291Z" fill="#00FF00" stroke="#00FF00"/>
<path d="M194.261 346.291H185.815V354.737H194.261V346.291Z" fill="#00FF00" stroke="#00FF00"/>
<path d="M202.707 346.291H194.26V354.737H202.707V346.291Z" fill="#00FF00" stroke="#00FF00"/>
<path d="M211.153 346.291H202.707V354.737H211.153V346.291Z" fill="#00FF00" stroke="#00FF00"/>
<path d="M219.599 346.291H211.153V354.737H219.599V346.291Z" fill="#00FF00" stroke="#00FF00"/>
<path d="M228.045 346.291H219.599V354.737H228.045V346.291Z" fill="#00FF00" stroke="#00FF00"/>
<path d="M236.491 346.291H228.045V354.737H236.491V346.291Z" fill="#00FF00" stroke="#00FF00"/>
<path d="M244.937 346.291H236.491V354.737H244.937V346.291Z" fill="#00FF00" stroke="#00FF00"/>
<path d="M253.384 346.291H244.938V354.737H253.384V346.291Z" fill="#00FF00" stroke="#00FF00"/>
<path d="M261.83 346.291H253.384V354.737H261.83V346.291Z" fill="#00FF00" stroke="#00FF00"/>
<path d="M76.0151 354.737H67.5688V363.183H76.0151V354.737Z" fill="#00FF00" stroke="#00FF00"/>
<path d="M84.4611 354.737H76.0149V363.183H84.4611V354.737Z" fill="#00FF00" stroke="#00FF00"/>
<path d="M59.1227 312.506H50.6765V320.952H59.1227V312.506Z" fill="#00FF00" stroke="#00FF00"/>
<path d="M67.569 312.506H59.1228V320.952H67.569V312.506Z" fill="#00FF00" stroke="#00FF00"/>
<path d="M59.1227 320.952H50.6765V329.398H59.1227V320.952Z" fill="#00FF00" stroke="#00FF00"/>
<path d="M67.569 320.952H59.1228V329.398H67.569V320.952Z" fill="#00FF00" stroke="#00FF00"/>
<path d="M59.1227 329.398H50.6765V337.845H59.1227V329.398Z" fill="#00FF00" stroke="#00FF00"/>
<path d="M67.569 329.398H59.1228V337.845H67.569V329.398Z" fill="#00FF00" stroke="#00FF00"/>
<path d="M59.1227 337.845H50.6765V346.291H59.1227V337.845Z" fill="#00FF00" stroke="#00FF00"/>
<path d="M67.569 337.845H59.1228V346.291H67.569V337.845Z" fill="#00FF00" stroke="#00FF00"/>
<path d="M59.1227 346.291H50.6765V354.737H59.1227V346.291Z" fill="#00FF00" stroke="#00FF00"/>
<path d="M67.569 346.291H59.1228V354.737H67.569V346.291Z" fill="#00FF00" stroke="#00FF00"/>
<path d="M59.1227 354.737H50.6765V363.183H59.1227V354.737Z" fill="#00FF00" stroke="#00FF00"/>
<path d="M67.569 354.737H59.1228V363.183H67.569V354.737Z" fill="#00FF00" stroke="#00FF00"/>
<path d="M42.2306 312.506H33.7844V320.952H42.2306V312.506Z" fill="#00FF00" stroke="#00FF00"/>
<path d="M50.6767 312.506H42.2305V320.952H50.6767V312.506Z" fill="#00FF00" stroke="#00FF00"/>
<path d="M42.2306 320.952H33.7844V329.398H42.2306V320.952Z" fill="#00FF00" stroke="#00FF00"/>
<path d="M50.6767 320.952H42.2305V329.398H50.6767V320.952Z" fill="#00FF00" stroke="#00FF00"/>
<path d="M42.2306 329.398H33.7844V337.845H42.2306V329.398Z" fill="#00FF00" stroke="#00FF00"/>
<path d="M50.6767 329.398H42.2305V337.845H50.6767V329.398Z" fill="#00FF00" stroke="#00FF00"/>
<path d="M42.2306 337.845H33.7844V346.291H42.2306V337.845Z" fill="#00FF00" stroke="#00FF00"/>
<path d="M50.6767 337.845H42.2305V346.291H50.6767V337.845Z" fill="#00FF00" stroke="#00FF00"/>
<path d="M42.2306 346.291H33.7844V354.737H42.2306V346.291Z" fill="#00FF00" stroke="#00FF00"/>
<path d="M50.6767 346.291H42.2305V354.737H50.6767V346.291Z" fill="#00FF00" stroke="#00FF00"/>
<path d="M42.2306 354.737H33.7844V363.183H42.2306V354.737Z" fill="#00FF00" stroke="#00FF00"/>
<path d="M50.6767 354.737H42.2305V363.183H50.6767V354.737Z" fill="#00FF00" stroke="#00FF00"/>
<path d="M25.3383 312.506H16.8921V320.952H25.3383V312.506Z" fill="#00FF00" stroke="#00FF00"/>
<path d="M33.7846 312.506H25.3384V320.952H33.7846V312.506Z" fill="#00FF00" stroke="#00FF00"/>
<path d="M25.3383 320.952H16.8921V329.398H25.3383V320.952Z" fill="#00FF00" stroke="#00FF00"/>
<path d="M33.7846 320.952H25.3384V329.398H33.7846V320.952Z" fill="#00FF00" stroke="#00FF00"/>
<path d="M25.3383 329.398H16.8921V337.845H25.3383V329.398Z" fill="#00FF00" stroke="#00FF00"/>
<path d="M33.7846 329.398H25.3384V337.845H33.7846V329.398Z" fill="#00FF00" stroke="#00FF00"/>
<path d="M25.3383 337.845H16.8921V346.291H25.3383V337.845Z" fill="#00FF00" stroke="#00FF00"/>
<path d="M33.7846 337.845H25.3384V346.291H33.7846V337.845Z" fill="#00FF00" stroke="#00FF00"/>
<path d="M25.3383 346.291H16.8921V354.737H25.3383V346.291Z" fill="#00FF00" stroke="#00FF00"/>
<path d="M33.7846 346.291H25.3384V354.737H33.7846V346.291Z" fill="#00FF00" stroke="#00FF00"/>
<path d="M25.3383 354.737H16.8921V363.183H25.3383V354.737Z" fill="#00FF00" stroke="#00FF00"/>
<path d="M33.7846 354.737H25.3384V363.183H33.7846V354.737Z" fill="#00FF00" stroke="#00FF00"/>
<path d="M16.8922 320.952H8.44604V329.398H16.8922V320.952Z" fill="#00FF00" stroke="#00FF00"/>
<path d="M8.44619 329.398H0V337.845H8.44619V329.398Z" fill="#00FF00" stroke="#00FF00"/>
<path d="M16.8922 329.398H8.44604V337.845H16.8922V329.398Z" fill="#00FF00" stroke="#00FF00"/>
<path d="M8.44619 337.845H0V346.291H8.44619V337.845Z" fill="#00FF00" stroke="#00FF00"/>
<path d="M16.8922 337.845H8.44604V346.291H16.8922V337.845Z" fill="#00FF00" stroke="#00FF00"/>
<path d="M8.44619 346.291H0V354.737H8.44619V346.291Z" fill="#00FF00" stroke="#00FF00"/>
<path d="M16.8922 346.291H8.44604V354.737H16.8922V346.291Z" fill="#00FF00" stroke="#00FF00"/>
<path d="M8.44619 354.737H0V363.183H8.44619V354.737Z" fill="#00FF00" stroke="#00FF00"/>
<path d="M16.8922 354.737H8.44604V363.183H16.8922V354.737Z" fill="#00FF00" stroke="#00FF00"/>
<path d="M92.9073 354.737H84.4612V363.183H92.9073V354.737Z" fill="#00FF00" stroke="#00FF00"/>
<path d="M101.353 354.737H92.907V363.183H101.353V354.737Z" fill="#00FF00" stroke="#00FF00"/>
<path d="M109.8 354.737H101.354V363.183H109.8V354.737Z" fill="#00FF00" stroke="#00FF00"/>
<path d="M118.246 354.737H109.8V363.183H118.246V354.737Z" fill="#00FF00" stroke="#00FF00"/>
<path d="M126.692 354.737H118.246V363.183H126.692V354.737Z" fill="#00FF00" stroke="#00FF00"/>
<path d="M135.138 354.737H126.692V363.183H135.138V354.737Z" fill="#00FF00" stroke="#00FF00"/>
<path d="M143.584 354.737H135.138V363.183H143.584V354.737Z" fill="#00FF00" stroke="#00FF00"/>
<path d="M152.03 354.737H143.584V363.183H152.03V354.737Z" fill="#00FF00" stroke="#00FF00"/>
<path d="M160.476 354.737H152.03V363.183H160.476V354.737Z" fill="#00FF00" stroke="#00FF00"/>
<path d="M168.922 354.737H160.476V363.183H168.922V354.737Z" fill="#F91C86" stroke="#F91C86"/>
<path d="M177.368 354.737H168.922V363.183H177.368V354.737Z" fill="#00FF00" stroke="#00FF00"/>
<path d="M185.814 354.737H177.368V363.183H185.814V354.737Z" fill="#00FF00" stroke="#00FF00"/>
<path d="M194.261 354.737H185.815V363.183H194.261V354.737Z" fill="#00FF00" stroke="#00FF00"/>
<path d="M202.707 354.737H194.26V363.183H202.707V354.737Z" fill="#00FF00" stroke="#00FF00"/>
<path d="M211.153 354.737H202.707V363.183H211.153V354.737Z" fill="#00FF00" stroke="#00FF00"/>
<path d="M219.599 354.737H211.153V363.183H219.599V354.737Z" fill="#00FF00" stroke="#00FF00"/>
<path d="M228.045 354.737H219.599V363.183H228.045V354.737Z" fill="#00FF00" stroke="#00FF00"/>
<path d="M236.491 354.737H228.045V363.183H236.491V354.737Z" fill="#00FF00" stroke="#00FF00"/>
<path d="M244.937 354.737H236.491V363.183H244.937V354.737Z" fill="#00FF00" stroke="#00FF00"/>
<path d="M253.384 354.737H244.938V363.183H253.384V354.737Z" fill="#00FF00" stroke="#00FF00"/>
<path d="M261.83 354.737H253.384V363.183H261.83V354.737Z" fill="#00FF00" stroke="#00FF00"/>
<path d="M270.275 126.692H261.829V135.138H270.275V126.692Z" fill="#FF7700" stroke="#FF7700"/>
<path d="M278.722 126.692H270.275V135.138H278.722V126.692Z" fill="#FF7700" stroke="#FF7700"/>
<path d="M270.275 135.138H261.829V143.584H270.275V135.138Z" fill="#FF7700" stroke="#FF7700"/>
<path d="M278.722 135.138H270.275V143.584H278.722V135.138Z" fill="#F91C86" stroke="#F91C86"/>
<path d="M270.275 143.584H261.829V152.03H270.275V143.584Z" fill="#F91C86" stroke="#F91C86"/>
<path d="M278.722 143.584H270.275V152.03H278.722V143.584Z" fill="#FF7700" stroke="#FF7700"/>
<path d="M270.275 101.353H261.829V109.8H270.275V101.353Z" fill="#FF7700" stroke="#FF7700"/>
<path d="M278.722 101.353H270.275V109.8H278.722V101.353Z" fill="#FF7700" stroke="#FF7700"/>
<path d="M270.275 92.9073H261.829V101.353H270.275V92.9073Z" fill="#FF7700" stroke="#FF7700"/>
<path d="M278.722 92.9073H270.275V101.353H278.722V92.9073Z" fill="#F91C86" stroke="#F91C86"/>
<path d="M270.275 109.8H261.829V118.246H270.275V109.8Z" fill="#FF7700" stroke="#FF7700"/>
<path d="M278.722 109.8H270.275V118.246H278.722V109.8Z" fill="#FF7700" stroke="#FF7700"/>
<path d="M270.275 118.245H261.829V126.692H270.275V118.245Z" fill="#FF7700" stroke="#FF7700"/>
<path d="M278.722 118.245H270.275V126.692H278.722V118.245Z" fill="#F91C86" stroke="#F91C86"/>
<path d="M270.275 152.03H261.829V160.476H270.275V152.03Z" fill="#FF7700" stroke="#FF7700"/>
<path d="M278.722 152.03H270.275V160.476H278.722V152.03Z" fill="#FF7700" stroke="#FF7700"/>
<path d="M270.275 219.599H261.829V228.045H270.275V219.599Z" fill="#FF7700" stroke="#FF7700"/>
<path d="M270.275 228.045H261.829V236.491H270.275V228.045Z" fill="#FF7700" stroke="#FF7700"/>
<path d="M270.275 236.491H261.829V244.937H270.275V236.491Z" fill="#FF7700" stroke="#FF7700"/>
<path d="M270.275 295.614H261.829V304.06H270.275V295.614Z" fill="#FF7700" stroke="#FF7700"/>
<path d="M270.275 304.06H261.829V312.506H270.275V304.06Z" fill="#FF7700" stroke="#FF7700"/>
<path d="M270.275 312.506H261.829V320.952H270.275V312.506Z" fill="#00FF00" stroke="#00FF00"/>
<path d="M278.722 312.506H270.275V320.952H278.722V312.506Z" fill="#00FF00" stroke="#00FF00"/>
<path d="M270.275 320.952H261.829V329.398H270.275V320.952Z" fill="#00FF00" stroke="#00FF00"/>
<path d="M278.722 320.952H270.275V329.398H278.722V320.952Z" fill="#00FF00" stroke="#00FF00"/>
<path d="M270.275 329.398H261.829V337.845H270.275V329.398Z" fill="#00FF00" stroke="#00FF00"/>
<path d="M278.722 329.398H270.275V337.845H278.722V329.398Z" fill="#00FF00" stroke="#00FF00"/>
<path d="M270.275 337.845H261.829V346.291H270.275V337.845Z" fill="#00FF00" stroke="#00FF00"/>
<path d="M278.722 337.845H270.275V346.291H278.722V337.845Z" fill="#00FF00" stroke="#00FF00"/>
<path d="M270.275 346.291H261.829V354.737H270.275V346.291Z" fill="#00FF00" stroke="#00FF00"/>
<path d="M278.722 346.291H270.275V354.737H278.722V346.291Z" fill="#00FF00" stroke="#00FF00"/>
<path d="M270.275 354.737H261.829V363.183H270.275V354.737Z" fill="#00FF00" stroke="#00FF00"/>
<path d="M278.722 354.737H270.275V363.183H278.722V354.737Z" fill="#00FF00" stroke="#00FF00"/>
<path d="M287.168 126.692H278.722V135.138H287.168V126.692Z" fill="#FF7700" stroke="#FF7700"/>
<path d="M295.614 126.692H287.168V135.138H295.614V126.692Z" fill="#FF7700" stroke="#FF7700"/>
<path d="M287.168 135.138H278.722V143.584H287.168V135.138Z" fill="#FF7700" stroke="#FF7700"/>
<path d="M295.614 135.138H287.168V143.584H295.614V135.138Z" fill="#FF7700" stroke="#FF7700"/>
<path d="M287.168 143.584H278.722V152.03H287.168V143.584Z" fill="#FF7700" stroke="#FF7700"/>
<path d="M287.168 101.353H278.722V109.8H287.168V101.353Z" fill="#F91C86" stroke="#F91C86"/>
<path d="M295.614 101.353H287.168V109.8H295.614V101.353Z" fill="#FF7700" stroke="#FF7700"/>
<path d="M287.168 92.9073H278.722V101.353H287.168V92.9073Z" fill="#FF7700" stroke="#FF7700"/>
<path d="M295.614 92.9073H287.168V101.353H295.614V92.9073Z" fill="#FF7700" stroke="#FF7700"/>
<path d="M287.168 109.8H278.722V118.246H287.168V109.8Z" fill="#F91C86" stroke="#F91C86"/>
<path d="M295.614 109.8H287.168V118.246H295.614V109.8Z" fill="#FF7700" stroke="#FF7700"/>
<path d="M287.168 118.245H278.722V126.692H287.168V118.245Z" fill="#FF7700" stroke="#FF7700"/>
<path d="M295.614 118.245H287.168V126.692H295.614V118.245Z" fill="#FF7700" stroke="#FF7700"/>
<path d="M287.168 312.506H278.722V320.952H287.168V312.506Z" fill="#00FF00" stroke="#00FF00"/>
<path d="M295.614 312.506H287.168V320.952H295.614V312.506Z" fill="#00FF00" stroke="#00FF00"/>
<path d="M287.168 320.952H278.722V329.398H287.168V320.952Z" fill="#00FF00" stroke="#00FF00"/>
<path d="M295.614 320.952H287.168V329.398H295.614V320.952Z" fill="#00FF00" stroke="#00FF00"/>
<path d="M287.168 329.398H278.722V337.845H287.168V329.398Z" fill="#00FF00" stroke="#00FF00"/>
<path d="M295.614 329.398H287.168V337.845H295.614V329.398Z" fill="#00FF00" stroke="#00FF00"/>
<path d="M287.168 337.845H278.722V346.291H287.168V337.845Z" fill="#00FF00" stroke="#00FF00"/>
<path d="M295.614 337.845H287.168V346.291H295.614V337.845Z" fill="#00FF00" stroke="#00FF00"/>
<path d="M287.168 346.291H278.722V354.737H287.168V346.291Z" fill="#00FF00" stroke="#00FF00"/>
<path d="M295.614 346.291H287.168V354.737H295.614V346.291Z" fill="#00FF00" stroke="#00FF00"/>
<path d="M287.168 354.737H278.722V363.183H287.168V354.737Z" fill="#00FF00" stroke="#00FF00"/>
<path d="M295.614 354.737H287.168V363.183H295.614V354.737Z" fill="#00FF00" stroke="#00FF00"/>
<path d="M304.06 312.506H295.614V320.952H304.06V312.506Z" fill="#00FF00" stroke="#00FF00"/>
<path d="M312.506 312.506H304.06V320.952H312.506V312.506Z" fill="#00FF00" stroke="#00FF00"/>
<path d="M304.06 320.952H295.614V329.398H304.06V320.952Z" fill="#00FF00" stroke="#00FF00"/>
<path d="M312.506 320.952H304.06V329.398H312.506V320.952Z" fill="#00FF00" stroke="#00FF00"/>
<path d="M304.06 329.398H295.614V337.845H304.06V329.398Z" fill="#00FF00" stroke="#00FF00"/>
<path d="M312.506 329.398H304.06V337.845H312.506V329.398Z" fill="#00FF00" stroke="#00FF00"/>
<path d="M304.06 337.845H295.614V346.291H304.06V337.845Z" fill="#00FF00" stroke="#00FF00"/>
<path d="M312.506 337.845H304.06V346.291H312.506V337.845Z" fill="#00FF00" stroke="#00FF00"/>
<path d="M304.06 346.291H295.614V354.737H304.06V346.291Z" fill="#00FF00" stroke="#00FF00"/>
<path d="M312.506 346.291H304.06V354.737H312.506V346.291Z" fill="#00FF00" stroke="#00FF00"/>
<path d="M304.06 354.737H295.614V363.183H304.06V354.737Z" fill="#00FF00" stroke="#00FF00"/>
<path d="M312.506 354.737H304.06V363.183H312.506V354.737Z" fill="#00FF00" stroke="#00FF00"/>
<path d="M109.8 84.461H101.354V92.9072H109.8V84.461Z" fill="#FF7700" stroke="#FF7700"/>
<path d="M118.246 84.461H109.8V92.9072H118.246V84.461Z" fill="#FF7700" stroke="#FF7700"/>
<path d="M126.692 84.461H118.246V92.9072H126.692V84.461Z" fill="#FF7700" stroke="#FF7700"/>
<path d="M135.138 84.461H126.692V92.9072H135.138V84.461Z" fill="#F91C86" stroke="#F91C86"/>
<path d="M143.584 84.461H135.138V92.9072H143.584V84.461Z" fill="#F91C86" stroke="#F91C86"/>
<path d="M152.03 84.461H143.584V92.9072H152.03V84.461Z" fill="#FF7700" stroke="#FF7700"/>
<path d="M160.476 84.461H152.03V92.9072H160.476V84.461Z" fill="#FF7700" stroke="#FF7700"/>
<path d="M168.922 84.461H160.476V92.9072H168.922V84.461Z" fill="#FF7700" stroke="#FF7700"/>
<path d="M177.368 84.461H168.922V92.9072H177.368V84.461Z" fill="#FF7700" stroke="#FF7700"/>
<path d="M185.814 84.461H177.368V92.9072H185.814V84.461Z" fill="#FF7700" stroke="#FF7700"/>
<path d="M194.261 84.461H185.815V92.9072H194.261V84.461Z" fill="#FF7700" stroke="#FF7700"/>
<path d="M202.707 84.461H194.26V92.9072H202.707V84.461Z" fill="#FF7700" stroke="#FF7700"/>
<path d="M211.153 84.461H202.707V92.9072H211.153V84.461Z" fill="#FF7700" stroke="#FF7700"/>
<path d="M219.599 84.461H211.153V92.9072H219.599V84.461Z" fill="#FF7700" stroke="#FF7700"/>
<path d="M228.045 84.461H219.599V92.9072H228.045V84.461Z" fill="#FF7700" stroke="#FF7700"/>
<path d="M236.491 84.461H228.045V92.9072H236.491V84.461Z" fill="#FF7700" stroke="#FF7700"/>
<path d="M244.937 84.461H236.491V92.9072H244.937V84.461Z" fill="#FF7700" stroke="#FF7700"/>
<path d="M261.83 84.461H253.384V92.9072H261.83V84.461Z" fill="#FF7700" stroke="#FF7700"/>
<path d="M270.275 84.461H261.829V92.9072H270.275V84.461Z" fill="#FF7700" stroke="#FF7700"/>
<path d="M278.722 84.461H270.275V92.9072H278.722V84.461Z" fill="#FF7700" stroke="#FF7700"/>
<path d="M287.168 84.461H278.722V92.9072H287.168V84.461Z" fill="#FF7700" stroke="#FF7700"/>
<path d="M295.614 84.461H287.168V92.9072H295.614V84.461Z" fill="#FF7700" stroke="#FF7700"/>
<path d="M109.8 76.0149H101.354V84.4611H109.8V76.0149Z" fill="#FF7700" stroke="#FF7700"/>
<path d="M118.246 76.0149H109.8V84.4611H118.246V76.0149Z" fill="#FF7700" stroke="#FF7700"/>
<path d="M126.692 76.0149H118.246V84.4611H126.692V76.0149Z" fill="#FF7700" stroke="#FF7700"/>
<path d="M135.138 76.0149H126.692V84.4611H135.138V76.0149Z" fill="#FF7700" stroke="#FF7700"/>
<path d="M143.584 76.0149H135.138V84.4611H143.584V76.0149Z" fill="#FF7700" stroke="#FF7700"/>
<path d="M152.03 76.0149H143.584V84.4611H152.03V76.0149Z" fill="#F91C86" stroke="#F91C86"/>
<path d="M160.476 76.0149H152.03V84.4611H160.476V76.0149Z" fill="#FF7700" stroke="#FF7700"/>
<path d="M168.922 76.0149H160.476V84.4611H168.922V76.0149Z" fill="#FF7700" stroke="#FF7700"/>
<path d="M177.368 76.0149H168.922V84.4611H177.368V76.0149Z" fill="#F91C86" stroke="#F91C86"/>
<path d="M185.814 76.0149H177.368V84.4611H185.814V76.0149Z" fill="#FF7700" stroke="#FF7700"/>
<path d="M194.261 76.0149H185.815V84.4611H194.261V76.0149Z" fill="#FF7700" stroke="#FF7700"/>
<path d="M202.707 76.0149H194.26V84.4611H202.707V76.0149Z" fill="#FF7700" stroke="#FF7700"/>
<path d="M211.153 76.0149H202.707V84.4611H211.153V76.0149Z" fill="#FF7700" stroke="#FF7700"/>
<path d="M219.599 76.0149H211.153V84.4611H219.599V76.0149Z" fill="#FF7700" stroke="#FF7700"/>
<path d="M228.045 76.0149H219.599V84.4611H228.045V76.0149Z" fill="#FF7700" stroke="#FF7700"/>
<path d="M236.491 76.0149H228.045V84.4611H236.491V76.0149Z" fill="#FF7700" stroke="#FF7700"/>
<path d="M244.937 76.0149H236.491V84.4611H244.937V76.0149Z" fill="#FF7700" stroke="#FF7700"/>
<path d="M109.8 67.5691H101.354V76.0152H109.8V67.5691Z" fill="#FF7700" stroke="#FF7700"/>
<path d="M118.246 67.5691H109.8V76.0152H118.246V67.5691Z" fill="#FF7700" stroke="#FF7700"/>
<path d="M126.692 67.5691H118.246V76.0152H126.692V67.5691Z" fill="#FF7700" stroke="#FF7700"/>
<path d="M135.138 67.5691H126.692V76.0152H135.138V67.5691Z" fill="#FF7700" stroke="#FF7700"/>
<path d="M143.584 67.5691H135.138V76.0152H143.584V67.5691Z" fill="#FF7700" stroke="#FF7700"/>
<path d="M152.03 67.5691H143.584V76.0152H152.03V67.5691Z" fill="#FF7700" stroke="#FF7700"/>
<path d="M160.476 67.5691H152.03V76.0152H160.476V67.5691Z" fill="#F91C86" stroke="#F91C86"/>
<path d="M168.922 67.5691H160.476V76.0152H168.922V67.5691Z" fill="#F91C86" stroke="#F91C86"/>
<path d="M177.368 67.5691H168.922V76.0152H177.368V67.5691Z" fill="#FF7700" stroke="#FF7700"/>
<path d="M185.814 67.5691H177.368V76.0152H185.814V67.5691Z" fill="#FF7700" stroke="#FF7700"/>
<path d="M194.261 67.5691H185.815V76.0152H194.261V67.5691Z" fill="#FF7700" stroke="#FF7700"/>
<path d="M202.707 67.5691H194.26V76.0152H202.707V67.5691Z" fill="#FF7700" stroke="#FF7700"/>
<path d="M211.153 67.5691H202.707V76.0152H211.153V67.5691Z" fill="#FF7700" stroke="#FF7700"/>
<path d="M219.599 67.5691H211.153V76.0152H219.599V67.5691Z" fill="#FF7700" stroke="#FF7700"/>
<path d="M228.045 67.5691H219.599V76.0152H228.045V67.5691Z" fill="#FF7700" stroke="#FF7700"/>
<path d="M236.491 67.5691H228.045V76.0152H236.491V67.5691Z" fill="#FF7700" stroke="#FF7700"/>
<path d="M244.937 67.5691H236.491V76.0152H244.937V67.5691Z" fill="#FF7700" stroke="#FF7700"/>
<path d="M109.8 59.1229H101.354V67.5691H109.8V59.1229Z" fill="#FF7700" stroke="#FF7700"/>
<path d="M118.246 59.1229H109.8V67.5691H118.246V59.1229Z" fill="#FF7700" stroke="#FF7700"/>
<path d="M126.692 59.1229H118.246V67.5691H126.692V59.1229Z" fill="#FF7700" stroke="#FF7700"/>
<path d="M135.138 59.1229H126.692V67.5691H135.138V59.1229Z" fill="#FF7700" stroke="#FF7700"/>
<path d="M143.584 59.1229H135.138V67.5691H143.584V59.1229Z" fill="#FF7700" stroke="#FF7700"/>
<path d="M152.03 59.1229H143.584V67.5691H152.03V59.1229Z" fill="#FF7700" stroke="#FF7700"/>
<path d="M160.476 59.1229H152.03V67.5691H160.476V59.1229Z" fill="#FF7700" stroke="#FF7700"/>
<path d="M168.922 59.1229H160.476V67.5691H168.922V59.1229Z" fill="#FF7700" stroke="#FF7700"/>
<path d="M177.368 59.1229H168.922V67.5691H177.368V59.1229Z" fill="#FF7700" stroke="#FF7700"/>
<path d="M185.814 59.1229H177.368V67.5691H185.814V59.1229Z" fill="#FF7700" stroke="#FF7700"/>
<path d="M194.261 59.1229H185.815V67.5691H194.261V59.1229Z" fill="#FF7700" stroke="#FF7700"/>
<path d="M202.707 59.1229H194.26V67.5691H202.707V59.1229Z" fill="#FF7700" stroke="#FF7700"/>
<path d="M211.153 59.1229H202.707V67.5691H211.153V59.1229Z" fill="#FF7700" stroke="#FF7700"/>
<path d="M219.599 59.1229H211.153V67.5691H219.599V59.1229Z" fill="#FF7700" stroke="#FF7700"/>
<path d="M228.045 59.1229H219.599V67.5691H228.045V59.1229Z" fill="#FF7700" stroke="#FF7700"/>
<path d="M236.491 59.1229H228.045V67.5691H236.491V59.1229Z" fill="#FF7700" stroke="#FF7700"/>
<path d="M118.246 50.6767H109.8V59.1229H118.246V50.6767Z" fill="#FF7700" stroke="#FF7700"/>
<path d="M126.692 50.6767H118.246V59.1229H126.692V50.6767Z" fill="#FF7700" stroke="#FF7700"/>
<path d="M135.138 50.6767H126.692V59.1229H135.138V50.6767Z" fill="#FF7700" stroke="#FF7700"/>
<path d="M143.584 50.6767H135.138V59.1229H143.584V50.6767Z" fill="#FF7700" stroke="#FF7700"/>
<path d="M152.03 50.6767H143.584V59.1229H152.03V50.6767Z" fill="#FF7700" stroke="#FF7700"/>
<path d="M160.476 50.6767H152.03V59.1229H160.476V50.6767Z" fill="#FF7700" stroke="#FF7700"/>
<path d="M168.922 50.6767H160.476V59.1229H168.922V50.6767Z" fill="#FF7700" stroke="#FF7700"/>
<path d="M177.368 50.6767H168.922V59.1229H177.368V50.6767Z" fill="#FF7700" stroke="#FF7700"/>
<path d="M185.814 50.6767H177.368V59.1229H185.814V50.6767Z" fill="#FF7700" stroke="#FF7700"/>
<path d="M194.261 50.6767H185.815V59.1229H194.261V50.6767Z" fill="#FF7700" stroke="#FF7700"/>
<path d="M202.707 50.6767H194.26V59.1229H202.707V50.6767Z" fill="#FF7700" stroke="#FF7700"/>
<path d="M211.153 50.6767H202.707V59.1229H211.153V50.6767Z" fill="#FF7700" stroke="#FF7700"/>
<path d="M219.599 50.6767H211.153V59.1229H219.599V50.6767Z" fill="#FF7700" stroke="#FF7700"/>
<path d="M228.045 50.6767H219.599V59.1229H228.045V50.6767Z" fill="#FF7700" stroke="#FF7700"/>
<path d="M236.491 50.6767H228.045V59.1229H236.491V50.6767Z" fill="#FF7700" stroke="#FF7700"/>
<path d="M152.03 42.2305H143.584V50.6767H152.03V42.2305Z" fill="#FF7700" stroke="#FF7700"/>
<path d="M160.476 42.2305H152.03V50.6767H160.476V42.2305Z" fill="#FF7700" stroke="#FF7700"/>
<path d="M168.922 42.2305H160.476V50.6767H168.922V42.2305Z" fill="#FF7700" stroke="#FF7700"/>
<path d="M177.368 42.2305H168.922V50.6767H177.368V42.2305Z" fill="#FF7700" stroke="#FF7700"/>
<path d="M185.814 42.2305H177.368V50.6767H185.814V42.2305Z" fill="#FF7700" stroke="#FF7700"/>
<path d="M194.261 42.2305H185.815V50.6767H194.261V42.2305Z" fill="#FF7700" stroke="#FF7700"/>
<path d="M202.707 42.2305H194.26V50.6767H202.707V42.2305Z" fill="#FF7700" stroke="#FF7700"/>
<path d="M211.153 42.2305H202.707V50.6767H211.153V42.2305Z" fill="#FF7700" stroke="#FF7700"/>
<path d="M219.599 42.2305H211.153V50.6767H219.599V42.2305Z" fill="#FF7700" stroke="#FF7700"/>
<path d="M177.368 33.7843H168.922V42.2305H177.368V33.7843Z" fill="#FF7700" stroke="#FF7700"/>
<path d="M185.814 33.7843H177.368V42.2305H185.814V33.7843Z" fill="#FF7700" stroke="#FF7700"/>
<path d="M194.261 33.7843H185.815V42.2305H194.261V33.7843Z" fill="#FF7700" stroke="#FF7700"/>
<path d="M202.707 33.7843H194.26V42.2305H202.707V33.7843Z" fill="#FF7700" stroke="#FF7700"/>
<path d="M211.153 33.7843H202.707V42.2305H211.153V33.7843Z" fill="#FF7700" stroke="#FF7700"/>
<path d="M320.952 320.952H312.506V329.398H320.952V320.952Z" fill="#00FF00" stroke="#00FF00"/>
<path d="M320.952 329.398H312.506V337.845H320.952V329.398Z" fill="#00FF00" stroke="#00FF00"/>
<path d="M329.398 329.398H320.952V337.845H329.398V329.398Z" fill="#00FF00" stroke="#00FF00"/>
<path d="M320.952 337.845H312.506V346.291H320.952V337.845Z" fill="#00FF00" stroke="#00FF00"/>
<path d="M329.398 337.845H320.952V346.291H329.398V337.845Z" fill="#00FF00" stroke="#00FF00"/>
<path d="M320.952 346.291H312.506V354.737H320.952V346.291Z" fill="#00FF00" stroke="#00FF00"/>
<path d="M329.398 346.291H320.952V354.737H329.398V346.291Z" fill="#00FF00" stroke="#00FF00"/>
<path d="M320.952 354.737H312.506V363.183H320.952V354.737Z" fill="#00FF00" stroke="#00FF00"/>
<path d="M329.398 354.737H320.952V363.183H329.398V354.737Z" fill="#00FF00" stroke="#00FF00"/>
</svg>
