<svg viewBox="0 0 264 280" fill="none" xmlns="http://www.w3.org/2000/svg">
    <path d="M182.94 97.5049H188.974V103.539H182.94V97.5049Z" fill="#1B00FF" stroke="#1B00FF"/>
    <path d="M176.907 97.5049H182.941V103.539H176.907V97.5049Z" fill="#1B00FF" stroke="#1B00FF"/>
    <path d="M170.873 97.5049H176.907V103.539H170.873V97.5049Z" fill="#1B00FF" stroke="#1B00FF"/>
    <path d="M164.839 97.5049H170.873V103.539H164.839V97.5049Z" fill="#1B00FF" stroke="#1B00FF"/>
    <path d="M158.806 97.5049H164.84V103.539H158.806V97.5049Z" fill="#F91C86" stroke="#F91C86"/>
    <path d="M152.772 97.5049H158.806V103.539H152.772V97.5049Z" fill="#F91C86" stroke="#F91C86"/>
    <path d="M146.739 97.5049H152.773V103.539H146.739V97.5049Z" fill="#F91C86" stroke="#F91C86"/>
    <path d="M140.705 97.5049H146.739V103.539H140.705V97.5049Z" fill="#F91C86" stroke="#F91C86"/>
    <path d="M134.672 97.5049H140.705V103.539H134.672V97.5049Z" fill="#F91C86" stroke="#F91C86"/>
    <path d="M128.638 97.5049H134.672V103.539H128.638V97.5049Z" fill="#1B00FF" stroke="#1B00FF"/>
    <path d="M122.605 97.5049H128.638V103.539H122.605V97.5049Z" fill="#F91C86" stroke="#F91C86"/>
    <path d="M116.571 97.5049H122.604V103.539H116.571V97.5049Z" fill="#F91C86" stroke="#F91C86"/>
    <path d="M110.538 97.5049H116.571V103.539H110.538V97.5049Z" fill="#F91C86" stroke="#F91C86"/>
    <path d="M104.504 97.5049H110.537V103.539H104.504V97.5049Z" fill="#F91C86" stroke="#F91C86"/>
    <path d="M98.47 97.5049H104.504V103.539H98.47V97.5049Z" fill="#F91C86" stroke="#F91C86"/>
    <path d="M92.4364 97.5049H98.47V103.539H92.4364V97.5049Z" fill="#1B00FF" stroke="#1B00FF"/>
    <path d="M86.4029 97.5049H92.4365V103.539H86.4029V97.5049Z" fill="#1B00FF" stroke="#1B00FF"/>
    <path d="M80.3697 97.5049H86.4033V103.539H80.3697V97.5049Z" fill="#1B00FF" stroke="#1B00FF"/>
    <path d="M74.3358 97.5049H80.3694V103.539H74.3358V97.5049Z" fill="#1B00FF" stroke="#1B00FF"/>
    <path d="M182.94 103.54H188.974V109.573H182.94V103.54Z" fill="#1B00FF" stroke="#1B00FF"/>
    <path d="M176.907 103.54H182.941V109.573H176.907V103.54Z" fill="#1B00FF" stroke="#1B00FF"/>
    <path d="M170.873 103.54H176.907V109.573H170.873V103.54Z" fill="#1B00FF" stroke="#1B00FF"/>
    <path d="M164.839 103.54H170.873V109.573H164.839V103.54Z" fill="#1B00FF" stroke="#1B00FF"/>
    <path d="M158.806 103.54H164.84V109.573H158.806V103.54Z" fill="#F91C86" stroke="#F91C86"/>
    <path d="M152.772 103.54H158.806V109.573H152.772V103.54Z" fill="#F91C86" stroke="#F91C86"/>
    <path d="M146.739 103.54H152.773V109.573H146.739V103.54Z" fill="#F91C86" stroke="#F91C86"/>
    <path d="M140.705 103.54H146.739V109.573H140.705V103.54Z" fill="#F91C86" stroke="#F91C86"/>
    <path d="M134.672 103.54H140.705V109.573H134.672V103.54Z" fill="#F91C86" stroke="#F91C86"/>
    <path d="M128.638 103.54H134.672V109.573H128.638V103.54Z" fill="#F91C86" stroke="#F91C86"/>
    <path d="M122.605 103.54H128.638V109.573H122.605V103.54Z" fill="#F91C86" stroke="#F91C86"/>
    <path d="M116.571 103.54H122.604V109.573H116.571V103.54Z" fill="#F91C86" stroke="#F91C86"/>
    <path d="M110.538 103.54H116.571V109.573H110.538V103.54Z" fill="#F91C86" stroke="#F91C86"/>
    <path d="M104.504 103.54H110.537V109.573H104.504V103.54Z" fill="#F91C86" stroke="#F91C86"/>
    <path d="M98.47 103.54H104.504V109.573H98.47V103.54Z" fill="#F91C86" stroke="#F91C86"/>
    <path d="M92.4364 103.54H98.47V109.573H92.4364V103.54Z" fill="#1B00FF" stroke="#1B00FF"/>
    <path d="M86.4029 103.54H92.4365V109.573H86.4029V103.54Z" fill="#1B00FF" stroke="#1B00FF"/>
    <path d="M80.3697 103.54H86.4033V109.573H80.3697V103.54Z" fill="#78A2FF" stroke="#78A2FF"/>
    <path d="M74.3358 103.54H80.3694V109.573H74.3358V103.54Z" fill="#1B00FF" stroke="#1B00FF"/>
    <path d="M182.94 109.573H188.974V115.607H182.94V109.573Z" fill="#1B00FF" stroke="#1B00FF"/>
    <path d="M176.907 109.573H182.941V115.607H176.907V109.573Z" fill="#78A2FF" stroke="#78A2FF"/>
    <path d="M170.873 109.573H176.907V115.607H170.873V109.573Z" fill="#1B00FF" stroke="#1B00FF"/>
    <path d="M164.839 109.573H170.873V115.607H164.839V109.573Z" fill="#F91C86" stroke="#F91C86"/>
    <path d="M158.806 109.573H164.84V115.607H158.806V109.573Z" fill="#F91C86" stroke="#F91C86"/>
    <path d="M152.772 109.573H158.806V115.607H152.772V109.573Z" fill="#F91C86" stroke="#F91C86"/>
    <path d="M146.739 109.573H152.773V115.607H146.739V109.573Z" fill="#F91C86" stroke="#F91C86"/>
    <path d="M140.705 109.573H146.739V115.607H140.705V109.573Z" fill="#F91C86" stroke="#F91C86"/>
    <path d="M134.672 109.573H140.705V115.607H134.672V109.573Z" fill="#F91C86" stroke="#F91C86"/>
    <path d="M128.638 109.573H134.672V115.607H128.638V109.573Z" fill="#F91C86" stroke="#F91C86"/>
    <path d="M122.605 109.573H128.638V115.607H122.605V109.573Z" fill="#F91C86" stroke="#F91C86"/>
    <path d="M116.571 109.573H122.604V115.607H116.571V109.573Z" fill="#F91C86" stroke="#F91C86"/>
    <path d="M110.538 109.573H116.571V115.607H110.538V109.573Z" fill="#F91C86" stroke="#F91C86"/>
    <path d="M104.504 109.573H110.537V115.607H104.504V109.573Z" fill="#F91C86" stroke="#F91C86"/>
    <path d="M98.47 109.573H104.504V115.607H98.47V109.573Z" fill="#F91C86" stroke="#F91C86"/>
    <path d="M92.4364 109.573H98.47V115.607H92.4364V109.573Z" fill="#F91C86" stroke="#F91C86"/>
    <path d="M86.4029 109.573H92.4365V115.607H86.4029V109.573Z" fill="#1B00FF" stroke="#1B00FF"/>
    <path d="M80.3697 109.573H86.4033V115.607H80.3697V109.573Z" fill="#1B00FF" stroke="#1B00FF"/>
    <path d="M74.3358 109.573H80.3694V115.607H74.3358V109.573Z" fill="#1B00FF" stroke="#1B00FF"/>
    <path d="M182.94 79.4048H188.974V85.4386H182.94V79.4048Z" fill="#1B00FF" stroke="#1B00FF"/>
    <path d="M176.907 79.4048H182.941V85.4386H176.907V79.4048Z" fill="#1B00FF" stroke="#1B00FF"/>
    <path d="M170.873 79.4048H176.907V85.4386H170.873V79.4048Z" fill="#1B00FF" stroke="#1B00FF"/>
    <path d="M164.839 79.4048H170.873V85.4386H164.839V79.4048Z" fill="#1B00FF" stroke="#1B00FF"/>
    <path d="M158.806 79.4048H164.84V85.4386H158.806V79.4048Z" fill="#78A2FF" stroke="#78A2FF"/>
    <path d="M152.772 79.4048H158.806V85.4386H152.772V79.4048Z" fill="#1B00FF" stroke="#1B00FF"/>
    <path d="M146.739 79.4048H152.773V85.4386H146.739V79.4048Z" fill="#1B00FF" stroke="#1B00FF"/>
    <path d="M140.705 79.4048H146.739V85.4386H140.705V79.4048Z" fill="#1B00FF" stroke="#1B00FF"/>
    <path d="M134.672 79.4048H140.705V85.4386H134.672V79.4048Z" fill="#78A2FF" stroke="#78A2FF"/>
    <path d="M128.638 79.4048H134.672V85.4386H128.638V79.4048Z" fill="#1B00FF" stroke="#1B00FF"/>
    <path d="M122.605 79.4048H128.638V85.4386H122.605V79.4048Z" fill="#78A2FF" stroke="#78A2FF"/>
    <path d="M116.571 79.4048H122.604V85.4386H116.571V79.4048Z" fill="#1B00FF" stroke="#1B00FF"/>
    <path d="M110.538 79.4048H116.571V85.4386H110.538V79.4048Z" fill="#1B00FF" stroke="#1B00FF"/>
    <path d="M104.504 79.4048H110.537V85.4386H104.504V79.4048Z" fill="#1B00FF" stroke="#1B00FF"/>
    <path d="M98.47 79.4048H104.504V85.4386H98.47V79.4048Z" fill="#78A2FF" stroke="#78A2FF"/>
    <path d="M92.4364 79.4048H98.47V85.4386H92.4364V79.4048Z" fill="#1B00FF" stroke="#1B00FF"/>
    <path d="M86.4029 79.4048H92.4365V85.4386H86.4029V79.4048Z" fill="#1B00FF" stroke="#1B00FF"/>
    <path d="M80.3697 79.4048H86.4033V85.4386H80.3697V79.4048Z" fill="#1B00FF" stroke="#1B00FF"/>
    <path d="M74.3358 79.4048H80.3694V85.4386H74.3358V79.4048Z" fill="#1B00FF" stroke="#1B00FF"/>
    <path d="M182.94 73.3711H188.974V79.4049H182.94V73.3711Z" fill="#1B00FF" stroke="#1B00FF"/>
    <path d="M176.907 73.3711H182.941V79.4049H176.907V73.3711Z" fill="#1B00FF" stroke="#1B00FF"/>
    <path d="M170.873 73.3711H176.907V79.4049H170.873V73.3711Z" fill="#1B00FF" stroke="#1B00FF"/>
    <path d="M164.839 73.3711H170.873V79.4049H164.839V73.3711Z" fill="#78A2FF" stroke="#78A2FF"/>
    <path d="M158.806 73.3711H164.84V79.4049H158.806V73.3711Z" fill="#1B00FF" stroke="#1B00FF"/>
    <path d="M152.772 73.3711H158.806V79.4049H152.772V73.3711Z" fill="#1B00FF" stroke="#1B00FF"/>
    <path d="M146.739 73.3711H152.773V79.4049H146.739V73.3711Z" fill="#1B00FF" stroke="#1B00FF"/>
    <path d="M140.705 73.3711H146.739V79.4049H140.705V73.3711Z" fill="#78A2FF" stroke="#78A2FF"/>
    <path d="M134.672 73.3711H140.705V79.4049H134.672V73.3711Z" fill="#1B00FF" stroke="#1B00FF"/>
    <path d="M128.638 73.3711H134.672V79.4049H128.638V73.3711Z" fill="#1B00FF" stroke="#1B00FF"/>
    <path d="M122.605 73.3711H128.638V79.4049H122.605V73.3711Z" fill="#1B00FF" stroke="#1B00FF"/>
    <path d="M116.571 73.3711H122.604V79.4049H116.571V73.3711Z" fill="#78A2FF" stroke="#78A2FF"/>
    <path d="M110.538 73.3711H116.571V79.4049H110.538V73.3711Z" fill="#1B00FF" stroke="#1B00FF"/>
    <path d="M104.504 73.3711H110.537V79.4049H104.504V73.3711Z" fill="#1B00FF" stroke="#1B00FF"/>
    <path d="M98.47 73.3711H104.504V79.4049H98.47V73.3711Z" fill="#1B00FF" stroke="#1B00FF"/>
    <path d="M92.4364 73.3711H98.47V79.4049H92.4364V73.3711Z" fill="#78A2FF" stroke="#78A2FF"/>
    <path d="M86.4029 73.3711H92.4365V79.4049H86.4029V73.3711Z" fill="#1B00FF" stroke="#1B00FF"/>
    <path d="M80.3697 73.3711H86.4033V79.4049H80.3697V73.3711Z" fill="#1B00FF" stroke="#1B00FF"/>
    <path d="M74.3358 73.3711H80.3694V79.4049H74.3358V73.3711Z" fill="#1B00FF" stroke="#1B00FF"/>
    <path d="M182.94 85.438H188.974V91.4718H182.94V85.438Z" fill="#1B00FF" stroke="#1B00FF"/>
    <path d="M176.907 85.438H182.941V91.4718H176.907V85.438Z" fill="#1B00FF" stroke="#1B00FF"/>
    <path d="M170.873 85.438H176.907V91.4718H170.873V85.438Z" fill="#1B00FF" stroke="#1B00FF"/>
    <path d="M164.839 85.438H170.873V91.4718H164.839V85.438Z" fill="#1B00FF" stroke="#1B00FF"/>
    <path d="M158.806 85.438H164.84V91.4718H158.806V85.438Z" fill="#1B00FF" stroke="#1B00FF"/>
    <path d="M152.772 85.438H158.806V91.4718H152.772V85.438Z" fill="#1B00FF" stroke="#1B00FF"/>
    <path d="M146.739 85.438H152.773V91.4718H146.739V85.438Z" fill="#1B00FF" stroke="#1B00FF"/>
    <path d="M140.705 85.438H146.739V91.4718H140.705V85.438Z" fill="#1B00FF" stroke="#1B00FF"/>
    <path d="M134.672 85.438H140.705V91.4718H134.672V85.438Z" fill="#1B00FF" stroke="#1B00FF"/>
    <path d="M128.638 85.438H134.672V91.4718H128.638V85.438Z" fill="#1B00FF" stroke="#1B00FF"/>
    <path d="M122.605 85.438H128.638V91.4718H122.605V85.438Z" fill="#1B00FF" stroke="#1B00FF"/>
    <path d="M116.571 85.438H122.604V91.4718H116.571V85.438Z" fill="#1B00FF" stroke="#1B00FF"/>
    <path d="M110.538 85.438H116.571V91.4718H110.538V85.438Z" fill="#1B00FF" stroke="#1B00FF"/>
    <path d="M104.504 85.438H110.537V91.4718H104.504V85.438Z" fill="#1B00FF" stroke="#1B00FF"/>
    <path d="M98.47 85.438H104.504V91.4718H98.47V85.438Z" fill="#1B00FF" stroke="#1B00FF"/>
    <path d="M92.4364 85.438H98.47V91.4718H92.4364V85.438Z" fill="#1B00FF" stroke="#1B00FF"/>
    <path d="M86.4029 85.438H92.4365V91.4718H86.4029V85.438Z" fill="#1B00FF" stroke="#1B00FF"/>
    <path d="M80.3697 85.438H86.4033V91.4718H80.3697V85.438Z" fill="#1B00FF" stroke="#1B00FF"/>
    <path d="M74.3358 85.438H80.3694V91.4718H74.3358V85.438Z" fill="#1B00FF" stroke="#1B00FF"/>
    <path d="M182.94 91.4717H188.974V97.5054H182.94V91.4717Z" fill="#1B00FF" stroke="#1B00FF"/>
    <path d="M176.907 91.4717H182.941V97.5054H176.907V91.4717Z" fill="#1B00FF" stroke="#1B00FF"/>
    <path d="M170.873 91.4717H176.907V97.5054H170.873V91.4717Z" fill="#78A2FF" stroke="#78A2FF"/>
    <path d="M164.839 91.4717H170.873V97.5054H164.839V91.4717Z" fill="#1B00FF" stroke="#1B00FF"/>
    <path d="M158.806 91.4717H164.84V97.5054H158.806V91.4717Z" fill="#1B00FF" stroke="#1B00FF"/>
    <path d="M152.772 91.4717H158.806V97.5054H152.772V91.4717Z" fill="#F91C86" stroke="#F91C86"/>
    <path d="M146.739 91.4717H152.773V97.5054H146.739V91.4717Z" fill="#F91C86" stroke="#F91C86"/>
    <path d="M140.705 91.4717H146.739V97.5054H140.705V91.4717Z" fill="#1B00FF" stroke="#1B00FF"/>
    <path d="M134.672 91.4717H140.705V97.5054H134.672V91.4717Z" fill="#1B00FF" stroke="#1B00FF"/>
    <path d="M128.638 91.4717H134.672V97.5054H128.638V91.4717Z" fill="#1B00FF" stroke="#1B00FF"/>
    <path d="M122.605 91.4717H128.638V97.5054H122.605V91.4717Z" fill="#1B00FF" stroke="#1B00FF"/>
    <path d="M116.571 91.4717H122.604V97.5054H116.571V91.4717Z" fill="#1B00FF" stroke="#1B00FF"/>
    <path d="M110.538 91.4717H116.571V97.5054H110.538V91.4717Z" fill="#F91C86" stroke="#F91C86"/>
    <path d="M104.504 91.4717H110.537V97.5054H104.504V91.4717Z" fill="#F91C86" stroke="#F91C86"/>
    <path d="M98.47 91.4717H104.504V97.5054H98.47V91.4717Z" fill="#1B00FF" stroke="#1B00FF"/>
    <path d="M92.4364 91.4717H98.47V97.5054H92.4364V91.4717Z" fill="#1B00FF" stroke="#1B00FF"/>
    <path d="M86.4029 91.4717H92.4365V97.5054H86.4029V91.4717Z" fill="#78A2FF" stroke="#78A2FF"/>
    <path d="M80.3697 91.4717H86.4033V97.5054H80.3697V91.4717Z" fill="#1B00FF" stroke="#1B00FF"/>
    <path d="M74.3358 91.4717H80.3694V97.5054H74.3358V91.4717Z" fill="#1B00FF" stroke="#1B00FF"/>
    <path d="M182.94 115.607H188.974V121.641H182.94V115.607Z" fill="#1B00FF" stroke="#1B00FF"/>
    <path d="M176.907 115.607H182.941V121.641H176.907V115.607Z" fill="#1B00FF" stroke="#1B00FF"/>
    <path d="M170.873 115.607H176.907V121.641H170.873V115.607Z" fill="#1B00FF" stroke="#1B00FF"/>
    <path d="M164.839 115.607H170.873V121.641H164.839V115.607Z" fill="#F91C86" stroke="#F91C86"/>
    <path d="M158.806 115.607H164.84V121.641H158.806V115.607Z" fill="black" stroke="black"/>
    <path d="M152.772 115.607H158.806V121.641H152.772V115.607Z" fill="black" stroke="black"/>
    <path d="M146.739 115.607H152.773V121.641H146.739V115.607Z" fill="black" stroke="black"/>
    <path d="M140.705 115.607H146.739V121.641H140.705V115.607Z" fill="#F91C86" stroke="#F91C86"/>
    <path d="M134.672 115.607H140.705V121.641H134.672V115.607Z" fill="#F91C86" stroke="#F91C86"/>
    <path d="M128.638 115.607H134.672V121.641H128.638V115.607Z" fill="#F91C86" stroke="#F91C86"/>
    <path d="M122.605 115.607H128.638V121.641H122.605V115.607Z" fill="#F91C86" stroke="#F91C86"/>
    <path d="M116.571 115.607H122.604V121.641H116.571V115.607Z" fill="#F91C86" stroke="#F91C86"/>
    <path d="M110.538 115.607H116.571V121.641H110.538V115.607Z" fill="black" stroke="black"/>
    <path d="M104.504 115.607H110.537V121.641H104.504V115.607Z" fill="black" stroke="black"/>
    <path d="M98.47 115.607H104.504V121.641H98.47V115.607Z" fill="black" stroke="black"/>
    <path d="M92.4364 115.607H98.47V121.641H92.4364V115.607Z" fill="#F91C86" stroke="#F91C86"/>
    <path d="M86.4029 115.607H92.4365V121.641H86.4029V115.607Z" fill="#1B00FF" stroke="#1B00FF"/>
    <path d="M80.3697 115.607H86.4033V121.641H80.3697V115.607Z" fill="#1B00FF" stroke="#1B00FF"/>
    <path d="M74.3358 115.607H80.3694V121.641H74.3358V115.607Z" fill="#1B00FF" stroke="#1B00FF"/>
    <path d="M176.907 121.641H182.941V127.674H176.907V121.641Z" fill="#1B00FF" stroke="#1B00FF"/>
    <path d="M170.873 121.641H176.907V127.674H170.873V121.641Z" fill="#F91C86" stroke="#F91C86"/>
    <path d="M164.839 121.641H170.873V127.674H164.839V121.641Z" fill="#5A0038" stroke="#5A0038"/>
    <path d="M158.806 121.641H164.84V127.674H158.806V121.641Z" fill="#5A0038" stroke="#5A0038"/>
    <path d="M152.772 121.641H158.806V127.674H152.772V121.641Z" fill="#5A0038" stroke="#5A0038"/>
    <path d="M146.739 121.641H152.773V127.674H146.739V121.641Z" fill="#5A0038" stroke="#5A0038"/>
    <path d="M140.705 121.641H146.739V127.674H140.705V121.641Z" fill="black" stroke="black"/>
    <path d="M134.672 121.641H140.705V127.674H134.672V121.641Z" fill="#F91C86" stroke="#F91C86"/>
    <path d="M128.638 121.641H134.672V127.674H128.638V121.641Z" fill="#F91C86" stroke="#F91C86"/>
    <path d="M122.605 121.641H128.638V127.674H122.605V121.641Z" fill="#F91C86" stroke="#F91C86"/>
    <path d="M116.571 121.641H122.604V127.674H116.571V121.641Z" fill="black" stroke="black"/>
    <path d="M110.538 121.641H116.571V127.674H110.538V121.641Z" fill="#5A0038" stroke="#5A0038"/>
    <path d="M104.504 121.641H110.537V127.674H104.504V121.641Z" fill="#5A0038" stroke="#5A0038"/>
    <path d="M98.47 121.641H104.504V127.674H98.47V121.641Z" fill="#5A0038" stroke="#5A0038"/>
    <path d="M92.4364 121.641H98.47V127.674H92.4364V121.641Z" fill="#5A0038" stroke="#5A0038"/>
    <path d="M86.4029 121.641H92.4365V127.674H86.4029V121.641Z" fill="#F91C86" stroke="#F91C86"/>
    <path d="M80.3697 121.641H86.4033V127.674H80.3697V121.641Z" fill="#1B00FF" stroke="#1B00FF"/>
    <path d="M176.907 127.674H182.941V133.708H176.907V127.674Z" fill="#5A0038" stroke="#5A0038"/>
    <path d="M170.873 127.674H176.907V133.708H170.873V127.674Z" fill="#1B00FF" stroke="#1B00FF"/>
    <path d="M164.839 127.674H170.873V133.708H164.839V127.674Z" fill="#1B00FF" stroke="#1B00FF"/>
    <path d="M158.806 127.674H164.84V133.708H158.806V127.674Z" fill="#1B00FF" stroke="#1B00FF"/>
    <path d="M152.772 127.674H158.806V133.708H152.772V127.674Z" fill="#1B00FF" stroke="#1B00FF"/>
    <path d="M146.739 127.674H152.773V133.708H146.739V127.674Z" fill="#1B00FF" stroke="#1B00FF"/>
    <path d="M140.705 127.674H146.739V133.708H140.705V127.674Z" fill="#1B00FF" stroke="#1B00FF"/>
    <path d="M134.672 127.674H140.705V133.708H134.672V127.674Z" fill="#1B00FF" stroke="#1B00FF"/>
    <path d="M128.638 127.674H134.672V133.708H128.638V127.674Z" fill="#1B00FF" stroke="#1B00FF"/>
    <path d="M122.605 127.674H128.638V133.708H122.605V127.674Z" fill="#1B00FF" stroke="#1B00FF"/>
    <path d="M116.571 127.674H122.604V133.708H116.571V127.674Z" fill="#1B00FF" stroke="#1B00FF"/>
    <path d="M110.538 127.674H116.571V133.708H110.538V127.674Z" fill="#1B00FF" stroke="#1B00FF"/>
    <path d="M104.504 127.674H110.537V133.708H104.504V127.674Z" fill="#1B00FF" stroke="#1B00FF"/>
    <path d="M98.47 127.674H104.504V133.708H98.47V127.674Z" fill="#1B00FF" stroke="#1B00FF"/>
    <path d="M92.4364 127.674H98.47V133.708H92.4364V127.674Z" fill="#1B00FF" stroke="#1B00FF"/>
    <path d="M86.4029 127.674H92.4365V133.708H86.4029V127.674Z" fill="#1B00FF" stroke="#1B00FF"/>
    <path d="M80.3697 127.674H86.4033V133.708H80.3697V127.674Z" fill="#5A0038" stroke="#5A0038"/>
    <path d="M176.907 133.708H182.941V139.741H176.907V133.708Z" fill="#5A0038" stroke="#5A0038"/>
    <path d="M170.873 133.708H176.907V139.741H170.873V133.708Z" fill="#1B00FF" stroke="#1B00FF"/>
    <path d="M164.839 133.708H170.873V139.741H164.839V133.708Z" fill="black" stroke="black"/>
    <path d="M158.806 133.708H164.84V139.741H158.806V133.708Z" fill="black" stroke="black"/>
    <path d="M152.772 133.708H158.806V139.741H152.772V133.708Z" fill="black" stroke="black"/>
    <path d="M140.705 133.708H146.739V139.741H140.705V133.708Z" fill="black" stroke="black"/>
    <path d="M134.672 133.708H140.705V139.741H134.672V133.708Z" fill="#1B00FF" stroke="#1B00FF"/>
    <path d="M128.638 133.708H134.672V139.741H128.638V133.708Z" fill="#5A0038" stroke="#5A0038"/>
    <path d="M122.605 133.708H128.638V139.741H122.605V133.708Z" fill="#1B00FF" stroke="#1B00FF"/>
    <path d="M116.571 133.708H122.604V139.741H116.571V133.708Z" fill="black" stroke="black"/>
    <path d="M110.538 133.708H116.571V139.741H110.538V133.708Z" fill="black" stroke="black"/>
    <path d="M98.47 133.708H104.504V139.741H98.47V133.708Z" fill="black" stroke="black"/>
    <path d="M92.4364 133.708H98.47V139.741H92.4364V133.708Z" fill="black" stroke="black"/>
    <path d="M86.4029 133.708H92.4365V139.741H86.4029V133.708Z" fill="#1B00FF" stroke="#1B00FF"/>
    <path d="M80.3697 133.708H86.4033V139.741H80.3697V133.708Z" fill="#5A0038" stroke="#5A0038"/>
    <path d="M176.907 139.742H182.941V145.776H176.907V139.742Z" fill="#F91C86" stroke="#F91C86"/>
    <path d="M170.873 139.742H176.907V145.776H170.873V139.742Z" fill="#5A0038" stroke="#5A0038"/>
    <path d="M164.839 139.742H170.873V145.776H164.839V139.742Z" fill="#1B00FF" stroke="#1B00FF"/>
    <path d="M158.806 139.742H164.84V145.776H158.806V139.742Z" fill="black" stroke="black"/>
    <path d="M152.772 139.742H158.806V145.776H152.772V139.742Z" fill="black" stroke="black"/>
    <path d="M146.739 139.742H152.773V145.776H146.739V139.742Z" fill="black" stroke="black"/>
    <path d="M140.705 139.742H146.739V145.776H140.705V139.742Z" fill="#1B00FF" stroke="#1B00FF"/>
    <path d="M134.672 139.742H140.705V145.776H134.672V139.742Z" fill="#1B00FF" stroke="#1B00FF"/>
    <path d="M128.638 139.742H134.672V145.776H128.638V139.742Z" fill="#5A0038" stroke="#5A0038"/>
    <path d="M122.605 139.742H128.638V145.776H122.605V139.742Z" fill="#1B00FF" stroke="#1B00FF"/>
    <path d="M116.571 139.742H122.604V145.776H116.571V139.742Z" fill="#1B00FF" stroke="#1B00FF"/>
    <path d="M110.538 139.742H116.571V145.776H110.538V139.742Z" fill="black" stroke="black"/>
    <path d="M104.504 139.742H110.537V145.776H104.504V139.742Z" fill="black" stroke="black"/>
    <path d="M98.47 139.742H104.504V145.776H98.47V139.742Z" fill="black" stroke="black"/>
    <path d="M92.4364 139.742H98.47V145.776H92.4364V139.742Z" fill="#1B00FF" stroke="#1B00FF"/>
    <path d="M86.4029 139.742H92.4365V145.776H86.4029V139.742Z" fill="#5A0038" stroke="#5A0038"/>
    <path d="M80.3697 139.742H86.4033V145.776H80.3697V139.742Z" fill="#F91C86" stroke="#F91C86"/>
    <path d="M176.907 145.776H182.941V151.81H176.907V145.776Z" fill="#F91C86" stroke="#F91C86"/>
    <path d="M170.873 145.776H176.907V151.81H170.873V145.776Z" fill="#F91C86" stroke="#F91C86"/>
    <path d="M164.839 145.776H170.873V151.81H164.839V145.776Z" fill="#1B00FF" stroke="#1B00FF"/>
    <path d="M158.806 145.776H164.84V151.81H158.806V145.776Z" fill="#1B00FF" stroke="#1B00FF"/>
    <path d="M152.772 145.776H158.806V151.81H152.772V145.776Z" fill="#1B00FF" stroke="#1B00FF"/>
    <path d="M146.739 145.776H152.773V151.81H146.739V145.776Z" fill="#1B00FF" stroke="#1B00FF"/>
    <path d="M140.705 145.776H146.739V151.81H140.705V145.776Z" fill="#1B00FF" stroke="#1B00FF"/>
    <path d="M134.672 145.776H140.705V151.81H134.672V145.776Z" fill="#F91C86" stroke="#F91C86"/>
    <path d="M128.638 145.776H134.672V151.81H128.638V145.776Z" fill="#5A0038" stroke="#5A0038"/>
    <path d="M122.605 145.776H128.638V151.81H122.605V145.776Z" fill="#F91C86" stroke="#F91C86"/>
    <path d="M116.571 145.776H122.604V151.81H116.571V145.776Z" fill="#1B00FF" stroke="#1B00FF"/>
    <path d="M110.538 145.776H116.571V151.81H110.538V145.776Z" fill="#1B00FF" stroke="#1B00FF"/>
    <path d="M104.504 145.776H110.537V151.81H104.504V145.776Z" fill="#1B00FF" stroke="#1B00FF"/>
    <path d="M98.47 145.776H104.504V151.81H98.47V145.776Z" fill="#1B00FF" stroke="#1B00FF"/>
    <path d="M92.4364 145.776H98.47V151.81H92.4364V145.776Z" fill="#1B00FF" stroke="#1B00FF"/>
    <path d="M86.4029 145.776H92.4365V151.81H86.4029V145.776Z" fill="#5A0038" stroke="#5A0038"/>
    <path d="M80.3697 145.776H86.4033V151.81H80.3697V145.776Z" fill="#F91C86" stroke="#F91C86"/>
    <path d="M176.907 151.809H182.941V157.843H176.907V151.809Z" fill="#F91C86" stroke="#F91C86"/>
    <path d="M170.873 151.809H176.907V157.843H170.873V151.809Z" fill="#F91C86" stroke="#F91C86"/>
    <path d="M164.839 151.809H170.873V157.843H164.839V151.809Z" fill="#F91C86" stroke="#F91C86"/>
    <path d="M158.806 151.809H164.84V157.843H158.806V151.809Z" fill="#F91C86" stroke="#F91C86"/>
    <path d="M152.772 151.809H158.806V157.843H152.772V151.809Z" fill="#F91C86" stroke="#F91C86"/>
    <path d="M146.739 151.809H152.773V157.843H146.739V151.809Z" fill="#F91C86" stroke="#F91C86"/>
    <path d="M140.705 151.809H146.739V157.843H140.705V151.809Z" fill="#5A0038" stroke="#5A0038"/>
    <path d="M134.672 151.809H140.705V157.843H134.672V151.809Z" fill="#F91C86" stroke="#F91C86"/>
    <path d="M128.638 151.809H134.672V157.843H128.638V151.809Z" fill="#5A0038" stroke="#5A0038"/>
    <path d="M122.605 151.809H128.638V157.843H122.605V151.809Z" fill="#F91C86" stroke="#F91C86"/>
    <path d="M116.571 151.809H122.604V157.843H116.571V151.809Z" fill="#5A0038" stroke="#5A0038"/>
    <path d="M110.538 151.809H116.571V157.843H110.538V151.809Z" fill="#F91C86" stroke="#F91C86"/>
    <path d="M104.504 151.809H110.537V157.843H104.504V151.809Z" fill="#F91C86" stroke="#F91C86"/>
    <path d="M98.47 151.809H104.504V157.843H98.47V151.809Z" fill="#F91C86" stroke="#F91C86"/>
    <path d="M92.4364 151.809H98.47V157.843H92.4364V151.809Z" fill="#F91C86" stroke="#F91C86"/>
    <path d="M86.4029 151.809H92.4365V157.843H86.4029V151.809Z" fill="#5A0038" stroke="#5A0038"/>
    <path d="M80.3697 151.809H86.4033V157.843H80.3697V151.809Z" fill="#F91C86" stroke="#F91C86"/>
    <path d="M170.873 157.843H176.907V163.877H170.873V157.843Z" fill="#F91C86" stroke="#F91C86"/>
    <path d="M164.839 157.843H170.873V163.877H164.839V157.843Z" fill="#F91C86" stroke="#F91C86"/>
    <path d="M158.806 157.843H164.84V163.877H158.806V157.843Z" fill="#F91C86" stroke="#F91C86"/>
    <path d="M152.772 157.843H158.806V163.877H152.772V157.843Z" fill="#F91C86" stroke="#F91C86"/>
    <path d="M146.739 157.843H152.773V163.877H146.739V157.843Z" fill="#5A0038" stroke="#5A0038"/>
    <path d="M140.705 157.843H146.739V163.877H140.705V157.843Z" fill="#F91C86" stroke="#F91C86"/>
    <path d="M134.672 157.843H140.705V163.877H134.672V157.843Z" fill="#5A0038" stroke="#5A0038"/>
    <path d="M128.638 157.843H134.672V163.877H128.638V157.843Z" fill="#F91C86" stroke="#F91C86"/>
    <path d="M122.605 157.843H128.638V163.877H122.605V157.843Z" fill="#5A0038" stroke="#5A0038"/>
    <path d="M116.571 157.843H122.604V163.877H116.571V157.843Z" fill="#F91C86" stroke="#F91C86"/>
    <path d="M110.538 157.843H116.571V163.877H110.538V157.843Z" fill="#5A0038" stroke="#5A0038"/>
    <path d="M104.504 157.843H110.537V163.877H104.504V157.843Z" fill="#F91C86" stroke="#F91C86"/>
    <path d="M98.47 157.843H104.504V163.877H98.47V157.843Z" fill="#F91C86" stroke="#F91C86"/>
    <path d="M92.4364 157.843H98.47V163.877H92.4364V157.843Z" fill="#F91C86" stroke="#F91C86"/>
    <path d="M86.4029 157.843H92.4365V163.877H86.4029V157.843Z" fill="#5A0038" stroke="#5A0038"/>
    <path d="M164.839 163.876H170.873V169.91H164.839V163.876Z" fill="#F91C86" stroke="#F91C86"/>
    <path d="M158.806 163.876H164.84V169.91H158.806V163.876Z" fill="#F91C86" stroke="#F91C86"/>
    <path d="M152.772 163.876H158.806V169.91H152.772V163.876Z" fill="#5A0038" stroke="#5A0038"/>
    <path d="M146.739 163.876H152.773V169.91H146.739V163.876Z" fill="#F91C86" stroke="#F91C86"/>
    <path d="M140.705 163.876H146.739V169.91H140.705V163.876Z" fill="#F91C86" stroke="#F91C86"/>
    <path d="M134.672 163.876H140.705V169.91H134.672V163.876Z" fill="#F91C86" stroke="#F91C86"/>
    <path d="M128.638 163.876H134.672V169.91H128.638V163.876Z" fill="#F91C86" stroke="#F91C86"/>
    <path d="M122.605 163.876H128.638V169.91H122.605V163.876Z" fill="#F91C86" stroke="#F91C86"/>
    <path d="M116.571 163.876H122.604V169.91H116.571V163.876Z" fill="#F91C86" stroke="#F91C86"/>
    <path d="M110.538 163.876H116.571V169.91H110.538V163.876Z" fill="#F91C86" stroke="#F91C86"/>
    <path d="M104.504 163.876H110.537V169.91H104.504V163.876Z" fill="#5A0038" stroke="#5A0038"/>
    <path d="M98.47 163.876H104.504V169.91H98.47V163.876Z" fill="#F91C86" stroke="#F91C86"/>
    <path d="M92.4364 163.876H98.47V169.91H92.4364V163.876Z" fill="#5A0038" stroke="#5A0038"/>
    <path d="M164.839 169.91H170.873V175.944H164.839V169.91Z" fill="#F91C86" stroke="#F91C86"/>
    <path d="M158.806 169.91H164.84V175.944H158.806V169.91Z" fill="#F91C86" stroke="#F91C86"/>
    <path d="M152.772 169.91H158.806V175.944H152.772V169.91Z" fill="#F91C86" stroke="#F91C86"/>
    <path d="M146.739 169.91H152.773V175.944H146.739V169.91Z" fill="#F91C86" stroke="#F91C86"/>
    <path d="M140.705 169.91H146.739V175.944H140.705V169.91Z" fill="#5A0038" stroke="#5A0038"/>
    <path d="M134.672 169.91H140.705V175.944H134.672V169.91Z" fill="#5A0038" stroke="#5A0038"/>
    <path d="M128.638 169.91H134.672V175.944H128.638V169.91Z" fill="#5A0038" stroke="#5A0038"/>
    <path d="M122.605 169.91H128.638V175.944H122.605V169.91Z" fill="#5A0038" stroke="#5A0038"/>
    <path d="M116.571 169.91H122.604V175.944H116.571V169.91Z" fill="#5A0038" stroke="#5A0038"/>
    <path d="M110.538 169.91H116.571V175.944H110.538V169.91Z" fill="#F91C86" stroke="#F91C86"/>
    <path d="M104.504 169.91H110.537V175.944H104.504V169.91Z" fill="#F91C86" stroke="#F91C86"/>
    <path d="M98.47 169.91H104.504V175.944H98.47V169.91Z" fill="#F91C86" stroke="#F91C86"/>
    <path d="M92.4364 169.91H98.47V175.944H92.4364V169.91Z" fill="#5A0038" stroke="#5A0038"/>
    <path d="M164.839 175.944H170.873V181.978H164.839V175.944Z" fill="#F91C86" stroke="#F91C86"/>
    <path d="M158.806 175.944H164.84V181.978H158.806V175.944Z" fill="#F91C86" stroke="#F91C86"/>
    <path d="M152.772 175.944H158.806V181.978H152.772V175.944Z" fill="#F91C86" stroke="#F91C86"/>
    <path d="M146.739 175.944H152.773V181.978H146.739V175.944Z" fill="#5A0038" stroke="#5A0038"/>
    <path d="M140.705 175.944H146.739V181.978H140.705V175.944Z" fill="#5A0038" stroke="#5A0038"/>
    <path d="M134.672 175.944H140.705V181.978H134.672V175.944Z" fill="#5A0038" stroke="#5A0038"/>
    <path d="M128.638 175.944H134.672V181.978H128.638V175.944Z" fill="#5A0038" stroke="#5A0038"/>
    <path d="M122.605 175.944H128.638V181.978H122.605V175.944Z" fill="#5A0038" stroke="#5A0038"/>
    <path d="M116.571 175.944H122.604V181.978H116.571V175.944Z" fill="#5A0038" stroke="#5A0038"/>
    <path d="M110.538 175.944H116.571V181.978H110.538V175.944Z" fill="#5A0038" stroke="#5A0038"/>
    <path d="M104.504 175.944H110.537V181.978H104.504V175.944Z" fill="#F91C86" stroke="#F91C86"/>
    <path d="M98.47 175.944H104.504V181.978H98.47V175.944Z" fill="#F91C86" stroke="#F91C86"/>
    <path d="M92.4364 175.944H98.47V181.978H92.4364V175.944Z" fill="#5A0038" stroke="#5A0038"/>
    <path d="M158.806 181.978H164.84V188.011H158.806V181.978Z" fill="#F91C86" stroke="#F91C86"/>
    <path d="M152.772 181.978H158.806V188.011H152.772V181.978Z" fill="#F91C86" stroke="#F91C86"/>
    <path d="M146.739 181.978H152.773V188.011H146.739V181.978Z" fill="#F91C86" stroke="#F91C86"/>
    <path d="M140.705 181.978H146.739V188.011H140.705V181.978Z" fill="#5A0038" stroke="#5A0038"/>
    <path d="M134.672 181.978H140.705V188.011H134.672V181.978Z" fill="#5A0038" stroke="#5A0038"/>
    <path d="M128.638 181.978H134.672V188.011H128.638V181.978Z" fill="#5A0038" stroke="#5A0038"/>
    <path d="M122.605 181.978H128.638V188.011H122.605V181.978Z" fill="#5A0038" stroke="#5A0038"/>
    <path d="M116.571 181.978H122.604V188.011H116.571V181.978Z" fill="#5A0038" stroke="#5A0038"/>
    <path d="M110.538 181.978H116.571V188.011H110.538V181.978Z" fill="#F91C86" stroke="#F91C86"/>
    <path d="M104.504 181.978H110.537V188.011H104.504V181.978Z" fill="#F91C86" stroke="#F91C86"/>
    <path d="M98.47 181.978H104.504V188.011H98.47V181.978Z" fill="#5A0038" stroke="#5A0038"/>
    <path d="M158.806 188.011H164.84V194.045H158.806V188.011Z" fill="#5A0038" stroke="#5A0038"/>
    <path d="M152.772 188.011H158.806V194.045H152.772V188.011Z" fill="#F91C86" stroke="#F91C86"/>
    <path d="M146.739 188.011H152.773V194.045H146.739V188.011Z" fill="#F91C86" stroke="#F91C86"/>
    <path d="M140.705 188.011H146.739V194.045H140.705V188.011Z" fill="#F91C86" stroke="#F91C86"/>
    <path d="M134.672 188.011H140.705V194.045H134.672V188.011Z" fill="#F91C86" stroke="#F91C86"/>
    <path d="M128.638 188.011H134.672V194.045H128.638V188.011Z" fill="#F91C86" stroke="#F91C86"/>
    <path d="M122.605 188.011H128.638V194.045H122.605V188.011Z" fill="#F91C86" stroke="#F91C86"/>
    <path d="M116.571 188.011H122.604V194.045H116.571V188.011Z" fill="#F91C86" stroke="#F91C86"/>
    <path d="M110.538 188.011H116.571V194.045H110.538V188.011Z" fill="#F91C86" stroke="#F91C86"/>
    <path d="M104.504 188.011H110.537V194.045H104.504V188.011Z" fill="#F91C86" stroke="#F91C86"/>
    <path d="M98.47 188.011H104.504V194.045H98.47V188.011Z" fill="#5A0038" stroke="#5A0038"/>
    <path d="M158.806 194.044H164.84V200.078H158.806V194.044Z" fill="#F91C86" stroke="#F91C86"/>
    <path d="M152.772 194.044H158.806V200.078H152.772V194.044Z" fill="#5A0038" stroke="#5A0038"/>
    <path d="M146.739 194.044H152.773V200.078H146.739V194.044Z" fill="#F91C86" stroke="#F91C86"/>
    <path d="M140.705 194.044H146.739V200.078H140.705V194.044Z" fill="#F91C86" stroke="#F91C86"/>
    <path d="M134.672 194.044H140.705V200.078H134.672V194.044Z" fill="#F91C86" stroke="#F91C86"/>
    <path d="M128.638 194.044H134.672V200.078H128.638V194.044Z" fill="#F91C86" stroke="#F91C86"/>
    <path d="M122.605 194.044H128.638V200.078H122.605V194.044Z" fill="#F91C86" stroke="#F91C86"/>
    <path d="M116.571 194.044H122.604V200.078H116.571V194.044Z" fill="#F91C86" stroke="#F91C86"/>
    <path d="M110.538 194.044H116.571V200.078H110.538V194.044Z" fill="#F91C86" stroke="#F91C86"/>
    <path d="M104.504 194.044H110.537V200.078H104.504V194.044Z" fill="#5A0038" stroke="#5A0038"/>
    <path d="M98.47 194.044H104.504V200.078H98.47V194.044Z" fill="#5A0038" stroke="#5A0038"/>
    <path d="M146.739 200.078H152.773V206.112H146.739V200.078Z" fill="#5A0038" stroke="#5A0038"/>
    <path d="M140.705 200.078H146.739V206.112H140.705V200.078Z" fill="#F91C86" stroke="#F91C86"/>
    <path d="M134.672 200.078H140.705V206.112H134.672V200.078Z" fill="#F91C86" stroke="#F91C86"/>
    <path d="M128.638 200.078H134.672V206.112H128.638V200.078Z" fill="#F91C86" stroke="#F91C86"/>
    <path d="M122.605 200.078H128.638V206.112H122.605V200.078Z" fill="#F91C86" stroke="#F91C86"/>
    <path d="M116.571 200.078H122.604V206.112H116.571V200.078Z" fill="#F91C86" stroke="#F91C86"/>
    <path d="M110.538 200.078H116.571V206.112H110.538V200.078Z" fill="#5A0038" stroke="#5A0038"/>
    <path d="M146.739 206.112H152.773V212.146H146.739V206.112Z" fill="#5A0038" stroke="#5A0038"/>
    <path d="M140.705 206.112H146.739V212.146H140.705V206.112Z" fill="#5A0038" stroke="#5A0038"/>
    <path d="M134.672 206.112H140.705V212.146H134.672V206.112Z" fill="#5A0038" stroke="#5A0038"/>
    <path d="M128.638 206.112H134.672V212.146H128.638V206.112Z" fill="#5A0038" stroke="#5A0038"/>
    <path d="M122.605 206.112H128.638V212.146H122.605V206.112Z" fill="#5A0038" stroke="#5A0038"/>
    <path d="M116.571 206.112H122.604V212.146H116.571V206.112Z" fill="#5A0038" stroke="#5A0038"/>
    <path d="M110.538 206.112H116.571V212.146H110.538V206.112Z" fill="#5A0038" stroke="#5A0038"/>
    <path d="M146.739 212.146H152.773V218.18H146.739V212.146Z" fill="#F91C86" stroke="#F91C86"/>
    <path d="M140.705 212.146H146.739V218.18H140.705V212.146Z" fill="#5A0038" stroke="#5A0038"/>
    <path d="M134.672 212.146H140.705V218.18H134.672V212.146Z" fill="#5A0038" stroke="#5A0038"/>
    <path d="M128.638 212.146H134.672V218.18H128.638V212.146Z" fill="#5A0038" stroke="#5A0038"/>
    <path d="M122.605 212.146H128.638V218.18H122.605V212.146Z" fill="#5A0038" stroke="#5A0038"/>
    <path d="M116.571 212.146H122.604V218.18H116.571V212.146Z" fill="#5A0038" stroke="#5A0038"/>
    <path d="M110.538 212.146H116.571V218.18H110.538V212.146Z" fill="#F91C86" stroke="#F91C86"/>
    <path d="M170.873 218.18H176.907V224.214H170.873V218.18Z" fill="#78A2FF" stroke="#78A2FF"/>
    <path d="M146.739 218.18H152.773V224.214H146.739V218.18Z" fill="#F91C86" stroke="#F91C86"/>
    <path d="M140.705 218.18H146.739V224.214H140.705V218.18Z" fill="#F91C86" stroke="#F91C86"/>
    <path d="M134.672 218.18H140.705V224.214H134.672V218.18Z" fill="#5A0038" stroke="#5A0038"/>
    <path d="M128.638 218.18H134.672V224.214H128.638V218.18Z" fill="#F91C86" stroke="#F91C86"/>
    <path d="M122.605 218.18H128.638V224.214H122.605V218.18Z" fill="#5A0038" stroke="#5A0038"/>
    <path d="M116.571 218.18H122.604V224.214H116.571V218.18Z" fill="#F91C86" stroke="#F91C86"/>
    <path d="M110.538 218.18H116.571V224.214H110.538V218.18Z" fill="#F91C86" stroke="#F91C86"/>
    <path d="M86.4029 218.18H92.4365V224.214H86.4029V218.18Z" fill="#78A2FF" stroke="#78A2FF"/>
    <path d="M195.007 224.214H201.041V230.248H195.007V224.214Z" fill="#1B00FF" stroke="#1B00FF"/>
    <path d="M188.974 224.214H195.008V230.248H188.974V224.214Z" fill="#1B00FF" stroke="#1B00FF"/>
    <path d="M182.94 224.214H188.974V230.248H182.94V224.214Z" fill="#1B00FF" stroke="#1B00FF"/>
    <path d="M176.907 224.214H182.941V230.248H176.907V224.214Z" fill="#1B00FF" stroke="#1B00FF"/>
    <path d="M170.873 224.214H176.907V230.248H170.873V224.214Z" fill="#78A2FF" stroke="#78A2FF"/>
    <path d="M146.739 224.214H152.773V230.248H146.739V224.214Z" fill="#F91C86" stroke="#F91C86"/>
    <path d="M140.705 224.214H146.739V230.248H140.705V224.214Z" fill="#F91C86" stroke="#F91C86"/>
    <path d="M134.672 224.214H140.705V230.248H134.672V224.214Z" fill="#5A0038" stroke="#5A0038"/>
    <path d="M128.638 224.214H134.672V230.248H128.638V224.214Z" fill="#F91C86" stroke="#F91C86"/>
    <path d="M122.605 224.214H128.638V230.248H122.605V224.214Z" fill="#5A0038" stroke="#5A0038"/>
    <path d="M116.571 224.214H122.604V230.248H116.571V224.214Z" fill="#F91C86" stroke="#F91C86"/>
    <path d="M110.538 224.214H116.571V230.248H110.538V224.214Z" fill="#F91C86" stroke="#F91C86"/>
    <path d="M86.4029 224.214H92.4365V230.248H86.4029V224.214Z" fill="#78A2FF" stroke="#78A2FF"/>
    <path d="M80.3697 224.214H86.4033V230.248H80.3697V224.214Z" fill="#1B00FF" stroke="#1B00FF"/>
    <path d="M74.3358 224.214H80.3694V230.248H74.3358V224.214Z" fill="#1B00FF" stroke="#1B00FF"/>
    <path d="M68.302 224.214H74.3357V230.248H68.302V224.214Z" fill="#1B00FF" stroke="#1B00FF"/>
    <path d="M62.2681 224.214H68.3018V230.248H62.2681V224.214Z" fill="#1B00FF" stroke="#1B00FF"/>
    <path d="M146.739 230.247H152.773V236.281H146.739V230.247Z" fill="#F91C86" stroke="#F91C86"/>
    <path d="M140.705 230.247H146.739V236.281H140.705V230.247Z" fill="#F91C86" stroke="#F91C86"/>
    <path d="M134.672 230.247H140.705V236.281H134.672V230.247Z" fill="#F91C86" stroke="#F91C86"/>
    <path d="M128.638 230.247H134.672V236.281H128.638V230.247Z" fill="#F91C86" stroke="#F91C86"/>
    <path d="M122.605 230.247H128.638V236.281H122.605V230.247Z" fill="#F91C86" stroke="#F91C86"/>
    <path d="M116.571 230.247H122.604V236.281H116.571V230.247Z" fill="#F91C86" stroke="#F91C86"/>
    <path d="M110.538 230.247H116.571V236.281H110.538V230.247Z" fill="#5A0038" stroke="#5A0038"/>
    <path d="M146.739 236.281H152.773V242.315H146.739V236.281Z" fill="#78A2FF" stroke="#78A2FF"/>
    <path d="M140.705 236.281H146.739V242.315H140.705V236.281Z" fill="#F91C86" stroke="#F91C86"/>
    <path d="M134.672 236.281H140.705V242.315H134.672V236.281Z" fill="#F91C86" stroke="#F91C86"/>
    <path d="M128.638 236.281H134.672V242.315H128.638V236.281Z" fill="#F91C86" stroke="#F91C86"/>
    <path d="M122.605 236.281H128.638V242.315H122.605V236.281Z" fill="#F91C86" stroke="#F91C86"/>
    <path d="M116.571 236.281H122.604V242.315H116.571V236.281Z" fill="#5A0038" stroke="#5A0038"/>
    <path d="M110.538 236.281H116.571V242.315H110.538V236.281Z" fill="#78A2FF" stroke="#78A2FF"/>
    <path d="M146.739 242.316H152.773V248.35H146.739V242.316Z" fill="#78A2FF" stroke="#78A2FF"/>
    <path d="M140.705 242.316H146.739V248.35H140.705V242.316Z" fill="#78A2FF" stroke="#78A2FF"/>
    <path d="M134.672 242.316H140.705V248.35H134.672V242.316Z" fill="#F91C86" stroke="#F91C86"/>
    <path d="M128.638 242.316H134.672V248.35H128.638V242.316Z" fill="#F91C86" stroke="#F91C86"/>
    <path d="M122.605 242.316H128.638V248.35H122.605V242.316Z" fill="#5A0038" stroke="#5A0038"/>
    <path d="M116.571 242.316H122.604V248.35H116.571V242.316Z" fill="#78A2FF" stroke="#78A2FF"/>
    <path d="M110.538 242.316H116.571V248.35H110.538V242.316Z" fill="#78A2FF" stroke="#78A2FF"/>
    <path d="M140.705 248.349H146.739V254.383H140.705V248.349Z" fill="#78A2FF" stroke="#78A2FF"/>
    <path d="M134.672 248.349H140.705V254.383H134.672V248.349Z" fill="#78A2FF" stroke="#78A2FF"/>
    <path d="M128.638 248.349H134.672V254.383H128.638V248.349Z" fill="#5A0038" stroke="#5A0038"/>
    <path d="M122.605 248.349H128.638V254.383H122.605V248.349Z" fill="#78A2FF" stroke="#78A2FF"/>
    <path d="M116.571 248.349H122.604V254.383H116.571V248.349Z" fill="#78A2FF" stroke="#78A2FF"/>
    <path d="M134.672 254.383H140.705V260.417H134.672V254.383Z" fill="#78A2FF" stroke="#78A2FF"/>
    <path d="M128.638 254.383H134.672V260.417H128.638V254.383Z" fill="#78A2FF" stroke="#78A2FF"/>
    <path d="M122.605 254.383H128.638V260.417H122.605V254.383Z" fill="#78A2FF" stroke="#78A2FF"/>
    <path d="M207.075 224.214H213.108V230.248H207.075V224.214Z" fill="#1B00FF" stroke="#1B00FF"/>
    <path d="M201.041 224.214H207.075V230.248H201.041V224.214Z" fill="#1B00FF" stroke="#1B00FF"/>
    <path d="M219.142 224.214H225.176V230.248H219.142V224.214Z" fill="#1B00FF" stroke="#1B00FF"/>
    <path d="M213.108 224.214H219.142V230.248H213.108V224.214Z" fill="#1B00FF" stroke="#1B00FF"/>
    <path d="M231.209 224.214H237.243V230.248H231.209V224.214Z" fill="#1B00FF" stroke="#1B00FF"/>
    <path d="M225.175 224.214H231.209V230.248H225.175V224.214Z" fill="#1B00FF" stroke="#1B00FF"/>
    <path d="M243.276 224.214H249.31V230.248H243.276V224.214Z" fill="#1B00FF" stroke="#1B00FF"/>
    <path d="M237.243 224.214H243.276V230.248H237.243V224.214Z" fill="#1B00FF" stroke="#1B00FF"/>
    <path d="M243.276 230.247H249.31V236.281H243.276V230.247Z" fill="#1B00FF" stroke="#1B00FF"/>
    <path d="M237.243 230.247H243.276V236.281H237.243V230.247Z" fill="#1B00FF" stroke="#1B00FF"/>
    <path d="M243.276 236.281H249.31V242.315H243.276V236.281Z" fill="#1B00FF" stroke="#1B00FF"/>
    <path d="M128.638 260.416H134.672V266.45H128.638V260.416Z" fill="#78A2FF" stroke="#78A2FF"/>
    <path d="M56.235 224.214H62.2686V230.248H56.235V224.214Z" fill="#1B00FF" stroke="#1B00FF"/>
    <path d="M50.2014 224.214H56.2351V230.248H50.2014V224.214Z" fill="#1B00FF" stroke="#1B00FF"/>
    <path d="M44.1681 224.214H50.2017V230.248H44.1681V224.214Z" fill="#1B00FF" stroke="#1B00FF"/>
    <path d="M38.1343 224.214H44.168V230.248H38.1343V224.214Z" fill="#1B00FF" stroke="#1B00FF"/>
    <path d="M32.1006 224.214H38.1343V230.248H32.1006V224.214Z" fill="#1B00FF" stroke="#1B00FF"/>
    <path d="M26.067 224.214H32.1006V230.248H26.067V224.214Z" fill="#1B00FF" stroke="#1B00FF"/>
    <path d="M176.907 67.3369H182.941V73.3707H176.907V67.3369Z" fill="#1B00FF" stroke="#1B00FF"/>
    <path d="M170.873 67.3369H176.907V73.3707H170.873V67.3369Z" fill="#78A2FF" stroke="#78A2FF"/>
    <path d="M164.839 67.3369H170.873V73.3707H164.839V67.3369Z" fill="#1B00FF" stroke="#1B00FF"/>
    <path d="M158.806 67.3369H164.84V73.3707H158.806V67.3369Z" fill="#1B00FF" stroke="#1B00FF"/>
    <path d="M152.772 67.3369H158.806V73.3707H152.772V67.3369Z" fill="#1B00FF" stroke="#1B00FF"/>
    <path d="M146.739 67.3369H152.773V73.3707H146.739V67.3369Z" fill="#78A2FF" stroke="#78A2FF"/>
    <path d="M140.705 67.3369H146.739V73.3707H140.705V67.3369Z" fill="#1B00FF" stroke="#1B00FF"/>
    <path d="M134.672 67.3369H140.705V73.3707H134.672V67.3369Z" fill="#1B00FF" stroke="#1B00FF"/>
    <path d="M128.638 67.3369H134.672V73.3707H128.638V67.3369Z" fill="#78A2FF" stroke="#78A2FF"/>
    <path d="M122.605 67.3369H128.638V73.3707H122.605V67.3369Z" fill="#1B00FF" stroke="#1B00FF"/>
    <path d="M116.571 67.3369H122.604V73.3707H116.571V67.3369Z" fill="#1B00FF" stroke="#1B00FF"/>
    <path d="M110.538 67.3369H116.571V73.3707H110.538V67.3369Z" fill="#78A2FF" stroke="#78A2FF"/>
    <path d="M104.504 67.3369H110.537V73.3707H104.504V67.3369Z" fill="#1B00FF" stroke="#1B00FF"/>
    <path d="M98.47 67.3369H104.504V73.3707H98.47V67.3369Z" fill="#1B00FF" stroke="#1B00FF"/>
    <path d="M92.4364 67.3369H98.47V73.3707H92.4364V67.3369Z" fill="#1B00FF" stroke="#1B00FF"/>
    <path d="M86.4029 67.3369H92.4365V73.3707H86.4029V67.3369Z" fill="#78A2FF" stroke="#78A2FF"/>
    <path d="M80.3697 67.3369H86.4033V73.3707H80.3697V67.3369Z" fill="#1B00FF" stroke="#1B00FF"/>
    <path d="M176.907 61.3032H182.941V67.337H176.907V61.3032Z" fill="#1B00FF" stroke="#1B00FF"/>
    <path d="M170.873 61.3032H176.907V67.337H170.873V61.3032Z" fill="#1B00FF" stroke="#1B00FF"/>
    <path d="M164.839 61.3032H170.873V67.337H164.839V61.3032Z" fill="#1B00FF" stroke="#1B00FF"/>
    <path d="M158.806 61.3032H164.84V67.337H158.806V61.3032Z" fill="#1B00FF" stroke="#1B00FF"/>
    <path d="M152.772 61.3032H158.806V67.337H152.772V61.3032Z" fill="#1B00FF" stroke="#1B00FF"/>
    <path d="M146.739 61.3032H152.773V67.337H146.739V61.3032Z" fill="#1B00FF" stroke="#1B00FF"/>
    <path d="M140.705 61.3032H146.739V67.337H140.705V61.3032Z" fill="#1B00FF" stroke="#1B00FF"/>
    <path d="M134.672 61.3032H140.705V67.337H134.672V61.3032Z" fill="#78A2FF" stroke="#78A2FF"/>
    <path d="M128.638 61.3032H134.672V67.337H128.638V61.3032Z" fill="#1B00FF" stroke="#1B00FF"/>
    <path d="M122.605 61.3032H128.638V67.337H122.605V61.3032Z" fill="#78A2FF" stroke="#78A2FF"/>
    <path d="M116.571 61.3032H122.604V67.337H116.571V61.3032Z" fill="#1B00FF" stroke="#1B00FF"/>
    <path d="M110.538 61.3032H116.571V67.337H110.538V61.3032Z" fill="#1B00FF" stroke="#1B00FF"/>
    <path d="M104.504 61.3032H110.537V67.337H104.504V61.3032Z" fill="#1B00FF" stroke="#1B00FF"/>
    <path d="M98.47 61.3032H104.504V67.337H98.47V61.3032Z" fill="#1B00FF" stroke="#1B00FF"/>
    <path d="M92.4364 61.3032H98.47V67.337H92.4364V61.3032Z" fill="#1B00FF" stroke="#1B00FF"/>
    <path d="M86.4029 61.3032H92.4365V67.337H86.4029V61.3032Z" fill="#1B00FF" stroke="#1B00FF"/>
    <path d="M80.3697 61.3032H86.4033V67.337H80.3697V61.3032Z" fill="#1B00FF" stroke="#1B00FF"/>
    <path d="M164.839 55.2695H170.873V61.3033H164.839V55.2695Z" fill="#1B00FF" stroke="#1B00FF"/>
    <path d="M158.806 55.2695H164.84V61.3033H158.806V55.2695Z" fill="#1B00FF" stroke="#1B00FF"/>
    <path d="M152.772 55.2695H158.806V61.3033H152.772V55.2695Z" fill="#1B00FF" stroke="#1B00FF"/>
    <path d="M146.739 55.2695H152.773V61.3033H146.739V55.2695Z" fill="#1B00FF" stroke="#1B00FF"/>
    <path d="M140.705 55.2695H146.739V61.3033H140.705V55.2695Z" fill="#1B00FF" stroke="#1B00FF"/>
    <path d="M134.672 55.2695H140.705V61.3033H134.672V55.2695Z" fill="#1B00FF" stroke="#1B00FF"/>
    <path d="M128.638 55.2695H134.672V61.3033H128.638V55.2695Z" fill="#1B00FF" stroke="#1B00FF"/>
    <path d="M122.605 55.2695H128.638V61.3033H122.605V55.2695Z" fill="#1B00FF" stroke="#1B00FF"/>
    <path d="M116.571 55.2695H122.604V61.3033H116.571V55.2695Z" fill="#1B00FF" stroke="#1B00FF"/>
    <path d="M110.538 55.2695H116.571V61.3033H110.538V55.2695Z" fill="#1B00FF" stroke="#1B00FF"/>
    <path d="M104.504 55.2695H110.537V61.3033H104.504V55.2695Z" fill="#78A2FF" stroke="#78A2FF"/>
    <path d="M98.47 55.2695H104.504V61.3033H98.47V55.2695Z" fill="#1B00FF" stroke="#1B00FF"/>
    <path d="M92.4364 55.2695H98.47V61.3033H92.4364V55.2695Z" fill="#1B00FF" stroke="#1B00FF"/>
    <path d="M152.772 49.2358H158.806V55.2696H152.772V49.2358Z" fill="#1B00FF" stroke="#1B00FF"/>
    <path d="M146.739 49.2358H152.773V55.2696H146.739V49.2358Z" fill="#1B00FF" stroke="#1B00FF"/>
    <path d="M140.705 49.2358H146.739V55.2696H140.705V49.2358Z" fill="#78A2FF" stroke="#78A2FF"/>
    <path d="M134.672 49.2358H140.705V55.2696H134.672V49.2358Z" fill="#1B00FF" stroke="#1B00FF"/>
    <path d="M128.638 49.2358H134.672V55.2696H128.638V49.2358Z" fill="#1B00FF" stroke="#1B00FF"/>
    <path d="M122.605 49.2358H128.638V55.2696H122.605V49.2358Z" fill="#1B00FF" stroke="#1B00FF"/>
    <path d="M116.571 49.2358H122.604V55.2696H116.571V49.2358Z" fill="#1B00FF" stroke="#1B00FF"/>
    <path d="M110.538 49.2358H116.571V55.2696H110.538V49.2358Z" fill="#1B00FF" stroke="#1B00FF"/>
    <path d="M104.504 49.2358H110.537V55.2696H104.504V49.2358Z" fill="#1B00FF" stroke="#1B00FF"/>
    <path d="M134.672 43.2026H140.705V49.2364H134.672V43.2026Z" fill="#1B00FF" stroke="#1B00FF"/>
    <path d="M128.638 43.2026H134.672V49.2364H128.638V43.2026Z" fill="#1B00FF" stroke="#1B00FF"/>
    <path d="M122.605 43.2026H128.638V49.2364H122.605V43.2026Z" fill="#1B00FF" stroke="#1B00FF"/>
    <path d="M20.0335 224.214H26.0671V230.248H20.0335V224.214Z" fill="#1B00FF" stroke="#1B00FF"/>
    <path d="M14 224.214H20.0337V230.248H14V224.214Z" fill="#1B00FF" stroke="#1B00FF"/>
    <path d="M20.0335 230.247H26.0671V236.281H20.0335V230.247Z" fill="#1B00FF" stroke="#1B00FF"/>
    <path d="M14 230.247H20.0337V236.281H14V230.247Z" fill="#1B00FF" stroke="#1B00FF"/>
    <path d="M14 236.281H20.0337V242.315H14V236.281Z" fill="#1B00FF" stroke="#1B00FF"/>
    <path d="M146.739 133.708H152.773V139.741H146.739V133.708Z" fill="#5CFF00"/>
    <path d="M104.504 133.708H110.537V139.741H104.504V133.708Z" fill="#5CFF00"/>
    <path d="M158.806 206.112H164.84V212.146H158.806V206.112Z" fill="#F91C86" stroke="#F91C86"/>
    <path d="M98.47 206.112H104.504V212.146H98.47V206.112Z" fill="#5A0038" stroke="#5A0038"/>
    <path d="M158.806 212.146H164.84V218.18H158.806V212.146Z" fill="#F91C86" stroke="#F91C86"/>
    <path d="M98.47 212.146H104.504V218.18H98.47V212.146Z" fill="#5A0038" stroke="#5A0038"/>
    <path d="M164.839 218.18H170.873V224.214H164.839V218.18Z" fill="#78A2FF" stroke="#78A2FF"/>
    <path d="M158.806 218.18H164.84V224.214H158.806V218.18Z" fill="#F91C86" stroke="#F91C86"/>
    <path d="M98.47 218.18H104.504V224.214H98.47V218.18Z" fill="#5A0038" stroke="#5A0038"/>
    <path d="M92.4364 218.18H98.47V224.214H92.4364V218.18Z" fill="#78A2FF" stroke="#78A2FF"/>
    <path d="M164.839 224.214H170.873V230.248H164.839V224.214Z" fill="#78A2FF" stroke="#78A2FF"/>
    <path d="M158.806 224.214H164.84V230.248H158.806V224.214Z" fill="#78A2FF" stroke="#78A2FF"/>
    <path d="M98.47 224.214H104.504V230.248H98.47V224.214Z" fill="#78A2FF" stroke="#78A2FF"/>
    <path d="M92.4364 224.214H98.47V230.248H92.4364V224.214Z" fill="#78A2FF" stroke="#78A2FF"/>
    <path d="M195.007 230.247H201.041V236.281H195.007V230.247Z" fill="#1B00FF" stroke="#1B00FF"/>
    <path d="M188.974 230.247H195.008V236.281H188.974V230.247Z" fill="#1B00FF" stroke="#1B00FF"/>
    <path d="M182.94 230.247H188.974V236.281H182.94V230.247Z" fill="#1B00FF" stroke="#1B00FF"/>
    <path d="M176.907 230.247H182.941V236.281H176.907V230.247Z" fill="#1B00FF" stroke="#1B00FF"/>
    <path d="M170.873 230.247H176.907V236.281H170.873V230.247Z" fill="#1B00FF" stroke="#1B00FF"/>
    <path d="M164.839 230.247H170.873V236.281H164.839V230.247Z" fill="#78A2FF" stroke="#78A2FF"/>
    <path d="M158.806 230.247H164.84V236.281H158.806V230.247Z" fill="#78A2FF" stroke="#78A2FF"/>
    <path d="M98.47 230.247H104.504V236.281H98.47V230.247Z" fill="#78A2FF" stroke="#78A2FF"/>
    <path d="M92.4364 230.247H98.47V236.281H92.4364V230.247Z" fill="#78A2FF" stroke="#78A2FF"/>
    <path d="M86.4029 230.247H92.4365V236.281H86.4029V230.247Z" fill="#1B00FF" stroke="#1B00FF"/>
    <path d="M80.3697 230.247H86.4033V236.281H80.3697V230.247Z" fill="#1B00FF" stroke="#1B00FF"/>
    <path d="M74.3358 230.247H80.3694V236.281H74.3358V230.247Z" fill="#1B00FF" stroke="#1B00FF"/>
    <path d="M68.302 230.247H74.3357V236.281H68.302V230.247Z" fill="#1B00FF" stroke="#1B00FF"/>
    <path d="M62.2681 230.247H68.3018V236.281H62.2681V230.247Z" fill="#1B00FF" stroke="#1B00FF"/>
    <path d="M195.007 236.281H201.041V242.315H195.007V236.281Z" fill="#1B00FF" stroke="#1B00FF"/>
    <path d="M188.974 236.281H195.008V242.315H188.974V236.281Z" fill="#1B00FF" stroke="#1B00FF"/>
    <path d="M182.94 236.281H188.974V242.315H182.94V236.281Z" fill="#1B00FF" stroke="#1B00FF"/>
    <path d="M176.907 236.281H182.941V242.315H176.907V236.281Z" fill="#1B00FF" stroke="#1B00FF"/>
    <path d="M170.873 236.281H176.907V242.315H170.873V236.281Z" fill="#1B00FF" stroke="#1B00FF"/>
    <path d="M164.839 236.281H170.873V242.315H164.839V236.281Z" fill="#1B00FF" stroke="#1B00FF"/>
    <path d="M158.806 236.281H164.84V242.315H158.806V236.281Z" fill="#78A2FF" stroke="#78A2FF"/>
    <path d="M98.47 236.281H104.504V242.315H98.47V236.281Z" fill="#78A2FF" stroke="#78A2FF"/>
    <path d="M92.4364 236.281H98.47V242.315H92.4364V236.281Z" fill="#1B00FF" stroke="#1B00FF"/>
    <path d="M86.4029 236.281H92.4365V242.315H86.4029V236.281Z" fill="#1B00FF" stroke="#1B00FF"/>
    <path d="M80.3697 236.281H86.4033V242.315H80.3697V236.281Z" fill="#1B00FF" stroke="#1B00FF"/>
    <path d="M74.3358 236.281H80.3694V242.315H74.3358V236.281Z" fill="#1B00FF" stroke="#1B00FF"/>
    <path d="M68.302 236.281H74.3357V242.315H68.302V236.281Z" fill="#1B00FF" stroke="#1B00FF"/>
    <path d="M62.2681 236.281H68.3018V242.315H62.2681V236.281Z" fill="#1B00FF" stroke="#1B00FF"/>
    <path d="M195.007 242.316H201.041V248.35H195.007V242.316Z" fill="#1B00FF" stroke="#1B00FF"/>
    <path d="M188.974 242.316H195.008V248.35H188.974V242.316Z" fill="#1B00FF" stroke="#1B00FF"/>
    <path d="M182.94 242.316H188.974V248.35H182.94V242.316Z" fill="#1B00FF" stroke="#1B00FF"/>
    <path d="M176.907 242.316H182.941V248.35H176.907V242.316Z" fill="#1B00FF" stroke="#1B00FF"/>
    <path d="M170.873 242.316H176.907V248.35H170.873V242.316Z" fill="#1B00FF" stroke="#1B00FF"/>
    <path d="M164.839 242.316H170.873V248.35H164.839V242.316Z" fill="#1B00FF" stroke="#1B00FF"/>
    <path d="M158.806 242.316H164.84V248.35H158.806V242.316Z" fill="#1B00FF" stroke="#1B00FF"/>
    <path d="M98.47 242.316H104.504V248.35H98.47V242.316Z" fill="#1B00FF" stroke="#1B00FF"/>
    <path d="M92.4364 242.316H98.47V248.35H92.4364V242.316Z" fill="#1B00FF" stroke="#1B00FF"/>
    <path d="M86.4029 242.316H92.4365V248.35H86.4029V242.316Z" fill="#1B00FF" stroke="#1B00FF"/>
    <path d="M80.3697 242.316H86.4033V248.35H80.3697V242.316Z" fill="#1B00FF" stroke="#1B00FF"/>
    <path d="M74.3358 242.316H80.3694V248.35H74.3358V242.316Z" fill="#1B00FF" stroke="#1B00FF"/>
    <path d="M68.302 242.316H74.3357V248.35H68.302V242.316Z" fill="#1B00FF" stroke="#1B00FF"/>
    <path d="M62.2681 242.316H68.3018V248.35H62.2681V242.316Z" fill="#1B00FF" stroke="#1B00FF"/>
    <path d="M195.007 248.349H201.041V254.383H195.007V248.349Z" fill="#1B00FF" stroke="#1B00FF"/>
    <path d="M188.974 248.349H195.008V254.383H188.974V248.349Z" fill="#1B00FF" stroke="#1B00FF"/>
    <path d="M182.94 248.349H188.974V254.383H182.94V248.349Z" fill="#1B00FF" stroke="#1B00FF"/>
    <path d="M176.907 248.349H182.941V254.383H176.907V248.349Z" fill="#1B00FF" stroke="#1B00FF"/>
    <path d="M170.873 248.349H176.907V254.383H170.873V248.349Z" fill="#1B00FF" stroke="#1B00FF"/>
    <path d="M164.839 248.349H170.873V254.383H164.839V248.349Z" fill="#1B00FF" stroke="#1B00FF"/>
    <path d="M158.806 248.349H164.84V254.383H158.806V248.349Z" fill="#1B00FF" stroke="#1B00FF"/>
    <path d="M152.772 248.349H158.806V254.383H152.772V248.349Z" fill="#1B00FF" stroke="#1B00FF"/>
    <path d="M104.504 248.349H110.537V254.383H104.504V248.349Z" fill="#1B00FF" stroke="#1B00FF"/>
    <path d="M98.47 248.349H104.504V254.383H98.47V248.349Z" fill="#1B00FF" stroke="#1B00FF"/>
    <path d="M92.4364 248.349H98.47V254.383H92.4364V248.349Z" fill="#1B00FF" stroke="#1B00FF"/>
    <path d="M86.4029 248.349H92.4365V254.383H86.4029V248.349Z" fill="#1B00FF" stroke="#1B00FF"/>
    <path d="M80.3697 248.349H86.4033V254.383H80.3697V248.349Z" fill="#1B00FF" stroke="#1B00FF"/>
    <path d="M74.3358 248.349H80.3694V254.383H74.3358V248.349Z" fill="#1B00FF" stroke="#1B00FF"/>
    <path d="M68.302 248.349H74.3357V254.383H68.302V248.349Z" fill="#1B00FF" stroke="#1B00FF"/>
    <path d="M62.2681 248.349H68.3018V254.383H62.2681V248.349Z" fill="#1B00FF" stroke="#1B00FF"/>
    <path d="M195.007 254.383H201.041V260.417H195.007V254.383Z" fill="#1B00FF" stroke="#1B00FF"/>
    <path d="M188.974 254.383H195.008V260.417H188.974V254.383Z" fill="#1B00FF" stroke="#1B00FF"/>
    <path d="M182.94 254.383H188.974V260.417H182.94V254.383Z" fill="#1B00FF" stroke="#1B00FF"/>
    <path d="M176.907 254.383H182.941V260.417H176.907V254.383Z" fill="#1B00FF" stroke="#1B00FF"/>
    <path d="M170.873 254.383H176.907V260.417H170.873V254.383Z" fill="#1B00FF" stroke="#1B00FF"/>
    <path d="M164.839 254.383H170.873V260.417H164.839V254.383Z" fill="#1B00FF" stroke="#1B00FF"/>
    <path d="M158.806 254.383H164.84V260.417H158.806V254.383Z" fill="#1B00FF" stroke="#1B00FF"/>
    <path d="M152.772 254.383H158.806V260.417H152.772V254.383Z" fill="#1B00FF" stroke="#1B00FF"/>
    <path d="M146.739 254.383H152.773V260.417H146.739V254.383Z" fill="#1B00FF" stroke="#1B00FF"/>
    <path d="M110.538 254.383H116.571V260.417H110.538V254.383Z" fill="#1B00FF" stroke="#1B00FF"/>
    <path d="M104.504 254.383H110.537V260.417H104.504V254.383Z" fill="#1B00FF" stroke="#1B00FF"/>
    <path d="M98.47 254.383H104.504V260.417H98.47V254.383Z" fill="#1B00FF" stroke="#1B00FF"/>
    <path d="M92.4364 254.383H98.47V260.417H92.4364V254.383Z" fill="#1B00FF" stroke="#1B00FF"/>
    <path d="M86.4029 254.383H92.4365V260.417H86.4029V254.383Z" fill="#1B00FF" stroke="#1B00FF"/>
    <path d="M80.3697 254.383H86.4033V260.417H80.3697V254.383Z" fill="#1B00FF" stroke="#1B00FF"/>
    <path d="M74.3358 254.383H80.3694V260.417H74.3358V254.383Z" fill="#1B00FF" stroke="#1B00FF"/>
    <path d="M68.302 254.383H74.3357V260.417H68.302V254.383Z" fill="#1B00FF" stroke="#1B00FF"/>
    <path d="M62.2681 254.383H68.3018V260.417H62.2681V254.383Z" fill="#1B00FF" stroke="#1B00FF"/>
    <path d="M195.007 260.416H201.041V266.45H195.007V260.416Z" fill="#1B00FF" stroke="#1B00FF"/>
    <path d="M188.974 260.416H195.008V266.45H188.974V260.416Z" fill="#1B00FF" stroke="#1B00FF"/>
    <path d="M207.075 230.247H213.108V236.281H207.075V230.247Z" fill="#1B00FF" stroke="#1B00FF"/>
    <path d="M201.041 230.247H207.075V236.281H201.041V230.247Z" fill="#1B00FF" stroke="#1B00FF"/>
    <path d="M207.075 236.281H213.108V242.315H207.075V236.281Z" fill="#1B00FF" stroke="#1B00FF"/>
    <path d="M201.041 236.281H207.075V242.315H201.041V236.281Z" fill="#1B00FF" stroke="#1B00FF"/>
    <path d="M207.075 242.316H213.108V248.35H207.075V242.316Z" fill="#1B00FF" stroke="#1B00FF"/>
    <path d="M201.041 242.316H207.075V248.35H201.041V242.316Z" fill="#1B00FF" stroke="#1B00FF"/>
    <path d="M207.075 248.349H213.108V254.383H207.075V248.349Z" fill="#1B00FF" stroke="#1B00FF"/>
    <path d="M201.041 248.349H207.075V254.383H201.041V248.349Z" fill="#1B00FF" stroke="#1B00FF"/>
    <path d="M207.075 254.383H213.108V260.417H207.075V254.383Z" fill="#1B00FF" stroke="#1B00FF"/>
    <path d="M201.041 254.383H207.075V260.417H201.041V254.383Z" fill="#1B00FF" stroke="#1B00FF"/>
    <path d="M207.075 260.416H213.108V266.45H207.075V260.416Z" fill="#1B00FF" stroke="#1B00FF"/>
    <path d="M201.041 260.416H207.075V266.45H201.041V260.416Z" fill="#1B00FF" stroke="#1B00FF"/>
    <path d="M219.142 230.247H225.176V236.281H219.142V230.247Z" fill="#1B00FF" stroke="#1B00FF"/>
    <path d="M213.108 230.247H219.142V236.281H213.108V230.247Z" fill="#1B00FF" stroke="#1B00FF"/>
    <path d="M219.142 236.281H225.176V242.315H219.142V236.281Z" fill="#1B00FF" stroke="#1B00FF"/>
    <path d="M213.108 236.281H219.142V242.315H213.108V236.281Z" fill="#1B00FF" stroke="#1B00FF"/>
    <path d="M219.142 242.316H225.176V248.35H219.142V242.316Z" fill="#1B00FF" stroke="#1B00FF"/>
    <path d="M213.108 242.316H219.142V248.35H213.108V242.316Z" fill="#1B00FF" stroke="#1B00FF"/>
    <path d="M219.142 248.349H225.176V254.383H219.142V248.349Z" fill="#1B00FF" stroke="#1B00FF"/>
    <path d="M213.108 248.349H219.142V254.383H213.108V248.349Z" fill="#1B00FF" stroke="#1B00FF"/>
    <path d="M219.142 254.383H225.176V260.417H219.142V254.383Z" fill="#1B00FF" stroke="#1B00FF"/>
    <path d="M213.108 254.383H219.142V260.417H213.108V254.383Z" fill="#1B00FF" stroke="#1B00FF"/>
    <path d="M219.142 260.416H225.176V266.45H219.142V260.416Z" fill="#1B00FF" stroke="#1B00FF"/>
    <path d="M213.108 260.416H219.142V266.45H213.108V260.416Z" fill="#1B00FF" stroke="#1B00FF"/>
    <path d="M231.209 230.247H237.243V236.281H231.209V230.247Z" fill="#1B00FF" stroke="#1B00FF"/>
    <path d="M225.175 230.247H231.209V236.281H225.175V230.247Z" fill="#1B00FF" stroke="#1B00FF"/>
    <path d="M231.209 236.281H237.243V242.315H231.209V236.281Z" fill="#1B00FF" stroke="#1B00FF"/>
    <path d="M225.175 236.281H231.209V242.315H225.175V236.281Z" fill="#1B00FF" stroke="#1B00FF"/>
    <path d="M231.209 242.316H237.243V248.35H231.209V242.316Z" fill="#1B00FF" stroke="#1B00FF"/>
    <path d="M225.175 242.316H231.209V248.35H225.175V242.316Z" fill="#1B00FF" stroke="#1B00FF"/>
    <path d="M231.209 248.349H237.243V254.383H231.209V248.349Z" fill="#1B00FF" stroke="#1B00FF"/>
    <path d="M225.175 248.349H231.209V254.383H225.175V248.349Z" fill="#1B00FF" stroke="#1B00FF"/>
    <path d="M231.209 254.383H237.243V260.417H231.209V254.383Z" fill="#1B00FF" stroke="#1B00FF"/>
    <path d="M225.175 254.383H231.209V260.417H225.175V254.383Z" fill="#1B00FF" stroke="#1B00FF"/>
    <path d="M231.209 260.416H237.243V266.45H231.209V260.416Z" fill="#1B00FF" stroke="#1B00FF"/>
    <path d="M225.175 260.416H231.209V266.45H225.175V260.416Z" fill="#1B00FF" stroke="#1B00FF"/>
    <path d="M237.243 236.281H243.276V242.315H237.243V236.281Z" fill="#1B00FF" stroke="#1B00FF"/>
    <path d="M243.276 242.316H249.31V248.35H243.276V242.316Z" fill="#1B00FF" stroke="#1B00FF"/>
    <path d="M237.243 242.316H243.276V248.35H237.243V242.316Z" fill="#1B00FF" stroke="#1B00FF"/>
    <path d="M243.276 248.349H249.31V254.383H243.276V248.349Z" fill="#1B00FF" stroke="#1B00FF"/>
    <path d="M237.243 248.349H243.276V254.383H237.243V248.349Z" fill="#1B00FF" stroke="#1B00FF"/>
    <path d="M243.276 254.383H249.31V260.417H243.276V254.383Z" fill="#1B00FF" stroke="#1B00FF"/>
    <path d="M237.243 254.383H243.276V260.417H237.243V254.383Z" fill="#1B00FF" stroke="#1B00FF"/>
    <path d="M243.276 260.416H249.31V266.45H243.276V260.416Z" fill="#1B00FF" stroke="#1B00FF"/>
    <path d="M237.243 260.416H243.276V266.45H237.243V260.416Z" fill="#1B00FF" stroke="#1B00FF"/>
    <path d="M182.94 260.416H188.974V266.45H182.94V260.416Z" fill="#1B00FF" stroke="#1B00FF"/>
    <path d="M176.907 260.416H182.941V266.45H176.907V260.416Z" fill="#1B00FF" stroke="#1B00FF"/>
    <path d="M170.873 260.416H176.907V266.45H170.873V260.416Z" fill="#1B00FF" stroke="#1B00FF"/>
    <path d="M164.839 260.416H170.873V266.45H164.839V260.416Z" fill="#1B00FF" stroke="#1B00FF"/>
    <path d="M158.806 260.416H164.84V266.45H158.806V260.416Z" fill="#1B00FF" stroke="#1B00FF"/>
    <path d="M152.772 260.416H158.806V266.45H152.772V260.416Z" fill="#1B00FF" stroke="#1B00FF"/>
    <path d="M146.739 260.416H152.773V266.45H146.739V260.416Z" fill="#1B00FF" stroke="#1B00FF"/>
    <path d="M140.705 260.416H146.739V266.45H140.705V260.416Z" fill="#1B00FF" stroke="#1B00FF"/>
    <path d="M116.571 260.416H122.604V266.45H116.571V260.416Z" fill="#1B00FF" stroke="#1B00FF"/>
    <path d="M110.538 260.416H116.571V266.45H110.538V260.416Z" fill="#1B00FF" stroke="#1B00FF"/>
    <path d="M104.504 260.416H110.537V266.45H104.504V260.416Z" fill="#1B00FF" stroke="#1B00FF"/>
    <path d="M98.47 260.416H104.504V266.45H98.47V260.416Z" fill="#1B00FF" stroke="#1B00FF"/>
    <path d="M92.4364 260.416H98.47V266.45H92.4364V260.416Z" fill="#1B00FF" stroke="#1B00FF"/>
    <path d="M86.4029 260.416H92.4365V266.45H86.4029V260.416Z" fill="#1B00FF" stroke="#1B00FF"/>
    <path d="M80.3697 260.416H86.4033V266.45H80.3697V260.416Z" fill="#1B00FF" stroke="#1B00FF"/>
    <path d="M74.3358 260.416H80.3694V266.45H74.3358V260.416Z" fill="#1B00FF" stroke="#1B00FF"/>
    <path d="M68.302 260.416H74.3357V266.45H68.302V260.416Z" fill="#1B00FF" stroke="#1B00FF"/>
    <path d="M62.2681 260.416H68.3018V266.45H62.2681V260.416Z" fill="#1B00FF" stroke="#1B00FF"/>
    <path d="M56.235 230.247H62.2686V236.281H56.235V230.247Z" fill="#1B00FF" stroke="#1B00FF"/>
    <path d="M50.2014 230.247H56.2351V236.281H50.2014V230.247Z" fill="#1B00FF" stroke="#1B00FF"/>
    <path d="M56.235 236.281H62.2686V242.315H56.235V236.281Z" fill="#1B00FF" stroke="#1B00FF"/>
    <path d="M50.2014 236.281H56.2351V242.315H50.2014V236.281Z" fill="#1B00FF" stroke="#1B00FF"/>
    <path d="M56.235 242.316H62.2686V248.35H56.235V242.316Z" fill="#1B00FF" stroke="#1B00FF"/>
    <path d="M50.2014 242.316H56.2351V248.35H50.2014V242.316Z" fill="#1B00FF" stroke="#1B00FF"/>
    <path d="M56.235 248.349H62.2686V254.383H56.235V248.349Z" fill="#1B00FF" stroke="#1B00FF"/>
    <path d="M50.2014 248.349H56.2351V254.383H50.2014V248.349Z" fill="#1B00FF" stroke="#1B00FF"/>
    <path d="M56.235 254.383H62.2686V260.417H56.235V254.383Z" fill="#1B00FF" stroke="#1B00FF"/>
    <path d="M50.2014 254.383H56.2351V260.417H50.2014V254.383Z" fill="#1B00FF" stroke="#1B00FF"/>
    <path d="M56.235 260.416H62.2686V266.45H56.235V260.416Z" fill="#1B00FF" stroke="#1B00FF"/>
    <path d="M50.2014 260.416H56.2351V266.45H50.2014V260.416Z" fill="#1B00FF" stroke="#1B00FF"/>
    <path d="M44.1681 230.247H50.2017V236.281H44.1681V230.247Z" fill="#1B00FF" stroke="#1B00FF"/>
    <path d="M38.1343 230.247H44.168V236.281H38.1343V230.247Z" fill="#1B00FF" stroke="#1B00FF"/>
    <path d="M44.1681 236.281H50.2017V242.315H44.1681V236.281Z" fill="#1B00FF" stroke="#1B00FF"/>
    <path d="M38.1343 236.281H44.168V242.315H38.1343V236.281Z" fill="#1B00FF" stroke="#1B00FF"/>
    <path d="M44.1681 242.316H50.2017V248.35H44.1681V242.316Z" fill="#1B00FF" stroke="#1B00FF"/>
    <path d="M38.1343 242.316H44.168V248.35H38.1343V242.316Z" fill="#1B00FF" stroke="#1B00FF"/>
    <path d="M44.1681 248.349H50.2017V254.383H44.1681V248.349Z" fill="#1B00FF" stroke="#1B00FF"/>
    <path d="M38.1343 248.349H44.168V254.383H38.1343V248.349Z" fill="#1B00FF" stroke="#1B00FF"/>
    <path d="M44.1681 254.383H50.2017V260.417H44.1681V254.383Z" fill="#1B00FF" stroke="#1B00FF"/>
    <path d="M38.1343 254.383H44.168V260.417H38.1343V254.383Z" fill="#1B00FF" stroke="#1B00FF"/>
    <path d="M44.1681 260.416H50.2017V266.45H44.1681V260.416Z" fill="#1B00FF" stroke="#1B00FF"/>
    <path d="M38.1343 260.416H44.168V266.45H38.1343V260.416Z" fill="#1B00FF" stroke="#1B00FF"/>
    <path d="M32.1006 230.247H38.1343V236.281H32.1006V230.247Z" fill="#1B00FF" stroke="#1B00FF"/>
    <path d="M26.067 230.247H32.1006V236.281H26.067V230.247Z" fill="#1B00FF" stroke="#1B00FF"/>
    <path d="M32.1006 236.281H38.1343V242.315H32.1006V236.281Z" fill="#1B00FF" stroke="#1B00FF"/>
    <path d="M26.067 236.281H32.1006V242.315H26.067V236.281Z" fill="#1B00FF" stroke="#1B00FF"/>
    <path d="M32.1006 242.316H38.1343V248.35H32.1006V242.316Z" fill="#1B00FF" stroke="#1B00FF"/>
    <path d="M26.067 242.316H32.1006V248.35H26.067V242.316Z" fill="#1B00FF" stroke="#1B00FF"/>
    <path d="M32.1006 248.349H38.1343V254.383H32.1006V248.349Z" fill="#1B00FF" stroke="#1B00FF"/>
    <path d="M26.067 248.349H32.1006V254.383H26.067V248.349Z" fill="#1B00FF" stroke="#1B00FF"/>
    <path d="M32.1006 254.383H38.1343V260.417H32.1006V254.383Z" fill="#1B00FF" stroke="#1B00FF"/>
    <path d="M26.067 254.383H32.1006V260.417H26.067V254.383Z" fill="#1B00FF" stroke="#1B00FF"/>
    <path d="M32.1006 260.416H38.1343V266.45H32.1006V260.416Z" fill="#1B00FF" stroke="#1B00FF"/>
    <path d="M26.067 260.416H32.1006V266.45H26.067V260.416Z" fill="#1B00FF" stroke="#1B00FF"/>
    <path d="M20.0335 236.281H26.0671V242.315H20.0335V236.281Z" fill="#1B00FF" stroke="#1B00FF"/>
    <path d="M20.0335 242.316H26.0671V248.35H20.0335V242.316Z" fill="#1B00FF" stroke="#1B00FF"/>
    <path d="M14 242.316H20.0337V248.35H14V242.316Z" fill="#1B00FF" stroke="#1B00FF"/>
    <path d="M20.0335 248.349H26.0671V254.383H20.0335V248.349Z" fill="#1B00FF" stroke="#1B00FF"/>
    <path d="M14 248.349H20.0337V254.383H14V248.349Z" fill="#1B00FF" stroke="#1B00FF"/>
    <path d="M20.0335 254.383H26.0671V260.417H20.0335V254.383Z" fill="#1B00FF" stroke="#1B00FF"/>
    <path d="M14 254.383H20.0337V260.417H14V254.383Z" fill="#1B00FF" stroke="#1B00FF"/>
    <path d="M20.0335 260.416H26.0671V266.45H20.0335V260.416Z" fill="#1B00FF" stroke="#1B00FF"/>
    <path d="M14 260.416H20.0337V266.45H14V260.416Z" fill="#1B00FF" stroke="#1B00FF"/>
    <path d="M158.806 200.078H164.84V206.112H158.806V200.078Z" fill="#F91C86" stroke="#F91C86"/>
    <path d="M152.772 200.078H158.806V206.112H152.772V200.078Z" fill="#5A0038" stroke="#5A0038"/>
    <path d="M104.504 200.078H110.537V206.112H104.504V200.078Z" fill="#5A0038" stroke="#5A0038"/>
    <path d="M98.47 200.078H104.504V206.112H98.47V200.078Z" fill="#5A0038" stroke="#5A0038"/>
    <path d="M152.772 206.112H158.806V212.146H152.772V206.112Z" fill="#F91C86" stroke="#F91C86"/>
    <path d="M104.504 206.112H110.537V212.146H104.504V206.112Z" fill="#F91C86" stroke="#F91C86"/>
    <path d="M152.772 212.146H158.806V218.18H152.772V212.146Z" fill="#F91C86" stroke="#F91C86"/>
    <path d="M104.504 212.146H110.537V218.18H104.504V212.146Z" fill="#F91C86" stroke="#F91C86"/>
    <path d="M152.772 218.18H158.806V224.214H152.772V218.18Z" fill="#F91C86" stroke="#F91C86"/>
    <path d="M104.504 218.18H110.537V224.214H104.504V218.18Z" fill="#F91C86" stroke="#F91C86"/>
    <path d="M152.772 224.214H158.806V230.248H152.772V224.214Z" fill="#F91C86" stroke="#F91C86"/>
    <path d="M104.504 224.214H110.537V230.248H104.504V224.214Z" fill="#5A0038" stroke="#5A0038"/>
    <path d="M152.772 230.247H158.806V236.281H152.772V230.247Z" fill="#78A2FF" stroke="#78A2FF"/>
    <path d="M104.504 230.247H110.537V236.281H104.504V230.247Z" fill="#78A2FF" stroke="#78A2FF"/>
    <path d="M152.772 236.281H158.806V242.315H152.772V236.281Z" fill="#78A2FF" stroke="#78A2FF"/>
    <path d="M104.504 236.281H110.537V242.315H104.504V236.281Z" fill="#78A2FF" stroke="#78A2FF"/>
    <path d="M152.772 242.316H158.806V248.35H152.772V242.316Z" fill="#78A2FF" stroke="#78A2FF"/>
    <path d="M104.504 242.316H110.537V248.35H104.504V242.316Z" fill="#78A2FF" stroke="#78A2FF"/>
    <path d="M146.739 248.349H152.773V254.383H146.739V248.349Z" fill="#78A2FF" stroke="#78A2FF"/>
    <path d="M110.538 248.349H116.571V254.383H110.538V248.349Z" fill="#78A2FF" stroke="#78A2FF"/>
    <path d="M140.705 254.383H146.739V260.417H140.705V254.383Z" fill="#78A2FF" stroke="#78A2FF"/>
    <path d="M116.571 254.383H122.604V260.417H116.571V254.383Z" fill="#78A2FF" stroke="#78A2FF"/>
    <path d="M134.672 260.416H140.705V266.45H134.672V260.416Z" fill="#78A2FF" stroke="#78A2FF"/>
    <path d="M122.605 260.416H128.638V266.45H122.605V260.416Z" fill="#78A2FF" stroke="#78A2FF"/>
    <g id="selector">
        <path d="M139.684 9.6761L139.684 4.83789L134.915 4.83789L134.915 9.6761L139.684 9.6761Z" fill="transparent"/>
        <path d="M144.453 4.83821L144.453 0L139.684 -2.08461e-07L139.684 4.83821L144.453 4.83821Z" fill="transparent"/>
        <path d="M134.915 14.5145L134.915 9.67627L130.146 9.67627L130.146 14.5145L134.915 14.5145Z" fill="transparent"/>
        <path d="M130.146 9.6761L130.146 4.83789L125.377 4.83789L125.377 9.6761L130.146 9.6761Z" fill="transparent"/>
        <path d="M130.146 4.83821L130.146 0L125.377 -2.08461e-07L125.377 4.83821L130.146 4.83821Z" fill="transparent"/>
        <path d="M134.915 4.83821L134.915 0L130.146 -2.08461e-07L130.146 4.83821L134.915 4.83821Z" fill="transparent"/>
        <path d="M139.684 4.83821L139.684 0L134.915 -2.08461e-07L134.915 4.83821L139.684 4.83821Z" fill="transparent"/>
        <path d="M125.377 4.83821L125.377 0L120.608 -2.08461e-07L120.608 4.83821L125.377 4.83821Z" fill="transparent"/>
        <path d="M134.915 9.6761L134.915 4.83789L130.146 4.83789L130.146 9.6761L134.915 9.6761Z" fill="transparent"/>
        <g id="selector2">
            <path d="M3 247L3 277L33 277" stroke="transparent" stroke-width="6"/>
            <path d="M261 247L261 277L231 277" stroke="transparent" stroke-width="6"/>
            <path d="M3 38L3 8L33 8" stroke="transparent" stroke-width="6"/>
            <path d="M261 38L261 8L231 8" stroke="transparent" stroke-width="6"/>
        </g>
    </g>
</svg>
